G04*
G04 #@! TF.GenerationSoftware,Altium Limited,Altium Designer,24.9.1 (31)*
G04*
G04 Layer_Physical_Order=1*
G04 Layer_Color=3105233*
%FSLAX43Y43*%
%MOMM*%
G71*
G04*
G04 #@! TF.SameCoordinates,EB6F8884-3A13-42B7-98C6-1BA732C3788B*
G04*
G04*
G04 #@! TF.FilePolarity,Positive*
G04*
G01*
G75*
%ADD12C,0.250*%
%ADD13C,0.200*%
%ADD14C,0.150*%
G04:AMPARAMS|DCode=34|XSize=0.5mm|YSize=1mm|CornerRadius=0.125mm|HoleSize=0mm|Usage=FLASHONLY|Rotation=90.000|XOffset=0mm|YOffset=0mm|HoleType=Round|Shape=RoundedRectangle|*
%AMROUNDEDRECTD34*
21,1,0.500,0.750,0,0,90.0*
21,1,0.250,1.000,0,0,90.0*
1,1,0.250,0.375,0.125*
1,1,0.250,0.375,-0.125*
1,1,0.250,-0.375,-0.125*
1,1,0.250,-0.375,0.125*
%
%ADD34ROUNDEDRECTD34*%
G04:AMPARAMS|DCode=35|XSize=0.5mm|YSize=1mm|CornerRadius=0.125mm|HoleSize=0mm|Usage=FLASHONLY|Rotation=180.000|XOffset=0mm|YOffset=0mm|HoleType=Round|Shape=RoundedRectangle|*
%AMROUNDEDRECTD35*
21,1,0.500,0.750,0,0,180.0*
21,1,0.250,1.000,0,0,180.0*
1,1,0.250,-0.125,0.375*
1,1,0.250,0.125,0.375*
1,1,0.250,0.125,-0.375*
1,1,0.250,-0.125,-0.375*
%
%ADD35ROUNDEDRECTD35*%
%ADD59C,0.160*%
G04:AMPARAMS|DCode=60|XSize=0.5mm|YSize=0.6mm|CornerRadius=0.063mm|HoleSize=0mm|Usage=FLASHONLY|Rotation=270.000|XOffset=0mm|YOffset=0mm|HoleType=Round|Shape=RoundedRectangle|*
%AMROUNDEDRECTD60*
21,1,0.500,0.475,0,0,270.0*
21,1,0.375,0.600,0,0,270.0*
1,1,0.125,-0.238,-0.188*
1,1,0.125,-0.238,0.188*
1,1,0.125,0.238,0.188*
1,1,0.125,0.238,-0.188*
%
%ADD60ROUNDEDRECTD60*%
G04:AMPARAMS|DCode=61|XSize=0.5mm|YSize=0.6mm|CornerRadius=0.063mm|HoleSize=0mm|Usage=FLASHONLY|Rotation=0.000|XOffset=0mm|YOffset=0mm|HoleType=Round|Shape=RoundedRectangle|*
%AMROUNDEDRECTD61*
21,1,0.500,0.475,0,0,0.0*
21,1,0.375,0.600,0,0,0.0*
1,1,0.125,0.188,-0.238*
1,1,0.125,-0.188,-0.238*
1,1,0.125,-0.188,0.238*
1,1,0.125,0.188,0.238*
%
%ADD61ROUNDEDRECTD61*%
G04:AMPARAMS|DCode=62|XSize=0.8mm|YSize=0.75mm|CornerRadius=0.094mm|HoleSize=0mm|Usage=FLASHONLY|Rotation=0.000|XOffset=0mm|YOffset=0mm|HoleType=Round|Shape=RoundedRectangle|*
%AMROUNDEDRECTD62*
21,1,0.800,0.563,0,0,0.0*
21,1,0.613,0.750,0,0,0.0*
1,1,0.188,0.306,-0.281*
1,1,0.188,-0.306,-0.281*
1,1,0.188,-0.306,0.281*
1,1,0.188,0.306,0.281*
%
%ADD62ROUNDEDRECTD62*%
G04:AMPARAMS|DCode=63|XSize=0.9mm|YSize=0.7mm|CornerRadius=0.088mm|HoleSize=0mm|Usage=FLASHONLY|Rotation=0.000|XOffset=0mm|YOffset=0mm|HoleType=Round|Shape=RoundedRectangle|*
%AMROUNDEDRECTD63*
21,1,0.900,0.525,0,0,0.0*
21,1,0.725,0.700,0,0,0.0*
1,1,0.175,0.363,-0.263*
1,1,0.175,-0.363,-0.263*
1,1,0.175,-0.363,0.263*
1,1,0.175,0.363,0.263*
%
%ADD63ROUNDEDRECTD63*%
G04:AMPARAMS|DCode=64|XSize=3.25mm|YSize=2.15mm|CornerRadius=0.269mm|HoleSize=0mm|Usage=FLASHONLY|Rotation=270.000|XOffset=0mm|YOffset=0mm|HoleType=Round|Shape=RoundedRectangle|*
%AMROUNDEDRECTD64*
21,1,3.250,1.613,0,0,270.0*
21,1,2.713,2.150,0,0,270.0*
1,1,0.538,-0.806,-1.356*
1,1,0.538,-0.806,1.356*
1,1,0.538,0.806,1.356*
1,1,0.538,0.806,-1.356*
%
%ADD64ROUNDEDRECTD64*%
G04:AMPARAMS|DCode=65|XSize=0.95mm|YSize=2.15mm|CornerRadius=0.119mm|HoleSize=0mm|Usage=FLASHONLY|Rotation=270.000|XOffset=0mm|YOffset=0mm|HoleType=Round|Shape=RoundedRectangle|*
%AMROUNDEDRECTD65*
21,1,0.950,1.913,0,0,270.0*
21,1,0.713,2.150,0,0,270.0*
1,1,0.238,-0.956,-0.356*
1,1,0.238,-0.956,0.356*
1,1,0.238,0.956,0.356*
1,1,0.238,0.956,-0.356*
%
%ADD65ROUNDEDRECTD65*%
G04:AMPARAMS|DCode=66|XSize=0.6mm|YSize=0.6mm|CornerRadius=0.075mm|HoleSize=0mm|Usage=FLASHONLY|Rotation=270.000|XOffset=0mm|YOffset=0mm|HoleType=Round|Shape=RoundedRectangle|*
%AMROUNDEDRECTD66*
21,1,0.600,0.450,0,0,270.0*
21,1,0.450,0.600,0,0,270.0*
1,1,0.150,-0.225,-0.225*
1,1,0.150,-0.225,0.225*
1,1,0.150,0.225,0.225*
1,1,0.150,0.225,-0.225*
%
%ADD66ROUNDEDRECTD66*%
%ADD67R,0.350X1.500*%
G04:AMPARAMS|DCode=68|XSize=0.6mm|YSize=0.5mm|CornerRadius=0.063mm|HoleSize=0mm|Usage=FLASHONLY|Rotation=90.000|XOffset=0mm|YOffset=0mm|HoleType=Round|Shape=RoundedRectangle|*
%AMROUNDEDRECTD68*
21,1,0.600,0.375,0,0,90.0*
21,1,0.475,0.500,0,0,90.0*
1,1,0.125,0.188,0.238*
1,1,0.125,0.188,-0.238*
1,1,0.125,-0.188,-0.238*
1,1,0.125,-0.188,0.238*
%
%ADD68ROUNDEDRECTD68*%
G04:AMPARAMS|DCode=69|XSize=0.6mm|YSize=0.5mm|CornerRadius=0.063mm|HoleSize=0mm|Usage=FLASHONLY|Rotation=0.000|XOffset=0mm|YOffset=0mm|HoleType=Round|Shape=RoundedRectangle|*
%AMROUNDEDRECTD69*
21,1,0.600,0.375,0,0,0.0*
21,1,0.475,0.500,0,0,0.0*
1,1,0.125,0.238,-0.188*
1,1,0.125,-0.238,-0.188*
1,1,0.125,-0.238,0.188*
1,1,0.125,0.238,0.188*
%
%ADD69ROUNDEDRECTD69*%
G04:AMPARAMS|DCode=70|XSize=0.8mm|YSize=0.75mm|CornerRadius=0.094mm|HoleSize=0mm|Usage=FLASHONLY|Rotation=90.000|XOffset=0mm|YOffset=0mm|HoleType=Round|Shape=RoundedRectangle|*
%AMROUNDEDRECTD70*
21,1,0.800,0.563,0,0,90.0*
21,1,0.613,0.750,0,0,90.0*
1,1,0.188,0.281,0.306*
1,1,0.188,0.281,-0.306*
1,1,0.188,-0.281,-0.306*
1,1,0.188,-0.281,0.306*
%
%ADD70ROUNDEDRECTD70*%
%ADD71O,0.300X1.200*%
%ADD72O,1.200X0.300*%
G04:AMPARAMS|DCode=73|XSize=1.2mm|YSize=1.2mm|CornerRadius=0.15mm|HoleSize=0mm|Usage=FLASHONLY|Rotation=180.000|XOffset=0mm|YOffset=0mm|HoleType=Round|Shape=RoundedRectangle|*
%AMROUNDEDRECTD73*
21,1,1.200,0.900,0,0,180.0*
21,1,0.900,1.200,0,0,180.0*
1,1,0.300,-0.450,0.450*
1,1,0.300,0.450,0.450*
1,1,0.300,0.450,-0.450*
1,1,0.300,-0.450,-0.450*
%
%ADD73ROUNDEDRECTD73*%
G04:AMPARAMS|DCode=74|XSize=0.9mm|YSize=0.8mm|CornerRadius=0.1mm|HoleSize=0mm|Usage=FLASHONLY|Rotation=0.000|XOffset=0mm|YOffset=0mm|HoleType=Round|Shape=RoundedRectangle|*
%AMROUNDEDRECTD74*
21,1,0.900,0.600,0,0,0.0*
21,1,0.700,0.800,0,0,0.0*
1,1,0.200,0.350,-0.300*
1,1,0.200,-0.350,-0.300*
1,1,0.200,-0.350,0.300*
1,1,0.200,0.350,0.300*
%
%ADD74ROUNDEDRECTD74*%
G04:AMPARAMS|DCode=75|XSize=0.9mm|YSize=1.2mm|CornerRadius=0.113mm|HoleSize=0mm|Usage=FLASHONLY|Rotation=0.000|XOffset=0mm|YOffset=0mm|HoleType=Round|Shape=RoundedRectangle|*
%AMROUNDEDRECTD75*
21,1,0.900,0.975,0,0,0.0*
21,1,0.675,1.200,0,0,0.0*
1,1,0.225,0.338,-0.488*
1,1,0.225,-0.338,-0.488*
1,1,0.225,-0.338,0.488*
1,1,0.225,0.338,0.488*
%
%ADD75ROUNDEDRECTD75*%
G04:AMPARAMS|DCode=76|XSize=2.1mm|YSize=2.1mm|CornerRadius=0.105mm|HoleSize=0mm|Usage=FLASHONLY|Rotation=90.000|XOffset=0mm|YOffset=0mm|HoleType=Round|Shape=RoundedRectangle|*
%AMROUNDEDRECTD76*
21,1,2.100,1.890,0,0,90.0*
21,1,1.890,2.100,0,0,90.0*
1,1,0.210,0.945,0.945*
1,1,0.210,0.945,-0.945*
1,1,0.210,-0.945,-0.945*
1,1,0.210,-0.945,0.945*
%
%ADD76ROUNDEDRECTD76*%
G04:AMPARAMS|DCode=77|XSize=0.6mm|YSize=0.25mm|CornerRadius=0.063mm|HoleSize=0mm|Usage=FLASHONLY|Rotation=180.000|XOffset=0mm|YOffset=0mm|HoleType=Round|Shape=RoundedRectangle|*
%AMROUNDEDRECTD77*
21,1,0.600,0.125,0,0,180.0*
21,1,0.475,0.250,0,0,180.0*
1,1,0.125,-0.238,0.063*
1,1,0.125,0.238,0.063*
1,1,0.125,0.238,-0.063*
1,1,0.125,-0.238,-0.063*
%
%ADD77ROUNDEDRECTD77*%
G04:AMPARAMS|DCode=78|XSize=0.6mm|YSize=0.25mm|CornerRadius=0.063mm|HoleSize=0mm|Usage=FLASHONLY|Rotation=270.000|XOffset=0mm|YOffset=0mm|HoleType=Round|Shape=RoundedRectangle|*
%AMROUNDEDRECTD78*
21,1,0.600,0.125,0,0,270.0*
21,1,0.475,0.250,0,0,270.0*
1,1,0.125,-0.063,-0.238*
1,1,0.125,-0.063,0.238*
1,1,0.125,0.063,0.238*
1,1,0.125,0.063,-0.238*
%
%ADD78ROUNDEDRECTD78*%
%ADD79C,0.400*%
%ADD80C,0.350*%
%ADD81C,0.300*%
%ADD82C,0.140*%
%ADD83C,0.130*%
%ADD84C,0.900*%
%ADD85C,0.600*%
%ADD86C,0.700*%
%AMCUSTOMSHAPE87*
4,1,6,0.000,0.500,0.000,-0.500,-0.500,-0.500,-0.600,-0.400,-0.600,0.400,-0.500,0.500,0.000,0.500,0.0*%
%ADD87CUSTOMSHAPE87*%

%ADD88C,1.000*%
%ADD89C,5.500*%
%AMCUSTOMSHAPE90*
4,1,6,0.000,-0.500,0.000,0.500,0.500,0.500,0.600,0.400,0.600,-0.400,0.500,-0.500,0.000,-0.500,0.0*%
%ADD90CUSTOMSHAPE90*%

%ADD91C,0.400*%
G36*
X14913Y-30D02*
X14970Y-87D01*
X15000Y-160D01*
Y-200D01*
Y-1200D01*
X14500D01*
X14431Y-1131D01*
Y-1367D01*
X14145D01*
Y-1567D01*
X14165Y-1665D01*
X14193Y-1765D01*
X14045Y-2050D01*
X13857Y-2069D01*
X13637D01*
X13434Y-1866D01*
X13327Y-1794D01*
X13200Y-1769D01*
X9762D01*
X9761Y-1769D01*
X9753Y-1767D01*
X9746Y-1765D01*
X9740Y-1763D01*
X9734Y-1760D01*
X9727Y-1756D01*
X9721Y-1752D01*
X9720Y-1751D01*
X8834Y-866D01*
X8904Y-558D01*
X8937Y-510D01*
X13685D01*
X13647Y-502D01*
X13600Y-500D01*
X6000D01*
Y-500D01*
X6000Y-500D01*
X5655Y-504D01*
X4967Y-564D01*
X4690Y-615D01*
X4714Y-660D01*
X4753Y-810D01*
X4676Y-924D01*
X4641Y-1100D01*
X4676Y-1276D01*
X4776Y-1424D01*
X4924Y-1524D01*
X5100Y-1559D01*
X5148D01*
X5273Y-1859D01*
X4563Y-2569D01*
X2100D01*
X2066Y-2575D01*
X1930Y-2296D01*
X1975Y-2258D01*
X1776Y-2059D01*
X2059Y-1776D01*
X2258Y-1975D01*
X2435Y-1769D01*
X2681Y-1366D01*
X2718Y-1276D01*
X2371Y-1457D01*
X1792Y-1833D01*
X1253Y-2265D01*
X1000Y-2500D01*
Y-500D01*
X-1000D01*
X-1000Y-2500D01*
X-1253Y-2265D01*
X-1792Y-1833D01*
X-2371Y-1457D01*
X-2718Y-1276D01*
X-2681Y-1366D01*
X-2435Y-1769D01*
X-2258Y-1975D01*
X-2059Y-1776D01*
X-1776Y-2059D01*
X-1975Y-2258D01*
X-1769Y-2435D01*
X-1366Y-2681D01*
X-930Y-2862D01*
X-471Y-2972D01*
X0Y-3009D01*
X471Y-2972D01*
X930Y-2862D01*
X1366Y-2681D01*
X1520Y-2587D01*
X1707Y-2824D01*
X263Y-4269D01*
X-986D01*
X-1124Y-4176D01*
X-1300Y-4141D01*
X-1476Y-4176D01*
X-1624Y-4276D01*
X-1724Y-4424D01*
X-2022Y-4575D01*
X-2036Y-4574D01*
X-2200Y-4541D01*
X-2376Y-4576D01*
X-2524Y-4676D01*
X-2724Y-4876D01*
X-2900Y-4841D01*
X-3076Y-4876D01*
X-3224Y-4976D01*
X-3303Y-5094D01*
X-3636D01*
X-3712Y-5031D01*
X-3816Y-4896D01*
X-3851Y-4811D01*
X-3844Y-4775D01*
Y-4325D01*
X-3869Y-4198D01*
X-3941Y-4091D01*
X-4043Y-4022D01*
Y-3682D01*
X-4041Y-3682D01*
X-3937Y-3613D01*
X-3868Y-3509D01*
X-3844Y-3387D01*
Y-3012D01*
X-3868Y-2891D01*
X-3937Y-2787D01*
Y-2613D01*
X-3868Y-2509D01*
X-3844Y-2388D01*
Y-2013D01*
X-3868Y-1891D01*
X-3937Y-1787D01*
X-4041Y-1718D01*
X-4162Y-1694D01*
X-4637D01*
X-4759Y-1718D01*
X-4774Y-1728D01*
X-4897Y-1736D01*
X-4915Y-1735D01*
X-4919Y-1732D01*
X-4921Y-1731D01*
X-4941Y-1718D01*
X-5062Y-1694D01*
X-5537D01*
X-5659Y-1718D01*
X-5674Y-1728D01*
X-5797Y-1736D01*
X-5815Y-1735D01*
X-5819Y-1732D01*
X-5821Y-1731D01*
X-5841Y-1718D01*
X-5963Y-1694D01*
X-6438D01*
X-6559Y-1718D01*
X-6574Y-1728D01*
X-6697Y-1736D01*
X-6715Y-1735D01*
X-6719Y-1732D01*
X-6721Y-1731D01*
X-6741Y-1718D01*
X-6863Y-1694D01*
X-7338D01*
X-7459Y-1718D01*
X-7494Y-1741D01*
X-8000D01*
X-8176Y-1776D01*
X-8313Y-1868D01*
X-8327Y-1875D01*
X-8654Y-1829D01*
X-8671Y-1789D01*
X-8835Y-1544D01*
X-9044Y-1335D01*
X-9289Y-1171D01*
X-9562Y-1058D01*
X-9852Y-1000D01*
X-10148D01*
X-10438Y-1058D01*
X-10711Y-1171D01*
X-10956Y-1335D01*
X-11165Y-1544D01*
X-11329Y-1789D01*
X-11442Y-2062D01*
X-11500Y-2352D01*
Y-2471D01*
X-11557Y-2518D01*
X-11800Y-2595D01*
X-12208Y-2188D01*
X-12323Y-2110D01*
X-12416Y-2092D01*
X-12418Y-2081D01*
X-12487Y-1977D01*
X-12591Y-1908D01*
X-12713Y-1884D01*
X-13088D01*
X-13209Y-1908D01*
X-13313Y-1977D01*
X-13487D01*
X-13591Y-1908D01*
X-13712Y-1884D01*
X-13948D01*
X-13970Y-1868D01*
X-14018Y-1818D01*
X-14143Y-1627D01*
X-14150Y-1594D01*
X-14145Y-1570D01*
Y-1370D01*
X-14431D01*
Y-1131D01*
X-14500Y-1200D01*
X-15000D01*
Y-241D01*
Y-193D01*
X-14963Y-104D01*
X-14896Y-37D01*
X-14807Y0D01*
X14840D01*
X14913Y-30D01*
D02*
G37*
G36*
X-4683Y-2000D02*
X-4679Y-2000D01*
X-4603Y-2000D01*
Y-2400D01*
X-4679Y-2400D01*
X-4683Y-2401D01*
Y-2433D01*
X-4690Y-2427D01*
X-4704Y-2421D01*
X-4726Y-2416D01*
X-4756Y-2412D01*
X-4801Y-2408D01*
X-4996Y-2421D01*
X-5010Y-2427D01*
X-5017Y-2433D01*
Y-2400D01*
X-5021Y-2400D01*
X-5097Y-2400D01*
Y-2000D01*
X-5021Y-2000D01*
X-5017Y-1999D01*
Y-1967D01*
X-5010Y-1973D01*
X-4996Y-1979D01*
X-4974Y-1984D01*
X-4944Y-1988D01*
X-4899Y-1992D01*
X-4704Y-1979D01*
X-4690Y-1973D01*
X-4683Y-1967D01*
Y-2000D01*
D02*
G37*
G36*
X-5583D02*
X-5579Y-2000D01*
X-5503Y-2000D01*
Y-2400D01*
X-5579Y-2400D01*
X-5583Y-2401D01*
Y-2433D01*
X-5590Y-2427D01*
X-5604Y-2421D01*
X-5626Y-2416D01*
X-5656Y-2412D01*
X-5701Y-2408D01*
X-5896Y-2421D01*
X-5910Y-2427D01*
X-5917Y-2433D01*
Y-2400D01*
X-5921Y-2400D01*
X-5997Y-2400D01*
Y-2000D01*
X-5921Y-2000D01*
X-5917Y-1999D01*
Y-1967D01*
X-5910Y-1973D01*
X-5896Y-1979D01*
X-5874Y-1984D01*
X-5844Y-1988D01*
X-5799Y-1992D01*
X-5604Y-1979D01*
X-5590Y-1973D01*
X-5583Y-1967D01*
Y-2000D01*
D02*
G37*
G36*
X-6483D02*
X-6479Y-2000D01*
X-6403Y-2000D01*
Y-2400D01*
X-6479Y-2400D01*
X-6483Y-2401D01*
Y-2433D01*
X-6490Y-2427D01*
X-6504Y-2421D01*
X-6526Y-2416D01*
X-6556Y-2412D01*
X-6601Y-2408D01*
X-6796Y-2421D01*
X-6810Y-2427D01*
X-6817Y-2433D01*
Y-2400D01*
X-6821Y-2400D01*
X-6897Y-2400D01*
Y-2000D01*
X-6821Y-2000D01*
X-6817Y-1999D01*
Y-1967D01*
X-6810Y-1973D01*
X-6796Y-1979D01*
X-6774Y-1984D01*
X-6744Y-1988D01*
X-6699Y-1992D01*
X-6504Y-1979D01*
X-6490Y-1973D01*
X-6483Y-1967D01*
Y-2000D01*
D02*
G37*
G36*
X9547Y-1939D02*
X9569Y-1957D01*
X9593Y-1973D01*
X9617Y-1987D01*
X9642Y-1998D01*
X9668Y-2008D01*
X9695Y-2015D01*
X9723Y-2021D01*
X9752Y-2024D01*
X9781Y-2025D01*
X9825Y-2175D01*
X9797Y-2177D01*
X9771Y-2181D01*
X9748Y-2188D01*
X9729Y-2199D01*
X9712Y-2213D01*
X9699Y-2229D01*
X9689Y-2249D01*
X9681Y-2271D01*
X9677Y-2296D01*
X9675Y-2325D01*
X9525Y-2281D01*
X9524Y-2252D01*
X9521Y-2223D01*
X9515Y-2195D01*
X9508Y-2168D01*
X9498Y-2142D01*
X9487Y-2117D01*
X9473Y-2093D01*
X9457Y-2069D01*
X9439Y-2047D01*
X9419Y-2025D01*
X9525Y-1919D01*
X9547Y-1939D01*
D02*
G37*
G36*
X-14149Y-2640D02*
X-14151Y-2621D01*
X-14157Y-2604D01*
X-14167Y-2589D01*
X-14181Y-2576D01*
X-14200Y-2565D01*
X-14222Y-2556D01*
X-14248Y-2549D01*
X-14277Y-2544D01*
X-14305Y-2549D01*
X-14331Y-2556D01*
X-14353Y-2565D01*
X-14371Y-2576D01*
X-14385Y-2589D01*
X-14395Y-2604D01*
X-14401Y-2621D01*
X-14403Y-2640D01*
Y-2240D01*
X-14401Y-2259D01*
X-14395Y-2276D01*
X-14385Y-2291D01*
X-14371Y-2304D01*
X-14353Y-2315D01*
X-14331Y-2324D01*
X-14305Y-2331D01*
X-14277Y-2336D01*
X-14248Y-2331D01*
X-14222Y-2324D01*
X-14200Y-2315D01*
X-14181Y-2304D01*
X-14167Y-2291D01*
X-14157Y-2276D01*
X-14151Y-2259D01*
X-14149Y-2240D01*
Y-2640D01*
D02*
G37*
G36*
X8651Y-2244D02*
X8666Y-2256D01*
X8681Y-2267D01*
X8696Y-2276D01*
X8712Y-2283D01*
X8729Y-2289D01*
X8745Y-2294D01*
X8762Y-2298D01*
X8780Y-2299D01*
X8798Y-2300D01*
X8600Y-2498D01*
X8599Y-2480D01*
X8598Y-2462D01*
X8594Y-2445D01*
X8589Y-2429D01*
X8583Y-2412D01*
X8576Y-2396D01*
X8567Y-2381D01*
X8556Y-2366D01*
X8544Y-2351D01*
X8531Y-2337D01*
X8637Y-2231D01*
X8651Y-2244D01*
D02*
G37*
G36*
X14406Y-2550D02*
X14405Y-2536D01*
X14400Y-2523D01*
X14393Y-2512D01*
X14382Y-2502D01*
X14368Y-2494D01*
X14351Y-2487D01*
X14331Y-2482D01*
X14308Y-2478D01*
X14282Y-2476D01*
X14253Y-2475D01*
Y-2325D01*
X14282Y-2324D01*
X14308Y-2322D01*
X14331Y-2318D01*
X14351Y-2313D01*
X14368Y-2306D01*
X14382Y-2298D01*
X14393Y-2288D01*
X14400Y-2277D01*
X14405Y-2264D01*
X14406Y-2250D01*
Y-2550D01*
D02*
G37*
G36*
X-12649Y-2269D02*
X-12644Y-2284D01*
X-12634Y-2297D01*
X-12621Y-2308D01*
X-12603Y-2318D01*
X-12582Y-2326D01*
X-12558Y-2332D01*
X-12529Y-2336D01*
X-12496Y-2339D01*
X-12460Y-2340D01*
Y-2540D01*
X-12496Y-2541D01*
X-12529Y-2544D01*
X-12558Y-2548D01*
X-12582Y-2554D01*
X-12603Y-2562D01*
X-12621Y-2572D01*
X-12634Y-2583D01*
X-12644Y-2596D01*
X-12649Y-2611D01*
X-12651Y-2628D01*
Y-2252D01*
X-12649Y-2269D01*
D02*
G37*
G36*
X9001Y-2520D02*
X9002Y-2538D01*
X9006Y-2555D01*
X9011Y-2571D01*
X9017Y-2588D01*
X9024Y-2604D01*
X9033Y-2619D01*
X9044Y-2634D01*
X9056Y-2649D01*
X9069Y-2663D01*
X8963Y-2769D01*
X8949Y-2756D01*
X8934Y-2744D01*
X8919Y-2733D01*
X8904Y-2724D01*
X8888Y-2717D01*
X8871Y-2711D01*
X8855Y-2706D01*
X8838Y-2702D01*
X8820Y-2701D01*
X8802Y-2700D01*
X9000Y-2502D01*
X9001Y-2520D01*
D02*
G37*
G36*
X10335Y-2949D02*
X10333Y-2956D01*
X10333Y-2964D01*
X10335Y-2974D01*
X10339Y-2984D01*
X10346Y-2996D01*
X10355Y-3008D01*
X10366Y-3022D01*
X10379Y-3037D01*
X10394Y-3053D01*
X10214Y-3156D01*
X10082Y-2961D01*
X10340Y-2943D01*
X10335Y-2949D01*
D02*
G37*
G36*
X-7338Y-3452D02*
X-7349Y-3449D01*
X-7362Y-3450D01*
X-7376Y-3453D01*
X-7393Y-3460D01*
X-7411Y-3470D01*
X-7430Y-3484D01*
X-7452Y-3500D01*
X-7500Y-3542D01*
X-7527Y-3568D01*
X-7543Y-3302D01*
X-7513Y-3270D01*
X-7462Y-3209D01*
X-7443Y-3179D01*
X-7426Y-3150D01*
X-7414Y-3122D01*
X-7405Y-3095D01*
X-7399Y-3069D01*
X-7397Y-3044D01*
X-7399Y-3019D01*
X-7338Y-3452D01*
D02*
G37*
G36*
X11230Y-3314D02*
X11238Y-3517D01*
X11022D01*
X11024Y-3514D01*
X11025Y-3508D01*
X11026Y-3497D01*
X11028Y-3465D01*
X11030Y-3314D01*
X11230Y-3314D01*
D02*
G37*
G36*
X9705Y-3382D02*
X9710Y-3452D01*
X9713Y-3469D01*
X9717Y-3484D01*
X9721Y-3497D01*
X9726Y-3506D01*
X9732Y-3513D01*
X9738Y-3517D01*
X9522D01*
X9528Y-3513D01*
X9534Y-3506D01*
X9539Y-3497D01*
X9543Y-3484D01*
X9547Y-3469D01*
X9550Y-3452D01*
X9552Y-3431D01*
X9555Y-3382D01*
X9555Y-3353D01*
X9705D01*
X9705Y-3382D01*
D02*
G37*
G36*
X9205D02*
X9210Y-3452D01*
X9213Y-3469D01*
X9217Y-3484D01*
X9221Y-3497D01*
X9226Y-3506D01*
X9232Y-3513D01*
X9238Y-3517D01*
X9022D01*
X9028Y-3513D01*
X9034Y-3506D01*
X9039Y-3497D01*
X9043Y-3484D01*
X9047Y-3469D01*
X9050Y-3452D01*
X9052Y-3431D01*
X9055Y-3382D01*
X9055Y-3353D01*
X9205D01*
X9205Y-3382D01*
D02*
G37*
G36*
X5381Y-3417D02*
X5382Y-3436D01*
X5385Y-3454D01*
X5390Y-3471D01*
X5395Y-3488D01*
X5402Y-3503D01*
X5409Y-3518D01*
X5418Y-3532D01*
X5429Y-3545D01*
X5440Y-3557D01*
X5160D01*
X5171Y-3545D01*
X5182Y-3532D01*
X5191Y-3518D01*
X5198Y-3503D01*
X5205Y-3488D01*
X5210Y-3471D01*
X5215Y-3454D01*
X5218Y-3436D01*
X5219Y-3417D01*
X5220Y-3397D01*
X5380D01*
X5381Y-3417D01*
D02*
G37*
G36*
X-14149Y-3910D02*
X-14151Y-3891D01*
X-14157Y-3874D01*
X-14167Y-3859D01*
X-14181Y-3846D01*
X-14200Y-3835D01*
X-14222Y-3826D01*
X-14248Y-3819D01*
X-14277Y-3814D01*
X-14305Y-3819D01*
X-14331Y-3826D01*
X-14353Y-3835D01*
X-14371Y-3846D01*
X-14385Y-3859D01*
X-14395Y-3874D01*
X-14401Y-3891D01*
X-14403Y-3910D01*
Y-3510D01*
X-14401Y-3529D01*
X-14395Y-3546D01*
X-14385Y-3561D01*
X-14371Y-3574D01*
X-14353Y-3585D01*
X-14331Y-3594D01*
X-14305Y-3601D01*
X-14277Y-3606D01*
X-14248Y-3601D01*
X-14222Y-3594D01*
X-14200Y-3585D01*
X-14181Y-3574D01*
X-14167Y-3561D01*
X-14157Y-3546D01*
X-14151Y-3529D01*
X-14149Y-3510D01*
Y-3910D01*
D02*
G37*
G36*
X7738Y-3517D02*
X7506Y-3629D01*
X7519Y-3621D01*
X7526Y-3609D01*
X7528Y-3595D01*
X7525Y-3578D01*
X7518Y-3558D01*
X7505Y-3536D01*
X7487Y-3510D01*
X7464Y-3482D01*
X7404Y-3417D01*
X7542Y-3328D01*
X7738Y-3517D01*
D02*
G37*
G36*
X8238Y-3517D02*
X8006Y-3629D01*
X8019Y-3621D01*
X8026Y-3609D01*
X8028Y-3595D01*
X8025Y-3578D01*
X8018Y-3558D01*
X8005Y-3536D01*
X7987Y-3510D01*
X7964Y-3482D01*
X7904Y-3417D01*
X8042Y-3328D01*
X8238Y-3517D01*
D02*
G37*
G36*
X-4219Y-3451D02*
X-4236Y-3457D01*
X-4251Y-3467D01*
X-4264Y-3481D01*
X-4275Y-3500D01*
X-4284Y-3522D01*
X-4291Y-3548D01*
X-4296Y-3579D01*
X-4299Y-3613D01*
X-4300Y-3652D01*
X-4500D01*
X-4501Y-3613D01*
X-4504Y-3579D01*
X-4509Y-3548D01*
X-4516Y-3522D01*
X-4525Y-3500D01*
X-4536Y-3481D01*
X-4549Y-3467D01*
X-4564Y-3457D01*
X-4581Y-3451D01*
X-4600Y-3449D01*
X-4200D01*
X-4219Y-3451D01*
D02*
G37*
G36*
X-5119D02*
X-5136Y-3457D01*
X-5151Y-3467D01*
X-5164Y-3481D01*
X-5175Y-3500D01*
X-5184Y-3522D01*
X-5191Y-3548D01*
X-5196Y-3579D01*
X-5199Y-3613D01*
X-5200Y-3652D01*
X-5400D01*
X-5401Y-3613D01*
X-5404Y-3579D01*
X-5409Y-3548D01*
X-5416Y-3522D01*
X-5425Y-3500D01*
X-5436Y-3481D01*
X-5449Y-3467D01*
X-5464Y-3457D01*
X-5481Y-3451D01*
X-5500Y-3449D01*
X-5100D01*
X-5119Y-3451D01*
D02*
G37*
G36*
X-6019D02*
X-6036Y-3457D01*
X-6051Y-3467D01*
X-6064Y-3481D01*
X-6075Y-3500D01*
X-6084Y-3522D01*
X-6091Y-3548D01*
X-6096Y-3579D01*
X-6099Y-3613D01*
X-6100Y-3652D01*
X-6300D01*
X-6301Y-3613D01*
X-6304Y-3579D01*
X-6309Y-3548D01*
X-6316Y-3522D01*
X-6325Y-3500D01*
X-6336Y-3481D01*
X-6349Y-3467D01*
X-6364Y-3457D01*
X-6381Y-3451D01*
X-6400Y-3449D01*
X-6000D01*
X-6019Y-3451D01*
D02*
G37*
G36*
X5157Y-3840D02*
X5145Y-3829D01*
X5132Y-3818D01*
X5118Y-3809D01*
X5103Y-3802D01*
X5088Y-3795D01*
X5071Y-3790D01*
X5054Y-3785D01*
X5036Y-3782D01*
X5017Y-3781D01*
X4997Y-3780D01*
Y-3620D01*
X5017Y-3619D01*
X5036Y-3618D01*
X5054Y-3615D01*
X5071Y-3610D01*
X5088Y-3605D01*
X5103Y-3598D01*
X5118Y-3591D01*
X5132Y-3582D01*
X5145Y-3571D01*
X5157Y-3560D01*
Y-3840D01*
D02*
G37*
G36*
X-12649Y-3529D02*
X-12643Y-3546D01*
X-12633Y-3561D01*
X-12619Y-3574D01*
X-12600Y-3585D01*
X-12578Y-3594D01*
X-12552Y-3601D01*
X-12521Y-3606D01*
X-12487Y-3609D01*
X-12448Y-3610D01*
Y-3810D01*
X-12487Y-3811D01*
X-12521Y-3814D01*
X-12552Y-3819D01*
X-12578Y-3826D01*
X-12600Y-3835D01*
X-12619Y-3846D01*
X-12633Y-3859D01*
X-12643Y-3874D01*
X-12649Y-3891D01*
X-12651Y-3910D01*
Y-3510D01*
X-12649Y-3529D01*
D02*
G37*
G36*
X-9095Y-4091D02*
X-9084Y-4094D01*
X-9067Y-4096D01*
X-9048Y-4098D01*
X-9007Y-4100D01*
Y-4300D01*
X-9028Y-4300D01*
X-9067Y-4304D01*
X-9084Y-4306D01*
X-9095Y-4309D01*
X-9095Y-4397D01*
X-9097Y-4379D01*
X-9103Y-4362D01*
X-9113Y-4348D01*
X-9127Y-4335D01*
X-9141Y-4327D01*
X-9149Y-4332D01*
X-9157Y-4340D01*
Y-4320D01*
X-9169Y-4316D01*
X-9195Y-4309D01*
X-9226Y-4304D01*
X-9261Y-4301D01*
X-9300Y-4300D01*
Y-4100D01*
X-9261Y-4099D01*
X-9226Y-4096D01*
X-9195Y-4091D01*
X-9169Y-4084D01*
X-9157Y-4080D01*
Y-4060D01*
X-9149Y-4068D01*
X-9141Y-4073D01*
X-9127Y-4065D01*
X-9113Y-4052D01*
X-9103Y-4038D01*
X-9097Y-4021D01*
X-9095Y-4003D01*
X-9095Y-4091D01*
D02*
G37*
G36*
X-6899Y-3888D02*
X-6896Y-3922D01*
X-6891Y-3953D01*
X-6884Y-3979D01*
X-6879Y-3993D01*
X-6860D01*
X-6868Y-4001D01*
X-6872Y-4007D01*
X-6865Y-4019D01*
X-6852Y-4033D01*
X-6837Y-4043D01*
X-6820Y-4049D01*
X-6802Y-4051D01*
X-6890D01*
X-6894Y-4066D01*
X-6896Y-4083D01*
X-6898Y-4102D01*
X-6900Y-4143D01*
X-7100Y-4143D01*
X-7100Y-4122D01*
X-7104Y-4083D01*
X-7106Y-4066D01*
X-7110Y-4051D01*
X-7198D01*
X-7180Y-4049D01*
X-7163Y-4043D01*
X-7148Y-4033D01*
X-7135Y-4019D01*
X-7128Y-4007D01*
X-7132Y-4001D01*
X-7140Y-3993D01*
X-7121D01*
X-7116Y-3979D01*
X-7109Y-3953D01*
X-7104Y-3922D01*
X-7101Y-3888D01*
X-7100Y-3850D01*
X-6900D01*
X-6899Y-3888D01*
D02*
G37*
G36*
X-4299Y-4090D02*
X-4296Y-4125D01*
X-4291Y-4155D01*
X-4284Y-4182D01*
X-4275Y-4204D01*
X-4264Y-4222D01*
X-4251Y-4236D01*
X-4236Y-4247D01*
X-4219Y-4253D01*
X-4200Y-4255D01*
X-4600D01*
X-4581Y-4253D01*
X-4564Y-4247D01*
X-4549Y-4236D01*
X-4536Y-4222D01*
X-4525Y-4204D01*
X-4516Y-4182D01*
X-4509Y-4155D01*
X-4504Y-4125D01*
X-4501Y-4090D01*
X-4500Y-4052D01*
X-4300D01*
X-4299Y-4090D01*
D02*
G37*
G36*
X-5199D02*
X-5196Y-4125D01*
X-5191Y-4155D01*
X-5184Y-4182D01*
X-5175Y-4204D01*
X-5164Y-4222D01*
X-5151Y-4236D01*
X-5136Y-4247D01*
X-5119Y-4253D01*
X-5100Y-4255D01*
X-5500D01*
X-5481Y-4253D01*
X-5464Y-4247D01*
X-5449Y-4236D01*
X-5436Y-4222D01*
X-5425Y-4204D01*
X-5416Y-4182D01*
X-5409Y-4155D01*
X-5404Y-4125D01*
X-5401Y-4090D01*
X-5400Y-4052D01*
X-5200D01*
X-5199Y-4090D01*
D02*
G37*
G36*
X-6099D02*
X-6096Y-4125D01*
X-6091Y-4155D01*
X-6084Y-4182D01*
X-6075Y-4204D01*
X-6064Y-4222D01*
X-6051Y-4236D01*
X-6036Y-4247D01*
X-6019Y-4253D01*
X-6000Y-4255D01*
X-6400D01*
X-6381Y-4253D01*
X-6364Y-4247D01*
X-6349Y-4236D01*
X-6336Y-4222D01*
X-6325Y-4204D01*
X-6316Y-4182D01*
X-6309Y-4155D01*
X-6304Y-4125D01*
X-6301Y-4090D01*
X-6300Y-4052D01*
X-6100D01*
X-6099Y-4090D01*
D02*
G37*
G36*
X-7799D02*
X-7796Y-4125D01*
X-7791Y-4155D01*
X-7784Y-4182D01*
X-7775Y-4204D01*
X-7764Y-4222D01*
X-7751Y-4236D01*
X-7736Y-4247D01*
X-7719Y-4253D01*
X-7700Y-4255D01*
X-8100D01*
X-8081Y-4253D01*
X-8064Y-4247D01*
X-8049Y-4236D01*
X-8036Y-4222D01*
X-8025Y-4204D01*
X-8016Y-4182D01*
X-8009Y-4155D01*
X-8004Y-4125D01*
X-8001Y-4090D01*
X-8000Y-4052D01*
X-7800D01*
X-7799Y-4090D01*
D02*
G37*
G36*
X12706Y-4299D02*
X12704Y-4280D01*
X12698Y-4263D01*
X12687Y-4248D01*
X12673Y-4236D01*
X12654Y-4225D01*
X12631Y-4216D01*
X12604Y-4209D01*
X12573Y-4204D01*
X12538Y-4201D01*
X12498Y-4200D01*
Y-4000D01*
X12538Y-3999D01*
X12573Y-3996D01*
X12604Y-3991D01*
X12631Y-3984D01*
X12654Y-3975D01*
X12673Y-3964D01*
X12687Y-3952D01*
X12698Y-3937D01*
X12704Y-3920D01*
X12706Y-3901D01*
Y-4299D01*
D02*
G37*
G36*
X12181Y-4191D02*
X12157Y-4216D01*
X12118Y-4262D01*
X12104Y-4283D01*
X12092Y-4304D01*
X12084Y-4323D01*
X12079Y-4341D01*
X12077Y-4358D01*
X12078Y-4373D01*
X12082Y-4388D01*
X11624Y-4326D01*
X11649Y-4328D01*
X11674Y-4326D01*
X11701Y-4320D01*
X11728Y-4311D01*
X11756Y-4298D01*
X11784Y-4282D01*
X11814Y-4262D01*
X11844Y-4239D01*
X11875Y-4212D01*
X11907Y-4182D01*
X12181Y-4191D01*
D02*
G37*
G36*
X10446Y-4332D02*
X10568Y-4356D01*
X10693D01*
X10814Y-4332D01*
X10880Y-4288D01*
X10946Y-4332D01*
X11198Y-4382D01*
X11224Y-4513D01*
X11248Y-4634D01*
X11292Y-4700D01*
X11248Y-4766D01*
X11224Y-4888D01*
Y-5013D01*
X11231Y-5046D01*
X11172Y-5157D01*
X11081Y-5284D01*
X11022Y-5336D01*
X10910Y-5358D01*
X10761Y-5458D01*
X10661Y-5606D01*
X10627Y-5782D01*
X10661Y-5958D01*
X10703Y-6020D01*
Y-6785D01*
X10732Y-6932D01*
X10815Y-7056D01*
X10980Y-7220D01*
X11104Y-7303D01*
X11142Y-7311D01*
X11239Y-7588D01*
X11185Y-7685D01*
X11168Y-7694D01*
X10917Y-7719D01*
X10837Y-7694D01*
X10824Y-7676D01*
X10676Y-7576D01*
X10500Y-7541D01*
X10324Y-7576D01*
X10176Y-7676D01*
X10124D01*
X9976Y-7576D01*
X9800Y-7541D01*
X9624Y-7576D01*
X9476Y-7676D01*
X9444Y-7722D01*
X9376Y-7676D01*
X9200Y-7641D01*
X9024Y-7676D01*
X8900Y-7759D01*
X8776Y-7676D01*
X8600Y-7641D01*
X8424Y-7676D01*
X8300Y-7759D01*
X8228Y-7711D01*
X8027Y-7479D01*
X8045Y-7368D01*
X8059Y-7300D01*
X8024Y-7124D01*
X7924Y-6976D01*
X7776Y-6876D01*
X7745Y-6700D01*
X7776Y-6524D01*
X7924Y-6424D01*
X8024Y-6276D01*
X8059Y-6100D01*
X8024Y-5924D01*
X7924Y-5776D01*
X7878Y-5744D01*
X7924Y-5676D01*
X7959Y-5500D01*
X7924Y-5324D01*
X7824Y-5176D01*
X7676Y-5076D01*
X7564Y-5054D01*
X7536Y-5013D01*
Y-4888D01*
X7512Y-4766D01*
X7468Y-4700D01*
X7512Y-4634D01*
X7536Y-4513D01*
X7562Y-4382D01*
X7693Y-4356D01*
X7814Y-4332D01*
X7880Y-4288D01*
X7946Y-4332D01*
X8068Y-4356D01*
X8193D01*
X8314Y-4332D01*
X8380Y-4288D01*
X8446Y-4332D01*
X8568Y-4356D01*
X8693D01*
X8814Y-4332D01*
X8880Y-4288D01*
X8946Y-4332D01*
X9068Y-4356D01*
X9193D01*
X9314Y-4332D01*
X9380Y-4288D01*
X9446Y-4332D01*
X9568Y-4356D01*
X9693D01*
X9814Y-4332D01*
X9880Y-4288D01*
X9946Y-4332D01*
X10068Y-4356D01*
X10193D01*
X10314Y-4332D01*
X10380Y-4288D01*
X10446Y-4332D01*
D02*
G37*
G36*
X6647Y-4313D02*
X6653Y-4315D01*
X6661Y-4318D01*
X6671Y-4320D01*
X6684Y-4321D01*
X6714Y-4324D01*
X6776Y-4325D01*
X6776Y-4575D01*
X6753Y-4575D01*
X6671Y-4580D01*
X6661Y-4582D01*
X6653Y-4585D01*
X6647Y-4587D01*
X6643Y-4590D01*
X6643Y-4310D01*
X6647Y-4313D01*
D02*
G37*
G36*
X-1144Y-4472D02*
X-1130Y-4483D01*
X-1116Y-4493D01*
X-1101Y-4502D01*
X-1085Y-4509D01*
X-1068Y-4515D01*
X-1051Y-4519D01*
X-1033Y-4522D01*
X-1014Y-4524D01*
X-995Y-4525D01*
Y-4675D01*
X-1014Y-4676D01*
X-1033Y-4678D01*
X-1051Y-4681D01*
X-1068Y-4685D01*
X-1085Y-4691D01*
X-1101Y-4698D01*
X-1116Y-4707D01*
X-1130Y-4717D01*
X-1144Y-4728D01*
X-1157Y-4740D01*
Y-4460D01*
X-1144Y-4472D01*
D02*
G37*
G36*
X-14149Y-5180D02*
X-14151Y-5161D01*
X-14157Y-5144D01*
X-14167Y-5129D01*
X-14181Y-5116D01*
X-14200Y-5105D01*
X-14222Y-5096D01*
X-14248Y-5089D01*
X-14277Y-5084D01*
X-14305Y-5089D01*
X-14331Y-5096D01*
X-14353Y-5105D01*
X-14371Y-5116D01*
X-14385Y-5129D01*
X-14395Y-5144D01*
X-14401Y-5161D01*
X-14403Y-5180D01*
Y-4780D01*
X-14401Y-4799D01*
X-14395Y-4816D01*
X-14385Y-4831D01*
X-14371Y-4844D01*
X-14353Y-4855D01*
X-14331Y-4864D01*
X-14305Y-4871D01*
X-14277Y-4876D01*
X-14248Y-4871D01*
X-14222Y-4864D01*
X-14200Y-4855D01*
X-14181Y-4844D01*
X-14167Y-4831D01*
X-14157Y-4816D01*
X-14151Y-4799D01*
X-14149Y-4780D01*
Y-5180D01*
D02*
G37*
G36*
X12398Y-4900D02*
X12380Y-4901D01*
X12362Y-4902D01*
X12345Y-4906D01*
X12329Y-4911D01*
X12312Y-4917D01*
X12296Y-4924D01*
X12281Y-4933D01*
X12266Y-4944D01*
X12251Y-4956D01*
X12237Y-4969D01*
X12131Y-4863D01*
X12144Y-4849D01*
X12156Y-4834D01*
X12167Y-4819D01*
X12176Y-4804D01*
X12183Y-4788D01*
X12189Y-4771D01*
X12194Y-4755D01*
X12198Y-4738D01*
X12199Y-4720D01*
X12200Y-4702D01*
X12398Y-4900D01*
D02*
G37*
G36*
X6697Y-5058D02*
X6693Y-5053D01*
X6686Y-5048D01*
X6677Y-5044D01*
X6664Y-5040D01*
X6648Y-5037D01*
X6630Y-5035D01*
X6583Y-5031D01*
X6525Y-5030D01*
Y-4870D01*
X6556Y-4870D01*
X6648Y-4863D01*
X6664Y-4860D01*
X6677Y-4856D01*
X6686Y-4852D01*
X6693Y-4847D01*
X6697Y-4842D01*
Y-5058D01*
D02*
G37*
G36*
X-12650Y-4857D02*
X-12646Y-4862D01*
X-12639Y-4866D01*
X-12630Y-4870D01*
X-12618Y-4873D01*
X-12604Y-4875D01*
X-12587Y-4877D01*
X-12545Y-4880D01*
X-12520Y-4880D01*
Y-5080D01*
X-12545Y-5080D01*
X-12604Y-5085D01*
X-12618Y-5087D01*
X-12630Y-5090D01*
X-12639Y-5094D01*
X-12646Y-5098D01*
X-12650Y-5103D01*
X-12651Y-5108D01*
Y-4852D01*
X-12650Y-4857D01*
D02*
G37*
G36*
X-2002Y-4964D02*
X-1995Y-4977D01*
X-1987Y-4988D01*
X-1977Y-4998D01*
X-1965Y-5006D01*
X-1952Y-5013D01*
X-1937Y-5018D01*
X-1920Y-5022D01*
X-1902Y-5024D01*
X-1882Y-5025D01*
X-1907Y-5175D01*
X-1942Y-5175D01*
X-2127Y-5187D01*
X-2138Y-5190D01*
X-2006Y-4950D01*
X-2002Y-4964D01*
D02*
G37*
G36*
X7391Y-5349D02*
X7450Y-5350D01*
Y-5550D01*
X7338Y-5555D01*
X7327Y-5600D01*
X7320Y-5590D01*
X7312Y-5582D01*
X7302Y-5574D01*
X7290Y-5568D01*
X7277Y-5562D01*
X7262Y-5558D01*
X7246Y-5555D01*
X7228Y-5552D01*
X7208Y-5551D01*
X7186Y-5550D01*
X7248Y-5350D01*
X7263Y-5350D01*
Y-5342D01*
X7265Y-5344D01*
X7272Y-5345D01*
X7281Y-5346D01*
X7303Y-5347D01*
X7342Y-5345D01*
X7356Y-5342D01*
X7368Y-5340D01*
X7379Y-5336D01*
X7389Y-5333D01*
X7397Y-5329D01*
X7391Y-5349D01*
D02*
G37*
G36*
X12345Y-5442D02*
X12339Y-5442D01*
X12333Y-5442D01*
X12326Y-5445D01*
X12318Y-5449D01*
X12310Y-5454D01*
X12300Y-5461D01*
X12290Y-5469D01*
X12266Y-5490D01*
X12253Y-5503D01*
X12200Y-5450D01*
Y-5525D01*
X12176Y-5525D01*
X12119Y-5530D01*
X12104Y-5533D01*
X12092Y-5537D01*
X12081Y-5541D01*
X12073Y-5546D01*
X12067Y-5552D01*
X12063Y-5558D01*
Y-5342D01*
X12067Y-5348D01*
X12073Y-5354D01*
X12081Y-5359D01*
X12092Y-5363D01*
X12104Y-5367D01*
X12119Y-5370D01*
X12136Y-5372D01*
X12168Y-5374D01*
X12189Y-5350D01*
X12196Y-5340D01*
X12201Y-5332D01*
X12205Y-5324D01*
X12208Y-5317D01*
X12208Y-5311D01*
X12208Y-5305D01*
X12345Y-5442D01*
D02*
G37*
G36*
X-3072Y-5330D02*
X-3057Y-5315D01*
X-3042Y-5360D01*
X-2902Y-5500D01*
X-2913Y-5501D01*
X-2925Y-5503D01*
X-2938Y-5507D01*
X-2950Y-5512D01*
X-2964Y-5519D01*
X-2977Y-5528D01*
X-2991Y-5538D01*
X-3006Y-5550D01*
X-3030Y-5572D01*
X-3053Y-5595D01*
X-3217Y-5782D01*
Y-5833D01*
X-3238Y-5839D01*
X-3248Y-5838D01*
X-3250Y-5828D01*
X-3241Y-5809D01*
X-3217Y-5782D01*
Y-5367D01*
X-3202Y-5372D01*
X-3186Y-5375D01*
X-3170Y-5376D01*
X-3155Y-5374D01*
X-3139Y-5370D01*
X-3122Y-5364D01*
X-3118Y-5361D01*
X-3112Y-5350D01*
X-3107Y-5338D01*
X-3103Y-5325D01*
X-3101Y-5313D01*
X-3100Y-5302D01*
X-3072Y-5330D01*
D02*
G37*
G36*
X-8510Y-5136D02*
X-8514Y-5156D01*
X-8512Y-5179D01*
X-8505Y-5203D01*
X-8493Y-5230D01*
X-8476Y-5260D01*
X-8454Y-5292D01*
X-8427Y-5326D01*
X-8357Y-5402D01*
X-8448Y-5593D01*
X-8492Y-5551D01*
X-8569Y-5485D01*
X-8602Y-5462D01*
X-8632Y-5444D01*
X-8658Y-5433D01*
X-8682Y-5428D01*
X-8701Y-5428D01*
X-8718Y-5436D01*
X-8731Y-5449D01*
X-8501Y-5119D01*
X-8510Y-5136D01*
D02*
G37*
G36*
X-6707Y-5403D02*
X-6708Y-5412D01*
X-6706Y-5423D01*
X-6700Y-5437D01*
X-6690Y-5454D01*
X-6675Y-5474D01*
X-6657Y-5496D01*
X-6609Y-5549D01*
X-6571Y-5545D01*
X-6551Y-5542D01*
X-6534Y-5537D01*
X-6520Y-5531D01*
X-6509Y-5525D01*
X-6502Y-5517D01*
X-6497Y-5508D01*
X-6495Y-5498D01*
Y-5802D01*
X-6497Y-5792D01*
X-6502Y-5783D01*
X-6509Y-5775D01*
X-6520Y-5769D01*
X-6534Y-5763D01*
X-6551Y-5758D01*
X-6571Y-5755D01*
X-6594Y-5752D01*
X-6650Y-5750D01*
Y-5627D01*
X-6748Y-5693D01*
X-6780Y-5662D01*
X-6883Y-5574D01*
X-6902Y-5561D01*
X-6919Y-5552D01*
X-6933Y-5547D01*
X-6944Y-5546D01*
X-6953Y-5549D01*
X-6701Y-5397D01*
X-6707Y-5403D01*
D02*
G37*
G36*
X6031Y-5849D02*
X6018Y-5836D01*
X6001Y-5828D01*
X5982Y-5828D01*
X5958Y-5833D01*
X5932Y-5844D01*
X5902Y-5862D01*
X5869Y-5885D01*
X5835Y-5912D01*
X5828Y-5923D01*
X5819Y-5936D01*
X5812Y-5950D01*
X5807Y-5962D01*
X5803Y-5975D01*
X5801Y-5987D01*
X5800Y-5998D01*
X5773Y-5971D01*
X5748Y-5993D01*
X5705Y-5903D01*
X5602Y-5800D01*
X5613Y-5799D01*
X5625Y-5797D01*
X5638Y-5793D01*
X5650Y-5788D01*
X5664Y-5781D01*
X5677Y-5772D01*
X5691Y-5762D01*
X5703Y-5753D01*
X5754Y-5692D01*
X5776Y-5660D01*
X5793Y-5630D01*
X5805Y-5603D01*
X5812Y-5579D01*
X5814Y-5556D01*
X5810Y-5537D01*
X5801Y-5519D01*
X6031Y-5849D01*
D02*
G37*
G36*
X-7606Y-5440D02*
X-7601Y-5469D01*
X-7591Y-5500D01*
X-7577Y-5532D01*
X-7557Y-5567D01*
X-7533Y-5603D01*
X-7504Y-5642D01*
X-7432Y-5725D01*
X-7390Y-5769D01*
X-7471Y-5971D01*
X-7502Y-5941D01*
X-7530Y-5917D01*
X-7555Y-5899D01*
X-7577Y-5886D01*
X-7596Y-5880D01*
X-7612Y-5880D01*
X-7625Y-5885D01*
X-7635Y-5897D01*
X-7641Y-5914D01*
X-7645Y-5937D01*
X-7607Y-5414D01*
X-7606Y-5440D01*
D02*
G37*
G36*
X-3361Y-5850D02*
X-3369Y-5855D01*
X-3376Y-5862D01*
X-3383Y-5873D01*
X-3388Y-5887D01*
X-3392Y-5903D01*
X-3396Y-5923D01*
X-3398Y-5946D01*
X-3400Y-6000D01*
X-3600D01*
X-3600Y-5971D01*
X-3604Y-5923D01*
X-3608Y-5903D01*
X-3612Y-5887D01*
X-3617Y-5873D01*
X-3624Y-5862D01*
X-3631Y-5855D01*
X-3639Y-5850D01*
X-3648Y-5849D01*
X-3352D01*
X-3361Y-5850D01*
D02*
G37*
G36*
X12067Y-5848D02*
X12074Y-5854D01*
X12083Y-5859D01*
X12096Y-5863D01*
X12111Y-5867D01*
X12129Y-5870D01*
X12149Y-5872D01*
X12198Y-5875D01*
X12227Y-5875D01*
X12227Y-6025D01*
X12198Y-6025D01*
X12129Y-6030D01*
X12111Y-6033D01*
X12096Y-6037D01*
X12083Y-6041D01*
X12074Y-6046D01*
X12067Y-6052D01*
X12063Y-6058D01*
Y-5842D01*
X12067Y-5848D01*
D02*
G37*
G36*
X7265Y-5844D02*
X7272Y-5845D01*
X7281Y-5846D01*
X7311Y-5848D01*
X7450Y-5850D01*
Y-6050D01*
X7263Y-6058D01*
Y-5842D01*
X7265Y-5844D01*
D02*
G37*
G36*
X11223Y-5929D02*
X11220Y-5935D01*
X11218Y-5943D01*
X11216Y-5953D01*
X11214Y-5966D01*
X11212Y-5996D01*
X11210Y-6058D01*
X10960D01*
X10960Y-6035D01*
X10955Y-5953D01*
X10953Y-5943D01*
X10951Y-5935D01*
X10948Y-5929D01*
X10945Y-5925D01*
X11225D01*
X11223Y-5929D01*
D02*
G37*
G36*
X-4258Y-5947D02*
X-4267Y-5951D01*
X-4275Y-5959D01*
X-4281Y-5970D01*
X-4287Y-5984D01*
X-4292Y-6001D01*
X-4295Y-6021D01*
X-4298Y-6044D01*
X-4300Y-6100D01*
X-4500D01*
X-4501Y-6071D01*
X-4505Y-6021D01*
X-4508Y-6001D01*
X-4513Y-5984D01*
X-4519Y-5970D01*
X-4525Y-5959D01*
X-4533Y-5951D01*
X-4542Y-5947D01*
X-4552Y-5945D01*
X-4248D01*
X-4258Y-5947D01*
D02*
G37*
G36*
X-14149Y-6450D02*
X-14151Y-6431D01*
X-14157Y-6414D01*
X-14167Y-6399D01*
X-14181Y-6386D01*
X-14200Y-6375D01*
X-14222Y-6366D01*
X-14248Y-6359D01*
X-14277Y-6354D01*
X-14305Y-6359D01*
X-14331Y-6366D01*
X-14353Y-6375D01*
X-14371Y-6386D01*
X-14385Y-6399D01*
X-14395Y-6414D01*
X-14401Y-6431D01*
X-14403Y-6450D01*
Y-6050D01*
X-14401Y-6069D01*
X-14395Y-6086D01*
X-14385Y-6101D01*
X-14371Y-6114D01*
X-14353Y-6125D01*
X-14331Y-6134D01*
X-14305Y-6141D01*
X-14277Y-6146D01*
X-14248Y-6141D01*
X-14222Y-6134D01*
X-14200Y-6125D01*
X-14181Y-6114D01*
X-14167Y-6101D01*
X-14157Y-6086D01*
X-14151Y-6069D01*
X-14149Y-6050D01*
Y-6450D01*
D02*
G37*
G36*
X-5150Y-5945D02*
X-5169Y-5947D01*
X-5186Y-5953D01*
X-5201Y-5963D01*
X-5214Y-5977D01*
X-5225Y-5995D01*
X-5234Y-6018D01*
X-5241Y-6044D01*
X-5246Y-6075D01*
X-5249Y-6110D01*
X-5250Y-6148D01*
X-5450D01*
X-5451Y-6109D01*
X-5454Y-6074D01*
X-5459Y-6043D01*
X-5466Y-6016D01*
X-5475Y-5993D01*
X-5486Y-5974D01*
X-5499Y-5960D01*
X-5514Y-5949D01*
X-5531Y-5943D01*
X-5549Y-5940D01*
X-5150Y-5945D01*
D02*
G37*
G36*
X-6019Y-5947D02*
X-6036Y-5953D01*
X-6051Y-5964D01*
X-6064Y-5978D01*
X-6075Y-5996D01*
X-6084Y-6018D01*
X-6091Y-6045D01*
X-6096Y-6075D01*
X-6099Y-6110D01*
X-6100Y-6148D01*
X-6300D01*
X-6301Y-6110D01*
X-6304Y-6075D01*
X-6309Y-6045D01*
X-6316Y-6018D01*
X-6325Y-5996D01*
X-6336Y-5978D01*
X-6349Y-5964D01*
X-6364Y-5953D01*
X-6381Y-5947D01*
X-6400Y-5945D01*
X-6000D01*
X-6019Y-5947D01*
D02*
G37*
G36*
X-10250Y-5949D02*
X-10238Y-6092D01*
X-10233Y-6115D01*
X-10227Y-6132D01*
X-10220Y-6145D01*
X-10212Y-6153D01*
X-10203Y-6155D01*
X-10697D01*
X-10688Y-6153D01*
X-10680Y-6145D01*
X-10673Y-6132D01*
X-10667Y-6115D01*
X-10662Y-6092D01*
X-10657Y-6064D01*
X-10652Y-5992D01*
X-10650Y-5900D01*
X-10250D01*
X-10250Y-5949D01*
D02*
G37*
G36*
X-9455Y-5862D02*
X-9096Y-6181D01*
X-9067Y-6167D01*
X-9061Y-6188D01*
X-9068Y-6196D01*
X-9087Y-6190D01*
X-9096Y-6181D01*
X-9649Y-6444D01*
X-9625Y-6428D01*
X-9611Y-6406D01*
X-9606Y-6380D01*
X-9611Y-6347D01*
X-9626Y-6310D01*
X-9650Y-6267D01*
X-9683Y-6218D01*
X-9727Y-6165D01*
X-9841Y-6041D01*
X-9559Y-5759D01*
X-9455Y-5862D01*
D02*
G37*
G36*
X2781Y-5969D02*
X2783Y-5997D01*
X2787Y-6021D01*
X2793Y-6043D01*
X2793Y-6043D01*
X2840D01*
X2829Y-6055D01*
X2818Y-6068D01*
X2812Y-6078D01*
X2819Y-6087D01*
X2831Y-6095D01*
X2845Y-6100D01*
X2860Y-6101D01*
X2800D01*
X2795Y-6112D01*
X2790Y-6129D01*
X2785Y-6146D01*
X2782Y-6164D01*
X2781Y-6183D01*
X2780Y-6203D01*
X2620D01*
X2619Y-6183D01*
X2618Y-6164D01*
X2615Y-6146D01*
X2610Y-6129D01*
X2605Y-6112D01*
X2600Y-6101D01*
X2540D01*
X2555Y-6100D01*
X2569Y-6095D01*
X2581Y-6087D01*
X2588Y-6078D01*
X2582Y-6068D01*
X2571Y-6055D01*
X2560Y-6043D01*
X2607D01*
X2607Y-6043D01*
X2613Y-6021D01*
X2617Y-5997D01*
X2619Y-5969D01*
X2620Y-5938D01*
X2780D01*
X2781Y-5969D01*
D02*
G37*
G36*
X1527Y-6020D02*
X1580Y-6064D01*
X1603Y-6081D01*
X1625Y-6094D01*
X1646Y-6103D01*
X1664Y-6108D01*
X1681Y-6109D01*
X1697Y-6107D01*
X1710Y-6101D01*
X1451Y-6260D01*
X1462Y-6251D01*
X1467Y-6239D01*
X1468Y-6225D01*
X1465Y-6208D01*
X1456Y-6188D01*
X1443Y-6166D01*
X1426Y-6141D01*
X1403Y-6114D01*
X1345Y-6051D01*
X1498Y-5992D01*
X1527Y-6020D01*
D02*
G37*
G36*
X6697Y-6558D02*
X6694Y-6557D01*
X6688Y-6555D01*
X6677Y-6554D01*
X6645Y-6552D01*
X6563Y-6551D01*
X6560Y-6551D01*
X6522Y-6554D01*
X6490Y-6559D01*
X6462Y-6566D01*
X6439Y-6575D01*
X6422Y-6586D01*
X6409Y-6599D01*
X6400Y-6614D01*
X6397Y-6631D01*
X6399Y-6650D01*
X6338Y-6348D01*
X6340Y-6348D01*
X6347Y-6349D01*
X6500Y-6350D01*
X6697Y-6342D01*
Y-6558D01*
D02*
G37*
G36*
X12338Y-6540D02*
X12327Y-6537D01*
X12314Y-6535D01*
X12279Y-6530D01*
X12233Y-6527D01*
X12182Y-6526D01*
X12129Y-6530D01*
X12111Y-6533D01*
X12096Y-6537D01*
X12083Y-6541D01*
X12074Y-6546D01*
X12067Y-6552D01*
X12063Y-6558D01*
Y-6342D01*
X12067Y-6348D01*
X12074Y-6354D01*
X12083Y-6359D01*
X12096Y-6363D01*
X12111Y-6367D01*
X12129Y-6370D01*
X12130Y-6370D01*
X12137Y-6368D01*
X12152Y-6363D01*
X12165Y-6356D01*
X12177Y-6348D01*
X12187Y-6338D01*
X12195Y-6327D01*
X12202Y-6314D01*
X12206Y-6300D01*
X12338Y-6540D01*
D02*
G37*
G36*
X-12649Y-6070D02*
X-12643Y-6087D01*
X-12633Y-6102D01*
X-12619Y-6115D01*
X-12601Y-6125D01*
X-12579Y-6134D01*
X-12553Y-6141D01*
X-12522Y-6146D01*
X-12488Y-6149D01*
X-12450Y-6150D01*
Y-6350D01*
X-12488Y-6351D01*
X-12522Y-6354D01*
X-12553Y-6359D01*
X-12579Y-6366D01*
X-12601Y-6375D01*
X-12619Y-6385D01*
X-12633Y-6398D01*
X-12643Y-6413D01*
X-12649Y-6430D01*
X-12651Y-6448D01*
Y-6052D01*
X-12649Y-6070D01*
D02*
G37*
G36*
X-7499Y-6413D02*
X-7497Y-6425D01*
X-7493Y-6438D01*
X-7488Y-6450D01*
X-7481Y-6464D01*
X-7472Y-6477D01*
X-7462Y-6491D01*
X-7450Y-6506D01*
X-7422Y-6537D01*
X-7563Y-6678D01*
X-7579Y-6663D01*
X-7609Y-6638D01*
X-7623Y-6628D01*
X-7636Y-6619D01*
X-7650Y-6612D01*
X-7662Y-6607D01*
X-7675Y-6603D01*
X-7687Y-6601D01*
X-7698Y-6600D01*
X-7500Y-6402D01*
X-7499Y-6413D01*
D02*
G37*
G36*
X2624Y-6699D02*
X2614Y-6688D01*
X2602Y-6682D01*
X2586Y-6681D01*
X2568Y-6685D01*
X2547Y-6694D01*
X2523Y-6708D01*
X2496Y-6727D01*
X2466Y-6751D01*
X2398Y-6815D01*
X2335Y-6652D01*
X2365Y-6621D01*
X2412Y-6565D01*
X2430Y-6539D01*
X2443Y-6516D01*
X2453Y-6494D01*
X2459Y-6474D01*
X2460Y-6456D01*
X2458Y-6440D01*
X2451Y-6426D01*
X2624Y-6699D01*
D02*
G37*
G36*
X-10162Y-6384D02*
X-10168Y-6403D01*
X-10167Y-6424D01*
X-10161Y-6448D01*
X-10150Y-6474D01*
X-10132Y-6504D01*
X-10109Y-6537D01*
X-10081Y-6572D01*
X-10007Y-6652D01*
X-10148Y-6793D01*
X-10189Y-6753D01*
X-10263Y-6691D01*
X-10296Y-6668D01*
X-10326Y-6650D01*
X-10352Y-6639D01*
X-10376Y-6633D01*
X-10398Y-6633D01*
X-10416Y-6638D01*
X-10431Y-6649D01*
X-10151Y-6369D01*
X-10162Y-6384D01*
D02*
G37*
G36*
X-249Y-6948D02*
X-250Y-6934D01*
X-255Y-6922D01*
X-262Y-6911D01*
X-273Y-6901D01*
X-287Y-6893D01*
X-303Y-6887D01*
X-323Y-6882D01*
X-346Y-6878D01*
X-371Y-6876D01*
X-400Y-6875D01*
Y-6725D01*
X-371Y-6724D01*
X-346Y-6722D01*
X-323Y-6718D01*
X-303Y-6713D01*
X-287Y-6707D01*
X-273Y-6699D01*
X-262Y-6689D01*
X-255Y-6678D01*
X-250Y-6666D01*
X-249Y-6652D01*
Y-6948D01*
D02*
G37*
G36*
X-3664Y-6870D02*
X-3691Y-6899D01*
X-3731Y-6947D01*
X-3744Y-6967D01*
X-3752Y-6985D01*
X-3756Y-7000D01*
X-3754Y-7012D01*
X-3748Y-7022D01*
X-3737Y-7029D01*
X-3722Y-7033D01*
X-3956Y-6994D01*
X-3938Y-6968D01*
X-3826Y-6822D01*
X-3811Y-6806D01*
X-3797Y-6791D01*
X-3664Y-6870D01*
D02*
G37*
G36*
X-4750Y-6828D02*
X-4740Y-6951D01*
X-4736Y-6975D01*
X-4731Y-6996D01*
X-4725Y-7014D01*
X-4719Y-7030D01*
X-4712Y-7043D01*
X-4988D01*
X-4981Y-7030D01*
X-4975Y-7014D01*
X-4969Y-6996D01*
X-4964Y-6975D01*
X-4960Y-6951D01*
X-4953Y-6895D01*
X-4950Y-6828D01*
X-4950Y-6790D01*
X-4750D01*
X-4750Y-6828D01*
D02*
G37*
G36*
X-2774Y-6848D02*
X-2772Y-6872D01*
X-2769Y-6895D01*
X-2765Y-6918D01*
X-2759Y-6940D01*
X-2752Y-6962D01*
X-2744Y-6983D01*
X-2734Y-7004D01*
X-2724Y-7023D01*
X-2712Y-7043D01*
X-2988D01*
X-2976Y-7023D01*
X-2966Y-7004D01*
X-2956Y-6983D01*
X-2948Y-6962D01*
X-2941Y-6940D01*
X-2935Y-6918D01*
X-2931Y-6895D01*
X-2928Y-6872D01*
X-2926Y-6848D01*
X-2925Y-6823D01*
X-2775D01*
X-2774Y-6848D01*
D02*
G37*
G36*
X-5250Y-6828D02*
X-5240Y-6951D01*
X-5236Y-6975D01*
X-5231Y-6996D01*
X-5225Y-7014D01*
X-5219Y-7030D01*
X-5212Y-7043D01*
X-5488D01*
X-5481Y-7030D01*
X-5475Y-7014D01*
X-5469Y-6996D01*
X-5464Y-6975D01*
X-5460Y-6951D01*
X-5453Y-6895D01*
X-5450Y-6828D01*
X-5450Y-6790D01*
X-5250D01*
X-5250Y-6828D01*
D02*
G37*
G36*
X-5750D02*
X-5740Y-6951D01*
X-5736Y-6975D01*
X-5731Y-6996D01*
X-5725Y-7014D01*
X-5719Y-7030D01*
X-5712Y-7043D01*
X-5988D01*
X-5981Y-7030D01*
X-5975Y-7014D01*
X-5969Y-6996D01*
X-5964Y-6975D01*
X-5960Y-6951D01*
X-5953Y-6895D01*
X-5950Y-6828D01*
X-5950Y-6790D01*
X-5750D01*
X-5750Y-6828D01*
D02*
G37*
G36*
X-6250D02*
X-6240Y-6951D01*
X-6236Y-6975D01*
X-6231Y-6996D01*
X-6225Y-7014D01*
X-6219Y-7030D01*
X-6212Y-7043D01*
X-6488D01*
X-6481Y-7030D01*
X-6475Y-7014D01*
X-6469Y-6996D01*
X-6464Y-6975D01*
X-6460Y-6951D01*
X-6453Y-6895D01*
X-6450Y-6828D01*
X-6450Y-6790D01*
X-6250D01*
X-6250Y-6828D01*
D02*
G37*
G36*
X-7250D02*
X-7240Y-6951D01*
X-7236Y-6975D01*
X-7231Y-6996D01*
X-7225Y-7014D01*
X-7219Y-7030D01*
X-7212Y-7043D01*
X-7488D01*
X-7481Y-7030D01*
X-7475Y-7014D01*
X-7469Y-6996D01*
X-7464Y-6975D01*
X-7460Y-6951D01*
X-7453Y-6895D01*
X-7450Y-6828D01*
X-7450Y-6790D01*
X-7250D01*
X-7250Y-6828D01*
D02*
G37*
G36*
X-9216Y-6553D02*
X-9223Y-6572D01*
X-9230Y-6598D01*
X-9235Y-6630D01*
X-9237Y-6649D01*
X-9150D01*
X-9169Y-6651D01*
X-9186Y-6657D01*
X-9201Y-6667D01*
X-9214Y-6681D01*
X-9225Y-6700D01*
X-9234Y-6722D01*
X-9241Y-6748D01*
X-9245Y-6775D01*
X-9248Y-6850D01*
X-9240Y-6951D01*
X-9236Y-6975D01*
X-9231Y-6996D01*
X-9225Y-7014D01*
X-9219Y-7030D01*
X-9212Y-7043D01*
X-9488D01*
X-9481Y-7030D01*
X-9475Y-7014D01*
X-9469Y-6996D01*
X-9464Y-6975D01*
X-9460Y-6951D01*
X-9453Y-6895D01*
X-9452Y-6870D01*
X-9461Y-6741D01*
X-9466Y-6722D01*
X-9475Y-6700D01*
X-9486Y-6681D01*
X-9499Y-6667D01*
X-9514Y-6657D01*
X-9531Y-6651D01*
X-9550Y-6649D01*
X-9467D01*
X-9470Y-6598D01*
X-9477Y-6572D01*
X-9484Y-6553D01*
X-9492Y-6541D01*
X-9208D01*
X-9216Y-6553D01*
D02*
G37*
G36*
X-8629Y-6971D02*
X-8712Y-7057D01*
X-8907Y-6962D01*
X-8905Y-6960D01*
X-8900Y-6956D01*
X-8870Y-6928D01*
X-8771Y-6829D01*
X-8629Y-6971D01*
D02*
G37*
G36*
X6835Y-7074D02*
X6826Y-7063D01*
X6815Y-7057D01*
X6800Y-7056D01*
X6783Y-7060D01*
X6764Y-7068D01*
X6742Y-7081D01*
X6717Y-7098D01*
X6690Y-7121D01*
X6627Y-7179D01*
X6572Y-7022D01*
X6589Y-7005D01*
X6633Y-6952D01*
X6646Y-6934D01*
X6669Y-6898D01*
X6680Y-6879D01*
X6697Y-6842D01*
X6835Y-7074D01*
D02*
G37*
G36*
X1250Y-6805D02*
X1254Y-6819D01*
X1262Y-6831D01*
X1273Y-6841D01*
X1287Y-6850D01*
X1305Y-6857D01*
X1327Y-6863D01*
X1352Y-6867D01*
X1380Y-6869D01*
X1412Y-6870D01*
Y-7030D01*
X1382Y-7031D01*
X1330Y-7035D01*
X1308Y-7038D01*
X1289Y-7043D01*
X1272Y-7049D01*
X1258Y-7056D01*
X1247Y-7064D01*
X1239Y-7073D01*
X1233Y-7083D01*
X1249Y-6790D01*
X1250Y-6805D01*
D02*
G37*
G36*
X6561Y-7245D02*
X6531Y-7276D01*
X6459Y-7360D01*
X6442Y-7385D01*
X6427Y-7409D01*
X6416Y-7431D01*
X6408Y-7451D01*
X6403Y-7470D01*
X6402Y-7488D01*
X6391Y-7095D01*
X6393Y-7114D01*
X6397Y-7128D01*
X6403Y-7138D01*
X6411Y-7144D01*
X6422Y-7145D01*
X6435Y-7142D01*
X6450Y-7135D01*
X6467Y-7123D01*
X6486Y-7107D01*
X6508Y-7086D01*
X6561Y-7245D01*
D02*
G37*
G36*
X12762Y-7152D02*
X12751Y-7149D01*
X12738Y-7150D01*
X12724Y-7153D01*
X12707Y-7160D01*
X12689Y-7170D01*
X12670Y-7184D01*
X12648Y-7200D01*
X12600Y-7242D01*
X12573Y-7268D01*
X12557Y-7002D01*
X12587Y-6970D01*
X12638Y-6909D01*
X12657Y-6879D01*
X12674Y-6850D01*
X12686Y-6822D01*
X12695Y-6795D01*
X12701Y-6769D01*
X12703Y-6744D01*
X12701Y-6719D01*
X12762Y-7152D01*
D02*
G37*
G36*
X2816Y-7070D02*
X2818Y-7098D01*
X2822Y-7123D01*
X2828Y-7144D01*
X2835Y-7162D01*
X2844Y-7177D01*
X2875D01*
X2864Y-7189D01*
X2860Y-7194D01*
X2866Y-7197D01*
X2879Y-7202D01*
X2894Y-7204D01*
X2853Y-7204D01*
X2845Y-7216D01*
X2837Y-7231D01*
X2830Y-7247D01*
X2825Y-7263D01*
X2821Y-7280D01*
X2818Y-7299D01*
X2816Y-7318D01*
X2815Y-7338D01*
X2655D01*
X2655Y-7318D01*
X2653Y-7299D01*
X2650Y-7280D01*
X2646Y-7263D01*
X2640Y-7247D01*
X2634Y-7231D01*
X2626Y-7216D01*
X2617Y-7202D01*
X2616Y-7202D01*
X2575Y-7201D01*
X2590Y-7200D01*
X2604Y-7195D01*
X2609Y-7192D01*
X2607Y-7189D01*
X2595Y-7177D01*
X2625D01*
X2626Y-7175D01*
X2635Y-7161D01*
X2642Y-7143D01*
X2648Y-7122D01*
X2652Y-7097D01*
X2654Y-7069D01*
X2655Y-7038D01*
X2815D01*
X2816Y-7070D01*
D02*
G37*
G36*
X-14149Y-7720D02*
X-14151Y-7701D01*
X-14157Y-7684D01*
X-14167Y-7669D01*
X-14181Y-7656D01*
X-14200Y-7645D01*
X-14222Y-7636D01*
X-14248Y-7629D01*
X-14277Y-7624D01*
X-14305Y-7629D01*
X-14331Y-7636D01*
X-14353Y-7645D01*
X-14371Y-7656D01*
X-14385Y-7669D01*
X-14395Y-7684D01*
X-14401Y-7701D01*
X-14403Y-7720D01*
Y-7320D01*
X-14401Y-7339D01*
X-14395Y-7356D01*
X-14385Y-7371D01*
X-14371Y-7384D01*
X-14353Y-7395D01*
X-14331Y-7404D01*
X-14305Y-7411D01*
X-14277Y-7416D01*
X-14248Y-7411D01*
X-14222Y-7404D01*
X-14200Y-7395D01*
X-14181Y-7384D01*
X-14167Y-7371D01*
X-14157Y-7356D01*
X-14151Y-7339D01*
X-14149Y-7320D01*
Y-7720D01*
D02*
G37*
G36*
X1451Y-7450D02*
X1451Y-7436D01*
X1447Y-7423D01*
X1440Y-7412D01*
X1429Y-7402D01*
X1416Y-7394D01*
X1399Y-7387D01*
X1378Y-7382D01*
X1355Y-7378D01*
X1328Y-7376D01*
X1298Y-7375D01*
X1314Y-7225D01*
X1467Y-7217D01*
X1451Y-7450D01*
D02*
G37*
G36*
X12065Y-7344D02*
X12072Y-7345D01*
X12081Y-7346D01*
X12111Y-7348D01*
X12250Y-7350D01*
Y-7550D01*
X12063Y-7558D01*
Y-7342D01*
X12065Y-7344D01*
D02*
G37*
G36*
X7265Y-7344D02*
X7272Y-7345D01*
X7281Y-7346D01*
X7311Y-7348D01*
X7450Y-7350D01*
Y-7550D01*
X7263Y-7558D01*
Y-7342D01*
X7265Y-7344D01*
D02*
G37*
G36*
X-2202Y-7414D02*
X-2197Y-7427D01*
X-2189Y-7438D01*
X-2179Y-7448D01*
X-2165Y-7456D01*
X-2148Y-7463D01*
X-2128Y-7468D01*
X-2105Y-7472D01*
X-2079Y-7474D01*
X-2050Y-7475D01*
Y-7625D01*
X-2079Y-7626D01*
X-2105Y-7628D01*
X-2128Y-7632D01*
X-2148Y-7637D01*
X-2165Y-7644D01*
X-2179Y-7652D01*
X-2189Y-7662D01*
X-2197Y-7673D01*
X-2202Y-7686D01*
X-2203Y-7700D01*
Y-7400D01*
X-2202Y-7414D01*
D02*
G37*
G36*
X980Y-7743D02*
X980Y-7797D01*
X976Y-7862D01*
X1017D01*
X1010Y-7869D01*
X1003Y-7876D01*
X998Y-7886D01*
X993Y-7897D01*
X989Y-7910D01*
X986Y-7925D01*
X983Y-7941D01*
X981Y-7959D01*
X980Y-8000D01*
X820D01*
X820Y-7979D01*
X817Y-7941D01*
X814Y-7925D01*
X814Y-7923D01*
X740Y-7901D01*
X755Y-7904D01*
X769Y-7902D01*
X781Y-7896D01*
X791Y-7886D01*
X797Y-7877D01*
X797Y-7876D01*
X790Y-7869D01*
X783Y-7862D01*
X804D01*
X807Y-7854D01*
X813Y-7831D01*
X817Y-7804D01*
X819Y-7773D01*
X820Y-7738D01*
X980Y-7743D01*
D02*
G37*
G36*
X-12737Y-7821D02*
X-12750Y-7826D01*
X-12762Y-7835D01*
X-12772Y-7848D01*
X-12780Y-7864D01*
X-12788Y-7884D01*
X-12793Y-7908D01*
X-12797Y-7935D01*
X-12799Y-7966D01*
X-12800Y-8000D01*
X-13000D01*
X-13001Y-7966D01*
X-13003Y-7935D01*
X-13007Y-7908D01*
X-13013Y-7884D01*
X-13020Y-7864D01*
X-13028Y-7848D01*
X-13038Y-7835D01*
X-13050Y-7826D01*
X-13063Y-7821D01*
X-13078Y-7819D01*
X-12722D01*
X-12737Y-7821D01*
D02*
G37*
G36*
X7339Y-7848D02*
X7450Y-7850D01*
Y-8050D01*
X7392Y-8053D01*
X7397Y-8071D01*
X7389Y-8067D01*
X7379Y-8064D01*
X7369Y-8060D01*
X7356Y-8058D01*
X7342Y-8055D01*
X7337Y-8055D01*
X7263Y-8058D01*
Y-8050D01*
X7248Y-8050D01*
X7186Y-7850D01*
X7208Y-7850D01*
X7246Y-7846D01*
X7262Y-7842D01*
X7277Y-7838D01*
X7290Y-7832D01*
X7302Y-7826D01*
X7312Y-7818D01*
X7320Y-7810D01*
X7327Y-7800D01*
X7339Y-7848D01*
D02*
G37*
G36*
X9235Y-8266D02*
X9281Y-8283D01*
X9271Y-8288D01*
X9263Y-8295D01*
X9255Y-8304D01*
X9248Y-8315D01*
X9243Y-8328D01*
X9238Y-8342D01*
X9235Y-8358D01*
X9232Y-8376D01*
X9231Y-8396D01*
X9230Y-8418D01*
X9030Y-8325D01*
X9030Y-8317D01*
X9022D01*
X9024Y-8315D01*
X9025Y-8310D01*
X9026Y-8302D01*
X9027Y-8292D01*
X9028Y-8274D01*
X9023Y-8198D01*
X9021Y-8191D01*
X9019Y-8185D01*
X9030Y-8189D01*
X9030Y-8170D01*
X9230D01*
X9235Y-8266D01*
D02*
G37*
G36*
X-7734Y-8070D02*
X-7745Y-8076D01*
X-7754Y-8086D01*
X-7763Y-8099D01*
X-7769Y-8117D01*
X-7775Y-8138D01*
X-7779Y-8164D01*
X-7782Y-8193D01*
X-7785Y-8263D01*
X-7915D01*
X-7916Y-8226D01*
X-7921Y-8164D01*
X-7925Y-8138D01*
X-7931Y-8117D01*
X-7937Y-8099D01*
X-7946Y-8086D01*
X-7955Y-8076D01*
X-7966Y-8070D01*
X-7977Y-8068D01*
X-7723D01*
X-7734Y-8070D01*
D02*
G37*
G36*
X-8234D02*
X-8245Y-8076D01*
X-8254Y-8086D01*
X-8263Y-8099D01*
X-8269Y-8117D01*
X-8275Y-8138D01*
X-8277Y-8149D01*
X-8273Y-8162D01*
X-8266Y-8179D01*
X-8258Y-8195D01*
X-8248Y-8211D01*
X-8237Y-8227D01*
X-8224Y-8242D01*
X-8210Y-8257D01*
X-8285D01*
X-8285Y-8263D01*
X-8415D01*
X-8415Y-8257D01*
X-8490D01*
X-8476Y-8242D01*
X-8463Y-8227D01*
X-8452Y-8211D01*
X-8442Y-8195D01*
X-8434Y-8179D01*
X-8427Y-8162D01*
X-8423Y-8149D01*
X-8425Y-8138D01*
X-8431Y-8117D01*
X-8437Y-8099D01*
X-8446Y-8086D01*
X-8455Y-8076D01*
X-8466Y-8070D01*
X-8477Y-8068D01*
X-8223D01*
X-8234Y-8070D01*
D02*
G37*
G36*
X12064Y-8058D02*
X12064Y-8059D01*
X12066Y-8060D01*
X12073Y-8066D01*
X12088Y-8082D01*
X11995Y-8170D01*
X12125D01*
X12125Y-8183D01*
X12128Y-8208D01*
X12130Y-8219D01*
X12132Y-8229D01*
X12135Y-8239D01*
X12139Y-8248D01*
X12143Y-8257D01*
X12148Y-8265D01*
X12153Y-8272D01*
X11847D01*
X11852Y-8265D01*
X11857Y-8257D01*
X11861Y-8248D01*
X11865Y-8239D01*
X11868Y-8229D01*
X11870Y-8219D01*
X11870Y-8219D01*
X11721Y-8074D01*
X12063Y-8058D01*
X12064Y-8058D01*
D02*
G37*
G36*
X-6719Y-8070D02*
X-6725Y-8086D01*
X-6731Y-8104D01*
X-6736Y-8125D01*
X-6740Y-8149D01*
X-6744Y-8182D01*
X-6744Y-8184D01*
X-6740Y-8200D01*
X-6736Y-8214D01*
X-6730Y-8227D01*
X-6724Y-8239D01*
X-6718Y-8249D01*
X-6710Y-8257D01*
X-6749D01*
X-6750Y-8272D01*
X-6750Y-8310D01*
X-6950D01*
X-6950Y-8272D01*
X-6952Y-8257D01*
X-6990D01*
X-6982Y-8249D01*
X-6976Y-8239D01*
X-6970Y-8227D01*
X-6964Y-8214D01*
X-6960Y-8200D01*
X-6957Y-8186D01*
X-6960Y-8149D01*
X-6964Y-8125D01*
X-6969Y-8104D01*
X-6975Y-8086D01*
X-6981Y-8070D01*
X-6988Y-8057D01*
X-6712D01*
X-6719Y-8070D01*
D02*
G37*
G36*
X10709Y-8130D02*
X10730D01*
X10738Y-8317D01*
X10533D01*
X10530Y-8318D01*
X10530Y-8317D01*
X10522D01*
X10524Y-8315D01*
X10525Y-8308D01*
X10526Y-8299D01*
X10528Y-8275D01*
X10526Y-8259D01*
X10523Y-8243D01*
X10519Y-8231D01*
X10514Y-8220D01*
X10509Y-8211D01*
X10502Y-8205D01*
X10495Y-8201D01*
X10487Y-8200D01*
X10530Y-8167D01*
X10530Y-8130D01*
X10578D01*
X10696Y-8040D01*
X10709Y-8130D01*
D02*
G37*
G36*
X-549Y-8340D02*
X-550Y-8327D01*
X-554Y-8315D01*
X-562Y-8304D01*
X-572Y-8295D01*
X-585Y-8288D01*
X-600Y-8281D01*
X-619Y-8276D01*
X-640Y-8273D01*
X-665Y-8271D01*
X-692Y-8270D01*
Y-8130D01*
X-665Y-8129D01*
X-640Y-8127D01*
X-619Y-8124D01*
X-600Y-8119D01*
X-585Y-8112D01*
X-572Y-8105D01*
X-562Y-8096D01*
X-554Y-8085D01*
X-550Y-8073D01*
X-549Y-8060D01*
Y-8340D01*
D02*
G37*
G36*
X8734Y-8224D02*
X8760Y-8220D01*
X8754Y-8229D01*
X8749Y-8239D01*
X8745Y-8250D01*
X8741Y-8264D01*
X8738Y-8278D01*
X8737Y-8283D01*
X8738Y-8317D01*
X8733D01*
X8731Y-8330D01*
X8730Y-8350D01*
X8730Y-8372D01*
X8530Y-8407D01*
X8530Y-8386D01*
X8526Y-8348D01*
X8523Y-8331D01*
X8518Y-8315D01*
X8513Y-8302D01*
X8507Y-8290D01*
X8500Y-8279D01*
X8492Y-8270D01*
X8483Y-8262D01*
X8528Y-8255D01*
X8530Y-8130D01*
X8730D01*
X8734Y-8224D01*
D02*
G37*
G36*
X8230Y-8372D02*
X8030Y-8418D01*
X8030Y-8396D01*
X8026Y-8359D01*
X8023Y-8344D01*
X8019Y-8331D01*
X8014Y-8320D01*
X8009Y-8311D01*
X8002Y-8305D01*
X7995Y-8301D01*
X7987Y-8300D01*
X8196Y-8140D01*
X8230Y-8372D01*
D02*
G37*
G36*
X-7784Y-8309D02*
X-7782Y-8327D01*
X-7778Y-8345D01*
X-7773Y-8362D01*
X-7766Y-8379D01*
X-7758Y-8395D01*
X-7748Y-8411D01*
X-7737Y-8427D01*
X-7724Y-8442D01*
X-7710Y-8457D01*
X-7990D01*
X-7976Y-8442D01*
X-7963Y-8427D01*
X-7952Y-8411D01*
X-7942Y-8395D01*
X-7934Y-8379D01*
X-7927Y-8362D01*
X-7922Y-8345D01*
X-7918Y-8327D01*
X-7916Y-8309D01*
X-7915Y-8291D01*
X-7785D01*
X-7784Y-8309D01*
D02*
G37*
G36*
X7506Y-8750D02*
X7505Y-8736D01*
X7500Y-8723D01*
X7492Y-8712D01*
X7482Y-8702D01*
X7468Y-8694D01*
X7451Y-8687D01*
X7431Y-8682D01*
X7408Y-8678D01*
X7384Y-8676D01*
X7367Y-8678D01*
X7349Y-8681D01*
X7332Y-8685D01*
X7315Y-8691D01*
X7299Y-8698D01*
X7284Y-8707D01*
X7270Y-8717D01*
X7256Y-8728D01*
X7243Y-8740D01*
Y-8460D01*
X7256Y-8472D01*
X7270Y-8483D01*
X7284Y-8493D01*
X7299Y-8502D01*
X7315Y-8509D01*
X7332Y-8515D01*
X7349Y-8519D01*
X7367Y-8522D01*
X7384Y-8524D01*
X7408Y-8522D01*
X7431Y-8518D01*
X7451Y-8513D01*
X7468Y-8506D01*
X7482Y-8498D01*
X7492Y-8488D01*
X7500Y-8477D01*
X7505Y-8464D01*
X7506Y-8450D01*
Y-8750D01*
D02*
G37*
G36*
X13267Y-8143D02*
X13253Y-8161D01*
X13241Y-8185D01*
X13230Y-8217D01*
X13221Y-8255D01*
X13213Y-8300D01*
X13208Y-8347D01*
X13221Y-8546D01*
X13227Y-8560D01*
X13233Y-8567D01*
X12767D01*
X12773Y-8560D01*
X12779Y-8546D01*
X12784Y-8524D01*
X12788Y-8494D01*
X12795Y-8413D01*
X12787Y-8300D01*
X12779Y-8255D01*
X12770Y-8216D01*
X12759Y-8185D01*
X12747Y-8161D01*
X12733Y-8143D01*
X12717Y-8133D01*
X13283D01*
X13267Y-8143D01*
D02*
G37*
G36*
X2488Y-8470D02*
X2486Y-8481D01*
X2484Y-8514D01*
X2483Y-8550D01*
X2485Y-8576D01*
X2487Y-8585D01*
X2489Y-8592D01*
X2492Y-8597D01*
X2495Y-8600D01*
X2498Y-8601D01*
X2481D01*
X2480Y-8620D01*
X2480Y-8693D01*
X2320Y-8719D01*
X2319Y-8698D01*
X2317Y-8680D01*
X2314Y-8663D01*
X2309Y-8647D01*
X2303Y-8634D01*
X2295Y-8622D01*
X2286Y-8613D01*
X2275Y-8604D01*
X2263Y-8598D01*
X2250Y-8594D01*
X2318Y-8557D01*
X2319Y-8536D01*
X2320Y-8500D01*
X2421D01*
X2490Y-8462D01*
X2488Y-8470D01*
D02*
G37*
G36*
X1151Y-9050D02*
X1150Y-9036D01*
X1145Y-9023D01*
X1137Y-9012D01*
X1127Y-9002D01*
X1113Y-8994D01*
X1096Y-8987D01*
X1076Y-8982D01*
X1053Y-8978D01*
X1027Y-8976D01*
X998Y-8975D01*
Y-8825D01*
X1027Y-8824D01*
X1053Y-8822D01*
X1076Y-8818D01*
X1096Y-8813D01*
X1113Y-8806D01*
X1127Y-8798D01*
X1137Y-8788D01*
X1145Y-8777D01*
X1150Y-8764D01*
X1151Y-8750D01*
Y-9050D01*
D02*
G37*
G36*
X11237Y-8886D02*
X11235Y-8892D01*
X11234Y-8903D01*
X11232Y-8936D01*
X11231Y-8991D01*
X11234Y-9022D01*
X11239Y-9053D01*
X11246Y-9080D01*
X11255Y-9102D01*
X11266Y-9120D01*
X11279Y-9134D01*
X11294Y-9144D01*
X11311Y-9150D01*
X11330Y-9151D01*
X10931Y-9164D01*
X10950Y-9162D01*
X10967Y-9155D01*
X10982Y-9144D01*
X10994Y-9128D01*
X11005Y-9109D01*
X11014Y-9085D01*
X11021Y-9057D01*
X11026Y-9025D01*
X11027Y-9012D01*
X11022Y-8883D01*
X11238D01*
X11237Y-8886D01*
D02*
G37*
G36*
X9737D02*
X9735Y-8892D01*
X9734Y-8903D01*
X9732Y-8936D01*
X9731Y-8990D01*
X9734Y-9022D01*
X9739Y-9053D01*
X9746Y-9080D01*
X9755Y-9102D01*
X9766Y-9120D01*
X9779Y-9134D01*
X9794Y-9144D01*
X9811Y-9150D01*
X9830Y-9151D01*
X9431Y-9164D01*
X9450Y-9162D01*
X9467Y-9155D01*
X9482Y-9144D01*
X9494Y-9128D01*
X9505Y-9109D01*
X9514Y-9085D01*
X9521Y-9057D01*
X9526Y-9025D01*
X9527Y-9012D01*
X9522Y-8883D01*
X9738D01*
X9737Y-8886D01*
D02*
G37*
G36*
X11806Y-9599D02*
X11804Y-9580D01*
X11798Y-9563D01*
X11787Y-9548D01*
X11773Y-9536D01*
X11754Y-9525D01*
X11731Y-9516D01*
X11704Y-9509D01*
X11673Y-9504D01*
X11650Y-9502D01*
X11627Y-9504D01*
X11596Y-9509D01*
X11569Y-9516D01*
X11546Y-9525D01*
X11527Y-9536D01*
X11513Y-9548D01*
X11502Y-9563D01*
X11496Y-9580D01*
X11494Y-9599D01*
Y-9201D01*
X11496Y-9220D01*
X11502Y-9237D01*
X11513Y-9252D01*
X11527Y-9264D01*
X11546Y-9275D01*
X11569Y-9284D01*
X11596Y-9291D01*
X11627Y-9296D01*
X11650Y-9298D01*
X11673Y-9296D01*
X11704Y-9291D01*
X11731Y-9284D01*
X11754Y-9275D01*
X11773Y-9264D01*
X11787Y-9252D01*
X11798Y-9237D01*
X11804Y-9220D01*
X11806Y-9201D01*
Y-9599D01*
D02*
G37*
G36*
X9417Y-9633D02*
X9409Y-9617D01*
X9397Y-9603D01*
X9383Y-9591D01*
X9365Y-9580D01*
X9345Y-9571D01*
X9322Y-9563D01*
X9299Y-9558D01*
X9295Y-9559D01*
X9268Y-9566D01*
X9246Y-9575D01*
X9228Y-9586D01*
X9214Y-9599D01*
X9203Y-9614D01*
X9197Y-9631D01*
X9195Y-9650D01*
Y-9250D01*
X9197Y-9269D01*
X9203Y-9286D01*
X9214Y-9301D01*
X9228Y-9314D01*
X9246Y-9325D01*
X9268Y-9334D01*
X9295Y-9341D01*
X9299Y-9342D01*
X9303Y-9341D01*
X9330Y-9334D01*
X9352Y-9325D01*
X9371Y-9314D01*
X9385Y-9301D01*
X9394Y-9286D01*
X9400Y-9269D01*
X9401Y-9250D01*
X9417Y-9633D01*
D02*
G37*
G36*
X7017Y-9500D02*
X7020Y-9499D01*
X7039Y-9498D01*
X7058Y-9495D01*
X7077Y-9491D01*
X7095Y-9485D01*
X7113Y-9479D01*
X7130Y-9471D01*
X7147Y-9462D01*
X7163Y-9452D01*
X7179Y-9441D01*
Y-9760D01*
X7163Y-9748D01*
X7147Y-9738D01*
X7130Y-9729D01*
X7113Y-9721D01*
X7095Y-9715D01*
X7077Y-9710D01*
X7058Y-9705D01*
X7039Y-9702D01*
X7020Y-9701D01*
X7017Y-9701D01*
Y-9776D01*
X7023Y-9783D01*
X7041Y-9809D01*
X7050Y-9828D01*
X7049Y-9838D01*
X7038Y-9839D01*
X7017Y-9833D01*
Y-9776D01*
X6995Y-9748D01*
X6910Y-9654D01*
X6786Y-9527D01*
X6921Y-9379D01*
X6933Y-9391D01*
X6945Y-9399D01*
X6956Y-9405D01*
X6967Y-9408D01*
X6977Y-9408D01*
X6986Y-9406D01*
X6995Y-9400D01*
X7003Y-9392D01*
X7010Y-9381D01*
X7017Y-9367D01*
Y-9500D01*
D02*
G37*
G36*
X-2833Y-9332D02*
X-2846Y-9346D01*
X-2858Y-9361D01*
X-2868Y-9376D01*
X-2876Y-9391D01*
X-2884Y-9408D01*
X-2890Y-9424D01*
X-2894Y-9442D01*
X-2898Y-9460D01*
X-2900Y-9479D01*
X-2900Y-9498D01*
X-3098Y-9300D01*
X-3079Y-9300D01*
X-3060Y-9298D01*
X-3042Y-9294D01*
X-3024Y-9290D01*
X-3008Y-9284D01*
X-2991Y-9276D01*
X-2976Y-9268D01*
X-2961Y-9258D01*
X-2946Y-9246D01*
X-2932Y-9233D01*
X-2833Y-9332D01*
D02*
G37*
G36*
X164Y-9414D02*
X175Y-9416D01*
X190Y-9418D01*
X235Y-9422D01*
X427Y-9425D01*
Y-9675D01*
X157Y-9688D01*
Y-9412D01*
X164Y-9414D01*
D02*
G37*
G36*
X456Y-10299D02*
X454Y-10275D01*
X447Y-10254D01*
X434Y-10236D01*
X416Y-10220D01*
X393Y-10206D01*
X365Y-10195D01*
X331Y-10186D01*
X301Y-10181D01*
X157Y-10188D01*
Y-9912D01*
X164Y-9914D01*
X175Y-9916D01*
X190Y-9918D01*
X235Y-9922D01*
X273Y-9922D01*
X359Y-9916D01*
X388Y-9911D01*
X412Y-9904D01*
X433Y-9897D01*
X449Y-9888D01*
X460Y-9878D01*
X467Y-9867D01*
X456Y-10299D01*
D02*
G37*
G36*
X8383Y-9680D02*
X8374Y-9694D01*
X8372Y-9713D01*
X8376Y-9735D01*
X8386Y-9760D01*
X8403Y-9790D01*
X8427Y-9823D01*
X8457Y-9860D01*
X8537Y-9945D01*
X8302Y-9993D01*
X8265Y-9958D01*
X8197Y-9901D01*
X8166Y-9879D01*
X8137Y-9863D01*
X8109Y-9851D01*
X8084Y-9843D01*
X8060Y-9840D01*
X8039Y-9842D01*
X8019Y-9849D01*
X8399Y-9669D01*
X8383Y-9680D01*
D02*
G37*
G36*
X-1225Y-10121D02*
X-1221Y-10158D01*
X-1218Y-10174D01*
X-1215Y-10188D01*
X-1210Y-10201D01*
X-1205Y-10213D01*
X-1198Y-10222D01*
X-1191Y-10231D01*
X-1183Y-10238D01*
X-1417D01*
X-1409Y-10231D01*
X-1402Y-10222D01*
X-1395Y-10213D01*
X-1390Y-10201D01*
X-1385Y-10188D01*
X-1382Y-10174D01*
X-1379Y-10158D01*
X-1377Y-10140D01*
X-1375Y-10121D01*
X-1375Y-10100D01*
X-1225D01*
X-1225Y-10121D01*
D02*
G37*
G36*
X2142Y-9883D02*
X2155Y-9897D01*
X2171Y-9909D01*
X2192Y-9920D01*
X2217Y-9929D01*
X2246Y-9937D01*
X2278Y-9942D01*
X2315Y-9947D01*
X2400Y-9950D01*
Y-10250D01*
X2355Y-10251D01*
X2278Y-10257D01*
X2246Y-10263D01*
X2217Y-10271D01*
X2192Y-10280D01*
X2171Y-10291D01*
X2155Y-10303D01*
X2142Y-10317D01*
X2133Y-10333D01*
Y-9867D01*
X2142Y-9883D01*
D02*
G37*
G36*
X1054Y-9933D02*
X1060Y-9956D01*
X1071Y-9982D01*
X1086Y-10009D01*
X1105Y-10039D01*
X1128Y-10071D01*
X1188Y-10142D01*
X1264Y-10223D01*
X1192Y-10433D01*
X1168Y-10411D01*
X1146Y-10392D01*
X1124Y-10377D01*
X1103Y-10364D01*
X1082Y-10354D01*
X1062Y-10348D01*
X1042Y-10344D01*
X1024Y-10344D01*
X1005Y-10346D01*
X988Y-10352D01*
X1052Y-9913D01*
X1054Y-9933D01*
D02*
G37*
G36*
X8738Y-10146D02*
X8806Y-10203D01*
X8838Y-10224D01*
X8867Y-10241D01*
X8894Y-10253D01*
X8920Y-10260D01*
X8943Y-10263D01*
X8965Y-10261D01*
X8984Y-10255D01*
X8605Y-10434D01*
X8620Y-10424D01*
X8629Y-10409D01*
X8632Y-10391D01*
X8627Y-10369D01*
X8617Y-10343D01*
X8600Y-10313D01*
X8576Y-10280D01*
X8546Y-10243D01*
X8466Y-10157D01*
X8702Y-10110D01*
X8738Y-10146D01*
D02*
G37*
G36*
X-10662Y-10640D02*
X-10893Y-10650D01*
X-10920Y-10450D01*
X-10898Y-10450D01*
X-10879Y-10448D01*
X-10861Y-10446D01*
X-10845Y-10442D01*
X-10832Y-10438D01*
X-10820Y-10432D01*
X-10810Y-10426D01*
X-10803Y-10418D01*
X-10797Y-10410D01*
X-10794Y-10400D01*
X-10662Y-10640D01*
D02*
G37*
G36*
X1618Y-10639D02*
X1360Y-10657D01*
X1365Y-10651D01*
X1367Y-10644D01*
X1367Y-10636D01*
X1365Y-10626D01*
X1361Y-10616D01*
X1354Y-10604D01*
X1345Y-10592D01*
X1334Y-10578D01*
X1321Y-10563D01*
X1306Y-10547D01*
X1486Y-10444D01*
X1618Y-10639D01*
D02*
G37*
G36*
X-11330Y-10419D02*
X-11314Y-10425D01*
X-11296Y-10431D01*
X-11275Y-10436D01*
X-11251Y-10440D01*
X-11195Y-10447D01*
X-11128Y-10450D01*
X-11090Y-10450D01*
Y-10650D01*
X-11128Y-10650D01*
X-11251Y-10660D01*
X-11275Y-10664D01*
X-11296Y-10669D01*
X-11314Y-10675D01*
X-11330Y-10681D01*
X-11343Y-10688D01*
Y-10412D01*
X-11330Y-10419D01*
D02*
G37*
G36*
X-1668Y-10552D02*
X-1673Y-10562D01*
X-1676Y-10573D01*
X-1677Y-10584D01*
X-1675Y-10596D01*
X-1671Y-10609D01*
X-1664Y-10622D01*
X-1655Y-10636D01*
X-1643Y-10650D01*
X-1629Y-10665D01*
X-1768Y-10738D01*
X-1918Y-10561D01*
X-1660Y-10543D01*
X-1668Y-10552D01*
D02*
G37*
G36*
X462Y-10621D02*
X329Y-10771D01*
X295Y-10738D01*
X235Y-10689D01*
X209Y-10673D01*
X186Y-10663D01*
X166Y-10658D01*
X149Y-10658D01*
X134Y-10665D01*
X122Y-10677D01*
X113Y-10694D01*
X206Y-10444D01*
X462Y-10621D01*
D02*
G37*
G36*
X-10258Y-7136D02*
Y-8000D01*
X-10227Y-8156D01*
X-10138Y-8288D01*
X-10015Y-8371D01*
X-10006Y-8377D01*
X-9969Y-8427D01*
X-9838Y-8685D01*
X-9838Y-8693D01*
X-9859Y-8800D01*
X-9824Y-8976D01*
X-9724Y-9124D01*
X-9576Y-9224D01*
X-9400Y-9259D01*
X-9224Y-9224D01*
X-9076Y-9124D01*
X-9031Y-9058D01*
X-9021Y-9049D01*
X-8730Y-8969D01*
X-8679Y-8968D01*
X-8669Y-8971D01*
X-8520Y-9033D01*
X-8350Y-9056D01*
X-8322Y-9052D01*
X-8314Y-9064D01*
X-8178Y-9168D01*
X-8020Y-9233D01*
X-7850Y-9256D01*
X-7680Y-9233D01*
X-7522Y-9168D01*
X-7386Y-9064D01*
X-7282Y-8928D01*
X-7097Y-8853D01*
X-6980Y-8919D01*
X-6952Y-8966D01*
X-6894Y-9280D01*
X-6924Y-9324D01*
X-6959Y-9500D01*
X-6924Y-9676D01*
X-6824Y-9824D01*
X-6676Y-9924D01*
X-6500Y-9959D01*
X-6324Y-9924D01*
X-6176Y-9824D01*
X-6076Y-9676D01*
X-6041Y-9500D01*
X-6076Y-9324D01*
X-6176Y-9176D01*
X-6324Y-9076D01*
X-6469Y-9047D01*
X-6517Y-8955D01*
X-6560Y-8747D01*
X-6526Y-8724D01*
X-6426Y-8576D01*
X-6358Y-8426D01*
X-6220Y-8382D01*
X-6194Y-8377D01*
X-6185Y-8371D01*
X-6070Y-8334D01*
X-6006Y-8377D01*
X-5850Y-8408D01*
X-5694Y-8377D01*
X-5600Y-8314D01*
X-5506Y-8377D01*
X-5350Y-8408D01*
X-5194Y-8377D01*
X-5100Y-8314D01*
X-5006Y-8377D01*
X-4850Y-8408D01*
X-4694Y-8377D01*
X-4600Y-8314D01*
X-4506Y-8377D01*
X-4350Y-8408D01*
X-4194Y-8377D01*
X-4100Y-8314D01*
X-4006Y-8377D01*
X-3850Y-8408D01*
X-3694Y-8377D01*
X-3600Y-8314D01*
X-3506Y-8377D01*
X-3350Y-8408D01*
X-3194Y-8377D01*
X-3172Y-8362D01*
X-2875Y-8444D01*
X-2781Y-8719D01*
X-3103Y-9042D01*
X-3276Y-9076D01*
X-3424Y-9176D01*
X-3524Y-9324D01*
X-3559Y-9500D01*
X-3524Y-9676D01*
X-3424Y-9824D01*
X-3276Y-9924D01*
X-3095Y-9980D01*
X-3031Y-10251D01*
Y-10611D01*
X-3324Y-10776D01*
X-3331Y-10775D01*
X-3500Y-10741D01*
X-3676Y-10776D01*
X-3824Y-10876D01*
X-3924Y-11024D01*
X-3959Y-11200D01*
X-3924Y-11376D01*
X-3824Y-11524D01*
X-3676Y-11624D01*
X-3500Y-11659D01*
X-3324Y-11624D01*
X-3176Y-11524D01*
X-3093Y-11400D01*
X-3050Y-11370D01*
X-2757Y-11311D01*
X-2431Y-11637D01*
Y-12608D01*
X-2709Y-12723D01*
X-3166Y-12266D01*
X-3273Y-12194D01*
X-3400Y-12169D01*
X-5300D01*
X-5427Y-12194D01*
X-5534Y-12266D01*
X-7137Y-13869D01*
X-10385D01*
X-10441Y-13800D01*
X-10476Y-13624D01*
X-10576Y-13476D01*
X-10724Y-13376D01*
X-10773Y-13367D01*
X-10923Y-13270D01*
X-10993Y-13054D01*
X-10992Y-13050D01*
X-11023Y-12894D01*
X-11066Y-12830D01*
X-11029Y-12715D01*
X-11023Y-12706D01*
X-11018Y-12680D01*
X-10974Y-12542D01*
X-10824Y-12474D01*
X-10676Y-12374D01*
X-10576Y-12226D01*
X-10541Y-12050D01*
X-10564Y-11934D01*
X-10476Y-11874D01*
X-10376Y-11726D01*
X-10341Y-11550D01*
X-10376Y-11374D01*
X-10476Y-11226D01*
X-10521Y-11195D01*
X-10519Y-10893D01*
X-10424Y-10874D01*
X-10276Y-10774D01*
X-10176Y-10626D01*
X-10141Y-10450D01*
X-10176Y-10274D01*
X-10276Y-10126D01*
X-10424Y-10026D01*
X-10600Y-9991D01*
X-10702Y-10011D01*
X-10834Y-9963D01*
X-11023Y-9706D01*
X-10992Y-9550D01*
X-11023Y-9394D01*
X-11112Y-9262D01*
X-11125Y-9129D01*
X-10848Y-8852D01*
X-10770Y-8737D01*
X-10743Y-8600D01*
Y-7005D01*
X-10493Y-6944D01*
X-10258Y-7136D01*
D02*
G37*
G36*
X9992Y-10289D02*
X9990Y-10310D01*
X9993Y-10334D01*
X10001Y-10359D01*
X10013Y-10387D01*
X10029Y-10416D01*
X10051Y-10447D01*
X10077Y-10480D01*
X10108Y-10515D01*
X10143Y-10552D01*
X10095Y-10787D01*
X10051Y-10743D01*
X9973Y-10677D01*
X9940Y-10653D01*
X9910Y-10636D01*
X9885Y-10626D01*
X9863Y-10622D01*
X9844Y-10624D01*
X9830Y-10633D01*
X9819Y-10649D01*
X9999Y-10269D01*
X9992Y-10289D01*
D02*
G37*
G36*
X757Y-10840D02*
X749Y-10832D01*
X739Y-10826D01*
X727Y-10820D01*
X714Y-10814D01*
X700Y-10810D01*
X684Y-10806D01*
X667Y-10804D01*
X648Y-10802D01*
X607Y-10800D01*
X607Y-10600D01*
X628Y-10600D01*
X667Y-10596D01*
X684Y-10594D01*
X700Y-10590D01*
X714Y-10586D01*
X727Y-10580D01*
X739Y-10574D01*
X749Y-10568D01*
X757Y-10560D01*
X757Y-10840D01*
D02*
G37*
G36*
X-11143Y-10949D02*
X-11128Y-10950D01*
X-11090Y-10950D01*
Y-11150D01*
X-11128Y-11150D01*
X-11143Y-11152D01*
Y-11190D01*
X-11151Y-11182D01*
X-11161Y-11176D01*
X-11173Y-11170D01*
X-11186Y-11164D01*
X-11200Y-11160D01*
X-11214Y-11157D01*
X-11251Y-11160D01*
X-11275Y-11164D01*
X-11296Y-11169D01*
X-11314Y-11175D01*
X-11330Y-11181D01*
X-11343Y-11188D01*
Y-10912D01*
X-11330Y-10919D01*
X-11314Y-10925D01*
X-11296Y-10931D01*
X-11275Y-10936D01*
X-11251Y-10940D01*
X-11218Y-10944D01*
X-11216Y-10944D01*
X-11200Y-10940D01*
X-11186Y-10936D01*
X-11173Y-10930D01*
X-11161Y-10924D01*
X-11151Y-10918D01*
X-11143Y-10910D01*
Y-10949D01*
D02*
G37*
G36*
X11498Y-10599D02*
X11496Y-10611D01*
X11495Y-10623D01*
X11497Y-10635D01*
X11500Y-10647D01*
X11505Y-10659D01*
X11511Y-10671D01*
X11520Y-10683D01*
X11530Y-10696D01*
X11541Y-10709D01*
X11259Y-10991D01*
X10917Y-10633D01*
X11502Y-10587D01*
X11498Y-10599D01*
D02*
G37*
G36*
X6642Y-10847D02*
X6633Y-10851D01*
X6625Y-10859D01*
X6619Y-10870D01*
X6613Y-10884D01*
X6608Y-10901D01*
X6605Y-10921D01*
X6602Y-10944D01*
X6600Y-11000D01*
X6400D01*
X6399Y-10971D01*
X6395Y-10921D01*
X6392Y-10901D01*
X6387Y-10884D01*
X6381Y-10870D01*
X6375Y-10859D01*
X6367Y-10851D01*
X6358Y-10847D01*
X6348Y-10845D01*
X6652D01*
X6642Y-10847D01*
D02*
G37*
G36*
X2178Y-11035D02*
X2165Y-11049D01*
X2154Y-11063D01*
X2144Y-11077D01*
X2137Y-11090D01*
X2132Y-11103D01*
X2128Y-11116D01*
X2126Y-11129D01*
X2127Y-11142D01*
X2129Y-11155D01*
X2133Y-11167D01*
X1726Y-11151D01*
X1747Y-11150D01*
X1771Y-11146D01*
X1796Y-11137D01*
X1822Y-11126D01*
X1849Y-11110D01*
X1878Y-11091D01*
X1909Y-11068D01*
X1974Y-11012D01*
X2008Y-10978D01*
X2178Y-11035D01*
D02*
G37*
G36*
X-857Y-11188D02*
X-877Y-11176D01*
X-896Y-11166D01*
X-917Y-11156D01*
X-938Y-11148D01*
X-960Y-11141D01*
X-982Y-11135D01*
X-1005Y-11131D01*
X-1028Y-11128D01*
X-1052Y-11126D01*
X-1077Y-11125D01*
Y-10975D01*
X-1052Y-10974D01*
X-1028Y-10972D01*
X-1005Y-10969D01*
X-982Y-10965D01*
X-960Y-10959D01*
X-938Y-10952D01*
X-917Y-10944D01*
X-896Y-10934D01*
X-877Y-10924D01*
X-857Y-10912D01*
Y-11188D01*
D02*
G37*
G36*
X8367Y-10843D02*
X8353Y-10859D01*
X8341Y-10880D01*
X8330Y-10908D01*
X8321Y-10942D01*
X8313Y-10982D01*
X8307Y-11027D01*
X8301Y-11136D01*
X8300Y-11200D01*
X7900D01*
X7899Y-11136D01*
X7887Y-10982D01*
X7879Y-10942D01*
X7870Y-10908D01*
X7859Y-10880D01*
X7847Y-10859D01*
X7833Y-10843D01*
X7817Y-10833D01*
X8383D01*
X8367Y-10843D01*
D02*
G37*
G36*
X-10943Y-11690D02*
X-10951Y-11682D01*
X-10961Y-11676D01*
X-10973Y-11670D01*
X-10986Y-11664D01*
X-11000Y-11660D01*
X-11016Y-11656D01*
X-11033Y-11654D01*
X-11052Y-11652D01*
X-11093Y-11650D01*
X-11128Y-11650D01*
X-11251Y-11660D01*
X-11275Y-11664D01*
X-11296Y-11669D01*
X-11314Y-11675D01*
X-11330Y-11681D01*
X-11343Y-11688D01*
Y-11412D01*
X-11330Y-11419D01*
X-11314Y-11425D01*
X-11296Y-11431D01*
X-11275Y-11436D01*
X-11251Y-11440D01*
X-11195Y-11447D01*
X-11128Y-11450D01*
X-11092Y-11450D01*
X-11072Y-11450D01*
X-11033Y-11446D01*
X-11016Y-11444D01*
X-11000Y-11440D01*
X-10986Y-11436D01*
X-10973Y-11430D01*
X-10961Y-11424D01*
X-10951Y-11418D01*
X-10943Y-11410D01*
Y-11690D01*
D02*
G37*
G36*
X11191Y-11184D02*
X11206Y-11196D01*
X11221Y-11205D01*
X11236Y-11213D01*
X11251Y-11218D01*
X11266Y-11221D01*
X11281Y-11222D01*
X11297Y-11222D01*
X11312Y-11219D01*
X11327Y-11214D01*
X11212Y-11469D01*
X11206Y-11453D01*
X11191Y-11422D01*
X11183Y-11407D01*
X11163Y-11377D01*
X11152Y-11363D01*
X11128Y-11335D01*
X11115Y-11321D01*
X11177Y-11171D01*
X11191Y-11184D01*
D02*
G37*
G36*
X-857Y-11688D02*
X-877Y-11676D01*
X-896Y-11666D01*
X-917Y-11656D01*
X-938Y-11648D01*
X-960Y-11641D01*
X-982Y-11635D01*
X-1005Y-11631D01*
X-1028Y-11628D01*
X-1052Y-11626D01*
X-1077Y-11625D01*
Y-11475D01*
X-1052Y-11474D01*
X-1028Y-11472D01*
X-1005Y-11469D01*
X-982Y-11465D01*
X-960Y-11459D01*
X-938Y-11452D01*
X-917Y-11444D01*
X-896Y-11434D01*
X-877Y-11424D01*
X-857Y-11412D01*
Y-11688D01*
D02*
G37*
G36*
X760Y-11749D02*
X754Y-11736D01*
X744Y-11728D01*
X731Y-11725D01*
X716Y-11727D01*
X698Y-11734D01*
X677Y-11745D01*
X653Y-11762D01*
X627Y-11783D01*
X565Y-11841D01*
X542Y-11652D01*
X568Y-11625D01*
X609Y-11576D01*
X625Y-11553D01*
X637Y-11531D01*
X647Y-11510D01*
X653Y-11491D01*
X655Y-11473D01*
X655Y-11456D01*
X651Y-11440D01*
X760Y-11749D01*
D02*
G37*
G36*
X3350Y-11594D02*
X3340Y-11597D01*
X3332Y-11603D01*
X3324Y-11610D01*
X3318Y-11620D01*
X3312Y-11632D01*
X3308Y-11645D01*
X3304Y-11661D01*
X3302Y-11679D01*
X3301Y-11689D01*
X3304Y-11721D01*
X3309Y-11752D01*
X3316Y-11778D01*
X3325Y-11800D01*
X3336Y-11819D01*
X3349Y-11833D01*
X3364Y-11843D01*
X3381Y-11849D01*
X3400Y-11851D01*
X3000D01*
X3019Y-11849D01*
X3036Y-11843D01*
X3051Y-11833D01*
X3064Y-11819D01*
X3075Y-11800D01*
X3084Y-11778D01*
X3091Y-11752D01*
X3096Y-11721D01*
X3099Y-11687D01*
X3100Y-11648D01*
X3102D01*
X3110Y-11462D01*
X3350Y-11594D01*
D02*
G37*
G36*
X13266Y-2634D02*
X13373Y-2706D01*
X13500Y-2731D01*
X14145D01*
Y-2840D01*
X14165Y-2938D01*
X14204Y-3075D01*
X14165Y-3212D01*
X14145Y-3310D01*
Y-4110D01*
X14165Y-4208D01*
X14204Y-4345D01*
X14165Y-4482D01*
X14145Y-4580D01*
Y-5380D01*
X14165Y-5478D01*
X14204Y-5615D01*
X14165Y-5752D01*
X14145Y-5850D01*
Y-6650D01*
X14165Y-6748D01*
X14220Y-6830D01*
X14320Y-6930D01*
X14402Y-6985D01*
X14490Y-7003D01*
Y-12913D01*
X14324Y-12946D01*
X14176Y-13046D01*
X14176Y-13046D01*
X14076Y-13146D01*
X13976Y-13294D01*
X13970Y-13327D01*
X13817Y-13380D01*
X13654Y-13378D01*
X13577Y-13263D01*
X13437Y-13123D01*
X13274Y-13014D01*
X13092Y-12938D01*
X12898Y-12900D01*
X12800Y-12900D01*
X12800D01*
Y-12900D01*
X12701Y-12900D01*
X12508Y-12938D01*
X12326Y-13014D01*
X12163Y-13123D01*
X12023Y-13263D01*
X11914Y-13426D01*
X11838Y-13608D01*
X11800Y-13801D01*
X11800Y-13900D01*
X11800Y-13998D01*
X11838Y-14192D01*
X11914Y-14374D01*
X12023Y-14537D01*
X12163Y-14677D01*
X12326Y-14786D01*
X12508Y-14861D01*
X12701Y-14900D01*
X12800Y-14900D01*
X12898D01*
X13092Y-14861D01*
X13274Y-14786D01*
X13437Y-14677D01*
X13577Y-14537D01*
X13916Y-14556D01*
X13968Y-14606D01*
X13941Y-14740D01*
Y-15540D01*
X13976Y-15716D01*
X14076Y-15864D01*
X14158Y-15947D01*
X14145Y-16010D01*
Y-16810D01*
X14165Y-16908D01*
X14204Y-17045D01*
X14165Y-17182D01*
X14145Y-17280D01*
Y-18080D01*
X14165Y-18178D01*
X14204Y-18315D01*
X14165Y-18452D01*
X14145Y-18550D01*
Y-19350D01*
X14165Y-19448D01*
X14204Y-19585D01*
X14165Y-19722D01*
X14145Y-19820D01*
Y-20620D01*
X14165Y-20718D01*
X14204Y-20855D01*
X14165Y-20992D01*
X14145Y-21090D01*
Y-21290D01*
X14431D01*
Y-21690D01*
X14145D01*
Y-21890D01*
X14165Y-21988D01*
X14204Y-22125D01*
X14165Y-22262D01*
X14145Y-22360D01*
Y-22560D01*
X14431D01*
Y-22960D01*
X14145D01*
Y-23160D01*
X14165Y-23258D01*
X14204Y-23395D01*
X14165Y-23532D01*
X14145Y-23630D01*
Y-24430D01*
X14165Y-24528D01*
X14204Y-24665D01*
X14165Y-24802D01*
X14145Y-24900D01*
Y-25700D01*
X14165Y-25798D01*
X14220Y-25880D01*
X14280Y-25940D01*
X14249Y-26102D01*
X14169Y-26240D01*
X10623D01*
X10349Y-25986D01*
X10339Y-25953D01*
X10340Y-25885D01*
X10364Y-25857D01*
X10887D01*
X11029Y-25829D01*
X11149Y-25749D01*
X11229Y-25629D01*
X11257Y-25487D01*
Y-24642D01*
X11541Y-24482D01*
X11663Y-24506D01*
X12137D01*
X12259Y-24482D01*
X12279Y-24469D01*
X12281Y-24468D01*
X12441Y-24509D01*
X12548Y-24581D01*
X12675Y-24606D01*
X13125D01*
X13252Y-24581D01*
X13359Y-24509D01*
X13431Y-24402D01*
X13456Y-24275D01*
Y-23825D01*
X13431Y-23698D01*
X13359Y-23591D01*
X13252Y-23519D01*
X13125Y-23494D01*
X12675D01*
X12669Y-23495D01*
X12572Y-23419D01*
X12442Y-23256D01*
X12456Y-23188D01*
Y-22813D01*
X12432Y-22691D01*
X12419Y-22671D01*
X12418Y-22669D01*
X12400Y-22641D01*
X12385Y-22611D01*
X12489Y-22392D01*
X12526Y-22335D01*
X12692Y-22168D01*
X12742Y-22162D01*
X12868Y-22109D01*
X12968Y-22033D01*
X13100Y-22059D01*
X13276Y-22024D01*
X13424Y-21924D01*
X13524Y-21776D01*
X13559Y-21600D01*
X13524Y-21424D01*
X13424Y-21276D01*
X13261Y-21112D01*
X13206Y-21049D01*
X13178Y-21013D01*
X13155Y-20979D01*
X13139Y-20952D01*
X13130Y-20933D01*
X13129Y-20931D01*
Y-19036D01*
X13129Y-18944D01*
X13129Y-18944D01*
X13112Y-18808D01*
X13276Y-18724D01*
X13424Y-18624D01*
X13524Y-18476D01*
X13559Y-18300D01*
Y-17100D01*
X13524Y-16924D01*
X13424Y-16776D01*
X13276Y-16676D01*
X13100Y-16641D01*
X12924Y-16676D01*
X12776Y-16776D01*
X12676Y-16924D01*
X12641Y-17100D01*
Y-17193D01*
X12119D01*
X11985Y-17220D01*
X11947Y-17245D01*
X11894D01*
X11272Y-16623D01*
X11330Y-16537D01*
X11357Y-16400D01*
Y-15800D01*
X11330Y-15663D01*
X11252Y-15548D01*
X11137Y-15470D01*
X11000Y-15443D01*
X10300D01*
X10163Y-15470D01*
X10048Y-15548D01*
X9970Y-15663D01*
X9943Y-15800D01*
X9657Y-15800D01*
X9630Y-15663D01*
X9570Y-15500D01*
X9630Y-15337D01*
X9657Y-15200D01*
Y-14600D01*
X9630Y-14463D01*
X9552Y-14348D01*
X9437Y-14270D01*
X9300Y-14243D01*
X8600D01*
X8463Y-14270D01*
X8348Y-14348D01*
X8270Y-14463D01*
X8243Y-14600D01*
Y-15200D01*
X8270Y-15337D01*
X8311Y-15448D01*
X8255Y-15581D01*
X8175Y-15692D01*
X7900D01*
X7900Y-15692D01*
X7744Y-15723D01*
X7612Y-15812D01*
X6244Y-17179D01*
X6229Y-17192D01*
X6199Y-17215D01*
X6171Y-17233D01*
X6145Y-17247D01*
X6122Y-17258D01*
X6101Y-17265D01*
X6092Y-17268D01*
X5666D01*
X5624Y-17245D01*
X5436Y-17000D01*
X5436Y-17000D01*
Y-14765D01*
X5736Y-14556D01*
X5750Y-14559D01*
X6150D01*
X6326Y-14524D01*
X6474Y-14424D01*
X6574Y-14276D01*
X6609Y-14100D01*
X6574Y-13924D01*
X6485Y-13791D01*
X6507Y-13681D01*
Y-13119D01*
X6599Y-13006D01*
X6938D01*
X7059Y-12982D01*
X7163Y-12913D01*
X7232Y-12809D01*
X7256Y-12687D01*
Y-12312D01*
X7232Y-12191D01*
X7163Y-12087D01*
Y-11913D01*
X7232Y-11809D01*
X7256Y-11688D01*
Y-11313D01*
X7232Y-11191D01*
X7163Y-11087D01*
X7031Y-10902D01*
X7056Y-10775D01*
Y-10551D01*
X7299Y-10319D01*
X7324Y-10312D01*
X7544Y-10412D01*
Y-10787D01*
X7568Y-10909D01*
X7581Y-10929D01*
X7582Y-10931D01*
X7598Y-10955D01*
X7609Y-10981D01*
X7625Y-10996D01*
X7632Y-11006D01*
X7634Y-11016D01*
X7641Y-11108D01*
Y-11200D01*
X7676Y-11376D01*
X7776Y-11524D01*
X8376Y-12124D01*
X8524Y-12224D01*
X8700Y-12259D01*
X8876Y-12224D01*
X9024Y-12124D01*
X9124Y-11976D01*
X9145Y-11870D01*
X9373Y-11785D01*
X9446Y-11779D01*
X9476Y-11824D01*
X9624Y-11924D01*
X9800Y-11959D01*
X9976Y-11924D01*
X10124Y-11824D01*
X10224Y-11676D01*
X10259Y-11500D01*
Y-11252D01*
X10559Y-11127D01*
X10951Y-11519D01*
X10954Y-11523D01*
X10955Y-11524D01*
X10965Y-11540D01*
X10972Y-11554D01*
X10976Y-11576D01*
X11076Y-11724D01*
X11224Y-11824D01*
X11400Y-11859D01*
X11576Y-11824D01*
X11724Y-11724D01*
X11824Y-11576D01*
X11859Y-11400D01*
X11824Y-11224D01*
X11757Y-11125D01*
X11824Y-11026D01*
X11859Y-10850D01*
X11824Y-10674D01*
X11756Y-10573D01*
Y-10570D01*
X11756Y-10570D01*
X11756Y-10570D01*
Y-10212D01*
X11752Y-10190D01*
X11783Y-10109D01*
X11899Y-9960D01*
X11969Y-9906D01*
X12337D01*
X12459Y-9882D01*
X12563Y-9813D01*
X12632Y-9709D01*
X12656Y-9588D01*
X12812Y-9406D01*
X13187D01*
X13309Y-9382D01*
X13413Y-9313D01*
X13482Y-9209D01*
X13506Y-9088D01*
Y-8613D01*
X13482Y-8491D01*
X13472Y-8476D01*
X13464Y-8353D01*
X13466Y-8335D01*
X13471Y-8305D01*
X13472Y-8300D01*
X13477Y-8293D01*
X13494Y-8276D01*
X13504Y-8252D01*
X13519Y-8231D01*
X13519Y-8229D01*
X13532Y-8209D01*
X13556Y-8087D01*
Y-7712D01*
X13532Y-7591D01*
X13463Y-7487D01*
Y-7313D01*
X13532Y-7209D01*
X13556Y-7088D01*
Y-6713D01*
X13532Y-6591D01*
X13463Y-6487D01*
X13359Y-6418D01*
X13238Y-6394D01*
X12895D01*
X12859Y-6350D01*
X12824Y-6174D01*
X12757Y-6075D01*
X12824Y-5976D01*
X12859Y-5800D01*
X12824Y-5624D01*
X12757Y-5525D01*
X12824Y-5426D01*
X12859Y-5250D01*
X12824Y-5074D01*
X12757Y-4975D01*
X12824Y-4876D01*
X12859Y-4700D01*
X12936Y-4606D01*
X13238D01*
X13359Y-4582D01*
X13463Y-4513D01*
X13532Y-4409D01*
X13556Y-4287D01*
Y-3912D01*
X13532Y-3791D01*
X13463Y-3687D01*
X13359Y-3618D01*
X13238Y-3594D01*
X12783D01*
X12770Y-3588D01*
X12737Y-3564D01*
X12627Y-3435D01*
X12557Y-3402D01*
X12579Y-3379D01*
X12550Y-3345D01*
X12559Y-3300D01*
X12524Y-3124D01*
X12481Y-3060D01*
X12482Y-3059D01*
X12506Y-2938D01*
Y-2463D01*
X12532Y-2431D01*
X13063D01*
X13266Y-2634D01*
D02*
G37*
G36*
X-11143Y-11949D02*
X-11128Y-11950D01*
X-11090Y-11950D01*
Y-12150D01*
X-11128Y-12150D01*
X-11143Y-12152D01*
Y-12190D01*
X-11151Y-12182D01*
X-11161Y-12176D01*
X-11173Y-12170D01*
X-11186Y-12164D01*
X-11200Y-12160D01*
X-11214Y-12157D01*
X-11251Y-12160D01*
X-11275Y-12164D01*
X-11296Y-12169D01*
X-11314Y-12175D01*
X-11330Y-12181D01*
X-11343Y-12188D01*
Y-11912D01*
X-11330Y-11919D01*
X-11314Y-11925D01*
X-11296Y-11931D01*
X-11275Y-11936D01*
X-11251Y-11940D01*
X-11218Y-11944D01*
X-11216Y-11944D01*
X-11200Y-11940D01*
X-11186Y-11936D01*
X-11173Y-11930D01*
X-11161Y-11924D01*
X-11151Y-11918D01*
X-11143Y-11910D01*
Y-11949D01*
D02*
G37*
G36*
X2265Y-12148D02*
X2242Y-12172D01*
X2204Y-12219D01*
X2189Y-12242D01*
X2176Y-12265D01*
X2165Y-12287D01*
X2158Y-12310D01*
X2152Y-12331D01*
X2149Y-12353D01*
X2149Y-12374D01*
X2133Y-11967D01*
X2139Y-11978D01*
X2146Y-11985D01*
X2156Y-11989D01*
X2166Y-11989D01*
X2179Y-11986D01*
X2193Y-11980D01*
X2208Y-11971D01*
X2226Y-11958D01*
X2244Y-11942D01*
X2265Y-11922D01*
Y-12148D01*
D02*
G37*
G36*
X6405Y-12450D02*
X6423Y-12450D01*
Y-12650D01*
X6414Y-12650D01*
X6417Y-12733D01*
X6409Y-12717D01*
X6397Y-12703D01*
X6383Y-12691D01*
X6365Y-12680D01*
X6345Y-12671D01*
X6322Y-12663D01*
X6295Y-12657D01*
X6278Y-12655D01*
X6051Y-12670D01*
X6052Y-12687D01*
X6057Y-12743D01*
X6065Y-12796D01*
X6077Y-12845D01*
X6093Y-12889D01*
X6112Y-12930D01*
X6134Y-12967D01*
X6160Y-13000D01*
X6189Y-13028D01*
X6222Y-13053D01*
X5478D01*
X5511Y-13028D01*
X5540Y-13000D01*
X5566Y-12967D01*
X5588Y-12930D01*
X5607Y-12889D01*
X5623Y-12845D01*
X5635Y-12796D01*
X5643Y-12743D01*
X5648Y-12687D01*
X5650Y-12626D01*
X5991D01*
Y-12408D01*
X6003Y-12416D01*
X6022Y-12423D01*
X6048Y-12430D01*
X6080Y-12435D01*
X6167Y-12443D01*
X6264Y-12447D01*
X6273Y-12446D01*
X6303Y-12441D01*
X6330Y-12434D01*
X6352Y-12425D01*
X6371Y-12414D01*
X6385Y-12401D01*
X6394Y-12386D01*
X6400Y-12369D01*
X6401Y-12350D01*
X6405Y-12450D01*
D02*
G37*
G36*
X667Y-12533D02*
X654Y-12528D01*
X641Y-12525D01*
X628Y-12524D01*
X615Y-12525D01*
X603Y-12527D01*
X590Y-12531D01*
X578Y-12537D01*
X566Y-12544D01*
X554Y-12553D01*
X542Y-12564D01*
Y-12352D01*
X564Y-12329D01*
X599Y-12285D01*
X614Y-12264D01*
X626Y-12242D01*
X636Y-12221D01*
X643Y-12200D01*
X648Y-12180D01*
X651Y-12160D01*
X651Y-12140D01*
X667Y-12533D01*
D02*
G37*
G36*
X-12512Y-12345D02*
X-12445Y-12400D01*
X-12417Y-12419D01*
X-12392Y-12432D01*
X-12369Y-12439D01*
X-12351Y-12440D01*
X-12335Y-12435D01*
X-12323Y-12423D01*
X-12313Y-12406D01*
X-12406Y-12656D01*
X-12662Y-12479D01*
X-12551Y-12308D01*
X-12512Y-12345D01*
D02*
G37*
G36*
X177Y-12424D02*
X196Y-12434D01*
X217Y-12444D01*
X238Y-12452D01*
X260Y-12459D01*
X282Y-12465D01*
X305Y-12469D01*
X328Y-12472D01*
X352Y-12474D01*
X377Y-12475D01*
Y-12625D01*
X352Y-12626D01*
X328Y-12628D01*
X305Y-12631D01*
X282Y-12635D01*
X260Y-12641D01*
X238Y-12648D01*
X217Y-12656D01*
X196Y-12666D01*
X177Y-12676D01*
X157Y-12688D01*
Y-12412D01*
X177Y-12424D01*
D02*
G37*
G36*
Y-12924D02*
X196Y-12934D01*
X217Y-12944D01*
X238Y-12952D01*
X260Y-12959D01*
X282Y-12965D01*
X305Y-12969D01*
X328Y-12972D01*
X352Y-12974D01*
X377Y-12975D01*
Y-13125D01*
X352Y-13126D01*
X328Y-13128D01*
X305Y-13131D01*
X282Y-13135D01*
X260Y-13141D01*
X238Y-13148D01*
X217Y-13156D01*
X196Y-13166D01*
X177Y-13176D01*
X157Y-13188D01*
Y-12912D01*
X177Y-12924D01*
D02*
G37*
G36*
X-12357Y-13188D02*
X-12370Y-13181D01*
X-12386Y-13175D01*
X-12404Y-13169D01*
X-12425Y-13164D01*
X-12449Y-13160D01*
X-12505Y-13153D01*
X-12572Y-13150D01*
X-12610Y-13150D01*
Y-12950D01*
X-12572Y-12950D01*
X-12449Y-12940D01*
X-12425Y-12936D01*
X-12404Y-12931D01*
X-12386Y-12925D01*
X-12370Y-12919D01*
X-12357Y-12912D01*
Y-13188D01*
D02*
G37*
G36*
X651Y-13200D02*
X650Y-13186D01*
X645Y-13173D01*
X637Y-13162D01*
X627Y-13152D01*
X613Y-13144D01*
X596Y-13137D01*
X576Y-13132D01*
X553Y-13128D01*
X527Y-13126D01*
X498Y-13125D01*
Y-12975D01*
X527Y-12974D01*
X553Y-12972D01*
X576Y-12968D01*
X596Y-12963D01*
X613Y-12956D01*
X627Y-12948D01*
X637Y-12938D01*
X645Y-12927D01*
X650Y-12914D01*
X651Y-12900D01*
Y-13200D01*
D02*
G37*
G36*
X3492Y-12906D02*
X3497Y-12920D01*
X3506Y-12931D01*
X3518Y-12942D01*
X3534Y-12950D01*
X3553Y-12957D01*
X3575Y-12963D01*
X3601Y-12967D01*
X3630Y-12969D01*
X3662Y-12970D01*
Y-13130D01*
X3630Y-13131D01*
X3602Y-13133D01*
X3578Y-13137D01*
X3556Y-13143D01*
X3538Y-13150D01*
X3524Y-13159D01*
X3513Y-13169D01*
X3505Y-13181D01*
X3500Y-13195D01*
X3499Y-13210D01*
X3490Y-12891D01*
X3492Y-12906D01*
D02*
G37*
G36*
X2901Y-13210D02*
X2900Y-13195D01*
X2895Y-13181D01*
X2887Y-13169D01*
X2876Y-13159D01*
X2862Y-13150D01*
X2844Y-13143D01*
X2822Y-13137D01*
X2798Y-13133D01*
X2770Y-13131D01*
X2738Y-13130D01*
Y-12970D01*
X2770Y-12969D01*
X2799Y-12967D01*
X2825Y-12963D01*
X2847Y-12957D01*
X2866Y-12950D01*
X2882Y-12942D01*
X2894Y-12931D01*
X2903Y-12920D01*
X2908Y-12906D01*
X2910Y-12891D01*
X2901Y-13210D01*
D02*
G37*
G36*
X2150Y-12905D02*
X2155Y-12919D01*
X2163Y-12931D01*
X2175Y-12941D01*
X2190Y-12950D01*
X2207Y-12957D01*
X2229Y-12963D01*
X2253Y-12967D01*
X2281Y-12969D01*
X2312Y-12970D01*
Y-13130D01*
X2281Y-13131D01*
X2253Y-13133D01*
X2229Y-13137D01*
X2207Y-13143D01*
X2190Y-13150D01*
X2175Y-13159D01*
X2163Y-13169D01*
X2155Y-13181D01*
X2150Y-13195D01*
X2149Y-13210D01*
Y-12890D01*
X2150Y-12905D01*
D02*
G37*
G36*
X177Y-13424D02*
X196Y-13434D01*
X217Y-13444D01*
X238Y-13452D01*
X260Y-13459D01*
X282Y-13465D01*
X305Y-13469D01*
X328Y-13472D01*
X352Y-13474D01*
X377Y-13475D01*
Y-13625D01*
X352Y-13626D01*
X328Y-13628D01*
X305Y-13631D01*
X282Y-13635D01*
X260Y-13641D01*
X238Y-13648D01*
X217Y-13656D01*
X196Y-13666D01*
X177Y-13676D01*
X157Y-13688D01*
Y-13412D01*
X177Y-13424D01*
D02*
G37*
G36*
X-12357Y-13688D02*
X-12370Y-13681D01*
X-12386Y-13675D01*
X-12404Y-13669D01*
X-12425Y-13664D01*
X-12449Y-13660D01*
X-12505Y-13653D01*
X-12572Y-13650D01*
X-12610Y-13650D01*
Y-13450D01*
X-12572Y-13450D01*
X-12449Y-13440D01*
X-12425Y-13436D01*
X-12404Y-13431D01*
X-12386Y-13425D01*
X-12370Y-13419D01*
X-12357Y-13412D01*
Y-13688D01*
D02*
G37*
G36*
X3801Y-14060D02*
X3800Y-14045D01*
X3795Y-14031D01*
X3787Y-14019D01*
X3775Y-14009D01*
X3760Y-14000D01*
X3743Y-13993D01*
X3721Y-13987D01*
X3697Y-13983D01*
X3669Y-13981D01*
X3650Y-13980D01*
X3631Y-13981D01*
X3603Y-13983D01*
X3579Y-13987D01*
X3557Y-13993D01*
X3540Y-14000D01*
X3525Y-14009D01*
X3513Y-14019D01*
X3505Y-14031D01*
X3500Y-14045D01*
X3499Y-14060D01*
Y-13740D01*
X3500Y-13755D01*
X3505Y-13769D01*
X3513Y-13781D01*
X3525Y-13791D01*
X3540Y-13800D01*
X3557Y-13807D01*
X3579Y-13813D01*
X3603Y-13817D01*
X3631Y-13819D01*
X3650Y-13820D01*
X3669Y-13819D01*
X3697Y-13817D01*
X3721Y-13813D01*
X3743Y-13807D01*
X3760Y-13800D01*
X3775Y-13791D01*
X3787Y-13781D01*
X3795Y-13769D01*
X3800Y-13755D01*
X3801Y-13740D01*
Y-14060D01*
D02*
G37*
G36*
X2150Y-13665D02*
X2155Y-13676D01*
X2162Y-13687D01*
X2173Y-13695D01*
X2187Y-13703D01*
X2203Y-13709D01*
X2223Y-13714D01*
X2246Y-13717D01*
X2271Y-13719D01*
X2300Y-13720D01*
Y-13880D01*
X2271Y-13881D01*
X2246Y-13883D01*
X2223Y-13886D01*
X2203Y-13891D01*
X2187Y-13897D01*
X2173Y-13905D01*
X2162Y-13913D01*
X2155Y-13924D01*
X2150Y-13935D01*
X2149Y-13948D01*
Y-13652D01*
X2150Y-13665D01*
D02*
G37*
G36*
X554Y-13547D02*
X566Y-13556D01*
X578Y-13563D01*
X590Y-13569D01*
X603Y-13573D01*
X615Y-13575D01*
X628Y-13576D01*
X641Y-13575D01*
X654Y-13572D01*
X667Y-13567D01*
X651Y-13960D01*
X651Y-13940D01*
X648Y-13920D01*
X643Y-13900D01*
X636Y-13879D01*
X626Y-13858D01*
X614Y-13836D01*
X599Y-13815D01*
X583Y-13793D01*
X564Y-13771D01*
X542Y-13748D01*
Y-13536D01*
X554Y-13547D01*
D02*
G37*
G36*
X2901Y-13998D02*
X2900Y-13995D01*
X2897Y-13992D01*
X2892Y-13989D01*
X2885Y-13987D01*
X2876Y-13985D01*
X2865Y-13983D01*
X2836Y-13981D01*
X2800Y-13980D01*
Y-13820D01*
X2819Y-13820D01*
X2876Y-13815D01*
X2885Y-13813D01*
X2892Y-13811D01*
X2897Y-13808D01*
X2900Y-13805D01*
X2901Y-13802D01*
Y-13998D01*
D02*
G37*
G36*
X6076Y-13771D02*
X6052Y-13773D01*
X6031Y-13782D01*
X6012Y-13798D01*
X5995Y-13821D01*
X5982Y-13850D01*
X5970Y-13887D01*
X5961Y-13930D01*
X5955Y-13980D01*
X5951Y-14037D01*
X5950Y-14100D01*
X5550D01*
X5549Y-14041D01*
X5539Y-13897D01*
X5532Y-13859D01*
X5524Y-13826D01*
X5515Y-13799D01*
X5504Y-13776D01*
X5492Y-13759D01*
X5478Y-13747D01*
X6076Y-13771D01*
D02*
G37*
G36*
X-1172Y-14056D02*
X-1183Y-14070D01*
X-1193Y-14084D01*
X-1202Y-14099D01*
X-1209Y-14115D01*
X-1215Y-14132D01*
X-1219Y-14149D01*
X-1222Y-14167D01*
X-1224Y-14186D01*
X-1225Y-14205D01*
X-1375D01*
X-1376Y-14186D01*
X-1378Y-14167D01*
X-1381Y-14149D01*
X-1385Y-14132D01*
X-1391Y-14115D01*
X-1398Y-14099D01*
X-1407Y-14084D01*
X-1417Y-14070D01*
X-1428Y-14056D01*
X-1440Y-14043D01*
X-1160D01*
X-1172Y-14056D01*
D02*
G37*
G36*
X-3243Y-14240D02*
X-3256Y-14228D01*
X-3270Y-14217D01*
X-3284Y-14207D01*
X-3299Y-14198D01*
X-3315Y-14191D01*
X-3332Y-14185D01*
X-3349Y-14181D01*
X-3367Y-14178D01*
X-3386Y-14176D01*
X-3405Y-14175D01*
Y-14025D01*
X-3386Y-14024D01*
X-3367Y-14022D01*
X-3349Y-14019D01*
X-3332Y-14015D01*
X-3315Y-14009D01*
X-3299Y-14002D01*
X-3284Y-13993D01*
X-3270Y-13983D01*
X-3256Y-13972D01*
X-3243Y-13960D01*
Y-14240D01*
D02*
G37*
G36*
X-11323Y-14424D02*
X-11304Y-14434D01*
X-11283Y-14444D01*
X-11262Y-14452D01*
X-11240Y-14459D01*
X-11218Y-14465D01*
X-11195Y-14469D01*
X-11172Y-14472D01*
X-11148Y-14474D01*
X-11123Y-14475D01*
Y-14625D01*
X-11148Y-14626D01*
X-11172Y-14628D01*
X-11195Y-14631D01*
X-11218Y-14635D01*
X-11240Y-14641D01*
X-11262Y-14648D01*
X-11283Y-14656D01*
X-11304Y-14666D01*
X-11323Y-14676D01*
X-11343Y-14688D01*
Y-14412D01*
X-11323Y-14424D01*
D02*
G37*
G36*
X951Y-14748D02*
X950Y-14744D01*
X947Y-14740D01*
X942Y-14736D01*
X935Y-14733D01*
X926Y-14731D01*
X915Y-14729D01*
X902Y-14727D01*
X869Y-14725D01*
X850Y-14725D01*
Y-14575D01*
X869Y-14575D01*
X915Y-14571D01*
X926Y-14569D01*
X935Y-14567D01*
X942Y-14564D01*
X947Y-14560D01*
X950Y-14556D01*
X951Y-14552D01*
Y-14748D01*
D02*
G37*
G36*
X241Y-14503D02*
X246Y-14515D01*
X253Y-14527D01*
X262Y-14541D01*
X272Y-14556D01*
X299Y-14590D01*
X334Y-14628D01*
X354Y-14648D01*
X278Y-14784D01*
X250Y-14757D01*
X200Y-14715D01*
X177Y-14700D01*
X157Y-14689D01*
X139Y-14682D01*
X123Y-14680D01*
X109Y-14681D01*
X97Y-14687D01*
X88Y-14697D01*
X238Y-14493D01*
X241Y-14503D01*
D02*
G37*
G36*
X-907Y-15148D02*
X-909Y-15144D01*
X-913Y-15140D01*
X-920Y-15137D01*
X-930Y-15133D01*
X-943Y-15131D01*
X-959Y-15129D01*
X-999Y-15126D01*
X-1050Y-15125D01*
Y-14975D01*
X-1023Y-14975D01*
X-943Y-14969D01*
X-930Y-14967D01*
X-920Y-14964D01*
X-913Y-14960D01*
X-909Y-14956D01*
X-907Y-14952D01*
Y-15148D01*
D02*
G37*
G36*
X2345Y-15000D02*
X2331Y-15005D01*
X2319Y-15013D01*
X2309Y-15025D01*
X2300Y-15040D01*
X2293Y-15057D01*
X2287Y-15079D01*
X2283Y-15103D01*
X2281Y-15131D01*
X2280Y-15162D01*
X2120D01*
X2119Y-15131D01*
X2117Y-15103D01*
X2113Y-15079D01*
X2107Y-15057D01*
X2100Y-15040D01*
X2091Y-15025D01*
X2081Y-15013D01*
X2069Y-15005D01*
X2055Y-15000D01*
X2040Y-14999D01*
X2360D01*
X2345Y-15000D01*
D02*
G37*
G36*
X-12703Y-14869D02*
X-12700Y-14886D01*
X-12691Y-14901D01*
X-12678Y-14914D01*
X-12661Y-14925D01*
X-12638Y-14934D01*
X-12610Y-14941D01*
X-12578Y-14946D01*
X-12552Y-14948D01*
X-12449Y-14940D01*
X-12425Y-14936D01*
X-12404Y-14931D01*
X-12386Y-14925D01*
X-12370Y-14919D01*
X-12357Y-14912D01*
Y-15188D01*
X-12370Y-15181D01*
X-12386Y-15175D01*
X-12404Y-15169D01*
X-12425Y-15164D01*
X-12449Y-15160D01*
X-12505Y-15153D01*
X-12572Y-15150D01*
X-12585Y-15150D01*
X-12762Y-15152D01*
X-12701Y-14850D01*
X-12703Y-14869D01*
D02*
G37*
G36*
X3381Y-15151D02*
X3364Y-15157D01*
X3349Y-15167D01*
X3336Y-15181D01*
X3325Y-15200D01*
X3316Y-15222D01*
X3309Y-15248D01*
X3304Y-15279D01*
X3301Y-15313D01*
X3300Y-15352D01*
X3100D01*
X3099Y-15313D01*
X3096Y-15279D01*
X3091Y-15248D01*
X3084Y-15222D01*
X3075Y-15200D01*
X3064Y-15181D01*
X3051Y-15167D01*
X3036Y-15157D01*
X3019Y-15151D01*
X3000Y-15149D01*
X3400D01*
X3381Y-15151D01*
D02*
G37*
G36*
X-2731Y-15337D02*
X-2744Y-15351D01*
X-2756Y-15366D01*
X-2767Y-15381D01*
X-2776Y-15396D01*
X-2783Y-15412D01*
X-2789Y-15429D01*
X-2794Y-15445D01*
X-2798Y-15462D01*
X-2799Y-15480D01*
X-2800Y-15498D01*
X-2998Y-15300D01*
X-2980Y-15300D01*
X-2962Y-15298D01*
X-2945Y-15294D01*
X-2929Y-15289D01*
X-2912Y-15283D01*
X-2896Y-15276D01*
X-2881Y-15267D01*
X-2866Y-15256D01*
X-2851Y-15244D01*
X-2837Y-15231D01*
X-2731Y-15337D01*
D02*
G37*
G36*
X4367Y-15143D02*
X4353Y-15161D01*
X4341Y-15185D01*
X4330Y-15217D01*
X4321Y-15255D01*
X4313Y-15300D01*
X4307Y-15353D01*
X4301Y-15478D01*
X4300Y-15552D01*
X3900D01*
X3899Y-15478D01*
X3887Y-15300D01*
X3879Y-15255D01*
X3870Y-15217D01*
X3859Y-15185D01*
X3847Y-15161D01*
X3833Y-15143D01*
X3817Y-15133D01*
X4383D01*
X4367Y-15143D01*
D02*
G37*
G36*
X-11323Y-15424D02*
X-11304Y-15434D01*
X-11283Y-15444D01*
X-11262Y-15452D01*
X-11240Y-15459D01*
X-11218Y-15465D01*
X-11195Y-15469D01*
X-11172Y-15472D01*
X-11148Y-15474D01*
X-11123Y-15475D01*
Y-15625D01*
X-11148Y-15626D01*
X-11172Y-15628D01*
X-11195Y-15631D01*
X-11218Y-15635D01*
X-11240Y-15641D01*
X-11262Y-15648D01*
X-11283Y-15656D01*
X-11304Y-15666D01*
X-11323Y-15676D01*
X-11343Y-15688D01*
Y-15412D01*
X-11323Y-15424D01*
D02*
G37*
G36*
X9222Y-15299D02*
X9196Y-15308D01*
X9174Y-15323D01*
X9154Y-15344D01*
X9137Y-15372D01*
X9124Y-15405D01*
X9113Y-15444D01*
X9106Y-15490D01*
X9105Y-15500D01*
X9106Y-15510D01*
X9113Y-15556D01*
X9124Y-15595D01*
X9137Y-15628D01*
X9154Y-15656D01*
X9174Y-15677D01*
X9196Y-15692D01*
X9222Y-15701D01*
X9250Y-15704D01*
X8650D01*
X8679Y-15701D01*
X8704Y-15692D01*
X8726Y-15677D01*
X8746Y-15656D01*
X8762Y-15628D01*
X8776Y-15595D01*
X8786Y-15556D01*
X8794Y-15510D01*
X8795Y-15500D01*
X8794Y-15490D01*
X8786Y-15444D01*
X8776Y-15405D01*
X8762Y-15372D01*
X8746Y-15344D01*
X8726Y-15323D01*
X8704Y-15308D01*
X8679Y-15299D01*
X8650Y-15296D01*
X9250D01*
X9222Y-15299D01*
D02*
G37*
G36*
X726Y-16048D02*
X707Y-16051D01*
X689Y-16055D01*
X672Y-16060D01*
X655Y-16066D01*
X639Y-16073D01*
X624Y-16080D01*
X610Y-16089D01*
X596Y-16099D01*
X583Y-16109D01*
X571Y-16121D01*
X490Y-16040D01*
X512Y-16152D01*
X509Y-16152D01*
X500Y-16151D01*
X370Y-16151D01*
X249Y-16160D01*
X225Y-16164D01*
X204Y-16169D01*
X186Y-16175D01*
X170Y-16181D01*
X157Y-16188D01*
Y-15912D01*
X170Y-15919D01*
X186Y-15925D01*
X204Y-15931D01*
X225Y-15936D01*
X249Y-15940D01*
X305Y-15947D01*
X315Y-15947D01*
X328Y-15946D01*
X360Y-15941D01*
X388Y-15934D01*
X411Y-15925D01*
X428Y-15914D01*
X441Y-15901D01*
X450Y-15886D01*
X453Y-15869D01*
X451Y-15850D01*
X467Y-15929D01*
X470Y-15926D01*
X477Y-15911D01*
X484Y-15895D01*
X490Y-15878D01*
X495Y-15861D01*
X499Y-15843D01*
X502Y-15824D01*
X726Y-16048D01*
D02*
G37*
G36*
X947Y-15612D02*
X955Y-15620D01*
X968Y-15627D01*
X985Y-15633D01*
X1008Y-15638D01*
X1036Y-15643D01*
X1108Y-15648D01*
X1200Y-15650D01*
Y-16050D01*
X1151Y-16051D01*
X1008Y-16062D01*
X985Y-16067D01*
X968Y-16073D01*
X955Y-16080D01*
X947Y-16088D01*
X945Y-16097D01*
Y-15603D01*
X947Y-15612D01*
D02*
G37*
G36*
X8504Y-16400D02*
X8501Y-16372D01*
X8492Y-16346D01*
X8477Y-16323D01*
X8456Y-16304D01*
X8428Y-16288D01*
X8395Y-16274D01*
X8356Y-16264D01*
X8310Y-16256D01*
X8259Y-16251D01*
X8201Y-16250D01*
Y-15950D01*
X8259Y-15949D01*
X8310Y-15944D01*
X8356Y-15937D01*
X8395Y-15926D01*
X8428Y-15913D01*
X8456Y-15896D01*
X8477Y-15877D01*
X8492Y-15854D01*
X8501Y-15829D01*
X8504Y-15801D01*
X8504Y-16400D01*
D02*
G37*
G36*
X841Y-16500D02*
X876Y-16676D01*
X933Y-16761D01*
Y-16667D01*
X951Y-16702D01*
X974Y-16733D01*
X1003Y-16760D01*
X1036Y-16784D01*
X1076Y-16804D01*
X1120Y-16821D01*
X1170Y-16833D01*
X1225Y-16843D01*
X1286Y-16848D01*
X1352Y-16850D01*
X1337Y-16952D01*
X1476Y-16924D01*
X1624Y-16824D01*
X1680Y-16742D01*
X1966Y-16665D01*
X2023Y-16663D01*
X2169Y-16775D01*
Y-17700D01*
X2194Y-17827D01*
X2135Y-17950D01*
X1879Y-18139D01*
X1750Y-18114D01*
X1750Y-18114D01*
X1201D01*
X1185Y-18117D01*
X1168Y-18123D01*
X1155Y-18130D01*
X1147Y-18138D01*
X1145Y-18147D01*
Y-18114D01*
X406D01*
Y-17663D01*
X382Y-17541D01*
X313Y-17437D01*
X378Y-17345D01*
X388Y-17338D01*
X477Y-17206D01*
X508Y-17050D01*
X485Y-16933D01*
X451Y-16981D01*
X460Y-16963D01*
X464Y-16944D01*
X462Y-16921D01*
X455Y-16897D01*
X444Y-16869D01*
X427Y-16840D01*
X404Y-16808D01*
X377Y-16774D01*
X307Y-16698D01*
X398Y-16507D01*
X441Y-16548D01*
X462Y-16462D01*
X512Y-16406D01*
X841D01*
Y-16500D01*
D02*
G37*
G36*
X-13854Y-14292D02*
X-13775Y-14307D01*
X-13692D01*
X-13535Y-14586D01*
X-13535Y-14607D01*
X-13556Y-14713D01*
Y-15088D01*
X-13532Y-15209D01*
X-13463Y-15313D01*
X-13359Y-15382D01*
X-13238Y-15406D01*
X-12985D01*
X-12725Y-15541D01*
X-12679Y-15694D01*
X-12677Y-15706D01*
X-12675Y-15709D01*
X-12637Y-15834D01*
X-12677Y-15894D01*
X-12708Y-16050D01*
X-12677Y-16206D01*
X-12588Y-16338D01*
X-12521Y-16383D01*
X-12507Y-16445D01*
X-12449Y-16440D01*
X-12425Y-16436D01*
X-12404Y-16431D01*
X-12386Y-16425D01*
X-12370Y-16419D01*
X-12357Y-16412D01*
Y-16688D01*
X-12370Y-16681D01*
X-12386Y-16675D01*
X-12404Y-16669D01*
X-12425Y-16664D01*
X-12449Y-16660D01*
X-12505Y-16653D01*
X-12507Y-16653D01*
X-12521Y-16717D01*
X-12588Y-16762D01*
X-12677Y-16894D01*
X-12708Y-17050D01*
X-12699Y-17094D01*
X-12875Y-17270D01*
X-12900Y-17294D01*
X-13187D01*
X-13309Y-17318D01*
X-13413Y-17387D01*
X-13482Y-17491D01*
X-13506Y-17612D01*
Y-18087D01*
X-13482Y-18209D01*
X-13413Y-18313D01*
X-13309Y-18382D01*
X-13187Y-18406D01*
X-12812D01*
X-12691Y-18382D01*
X-12587Y-18313D01*
X-12582Y-18305D01*
X-12424Y-18274D01*
X-12276Y-18174D01*
X-12176Y-18026D01*
X-12141Y-17850D01*
X-12170Y-17707D01*
X-12063Y-17561D01*
X-11960Y-17458D01*
X-11400D01*
X-11257Y-17429D01*
X-11242Y-17428D01*
X-10957Y-17596D01*
Y-18152D01*
X-11602Y-18798D01*
X-11650Y-18868D01*
X-11656D01*
X-11790Y-18895D01*
X-11904Y-18971D01*
X-11980Y-19085D01*
X-12007Y-19219D01*
Y-19781D01*
X-11980Y-19915D01*
X-11904Y-20029D01*
X-11790Y-20105D01*
X-11656Y-20132D01*
X-11044D01*
X-11002Y-20123D01*
X-10924Y-20176D01*
X-10824Y-20324D01*
X-10674Y-20474D01*
X-10526Y-20574D01*
X-10426Y-20594D01*
X-10413Y-20613D01*
X-10309Y-20682D01*
X-10188Y-20706D01*
X-9813D01*
X-9760Y-20696D01*
X-9674Y-20824D01*
X-9526Y-20924D01*
X-9350Y-20959D01*
X-9174Y-20924D01*
X-9026Y-20824D01*
X-8952Y-20714D01*
X-8952Y-20713D01*
X-8952Y-20714D01*
X-8926Y-20676D01*
X-8920Y-20645D01*
X-8850Y-20659D01*
X-8674Y-20624D01*
X-8536Y-20532D01*
X-8474Y-20624D01*
X-8326Y-20724D01*
X-8150Y-20759D01*
X-8106Y-20795D01*
Y-21087D01*
X-8082Y-21209D01*
X-8027Y-21350D01*
X-8082Y-21491D01*
X-8106Y-21612D01*
Y-21987D01*
X-8082Y-22109D01*
X-8013Y-22237D01*
X-8082Y-22341D01*
X-8106Y-22462D01*
Y-22938D01*
X-8082Y-23059D01*
X-8013Y-23163D01*
X-7909Y-23232D01*
X-7788Y-23256D01*
X-7413D01*
X-7291Y-23232D01*
X-7150Y-23177D01*
X-7009Y-23232D01*
X-6887Y-23256D01*
X-6512D01*
X-6391Y-23232D01*
X-6287Y-23163D01*
X-6113D01*
X-6009Y-23232D01*
X-5888Y-23256D01*
X-5513D01*
X-5391Y-23232D01*
X-5287Y-23163D01*
X-5218Y-23059D01*
X-5218Y-23057D01*
X-4448D01*
X-3652Y-23852D01*
X-3537Y-23930D01*
X-3400Y-23957D01*
X-329D01*
X-254Y-24045D01*
X-139Y-24257D01*
X-158Y-24350D01*
Y-25250D01*
X-127Y-25406D01*
X-38Y-25538D01*
X94Y-25627D01*
X250Y-25658D01*
X532D01*
X560Y-25700D01*
X400Y-26000D01*
X-8900D01*
Y-26200D01*
X-9700D01*
Y-26000D01*
X-12375D01*
X-12641Y-25800D01*
Y-25400D01*
X-12676Y-25224D01*
X-12776Y-25076D01*
X-12924Y-24976D01*
X-13100Y-24941D01*
X-13250D01*
X-13279Y-24922D01*
X-13425Y-24893D01*
X-14175D01*
X-14190Y-24896D01*
X-14457Y-24723D01*
X-14490Y-24674D01*
X-14490Y-19907D01*
X-14324Y-19874D01*
X-14176Y-19774D01*
X-14176Y-19774D01*
X-14076Y-19674D01*
X-13976Y-19526D01*
X-13941Y-19350D01*
Y-18550D01*
X-13976Y-18374D01*
X-14016Y-18315D01*
X-13976Y-18256D01*
X-13941Y-18080D01*
Y-17280D01*
X-13976Y-17104D01*
X-14076Y-16956D01*
X-14158Y-16873D01*
X-14145Y-16810D01*
Y-16010D01*
X-14165Y-15912D01*
X-14204Y-15775D01*
X-14165Y-15638D01*
X-14145Y-15540D01*
Y-14740D01*
X-14165Y-14642D01*
X-14204Y-14505D01*
X-14178Y-14413D01*
X-14080Y-14336D01*
X-13940Y-14285D01*
X-13854Y-14292D01*
D02*
G37*
G36*
X-3249Y-16544D02*
X-3234Y-16556D01*
X-3219Y-16567D01*
X-3204Y-16576D01*
X-3188Y-16583D01*
X-3171Y-16589D01*
X-3155Y-16594D01*
X-3138Y-16598D01*
X-3120Y-16600D01*
X-3102Y-16600D01*
X-3300Y-16798D01*
X-3301Y-16780D01*
X-3302Y-16762D01*
X-3306Y-16745D01*
X-3311Y-16729D01*
X-3317Y-16712D01*
X-3324Y-16696D01*
X-3333Y-16681D01*
X-3344Y-16666D01*
X-3356Y-16651D01*
X-3369Y-16637D01*
X-3263Y-16531D01*
X-3249Y-16544D01*
D02*
G37*
G36*
X-1300Y-16928D02*
X-1296Y-16967D01*
X-1294Y-16984D01*
X-1290Y-17000D01*
X-1286Y-17014D01*
X-1280Y-17027D01*
X-1274Y-17039D01*
X-1268Y-17049D01*
X-1260Y-17057D01*
X-1540D01*
X-1532Y-17049D01*
X-1526Y-17039D01*
X-1520Y-17027D01*
X-1514Y-17014D01*
X-1510Y-17000D01*
X-1506Y-16984D01*
X-1504Y-16967D01*
X-1502Y-16948D01*
X-1500Y-16907D01*
X-1300D01*
X-1300Y-16928D01*
D02*
G37*
G36*
X-12017Y-17197D02*
X-12039Y-17192D01*
X-12062Y-17192D01*
X-12087Y-17196D01*
X-12113Y-17204D01*
X-12141Y-17216D01*
X-12170Y-17233D01*
X-12200Y-17254D01*
X-12232Y-17279D01*
X-12265Y-17308D01*
X-12300Y-17341D01*
X-12542Y-17301D01*
X-12505Y-17262D01*
X-12448Y-17194D01*
X-12429Y-17165D01*
X-12416Y-17139D01*
X-12409Y-17117D01*
X-12408Y-17099D01*
X-12414Y-17084D01*
X-12426Y-17072D01*
X-12444Y-17063D01*
X-12017Y-17197D01*
D02*
G37*
G36*
X-169Y-17199D02*
X-186Y-17205D01*
X-201Y-17215D01*
X-214Y-17229D01*
X-225Y-17248D01*
X-234Y-17270D01*
X-241Y-17296D01*
X-246Y-17327D01*
X-249Y-17361D01*
X-250Y-17400D01*
X-450D01*
X-451Y-17361D01*
X-454Y-17327D01*
X-459Y-17296D01*
X-466Y-17270D01*
X-475Y-17248D01*
X-486Y-17229D01*
X-499Y-17215D01*
X-514Y-17205D01*
X-531Y-17199D01*
X-550Y-17197D01*
X-150D01*
X-169Y-17199D01*
D02*
G37*
G36*
X6860Y-17355D02*
X6830Y-17391D01*
X6808Y-17423D01*
X6795Y-17451D01*
X6791Y-17475D01*
X6795Y-17494D01*
X6808Y-17509D01*
X6830Y-17520D01*
X6860Y-17527D01*
X6898Y-17529D01*
X6050D01*
X6092Y-17527D01*
X6134Y-17520D01*
X6176Y-17509D01*
X6218Y-17494D01*
X6261Y-17475D01*
X6303Y-17451D01*
X6346Y-17423D01*
X6388Y-17391D01*
X6431Y-17355D01*
X6474Y-17314D01*
X6898D01*
X6860Y-17355D01*
D02*
G37*
G36*
X-12607Y-17648D02*
X-12642Y-17685D01*
X-12699Y-17753D01*
X-12720Y-17784D01*
X-12737Y-17813D01*
X-12749Y-17841D01*
X-12757Y-17866D01*
X-12760Y-17890D01*
X-12758Y-17911D01*
X-12751Y-17931D01*
X-12931Y-17551D01*
X-12920Y-17567D01*
X-12906Y-17576D01*
X-12887Y-17578D01*
X-12865Y-17574D01*
X-12840Y-17564D01*
X-12810Y-17547D01*
X-12777Y-17523D01*
X-12740Y-17493D01*
X-12655Y-17413D01*
X-12607Y-17648D01*
D02*
G37*
G36*
X-8198Y-17315D02*
X-8196Y-17327D01*
X-8192Y-17339D01*
X-8186Y-17352D01*
X-8179Y-17365D01*
X-8171Y-17379D01*
X-8161Y-17393D01*
X-8149Y-17408D01*
X-8121Y-17438D01*
X-8262Y-17579D01*
X-8277Y-17565D01*
X-8307Y-17539D01*
X-8321Y-17529D01*
X-8335Y-17521D01*
X-8348Y-17514D01*
X-8361Y-17508D01*
X-8373Y-17504D01*
X-8385Y-17502D01*
X-8397Y-17501D01*
X-8199Y-17303D01*
X-8198Y-17315D01*
D02*
G37*
G36*
X-5831Y-16128D02*
X-5824Y-16176D01*
X-5924Y-16324D01*
X-5959Y-16500D01*
X-5924Y-16676D01*
X-5824Y-16824D01*
X-5676Y-16924D01*
X-5621Y-17026D01*
X-5650Y-17095D01*
X-5683Y-17350D01*
X-5681D01*
Y-17920D01*
X-5840Y-18176D01*
X-6142Y-18258D01*
X-6194Y-18223D01*
X-6350Y-18192D01*
X-6479Y-18218D01*
X-6598Y-18147D01*
X-6734Y-18032D01*
X-6741Y-18000D01*
X-6776Y-17824D01*
X-6876Y-17676D01*
Y-17624D01*
X-6776Y-17476D01*
X-6741Y-17300D01*
X-6776Y-17124D01*
X-6876Y-16976D01*
X-7024Y-16876D01*
X-7200Y-16841D01*
X-7376Y-16876D01*
X-7524Y-16976D01*
X-7624Y-17124D01*
X-7906Y-17167D01*
X-7975Y-17126D01*
X-8074Y-16977D01*
X-8223Y-16878D01*
X-8399Y-16843D01*
X-8574Y-16878D01*
X-8723Y-16977D01*
X-8822Y-17126D01*
X-8857Y-17301D01*
X-8822Y-17477D01*
X-8723Y-17626D01*
X-8574Y-17725D01*
X-8456Y-17749D01*
X-8363Y-17842D01*
X-8447Y-18141D01*
X-8694Y-18223D01*
X-8850Y-18192D01*
X-9006Y-18223D01*
X-9100Y-18286D01*
X-9194Y-18223D01*
X-9350Y-18192D01*
X-9506Y-18223D01*
X-9600Y-18286D01*
X-9694Y-18223D01*
X-9850Y-18192D01*
X-9943Y-18211D01*
X-10155Y-18096D01*
X-10243Y-18021D01*
Y-16600D01*
X-10270Y-16463D01*
X-10348Y-16348D01*
X-10537Y-16159D01*
X-10422Y-15881D01*
X-6050D01*
X-5831Y-16128D01*
D02*
G37*
G36*
X-2774Y-18348D02*
X-2772Y-18372D01*
X-2769Y-18395D01*
X-2765Y-18418D01*
X-2759Y-18440D01*
X-2752Y-18462D01*
X-2744Y-18483D01*
X-2734Y-18504D01*
X-2724Y-18523D01*
X-2712Y-18543D01*
X-2988D01*
X-2976Y-18523D01*
X-2966Y-18504D01*
X-2956Y-18483D01*
X-2948Y-18462D01*
X-2941Y-18440D01*
X-2935Y-18418D01*
X-2931Y-18395D01*
X-2928Y-18372D01*
X-2926Y-18348D01*
X-2925Y-18323D01*
X-2775D01*
X-2774Y-18348D01*
D02*
G37*
G36*
X-5274D02*
X-5272Y-18372D01*
X-5269Y-18395D01*
X-5265Y-18418D01*
X-5259Y-18440D01*
X-5252Y-18462D01*
X-5244Y-18483D01*
X-5234Y-18504D01*
X-5224Y-18523D01*
X-5212Y-18543D01*
X-5488D01*
X-5476Y-18523D01*
X-5466Y-18504D01*
X-5456Y-18483D01*
X-5448Y-18462D01*
X-5441Y-18440D01*
X-5435Y-18418D01*
X-5431Y-18395D01*
X-5428Y-18372D01*
X-5426Y-18348D01*
X-5425Y-18323D01*
X-5275D01*
X-5274Y-18348D01*
D02*
G37*
G36*
X-7250Y-18328D02*
X-7240Y-18451D01*
X-7236Y-18475D01*
X-7231Y-18496D01*
X-7225Y-18514D01*
X-7219Y-18530D01*
X-7212Y-18543D01*
X-7488D01*
X-7481Y-18530D01*
X-7475Y-18514D01*
X-7469Y-18496D01*
X-7464Y-18475D01*
X-7460Y-18451D01*
X-7453Y-18395D01*
X-7450Y-18328D01*
X-7450Y-18290D01*
X-7250D01*
X-7250Y-18328D01*
D02*
G37*
G36*
X-7750D02*
X-7740Y-18451D01*
X-7736Y-18475D01*
X-7731Y-18496D01*
X-7725Y-18514D01*
X-7719Y-18530D01*
X-7712Y-18543D01*
X-7988D01*
X-7981Y-18530D01*
X-7975Y-18514D01*
X-7969Y-18496D01*
X-7964Y-18475D01*
X-7960Y-18451D01*
X-7953Y-18395D01*
X-7950Y-18328D01*
X-7950Y-18290D01*
X-7750D01*
X-7750Y-18328D01*
D02*
G37*
G36*
X-4769Y-18344D02*
X-4765Y-18395D01*
X-4761Y-18419D01*
X-4755Y-18442D01*
X-4749Y-18465D01*
X-4741Y-18486D01*
X-4733Y-18506D01*
X-4723Y-18525D01*
X-4712Y-18543D01*
X-4988D01*
X-4977Y-18525D01*
X-4967Y-18506D01*
X-4959Y-18486D01*
X-4951Y-18465D01*
X-4945Y-18442D01*
X-4939Y-18419D01*
X-4935Y-18395D01*
X-4931Y-18344D01*
X-4930Y-18317D01*
X-4770D01*
X-4769Y-18344D01*
D02*
G37*
G36*
X1151Y-18819D02*
X1157Y-18836D01*
X1167Y-18851D01*
X1181Y-18864D01*
X1200Y-18875D01*
X1220Y-18883D01*
X1227Y-18880D01*
X1239Y-18874D01*
X1249Y-18868D01*
X1257Y-18860D01*
Y-18892D01*
X1279Y-18896D01*
X1313Y-18899D01*
X1352Y-18900D01*
Y-19100D01*
X1313Y-19101D01*
X1279Y-19104D01*
X1257Y-19108D01*
Y-19140D01*
X1249Y-19132D01*
X1239Y-19126D01*
X1227Y-19120D01*
X1220Y-19117D01*
X1200Y-19125D01*
X1181Y-19136D01*
X1167Y-19149D01*
X1157Y-19164D01*
X1151Y-19181D01*
X1149Y-19200D01*
Y-19102D01*
X1148Y-19102D01*
X1107Y-19100D01*
X1107Y-18900D01*
X1128Y-18900D01*
X1149Y-18898D01*
Y-18800D01*
X1151Y-18819D01*
D02*
G37*
G36*
X-349Y-19160D02*
X-350Y-19145D01*
X-355Y-19131D01*
X-363Y-19119D01*
X-375Y-19109D01*
X-390Y-19100D01*
X-407Y-19093D01*
X-429Y-19087D01*
X-453Y-19083D01*
X-481Y-19081D01*
X-512Y-19080D01*
Y-18920D01*
X-481Y-18919D01*
X-453Y-18917D01*
X-429Y-18913D01*
X-407Y-18907D01*
X-390Y-18900D01*
X-375Y-18891D01*
X-363Y-18881D01*
X-355Y-18869D01*
X-350Y-18855D01*
X-349Y-18840D01*
Y-19160D01*
D02*
G37*
G36*
X-6756Y-19609D02*
X-6760Y-19613D01*
X-6764Y-19620D01*
X-6767Y-19630D01*
X-6769Y-19643D01*
X-6771Y-19659D01*
X-6774Y-19699D01*
X-6775Y-19750D01*
X-6925D01*
X-6925Y-19723D01*
X-6931Y-19643D01*
X-6933Y-19630D01*
X-6937Y-19620D01*
X-6940Y-19613D01*
X-6944Y-19609D01*
X-6948Y-19607D01*
X-6752D01*
X-6756Y-19609D01*
D02*
G37*
G36*
X-3237Y-19571D02*
X-3248Y-19578D01*
X-3254Y-19588D01*
X-3256Y-19600D01*
X-3252Y-19615D01*
X-3244Y-19633D01*
X-3231Y-19653D01*
X-3214Y-19676D01*
X-3191Y-19701D01*
X-3164Y-19730D01*
X-3297Y-19809D01*
X-3311Y-19794D01*
X-3356Y-19743D01*
X-3388Y-19702D01*
X-3456Y-19606D01*
X-3222Y-19567D01*
X-3237Y-19571D01*
D02*
G37*
G36*
X-8219Y-19570D02*
X-8225Y-19586D01*
X-8231Y-19604D01*
X-8236Y-19625D01*
X-8240Y-19649D01*
X-8247Y-19705D01*
X-8250Y-19772D01*
X-8250Y-19810D01*
X-8450D01*
X-8450Y-19772D01*
X-8460Y-19649D01*
X-8464Y-19625D01*
X-8469Y-19604D01*
X-8475Y-19586D01*
X-8481Y-19570D01*
X-8488Y-19557D01*
X-8212D01*
X-8219Y-19570D01*
D02*
G37*
G36*
X-8719D02*
X-8725Y-19586D01*
X-8731Y-19604D01*
X-8736Y-19625D01*
X-8740Y-19649D01*
X-8747Y-19705D01*
X-8750Y-19772D01*
X-8750Y-19810D01*
X-8950D01*
X-8950Y-19772D01*
X-8960Y-19649D01*
X-8964Y-19625D01*
X-8969Y-19604D01*
X-8975Y-19586D01*
X-8981Y-19570D01*
X-8988Y-19557D01*
X-8712D01*
X-8719Y-19570D01*
D02*
G37*
G36*
X-9219D02*
X-9225Y-19586D01*
X-9231Y-19604D01*
X-9236Y-19625D01*
X-9240Y-19649D01*
X-9247Y-19705D01*
X-9250Y-19772D01*
X-9250Y-19810D01*
X-9450D01*
X-9450Y-19772D01*
X-9460Y-19649D01*
X-9464Y-19625D01*
X-9469Y-19604D01*
X-9475Y-19586D01*
X-9481Y-19570D01*
X-9488Y-19557D01*
X-9212D01*
X-9219Y-19570D01*
D02*
G37*
G36*
X-9719D02*
X-9725Y-19586D01*
X-9731Y-19604D01*
X-9736Y-19625D01*
X-9740Y-19649D01*
X-9747Y-19705D01*
X-9749Y-19769D01*
X-9748Y-19913D01*
X-10050Y-19851D01*
X-10031Y-19853D01*
X-10014Y-19850D01*
X-9999Y-19841D01*
X-9986Y-19828D01*
X-9975Y-19811D01*
X-9966Y-19788D01*
X-9959Y-19760D01*
X-9954Y-19728D01*
X-9954Y-19726D01*
X-9960Y-19649D01*
X-9964Y-19625D01*
X-9969Y-19604D01*
X-9975Y-19586D01*
X-9981Y-19570D01*
X-9988Y-19557D01*
X-9712D01*
X-9719Y-19570D01*
D02*
G37*
G36*
X-6224Y-19577D02*
X-6234Y-19597D01*
X-6244Y-19617D01*
X-6252Y-19638D01*
X-6259Y-19660D01*
X-6265Y-19682D01*
X-6269Y-19705D01*
X-6272Y-19728D01*
X-6274Y-19748D01*
X-6271Y-19780D01*
X-6268Y-19798D01*
X-6263Y-19815D01*
X-6258Y-19832D01*
X-6252Y-19849D01*
X-6245Y-19865D01*
X-6238Y-19881D01*
X-6229Y-19897D01*
X-6500Y-19827D01*
X-6486Y-19817D01*
X-6473Y-19807D01*
X-6462Y-19796D01*
X-6452Y-19783D01*
X-6444Y-19769D01*
X-6437Y-19754D01*
X-6432Y-19737D01*
X-6428Y-19722D01*
X-6431Y-19705D01*
X-6435Y-19682D01*
X-6441Y-19660D01*
X-6448Y-19638D01*
X-6456Y-19617D01*
X-6466Y-19597D01*
X-6476Y-19577D01*
X-6488Y-19557D01*
X-6212D01*
X-6224Y-19577D01*
D02*
G37*
G36*
X-4374Y-19865D02*
X-4424Y-19916D01*
X-4427Y-19919D01*
X-4517Y-20022D01*
X-4538Y-20052D01*
X-4556Y-20082D01*
X-4567Y-20109D01*
X-4572Y-20132D01*
X-4571Y-20152D01*
X-4564Y-20168D01*
X-4551Y-20181D01*
X-4616Y-20136D01*
X-4625Y-20145D01*
X-4639Y-20168D01*
X-4647Y-20186D01*
X-4650Y-20200D01*
X-4850Y-20000D01*
X-4836Y-19997D01*
X-4823Y-19991D01*
X-4881Y-19951D01*
X-4863Y-19960D01*
X-4844Y-19964D01*
X-4821Y-19962D01*
X-4797Y-19955D01*
X-4769Y-19944D01*
X-4740Y-19927D01*
X-4708Y-19904D01*
X-4689Y-19889D01*
X-4568Y-19776D01*
X-4515Y-19724D01*
X-4374Y-19865D01*
D02*
G37*
G36*
X-5681Y-19776D02*
X-5571Y-19872D01*
X-5539Y-19895D01*
X-5509Y-19914D01*
X-5482Y-19929D01*
X-5456Y-19940D01*
X-5433Y-19946D01*
X-5412Y-19948D01*
X-5920Y-19965D01*
X-5895Y-19963D01*
X-5875Y-19958D01*
X-5862Y-19950D01*
X-5853Y-19940D01*
X-5851Y-19927D01*
X-5854Y-19911D01*
X-5862Y-19892D01*
X-5876Y-19871D01*
X-5896Y-19847D01*
X-5921Y-19821D01*
X-5723Y-19736D01*
X-5681Y-19776D01*
D02*
G37*
G36*
X-3719Y-19570D02*
X-3725Y-19586D01*
X-3731Y-19604D01*
X-3736Y-19625D01*
X-3740Y-19649D01*
X-3747Y-19705D01*
X-3749Y-19769D01*
X-3749Y-19787D01*
X-3746Y-19823D01*
X-3741Y-19853D01*
X-3734Y-19880D01*
X-3725Y-19902D01*
X-3714Y-19921D01*
X-3701Y-19935D01*
X-3686Y-19944D01*
X-3669Y-19950D01*
X-3650Y-19951D01*
X-4033Y-19967D01*
X-4017Y-19959D01*
X-4003Y-19947D01*
X-3991Y-19933D01*
X-3980Y-19915D01*
X-3971Y-19895D01*
X-3963Y-19872D01*
X-3957Y-19845D01*
X-3953Y-19816D01*
X-3951Y-19784D01*
X-3951Y-19770D01*
X-3960Y-19649D01*
X-3964Y-19625D01*
X-3969Y-19604D01*
X-3975Y-19586D01*
X-3981Y-19570D01*
X-3988Y-19557D01*
X-3712D01*
X-3719Y-19570D01*
D02*
G37*
G36*
X-3027Y-19866D02*
X-2981Y-19904D01*
X-2958Y-19919D01*
X-2937Y-19931D01*
X-2916Y-19941D01*
X-2896Y-19948D01*
X-2876Y-19952D01*
X-2858Y-19953D01*
X-2840Y-19951D01*
X-3198Y-20012D01*
X-3183Y-20008D01*
X-3172Y-20001D01*
X-3166Y-19991D01*
X-3165Y-19979D01*
X-3169Y-19964D01*
X-3177Y-19946D01*
X-3190Y-19925D01*
X-3208Y-19902D01*
X-3231Y-19877D01*
X-3258Y-19848D01*
X-3052Y-19842D01*
X-3027Y-19866D01*
D02*
G37*
G36*
X-8750Y-19928D02*
X-8746Y-19967D01*
X-8744Y-19984D01*
X-8740Y-20000D01*
X-8736Y-20014D01*
X-8730Y-20027D01*
X-8724Y-20039D01*
X-8718Y-20049D01*
X-8710Y-20057D01*
X-8990D01*
X-8982Y-20049D01*
X-8976Y-20039D01*
X-8970Y-20027D01*
X-8964Y-20014D01*
X-8960Y-20000D01*
X-8956Y-19984D01*
X-8954Y-19967D01*
X-8952Y-19948D01*
X-8950Y-19907D01*
X-8750D01*
X-8750Y-19928D01*
D02*
G37*
G36*
X-9779Y-20071D02*
X-9782Y-20075D01*
X-9785Y-20080D01*
X-9788Y-20086D01*
X-9791Y-20093D01*
X-9793Y-20102D01*
X-9795Y-20112D01*
X-9798Y-20135D01*
X-9800Y-20162D01*
X-10012Y-19950D01*
X-9998Y-19949D01*
X-9962Y-19945D01*
X-9952Y-19943D01*
X-9943Y-19941D01*
X-9936Y-19938D01*
X-9930Y-19935D01*
X-9925Y-19932D01*
X-9921Y-19929D01*
X-9779Y-20071D01*
D02*
G37*
G36*
X-6268Y-20151D02*
X-6274Y-20161D01*
X-6280Y-20173D01*
X-6286Y-20186D01*
X-6290Y-20200D01*
X-6294Y-20216D01*
X-6296Y-20233D01*
X-6298Y-20252D01*
X-6300Y-20293D01*
X-6500D01*
X-6500Y-20272D01*
X-6504Y-20233D01*
X-6506Y-20216D01*
X-6510Y-20200D01*
X-6514Y-20186D01*
X-6520Y-20173D01*
X-6526Y-20161D01*
X-6532Y-20151D01*
X-6540Y-20143D01*
X-6260D01*
X-6268Y-20151D01*
D02*
G37*
G36*
X-9250Y-20228D02*
X-9246Y-20267D01*
X-9244Y-20284D01*
X-9240Y-20300D01*
X-9236Y-20314D01*
X-9230Y-20327D01*
X-9224Y-20339D01*
X-9218Y-20349D01*
X-9210Y-20357D01*
X-9490Y-20357D01*
X-9482Y-20349D01*
X-9476Y-20339D01*
X-9470Y-20327D01*
X-9464Y-20314D01*
X-9460Y-20300D01*
X-9456Y-20284D01*
X-9454Y-20267D01*
X-9452Y-20248D01*
X-9450Y-20207D01*
X-9250Y-20207D01*
X-9250Y-20228D01*
D02*
G37*
G36*
X-7193Y-20199D02*
X-7232Y-20239D01*
X-7324Y-20343D01*
X-7326Y-20346D01*
X-7333Y-20362D01*
X-7339Y-20379D01*
X-7344Y-20395D01*
X-7348Y-20412D01*
X-7349Y-20430D01*
X-7350Y-20448D01*
X-7384Y-20414D01*
X-7392Y-20426D01*
X-7398Y-20440D01*
X-7400Y-20450D01*
X-7400Y-20450D01*
X-7400Y-20488D01*
X-7392Y-20579D01*
X-7388Y-20601D01*
X-7383Y-20619D01*
X-7376Y-20633D01*
X-7369Y-20643D01*
X-7361Y-20649D01*
X-7352Y-20651D01*
X-7748D01*
X-7739Y-20649D01*
X-7731Y-20643D01*
X-7724Y-20633D01*
X-7717Y-20619D01*
X-7712Y-20601D01*
X-7708Y-20579D01*
X-7704Y-20553D01*
X-7701Y-20488D01*
X-7700Y-20450D01*
X-7400D01*
X-7550Y-20300D01*
X-7540Y-20298D01*
X-7526Y-20292D01*
X-7514Y-20284D01*
X-7548Y-20250D01*
X-7530Y-20249D01*
X-7512Y-20248D01*
X-7495Y-20244D01*
X-7479Y-20239D01*
X-7462Y-20233D01*
X-7446Y-20226D01*
X-7431Y-20217D01*
X-7424Y-20212D01*
X-7339Y-20132D01*
X-7299Y-20093D01*
X-7193Y-20199D01*
D02*
G37*
G36*
X3376Y-20314D02*
X3378Y-20333D01*
X3381Y-20351D01*
X3385Y-20368D01*
X3391Y-20385D01*
X3398Y-20401D01*
X3407Y-20416D01*
X3417Y-20430D01*
X3428Y-20444D01*
X3440Y-20457D01*
X3160D01*
X3172Y-20444D01*
X3183Y-20430D01*
X3193Y-20416D01*
X3202Y-20401D01*
X3209Y-20385D01*
X3215Y-20368D01*
X3219Y-20351D01*
X3222Y-20333D01*
X3224Y-20314D01*
X3225Y-20295D01*
X3375D01*
X3376Y-20314D01*
D02*
G37*
G36*
X-4612Y-20447D02*
X-4620Y-20455D01*
X-4627Y-20468D01*
X-4633Y-20486D01*
X-4638Y-20509D01*
X-4642Y-20537D01*
X-4648Y-20608D01*
X-4650Y-20700D01*
X-5050D01*
X-5050Y-20652D01*
X-5062Y-20509D01*
X-5067Y-20486D01*
X-5073Y-20468D01*
X-5080Y-20455D01*
X-5088Y-20447D01*
X-5097Y-20445D01*
X-4603D01*
X-4612Y-20447D01*
D02*
G37*
G36*
X-3512Y-20447D02*
X-3520Y-20455D01*
X-3527Y-20468D01*
X-3533Y-20485D01*
X-3538Y-20508D01*
X-3543Y-20537D01*
X-3548Y-20608D01*
X-3550Y-20700D01*
X-3950D01*
X-3550Y-20758D01*
X-3561Y-21000D01*
X-3521Y-21000D01*
X-3204Y-20979D01*
X-3190Y-20973D01*
X-3183Y-20967D01*
Y-21000D01*
X-3148Y-21000D01*
Y-21400D01*
X-3183Y-21401D01*
Y-21433D01*
X-3190Y-21427D01*
X-3204Y-21421D01*
X-3226Y-21416D01*
X-3256Y-21412D01*
X-3302Y-21408D01*
X-3364Y-21418D01*
X-3418Y-21432D01*
X-3463Y-21450D01*
X-3498Y-21472D01*
X-3525Y-21498D01*
X-3543Y-21528D01*
X-3552Y-21562D01*
X-3551Y-21600D01*
X-3576Y-21400D01*
X-3593Y-21400D01*
X-3602Y-21401D01*
X-3638Y-21405D01*
X-3648Y-21407D01*
X-3657Y-21409D01*
X-3664Y-21412D01*
X-3670Y-21415D01*
X-3675Y-21418D01*
X-3679Y-21421D01*
X-3821Y-21279D01*
X-3818Y-21275D01*
X-3815Y-21270D01*
X-3812Y-21264D01*
X-3809Y-21257D01*
X-3807Y-21248D01*
X-3805Y-21238D01*
X-3802Y-21215D01*
X-3800Y-21188D01*
X-3597Y-21391D01*
Y-21355D01*
X-3597Y-21356D01*
X-3600Y-21363D01*
X-3601Y-21370D01*
X-3770Y-21201D01*
X-3763Y-21200D01*
X-3756Y-21197D01*
X-3748Y-21193D01*
X-3739Y-21188D01*
X-3731Y-21182D01*
X-3762Y-21150D01*
X-3748Y-21149D01*
X-3712Y-21145D01*
X-3702Y-21143D01*
X-3693Y-21141D01*
X-3686Y-21138D01*
X-3680Y-21135D01*
X-3675Y-21132D01*
X-3671Y-21129D01*
X-3600Y-21200D01*
X-3610Y-21117D01*
X-4033D01*
X-4017Y-21107D01*
X-4003Y-21089D01*
X-3991Y-21065D01*
X-3980Y-21034D01*
X-3971Y-20996D01*
X-3963Y-20950D01*
X-3957Y-20898D01*
X-3951Y-20773D01*
X-3950Y-20700D01*
X-3951Y-20651D01*
X-3962Y-20508D01*
X-3967Y-20485D01*
X-3973Y-20468D01*
X-3980Y-20455D01*
X-3988Y-20447D01*
X-3997Y-20445D01*
X-3503D01*
X-3512Y-20447D01*
D02*
G37*
G36*
X-1808Y-20983D02*
X-1793Y-20997D01*
X-1774Y-21009D01*
X-1749Y-21020D01*
X-1720Y-21029D01*
X-1686Y-21037D01*
X-1650Y-21042D01*
X-1614Y-21037D01*
X-1580Y-21029D01*
X-1551Y-21020D01*
X-1526Y-21009D01*
X-1507Y-20997D01*
X-1492Y-20983D01*
X-1483Y-20967D01*
Y-21433D01*
X-1492Y-21417D01*
X-1507Y-21403D01*
X-1526Y-21391D01*
X-1551Y-21380D01*
X-1580Y-21371D01*
X-1614Y-21363D01*
X-1650Y-21358D01*
X-1686Y-21363D01*
X-1720Y-21371D01*
X-1749Y-21380D01*
X-1774Y-21391D01*
X-1793Y-21403D01*
X-1808Y-21417D01*
X-1817Y-21433D01*
Y-20967D01*
X-1808Y-20983D01*
D02*
G37*
G36*
X-5697Y-21449D02*
X-5706Y-21446D01*
X-5717Y-21447D01*
X-5731Y-21452D01*
X-5748Y-21461D01*
X-5767Y-21474D01*
X-5789Y-21490D01*
X-5815Y-21513D01*
X-5817Y-21514D01*
X-5825Y-21528D01*
X-5832Y-21540D01*
X-5836Y-21552D01*
X-5838Y-21563D01*
X-5838Y-21574D01*
X-5836Y-21583D01*
X-5832Y-21592D01*
X-5886Y-21578D01*
X-5902Y-21593D01*
X-5949Y-21562D01*
X-6094Y-21524D01*
X-6061Y-21486D01*
X-6071Y-21479D01*
X-6041Y-21449D01*
X-5975Y-21374D01*
X-5960Y-21354D01*
X-5950Y-21337D01*
X-5944Y-21323D01*
X-5942Y-21312D01*
X-5943Y-21303D01*
X-5949Y-21297D01*
X-5697Y-21449D01*
D02*
G37*
G36*
X-1823Y-21438D02*
X-1829Y-21448D01*
X-1834Y-21463D01*
X-1838Y-21482D01*
X-1842Y-21507D01*
X-1847Y-21570D01*
X-1850Y-21700D01*
X-2150D01*
X-2151Y-21652D01*
X-2159Y-21570D01*
X-2166Y-21538D01*
X-2175Y-21510D01*
X-2185Y-21487D01*
X-2198Y-21470D01*
X-2213Y-21458D01*
X-2230Y-21451D01*
X-2248Y-21449D01*
X-1817Y-21433D01*
X-1823Y-21438D01*
D02*
G37*
G36*
X12873Y-20956D02*
X12881Y-20992D01*
X12894Y-21030D01*
X12914Y-21071D01*
X12939Y-21115D01*
X12971Y-21162D01*
X13009Y-21211D01*
X13102Y-21317D01*
X13157Y-21374D01*
X12959Y-21741D01*
X12936Y-21721D01*
X12916Y-21706D01*
X12899Y-21697D01*
X12883Y-21693D01*
X12870Y-21695D01*
X12859Y-21703D01*
X12850Y-21716D01*
X12843Y-21735D01*
X12838Y-21759D01*
X12836Y-21789D01*
X12871Y-20923D01*
X12873Y-20956D01*
D02*
G37*
G36*
X-3573Y-21689D02*
X-3579Y-21700D01*
X-3584Y-21717D01*
X-3588Y-21740D01*
X-3592Y-21768D01*
X-3597Y-21842D01*
X-3600Y-21997D01*
X-3900Y-22002D01*
X-3901Y-21951D01*
X-3905Y-21905D01*
X-3912Y-21862D01*
X-3921Y-21824D01*
X-3933Y-21790D01*
X-3948Y-21760D01*
X-3965Y-21735D01*
X-3985Y-21713D01*
X-4008Y-21696D01*
X-4033Y-21683D01*
X-3567D01*
X-3573Y-21689D01*
D02*
G37*
G36*
X-1438Y-19238D02*
X-1438Y-19238D01*
X-1329Y-19311D01*
X-1200Y-19336D01*
X-1200Y-19336D01*
X-586D01*
X-582Y-19359D01*
X-513Y-19463D01*
X-409Y-19532D01*
X-287Y-19556D01*
X88D01*
X209Y-19532D01*
X313Y-19463D01*
X487D01*
X591Y-19532D01*
X712Y-19556D01*
X1087D01*
X1209Y-19532D01*
X1313Y-19463D01*
X1325Y-19444D01*
X1400Y-19459D01*
X1576Y-19424D01*
X1724Y-19324D01*
X2032Y-19274D01*
X2264Y-19482D01*
Y-20900D01*
X2269Y-20928D01*
X2284Y-21038D01*
X2337Y-21167D01*
X2422Y-21278D01*
X2533Y-21363D01*
X2662Y-21416D01*
X2772Y-21431D01*
X2800Y-21436D01*
X3600D01*
X3628Y-21431D01*
X3738Y-21416D01*
X3867Y-21363D01*
X3978Y-21278D01*
X4063Y-21167D01*
X4116Y-21038D01*
X4131Y-20928D01*
X4136Y-20900D01*
Y-19999D01*
X4300Y-19856D01*
X4382Y-19845D01*
X4443Y-19866D01*
X4587Y-19977D01*
X4668Y-20076D01*
Y-20656D01*
X4696Y-20800D01*
X4778Y-20922D01*
X4900Y-21004D01*
X5044Y-21032D01*
X6072D01*
X6630Y-21591D01*
X6515Y-21868D01*
X5044D01*
X4900Y-21896D01*
X4778Y-21978D01*
X4696Y-22100D01*
X4668Y-22244D01*
Y-22956D01*
X4470Y-23228D01*
X4442Y-23243D01*
X3876D01*
X3759Y-23100D01*
X3724Y-22924D01*
X3624Y-22776D01*
X3476Y-22676D01*
X3300Y-22641D01*
X3124Y-22676D01*
X2976Y-22776D01*
X2876Y-22924D01*
X2841Y-23100D01*
X2724Y-23243D01*
X1576D01*
X1459Y-23100D01*
X1424Y-22924D01*
X1324Y-22776D01*
X1176Y-22676D01*
X1000Y-22641D01*
X824Y-22676D01*
X676Y-22776D01*
X576Y-22924D01*
X541Y-23100D01*
X424Y-23243D01*
X-3131D01*
X-3234Y-23108D01*
X-3085Y-22808D01*
X-1400D01*
X-1400Y-22808D01*
X-1244Y-22777D01*
X-1138Y-22706D01*
X-962D01*
X-841Y-22682D01*
X-737Y-22613D01*
X-668Y-22509D01*
X-644Y-22387D01*
Y-22012D01*
X-646Y-22002D01*
X-374Y-21832D01*
X-328Y-21868D01*
X-170Y-21933D01*
X0Y-21956D01*
X28Y-21952D01*
X36Y-21964D01*
X172Y-22068D01*
X330Y-22133D01*
X500Y-22156D01*
X670Y-22133D01*
X828Y-22068D01*
X964Y-21964D01*
X1068Y-21828D01*
X1133Y-21670D01*
X1156Y-21500D01*
X1133Y-21330D01*
X1068Y-21172D01*
X964Y-21036D01*
X828Y-20932D01*
X670Y-20867D01*
X500Y-20844D01*
X472Y-20848D01*
X464Y-20836D01*
X328Y-20732D01*
X170Y-20667D01*
X0Y-20644D01*
X-170Y-20667D01*
X-328Y-20732D01*
X-402Y-20789D01*
X-408Y-20792D01*
X-737Y-20787D01*
X-841Y-20718D01*
X-962Y-20694D01*
X-1331D01*
X-1401Y-20640D01*
X-1517Y-20491D01*
X-1548Y-20410D01*
X-1544Y-20388D01*
Y-20013D01*
X-1568Y-19891D01*
X-1637Y-19787D01*
X-1741Y-19718D01*
X-1810Y-19704D01*
X-1848Y-19648D01*
X-1951Y-19544D01*
X-1942Y-19500D01*
Y-19126D01*
X-1665Y-19011D01*
X-1438Y-19238D01*
D02*
G37*
G36*
X-7369Y-22051D02*
X-7386Y-22057D01*
X-7401Y-22067D01*
X-7414Y-22081D01*
X-7425Y-22100D01*
X-7434Y-22122D01*
X-7441Y-22148D01*
X-7446Y-22179D01*
X-7449Y-22213D01*
X-7449Y-22226D01*
X-7449Y-22234D01*
X-7447Y-22266D01*
X-7443Y-22295D01*
X-7437Y-22322D01*
X-7429Y-22345D01*
X-7420Y-22365D01*
X-7409Y-22383D01*
X-7397Y-22397D01*
X-7383Y-22409D01*
X-7367Y-22417D01*
X-7750Y-22401D01*
X-7731Y-22400D01*
X-7714Y-22394D01*
X-7699Y-22385D01*
X-7686Y-22371D01*
X-7675Y-22353D01*
X-7666Y-22330D01*
X-7659Y-22303D01*
X-7654Y-22273D01*
X-7651Y-22237D01*
X-7651Y-22225D01*
X-7651Y-22213D01*
X-7654Y-22179D01*
X-7659Y-22148D01*
X-7666Y-22122D01*
X-7675Y-22100D01*
X-7686Y-22081D01*
X-7699Y-22067D01*
X-7714Y-22057D01*
X-7731Y-22051D01*
X-7750Y-22049D01*
X-7350D01*
X-7369Y-22051D01*
D02*
G37*
G36*
X-1438Y-22452D02*
X-1398Y-22470D01*
X-1376Y-22487D01*
X-1370Y-22502D01*
X-1381Y-22515D01*
X-1409Y-22525D01*
X-1453Y-22534D01*
X-1514Y-22541D01*
X-1686Y-22549D01*
X-1797Y-22550D01*
X-1802Y-22250D01*
X-1740Y-22249D01*
X-1684Y-22244D01*
X-1636Y-22236D01*
X-1595Y-22226D01*
X-1561Y-22212D01*
X-1535Y-22196D01*
X-1515Y-22177D01*
X-1503Y-22154D01*
X-1497Y-22128D01*
X-1499Y-22100D01*
X-1438Y-22452D01*
D02*
G37*
G36*
X-6949Y-22900D02*
X-6951Y-22881D01*
X-6957Y-22864D01*
X-6967Y-22849D01*
X-6981Y-22836D01*
X-7000Y-22825D01*
X-7022Y-22816D01*
X-7048Y-22809D01*
X-7079Y-22804D01*
X-7113Y-22801D01*
X-7150Y-22800D01*
X-7187Y-22801D01*
X-7221Y-22804D01*
X-7252Y-22809D01*
X-7278Y-22816D01*
X-7300Y-22825D01*
X-7319Y-22836D01*
X-7333Y-22849D01*
X-7343Y-22864D01*
X-7349Y-22881D01*
X-7351Y-22900D01*
Y-22500D01*
X-7349Y-22519D01*
X-7343Y-22536D01*
X-7333Y-22551D01*
X-7319Y-22564D01*
X-7300Y-22575D01*
X-7278Y-22584D01*
X-7252Y-22591D01*
X-7221Y-22596D01*
X-7187Y-22599D01*
X-7150Y-22600D01*
X-7113Y-22599D01*
X-7079Y-22596D01*
X-7048Y-22591D01*
X-7022Y-22584D01*
X-7000Y-22575D01*
X-6981Y-22564D01*
X-6967Y-22551D01*
X-6957Y-22536D01*
X-6951Y-22519D01*
X-6949Y-22500D01*
Y-22900D01*
D02*
G37*
G36*
X13000Y-18200D02*
X12800D01*
X12800Y-21700D01*
X12075Y-22425D01*
X12076Y-22460D01*
X12085Y-22567D01*
X12092Y-22613D01*
X12102Y-22652D01*
X12114Y-22687D01*
X12128Y-22715D01*
X12144Y-22738D01*
X12162Y-22755D01*
X12183Y-22767D01*
X11733D01*
X11700Y-22800D01*
X8200D01*
X6000Y-20600D01*
Y-20300D01*
X8800Y-17500D01*
X12500D01*
Y-17500D01*
X13000D01*
Y-18200D01*
D02*
G37*
G36*
X-5449Y-22519D02*
X-5443Y-22536D01*
X-5433Y-22551D01*
X-5419Y-22564D01*
X-5400Y-22575D01*
X-5378Y-22584D01*
X-5352Y-22591D01*
X-5321Y-22596D01*
X-5287Y-22599D01*
X-5248Y-22600D01*
Y-22800D01*
X-5287Y-22801D01*
X-5321Y-22804D01*
X-5352Y-22809D01*
X-5378Y-22816D01*
X-5400Y-22825D01*
X-5419Y-22836D01*
X-5433Y-22849D01*
X-5443Y-22864D01*
X-5449Y-22881D01*
X-5451Y-22900D01*
Y-22500D01*
X-5449Y-22519D01*
D02*
G37*
G36*
X6077Y-23071D02*
X6025Y-23073D01*
X5971Y-23081D01*
X5918Y-23095D01*
X5863Y-23115D01*
X5808Y-23141D01*
X5753Y-23172D01*
X5697Y-23210D01*
X5640Y-23253D01*
X5583Y-23302D01*
X5526Y-23357D01*
X5109Y-23209D01*
X5134Y-23180D01*
X5151Y-23155D01*
X5160Y-23133D01*
X5161Y-23113D01*
X5153Y-23096D01*
X5138Y-23083D01*
X5113Y-23072D01*
X5081Y-23064D01*
X5040Y-23059D01*
X4991Y-23057D01*
X6077Y-23071D01*
D02*
G37*
G36*
X8020Y-22980D02*
X8102Y-23035D01*
X8200Y-23055D01*
X8580D01*
X8704Y-23355D01*
X8469Y-23590D01*
X8324Y-23576D01*
X8176Y-23476D01*
X8000Y-23441D01*
X7824Y-23476D01*
X7676Y-23576D01*
X7576Y-23724D01*
X7541Y-23900D01*
X7576Y-24076D01*
X7676Y-24224D01*
X7809Y-24314D01*
X7771Y-24371D01*
X7743Y-24513D01*
Y-25487D01*
X7754Y-25541D01*
X7752Y-25653D01*
X7575Y-25876D01*
X7574Y-25876D01*
X7426Y-25976D01*
X7409Y-26000D01*
X5448D01*
X5419Y-25700D01*
X5509Y-25682D01*
X5613Y-25613D01*
X5682Y-25509D01*
X5706Y-25388D01*
Y-25013D01*
X5696Y-24873D01*
X5804Y-24729D01*
X5880Y-24615D01*
X5907Y-24481D01*
Y-23919D01*
X5880Y-23785D01*
X5826Y-23704D01*
X5864Y-23499D01*
X5906Y-23378D01*
X5926Y-23367D01*
X5961Y-23351D01*
X5993Y-23339D01*
X6020Y-23332D01*
X6956D01*
X7100Y-23304D01*
X7222Y-23222D01*
X7304Y-23100D01*
X7332Y-22956D01*
Y-22685D01*
X7609Y-22570D01*
X8020Y-22980D01*
D02*
G37*
G36*
X10257Y-23640D02*
X10253Y-23637D01*
X10247Y-23635D01*
X10239Y-23632D01*
X10229Y-23630D01*
X10216Y-23629D01*
X10186Y-23626D01*
X10124Y-23625D01*
Y-23375D01*
X10147Y-23375D01*
X10229Y-23370D01*
X10239Y-23368D01*
X10247Y-23365D01*
X10253Y-23363D01*
X10257Y-23360D01*
Y-23640D01*
D02*
G37*
G36*
X5109Y-23600D02*
X5450D01*
X5450Y-23644D01*
X5459Y-23793D01*
X5463Y-23809D01*
X5467Y-23820D01*
X5471Y-23827D01*
X5476Y-23829D01*
X5024D01*
X5029Y-23827D01*
X5033Y-23820D01*
X5037Y-23809D01*
X5041Y-23793D01*
X5043Y-23772D01*
X5047Y-23720D01*
X5020Y-23715D01*
X4933Y-23707D01*
X4751Y-23700D01*
X4677Y-23700D01*
Y-23500D01*
X4751Y-23500D01*
X5052Y-23480D01*
X5078Y-23473D01*
X5097Y-23466D01*
X5109Y-23458D01*
Y-23600D01*
D02*
G37*
G36*
X11418Y-23661D02*
X11304Y-23873D01*
X11086Y-23737D01*
X11102Y-23721D01*
X11153Y-23663D01*
X11158Y-23656D01*
X11160Y-23650D01*
X11161Y-23646D01*
X11160Y-23643D01*
X11418Y-23661D01*
D02*
G37*
G36*
X12192Y-23783D02*
X12207Y-23797D01*
X12226Y-23809D01*
X12251Y-23820D01*
X12280Y-23829D01*
X12314Y-23837D01*
X12354Y-23843D01*
X12395Y-23846D01*
X12444Y-23843D01*
X12483Y-23838D01*
X12517Y-23831D01*
X12547Y-23822D01*
X12573Y-23812D01*
X12594Y-23801D01*
X12611Y-23788D01*
X12623Y-23773D01*
X12610Y-24299D01*
X12607Y-24271D01*
X12599Y-24246D01*
X12583Y-24223D01*
X12562Y-24204D01*
X12535Y-24187D01*
X12501Y-24174D01*
X12460Y-24163D01*
X12414Y-24156D01*
X12396Y-24154D01*
X12354Y-24157D01*
X12314Y-24163D01*
X12280Y-24171D01*
X12251Y-24180D01*
X12226Y-24191D01*
X12207Y-24203D01*
X12192Y-24217D01*
X12183Y-24233D01*
Y-23767D01*
X12192Y-23783D01*
D02*
G37*
G36*
X10953Y-24224D02*
X10918Y-24260D01*
X10891Y-24293D01*
X10871Y-24321D01*
X10859Y-24346D01*
X10854Y-24367D01*
X10856Y-24385D01*
X10865Y-24399D01*
X10882Y-24409D01*
X10906Y-24415D01*
X10937Y-24418D01*
X10246Y-24404D01*
X10281Y-24402D01*
X10318Y-24394D01*
X10357Y-24381D01*
X10398Y-24363D01*
X10441Y-24339D01*
X10486Y-24309D01*
X10534Y-24274D01*
X10634Y-24187D01*
X10687Y-24136D01*
X10953Y-24224D01*
D02*
G37*
G36*
X8726Y-24202D02*
X8730Y-24248D01*
X8736Y-24289D01*
X8745Y-24324D01*
X8756Y-24354D01*
X8769Y-24379D01*
X8785Y-24398D01*
X8804Y-24413D01*
X8825Y-24421D01*
X8848Y-24425D01*
X8350Y-24404D01*
X8374Y-24402D01*
X8395Y-24396D01*
X8414Y-24383D01*
X8430Y-24366D01*
X8444Y-24343D01*
X8455Y-24315D01*
X8464Y-24282D01*
X8470Y-24244D01*
X8474Y-24200D01*
X8475Y-24151D01*
X8725D01*
X8726Y-24202D01*
D02*
G37*
G36*
X5262Y-24548D02*
X5350D01*
X5350Y-24555D01*
X5550Y-24571D01*
X5512Y-24572D01*
X5478Y-24582D01*
X5448Y-24600D01*
X5422Y-24628D01*
X5400Y-24664D01*
X5382Y-24708D01*
X5368Y-24762D01*
X5363Y-24794D01*
X5363Y-24800D01*
X5371Y-24845D01*
X5380Y-24884D01*
X5391Y-24915D01*
X5403Y-24939D01*
X5417Y-24957D01*
X5433Y-24967D01*
X5350D01*
X5350Y-24974D01*
X4950D01*
X4950Y-24967D01*
X4867D01*
X4883Y-24957D01*
X4897Y-24939D01*
X4909Y-24915D01*
X4920Y-24884D01*
X4929Y-24845D01*
X4937Y-24800D01*
X4938Y-24784D01*
X4935Y-24747D01*
X4927Y-24700D01*
X4917Y-24656D01*
X4905Y-24615D01*
X4891Y-24579D01*
X4876Y-24546D01*
X4858Y-24517D01*
X5262Y-24548D01*
D02*
G37*
G36*
X4300Y-24600D02*
Y-25000D01*
X4097Y-25000D01*
Y-24600D01*
X4300Y-24600D01*
D02*
G37*
G36*
X1298Y-24819D02*
X1307Y-24836D01*
X1321Y-24851D01*
X1342Y-24864D01*
X1369Y-24875D01*
X1402Y-24884D01*
X1442Y-24891D01*
X1488Y-24896D01*
X1600Y-24900D01*
X1800D01*
Y-25700D01*
X1200D01*
X800Y-25300D01*
Y-24900D01*
X1289D01*
X1297Y-24800D01*
X1298Y-24819D01*
D02*
G37*
G36*
X2382Y-26851D02*
X2376Y-26861D01*
X2370Y-26873D01*
X2364Y-26886D01*
X2360Y-26900D01*
X2356Y-26916D01*
X2354Y-26933D01*
X2352Y-26952D01*
X2350Y-26993D01*
X2150D01*
X2150Y-26972D01*
X2146Y-26933D01*
X2144Y-26916D01*
X2140Y-26900D01*
X2136Y-26886D01*
X2130Y-26873D01*
X2124Y-26861D01*
X2118Y-26851D01*
X2110Y-26843D01*
X2390D01*
X2382Y-26851D01*
D02*
G37*
G36*
X1382D02*
X1376Y-26861D01*
X1370Y-26873D01*
X1364Y-26886D01*
X1360Y-26900D01*
X1356Y-26916D01*
X1354Y-26933D01*
X1352Y-26952D01*
X1350Y-26993D01*
X1150D01*
X1150Y-26972D01*
X1146Y-26933D01*
X1144Y-26916D01*
X1140Y-26900D01*
X1136Y-26886D01*
X1130Y-26873D01*
X1124Y-26861D01*
X1118Y-26851D01*
X1110Y-26843D01*
X1390D01*
X1382Y-26851D01*
D02*
G37*
G36*
X390Y-26843D02*
X382Y-26851D01*
X376Y-26861D01*
X370Y-26873D01*
X364Y-26886D01*
X360Y-26900D01*
X356Y-26916D01*
X354Y-26933D01*
X352Y-26952D01*
X350Y-26993D01*
X150Y-26993D01*
X150Y-26972D01*
X146Y-26933D01*
X144Y-26916D01*
X140Y-26900D01*
X136Y-26886D01*
X130Y-26873D01*
X124Y-26861D01*
X118Y-26851D01*
X110Y-26843D01*
X390Y-26843D01*
D02*
G37*
G36*
X-2618Y-26851D02*
X-2624Y-26861D01*
X-2630Y-26873D01*
X-2636Y-26886D01*
X-2640Y-26900D01*
X-2644Y-26916D01*
X-2646Y-26933D01*
X-2648Y-26952D01*
X-2650Y-26993D01*
X-2850D01*
X-2850Y-26972D01*
X-2854Y-26933D01*
X-2856Y-26916D01*
X-2860Y-26900D01*
X-2864Y-26886D01*
X-2870Y-26873D01*
X-2876Y-26861D01*
X-2882Y-26851D01*
X-2890Y-26843D01*
X-2610D01*
X-2618Y-26851D01*
D02*
G37*
G36*
X-3618D02*
X-3624Y-26861D01*
X-3630Y-26873D01*
X-3636Y-26886D01*
X-3640Y-26900D01*
X-3644Y-26916D01*
X-3646Y-26933D01*
X-3648Y-26952D01*
X-3650Y-26993D01*
X-3850D01*
X-3850Y-26972D01*
X-3854Y-26933D01*
X-3856Y-26916D01*
X-3860Y-26900D01*
X-3864Y-26886D01*
X-3870Y-26873D01*
X-3876Y-26861D01*
X-3882Y-26851D01*
X-3890Y-26843D01*
X-3610D01*
X-3618Y-26851D01*
D02*
G37*
G36*
X-4618D02*
X-4624Y-26861D01*
X-4630Y-26873D01*
X-4636Y-26886D01*
X-4640Y-26900D01*
X-4644Y-26916D01*
X-4646Y-26933D01*
X-4648Y-26952D01*
X-4650Y-26993D01*
X-4850D01*
X-4850Y-26972D01*
X-4854Y-26933D01*
X-4856Y-26916D01*
X-4860Y-26900D01*
X-4864Y-26886D01*
X-4870Y-26873D01*
X-4876Y-26861D01*
X-4882Y-26851D01*
X-4890Y-26843D01*
X-4610D01*
X-4618Y-26851D01*
D02*
G37*
G36*
X-1624Y-26858D02*
X-1637Y-26873D01*
X-1648Y-26889D01*
X-1658Y-26905D01*
X-1666Y-26921D01*
X-1673Y-26938D01*
X-1678Y-26955D01*
X-1682Y-26973D01*
X-1684Y-26991D01*
X-1685Y-27009D01*
X-1815D01*
X-1816Y-26991D01*
X-1818Y-26973D01*
X-1822Y-26955D01*
X-1827Y-26938D01*
X-1834Y-26921D01*
X-1842Y-26905D01*
X-1852Y-26889D01*
X-1863Y-26873D01*
X-1876Y-26858D01*
X-1890Y-26843D01*
X-1610D01*
X-1624Y-26858D01*
D02*
G37*
G36*
X7045Y-26675D02*
X7049Y-26705D01*
X7059Y-26738D01*
X7075Y-26773D01*
X7097Y-26812D01*
X7125Y-26854D01*
X7159Y-26898D01*
X7245Y-26996D01*
X7297Y-27049D01*
X7200Y-27233D01*
Y-29500D01*
X6800D01*
Y-27630D01*
X6575Y-27595D01*
X6560Y-27223D01*
X6800Y-27244D01*
Y-27100D01*
X6962D01*
X7046Y-26648D01*
X7045Y-26675D01*
D02*
G37*
G36*
X1882Y-27151D02*
X1876Y-27161D01*
X1870Y-27173D01*
X1864Y-27186D01*
X1860Y-27200D01*
X1856Y-27216D01*
X1854Y-27233D01*
X1852Y-27252D01*
X1850Y-27293D01*
X1650D01*
X1650Y-27272D01*
X1646Y-27233D01*
X1644Y-27216D01*
X1640Y-27200D01*
X1636Y-27186D01*
X1630Y-27173D01*
X1624Y-27161D01*
X1618Y-27151D01*
X1610Y-27143D01*
X1890D01*
X1882Y-27151D01*
D02*
G37*
G36*
X-118D02*
X-124Y-27161D01*
X-130Y-27173D01*
X-136Y-27186D01*
X-140Y-27200D01*
X-144Y-27216D01*
X-146Y-27233D01*
X-148Y-27252D01*
X-150Y-27293D01*
X-350D01*
X-350Y-27272D01*
X-354Y-27233D01*
X-356Y-27216D01*
X-360Y-27200D01*
X-364Y-27186D01*
X-370Y-27173D01*
X-376Y-27161D01*
X-382Y-27151D01*
X-390Y-27143D01*
X-110D01*
X-118Y-27151D01*
D02*
G37*
G36*
X-3118D02*
X-3124Y-27161D01*
X-3130Y-27173D01*
X-3136Y-27186D01*
X-3140Y-27200D01*
X-3144Y-27216D01*
X-3146Y-27233D01*
X-3148Y-27252D01*
X-3150Y-27293D01*
X-3350D01*
X-3350Y-27272D01*
X-3354Y-27233D01*
X-3356Y-27216D01*
X-3360Y-27200D01*
X-3364Y-27186D01*
X-3370Y-27173D01*
X-3376Y-27161D01*
X-3382Y-27151D01*
X-3390Y-27143D01*
X-3110D01*
X-3118Y-27151D01*
D02*
G37*
G36*
X-4118D02*
X-4124Y-27161D01*
X-4130Y-27173D01*
X-4136Y-27186D01*
X-4140Y-27200D01*
X-4144Y-27216D01*
X-4146Y-27233D01*
X-4148Y-27252D01*
X-4150Y-27293D01*
X-4350D01*
X-4350Y-27272D01*
X-4354Y-27233D01*
X-4356Y-27216D01*
X-4360Y-27200D01*
X-4364Y-27186D01*
X-4370Y-27173D01*
X-4376Y-27161D01*
X-4382Y-27151D01*
X-4390Y-27143D01*
X-4110D01*
X-4118Y-27151D01*
D02*
G37*
G36*
X-1124Y-27158D02*
X-1137Y-27173D01*
X-1148Y-27189D01*
X-1158Y-27205D01*
X-1166Y-27221D01*
X-1173Y-27238D01*
X-1178Y-27255D01*
X-1182Y-27273D01*
X-1184Y-27291D01*
X-1185Y-27309D01*
X-1315D01*
X-1316Y-27291D01*
X-1318Y-27273D01*
X-1322Y-27255D01*
X-1327Y-27238D01*
X-1334Y-27221D01*
X-1342Y-27205D01*
X-1352Y-27189D01*
X-1363Y-27173D01*
X-1376Y-27158D01*
X-1390Y-27143D01*
X-1110D01*
X-1124Y-27158D01*
D02*
G37*
G36*
X2351Y-27841D02*
X2356Y-27905D01*
X2362Y-27931D01*
X2368Y-27953D01*
X2376Y-27971D01*
X2385Y-27985D01*
X2396Y-27995D01*
X2408Y-28001D01*
X2422Y-28003D01*
X2078D01*
X2092Y-28001D01*
X2104Y-27995D01*
X2115Y-27985D01*
X2124Y-27971D01*
X2132Y-27953D01*
X2138Y-27931D01*
X2144Y-27905D01*
X2147Y-27875D01*
X2149Y-27841D01*
X2150Y-27803D01*
X2350D01*
X2351Y-27841D01*
D02*
G37*
G36*
X1851D02*
X1856Y-27905D01*
X1862Y-27931D01*
X1868Y-27953D01*
X1876Y-27971D01*
X1885Y-27985D01*
X1896Y-27995D01*
X1908Y-28001D01*
X1922Y-28003D01*
X1578D01*
X1592Y-28001D01*
X1604Y-27995D01*
X1615Y-27985D01*
X1624Y-27971D01*
X1632Y-27953D01*
X1638Y-27931D01*
X1644Y-27905D01*
X1647Y-27875D01*
X1649Y-27841D01*
X1650Y-27803D01*
X1850D01*
X1851Y-27841D01*
D02*
G37*
G36*
X1351D02*
X1356Y-27905D01*
X1362Y-27931D01*
X1368Y-27953D01*
X1376Y-27971D01*
X1385Y-27985D01*
X1396Y-27995D01*
X1408Y-28001D01*
X1422Y-28003D01*
X1078D01*
X1092Y-28001D01*
X1104Y-27995D01*
X1115Y-27985D01*
X1124Y-27971D01*
X1132Y-27953D01*
X1138Y-27931D01*
X1144Y-27905D01*
X1147Y-27875D01*
X1149Y-27841D01*
X1150Y-27803D01*
X1350D01*
X1351Y-27841D01*
D02*
G37*
G36*
X351D02*
X356Y-27905D01*
X362Y-27931D01*
X368Y-27953D01*
X376Y-27971D01*
X385Y-27985D01*
X396Y-27995D01*
X408Y-28001D01*
X422Y-28003D01*
X78D01*
X92Y-28001D01*
X104Y-27995D01*
X115Y-27985D01*
X124Y-27971D01*
X132Y-27953D01*
X138Y-27931D01*
X144Y-27905D01*
X147Y-27875D01*
X149Y-27841D01*
X150Y-27803D01*
X350D01*
X351Y-27841D01*
D02*
G37*
G36*
X-149D02*
X-144Y-27905D01*
X-138Y-27931D01*
X-132Y-27953D01*
X-124Y-27971D01*
X-115Y-27985D01*
X-104Y-27995D01*
X-92Y-28001D01*
X-78Y-28003D01*
X-422D01*
X-408Y-28001D01*
X-396Y-27995D01*
X-385Y-27985D01*
X-376Y-27971D01*
X-368Y-27953D01*
X-362Y-27931D01*
X-356Y-27905D01*
X-353Y-27875D01*
X-351Y-27841D01*
X-350Y-27803D01*
X-150D01*
X-149Y-27841D01*
D02*
G37*
G36*
X-1184Y-27898D02*
X-1182Y-27920D01*
X-1179Y-27939D01*
X-1175Y-27956D01*
X-1169Y-27971D01*
X-1162Y-27982D01*
X-1153Y-27991D01*
X-1143Y-27998D01*
X-1132Y-28002D01*
X-1120Y-28003D01*
X-1380D01*
X-1368Y-28002D01*
X-1357Y-27998D01*
X-1347Y-27991D01*
X-1338Y-27982D01*
X-1331Y-27971D01*
X-1325Y-27956D01*
X-1321Y-27939D01*
X-1318Y-27920D01*
X-1316Y-27898D01*
X-1315Y-27873D01*
X-1185D01*
X-1184Y-27898D01*
D02*
G37*
G36*
X-1684D02*
X-1682Y-27920D01*
X-1679Y-27939D01*
X-1675Y-27956D01*
X-1669Y-27971D01*
X-1662Y-27982D01*
X-1653Y-27991D01*
X-1643Y-27998D01*
X-1632Y-28002D01*
X-1620Y-28003D01*
X-1880D01*
X-1868Y-28002D01*
X-1857Y-27998D01*
X-1847Y-27991D01*
X-1838Y-27982D01*
X-1831Y-27971D01*
X-1825Y-27956D01*
X-1821Y-27939D01*
X-1818Y-27920D01*
X-1816Y-27898D01*
X-1815Y-27873D01*
X-1685D01*
X-1684Y-27898D01*
D02*
G37*
G36*
X-2649Y-27841D02*
X-2644Y-27905D01*
X-2638Y-27931D01*
X-2632Y-27953D01*
X-2624Y-27971D01*
X-2615Y-27985D01*
X-2604Y-27995D01*
X-2592Y-28001D01*
X-2578Y-28003D01*
X-2922D01*
X-2908Y-28001D01*
X-2896Y-27995D01*
X-2885Y-27985D01*
X-2876Y-27971D01*
X-2868Y-27953D01*
X-2862Y-27931D01*
X-2856Y-27905D01*
X-2853Y-27875D01*
X-2851Y-27841D01*
X-2850Y-27803D01*
X-2650D01*
X-2649Y-27841D01*
D02*
G37*
G36*
X-3149D02*
X-3144Y-27905D01*
X-3138Y-27931D01*
X-3132Y-27953D01*
X-3124Y-27971D01*
X-3115Y-27985D01*
X-3104Y-27995D01*
X-3092Y-28001D01*
X-3078Y-28003D01*
X-3422D01*
X-3408Y-28001D01*
X-3396Y-27995D01*
X-3385Y-27985D01*
X-3376Y-27971D01*
X-3368Y-27953D01*
X-3362Y-27931D01*
X-3356Y-27905D01*
X-3353Y-27875D01*
X-3351Y-27841D01*
X-3350Y-27803D01*
X-3150D01*
X-3149Y-27841D01*
D02*
G37*
G36*
X-3649D02*
X-3644Y-27905D01*
X-3638Y-27931D01*
X-3632Y-27953D01*
X-3624Y-27971D01*
X-3615Y-27985D01*
X-3604Y-27995D01*
X-3592Y-28001D01*
X-3578Y-28003D01*
X-3922D01*
X-3908Y-28001D01*
X-3896Y-27995D01*
X-3885Y-27985D01*
X-3876Y-27971D01*
X-3868Y-27953D01*
X-3862Y-27931D01*
X-3856Y-27905D01*
X-3853Y-27875D01*
X-3851Y-27841D01*
X-3850Y-27803D01*
X-3650D01*
X-3649Y-27841D01*
D02*
G37*
G36*
X-4149D02*
X-4144Y-27905D01*
X-4138Y-27931D01*
X-4132Y-27953D01*
X-4124Y-27971D01*
X-4115Y-27985D01*
X-4104Y-27995D01*
X-4092Y-28001D01*
X-4078Y-28003D01*
X-4422D01*
X-4408Y-28001D01*
X-4396Y-27995D01*
X-4385Y-27985D01*
X-4376Y-27971D01*
X-4368Y-27953D01*
X-4362Y-27931D01*
X-4356Y-27905D01*
X-4353Y-27875D01*
X-4351Y-27841D01*
X-4350Y-27803D01*
X-4150D01*
X-4149Y-27841D01*
D02*
G37*
G36*
X-4649D02*
X-4644Y-27905D01*
X-4638Y-27931D01*
X-4632Y-27953D01*
X-4624Y-27971D01*
X-4615Y-27985D01*
X-4604Y-27995D01*
X-4592Y-28001D01*
X-4578Y-28003D01*
X-4922D01*
X-4908Y-28001D01*
X-4896Y-27995D01*
X-4885Y-27985D01*
X-4876Y-27971D01*
X-4868Y-27953D01*
X-4862Y-27931D01*
X-4856Y-27905D01*
X-4853Y-27875D01*
X-4851Y-27841D01*
X-4850Y-27803D01*
X-4650D01*
X-4649Y-27841D01*
D02*
G37*
G36*
X9200Y-29500D02*
X8800D01*
Y-26800D01*
X9200D01*
Y-29500D01*
D02*
G37*
G36*
X8200D02*
X7800D01*
Y-26800D01*
X8200D01*
Y-29500D01*
D02*
G37*
G36*
X-8800D02*
X-9200D01*
Y-26800D01*
X-8800D01*
Y-29500D01*
D02*
G37*
%LPC*%
G36*
X-6000Y-500D02*
X-13600D01*
X-13647Y-502D01*
X-13685Y-510D01*
X-5591D01*
X-5655Y-504D01*
X-6000Y-500D01*
Y-500D01*
Y-500D01*
D02*
G37*
G36*
X14145Y-845D02*
Y-967D01*
X14267D01*
X14145Y-845D01*
D02*
G37*
G36*
X-14145Y-845D02*
X-14270Y-970D01*
X-14145D01*
Y-845D01*
D02*
G37*
G36*
X-8200Y-10341D02*
X-8376Y-10376D01*
X-8524Y-10476D01*
X-8724Y-10676D01*
X-8900Y-10641D01*
X-9076Y-10676D01*
X-9224Y-10776D01*
X-9324Y-10924D01*
X-9359Y-11100D01*
X-9324Y-11276D01*
X-9224Y-11424D01*
X-9076Y-11524D01*
X-8900Y-11559D01*
X-8724Y-11524D01*
X-8576Y-11424D01*
X-8376Y-11224D01*
X-8200Y-11259D01*
X-8024Y-11224D01*
X-7876Y-11124D01*
X-7776Y-10976D01*
X-7741Y-10800D01*
X-7776Y-10624D01*
X-7876Y-10476D01*
X-8024Y-10376D01*
X-8200Y-10341D01*
D02*
G37*
G36*
X-6600Y-11141D02*
X-6776Y-11176D01*
X-6924Y-11276D01*
X-7024Y-11424D01*
X-7059Y-11600D01*
X-7024Y-11776D01*
X-6924Y-11924D01*
X-6776Y-12024D01*
X-6600Y-12059D01*
X-6424Y-12024D01*
X-6276Y-11924D01*
X-6176Y-11776D01*
X-6141Y-11600D01*
X-6176Y-11424D01*
X-6276Y-11276D01*
X-6424Y-11176D01*
X-6600Y-11141D01*
D02*
G37*
G36*
X-8500Y-11941D02*
X-8676Y-11976D01*
X-8824Y-12076D01*
X-8924Y-12224D01*
X-8959Y-12400D01*
X-8924Y-12576D01*
X-8824Y-12724D01*
X-8676Y-12824D01*
X-8500Y-12859D01*
X-8324Y-12824D01*
X-8176Y-12724D01*
X-8076Y-12576D01*
X-8041Y-12400D01*
X-8076Y-12224D01*
X-8176Y-12076D01*
X-8324Y-11976D01*
X-8500Y-11941D01*
D02*
G37*
G36*
X-6700Y-23941D02*
X-6876Y-23976D01*
X-7050Y-24063D01*
X-7224Y-23976D01*
X-7400Y-23941D01*
X-7576Y-23976D01*
X-7724Y-24076D01*
X-7824Y-24224D01*
X-7859Y-24400D01*
X-7824Y-24576D01*
X-7724Y-24724D01*
X-7576Y-24824D01*
X-7400Y-24859D01*
X-7224Y-24824D01*
X-7050Y-24737D01*
X-6876Y-24824D01*
X-6700Y-24859D01*
X-6524Y-24824D01*
X-6376Y-24724D01*
X-6276Y-24576D01*
X-6241Y-24400D01*
X-6276Y-24224D01*
X-6376Y-24076D01*
X-6524Y-23976D01*
X-6700Y-23941D01*
D02*
G37*
G36*
X-13150Y-20041D02*
X-13600D01*
X-13776Y-20076D01*
X-13924Y-20176D01*
X-14024Y-20324D01*
X-14059Y-20500D01*
Y-21300D01*
X-14024Y-21476D01*
X-13924Y-21624D01*
X-13776Y-21724D01*
X-13607Y-21757D01*
Y-22181D01*
X-13580Y-22315D01*
X-13576Y-22321D01*
X-13506Y-22594D01*
X-13580Y-22706D01*
X-13607Y-22837D01*
Y-23362D01*
X-13580Y-23494D01*
X-13506Y-23606D01*
X-13394Y-23680D01*
X-13262Y-23707D01*
X-12538D01*
X-12406Y-23680D01*
X-12370Y-23656D01*
X-12091Y-23723D01*
X-12034Y-23756D01*
X-11990Y-23833D01*
X-12007Y-23919D01*
Y-24481D01*
X-11980Y-24615D01*
X-11904Y-24729D01*
X-11790Y-24805D01*
X-11656Y-24832D01*
X-11044D01*
X-10910Y-24805D01*
X-10857Y-24770D01*
X-10854Y-24769D01*
X-10847Y-24763D01*
X-10835Y-24755D01*
X-10320D01*
X-10300Y-24759D01*
X-10124Y-24724D01*
X-9976Y-24624D01*
X-9876Y-24476D01*
X-9841Y-24300D01*
Y-23500D01*
X-9876Y-23324D01*
X-9976Y-23176D01*
X-10124Y-23076D01*
X-10300Y-23041D01*
X-10585Y-22843D01*
X-10597Y-22818D01*
X-10620Y-22706D01*
X-10694Y-22594D01*
X-10806Y-22520D01*
X-10938Y-22493D01*
X-11663D01*
X-11794Y-22520D01*
X-11906Y-22594D01*
X-11933Y-22635D01*
X-12016Y-22656D01*
X-12184D01*
X-12267Y-22635D01*
X-12294Y-22594D01*
X-12320Y-22315D01*
X-12293Y-22181D01*
Y-21619D01*
X-12305Y-21558D01*
X-12305Y-21554D01*
X-12308Y-21546D01*
X-12320Y-21485D01*
X-12335Y-21463D01*
X-12336Y-21459D01*
X-12345Y-21442D01*
X-12350Y-21430D01*
X-12358Y-21403D01*
X-12367Y-21364D01*
X-12374Y-21321D01*
X-12375Y-21294D01*
X-12374Y-21283D01*
X-12367Y-21236D01*
X-12358Y-21197D01*
X-12350Y-21171D01*
X-12345Y-21158D01*
X-12336Y-21141D01*
X-12335Y-21137D01*
X-12320Y-21115D01*
X-12308Y-21054D01*
X-12305Y-21046D01*
X-12305Y-21042D01*
X-12293Y-20981D01*
Y-20419D01*
X-12320Y-20285D01*
X-12396Y-20171D01*
X-12510Y-20095D01*
X-12644Y-20068D01*
X-13014D01*
X-13150Y-20041D01*
D02*
G37*
%LPD*%
G36*
X-13532Y-20300D02*
X-13298Y-20316D01*
X-13288Y-20321D01*
X-13286Y-20327D01*
X-13292Y-20333D01*
X-13300Y-20400D01*
X-13100D01*
Y-20926D01*
X-12650D01*
X-12649Y-21017D01*
X-12558D01*
X-12576Y-21048D01*
X-12591Y-21087D01*
X-12605Y-21133D01*
X-12617Y-21188D01*
X-12627Y-21250D01*
X-12631Y-21290D01*
X-12627Y-21350D01*
X-12617Y-21412D01*
X-12605Y-21467D01*
X-12591Y-21513D01*
X-12576Y-21552D01*
X-12558Y-21583D01*
X-12649D01*
X-12650Y-21674D01*
X-13250D01*
X-13251Y-21583D01*
X-13342D01*
X-13324Y-21552D01*
X-13309Y-21513D01*
X-13295Y-21467D01*
X-13283Y-21412D01*
X-13273Y-21350D01*
X-13269Y-21310D01*
X-13273Y-21250D01*
X-13283Y-21188D01*
X-13295Y-21133D01*
X-13305Y-21100D01*
X-13600D01*
Y-20400D01*
X-13600D01*
Y-20300D01*
X-13532Y-20300D01*
D02*
G37*
G36*
X-12599Y-22218D02*
X-12558Y-22217D01*
X-12566Y-22234D01*
X-12573Y-22262D01*
X-12580Y-22301D01*
X-12589Y-22397D01*
X-12580Y-22512D01*
X-12569Y-22579D01*
X-12556Y-22637D01*
X-12540Y-22686D01*
X-12521Y-22725D01*
X-12500Y-22756D01*
X-12477Y-22777D01*
X-12599D01*
X-12600Y-22861D01*
X-13200Y-22874D01*
X-13201Y-22777D01*
X-13323D01*
X-13300Y-22756D01*
X-13279Y-22725D01*
X-13260Y-22686D01*
X-13244Y-22637D01*
X-13231Y-22579D01*
X-13220Y-22512D01*
X-13220Y-22511D01*
X-13230Y-22444D01*
X-13244Y-22386D01*
X-13260Y-22337D01*
X-13278Y-22298D01*
X-13299Y-22268D01*
X-13322Y-22247D01*
X-13202Y-22242D01*
X-13200Y-22151D01*
X-12600D01*
X-12599Y-22218D01*
D02*
G37*
G36*
X-10956Y-23881D02*
X-10936Y-23900D01*
X-10300D01*
Y-24500D01*
X-10936D01*
X-10956Y-24519D01*
X-10978Y-24547D01*
Y-24500D01*
X-11100D01*
Y-23900D01*
X-10978D01*
Y-23853D01*
X-10956Y-23881D01*
D02*
G37*
D12*
X700Y-10050D02*
X750Y-10100D01*
X-350Y-10050D02*
X700D01*
X-350Y-9550D02*
X1650D01*
X1850Y-10100D02*
Y-9750D01*
X1650Y-9550D02*
X1850Y-9750D01*
X8600Y-24850D02*
Y-24000D01*
X9100Y-23500D01*
X10400D01*
X10550Y-25000D02*
Y-24450D01*
X11300Y-23700D02*
Y-23500D01*
X10550Y-24450D02*
X11300Y-23700D01*
X8450Y-25000D02*
X8600Y-24850D01*
X12000Y-8400D02*
Y-8170D01*
X11085Y-6785D02*
Y-5782D01*
Y-6785D02*
X11250Y-6950D01*
X11780D01*
Y-7950D02*
X12000Y-8170D01*
X6500Y-4450D02*
X6500Y-4450D01*
X6980D01*
D13*
X-250Y-28750D02*
Y-27000D01*
X11750Y-3750D02*
X12350D01*
X13000Y-3100D01*
X-8600Y-22700D02*
Y-20950D01*
X1250Y-28750D02*
Y-26700D01*
X1750Y-28750D02*
Y-27000D01*
X2250Y-28750D02*
Y-26700D01*
X-6200Y-4550D02*
Y-3200D01*
X-10700Y-10550D02*
X-10600Y-10450D01*
X-7300Y-3200D02*
X-7100D01*
X-7900Y-3800D02*
X-7300Y-3200D01*
X-7900Y-4550D02*
Y-3800D01*
X-7000Y-3850D02*
X-7000Y-3850D01*
Y-4300D02*
Y-3850D01*
X-8800Y-4200D02*
X-8800Y-4200D01*
X-9300Y-4200D02*
X-8800D01*
X-8250Y-5650D02*
X-7900D01*
X-8800Y-5100D02*
X-8250Y-5650D01*
X-7400Y-5900D02*
X-7100D01*
X-7650Y-5650D02*
X-7400Y-5900D01*
X-7900Y-5650D02*
X-7650D01*
X-7100Y-5900D02*
X-6350Y-6650D01*
Y-7550D02*
Y-6650D01*
X-6650Y-5650D02*
X-6200D01*
X-7000Y-5300D02*
X-6650Y-5650D01*
X250Y-26700D02*
X250Y-26700D01*
X250Y-28750D02*
Y-26700D01*
X-9350Y-20500D02*
X-9350Y-20500D01*
X-9350Y-20500D02*
Y-19050D01*
X-9250Y-21250D02*
X-8900Y-20900D01*
X-8650D01*
X-10000Y-21250D02*
X-9250D01*
X-8350Y-19850D02*
X-8150Y-20050D01*
Y-20300D02*
Y-20050D01*
X-8350Y-19850D02*
Y-19050D01*
X-7700Y-6400D02*
X-7350Y-6750D01*
Y-7550D02*
Y-6750D01*
X-6850Y-8400D02*
Y-7550D01*
Y-8400D02*
X-6850Y-8400D01*
X-8850Y-20200D02*
Y-19050D01*
X10400Y-11500D02*
X10900Y-12000D01*
X9850Y-10400D02*
X10400Y-10950D01*
Y-11500D02*
Y-10950D01*
X10900Y-12000D02*
X11200D01*
X-7200Y-21800D02*
X-6400Y-21000D01*
Y-20000D01*
X-7550Y-21800D02*
X-7200D01*
X-6000Y-21700D02*
Y-21550D01*
X-5650Y-21200D01*
X-4300Y-22700D02*
X-3400Y-23600D01*
X5250D01*
X-5700Y-22700D02*
X-4300D01*
X6650Y-12550D02*
X6700Y-12500D01*
X5850Y-12550D02*
X6650D01*
X6500Y-11000D02*
Y-10550D01*
Y-11000D02*
X6700Y-11200D01*
Y-11500D02*
Y-11200D01*
X-8399Y-17301D02*
X-7850Y-17850D01*
X-8400Y-17300D02*
X-8399Y-17301D01*
X-7350Y-18150D02*
X-7200Y-18000D01*
X-350Y-17650D02*
X-100Y-17900D01*
X-11600Y-8100D02*
Y-5900D01*
X-12900Y-4980D02*
X-12520D01*
X-11600Y-5900D01*
X-12390Y-3710D02*
X-11100Y-5000D01*
X-12900Y-3710D02*
X-12390D01*
X-11100Y-8600D02*
Y-5000D01*
X3200Y-16500D02*
X3400Y-16700D01*
X3200Y-16500D02*
Y-14900D01*
X11000Y-3100D02*
X11130Y-3230D01*
X11000Y-3100D02*
Y-2700D01*
X11130Y-3800D02*
Y-3230D01*
X12800Y-6900D02*
X13000D01*
X1500Y-10800D02*
Y-10600D01*
X1000Y-10100D02*
X1500Y-10600D01*
X750Y-10100D02*
X1000D01*
X3200Y-11500D02*
X3300Y-11400D01*
X3200Y-12100D02*
Y-11500D01*
X-3200Y-5600D02*
X-2900Y-5300D01*
X-3500Y-5600D02*
X-3200D01*
X-2750Y-28750D02*
Y-26700D01*
X-3250Y-28750D02*
Y-27000D01*
X-3750Y-28750D02*
Y-26700D01*
X-4250Y-28750D02*
Y-27000D01*
X-4750Y-28750D02*
Y-26700D01*
X-7600Y-22700D02*
X-6700D01*
X-7600D02*
X-7550Y-22650D01*
Y-21800D01*
X-8650Y-20900D02*
X-8600Y-20950D01*
X-11350Y-19500D02*
Y-19050D01*
X-10600Y-18300D02*
Y-16600D01*
X-11350Y-19050D02*
X-10600Y-18300D01*
X-10000Y-20150D02*
X-9850Y-20000D01*
Y-19050D01*
X-12800Y-16550D02*
X-11850D01*
X-13000Y-16750D02*
X-12800Y-16550D01*
X-12850Y-15050D02*
X-11850D01*
X-12900Y-15000D02*
X-12900D01*
X-13000Y-14900D02*
X-12900Y-15000D01*
X-12900D02*
X-12850Y-15050D01*
X-13400Y-13800D02*
X-13150Y-13550D01*
X-11850D01*
X-1400Y-17200D02*
Y-15900D01*
X-1050Y-15550D01*
X-13300Y-9100D02*
X-12100Y-7900D01*
X-13800Y-8900D02*
X-12900Y-8000D01*
X-13800Y-12000D02*
Y-8900D01*
X-13300Y-11700D02*
Y-9100D01*
Y-11700D02*
X-12450Y-12550D01*
X-13800Y-12000D02*
X-12750Y-13050D01*
X-12400Y-6300D02*
X-12100Y-6600D01*
Y-7900D02*
Y-6600D01*
X-12700Y-9200D02*
X-11600Y-8100D01*
X-12900Y-8000D02*
Y-7520D01*
X-12700Y-9900D02*
Y-9200D01*
X-12900Y-6250D02*
X-12450D01*
X-12400Y-6300D01*
X-12400D01*
X-12450Y-12550D02*
X-11850D01*
X-12700Y-9900D02*
X-12550Y-10050D01*
X-11850D01*
Y-9550D02*
Y-9350D01*
X-11100Y-8600D01*
X-9350Y-6400D02*
X-9350Y-6400D01*
Y-7550D02*
Y-6400D01*
X-9850Y-7550D02*
Y-6950D01*
X-12900Y-2440D02*
X-12460D01*
X-8700Y-6200D01*
Y-6900D02*
Y-6200D01*
X-3500Y-6000D02*
Y-5600D01*
X-4350Y-6850D02*
X-3500Y-6000D01*
X-4350Y-7550D02*
Y-6850D01*
X-4400Y-6100D02*
Y-5650D01*
X-4850Y-7550D02*
Y-6550D01*
X-4400Y-6100D01*
X-6200Y-6200D02*
Y-5650D01*
Y-6200D02*
X-5850Y-6550D01*
Y-7550D02*
Y-6550D01*
X-5350Y-5700D02*
X-5300Y-5650D01*
X-5350Y-7550D02*
Y-5700D01*
X-4400Y-4550D02*
Y-3200D01*
X-5300Y-4550D02*
Y-3200D01*
X-15000Y-7520D02*
X-13900D01*
X-15000Y-6250D02*
X-13900D01*
X-15000Y-4980D02*
X-13900D01*
X-15000Y-3710D02*
X-13900D01*
X-15000Y-2440D02*
X-13900D01*
X400Y-10700D02*
X900D01*
X250Y-10550D02*
X400Y-10700D01*
X-350Y-10550D02*
X250D01*
X900Y-19000D02*
X1400D01*
X-1050Y-15550D02*
X-350D01*
Y-17650D02*
Y-17050D01*
X-2100Y-20200D02*
Y-19900D01*
X-2350Y-19650D02*
X-2100Y-19900D01*
X-2350Y-19650D02*
Y-19050D01*
X-10400Y-6400D02*
X-9850Y-6950D01*
X-10450Y-6400D02*
X-10400D01*
X-8850Y-7550D02*
Y-7050D01*
X-8700Y-6900D01*
X-13000Y-16750D02*
X-13000Y-16750D01*
X-11850Y-11550D02*
X-10800D01*
X-11850Y-12050D02*
X-11000D01*
X-11850Y-10550D02*
X-10700D01*
X-11850Y-11050D02*
X-11000D01*
X-12900Y-17800D02*
X-12150Y-17050D01*
X-11850Y-16050D02*
X-11150D01*
X-12150Y-17050D02*
X-11850D01*
X-12750Y-13050D02*
X-11850D01*
X500Y-16050D02*
X700Y-15850D01*
X300Y-16550D02*
X700Y-16950D01*
X-3850Y-20100D02*
X-3750Y-20200D01*
Y-21350D02*
X-3600Y-21200D01*
X-4350Y-19700D02*
Y-19050D01*
X-3850Y-20100D02*
Y-19050D01*
X-350Y-16050D02*
X500D01*
X-350Y-16550D02*
X300D01*
X-13000Y-17850D02*
Y-17800D01*
X-11150Y-16050D02*
X-10600Y-16600D01*
X-5650Y-20200D02*
Y-19950D01*
X-5850Y-19750D02*
Y-19050D01*
Y-19750D02*
X-5650Y-19950D01*
X-7850Y-19050D02*
Y-17850D01*
X-7350Y-19050D02*
Y-18150D01*
X-4850Y-20200D02*
X-4350Y-19700D01*
X-5100Y-21400D02*
X-4800D01*
X-5650Y-21200D02*
X-5300D01*
X-5100Y-21400D01*
X11780Y-7450D02*
X12250D01*
X12800Y-6900D01*
X11780Y-4450D02*
X12130Y-4100D01*
X10630Y-3800D02*
Y-3430D01*
X11600Y-3600D02*
X11750Y-3750D01*
X12130Y-4100D02*
X13000D01*
X10500Y-8000D02*
X10630Y-8130D01*
Y-8600D02*
Y-8130D01*
X6980Y-5450D02*
X7450D01*
X7500Y-5500D01*
X6000Y-5600D02*
X6100D01*
X5600Y-6000D02*
X6000Y-5600D01*
X6980Y-7950D02*
X7450D01*
X11200Y-9400D02*
X12000D01*
X12000Y-9400D01*
X11130Y-9330D02*
X11200Y-9400D01*
X11130Y-9330D02*
Y-8600D01*
X6980Y-5950D02*
X7450D01*
X6100Y-6600D02*
X6250Y-6450D01*
X6980D01*
X7450Y-5950D02*
X7600Y-6100D01*
X10200Y-3000D02*
Y-2800D01*
Y-3000D02*
X10630Y-3430D01*
X7450Y-7950D02*
X7500Y-7900D01*
X8000Y-8100D02*
X8130Y-8230D01*
Y-8600D02*
Y-8230D01*
X8600Y-8100D02*
X8630Y-8130D01*
Y-8600D02*
Y-8130D01*
X9130Y-8600D02*
Y-8170D01*
X9200Y-8100D01*
X6980Y-7450D02*
X7450D01*
X7600Y-7300D01*
X9630Y-9330D02*
X9700Y-9400D01*
X9650Y-9450D02*
X9700Y-9400D01*
Y-10400D02*
X9850D01*
X8900Y-10550D02*
Y-10450D01*
X9630Y-9330D02*
Y-8600D01*
X8900Y-9450D02*
X9650D01*
X8100Y-9650D02*
X8900Y-10450D01*
X8100Y-9650D02*
Y-9600D01*
X6500Y-9450D02*
X6850D01*
X7000Y-9600D01*
X7300D01*
D14*
X-4700Y-16700D02*
G03*
X-5350Y-17350I0J-650D01*
G01*
X11300Y-11400D02*
X11400D01*
X10450Y-10550D02*
X11300Y-11400D01*
X10450Y-10550D02*
Y-9250D01*
X-3000Y-15500D02*
X-2400Y-14900D01*
X-5350Y-19050D02*
Y-17350D01*
X-4700Y-16700D02*
X-3900D01*
X-7550Y-20450D02*
X-7550D01*
X-6850Y-19750D01*
X-4600Y-13600D02*
X-2900D01*
X-5550Y-14550D02*
X-4600Y-13600D01*
X-11850Y-14550D02*
X-5550D01*
X-2000Y-17600D02*
X-1150Y-18450D01*
X1100Y-5700D02*
X1700Y-6300D01*
X-3850Y-6950D02*
X-2600Y-5700D01*
X1100D01*
X4800Y-3200D02*
X6600Y-1400D01*
X400Y-5100D02*
X2300Y-3200D01*
X2100Y-2900D02*
X4700D01*
X400Y-4600D02*
X2100Y-2900D01*
X2300Y-3200D02*
X4800D01*
X4700Y-2900D02*
X6500Y-1100D01*
X-1300Y-4600D02*
X400D01*
X-2100Y-5100D02*
X400D01*
X-1750Y-7550D02*
X-1300Y-7100D01*
X-2350Y-7550D02*
X-1750D01*
X-1300Y-7100D02*
X-600D01*
X-2000Y-9900D02*
X-1500D01*
X-2300Y-10600D02*
Y-10200D01*
X-2000Y-9900D01*
X-6050Y-15550D02*
X-4600Y-14100D01*
X-3100D01*
X-11850Y-15550D02*
X-6050D01*
X8600Y-1100D02*
X9600Y-2100D01*
X6500Y-1100D02*
X8600D01*
X-2200Y-5000D02*
X-2100Y-5100D01*
X-3600Y-17600D02*
X-2000D01*
X-3300Y-17300D02*
X-2900D01*
X-3300D02*
X-3200D01*
X-3900Y-16700D02*
X-3300Y-17300D01*
X-2700Y-14500D02*
Y-13800D01*
X-3500Y-16400D02*
Y-15300D01*
X-2700Y-14500D01*
X-3500Y-16400D02*
X-3100Y-16800D01*
X5111Y-5200D02*
X6311Y-4000D01*
X5422Y-4522D02*
X6100Y-3843D01*
X-400Y-6800D02*
X0D01*
X-2700Y-6600D02*
X-600D01*
X-400Y-6800D01*
X7700Y-1400D02*
X8800Y-2500D01*
X6600Y-1400D02*
X7700D01*
X5376Y-4200D02*
X5738Y-3838D01*
X1300Y-15300D02*
X2500Y-16500D01*
Y-17700D02*
X3300Y-18500D01*
X2500Y-17700D02*
Y-16500D01*
X900Y-15300D02*
X1300D01*
X3300Y-20600D02*
Y-18500D01*
X-1300Y-14800D02*
Y-13900D01*
X-1050Y-15050D02*
X-350D01*
X-1300Y-14800D02*
X-1050Y-15050D01*
X13500Y-2400D02*
X15000D01*
X-1800Y-10600D02*
Y-10400D01*
Y-10600D02*
X-1350Y-11050D01*
X-350D01*
X-2300Y-10600D02*
X-1350Y-11550D01*
X-2700Y-10000D02*
X-1400Y-8700D01*
X-2700Y-10900D02*
Y-10000D01*
X-1300Y-10400D02*
Y-10100D01*
X-1500Y-9900D02*
X-1300Y-10100D01*
X-1400Y-8700D02*
X400D01*
X-2700Y-10900D02*
X-2100Y-11500D01*
X-2400Y-14900D02*
Y-13500D01*
X-3400Y-12500D02*
X-2400Y-13500D01*
X-2900Y-17300D02*
X-2100Y-16500D01*
Y-11500D01*
X-2900Y-13600D02*
X-2700Y-13800D01*
X-2850Y-19050D02*
Y-18300D01*
X6100Y-8600D02*
Y-8300D01*
X5800Y-8900D02*
X6100Y-8600D01*
X1500Y-7300D02*
X1700Y-7500D01*
X-600Y-7100D02*
X-400Y-7300D01*
X1500D01*
X1700Y-6400D02*
Y-6300D01*
X600Y-8900D02*
X1400D01*
X400Y-8700D02*
X600Y-8900D01*
X-2850Y-6750D02*
X-2700Y-6600D01*
X-2850Y-7550D02*
Y-6750D01*
X-3850Y-7550D02*
Y-6950D01*
X8400Y-3300D02*
X8500D01*
X8600Y-3000D02*
X8939D01*
X8800Y-2500D02*
X8800D01*
X9630Y-3330D01*
X-5300Y-12500D02*
X-3400D01*
X-7000Y-14200D02*
X-5300Y-12500D01*
X9600Y-2100D02*
X13200D01*
X9600Y-2900D02*
Y-2100D01*
Y-2900D02*
X10130Y-3430D01*
X13200Y-2100D02*
X13500Y-2400D01*
X150Y-14550D02*
X900Y-15300D01*
X-350Y-14550D02*
X150D01*
X-350Y-14050D02*
X250D01*
X-400D02*
X-350D01*
X850Y-14650D02*
X1200D01*
X-11100Y-14200D02*
X-7000D01*
X8939Y-3000D02*
X9130Y-3191D01*
X-6400Y-20000D02*
X-6350Y-19950D01*
X450Y-13550D02*
X750Y-13850D01*
X-350Y-13550D02*
X450D01*
X850Y-11450D02*
X900D01*
X450Y-12550D02*
X750Y-12250D01*
X-350Y-12050D02*
X250D01*
X-350Y-13050D02*
X900D01*
X-350Y-12550D02*
X450D01*
X250Y-12050D02*
X850Y-11450D01*
X900Y-13050D02*
X900Y-13050D01*
X750Y-12250D02*
X900D01*
X-1350Y-11550D02*
X-350D01*
X-2900Y-20200D02*
Y-20100D01*
X-11250Y-14050D02*
X-11100Y-14200D01*
X-11850Y-14050D02*
X-11250D01*
X-3350Y-19650D02*
Y-19050D01*
Y-19650D02*
X-2900Y-20100D01*
X250Y-14050D02*
X850Y-14650D01*
X-6350Y-19950D02*
Y-19050D01*
X-6850Y-19750D02*
Y-19050D01*
X11780Y-5950D02*
X12250D01*
X11780Y-6450D02*
X12300D01*
X12250Y-5950D02*
X12400Y-5800D01*
X12300Y-6450D02*
X12400Y-6350D01*
X11780Y-5450D02*
X12200D01*
X11780Y-4950D02*
X12150D01*
X12400Y-4700D01*
X12200Y-5450D02*
X12400Y-5250D01*
X7100Y-8600D02*
X7630D01*
X8630Y-3800D02*
Y-3430D01*
X8500Y-3300D02*
X8630Y-3430D01*
X9130Y-3800D02*
Y-3191D01*
X9630Y-3800D02*
Y-3330D01*
X10130Y-3800D02*
Y-3430D01*
X6100Y-7300D02*
X6400D01*
X6750Y-6950D01*
X6980D01*
X10130Y-8930D02*
Y-8600D01*
Y-8930D02*
X10450Y-9250D01*
D34*
X-13800Y-25400D02*
D03*
X-13400Y-13800D02*
D03*
D35*
X-14100Y-24100D02*
D03*
X6800Y-26800D02*
D03*
D59*
X-4500Y-17000D02*
G03*
X-5000Y-17500I0J-500D01*
G01*
X2500Y-3700D02*
G03*
X1900Y-4300I0J-600D01*
G01*
Y-5100D02*
G03*
X2200Y-5400I300J0D01*
G01*
X4100Y-13900D02*
G03*
X4400Y-13600I-0J300D01*
G01*
X4200Y-13300D02*
G03*
X4400Y-13500I200J0D01*
G01*
X3600Y-21100D02*
G03*
X3800Y-20900I0J200D01*
G01*
X2600D02*
G03*
X2800Y-21100I200J0D01*
G01*
X3800Y-4600D02*
G03*
X3700Y-4700I0J-100D01*
G01*
X2200Y-4800D02*
G03*
X2500Y-5100I300J0D01*
G01*
X2700Y-4000D02*
G03*
X2200Y-4500I0J-500D01*
G01*
X2800Y-4300D02*
G03*
X2700Y-4400I0J-100D01*
G01*
Y-4700D02*
G03*
X2800Y-4800I100J0D01*
G01*
X4400Y-13100D02*
G03*
X4200Y-13300I0J-200D01*
G01*
X2700Y-13800D02*
G03*
X2800Y-13900I100J0D01*
G01*
X2700Y-13500D02*
G03*
X2600Y-13400I-100J0D01*
G01*
X2500D02*
G03*
X2400Y-13500I0J-100D01*
G01*
X2300Y-13800D02*
G03*
X2400Y-13700I0J100D01*
G01*
X4000Y-18300D02*
G03*
X4200Y-18100I0J200D01*
G01*
X3600D02*
G03*
X3800Y-18300I200J0D01*
G01*
X3600Y-17800D02*
G03*
X3400Y-17600I-200J0D01*
G01*
X2900Y-17400D02*
G03*
X3100Y-17600I200J0D01*
G01*
X-4500Y-17000D02*
X-4200D01*
X-5000Y-18150D02*
Y-17500D01*
X2500Y-3700D02*
X5300D01*
X1900Y-5100D02*
Y-4300D01*
X2200Y-5400D02*
X2800D01*
X2200D02*
X2200D01*
X4100Y-13900D02*
X4100Y-13900D01*
X3200Y-13900D02*
X4100D01*
X4400Y-13600D02*
Y-13500D01*
Y-13600D02*
Y-13600D01*
X-1150Y-18450D02*
X1750D01*
X2600Y-19300D01*
X2800Y-21100D02*
X3600D01*
X2600Y-20900D02*
Y-19300D01*
X6800Y-1700D02*
X7300D01*
X5300Y-3200D02*
X6800Y-1700D01*
X5300Y-3700D02*
Y-3200D01*
X3700Y-4900D02*
Y-4700D01*
X3800Y-4600D02*
X4300D01*
X2200Y-4800D02*
Y-4500D01*
X2500Y-5100D02*
X2900D01*
X2700Y-4000D02*
X4800D01*
X2700D02*
X2700D01*
Y-4700D02*
Y-4400D01*
X2800Y-4300D02*
X4500D01*
X2800Y-4800D02*
X3100D01*
X1900Y-13050D02*
X3850D01*
X2050Y-12250D02*
X2700Y-11600D01*
Y-11000D01*
X1900Y-12250D02*
X2050D01*
X2700Y-11000D02*
X3800Y-9900D01*
Y-6000D01*
X-4850Y-18950D02*
Y-18300D01*
X-5000Y-18150D02*
X-4850Y-18300D01*
X-4200Y-17000D02*
X-3600Y-17600D01*
X4400Y-13100D02*
Y-5600D01*
X4200Y-13300D02*
Y-13300D01*
X4400Y-5600D02*
X4400D01*
X4400Y-13600D02*
X4400D01*
X2800Y-13900D02*
X3200D01*
X2700Y-13800D02*
Y-13500D01*
X2500Y-13400D02*
X2600D01*
X2400Y-13700D02*
Y-13500D01*
X1950Y-13800D02*
X2300D01*
X3200Y-13900D02*
Y-13900D01*
X1900Y-13850D02*
X1950Y-13800D01*
X6311Y-4000D02*
X6456Y-3856D01*
X7630Y-3800D02*
Y-3530D01*
X7200Y-3100D02*
X7630Y-3530D01*
X6900Y-3100D02*
X7200D01*
X6456Y-3544D02*
X6900Y-3100D01*
X6456Y-3856D02*
Y-3544D01*
X4300Y-4600D02*
X4900Y-5200D01*
X5111D01*
X3700Y-4900D02*
X4400Y-5600D01*
X3100Y-4800D02*
X4100Y-5800D01*
Y-12800D02*
Y-5800D01*
X4500Y-4300D02*
X4722Y-4522D01*
X5422D01*
X5000Y-4200D02*
X5376D01*
X4800Y-4000D02*
X5000Y-4200D01*
X2900Y-5100D02*
X3800Y-6000D01*
X2800Y-5400D02*
X3500Y-6100D01*
X6100Y-3400D02*
X6900Y-2600D01*
X6100Y-3843D02*
Y-3400D01*
X6900Y-2600D02*
X7200D01*
X8130Y-3530D01*
X2150Y-6950D02*
X2700Y-6400D01*
X1150Y-6950D02*
X2150D01*
X1000Y-6800D02*
X1150Y-6950D01*
X6900Y-2100D02*
X7200D01*
X5738Y-3262D02*
X6900Y-2100D01*
X7200D02*
X8400Y-3300D01*
X7300Y-1700D02*
X8600Y-3000D01*
X3500Y-9600D02*
Y-6100D01*
X5738Y-3838D02*
Y-3262D01*
X1900Y-11450D02*
Y-11200D01*
X3500Y-9600D01*
X3800Y-18300D02*
X4000D01*
X3600Y-18100D02*
Y-17800D01*
X3100Y-17600D02*
X3400D01*
X2900Y-17400D02*
Y-16000D01*
X4200Y-18100D02*
Y-17400D01*
X4550Y-18250D02*
Y-17550D01*
X5100Y-17000D02*
Y-10500D01*
X4550Y-17550D02*
X5100Y-17000D01*
X3800Y-20900D02*
Y-19000D01*
X4550Y-18250D01*
X-1200Y-19000D02*
X-100D01*
X-2100Y-18100D02*
X-1200Y-19000D01*
X4700Y-16900D02*
Y-6100D01*
X4200Y-17400D02*
X4700Y-16900D01*
X2200Y-15300D02*
X2900Y-16000D01*
X2200Y-15300D02*
Y-14700D01*
X-2650Y-18100D02*
X-2100D01*
X-2850Y-18300D02*
X-2650Y-18100D01*
X5100Y-10500D02*
X5800Y-9800D01*
Y-8900D01*
X2700Y-6400D02*
Y-5900D01*
X2700Y-6400D02*
X2700Y-6400D01*
X2735Y-7465D02*
Y-7034D01*
X2700Y-7500D02*
X2735Y-7465D01*
X900Y-8000D02*
Y-7700D01*
X700Y-8200D02*
X900Y-8000D01*
X2300Y-8400D02*
X2400Y-8500D01*
Y-8900D02*
Y-8500D01*
X3850Y-13050D02*
X4100Y-12800D01*
X4700Y-6100D02*
X5850Y-4950D01*
X8130Y-3800D02*
Y-3530D01*
X5850Y-4950D02*
X6980D01*
D60*
X-7000Y-4300D02*
D03*
Y-5300D02*
D03*
X-8800Y-4200D02*
D03*
Y-5200D02*
D03*
X4100Y-14900D02*
D03*
Y-13900D02*
D03*
X3200Y-13900D02*
D03*
Y-14900D02*
D03*
X-4400Y-2200D02*
D03*
Y-3200D02*
D03*
X-5300Y-2200D02*
D03*
Y-3200D02*
D03*
X11900Y-23000D02*
D03*
Y-24000D02*
D03*
X-7100Y-2200D02*
D03*
Y-3200D02*
D03*
X-6200D02*
D03*
Y-2200D02*
D03*
X3200Y-13100D02*
D03*
Y-12100D02*
D03*
X-3500Y-4600D02*
D03*
Y-5600D02*
D03*
X-1200Y-22200D02*
D03*
Y-21200D02*
D03*
X-2100Y-21200D02*
D03*
Y-20200D02*
D03*
X-2900Y-21200D02*
D03*
Y-20200D02*
D03*
X-5650Y-20200D02*
D03*
Y-21200D02*
D03*
X-13000Y-15900D02*
D03*
Y-14900D02*
D03*
X6100Y-5600D02*
D03*
Y-6600D02*
D03*
X13000Y-3100D02*
D03*
Y-4100D02*
D03*
X12100Y-9400D02*
D03*
Y-10400D02*
D03*
X13000Y-7900D02*
D03*
Y-6900D02*
D03*
X11200Y-10400D02*
D03*
Y-9400D02*
D03*
X6100Y-8300D02*
D03*
Y-7300D02*
D03*
X6700Y-11500D02*
D03*
Y-12500D02*
D03*
X7300Y-10600D02*
D03*
Y-9600D02*
D03*
X9700Y-9400D02*
D03*
Y-10400D02*
D03*
X8100Y-9600D02*
D03*
Y-10600D02*
D03*
D61*
X1900Y-13050D02*
D03*
X900D02*
D03*
Y-12250D02*
D03*
X1900D02*
D03*
X900Y-13850D02*
D03*
X1900D02*
D03*
Y-11450D02*
D03*
X900D02*
D03*
X1700Y-7500D02*
D03*
X2700D02*
D03*
X1400Y-8900D02*
D03*
X2400D02*
D03*
X700Y-8200D02*
D03*
X-300D02*
D03*
X1200Y-14700D02*
D03*
X2200D02*
D03*
X-12900Y-2440D02*
D03*
X-13900D02*
D03*
Y-3710D02*
D03*
X-12900D02*
D03*
Y-4980D02*
D03*
X-13900D02*
D03*
Y-6250D02*
D03*
X-12900D02*
D03*
Y-7520D02*
D03*
X-13900D02*
D03*
X2700Y-6400D02*
D03*
X1700D02*
D03*
X900Y-17900D02*
D03*
X-100D02*
D03*
X-4800Y-21400D02*
D03*
X-3800D02*
D03*
X0Y-6800D02*
D03*
X1000D02*
D03*
X-100Y-19000D02*
D03*
X900D02*
D03*
X11000Y-2700D02*
D03*
X12000D02*
D03*
X-5700Y-22700D02*
D03*
X-6700D02*
D03*
X-8600D02*
D03*
X-7600D02*
D03*
D62*
X5850Y-13400D02*
D03*
X7350Y-13400D02*
D03*
X-11350Y-24200D02*
D03*
X-12850Y-24200D02*
D03*
X-12950Y-20700D02*
D03*
X-11450Y-20700D02*
D03*
Y-21900D02*
D03*
X-12950Y-21900D02*
D03*
X5250Y-24200D02*
D03*
X6750Y-24200D02*
D03*
X-12850Y-19500D02*
D03*
X-11350Y-19500D02*
D03*
D63*
X-11300Y-23100D02*
D03*
X-12900D02*
D03*
D64*
X11800Y-20300D02*
D03*
D65*
X6000Y-22600D02*
D03*
Y-20300D02*
D03*
Y-18000D02*
D03*
D66*
X-4400Y-4550D02*
D03*
Y-5650D02*
D03*
X-5300Y-4550D02*
D03*
Y-5650D02*
D03*
X12900Y-24050D02*
D03*
Y-22950D02*
D03*
X-7900Y-5650D02*
D03*
Y-4550D02*
D03*
X-6200D02*
D03*
Y-5650D02*
D03*
X6500Y-9450D02*
D03*
Y-10550D02*
D03*
X8900Y-9450D02*
D03*
Y-10550D02*
D03*
D67*
X1750Y-28750D02*
D03*
X2250D02*
D03*
X2750D02*
D03*
X3250D02*
D03*
X-8750D02*
D03*
X-8250D02*
D03*
X-7750D02*
D03*
X-7250D02*
D03*
X-4750D02*
D03*
X-4250D02*
D03*
X-3750D02*
D03*
X-3250D02*
D03*
X-2750D02*
D03*
X-2250D02*
D03*
X-1750D02*
D03*
X-1250D02*
D03*
X-750D02*
D03*
X-250D02*
D03*
X250D02*
D03*
X750D02*
D03*
X3750D02*
D03*
X4250D02*
D03*
X7750D02*
D03*
X8250D02*
D03*
X8750D02*
D03*
X9250D02*
D03*
X-9250D02*
D03*
X1250D02*
D03*
X7250D02*
D03*
X6750D02*
D03*
D68*
X-10000Y-20150D02*
D03*
X-10000Y-21250D02*
D03*
X700Y-15850D02*
D03*
X700Y-16950D02*
D03*
X-13000Y-16750D02*
D03*
X-13000Y-17850D02*
D03*
X13000Y-9950D02*
D03*
X13000Y-8850D02*
D03*
D69*
X1850Y-10100D02*
D03*
X750Y-10100D02*
D03*
X-8650Y-20900D02*
D03*
X-7550Y-20900D02*
D03*
X6250Y-25200D02*
D03*
X5150Y-25200D02*
D03*
X-10450Y-6400D02*
D03*
X-9350Y-6400D02*
D03*
X-4850Y-20200D02*
D03*
X-3750Y-20200D02*
D03*
X-7550Y-21800D02*
D03*
X-8650Y-21800D02*
D03*
D70*
X12400Y-16350D02*
D03*
X12400Y-17850D02*
D03*
D71*
X-9850Y-19050D02*
D03*
X-9350D02*
D03*
X-8850D02*
D03*
X-8350D02*
D03*
X-7850D02*
D03*
X-7350D02*
D03*
X-6850D02*
D03*
X-6350D02*
D03*
X-5850D02*
D03*
X-5350D02*
D03*
X-4850Y-19050D02*
D03*
X-4350Y-19050D02*
D03*
X-3850D02*
D03*
X-3350D02*
D03*
X-2850D02*
D03*
X-2350D02*
D03*
X-2350Y-7550D02*
D03*
X-2850D02*
D03*
X-3350D02*
D03*
X-3850D02*
D03*
X-4350D02*
D03*
X-4850Y-7550D02*
D03*
X-5350Y-7550D02*
D03*
X-5850D02*
D03*
X-6350D02*
D03*
X-6850D02*
D03*
X-7350D02*
D03*
X-7850Y-7550D02*
D03*
X-8350D02*
D03*
X-8850Y-7550D02*
D03*
X-9350D02*
D03*
X-9850D02*
D03*
D72*
X-350Y-17050D02*
D03*
Y-16550D02*
D03*
Y-16050D02*
D03*
Y-15550D02*
D03*
Y-15050D02*
D03*
Y-14550D02*
D03*
Y-14050D02*
D03*
Y-13550D02*
D03*
Y-13050D02*
D03*
Y-12550D02*
D03*
X-350Y-12050D02*
D03*
X-350Y-11550D02*
D03*
Y-11050D02*
D03*
Y-10550D02*
D03*
Y-10050D02*
D03*
Y-9550D02*
D03*
X-11850D02*
D03*
Y-10050D02*
D03*
Y-10550D02*
D03*
Y-11050D02*
D03*
Y-11550D02*
D03*
X-11850Y-12050D02*
D03*
X-11850Y-12550D02*
D03*
Y-13050D02*
D03*
X-11850Y-13550D02*
D03*
Y-14050D02*
D03*
Y-14550D02*
D03*
X-11850Y-15050D02*
D03*
Y-15550D02*
D03*
Y-16050D02*
D03*
Y-16550D02*
D03*
Y-17050D02*
D03*
D73*
X700Y-24800D02*
D03*
X3500D02*
D03*
D74*
X10650Y-16100D02*
D03*
X8950Y-16100D02*
D03*
X10650Y-14900D02*
D03*
X8950Y-14900D02*
D03*
D75*
X8450Y-25000D02*
D03*
X10550D02*
D03*
D76*
X9380Y-6200D02*
D03*
D77*
X11780Y-7950D02*
D03*
Y-7450D02*
D03*
Y-6950D02*
D03*
Y-6450D02*
D03*
Y-5950D02*
D03*
Y-5450D02*
D03*
Y-4950D02*
D03*
Y-4450D02*
D03*
X6980D02*
D03*
Y-4950D02*
D03*
Y-5450D02*
D03*
Y-5950D02*
D03*
Y-6950D02*
D03*
Y-7450D02*
D03*
Y-7950D02*
D03*
Y-6450D02*
D03*
D78*
X10130Y-3800D02*
D03*
X9630D02*
D03*
X9130D02*
D03*
X8630Y-3800D02*
D03*
X8130D02*
D03*
X7630Y-3800D02*
D03*
X7630Y-8600D02*
D03*
X8130Y-8600D02*
D03*
X8630Y-8600D02*
D03*
X9130Y-8600D02*
D03*
X9630D02*
D03*
X10130D02*
D03*
X10630Y-8600D02*
D03*
X11130Y-8600D02*
D03*
X10630Y-3800D02*
D03*
X11130D02*
D03*
D79*
X-13500Y-24400D02*
X-13300Y-24200D01*
X-13800Y-25400D02*
X-13100D01*
X1000Y-25100D02*
X1600D01*
X-9050Y-26300D02*
Y-25750D01*
X-9550Y-26300D02*
Y-25750D01*
X5750Y-14100D02*
Y-13500D01*
X11200Y-10650D02*
X11400Y-10850D01*
X12100Y-10400D02*
X12600D01*
X13000Y-10000D02*
Y-9950D01*
X12600Y-10400D02*
X13000Y-10000D01*
X12000Y-12000D02*
X12100Y-11900D01*
X11200Y-10650D02*
Y-10400D01*
X12100Y-11900D02*
Y-10400D01*
X13100Y-21600D02*
Y-21600D01*
X11900Y-20400D02*
X13100Y-21600D01*
X7300Y-14400D02*
Y-13450D01*
X7350Y-13400D01*
X5800Y-12500D02*
X5850Y-12550D01*
Y-13400D02*
Y-12550D01*
X5800Y-12500D02*
Y-10500D01*
X5750Y-13500D02*
X5850Y-13400D01*
X-13300Y-24200D02*
X-12850D01*
X5800Y-10500D02*
X5800Y-10500D01*
X7300Y-11000D02*
Y-10600D01*
X7400Y-12400D02*
Y-11100D01*
X7300Y-11000D02*
X7400Y-11100D01*
X12650Y-8850D02*
X13000D01*
X12200Y-8400D02*
X12650Y-8850D01*
X12000Y-8400D02*
X12200D01*
X-10400Y-24200D02*
X-10300Y-24300D01*
X-11350Y-24200D02*
X-10400D01*
X-11300Y-23600D02*
Y-23100D01*
X-11350Y-23650D02*
X-11300Y-23600D01*
X-11350Y-24200D02*
Y-23650D01*
X13000Y-7900D02*
X13000Y-7900D01*
X13000Y-8850D02*
Y-7900D01*
X4100Y-16500D02*
X4300Y-16700D01*
X4100Y-16500D02*
Y-14900D01*
X1300Y-16500D02*
Y-15950D01*
X1200Y-15850D02*
X1300Y-15950D01*
X850Y-17050D02*
X1950D01*
X1400Y-17900D02*
X2000Y-17300D01*
Y-17000D01*
X700Y-16900D02*
X850Y-17050D01*
X1950D02*
X2000Y-17000D01*
X12400Y-16350D02*
Y-15900D01*
X12600Y-15700D01*
X6750Y-24200D02*
X7050Y-23900D01*
X7300D01*
X700Y-24800D02*
X1000Y-25100D01*
X2000D02*
X2000Y-25100D01*
X11800Y-20300D02*
X11900Y-20400D01*
X5250Y-23600D02*
Y-23350D01*
Y-24200D02*
Y-23600D01*
X3500Y-24800D02*
X4300D01*
X4700Y-25200D01*
X5150D01*
X10650Y-16650D02*
Y-16100D01*
Y-16650D02*
X11850Y-17850D01*
X12400D01*
X11800Y-20300D02*
X12400Y-19700D01*
Y-17850D01*
X6750Y-24700D02*
Y-24200D01*
X6250Y-25200D02*
X6750Y-24700D01*
X5250Y-23350D02*
X6000Y-22600D01*
X5150Y-24300D02*
X5250Y-24200D01*
X5150Y-25200D02*
Y-24300D01*
X-10800Y-21400D02*
X-10650Y-21250D01*
X-10000D01*
X-10350Y-20150D02*
X-10000D01*
X-10500Y-20000D02*
X-10350Y-20150D01*
X-11350Y-20600D02*
X-10800D01*
X-11450Y-20700D02*
X-11350Y-20600D01*
X-13600Y-20500D02*
X-13150D01*
X-12950Y-20700D01*
Y-21900D02*
X-12900Y-21950D01*
X-13000Y-16750D02*
Y-16300D01*
X-3500Y-4600D02*
Y-4100D01*
X-7100Y-2200D02*
X-7100Y-2200D01*
X-7600Y-2200D02*
X-7100D01*
X-10450Y-6400D02*
Y-5900D01*
X-10450Y-5900D02*
X-10450Y-5900D01*
X-9350Y-6400D02*
Y-6250D01*
X-9700Y-5900D02*
X-9350Y-6250D01*
X-5300Y-2200D02*
X-4400D01*
X-6200D02*
X-5300D01*
X-7100D02*
X-6200D01*
X900Y-17900D02*
X1400D01*
X700Y-15850D02*
X1200D01*
X-13000Y-16300D02*
Y-15900D01*
X-13000Y-17850D02*
X-12600D01*
X-12850Y-19500D02*
Y-18700D01*
X-3750Y-20700D02*
Y-20200D01*
Y-21350D02*
Y-20700D01*
X-3600Y-21200D02*
X-2900D01*
X-4850Y-20700D02*
Y-20200D01*
X12000Y-3200D02*
Y-2700D01*
Y-3200D02*
X12100Y-3300D01*
X7300Y-9600D02*
Y-9200D01*
X8100Y-11200D02*
X8700Y-11800D01*
X8100Y-11200D02*
Y-10600D01*
X-13500Y-24400D02*
Y-24000D01*
X-13100Y-25800D02*
Y-25400D01*
X7750Y-26300D02*
X8250D01*
X1600Y-25100D02*
X2000D01*
X7750Y-26700D02*
X8250D01*
X2000Y-25300D02*
Y-25100D01*
Y-25500D02*
Y-25300D01*
X1600Y-25500D02*
X2000D01*
X-9550Y-26300D02*
X-9050D01*
X-9550Y-26700D02*
X-9050D01*
X13100Y-18300D02*
Y-17100D01*
X-10300Y-23900D02*
Y-23500D01*
Y-24300D02*
Y-23900D01*
X-2600Y-12400D02*
Y-12000D01*
X7300Y-14400D02*
X7700D01*
X8500Y-1600D02*
X8800Y-1900D01*
X11200Y-12000D02*
X12000D01*
X-13600Y-21300D02*
Y-20500D01*
X12600Y-15700D02*
X13400D01*
X12200D02*
X12600D01*
X1600Y-25300D02*
Y-25100D01*
Y-25500D02*
Y-25300D01*
X-9050Y-26700D02*
Y-26300D01*
X-9550Y-26700D02*
Y-26300D01*
X9050Y-26700D02*
X9550D01*
X8250D02*
Y-26300D01*
X7750Y-26700D02*
Y-26300D01*
X9550Y-26700D02*
Y-26300D01*
X9050D02*
X9550D01*
X9050Y-26700D02*
Y-26300D01*
X5100Y-1100D02*
X5500D01*
X-10800Y-21400D02*
Y-20600D01*
X-8000Y-2200D02*
X-7600D01*
X5750Y-14100D02*
X6150D01*
X9800Y-11500D02*
Y-11400D01*
Y-11100D01*
X9350Y-5600D02*
X9800D01*
X10150D01*
D80*
X-750Y-26700D02*
Y-25650D01*
X2750Y-28750D02*
Y-27000D01*
X750Y-28750D02*
Y-27000D01*
X-750Y-28750D02*
Y-26700D01*
X-2250Y-28750D02*
Y-27000D01*
X-9550Y-26700D02*
X-9250Y-27000D01*
X-8750Y-28750D02*
Y-27000D01*
X-9050Y-26700D02*
X-8750Y-27000D01*
X-9250Y-28750D02*
Y-27000D01*
X6800Y-26800D02*
X7250Y-27250D01*
Y-28750D02*
Y-27250D01*
X6750Y-26850D02*
X6800Y-26800D01*
X6750Y-28750D02*
Y-26850D01*
X9250Y-27000D02*
X9550Y-26700D01*
X9250Y-28750D02*
Y-27000D01*
X8750D02*
X9050Y-26700D01*
X8750Y-28750D02*
Y-27000D01*
X8250Y-28750D02*
Y-26700D01*
X7750Y-28750D02*
Y-26700D01*
X11900Y-23000D02*
Y-20400D01*
D81*
X-7550Y-20450D02*
X-7550Y-20450D01*
X-7550Y-20900D02*
Y-20450D01*
X3000Y-9500D02*
Y-8200D01*
X2400Y-10100D02*
X3000Y-9500D01*
X1850Y-10100D02*
X2400D01*
X-3750Y-22050D02*
Y-21350D01*
Y-22050D02*
X-3400Y-22400D01*
X-1400D01*
X-1200Y-22200D01*
X-2100Y-21200D02*
X-2000Y-21300D01*
X-2100Y-21200D02*
X-2100Y-21200D01*
X-1200D01*
X-2000Y-21700D02*
Y-21300D01*
X11400Y-14900D02*
X12200Y-15700D01*
X10650Y-14900D02*
X11400D01*
X8950Y-16100D02*
Y-14900D01*
X7900Y-16100D02*
X8950D01*
X12900Y-22950D02*
X13400D01*
X12850Y-24000D02*
X12900Y-24050D01*
X11900Y-24000D02*
X12850D01*
X6000Y-18000D02*
X7900Y-16100D01*
X8950D02*
X8950Y-16100D01*
D82*
X-1800Y-8200D02*
X-300D01*
X-3100Y-9500D02*
X-1800Y-8200D01*
D83*
X-1250Y-28750D02*
Y-27000D01*
X-1750Y-28750D02*
Y-26700D01*
X-7850Y-8600D02*
Y-7550D01*
X-8350Y-8400D02*
Y-7550D01*
D84*
X6000Y-20300D02*
X11800D01*
D85*
X-11450Y-21900D02*
Y-20700D01*
X-12900Y-23100D02*
Y-21950D01*
X-12950Y-21900D02*
Y-20700D01*
D86*
X-2873Y-396D02*
G03*
X2873Y-396I2873J396D01*
G01*
D87*
X15000Y-4980D02*
D03*
Y-6250D02*
D03*
Y-20220D02*
D03*
Y-18950D02*
D03*
Y-17680D02*
D03*
Y-16410D02*
D03*
Y-2440D02*
D03*
Y-3710D02*
D03*
Y-15140D02*
D03*
Y-13870D02*
D03*
Y-21490D02*
D03*
Y-22760D02*
D03*
Y-24030D02*
D03*
Y-25300D02*
D03*
X15000Y-1167D02*
D03*
D88*
X12800Y-13900D02*
D03*
X-10000Y-2500D02*
D03*
D89*
X0Y0D02*
D03*
D90*
X-15000Y-17680D02*
D03*
Y-18950D02*
D03*
Y-15140D02*
D03*
Y-16410D02*
D03*
Y-11330D02*
D03*
Y-13870D02*
D03*
Y-12600D02*
D03*
Y-1170D02*
D03*
Y-2440D02*
D03*
Y-3710D02*
D03*
Y-4980D02*
D03*
Y-6250D02*
D03*
Y-7520D02*
D03*
Y-8790D02*
D03*
Y-10060D02*
D03*
D91*
X-6700Y-24400D02*
D03*
X-7400D02*
D03*
X-13100Y-25800D02*
D03*
Y-25400D02*
D03*
X1250Y-26700D02*
D03*
X2750Y-27000D02*
D03*
X2250Y-26700D02*
D03*
X1750Y-27000D02*
D03*
X-9300Y-4200D02*
D03*
X-7000Y-3850D02*
D03*
X-250Y-27000D02*
D03*
X250Y-26700D02*
D03*
X750Y-27000D02*
D03*
X-6850Y-8400D02*
D03*
X-7700Y-6400D02*
D03*
X-9350Y-20500D02*
D03*
X-7200Y-17300D02*
D03*
X11400Y-11400D02*
D03*
X-2600Y-12400D02*
D03*
X4000Y-22000D02*
D03*
X8100Y-16900D02*
D03*
X13900Y-19600D02*
D03*
X13100Y-21600D02*
D03*
X7700Y-14400D02*
D03*
X7300D02*
D03*
X-13500Y-24000D02*
D03*
Y-24400D02*
D03*
X8500Y-1600D02*
D03*
X5500Y-1100D02*
D03*
X5100D02*
D03*
X5800Y-10500D02*
D03*
X5100Y-9700D02*
D03*
X-10300Y-23900D02*
D03*
Y-24300D02*
D03*
Y-23500D02*
D03*
X-7200Y-18000D02*
D03*
X5300Y-3700D02*
D03*
X-1300Y-4600D02*
D03*
X4300Y-16700D02*
D03*
X3400D02*
D03*
X-1700Y-13600D02*
D03*
X1300Y-16500D02*
D03*
X3000Y-8200D02*
D03*
X1500Y-10800D02*
D03*
X3300Y-11400D02*
D03*
X-2900Y-5300D02*
D03*
X3300Y-2300D02*
D03*
X8800Y-1900D02*
D03*
X4300Y-19200D02*
D03*
X5000D02*
D03*
X2300Y-8400D02*
D03*
X900Y-7700D02*
D03*
X2735Y-7034D02*
D03*
X2700Y-5900D02*
D03*
X7100Y-8600D02*
D03*
X-3100Y-9500D02*
D03*
X-2200Y-5000D02*
D03*
X8800Y-2500D02*
D03*
X3300Y-20600D02*
D03*
X2000Y-17000D02*
D03*
X-1750Y-6200D02*
D03*
X-500Y-9100D02*
D03*
X-800Y-7500D02*
D03*
X3300Y-23100D02*
D03*
X2400Y-18400D02*
D03*
X-3100Y-16800D02*
D03*
X-3000Y-15500D02*
D03*
X1000Y-23100D02*
D03*
X11300Y-23500D02*
D03*
X10400D02*
D03*
X7300Y-23900D02*
D03*
X2000Y-25100D02*
D03*
Y-25500D02*
D03*
X1600D02*
D03*
Y-25100D02*
D03*
X-750Y-26700D02*
D03*
X-1250Y-27000D02*
D03*
X-1750Y-26700D02*
D03*
X-2250Y-27000D02*
D03*
X-2750Y-26700D02*
D03*
X-3250Y-27000D02*
D03*
X-3750Y-26700D02*
D03*
X-4250Y-27000D02*
D03*
X-4750Y-26700D02*
D03*
X-9050Y-26700D02*
D03*
X-9550D02*
D03*
X-9050Y-26300D02*
D03*
X-9550D02*
D03*
X7750Y-26700D02*
D03*
X8250D02*
D03*
X7750Y-26300D02*
D03*
X8250D02*
D03*
X9550D02*
D03*
X9050D02*
D03*
X9550Y-26700D02*
D03*
X9050D02*
D03*
X8000Y-23900D02*
D03*
X13400Y-22950D02*
D03*
X-8000Y-2200D02*
D03*
X900Y-10700D02*
D03*
X-1300Y-13900D02*
D03*
X13400Y-15700D02*
D03*
X12200D02*
D03*
X12600D02*
D03*
X13000D02*
D03*
X13100Y-18300D02*
D03*
Y-17500D02*
D03*
Y-17900D02*
D03*
Y-17100D02*
D03*
X-6400Y-20000D02*
D03*
X-7550Y-20450D02*
D03*
X-10500Y-20000D02*
D03*
X-10800Y-21400D02*
D03*
Y-21000D02*
D03*
Y-20600D02*
D03*
X-13600Y-21300D02*
D03*
Y-20900D02*
D03*
Y-20500D02*
D03*
X500Y-21500D02*
D03*
X0Y-21300D02*
D03*
X-8150Y-20300D02*
D03*
X-8850Y-20200D02*
D03*
X-600Y-6200D02*
D03*
X-3300Y-8700D02*
D03*
X-5500Y-16500D02*
D03*
X1400Y-19000D02*
D03*
X-2600Y-12000D02*
D03*
X-5700Y-13700D02*
D03*
X-5200Y-15700D02*
D03*
X-3500Y-11200D02*
D03*
Y-13000D02*
D03*
Y-14600D02*
D03*
X-3100Y-14100D02*
D03*
X-1900Y-17000D02*
D03*
X-1400Y-17200D02*
D03*
X-1800Y-10400D02*
D03*
X-1300Y-10400D02*
D03*
X-9400Y-8800D02*
D03*
X-8900Y-11100D02*
D03*
X-8200Y-10800D02*
D03*
X-12800Y-10700D02*
D03*
X-3500Y-4100D02*
D03*
X-7600Y-2200D02*
D03*
X-9700Y-5900D02*
D03*
X-10900Y-14950D02*
D03*
Y-13800D02*
D03*
X-7850Y-8600D02*
D03*
X-11000Y-11050D02*
D03*
X-8350Y-8400D02*
D03*
X-10800Y-11550D02*
D03*
X-10600Y-10450D02*
D03*
X-11000Y-12050D02*
D03*
X-8500Y-12400D02*
D03*
X-3750Y-20700D02*
D03*
X-4850Y-20700D02*
D03*
X-2000Y-21700D02*
D03*
X-6000D02*
D03*
X-7099Y-15953D02*
D03*
X-6500Y-9500D02*
D03*
X-6600Y-11600D02*
D03*
X-12600Y-17850D02*
D03*
X-8399Y-17301D02*
D03*
X-13000Y-16300D02*
D03*
X-12850Y-18700D02*
D03*
X-10450Y-5900D02*
D03*
X5750Y-14100D02*
D03*
X9800Y-11500D02*
D03*
X6150Y-14100D02*
D03*
X7400Y-12400D02*
D03*
X8700Y-11800D02*
D03*
X7300Y-9200D02*
D03*
X10150Y-5600D02*
D03*
X9800Y-8000D02*
D03*
X7500Y-7900D02*
D03*
X7600Y-7300D02*
D03*
Y-6100D02*
D03*
X9350Y-5600D02*
D03*
X9750D02*
D03*
X7500Y-5500D02*
D03*
X9800Y-11100D02*
D03*
X9864Y-12723D02*
D03*
X11200Y-12000D02*
D03*
X11600D02*
D03*
X12000D02*
D03*
X11400Y-10850D02*
D03*
X12000Y-8400D02*
D03*
X10200Y-2800D02*
D03*
X10500Y-8000D02*
D03*
X12400Y-6350D02*
D03*
Y-5800D02*
D03*
X11085Y-5782D02*
D03*
X12400Y-5250D02*
D03*
Y-4700D02*
D03*
X11600Y-3600D02*
D03*
X12100Y-3300D02*
D03*
X11100Y-7800D02*
D03*
X5300Y-7800D02*
D03*
Y-7200D02*
D03*
Y-6600D02*
D03*
X5600Y-6000D02*
D03*
X6500Y-4450D02*
D03*
X8000Y-8100D02*
D03*
X9200D02*
D03*
X5300Y-8400D02*
D03*
X8600Y-8100D02*
D03*
M02*
