G04*
G04 #@! TF.GenerationSoftware,Altium Limited,Altium Designer,24.9.1 (31)*
G04*
G04 Layer_Physical_Order=3*
G04 Layer_Color=36540*
%FSLAX43Y43*%
%MOMM*%
G71*
G04*
G04 #@! TF.SameCoordinates,EB6F8884-3A13-42B7-98C6-1BA732C3788B*
G04*
G04*
G04 #@! TF.FilePolarity,Positive*
G04*
G01*
G75*
%ADD14C,0.150*%
%ADD79C,0.400*%
%ADD80C,0.350*%
%ADD82C,0.140*%
%ADD83C,0.130*%
%ADD86C,0.700*%
%AMCUSTOMSHAPE87*
4,1,6,0.000,0.500,0.000,-0.500,-0.500,-0.500,-0.600,-0.400,-0.600,0.400,-0.500,0.500,0.000,0.500,0.0*%
%ADD87CUSTOMSHAPE87*%

%ADD88C,1.000*%
%ADD89C,5.500*%
%AMCUSTOMSHAPE90*
4,1,6,0.000,-0.500,0.000,0.500,0.500,0.500,0.600,0.400,0.600,-0.400,0.500,-0.500,0.000,-0.500,0.0*%
%ADD90CUSTOMSHAPE90*%

%ADD91C,0.400*%
G36*
X14913Y-30D02*
X14970Y-87D01*
X15000Y-160D01*
Y-200D01*
Y-1200D01*
X14500D01*
X14431Y-1131D01*
Y-1367D01*
X14145D01*
Y-1567D01*
X14165Y-1665D01*
X14148Y-1788D01*
X14070Y-1903D01*
X14043Y-2040D01*
Y-2840D01*
X14070Y-2977D01*
X14136Y-3075D01*
X14070Y-3173D01*
X14043Y-3310D01*
Y-3490D01*
X13743Y-3637D01*
X13717Y-3617D01*
X13700Y-3534D01*
X13606Y-3394D01*
X12606Y-2394D01*
X12466Y-2300D01*
X12300Y-2267D01*
X11700D01*
X11534Y-2300D01*
X11394Y-2394D01*
X11049Y-2738D01*
X10736Y-2656D01*
X10680Y-2523D01*
X10592Y-2408D01*
X10477Y-2320D01*
X10344Y-2264D01*
X10200Y-2245D01*
X10056Y-2264D01*
X9923Y-2320D01*
X9808Y-2408D01*
X9720Y-2523D01*
X9664Y-2656D01*
X9645Y-2800D01*
X9664Y-2944D01*
X9674Y-2967D01*
X9539Y-3224D01*
X9519Y-3240D01*
X9207Y-3201D01*
X9094Y-2998D01*
X9095Y-2967D01*
X9192Y-2892D01*
X9280Y-2777D01*
X9336Y-2644D01*
X9355Y-2500D01*
X9336Y-2356D01*
X9280Y-2223D01*
X9192Y-2108D01*
X9077Y-2020D01*
X8944Y-1964D01*
X8800Y-1945D01*
X8656Y-1964D01*
X8523Y-2020D01*
X8408Y-2108D01*
X8320Y-2223D01*
X8264Y-2356D01*
X8245Y-2500D01*
X8264Y-2644D01*
X8320Y-2777D01*
X8408Y-2892D01*
X8473Y-2942D01*
X8371Y-3164D01*
X8112Y-3199D01*
X7306Y-2394D01*
X7166Y-2300D01*
X7000Y-2267D01*
X4500D01*
X4334Y-2300D01*
X4194Y-2394D01*
X3421Y-3167D01*
X946D01*
X910Y-2867D01*
X930Y-2862D01*
X1366Y-2681D01*
X1769Y-2435D01*
X1975Y-2258D01*
X1776Y-2059D01*
X2059Y-1776D01*
X2258Y-1975D01*
X2435Y-1769D01*
X2681Y-1366D01*
X2862Y-930D01*
X2963Y-510D01*
X4496D01*
X4629Y-810D01*
X4620Y-823D01*
X4564Y-956D01*
X4545Y-1100D01*
X4564Y-1244D01*
X4620Y-1377D01*
X4708Y-1492D01*
X4823Y-1580D01*
X4956Y-1636D01*
X5100Y-1655D01*
X5500D01*
X5644Y-1636D01*
X5777Y-1580D01*
X5892Y-1492D01*
X5980Y-1377D01*
X6036Y-1244D01*
X6055Y-1100D01*
X6036Y-956D01*
X5980Y-823D01*
X5971Y-810D01*
X6104Y-510D01*
X13685D01*
X13647Y-502D01*
X13600Y-500D01*
X-13600D01*
X-13647Y-502D01*
X-13685Y-510D01*
X-2963D01*
X-2862Y-930D01*
X-2681Y-1366D01*
X-2435Y-1769D01*
X-2258Y-1975D01*
X-2059Y-1776D01*
X-1776Y-2059D01*
X-1975Y-2258D01*
X-1769Y-2435D01*
X-1366Y-2681D01*
X-930Y-2862D01*
X-910Y-2867D01*
X-946Y-3167D01*
X-4900D01*
X-5066Y-3200D01*
X-5206Y-3294D01*
X-7767Y-5854D01*
X-7844Y-5864D01*
X-7977Y-5920D01*
X-8092Y-6008D01*
X-8180Y-6123D01*
X-8236Y-6256D01*
X-8246Y-6333D01*
X-10679Y-8767D01*
X-12800D01*
X-12966Y-8800D01*
X-13106Y-8894D01*
X-13657Y-9444D01*
X-13992Y-9383D01*
X-14062Y-9287D01*
X-14043Y-9190D01*
Y-8390D01*
X-14070Y-8253D01*
X-14136Y-8155D01*
X-14070Y-8057D01*
X-14043Y-7920D01*
Y-7120D01*
X-14070Y-6983D01*
X-14136Y-6885D01*
X-14070Y-6787D01*
X-14043Y-6650D01*
Y-5850D01*
X-14070Y-5713D01*
X-14136Y-5615D01*
X-14070Y-5517D01*
X-14043Y-5380D01*
Y-4580D01*
X-14070Y-4443D01*
X-14136Y-4345D01*
X-14070Y-4247D01*
X-14043Y-4110D01*
Y-3310D01*
X-14070Y-3173D01*
X-14136Y-3075D01*
X-14070Y-2977D01*
X-14043Y-2840D01*
Y-2040D01*
X-14070Y-1903D01*
X-14148Y-1788D01*
X-14165Y-1668D01*
X-14145Y-1570D01*
Y-1370D01*
X-14431D01*
Y-1131D01*
X-14500Y-1200D01*
X-15000D01*
Y-241D01*
Y-193D01*
X-14963Y-104D01*
X-14896Y-37D01*
X-14807Y0D01*
X14840D01*
X14913Y-30D01*
D02*
G37*
G36*
X12257Y-4840D02*
X12244Y-4828D01*
X12230Y-4817D01*
X12216Y-4807D01*
X12201Y-4798D01*
X12185Y-4791D01*
X12168Y-4785D01*
X12151Y-4781D01*
X12133Y-4778D01*
X12114Y-4776D01*
X12095Y-4775D01*
Y-4625D01*
X12114Y-4624D01*
X12133Y-4622D01*
X12151Y-4619D01*
X12168Y-4615D01*
X12185Y-4609D01*
X12201Y-4602D01*
X12216Y-4593D01*
X12230Y-4583D01*
X12244Y-4572D01*
X12257Y-4560D01*
Y-4840D01*
D02*
G37*
G36*
X-1172Y-4756D02*
X-1183Y-4770D01*
X-1193Y-4784D01*
X-1202Y-4799D01*
X-1209Y-4815D01*
X-1215Y-4832D01*
X-1219Y-4849D01*
X-1222Y-4867D01*
X-1224Y-4886D01*
X-1225Y-4905D01*
X-1375D01*
X-1376Y-4886D01*
X-1378Y-4867D01*
X-1381Y-4849D01*
X-1385Y-4832D01*
X-1391Y-4815D01*
X-1398Y-4799D01*
X-1407Y-4784D01*
X-1417Y-4770D01*
X-1428Y-4756D01*
X-1440Y-4743D01*
X-1160D01*
X-1172Y-4756D01*
D02*
G37*
G36*
X14406Y-5150D02*
X14405Y-5136D01*
X14400Y-5123D01*
X14393Y-5112D01*
X14382Y-5102D01*
X14368Y-5094D01*
X14351Y-5087D01*
X14331Y-5082D01*
X14308Y-5078D01*
X14282Y-5076D01*
X14253Y-5075D01*
Y-4925D01*
X14282Y-4924D01*
X14308Y-4922D01*
X14331Y-4918D01*
X14351Y-4913D01*
X14368Y-4906D01*
X14382Y-4898D01*
X14393Y-4888D01*
X14400Y-4877D01*
X14405Y-4864D01*
X14406Y-4850D01*
Y-5150D01*
D02*
G37*
G36*
X-2060Y-5143D02*
X-2072Y-5156D01*
X-2083Y-5170D01*
X-2093Y-5184D01*
X-2102Y-5199D01*
X-2109Y-5215D01*
X-2115Y-5232D01*
X-2119Y-5249D01*
X-2122Y-5267D01*
X-2124Y-5286D01*
X-2125Y-5305D01*
X-2275Y-5305D01*
X-2276Y-5286D01*
X-2278Y-5267D01*
X-2281Y-5249D01*
X-2285Y-5232D01*
X-2291Y-5215D01*
X-2298Y-5199D01*
X-2307Y-5184D01*
X-2317Y-5170D01*
X-2328Y-5156D01*
X-2340Y-5143D01*
X-2060Y-5143D01*
D02*
G37*
G36*
X12257Y-5940D02*
X12244Y-5928D01*
X12230Y-5917D01*
X12216Y-5907D01*
X12201Y-5898D01*
X12185Y-5891D01*
X12168Y-5885D01*
X12151Y-5881D01*
X12133Y-5878D01*
X12114Y-5876D01*
X12095Y-5875D01*
Y-5725D01*
X12114Y-5724D01*
X12133Y-5722D01*
X12151Y-5719D01*
X12168Y-5715D01*
X12185Y-5709D01*
X12201Y-5702D01*
X12216Y-5693D01*
X12230Y-5683D01*
X12244Y-5672D01*
X12257Y-5660D01*
Y-5940D01*
D02*
G37*
G36*
X2830Y-6052D02*
X2774Y-6100D01*
X2648Y-6223D01*
X2662Y-6258D01*
X2639Y-6266D01*
X2626Y-6267D01*
X2621Y-6261D01*
X2625Y-6250D01*
X2638Y-6233D01*
X2648Y-6223D01*
X2611Y-6128D01*
X2615Y-6125D01*
X2617Y-6121D01*
X2617Y-6116D01*
X2615Y-6110D01*
X2611Y-6102D01*
X2605Y-6093D01*
X2597Y-6082D01*
X2574Y-6057D01*
X2560Y-6043D01*
X2830Y-6052D01*
D02*
G37*
G36*
X14406Y-6303D02*
X14405Y-6298D01*
X14402Y-6293D01*
X14397Y-6289D01*
X14389Y-6285D01*
X14380Y-6282D01*
X14368Y-6280D01*
X14354Y-6278D01*
X14338Y-6276D01*
X14300Y-6275D01*
Y-6125D01*
X14320Y-6125D01*
X14354Y-6122D01*
X14368Y-6120D01*
X14380Y-6118D01*
X14389Y-6115D01*
X14397Y-6111D01*
X14402Y-6107D01*
X14405Y-6102D01*
X14406Y-6097D01*
Y-6303D01*
D02*
G37*
G36*
X-7431Y-6237D02*
X-7444Y-6251D01*
X-7456Y-6266D01*
X-7467Y-6281D01*
X-7476Y-6296D01*
X-7483Y-6312D01*
X-7489Y-6329D01*
X-7494Y-6345D01*
X-7498Y-6362D01*
X-7499Y-6380D01*
X-7500Y-6398D01*
X-7698Y-6200D01*
X-7680Y-6199D01*
X-7662Y-6198D01*
X-7645Y-6194D01*
X-7629Y-6189D01*
X-7612Y-6183D01*
X-7596Y-6176D01*
X-7581Y-6167D01*
X-7566Y-6156D01*
X-7551Y-6144D01*
X-7537Y-6131D01*
X-7431Y-6237D01*
D02*
G37*
G36*
X12398Y-6550D02*
X12380Y-6551D01*
X12362Y-6552D01*
X12345Y-6556D01*
X12329Y-6561D01*
X12312Y-6567D01*
X12296Y-6574D01*
X12281Y-6583D01*
X12266Y-6594D01*
X12251Y-6606D01*
X12237Y-6619D01*
X12131Y-6513D01*
X12144Y-6499D01*
X12156Y-6484D01*
X12167Y-6469D01*
X12176Y-6454D01*
X12183Y-6438D01*
X12189Y-6421D01*
X12194Y-6405D01*
X12198Y-6388D01*
X12199Y-6370D01*
X12200Y-6352D01*
X12398Y-6550D01*
D02*
G37*
G36*
X-7702Y-6600D02*
X-7720Y-6601D01*
X-7738Y-6602D01*
X-7755Y-6606D01*
X-7771Y-6611D01*
X-7788Y-6617D01*
X-7804Y-6624D01*
X-7819Y-6633D01*
X-7834Y-6644D01*
X-7849Y-6656D01*
X-7863Y-6669D01*
X-7969Y-6563D01*
X-7956Y-6549D01*
X-7944Y-6534D01*
X-7933Y-6519D01*
X-7924Y-6504D01*
X-7917Y-6488D01*
X-7911Y-6471D01*
X-7906Y-6455D01*
X-7902Y-6438D01*
X-7901Y-6420D01*
X-7900Y-6402D01*
X-7702Y-6600D01*
D02*
G37*
G36*
X5456Y-6472D02*
X5470Y-6483D01*
X5484Y-6493D01*
X5499Y-6502D01*
X5515Y-6509D01*
X5532Y-6515D01*
X5549Y-6519D01*
X5567Y-6522D01*
X5586Y-6524D01*
X5605Y-6525D01*
Y-6675D01*
X5586Y-6676D01*
X5567Y-6678D01*
X5549Y-6681D01*
X5532Y-6685D01*
X5515Y-6691D01*
X5499Y-6698D01*
X5484Y-6707D01*
X5470Y-6717D01*
X5456Y-6728D01*
X5443Y-6740D01*
Y-6460D01*
X5456Y-6472D01*
D02*
G37*
G36*
X2806Y-6755D02*
X2809Y-6791D01*
X2813Y-6807D01*
X2817Y-6821D01*
X2822Y-6834D01*
X2828Y-6845D01*
X2834Y-6855D01*
X2842Y-6864D01*
X2851Y-6871D01*
X2620D01*
X2628Y-6864D01*
X2636Y-6855D01*
X2643Y-6845D01*
X2649Y-6834D01*
X2654Y-6821D01*
X2658Y-6807D01*
X2661Y-6791D01*
X2663Y-6774D01*
X2665Y-6755D01*
X2665Y-6735D01*
X2805D01*
X2806Y-6755D01*
D02*
G37*
G36*
X5456Y-7072D02*
X5470Y-7083D01*
X5484Y-7093D01*
X5499Y-7102D01*
X5515Y-7109D01*
X5532Y-7115D01*
X5549Y-7119D01*
X5567Y-7122D01*
X5586Y-7124D01*
X5605Y-7125D01*
Y-7275D01*
X5586Y-7276D01*
X5567Y-7278D01*
X5549Y-7281D01*
X5532Y-7285D01*
X5515Y-7291D01*
X5499Y-7298D01*
X5484Y-7307D01*
X5470Y-7317D01*
X5456Y-7328D01*
X5443Y-7340D01*
Y-7060D01*
X5456Y-7072D01*
D02*
G37*
G36*
X7438Y-7417D02*
X7430Y-7408D01*
X7421Y-7400D01*
X7411Y-7393D01*
X7399Y-7387D01*
X7386Y-7382D01*
X7372Y-7377D01*
X7356Y-7374D01*
X7339Y-7372D01*
X7320Y-7370D01*
X7300Y-7370D01*
Y-7230D01*
X7320Y-7230D01*
X7356Y-7226D01*
X7372Y-7223D01*
X7386Y-7218D01*
X7399Y-7213D01*
X7411Y-7207D01*
X7421Y-7200D01*
X7430Y-7192D01*
X7438Y-7183D01*
Y-7417D01*
D02*
G37*
G36*
X-674Y-7658D02*
X-687Y-7673D01*
X-698Y-7689D01*
X-708Y-7705D01*
X-716Y-7721D01*
X-723Y-7738D01*
X-728Y-7755D01*
X-732Y-7773D01*
X-734Y-7791D01*
X-735Y-7809D01*
X-865D01*
X-866Y-7791D01*
X-868Y-7773D01*
X-872Y-7755D01*
X-877Y-7738D01*
X-884Y-7721D01*
X-892Y-7705D01*
X-902Y-7689D01*
X-913Y-7673D01*
X-926Y-7658D01*
X-940Y-7643D01*
X-660D01*
X-674Y-7658D01*
D02*
G37*
G36*
X5469Y-7691D02*
X5478Y-7698D01*
X5487Y-7705D01*
X5499Y-7710D01*
X5512Y-7715D01*
X5526Y-7718D01*
X5542Y-7721D01*
X5560Y-7723D01*
X5579Y-7725D01*
X5600Y-7725D01*
Y-7875D01*
X5579Y-7875D01*
X5542Y-7879D01*
X5526Y-7882D01*
X5512Y-7885D01*
X5499Y-7890D01*
X5487Y-7895D01*
X5478Y-7902D01*
X5469Y-7909D01*
X5462Y-7917D01*
Y-7683D01*
X5469Y-7691D01*
D02*
G37*
G36*
X1100Y-7721D02*
X1102Y-7740D01*
X1106Y-7758D01*
X1110Y-7776D01*
X1116Y-7792D01*
X1124Y-7809D01*
X1132Y-7824D01*
X1142Y-7839D01*
X1154Y-7854D01*
X1167Y-7868D01*
X1068Y-7967D01*
X1054Y-7954D01*
X1039Y-7942D01*
X1024Y-7932D01*
X1009Y-7924D01*
X992Y-7916D01*
X976Y-7910D01*
X958Y-7906D01*
X940Y-7902D01*
X921Y-7900D01*
X902Y-7900D01*
X1100Y-7702D01*
X1100Y-7721D01*
D02*
G37*
G36*
X7627Y-8057D02*
X7615Y-8071D01*
X7604Y-8086D01*
X7595Y-8102D01*
X7588Y-8118D01*
X7581Y-8135D01*
X7576Y-8152D01*
X7573Y-8170D01*
X7571Y-8188D01*
X7570Y-8207D01*
X7430D01*
X7429Y-8188D01*
X7427Y-8170D01*
X7424Y-8152D01*
X7419Y-8135D01*
X7412Y-8118D01*
X7405Y-8102D01*
X7396Y-8086D01*
X7385Y-8071D01*
X7373Y-8057D01*
X7360Y-8043D01*
X7640D01*
X7627Y-8057D01*
D02*
G37*
G36*
X-6581Y-8237D02*
X-6594Y-8251D01*
X-6606Y-8266D01*
X-6617Y-8281D01*
X-6626Y-8296D01*
X-6633Y-8312D01*
X-6639Y-8329D01*
X-6644Y-8345D01*
X-6648Y-8362D01*
X-6649Y-8380D01*
X-6650Y-8398D01*
X-6848Y-8200D01*
X-6830Y-8200D01*
X-6812Y-8198D01*
X-6795Y-8194D01*
X-6779Y-8189D01*
X-6762Y-8183D01*
X-6746Y-8176D01*
X-6731Y-8167D01*
X-6716Y-8156D01*
X-6701Y-8144D01*
X-6687Y-8131D01*
X-6581Y-8237D01*
D02*
G37*
G36*
X8727Y-8257D02*
X8715Y-8271D01*
X8704Y-8286D01*
X8695Y-8302D01*
X8688Y-8318D01*
X8681Y-8335D01*
X8676Y-8352D01*
X8673Y-8370D01*
X8671Y-8388D01*
X8670Y-8407D01*
X8530D01*
X8529Y-8388D01*
X8527Y-8370D01*
X8524Y-8352D01*
X8519Y-8335D01*
X8512Y-8318D01*
X8505Y-8302D01*
X8496Y-8286D01*
X8485Y-8271D01*
X8473Y-8257D01*
X8460Y-8243D01*
X8740D01*
X8727Y-8257D01*
D02*
G37*
G36*
X8131Y-8253D02*
X8125Y-8263D01*
X8122Y-8274D01*
X8120Y-8286D01*
X8122Y-8298D01*
X8126Y-8311D01*
X8132Y-8324D01*
X8141Y-8338D01*
X8153Y-8353D01*
X8166Y-8367D01*
X8035Y-8434D01*
X7882Y-8261D01*
X8140Y-8243D01*
X8131Y-8253D01*
D02*
G37*
G36*
X5456Y-8272D02*
X5470Y-8283D01*
X5484Y-8293D01*
X5499Y-8302D01*
X5515Y-8309D01*
X5532Y-8315D01*
X5549Y-8319D01*
X5567Y-8322D01*
X5586Y-8324D01*
X5605Y-8325D01*
Y-8475D01*
X5586Y-8476D01*
X5567Y-8478D01*
X5549Y-8481D01*
X5532Y-8485D01*
X5515Y-8491D01*
X5499Y-8498D01*
X5484Y-8507D01*
X5470Y-8517D01*
X5456Y-8528D01*
X5443Y-8540D01*
Y-8260D01*
X5456Y-8272D01*
D02*
G37*
G36*
X13294Y-5806D02*
X13994Y-6506D01*
X14043Y-6540D01*
Y-6650D01*
X14070Y-6787D01*
X14148Y-6902D01*
X14148Y-6902D01*
X14248Y-7002D01*
X14363Y-7080D01*
X14490Y-7105D01*
Y-12913D01*
X14324Y-12946D01*
X14176Y-13046D01*
X14176Y-13046D01*
X14076Y-13146D01*
X13976Y-13294D01*
X13941Y-13470D01*
Y-14270D01*
X13976Y-14446D01*
X14016Y-14505D01*
X13976Y-14564D01*
X13941Y-14740D01*
Y-15540D01*
X13976Y-15716D01*
X14076Y-15864D01*
X14070Y-15873D01*
X14043Y-16010D01*
Y-16810D01*
X14070Y-16947D01*
X14136Y-17045D01*
X14070Y-17143D01*
X14043Y-17280D01*
Y-18080D01*
X14070Y-18217D01*
X14136Y-18315D01*
X14070Y-18413D01*
X14043Y-18550D01*
Y-19350D01*
X14070Y-19487D01*
X14136Y-19585D01*
X14070Y-19683D01*
X14043Y-19820D01*
Y-20620D01*
X14070Y-20757D01*
X14148Y-20872D01*
X14165Y-20992D01*
X14145Y-21090D01*
Y-21290D01*
X14431D01*
Y-21690D01*
X14145D01*
Y-21890D01*
X14165Y-21988D01*
X14204Y-22125D01*
X14165Y-22262D01*
X14145Y-22360D01*
Y-22560D01*
X14431D01*
Y-22960D01*
X14145D01*
Y-23160D01*
X14165Y-23258D01*
X14148Y-23378D01*
X14070Y-23493D01*
X14043Y-23630D01*
Y-24430D01*
X14070Y-24567D01*
X14136Y-24665D01*
X14070Y-24763D01*
X14043Y-24900D01*
Y-25700D01*
X14070Y-25837D01*
X14140Y-25940D01*
X14129Y-25991D01*
X14011Y-26240D01*
X10425D01*
X10400Y-26245D01*
X10375Y-26243D01*
X10277Y-26252D01*
X10206Y-26274D01*
X10132Y-26289D01*
X9952Y-26363D01*
X9787Y-26474D01*
X9649Y-26612D01*
X9538Y-26777D01*
X9464Y-26957D01*
X9449Y-27031D01*
X9427Y-27103D01*
X9418Y-27200D01*
X9420Y-27225D01*
X9415Y-27250D01*
Y-29490D01*
X6735Y-29490D01*
Y-27100D01*
X6730Y-27075D01*
X6732Y-27050D01*
X6721Y-26933D01*
X6699Y-26861D01*
X6684Y-26788D01*
X6595Y-26572D01*
X6484Y-26406D01*
X6319Y-26241D01*
X6153Y-26130D01*
X5937Y-26041D01*
X5742Y-26002D01*
X5508D01*
X5313Y-26041D01*
X5096Y-26130D01*
X4931Y-26241D01*
X4766Y-26406D01*
X4655Y-26572D01*
X4565Y-26788D01*
X4551Y-26861D01*
X4529Y-26933D01*
X4518Y-27050D01*
X4520Y-27075D01*
X4515Y-27100D01*
Y-29490D01*
X-5015Y-29490D01*
X-5015Y-27486D01*
X-4964Y-27441D01*
X-4642Y-27392D01*
X-4527Y-27480D01*
X-4394Y-27536D01*
X-4250Y-27555D01*
X-4106Y-27536D01*
X-3973Y-27480D01*
X-3858Y-27392D01*
X-3642D01*
X-3527Y-27480D01*
X-3394Y-27536D01*
X-3250Y-27555D01*
X-3106Y-27536D01*
X-2973Y-27480D01*
X-2858Y-27392D01*
X-2770Y-27277D01*
X-2760Y-27253D01*
X-2750Y-27255D01*
X-2606Y-27236D01*
X-2473Y-27180D01*
X-2239Y-27165D01*
X-2101Y-27250D01*
X-2078Y-27268D01*
X-1920Y-27333D01*
X-1802Y-27349D01*
X-1714Y-27464D01*
X-1578Y-27568D01*
X-1420Y-27633D01*
X-1250Y-27656D01*
X-1080Y-27633D01*
X-922Y-27568D01*
X-899Y-27550D01*
X-642Y-27392D01*
X-527Y-27480D01*
X-394Y-27536D01*
X-250Y-27555D01*
X-106Y-27536D01*
X27Y-27480D01*
X142Y-27392D01*
X230Y-27277D01*
X240Y-27253D01*
X250Y-27255D01*
X394Y-27236D01*
X527Y-27180D01*
X540Y-27171D01*
X858Y-27092D01*
X973Y-27180D01*
X1106Y-27236D01*
X1250Y-27255D01*
X1260Y-27253D01*
X1270Y-27277D01*
X1358Y-27392D01*
X1473Y-27480D01*
X1606Y-27536D01*
X1750Y-27555D01*
X1894Y-27536D01*
X2027Y-27480D01*
X2142Y-27392D01*
X2230Y-27277D01*
X2240Y-27253D01*
X2250Y-27255D01*
X2394Y-27236D01*
X2527Y-27180D01*
X2642Y-27092D01*
X2730Y-26977D01*
X2786Y-26844D01*
X2805Y-26700D01*
X2786Y-26556D01*
X2730Y-26423D01*
X2642Y-26308D01*
X2527Y-26220D01*
X2483Y-26201D01*
X2408Y-25947D01*
X2414Y-25864D01*
X2480Y-25777D01*
X2536Y-25644D01*
X2555Y-25500D01*
Y-25100D01*
X2536Y-24956D01*
X2480Y-24823D01*
X2392Y-24708D01*
X2277Y-24620D01*
X2144Y-24564D01*
X2000Y-24545D01*
X2000Y-24545D01*
X1600D01*
X1456Y-24564D01*
X1323Y-24620D01*
X1208Y-24708D01*
X1120Y-24823D01*
X1064Y-24956D01*
X1045Y-25100D01*
Y-25500D01*
X1064Y-25644D01*
X1120Y-25777D01*
X1177Y-25852D01*
X1144Y-26036D01*
X1082Y-26174D01*
X973Y-26220D01*
X858Y-26308D01*
X540Y-26229D01*
X527Y-26220D01*
X394Y-26164D01*
X250Y-26145D01*
X106Y-26164D01*
X-27Y-26220D01*
X-142Y-26308D01*
X-230Y-26423D01*
X-240Y-26447D01*
X-250Y-26445D01*
X-394Y-26464D01*
X-527Y-26520D01*
X-542Y-26531D01*
X-831Y-26380D01*
Y-23565D01*
X591Y-22144D01*
X670Y-22133D01*
X828Y-22068D01*
X964Y-21964D01*
X1068Y-21828D01*
X1133Y-21670D01*
X1156Y-21500D01*
X1133Y-21330D01*
X1068Y-21172D01*
X989Y-21070D01*
Y-19739D01*
X1234Y-19553D01*
X1289Y-19540D01*
X1400Y-19555D01*
X1544Y-19536D01*
X1677Y-19480D01*
X1792Y-19392D01*
X1880Y-19277D01*
X1936Y-19144D01*
X1939Y-19118D01*
X1974Y-19073D01*
X2174Y-18950D01*
X2248Y-18933D01*
X2256Y-18936D01*
X2400Y-18955D01*
X2544Y-18936D01*
X2677Y-18880D01*
X2792Y-18792D01*
X2880Y-18677D01*
X2936Y-18544D01*
X2955Y-18400D01*
X2936Y-18256D01*
X2880Y-18123D01*
X2792Y-18008D01*
X2677Y-17920D01*
X2544Y-17864D01*
X2400Y-17845D01*
X2256Y-17864D01*
X2123Y-17920D01*
X2008Y-18008D01*
X1920Y-18123D01*
X1864Y-18256D01*
X1861Y-18282D01*
X1826Y-18327D01*
X1626Y-18450D01*
X1552Y-18467D01*
X1544Y-18464D01*
X1400Y-18445D01*
X1289Y-18460D01*
X1234Y-18447D01*
X989Y-18261D01*
Y-17291D01*
X1027Y-17233D01*
X1289Y-17053D01*
X1300Y-17055D01*
X1444Y-17036D01*
X1577Y-16980D01*
X1692Y-16892D01*
X1780Y-16777D01*
X1836Y-16644D01*
X1855Y-16500D01*
X1836Y-16356D01*
X1780Y-16223D01*
X1692Y-16108D01*
X1577Y-16020D01*
X1444Y-15964D01*
X1300Y-15945D01*
X1289Y-15947D01*
X1027Y-15767D01*
X989Y-15709D01*
Y-11243D01*
X1044Y-11236D01*
X1177Y-11180D01*
X1292Y-11092D01*
X1380Y-10977D01*
X1436Y-10844D01*
X1455Y-10700D01*
X1436Y-10556D01*
X1380Y-10423D01*
X1292Y-10308D01*
X1177Y-10220D01*
X1044Y-10164D01*
X989Y-10157D01*
Y-9470D01*
X972Y-9336D01*
X920Y-9210D01*
X837Y-9103D01*
X706Y-8971D01*
X665Y-8759D01*
X817Y-8577D01*
X1153Y-8559D01*
X4197Y-11603D01*
X4336Y-11696D01*
X4500Y-11728D01*
X6800D01*
X6964Y-11696D01*
X7103Y-11603D01*
X8903Y-9803D01*
X8996Y-9664D01*
X9028Y-9500D01*
Y-8935D01*
X9200Y-8655D01*
X9344Y-8636D01*
X9477Y-8580D01*
X9578Y-8503D01*
X9656Y-8536D01*
X9800Y-8555D01*
X9944Y-8536D01*
X10077Y-8480D01*
X10150Y-8425D01*
X10223Y-8480D01*
X10356Y-8536D01*
X10500Y-8555D01*
X10644Y-8536D01*
X10777Y-8480D01*
X10892Y-8392D01*
X10980Y-8277D01*
X11036Y-8144D01*
X11055Y-8000D01*
X11036Y-7856D01*
X10980Y-7723D01*
X10912Y-7633D01*
X10934Y-7524D01*
X11027Y-7333D01*
X11850D01*
X12016Y-7300D01*
X12156Y-7206D01*
X12467Y-6896D01*
X12544Y-6886D01*
X12677Y-6830D01*
X12792Y-6742D01*
X12880Y-6627D01*
X12936Y-6494D01*
X12955Y-6350D01*
X12936Y-6206D01*
X12881Y-6075D01*
X12936Y-5944D01*
X12950Y-5833D01*
X13034Y-5784D01*
X13249Y-5740D01*
X13294Y-5806D01*
D02*
G37*
G36*
X2500Y-8421D02*
X2502Y-8440D01*
X2506Y-8458D01*
X2510Y-8476D01*
X2516Y-8492D01*
X2524Y-8509D01*
X2532Y-8524D01*
X2542Y-8539D01*
X2554Y-8554D01*
X2567Y-8568D01*
X2468Y-8667D01*
X2454Y-8654D01*
X2439Y-8642D01*
X2424Y-8632D01*
X2409Y-8624D01*
X2392Y-8616D01*
X2376Y-8610D01*
X2358Y-8606D01*
X2340Y-8602D01*
X2321Y-8600D01*
X2302Y-8600D01*
X2500Y-8402D01*
X2500Y-8421D01*
D02*
G37*
G36*
X-6852Y-8600D02*
X-6870Y-8601D01*
X-6888Y-8602D01*
X-6905Y-8606D01*
X-6921Y-8611D01*
X-6938Y-8617D01*
X-6954Y-8624D01*
X-6969Y-8633D01*
X-6984Y-8644D01*
X-6999Y-8656D01*
X-7013Y-8669D01*
X-7119Y-8563D01*
X-7106Y-8549D01*
X-7094Y-8534D01*
X-7083Y-8519D01*
X-7074Y-8504D01*
X-7067Y-8488D01*
X-7061Y-8471D01*
X-7056Y-8455D01*
X-7052Y-8438D01*
X-7051Y-8420D01*
X-7050Y-8402D01*
X-6852Y-8600D01*
D02*
G37*
G36*
X7098Y-8800D02*
X7079Y-8800D01*
X7060Y-8802D01*
X7042Y-8806D01*
X7024Y-8810D01*
X7008Y-8816D01*
X6991Y-8824D01*
X6976Y-8832D01*
X6961Y-8842D01*
X6946Y-8854D01*
X6932Y-8867D01*
X6833Y-8768D01*
X6846Y-8754D01*
X6858Y-8739D01*
X6868Y-8724D01*
X6876Y-8709D01*
X6884Y-8692D01*
X6890Y-8676D01*
X6894Y-8658D01*
X6898Y-8640D01*
X6899Y-8621D01*
X6900Y-8602D01*
X7098Y-8800D01*
D02*
G37*
G36*
X-300Y-9123D02*
X-298Y-9142D01*
X-295Y-9161D01*
X-290Y-9180D01*
X-284Y-9197D01*
X-277Y-9214D01*
X-269Y-9230D01*
X-259Y-9245D01*
X-248Y-9259D01*
X-235Y-9273D01*
X-327Y-9365D01*
X-341Y-9352D01*
X-355Y-9341D01*
X-370Y-9331D01*
X-386Y-9323D01*
X-403Y-9316D01*
X-420Y-9310D01*
X-439Y-9305D01*
X-458Y-9302D01*
X-477Y-9300D01*
X-498Y-9300D01*
X-300Y-9102D01*
X-300Y-9123D01*
D02*
G37*
G36*
X-2973Y-9657D02*
X-2985Y-9671D01*
X-2996Y-9686D01*
X-3005Y-9702D01*
X-3012Y-9718D01*
X-3019Y-9735D01*
X-3024Y-9752D01*
X-3027Y-9770D01*
X-3029Y-9788D01*
X-3030Y-9807D01*
X-3170D01*
X-3171Y-9788D01*
X-3173Y-9770D01*
X-3176Y-9752D01*
X-3181Y-9735D01*
X-3188Y-9718D01*
X-3195Y-9702D01*
X-3204Y-9686D01*
X-3215Y-9671D01*
X-3227Y-9657D01*
X-3240Y-9643D01*
X-2960D01*
X-2973Y-9657D01*
D02*
G37*
G36*
X-3456Y-6043D02*
X-3456Y-6043D01*
X-4306Y-6894D01*
X-4400Y-7034D01*
X-4433Y-7200D01*
Y-10321D01*
X-5749Y-11636D01*
X-5851Y-11624D01*
X-6056Y-11519D01*
X-6064Y-11456D01*
X-6120Y-11323D01*
X-6208Y-11208D01*
X-6323Y-11120D01*
X-6456Y-11064D01*
X-6600Y-11045D01*
X-6744Y-11064D01*
X-6877Y-11120D01*
X-6992Y-11208D01*
X-7080Y-11323D01*
X-7136Y-11456D01*
X-7155Y-11600D01*
X-7136Y-11744D01*
X-7080Y-11877D01*
X-6992Y-11992D01*
X-6877Y-12080D01*
X-6744Y-12136D01*
X-6681Y-12144D01*
X-6576Y-12349D01*
X-6564Y-12451D01*
X-6606Y-12494D01*
X-6700Y-12634D01*
X-6733Y-12800D01*
Y-16587D01*
X-6776Y-16639D01*
X-6994Y-16753D01*
X-7267Y-16621D01*
Y-13200D01*
X-7300Y-13034D01*
X-7394Y-12894D01*
X-7954Y-12333D01*
X-7964Y-12256D01*
X-8020Y-12123D01*
X-8108Y-12008D01*
X-8223Y-11920D01*
X-8356Y-11864D01*
X-8500Y-11845D01*
X-8585Y-11661D01*
X-8589Y-11554D01*
X-8508Y-11492D01*
X-8420Y-11377D01*
X-8394Y-11315D01*
X-8344Y-11336D01*
X-8200Y-11355D01*
X-8056Y-11336D01*
X-7923Y-11280D01*
X-7808Y-11192D01*
X-7720Y-11077D01*
X-7664Y-10944D01*
X-7645Y-10800D01*
X-7664Y-10656D01*
X-7720Y-10523D01*
X-7808Y-10408D01*
X-7923Y-10320D01*
X-7932Y-10316D01*
X-7901Y-10004D01*
X-7884Y-10000D01*
X-7744Y-9906D01*
X-7343Y-9506D01*
X-7038Y-9625D01*
X-7036Y-9644D01*
X-6980Y-9777D01*
X-6892Y-9892D01*
X-6777Y-9980D01*
X-6644Y-10036D01*
X-6500Y-10055D01*
X-6356Y-10036D01*
X-6223Y-9980D01*
X-6108Y-9892D01*
X-6020Y-9777D01*
X-5964Y-9644D01*
X-5945Y-9500D01*
X-5964Y-9356D01*
X-6020Y-9223D01*
X-6108Y-9108D01*
X-6223Y-9020D01*
X-6260Y-9004D01*
X-6268Y-8995D01*
X-6368Y-8713D01*
X-6369Y-8689D01*
X-6363Y-8661D01*
X-6314Y-8544D01*
X-6304Y-8467D01*
X-3829Y-5992D01*
X-3456Y-6043D01*
D02*
G37*
G36*
X-12672Y-10856D02*
X-12683Y-10870D01*
X-12693Y-10884D01*
X-12702Y-10899D01*
X-12709Y-10915D01*
X-12715Y-10932D01*
X-12719Y-10949D01*
X-12722Y-10967D01*
X-12724Y-10986D01*
X-12725Y-11005D01*
X-12875D01*
X-12876Y-10986D01*
X-12878Y-10967D01*
X-12881Y-10949D01*
X-12885Y-10932D01*
X-12891Y-10915D01*
X-12898Y-10899D01*
X-12907Y-10884D01*
X-12917Y-10870D01*
X-12928Y-10856D01*
X-12940Y-10843D01*
X-12660D01*
X-12672Y-10856D01*
D02*
G37*
G36*
X-3502Y-11400D02*
X-3520Y-11401D01*
X-3538Y-11402D01*
X-3555Y-11406D01*
X-3571Y-11411D01*
X-3588Y-11417D01*
X-3604Y-11424D01*
X-3619Y-11433D01*
X-3634Y-11444D01*
X-3649Y-11456D01*
X-3663Y-11469D01*
X-3769Y-11363D01*
X-3756Y-11349D01*
X-3744Y-11334D01*
X-3733Y-11319D01*
X-3724Y-11304D01*
X-3717Y-11288D01*
X-3711Y-11271D01*
X-3706Y-11255D01*
X-3702Y-11238D01*
X-3701Y-11220D01*
X-3700Y-11202D01*
X-3502Y-11400D01*
D02*
G37*
G36*
X-8494Y-10302D02*
X-8495Y-10333D01*
X-8592Y-10408D01*
X-8680Y-10523D01*
X-8706Y-10585D01*
X-8756Y-10564D01*
X-8900Y-10545D01*
X-9044Y-10564D01*
X-9177Y-10620D01*
X-9292Y-10708D01*
X-9380Y-10823D01*
X-9436Y-10956D01*
X-9455Y-11100D01*
X-9436Y-11244D01*
X-9380Y-11377D01*
X-9292Y-11492D01*
X-9177Y-11580D01*
X-9044Y-11636D01*
X-8900Y-11655D01*
X-8815Y-11839D01*
X-8811Y-11946D01*
X-8892Y-12008D01*
X-8980Y-12123D01*
X-9036Y-12256D01*
X-9055Y-12400D01*
X-9036Y-12544D01*
X-8980Y-12677D01*
X-8892Y-12792D01*
X-8777Y-12880D01*
X-8644Y-12936D01*
X-8567Y-12946D01*
X-8133Y-13380D01*
Y-16516D01*
X-8399Y-16747D01*
X-8542Y-16766D01*
X-8676Y-16821D01*
X-8791Y-16909D01*
X-8879Y-17024D01*
X-8934Y-17158D01*
X-8953Y-17301D01*
X-8952Y-17311D01*
X-9236Y-17451D01*
X-12367Y-14321D01*
Y-11039D01*
X-12320Y-10977D01*
X-12264Y-10844D01*
X-12245Y-10700D01*
X-12264Y-10556D01*
X-12320Y-10423D01*
X-12388Y-10333D01*
X-12366Y-10224D01*
X-12273Y-10033D01*
X-11382D01*
X-11192Y-10275D01*
X-11246Y-10557D01*
X-11277Y-10570D01*
X-11392Y-10658D01*
X-11480Y-10773D01*
X-11536Y-10906D01*
X-11555Y-11050D01*
X-11536Y-11194D01*
X-11480Y-11327D01*
X-11453Y-11364D01*
X-11414Y-11550D01*
X-11453Y-11736D01*
X-11480Y-11773D01*
X-11536Y-11906D01*
X-11555Y-12050D01*
X-11536Y-12194D01*
X-11480Y-12327D01*
X-11392Y-12442D01*
X-11277Y-12530D01*
X-11144Y-12586D01*
X-11000Y-12605D01*
X-10856Y-12586D01*
X-10723Y-12530D01*
X-10608Y-12442D01*
X-10520Y-12327D01*
X-10464Y-12194D01*
X-10445Y-12050D01*
X-10455Y-11978D01*
X-10408Y-11942D01*
X-10320Y-11827D01*
X-10264Y-11694D01*
X-10245Y-11550D01*
X-10264Y-11406D01*
X-10320Y-11273D01*
X-10330Y-11258D01*
X-10324Y-10998D01*
X-10267Y-10888D01*
X-10208Y-10842D01*
X-10120Y-10727D01*
X-10064Y-10594D01*
X-10045Y-10450D01*
X-10061Y-10333D01*
X-10054Y-10292D01*
X-9867Y-10033D01*
X-8643D01*
X-8494Y-10302D01*
D02*
G37*
G36*
X-8299Y-12420D02*
X-8298Y-12438D01*
X-8294Y-12455D01*
X-8289Y-12471D01*
X-8283Y-12488D01*
X-8276Y-12504D01*
X-8267Y-12519D01*
X-8256Y-12534D01*
X-8244Y-12549D01*
X-8231Y-12563D01*
X-8337Y-12669D01*
X-8351Y-12656D01*
X-8366Y-12644D01*
X-8381Y-12633D01*
X-8396Y-12624D01*
X-8412Y-12617D01*
X-8429Y-12611D01*
X-8445Y-12606D01*
X-8462Y-12602D01*
X-8480Y-12601D01*
X-8498Y-12600D01*
X-8300Y-12402D01*
X-8299Y-12420D01*
D02*
G37*
G36*
X-3502Y-13200D02*
X-3520Y-13201D01*
X-3538Y-13202D01*
X-3555Y-13206D01*
X-3571Y-13211D01*
X-3588Y-13217D01*
X-3604Y-13224D01*
X-3619Y-13233D01*
X-3634Y-13244D01*
X-3649Y-13256D01*
X-3663Y-13269D01*
X-3769Y-13163D01*
X-3756Y-13149D01*
X-3744Y-13134D01*
X-3733Y-13119D01*
X-3724Y-13104D01*
X-3717Y-13088D01*
X-3711Y-13071D01*
X-3706Y-13055D01*
X-3702Y-13038D01*
X-3701Y-13020D01*
X-3700Y-13002D01*
X-3502Y-13200D01*
D02*
G37*
G36*
X-1433Y-13432D02*
X-1446Y-13446D01*
X-1458Y-13461D01*
X-1468Y-13476D01*
X-1476Y-13491D01*
X-1484Y-13508D01*
X-1490Y-13524D01*
X-1494Y-13542D01*
X-1498Y-13560D01*
X-1500Y-13579D01*
X-1500Y-13598D01*
X-1698Y-13400D01*
X-1679Y-13400D01*
X-1660Y-13398D01*
X-1642Y-13394D01*
X-1624Y-13390D01*
X-1608Y-13384D01*
X-1591Y-13376D01*
X-1576Y-13368D01*
X-1561Y-13358D01*
X-1546Y-13346D01*
X-1532Y-13333D01*
X-1433Y-13432D01*
D02*
G37*
G36*
X-2925Y-13807D02*
X-2925Y-13842D01*
X-2913Y-14027D01*
X-2910Y-14038D01*
X-3150Y-13906D01*
X-3136Y-13902D01*
X-3123Y-13895D01*
X-3112Y-13887D01*
X-3102Y-13877D01*
X-3094Y-13866D01*
X-3087Y-13852D01*
X-3082Y-13837D01*
X-3078Y-13820D01*
X-3076Y-13802D01*
X-3075Y-13782D01*
X-2925Y-13807D01*
D02*
G37*
G36*
X-3487Y-14800D02*
X-3506Y-14802D01*
X-3523Y-14805D01*
X-3540Y-14810D01*
X-3556Y-14817D01*
X-3571Y-14825D01*
X-3585Y-14834D01*
X-3598Y-14846D01*
X-3611Y-14858D01*
X-3622Y-14872D01*
X-3633Y-14888D01*
X-3747Y-14788D01*
X-3737Y-14771D01*
X-3728Y-14754D01*
X-3720Y-14737D01*
X-3713Y-14720D01*
X-3708Y-14702D01*
X-3704Y-14685D01*
X-3701Y-14668D01*
X-3699Y-14651D01*
X-3698Y-14634D01*
X-3699Y-14617D01*
X-3487Y-14800D01*
D02*
G37*
G36*
X-1772Y-17156D02*
X-1783Y-17170D01*
X-1793Y-17184D01*
X-1802Y-17199D01*
X-1809Y-17215D01*
X-1815Y-17232D01*
X-1819Y-17249D01*
X-1822Y-17267D01*
X-1824Y-17286D01*
X-1825Y-17305D01*
X-1975D01*
X-1976Y-17286D01*
X-1978Y-17267D01*
X-1981Y-17249D01*
X-1985Y-17232D01*
X-1991Y-17215D01*
X-1998Y-17199D01*
X-2007Y-17184D01*
X-2017Y-17170D01*
X-2028Y-17156D01*
X-2040Y-17143D01*
X-1760D01*
X-1772Y-17156D01*
D02*
G37*
G36*
X-11918Y-17195D02*
X-11937Y-17318D01*
X-12066Y-17385D01*
X-12256Y-17421D01*
X-12323Y-17370D01*
X-12456Y-17314D01*
X-12600Y-17295D01*
X-12744Y-17314D01*
X-12877Y-17370D01*
X-12992Y-17458D01*
X-13080Y-17573D01*
X-13136Y-17706D01*
X-13155Y-17850D01*
X-13136Y-17994D01*
X-13080Y-18127D01*
X-12992Y-18242D01*
X-12877Y-18330D01*
X-12744Y-18386D01*
X-12600Y-18405D01*
X-12456Y-18386D01*
X-12323Y-18330D01*
X-12208Y-18242D01*
X-12133Y-18145D01*
X-12102Y-18144D01*
X-11833Y-18293D01*
Y-21600D01*
X-11800Y-21766D01*
X-11706Y-21906D01*
X-10681Y-22932D01*
X-10692Y-23108D01*
X-10780Y-23223D01*
X-10836Y-23356D01*
X-10855Y-23500D01*
Y-24300D01*
X-10836Y-24444D01*
X-10780Y-24577D01*
X-10692Y-24692D01*
X-10577Y-24780D01*
X-10444Y-24836D01*
X-10300Y-24855D01*
X-10156Y-24836D01*
X-10023Y-24780D01*
X-9908Y-24692D01*
X-9820Y-24577D01*
X-9764Y-24444D01*
X-9745Y-24300D01*
Y-24292D01*
X-9445Y-24168D01*
X-8906Y-24706D01*
X-8766Y-24800D01*
X-8600Y-24833D01*
X-7739D01*
X-7677Y-24880D01*
X-7544Y-24936D01*
X-7400Y-24955D01*
X-7256Y-24936D01*
X-7123Y-24880D01*
X-7050Y-24825D01*
X-6977Y-24880D01*
X-6844Y-24936D01*
X-6700Y-24955D01*
X-6556Y-24936D01*
X-6423Y-24880D01*
X-6308Y-24792D01*
X-6220Y-24677D01*
X-6164Y-24544D01*
X-6145Y-24400D01*
X-6147Y-24391D01*
X-5862Y-24250D01*
X-5183Y-24929D01*
Y-26064D01*
X-5328Y-26167D01*
X-5356Y-26178D01*
X-5483Y-26206D01*
X-5597Y-26130D01*
X-5813Y-26041D01*
X-6008Y-26002D01*
X-6242D01*
X-6437Y-26041D01*
X-6653Y-26130D01*
X-6819Y-26241D01*
X-6984Y-26406D01*
X-7095Y-26572D01*
X-7184Y-26788D01*
X-7199Y-26861D01*
X-7221Y-26933D01*
X-7232Y-27050D01*
X-7230Y-27075D01*
X-7235Y-27100D01*
Y-29490D01*
X-9415Y-29490D01*
Y-27250D01*
X-9420Y-27225D01*
X-9418Y-27200D01*
X-9427Y-27102D01*
X-9449Y-27031D01*
X-9464Y-26957D01*
X-9538Y-26777D01*
X-9649Y-26612D01*
X-9787Y-26474D01*
X-9952Y-26363D01*
X-10132Y-26289D01*
X-10206Y-26274D01*
X-10277Y-26252D01*
X-10375Y-26243D01*
X-10400Y-26245D01*
X-10425Y-26240D01*
X-12376D01*
X-12400Y-26225D01*
X-12564Y-25944D01*
X-12564Y-25940D01*
X-12545Y-25800D01*
Y-25400D01*
X-12564Y-25256D01*
X-12620Y-25123D01*
X-12708Y-25008D01*
X-12823Y-24920D01*
X-12956Y-24864D01*
X-13100Y-24845D01*
X-13244Y-24864D01*
X-13377Y-24920D01*
X-13492Y-25008D01*
X-13580Y-25123D01*
X-13636Y-25256D01*
X-13655Y-25400D01*
Y-25800D01*
X-13636Y-25940D01*
X-13636Y-25944D01*
X-13800Y-26225D01*
X-13824Y-26240D01*
X-14490D01*
X-14490Y-19907D01*
X-14324Y-19874D01*
X-14176Y-19774D01*
X-14176Y-19774D01*
X-14076Y-19674D01*
X-13976Y-19526D01*
X-13941Y-19350D01*
Y-18550D01*
X-13976Y-18374D01*
X-14016Y-18315D01*
X-13976Y-18256D01*
X-13941Y-18080D01*
Y-17280D01*
X-13976Y-17104D01*
X-14076Y-16956D01*
X-14070Y-16947D01*
X-14043Y-16810D01*
Y-16010D01*
X-14070Y-15873D01*
X-14136Y-15775D01*
X-14070Y-15677D01*
X-14043Y-15540D01*
Y-15494D01*
X-13743Y-15370D01*
X-11918Y-17195D01*
D02*
G37*
G36*
X-7474Y-20164D02*
X-7472Y-20183D01*
X-7469Y-20201D01*
X-7465Y-20218D01*
X-7459Y-20235D01*
X-7452Y-20251D01*
X-7443Y-20266D01*
X-7433Y-20280D01*
X-7422Y-20294D01*
X-7410Y-20307D01*
X-7690D01*
X-7678Y-20294D01*
X-7667Y-20280D01*
X-7657Y-20266D01*
X-7648Y-20251D01*
X-7641Y-20235D01*
X-7635Y-20218D01*
X-7631Y-20201D01*
X-7628Y-20183D01*
X-7626Y-20164D01*
X-7625Y-20145D01*
X-7475D01*
X-7474Y-20164D01*
D02*
G37*
G36*
X228Y-21164D02*
X180Y-21214D01*
X86Y-21120D01*
X87Y-21119D01*
X89Y-21118D01*
X91Y-21116D01*
X127Y-21081D01*
X136Y-21072D01*
X228Y-21164D01*
D02*
G37*
G36*
X536Y-21202D02*
X538Y-21220D01*
X542Y-21237D01*
X548Y-21254D01*
X555Y-21270D01*
X565Y-21285D01*
X575Y-21299D01*
X587Y-21313D01*
X601Y-21326D01*
X617Y-21338D01*
X340Y-21380D01*
X352Y-21363D01*
X363Y-21345D01*
X373Y-21328D01*
X382Y-21310D01*
X389Y-21293D01*
X395Y-21275D01*
X399Y-21257D01*
X402Y-21240D01*
X404Y-21222D01*
X405Y-21204D01*
X535Y-21183D01*
X536Y-21202D01*
D02*
G37*
G36*
X-5924Y-21414D02*
X-5922Y-21433D01*
X-5919Y-21451D01*
X-5915Y-21468D01*
X-5909Y-21485D01*
X-5902Y-21501D01*
X-5893Y-21516D01*
X-5883Y-21530D01*
X-5872Y-21544D01*
X-5860Y-21557D01*
X-6140D01*
X-6128Y-21544D01*
X-6117Y-21530D01*
X-6107Y-21516D01*
X-6098Y-21501D01*
X-6091Y-21485D01*
X-6085Y-21468D01*
X-6081Y-21451D01*
X-6078Y-21433D01*
X-6076Y-21414D01*
X-6075Y-21395D01*
X-5925D01*
X-5924Y-21414D01*
D02*
G37*
G36*
X107Y-21471D02*
X98Y-21480D01*
X90Y-21490D01*
X84Y-21502D01*
X78Y-21515D01*
X73Y-21530D01*
X70Y-21545D01*
X67Y-21562D01*
X66Y-21581D01*
X65Y-21600D01*
X-65D01*
X-66Y-21581D01*
X-67Y-21562D01*
X-70Y-21545D01*
X-73Y-21530D01*
X-78Y-21515D01*
X-84Y-21502D01*
X-90Y-21490D01*
X-98Y-21480D01*
X-107Y-21471D01*
X-117Y-21462D01*
X117D01*
X107Y-21471D01*
D02*
G37*
G36*
X-2149Y-21444D02*
X-2134Y-21456D01*
X-2119Y-21467D01*
X-2104Y-21476D01*
X-2088Y-21483D01*
X-2071Y-21489D01*
X-2055Y-21494D01*
X-2038Y-21498D01*
X-2020Y-21500D01*
X-2002Y-21500D01*
X-2200Y-21698D01*
X-2201Y-21680D01*
X-2202Y-21662D01*
X-2206Y-21645D01*
X-2211Y-21629D01*
X-2217Y-21612D01*
X-2224Y-21596D01*
X-2233Y-21581D01*
X-2244Y-21566D01*
X-2256Y-21551D01*
X-2269Y-21537D01*
X-2163Y-21431D01*
X-2149Y-21444D01*
D02*
G37*
G36*
X498Y-21700D02*
X477Y-21700D01*
X458Y-21702D01*
X439Y-21705D01*
X420Y-21710D01*
X403Y-21716D01*
X386Y-21723D01*
X370Y-21731D01*
X355Y-21741D01*
X341Y-21752D01*
X327Y-21765D01*
X235Y-21673D01*
X248Y-21659D01*
X259Y-21645D01*
X269Y-21630D01*
X277Y-21614D01*
X284Y-21597D01*
X290Y-21580D01*
X295Y-21561D01*
X298Y-21542D01*
X300Y-21523D01*
X300Y-21502D01*
X498Y-21700D01*
D02*
G37*
G36*
X-6765Y-24128D02*
X-6737Y-24152D01*
X-6723Y-24163D01*
X-6693Y-24183D01*
X-6678Y-24191D01*
X-6647Y-24206D01*
X-6631Y-24212D01*
X-6886Y-24327D01*
X-6881Y-24312D01*
X-6878Y-24297D01*
X-6878Y-24281D01*
X-6879Y-24266D01*
X-6882Y-24251D01*
X-6887Y-24236D01*
X-6895Y-24221D01*
X-6904Y-24206D01*
X-6916Y-24191D01*
X-6929Y-24177D01*
X-6779Y-24115D01*
X-6765Y-24128D01*
D02*
G37*
G36*
X-7543Y-24540D02*
X-7556Y-24528D01*
X-7570Y-24517D01*
X-7584Y-24507D01*
X-7599Y-24498D01*
X-7615Y-24491D01*
X-7632Y-24485D01*
X-7649Y-24481D01*
X-7667Y-24478D01*
X-7686Y-24476D01*
X-7705Y-24475D01*
Y-24325D01*
X-7686Y-24324D01*
X-7667Y-24322D01*
X-7649Y-24319D01*
X-7632Y-24315D01*
X-7615Y-24309D01*
X-7599Y-24302D01*
X-7584Y-24293D01*
X-7570Y-24283D01*
X-7556Y-24272D01*
X-7543Y-24260D01*
Y-24540D01*
D02*
G37*
G36*
X-2674Y-26414D02*
X-2672Y-26433D01*
X-2669Y-26451D01*
X-2665Y-26468D01*
X-2659Y-26485D01*
X-2652Y-26501D01*
X-2643Y-26516D01*
X-2633Y-26530D01*
X-2622Y-26544D01*
X-2610Y-26557D01*
X-2890D01*
X-2878Y-26544D01*
X-2867Y-26530D01*
X-2857Y-26516D01*
X-2848Y-26501D01*
X-2841Y-26485D01*
X-2835Y-26468D01*
X-2831Y-26451D01*
X-2828Y-26433D01*
X-2826Y-26414D01*
X-2825Y-26395D01*
X-2675D01*
X-2674Y-26414D01*
D02*
G37*
G36*
X-4674D02*
X-4672Y-26433D01*
X-4669Y-26451D01*
X-4665Y-26468D01*
X-4659Y-26485D01*
X-4652Y-26501D01*
X-4643Y-26516D01*
X-4633Y-26530D01*
X-4622Y-26544D01*
X-4610Y-26557D01*
X-4890D01*
X-4878Y-26544D01*
X-4867Y-26530D01*
X-4857Y-26516D01*
X-4848Y-26501D01*
X-4841Y-26485D01*
X-4835Y-26468D01*
X-4831Y-26451D01*
X-4828Y-26433D01*
X-4826Y-26414D01*
X-4825Y-26395D01*
X-4675D01*
X-4674Y-26414D01*
D02*
G37*
G36*
X-3625Y-26424D02*
X-3625Y-26443D01*
X-3621Y-26480D01*
X-3618Y-26498D01*
X-3613Y-26515D01*
X-3608Y-26532D01*
X-3602Y-26549D01*
X-3595Y-26565D01*
X-3588Y-26581D01*
X-3579Y-26597D01*
X-3850Y-26527D01*
X-3836Y-26517D01*
X-3823Y-26507D01*
X-3812Y-26496D01*
X-3802Y-26483D01*
X-3794Y-26469D01*
X-3787Y-26454D01*
X-3782Y-26437D01*
X-3778Y-26420D01*
X-3776Y-26401D01*
X-3775Y-26382D01*
X-3625Y-26424D01*
D02*
G37*
G36*
X-4174Y-26714D02*
X-4172Y-26733D01*
X-4169Y-26751D01*
X-4165Y-26768D01*
X-4159Y-26785D01*
X-4152Y-26801D01*
X-4143Y-26816D01*
X-4133Y-26830D01*
X-4122Y-26844D01*
X-4110Y-26857D01*
X-4390D01*
X-4378Y-26844D01*
X-4367Y-26830D01*
X-4357Y-26816D01*
X-4348Y-26801D01*
X-4341Y-26785D01*
X-4335Y-26768D01*
X-4331Y-26751D01*
X-4328Y-26733D01*
X-4326Y-26714D01*
X-4325Y-26695D01*
X-4175D01*
X-4174Y-26714D01*
D02*
G37*
G36*
X-3125Y-26724D02*
X-3125Y-26743D01*
X-3121Y-26780D01*
X-3118Y-26798D01*
X-3113Y-26815D01*
X-3108Y-26832D01*
X-3102Y-26849D01*
X-3095Y-26865D01*
X-3088Y-26881D01*
X-3079Y-26897D01*
X-3350Y-26827D01*
X-3336Y-26817D01*
X-3323Y-26807D01*
X-3312Y-26796D01*
X-3302Y-26783D01*
X-3294Y-26769D01*
X-3287Y-26754D01*
X-3282Y-26737D01*
X-3278Y-26720D01*
X-3276Y-26701D01*
X-3275Y-26682D01*
X-3125Y-26724D01*
D02*
G37*
G36*
X-1284Y-26703D02*
X-1282Y-26720D01*
X-1277Y-26737D01*
X-1271Y-26751D01*
X-1264Y-26765D01*
X-1254Y-26776D01*
X-1243Y-26786D01*
X-1231Y-26794D01*
X-1216Y-26801D01*
X-1200Y-26806D01*
X-1440Y-26938D01*
X-1435Y-26922D01*
X-1427Y-26890D01*
X-1421Y-26857D01*
X-1417Y-26822D01*
X-1415Y-26786D01*
X-1415Y-26767D01*
X-1285Y-26683D01*
X-1284Y-26703D01*
D02*
G37*
%LPC*%
G36*
X14145Y-845D02*
Y-967D01*
X14267D01*
X14145Y-845D01*
D02*
G37*
G36*
X-14145Y-845D02*
X-14270Y-970D01*
X-14145D01*
Y-845D01*
D02*
G37*
G36*
X-9852Y-1000D02*
X-10148D01*
X-10438Y-1058D01*
X-10711Y-1171D01*
X-10956Y-1335D01*
X-11165Y-1544D01*
X-11329Y-1789D01*
X-11442Y-2062D01*
X-11500Y-2352D01*
Y-2648D01*
X-11442Y-2937D01*
X-11329Y-3210D01*
X-11165Y-3456D01*
X-10956Y-3665D01*
X-10711Y-3829D01*
X-10438Y-3942D01*
X-10148Y-4000D01*
X-10123D01*
X-9855Y-4200D01*
X-9836Y-4344D01*
X-9780Y-4477D01*
X-9692Y-4592D01*
X-9577Y-4680D01*
X-9444Y-4736D01*
X-9300Y-4755D01*
X-9156Y-4736D01*
X-9023Y-4680D01*
X-8908Y-4592D01*
X-8820Y-4477D01*
X-8764Y-4344D01*
X-8745Y-4200D01*
X-8764Y-4056D01*
X-8820Y-3923D01*
X-8908Y-3808D01*
X-8856Y-3477D01*
X-8835Y-3456D01*
X-8671Y-3210D01*
X-8558Y-2937D01*
X-8541Y-2856D01*
X-8432Y-2783D01*
X-8206Y-2710D01*
X-8144Y-2736D01*
X-8000Y-2755D01*
X-7600D01*
X-7456Y-2736D01*
X-7323Y-2680D01*
X-7208Y-2592D01*
X-7120Y-2477D01*
X-7064Y-2344D01*
X-7045Y-2200D01*
X-7064Y-2056D01*
X-7120Y-1923D01*
X-7208Y-1808D01*
X-7323Y-1720D01*
X-7456Y-1664D01*
X-7600Y-1645D01*
X-8000D01*
X-8144Y-1664D01*
X-8277Y-1720D01*
X-8351Y-1776D01*
X-8496Y-1782D01*
X-8711Y-1730D01*
X-8835Y-1544D01*
X-9044Y-1335D01*
X-9289Y-1171D01*
X-9562Y-1058D01*
X-9852Y-1000D01*
D02*
G37*
G36*
X-7000Y-3295D02*
X-7144Y-3314D01*
X-7277Y-3370D01*
X-7392Y-3458D01*
X-7480Y-3573D01*
X-7536Y-3706D01*
X-7555Y-3850D01*
X-7536Y-3994D01*
X-7480Y-4127D01*
X-7392Y-4242D01*
X-7277Y-4330D01*
X-7144Y-4386D01*
X-7000Y-4405D01*
X-6856Y-4386D01*
X-6723Y-4330D01*
X-6608Y-4242D01*
X-6520Y-4127D01*
X-6464Y-3994D01*
X-6445Y-3850D01*
X-6464Y-3706D01*
X-6520Y-3573D01*
X-6608Y-3458D01*
X-6723Y-3370D01*
X-6856Y-3314D01*
X-7000Y-3295D01*
D02*
G37*
G36*
X-10450Y-5345D02*
X-10594Y-5364D01*
X-10727Y-5420D01*
X-10842Y-5508D01*
X-10930Y-5623D01*
X-10986Y-5756D01*
X-11005Y-5900D01*
X-10986Y-6044D01*
X-10930Y-6177D01*
X-10842Y-6292D01*
X-10727Y-6380D01*
X-10594Y-6436D01*
X-10450Y-6455D01*
X-10306Y-6436D01*
X-10173Y-6380D01*
X-10058Y-6292D01*
X-9970Y-6177D01*
X-9914Y-6044D01*
X-9895Y-5900D01*
X-9914Y-5756D01*
X-9970Y-5623D01*
X-10058Y-5508D01*
X-10173Y-5420D01*
X-10306Y-5364D01*
X-10450Y-5345D01*
D02*
G37*
G36*
X12000Y-7845D02*
X11856Y-7864D01*
X11723Y-7920D01*
X11608Y-8008D01*
X11520Y-8123D01*
X11464Y-8256D01*
X11445Y-8400D01*
X11464Y-8544D01*
X11520Y-8677D01*
X11608Y-8792D01*
X11723Y-8880D01*
X11856Y-8936D01*
X12000Y-8955D01*
X12144Y-8936D01*
X12277Y-8880D01*
X12392Y-8792D01*
X12480Y-8677D01*
X12536Y-8544D01*
X12555Y-8400D01*
X12536Y-8256D01*
X12480Y-8123D01*
X12392Y-8008D01*
X12277Y-7920D01*
X12144Y-7864D01*
X12000Y-7845D01*
D02*
G37*
G36*
X9800Y-10545D02*
X9656Y-10564D01*
X9523Y-10620D01*
X9408Y-10708D01*
X9320Y-10823D01*
X9264Y-10956D01*
X9245Y-11100D01*
Y-11147D01*
X9069Y-11261D01*
X8945Y-11306D01*
X8844Y-11264D01*
X8700Y-11245D01*
X8556Y-11264D01*
X8423Y-11320D01*
X8308Y-11408D01*
X8220Y-11523D01*
X8164Y-11656D01*
X8145Y-11800D01*
X8164Y-11944D01*
X8220Y-12077D01*
X8308Y-12192D01*
X8423Y-12280D01*
X8556Y-12336D01*
X8700Y-12355D01*
X8844Y-12336D01*
X8977Y-12280D01*
X9092Y-12192D01*
X9180Y-12077D01*
X9204Y-12058D01*
X9498Y-11977D01*
X9522Y-11980D01*
X9532Y-11984D01*
X9656Y-12036D01*
X9800Y-12055D01*
X9944Y-12036D01*
X10077Y-11980D01*
X10192Y-11892D01*
X10280Y-11777D01*
X10336Y-11644D01*
X10355Y-11500D01*
Y-11100D01*
X10336Y-10956D01*
X10280Y-10823D01*
X10192Y-10708D01*
X10077Y-10620D01*
X9944Y-10564D01*
X9800Y-10545D01*
D02*
G37*
G36*
X11400Y-10295D02*
X11256Y-10314D01*
X11123Y-10370D01*
X11008Y-10458D01*
X10920Y-10573D01*
X10864Y-10706D01*
X10845Y-10850D01*
X10864Y-10994D01*
X10919Y-11125D01*
X10864Y-11256D01*
X10845Y-11400D01*
X10864Y-11544D01*
X10920Y-11677D01*
X11008Y-11792D01*
X11123Y-11880D01*
X11256Y-11936D01*
X11400Y-11955D01*
X11544Y-11936D01*
X11677Y-11880D01*
X11792Y-11792D01*
X11880Y-11677D01*
X11936Y-11544D01*
X11955Y-11400D01*
X11936Y-11256D01*
X11881Y-11125D01*
X11936Y-10994D01*
X11955Y-10850D01*
X11936Y-10706D01*
X11880Y-10573D01*
X11792Y-10458D01*
X11677Y-10370D01*
X11544Y-10314D01*
X11400Y-10295D01*
D02*
G37*
G36*
X6150Y-13545D02*
X5750D01*
X5606Y-13564D01*
X5473Y-13620D01*
X5358Y-13708D01*
X5270Y-13823D01*
X5214Y-13956D01*
X5195Y-14100D01*
X5214Y-14244D01*
X5270Y-14377D01*
X5358Y-14492D01*
X5473Y-14580D01*
X5606Y-14636D01*
X5750Y-14655D01*
X6150D01*
X6294Y-14636D01*
X6427Y-14580D01*
X6542Y-14492D01*
X6630Y-14377D01*
X6686Y-14244D01*
X6705Y-14100D01*
X6686Y-13956D01*
X6630Y-13823D01*
X6542Y-13708D01*
X6427Y-13620D01*
X6294Y-13564D01*
X6150Y-13545D01*
D02*
G37*
G36*
X4300Y-16145D02*
X4156Y-16164D01*
X4023Y-16220D01*
X3908Y-16308D01*
X3820Y-16423D01*
X3764Y-16556D01*
X3745Y-16700D01*
X3764Y-16844D01*
X3820Y-16977D01*
X3908Y-17092D01*
X4023Y-17180D01*
X4156Y-17236D01*
X4300Y-17255D01*
X4444Y-17236D01*
X4577Y-17180D01*
X4692Y-17092D01*
X4780Y-16977D01*
X4836Y-16844D01*
X4855Y-16700D01*
X4836Y-16556D01*
X4780Y-16423D01*
X4692Y-16308D01*
X4577Y-16220D01*
X4444Y-16164D01*
X4300Y-16145D01*
D02*
G37*
G36*
X8100Y-16345D02*
X7956Y-16364D01*
X7823Y-16420D01*
X7708Y-16508D01*
X7620Y-16623D01*
X7564Y-16756D01*
X7545Y-16900D01*
X7564Y-17044D01*
X7620Y-17177D01*
X7708Y-17292D01*
X7823Y-17380D01*
X7956Y-17436D01*
X8100Y-17455D01*
X8244Y-17436D01*
X8377Y-17380D01*
X8492Y-17292D01*
X8580Y-17177D01*
X8636Y-17044D01*
X8655Y-16900D01*
X8636Y-16756D01*
X8580Y-16623D01*
X8492Y-16508D01*
X8377Y-16420D01*
X8244Y-16364D01*
X8100Y-16345D01*
D02*
G37*
G36*
X5000Y-18544D02*
X4830Y-18567D01*
X4672Y-18632D01*
X4650Y-18649D01*
X4628Y-18632D01*
X4470Y-18567D01*
X4300Y-18544D01*
X4130Y-18567D01*
X3972Y-18632D01*
X3836Y-18736D01*
X3732Y-18872D01*
X3667Y-19030D01*
X3644Y-19200D01*
X3667Y-19370D01*
X3732Y-19528D01*
X3836Y-19664D01*
X3972Y-19768D01*
X4130Y-19833D01*
X4300Y-19856D01*
X4470Y-19833D01*
X4628Y-19768D01*
X4650Y-19751D01*
X4672Y-19768D01*
X4830Y-19833D01*
X5000Y-19856D01*
X5170Y-19833D01*
X5328Y-19768D01*
X5464Y-19664D01*
X5568Y-19528D01*
X5633Y-19370D01*
X5656Y-19200D01*
X5633Y-19030D01*
X5568Y-18872D01*
X5464Y-18736D01*
X5328Y-18632D01*
X5170Y-18567D01*
X5000Y-18544D01*
D02*
G37*
G36*
X13100Y-16545D02*
X12956Y-16564D01*
X12823Y-16620D01*
X12708Y-16708D01*
X12620Y-16823D01*
X12564Y-16956D01*
X12545Y-17100D01*
Y-18300D01*
X12564Y-18444D01*
X12620Y-18577D01*
X12708Y-18692D01*
X12823Y-18780D01*
X12956Y-18836D01*
X13100Y-18855D01*
X13244Y-18836D01*
X13377Y-18780D01*
X13492Y-18692D01*
X13580Y-18577D01*
X13636Y-18444D01*
X13655Y-18300D01*
Y-17100D01*
X13636Y-16956D01*
X13580Y-16823D01*
X13492Y-16708D01*
X13377Y-16620D01*
X13244Y-16564D01*
X13100Y-16545D01*
D02*
G37*
G36*
X3300Y-20045D02*
X3156Y-20064D01*
X3023Y-20120D01*
X2908Y-20208D01*
X2820Y-20323D01*
X2764Y-20456D01*
X2745Y-20600D01*
X2764Y-20744D01*
X2820Y-20877D01*
X2908Y-20992D01*
X3023Y-21080D01*
X3156Y-21136D01*
X3300Y-21155D01*
X3444Y-21136D01*
X3577Y-21080D01*
X3692Y-20992D01*
X3780Y-20877D01*
X3836Y-20744D01*
X3855Y-20600D01*
X3836Y-20456D01*
X3780Y-20323D01*
X3692Y-20208D01*
X3577Y-20120D01*
X3444Y-20064D01*
X3300Y-20045D01*
D02*
G37*
G36*
X13100Y-21045D02*
X12956Y-21064D01*
X12823Y-21120D01*
X12708Y-21208D01*
X12620Y-21323D01*
X12564Y-21456D01*
X12545Y-21600D01*
X12564Y-21744D01*
X12620Y-21877D01*
X12708Y-21992D01*
X12823Y-22080D01*
X12956Y-22136D01*
X13100Y-22155D01*
X13244Y-22136D01*
X13377Y-22080D01*
X13492Y-21992D01*
X13580Y-21877D01*
X13636Y-21744D01*
X13655Y-21600D01*
X13636Y-21456D01*
X13580Y-21323D01*
X13492Y-21208D01*
X13377Y-21120D01*
X13244Y-21064D01*
X13100Y-21045D01*
D02*
G37*
G36*
X11300Y-22945D02*
X11156Y-22964D01*
X11023Y-23020D01*
X10850Y-23086D01*
X10677Y-23020D01*
X10544Y-22964D01*
X10400Y-22945D01*
X10256Y-22964D01*
X10123Y-23020D01*
X10008Y-23108D01*
X9920Y-23223D01*
X9864Y-23356D01*
X9845Y-23500D01*
X9864Y-23644D01*
X9920Y-23777D01*
X10008Y-23892D01*
X10123Y-23980D01*
X10256Y-24036D01*
X10400Y-24055D01*
X10544Y-24036D01*
X10677Y-23980D01*
X10850Y-23914D01*
X11023Y-23980D01*
X11156Y-24036D01*
X11300Y-24055D01*
X11444Y-24036D01*
X11577Y-23980D01*
X11692Y-23892D01*
X11780Y-23777D01*
X11836Y-23644D01*
X11855Y-23500D01*
X11836Y-23356D01*
X11780Y-23223D01*
X11692Y-23108D01*
X11577Y-23020D01*
X11444Y-22964D01*
X11300Y-22945D01*
D02*
G37*
G36*
X1000Y-22545D02*
X856Y-22564D01*
X723Y-22620D01*
X608Y-22708D01*
X520Y-22823D01*
X464Y-22956D01*
X445Y-23100D01*
X464Y-23244D01*
X520Y-23377D01*
X608Y-23492D01*
X723Y-23580D01*
X856Y-23636D01*
X1000Y-23655D01*
X1144Y-23636D01*
X1277Y-23580D01*
X1392Y-23492D01*
X1480Y-23377D01*
X1536Y-23244D01*
X1555Y-23100D01*
X1536Y-22956D01*
X1480Y-22823D01*
X1392Y-22708D01*
X1277Y-22620D01*
X1144Y-22564D01*
X1000Y-22545D01*
D02*
G37*
G36*
X3300Y-22545D02*
X3156Y-22564D01*
X3023Y-22620D01*
X2908Y-22708D01*
X2820Y-22823D01*
X2764Y-22956D01*
X2745Y-23100D01*
X2764Y-23244D01*
X2820Y-23377D01*
X2908Y-23492D01*
X3023Y-23580D01*
X3156Y-23636D01*
X3300Y-23655D01*
X3444Y-23636D01*
X3577Y-23580D01*
X3692Y-23492D01*
X3780Y-23377D01*
X3836Y-23244D01*
X3855Y-23100D01*
X3836Y-22956D01*
X3780Y-22823D01*
X3692Y-22708D01*
X3577Y-22620D01*
X3444Y-22564D01*
X3300Y-22545D01*
D02*
G37*
G36*
X8000Y-23345D02*
X7856Y-23364D01*
X7723Y-23420D01*
X7608Y-23508D01*
X7520Y-23623D01*
X7464Y-23756D01*
X7445Y-23900D01*
X7464Y-24044D01*
X7520Y-24177D01*
X7608Y-24292D01*
X7723Y-24380D01*
X7856Y-24436D01*
X8000Y-24455D01*
X8144Y-24436D01*
X8277Y-24380D01*
X8392Y-24292D01*
X8480Y-24177D01*
X8536Y-24044D01*
X8555Y-23900D01*
X8536Y-23756D01*
X8480Y-23623D01*
X8392Y-23508D01*
X8277Y-23420D01*
X8144Y-23364D01*
X8000Y-23345D01*
D02*
G37*
G36*
X8250Y-25745D02*
X7750D01*
X7606Y-25764D01*
X7473Y-25820D01*
X7358Y-25908D01*
X7270Y-26023D01*
X7214Y-26156D01*
X7195Y-26300D01*
Y-26700D01*
X7214Y-26844D01*
X7270Y-26977D01*
X7358Y-27092D01*
X7473Y-27180D01*
X7606Y-27236D01*
X7750Y-27255D01*
X8250D01*
X8394Y-27236D01*
X8527Y-27180D01*
X8642Y-27092D01*
X8730Y-26977D01*
X8786Y-26844D01*
X8805Y-26700D01*
Y-26300D01*
X8786Y-26156D01*
X8730Y-26023D01*
X8642Y-25908D01*
X8527Y-25820D01*
X8394Y-25764D01*
X8250Y-25745D01*
D02*
G37*
G36*
X-10900Y-13245D02*
X-11044Y-13264D01*
X-11177Y-13320D01*
X-11292Y-13408D01*
X-11380Y-13523D01*
X-11436Y-13656D01*
X-11455Y-13800D01*
X-11436Y-13944D01*
X-11380Y-14077D01*
X-11292Y-14192D01*
X-11177Y-14280D01*
X-11044Y-14336D01*
X-10900Y-14355D01*
X-10756Y-14336D01*
X-10623Y-14280D01*
X-10508Y-14192D01*
X-10420Y-14077D01*
X-10364Y-13944D01*
X-10345Y-13800D01*
X-10364Y-13656D01*
X-10420Y-13523D01*
X-10508Y-13408D01*
X-10623Y-13320D01*
X-10756Y-13264D01*
X-10900Y-13245D01*
D02*
G37*
G36*
X-13600Y-19945D02*
X-13744Y-19964D01*
X-13877Y-20020D01*
X-13992Y-20108D01*
X-14080Y-20223D01*
X-14136Y-20356D01*
X-14155Y-20500D01*
Y-21300D01*
X-14136Y-21444D01*
X-14080Y-21577D01*
X-13992Y-21692D01*
X-13877Y-21780D01*
X-13744Y-21836D01*
X-13600Y-21855D01*
X-13456Y-21836D01*
X-13323Y-21780D01*
X-13208Y-21692D01*
X-13120Y-21577D01*
X-13064Y-21444D01*
X-13045Y-21300D01*
Y-20500D01*
X-13064Y-20356D01*
X-13120Y-20223D01*
X-13208Y-20108D01*
X-13323Y-20020D01*
X-13456Y-19964D01*
X-13600Y-19945D01*
D02*
G37*
%LPD*%
D14*
X-1300Y-18900D02*
G03*
X-1100Y-18700I0J200D01*
G01*
X-1700Y-18900D02*
G03*
X-1900Y-19100I0J-200D01*
G01*
Y-19300D02*
G03*
X-1700Y-19500I200J0D01*
G01*
X-400Y-19700D02*
G03*
X-600Y-19500I-200J0D01*
G01*
X-600Y-20100D02*
G03*
X-400Y-19900I-0J200D01*
G01*
X-1100Y-20900D02*
G03*
X-1300Y-20700I-200J0D01*
G01*
X-1700Y-20100D02*
G03*
X-1900Y-20300I0J-200D01*
G01*
Y-20500D02*
G03*
X-1700Y-20700I200J0D01*
G01*
X-3700Y-19200D02*
G03*
X-3900Y-19400I0J-200D01*
G01*
X-3400Y-19200D02*
G03*
X-3200Y-19000I0J200D01*
G01*
Y-18800D02*
G03*
X-3400Y-18600I-200J0D01*
G01*
X-3900Y-18400D02*
G03*
X-3700Y-18600I200J0D01*
G01*
X-3200Y-17600D02*
G03*
X-3400Y-17400I-200J0D01*
G01*
Y-18000D02*
G03*
X-3200Y-17800I0J200D01*
G01*
X-3200Y-20000D02*
G03*
X-3400Y-19800I-200J0D01*
G01*
X-3500Y-14600D02*
G03*
X-3900Y-15566I966J-966D01*
G01*
X-3700Y-18000D02*
G03*
X-3900Y-18200I0J-200D01*
G01*
Y-19600D02*
G03*
X-3700Y-19800I200J0D01*
G01*
X-3900Y-17200D02*
G03*
X-3700Y-17400I200J0D01*
G01*
X-2600Y-6700D02*
G03*
X-2400Y-6900I200J0D01*
G01*
X-2000Y-7500D02*
G03*
X-1800Y-7300I0J200D01*
G01*
X-2000Y-8700D02*
G03*
X-1800Y-8500I0J200D01*
G01*
Y-7100D02*
G03*
X-2000Y-6900I-200J0D01*
G01*
X-1800Y-8300D02*
G03*
X-2000Y-8100I-200J0D01*
G01*
X-2400Y-7500D02*
G03*
X-2600Y-7700I0J-200D01*
G01*
Y-7900D02*
G03*
X-2400Y-8100I200J0D01*
G01*
Y-8700D02*
G03*
X-2600Y-8900I0J-200D01*
G01*
X14300Y-6200D02*
X14700D01*
X13600Y-5500D02*
X14300Y-6200D01*
X13600Y-5500D02*
Y-5000D01*
X12700Y-4100D02*
X13600Y-5000D01*
X14200D02*
X14600D01*
X13300Y-4100D02*
X14200Y-5000D01*
X-8600Y-24400D02*
X-7400D01*
X-6700D02*
Y-24300D01*
X-9900Y-21100D02*
X-6700Y-24300D01*
X-9900Y-21100D02*
Y-18000D01*
X-11400Y-21600D02*
X-8600Y-24400D01*
X-11400Y-21600D02*
Y-17100D01*
X-13700Y-14800D02*
Y-10100D01*
Y-14800D02*
X-11400Y-17100D01*
X-13700Y-10100D02*
X-12800Y-9200D01*
X-10500D01*
X-7700Y-6400D01*
X-13300Y-14600D02*
X-9900Y-18000D01*
X-13300Y-14600D02*
Y-10300D01*
X-12600Y-9600D02*
X-8050D01*
X-13300Y-10300D02*
X-12600Y-9600D01*
X-8050D02*
X-6850Y-8400D01*
X13300Y-4100D02*
Y-3700D01*
X12300Y-2700D02*
X13300Y-3700D01*
X11700Y-2700D02*
X12300D01*
X4700Y-3100D02*
X6800D01*
X-2450Y-4000D02*
X3800D01*
X4700Y-3100D01*
X6800D02*
X7800Y-4100D01*
X12700D01*
X8000Y-3700D02*
X10700D01*
X7000Y-2700D02*
X8000Y-3700D01*
X10700D02*
X11700Y-2700D01*
X4500D02*
X7000D01*
X3600Y-3600D02*
X4500Y-2700D01*
X-6850Y-8400D02*
X-2450Y-4000D01*
X-4900Y-3600D02*
X3600D01*
X-7700Y-6400D02*
X-4900Y-3600D01*
X-1700Y-18900D02*
X-1300D01*
X-1700D02*
X-1700D01*
X-400Y-19700D02*
Y-19700D01*
Y-19900D02*
Y-19700D01*
X-1700Y-19500D02*
X-600D01*
Y-20100D02*
X-600D01*
X-1700D02*
X-600D01*
X-1700D02*
X-1700D01*
X-1700Y-20700D02*
X-1700D01*
X-1700Y-19500D02*
X-1700D01*
X-1100Y-21800D02*
Y-20900D01*
X-1700Y-20700D02*
X-1300D01*
X-1900Y-20500D02*
Y-20300D01*
Y-19300D02*
Y-19100D01*
X-4000Y-10500D02*
Y-7200D01*
X-6300Y-17400D02*
Y-12800D01*
X-4000Y-10500D01*
X-7700Y-18300D02*
Y-13200D01*
X-8500Y-12400D02*
X-7700Y-13200D01*
X-2600Y-10600D02*
X-2000Y-11200D01*
X-2500Y-13300D02*
X-2000Y-12800D01*
Y-11200D01*
X-2500Y-21200D02*
X-2000Y-21700D01*
X-2500Y-21200D02*
Y-13300D01*
X-7000Y-22500D02*
X-4750Y-24750D01*
Y-26700D02*
Y-24750D01*
X-7000Y-22500D02*
Y-19000D01*
X-3700Y-19200D02*
X-3400D01*
X-3700Y-18600D02*
X-3400D01*
X-3200Y-17800D02*
Y-17600D01*
X-3400Y-17400D02*
X-3400D01*
X-3700D02*
X-3400D01*
X-3700Y-18000D02*
X-3400D01*
X-3400D01*
X-3900Y-18400D02*
Y-18200D01*
Y-18400D02*
Y-18400D01*
X-3200Y-19000D02*
Y-18800D01*
X-3200Y-26950D02*
Y-20000D01*
X-3900Y-19600D02*
Y-19600D01*
X-3400Y-19800D02*
X-3400D01*
X-3700D02*
X-3400D01*
X-3900Y-19600D02*
Y-19400D01*
Y-17200D02*
Y-15566D01*
X-6000Y-21700D02*
Y-17700D01*
X-6300Y-17400D02*
X-6000Y-17700D01*
X-5300Y-21100D02*
Y-20300D01*
X-4250Y-27000D02*
Y-22150D01*
X-5300Y-21100D02*
X-4250Y-22150D01*
X-4700Y-19700D02*
Y-12400D01*
X-5300Y-20300D02*
X-4700Y-19700D01*
X-7700Y-18300D02*
X-7000Y-19000D01*
X-12800Y-14500D02*
X-7550Y-19750D01*
X-12800Y-14500D02*
Y-10700D01*
X-7550Y-20450D02*
Y-19750D01*
X-4300Y-21000D02*
Y-13800D01*
X-4000Y-7200D02*
X-2200Y-5400D01*
X-3100Y-14100D02*
X-3000Y-14000D01*
Y-11500D01*
Y-10900D01*
X-2600Y-6300D02*
X-1300Y-5000D01*
Y-4600D01*
X-2600Y-6700D02*
Y-6300D01*
X-2200Y-5400D02*
Y-5000D01*
X-2400Y-6900D02*
X-2000D01*
X-1800Y-7300D02*
Y-7100D01*
Y-8500D02*
Y-8300D01*
X-2000Y-8700D02*
X-2000D01*
X-2000Y-7500D02*
X-2000D01*
X-2400Y-8700D02*
X-2000D01*
X-2400Y-8100D02*
X-2000D01*
X-2400Y-7500D02*
X-2000D01*
X-2600Y-7900D02*
Y-7700D01*
Y-10600D02*
Y-8900D01*
X-2750Y-23450D02*
X-1100Y-21800D01*
Y-18700D02*
Y-18300D01*
X-1900Y-17500D02*
X-1100Y-18300D01*
X7800Y-5100D02*
X12250D01*
X12400Y-5250D01*
X6400Y-5400D02*
X7100Y-4700D01*
X9100D01*
X-2750Y-26700D02*
Y-23450D01*
X-3250Y-27000D02*
X-3200Y-26950D01*
X-4300Y-21000D02*
X-3700Y-21600D01*
X-3750Y-26700D02*
X-3700Y-26650D01*
Y-21600D01*
X-3500Y-11200D02*
X-3500D01*
X-4700Y-12400D02*
X-3500Y-11200D01*
X-4300Y-13800D02*
X-3500Y-13000D01*
X-1900Y-17500D02*
Y-17000D01*
X6900Y-6500D02*
X11300D01*
X7200Y-6900D02*
X11850D01*
X11300Y-6500D02*
X12000Y-5800D01*
X11850Y-6900D02*
X12400Y-6350D01*
X12000Y-5800D02*
X12400D01*
X7200Y-5100D02*
X7800D01*
X9100Y-4700D02*
X12400D01*
X5300Y-7200D02*
X5700D01*
X5300Y-6600D02*
X5800D01*
X6400Y-6000D01*
X5700Y-7200D02*
X6800Y-6100D01*
X5600Y-7800D02*
X6900Y-6500D01*
X6400Y-6000D02*
Y-5400D01*
X5700Y-8400D02*
X7200Y-6900D01*
X6800Y-6100D02*
Y-5500D01*
X7200Y-5100D01*
X5300Y-8400D02*
X5700D01*
X5300Y-7800D02*
X5600D01*
D79*
X-13500Y-24400D02*
Y-24000D01*
X-13100Y-25800D02*
Y-25400D01*
X7750Y-26300D02*
X8250D01*
X1600Y-25100D02*
X2000D01*
X7750Y-26700D02*
X8250D01*
X2000Y-25300D02*
Y-25100D01*
Y-25500D02*
Y-25300D01*
X1600Y-25500D02*
X2000D01*
X-9550Y-26300D02*
X-9050D01*
X-9550Y-26700D02*
X-9050D01*
X13100Y-18300D02*
Y-17100D01*
X-10300Y-23900D02*
Y-23500D01*
Y-24300D02*
Y-23900D01*
X-2600Y-12400D02*
Y-12000D01*
X7300Y-14400D02*
X7700D01*
X8500Y-1600D02*
X8800Y-1900D01*
X11200Y-12000D02*
X12000D01*
X-13600Y-21300D02*
Y-20500D01*
X12600Y-15700D02*
X13400D01*
X12200D02*
X12600D01*
X1600Y-25300D02*
Y-25100D01*
Y-25500D02*
Y-25300D01*
X-9050Y-26700D02*
Y-26300D01*
X-9550Y-26700D02*
Y-26300D01*
X9050Y-26700D02*
X9550D01*
X8250D02*
Y-26300D01*
X7750Y-26700D02*
Y-26300D01*
X9550Y-26700D02*
Y-26300D01*
X9050D02*
X9550D01*
X9050Y-26700D02*
Y-26300D01*
X5100Y-1100D02*
X5500D01*
X-10800Y-21400D02*
Y-20600D01*
X-8000Y-2200D02*
X-7600D01*
X5750Y-14100D02*
X6150D01*
X9800Y-11500D02*
Y-11400D01*
Y-11100D01*
X9350Y-5600D02*
X9800D01*
X10150D01*
D80*
X-2250Y-27350D02*
Y-27000D01*
X750Y-27350D02*
Y-27000D01*
X-750Y-26550D02*
X-400Y-26200D01*
X-750Y-26700D02*
Y-26550D01*
D82*
X2400Y-6600D02*
G03*
X2200Y-6800I0J-200D01*
G01*
X3700Y-7600D02*
G03*
X3500Y-7400I-200J0D01*
G01*
X6200Y-10400D02*
G03*
X6400Y-10600I200J0D01*
G01*
X6200Y-9700D02*
G03*
X6000Y-9500I-200J0D01*
G01*
X5800D02*
G03*
X5600Y-9700I0J-200D01*
G01*
X2735Y-6735D02*
G03*
X2600Y-6600I-135J0D01*
G01*
X1700Y-7500D02*
G03*
X1800Y-7600I100J0D01*
G01*
X1700Y-6800D02*
G03*
X1500Y-6600I-200J0D01*
G01*
X-100D02*
G03*
X-300Y-6800I0J-200D01*
G01*
X1400Y-7100D02*
G03*
X1200Y-6900I-200J0D01*
G01*
X600D02*
G03*
X400Y-7100I0J-200D01*
G01*
X2800Y-7400D02*
G03*
X2600Y-7600I0J-200D01*
G01*
X2100D02*
G03*
X2200Y-7500I0J100D01*
G01*
X2500Y-7900D02*
G03*
X2600Y-7800I0J100D01*
G01*
X1400Y-7700D02*
G03*
X1600Y-7900I200J0D01*
G01*
X200Y-8400D02*
G03*
X400Y-8200I0J200D01*
G01*
X-300D02*
G03*
X-100Y-8400I200J0D01*
G01*
X2600Y-6200D02*
G03*
X2700Y-6100I0J100D01*
G01*
X2200Y-5600D02*
G03*
X2000Y-5400I-200J0D01*
G01*
X-100Y-5200D02*
G03*
X100Y-5400I200J0D01*
G01*
Y-5000D02*
G03*
X-100Y-5200I0J-200D01*
G01*
X4300Y-6500D02*
G03*
X4500Y-6300I0J200D01*
G01*
Y-6100D02*
G03*
X4300Y-5900I-200J0D01*
G01*
X4000Y-5200D02*
G03*
X3800Y-5000I-200J0D01*
G01*
Y-5400D02*
G03*
X4000Y-5200I0J200D01*
G01*
X3200Y-6900D02*
G03*
X3400Y-7100I200J0D01*
G01*
X4400Y-7500D02*
G03*
X4500Y-7400I0J100D01*
G01*
Y-7200D02*
G03*
X4400Y-7100I-100J0D01*
G01*
X4300Y-7500D02*
G03*
X4200Y-7600I0J-100D01*
G01*
X3400Y-5400D02*
G03*
X3200Y-5600I0J-200D01*
G01*
Y-5700D02*
G03*
X3400Y-5900I200J0D01*
G01*
X2000Y-5800D02*
G03*
X2200Y-5600I0J200D01*
G01*
X600Y-5800D02*
G03*
X400Y-6000I0J-200D01*
G01*
X3400Y-6500D02*
G03*
X3200Y-6700I0J-200D01*
G01*
X400Y-6000D02*
G03*
X600Y-6200I200J0D01*
G01*
X8600Y-9500D02*
Y-8100D01*
X4500Y-11300D02*
X6800D01*
X8600Y-9500D01*
X2400Y-6600D02*
X2600D01*
X2200Y-7500D02*
Y-6800D01*
X2800Y-7400D02*
X3500D01*
X2735Y-7034D02*
Y-6735D01*
X3700Y-9000D02*
Y-7600D01*
X5800Y-9500D02*
X6000D01*
X6200Y-9700D02*
Y-9700D01*
Y-10400D02*
Y-9700D01*
X6400Y-10600D02*
X6500D01*
X5600Y-10000D02*
Y-9700D01*
X1800Y-7600D02*
X2100D01*
X1700Y-7500D02*
Y-6800D01*
X-100Y-6600D02*
X1500D01*
X600Y-6900D02*
X1200D01*
X2600Y-7800D02*
Y-7600D01*
X1600Y-7900D02*
X2500D01*
X1400Y-7700D02*
Y-7100D01*
X400Y-8200D02*
Y-7100D01*
X-300Y-8200D02*
Y-6800D01*
X-100Y-8400D02*
X200D01*
X7100Y-10000D02*
X7100D01*
X6500Y-10600D02*
X7100Y-10000D01*
X2700Y-6100D02*
Y-5900D01*
X600Y-6200D02*
X2600D01*
X100Y-5400D02*
X2000D01*
X4500Y-6300D02*
Y-6100D01*
X4300Y-6500D02*
X4300D01*
X4400Y-7100D02*
X4400D01*
X3400D02*
X4400D01*
X3400Y-6500D02*
X4300D01*
X3400Y-5400D02*
X3800D01*
X3200Y-5700D02*
Y-5600D01*
X4300Y-5900D02*
X4300D01*
X3400D02*
X4300D01*
X3200Y-5700D02*
Y-5700D01*
X4500Y-7400D02*
Y-7200D01*
X4400Y-7500D02*
X4400D01*
X4300D02*
X4400D01*
X4200Y-8600D02*
Y-7600D01*
X100Y-5000D02*
X3800D01*
X600Y-5800D02*
X2000D01*
X3200Y-6900D02*
Y-6700D01*
Y-6900D02*
Y-6900D01*
X4200Y-8600D02*
X4800Y-9200D01*
X4000Y-4600D02*
X4800Y-5400D01*
Y-8600D02*
Y-5400D01*
X-200Y-4600D02*
X4000D01*
X4800Y-8600D02*
X5100Y-8900D01*
X-1300Y-5700D02*
X-200Y-4600D01*
X-1300Y-9400D02*
Y-5700D01*
Y-9400D02*
X-800Y-9900D01*
Y-12700D02*
Y-9900D01*
X900Y-7700D02*
X4500Y-11300D01*
X4900Y-11000D02*
X6600D01*
X2300Y-8400D02*
X4900Y-11000D01*
X8200Y-9400D02*
Y-8500D01*
X6600Y-11000D02*
X8200Y-9400D01*
X7100Y-10000D02*
X7800Y-9300D01*
Y-8600D01*
X-3100Y-10800D02*
X-3000Y-10900D01*
X3700Y-9000D02*
X4900Y-10200D01*
X-3100Y-10800D02*
Y-9500D01*
X-1700Y-13600D02*
X-800Y-12700D01*
X5100Y-8900D02*
X5700D01*
X7300Y-7300D01*
X7600D01*
X4800Y-9200D02*
X6500D01*
X7100Y-8600D01*
X4900Y-10200D02*
X5400D01*
X5600Y-10000D01*
X8000Y-8300D02*
X8200Y-8500D01*
X8000Y-8300D02*
Y-8100D01*
X7500Y-8300D02*
X7800Y-8600D01*
X7500Y-8300D02*
Y-7900D01*
D83*
X-800Y-8200D02*
Y-7500D01*
Y-8200D02*
X470Y-9470D01*
X-1350Y-23350D02*
X500Y-21500D01*
X-1600Y-23200D02*
X0Y-21600D01*
X-1600Y-26550D02*
Y-23200D01*
X-1350Y-26900D02*
Y-23350D01*
X0Y-21600D02*
Y-21300D01*
X470Y-21470D02*
Y-9470D01*
X200Y-21118D02*
Y-9800D01*
X-500Y-9100D02*
X200Y-9800D01*
X-1350Y-26900D02*
X-1250Y-27000D01*
X-1750Y-26700D02*
X-1600Y-26550D01*
X470Y-21470D02*
X500Y-21500D01*
X0Y-21300D02*
X182Y-21118D01*
X200D01*
D86*
X-2873Y-396D02*
G03*
X2873Y-396I2873J396D01*
G01*
D87*
X15000Y-4980D02*
D03*
Y-6250D02*
D03*
Y-20220D02*
D03*
Y-18950D02*
D03*
Y-17680D02*
D03*
Y-16410D02*
D03*
Y-2440D02*
D03*
Y-3710D02*
D03*
Y-15140D02*
D03*
Y-13870D02*
D03*
Y-21490D02*
D03*
Y-22760D02*
D03*
Y-24030D02*
D03*
Y-25300D02*
D03*
X15000Y-1167D02*
D03*
D88*
X-10000Y-2500D02*
D03*
D89*
X0Y0D02*
D03*
D90*
X-15000Y-17680D02*
D03*
Y-18950D02*
D03*
Y-15140D02*
D03*
Y-16410D02*
D03*
Y-11330D02*
D03*
Y-13870D02*
D03*
Y-12600D02*
D03*
Y-1170D02*
D03*
Y-2440D02*
D03*
Y-3710D02*
D03*
Y-4980D02*
D03*
Y-6250D02*
D03*
Y-7520D02*
D03*
Y-8790D02*
D03*
Y-10060D02*
D03*
D91*
X-6700Y-24400D02*
D03*
X-7400D02*
D03*
X-13100Y-25800D02*
D03*
Y-25400D02*
D03*
X1250Y-26700D02*
D03*
X2750Y-27000D02*
D03*
X2250Y-26700D02*
D03*
X1750Y-27000D02*
D03*
X-9300Y-4200D02*
D03*
X-7000Y-3850D02*
D03*
X-250Y-27000D02*
D03*
X250Y-26700D02*
D03*
X750Y-27000D02*
D03*
X-6850Y-8400D02*
D03*
X-7700Y-6400D02*
D03*
X-9350Y-20500D02*
D03*
X-7200Y-17300D02*
D03*
X11400Y-11400D02*
D03*
X-2600Y-12400D02*
D03*
X4000Y-22000D02*
D03*
X8100Y-16900D02*
D03*
X13900Y-19600D02*
D03*
X13100Y-21600D02*
D03*
X7700Y-14400D02*
D03*
X7300D02*
D03*
X-13500Y-24000D02*
D03*
Y-24400D02*
D03*
X8500Y-1600D02*
D03*
X5500Y-1100D02*
D03*
X5100D02*
D03*
X5800Y-10500D02*
D03*
X5100Y-9700D02*
D03*
X-10300Y-23900D02*
D03*
Y-24300D02*
D03*
Y-23500D02*
D03*
X-7200Y-18000D02*
D03*
X5300Y-3700D02*
D03*
X-1300Y-4600D02*
D03*
X4300Y-16700D02*
D03*
X3400D02*
D03*
X-1700Y-13600D02*
D03*
X1300Y-16500D02*
D03*
X3000Y-8200D02*
D03*
X1500Y-10800D02*
D03*
X3300Y-11400D02*
D03*
X-2900Y-5300D02*
D03*
X3300Y-2300D02*
D03*
X8800Y-1900D02*
D03*
X4300Y-19200D02*
D03*
X5000D02*
D03*
X2300Y-8400D02*
D03*
X900Y-7700D02*
D03*
X2735Y-7034D02*
D03*
X2700Y-5900D02*
D03*
X7100Y-8600D02*
D03*
X-3100Y-9500D02*
D03*
X-2200Y-5000D02*
D03*
X8800Y-2500D02*
D03*
X3300Y-20600D02*
D03*
X2000Y-17000D02*
D03*
X-1750Y-6200D02*
D03*
X-500Y-9100D02*
D03*
X-800Y-7500D02*
D03*
X3300Y-23100D02*
D03*
X2400Y-18400D02*
D03*
X-3100Y-16800D02*
D03*
X-3000Y-15500D02*
D03*
X1000Y-23100D02*
D03*
X11300Y-23500D02*
D03*
X10400D02*
D03*
X7300Y-23900D02*
D03*
X2000Y-25100D02*
D03*
Y-25500D02*
D03*
X1600D02*
D03*
Y-25100D02*
D03*
X-750Y-26700D02*
D03*
X-1250Y-27000D02*
D03*
X-1750Y-26700D02*
D03*
X-2250Y-27000D02*
D03*
X-2750Y-26700D02*
D03*
X-3250Y-27000D02*
D03*
X-3750Y-26700D02*
D03*
X-4250Y-27000D02*
D03*
X-4750Y-26700D02*
D03*
X-9050Y-26700D02*
D03*
X-9550D02*
D03*
X-9050Y-26300D02*
D03*
X-9550D02*
D03*
X7750Y-26700D02*
D03*
X8250D02*
D03*
X7750Y-26300D02*
D03*
X8250D02*
D03*
X9550D02*
D03*
X9050D02*
D03*
X9550Y-26700D02*
D03*
X9050D02*
D03*
X8000Y-23900D02*
D03*
X13400Y-22950D02*
D03*
X-8000Y-2200D02*
D03*
X900Y-10700D02*
D03*
X-1300Y-13900D02*
D03*
X13400Y-15700D02*
D03*
X12200D02*
D03*
X12600D02*
D03*
X13000D02*
D03*
X13100Y-18300D02*
D03*
Y-17500D02*
D03*
Y-17900D02*
D03*
Y-17100D02*
D03*
X-6400Y-20000D02*
D03*
X-7550Y-20450D02*
D03*
X-10500Y-20000D02*
D03*
X-10800Y-21400D02*
D03*
Y-21000D02*
D03*
Y-20600D02*
D03*
X-13600Y-21300D02*
D03*
Y-20900D02*
D03*
Y-20500D02*
D03*
X500Y-21500D02*
D03*
X0Y-21300D02*
D03*
X-8150Y-20300D02*
D03*
X-8850Y-20200D02*
D03*
X-600Y-6200D02*
D03*
X-3300Y-8700D02*
D03*
X-5500Y-16500D02*
D03*
X1400Y-19000D02*
D03*
X-2600Y-12000D02*
D03*
X-5700Y-13700D02*
D03*
X-5200Y-15700D02*
D03*
X-3500Y-11200D02*
D03*
Y-13000D02*
D03*
Y-14600D02*
D03*
X-3100Y-14100D02*
D03*
X-1900Y-17000D02*
D03*
X-1400Y-17200D02*
D03*
X-1800Y-10400D02*
D03*
X-1300Y-10400D02*
D03*
X-9400Y-8800D02*
D03*
X-8900Y-11100D02*
D03*
X-8200Y-10800D02*
D03*
X-12800Y-10700D02*
D03*
X-3500Y-4100D02*
D03*
X-7600Y-2200D02*
D03*
X-9700Y-5900D02*
D03*
X-10900Y-14950D02*
D03*
Y-13800D02*
D03*
X-7850Y-8600D02*
D03*
X-11000Y-11050D02*
D03*
X-8350Y-8400D02*
D03*
X-10800Y-11550D02*
D03*
X-10600Y-10450D02*
D03*
X-11000Y-12050D02*
D03*
X-8500Y-12400D02*
D03*
X-3750Y-20700D02*
D03*
X-4850Y-20700D02*
D03*
X-2000Y-21700D02*
D03*
X-6000D02*
D03*
X-7099Y-15953D02*
D03*
X-6500Y-9500D02*
D03*
X-6600Y-11600D02*
D03*
X-12600Y-17850D02*
D03*
X-8399Y-17301D02*
D03*
X-13000Y-16300D02*
D03*
X-12850Y-18700D02*
D03*
X-10450Y-5900D02*
D03*
X5750Y-14100D02*
D03*
X9800Y-11500D02*
D03*
X6150Y-14100D02*
D03*
X7400Y-12400D02*
D03*
X8700Y-11800D02*
D03*
X7300Y-9200D02*
D03*
X10150Y-5600D02*
D03*
X9800Y-8000D02*
D03*
X7500Y-7900D02*
D03*
X7600Y-7300D02*
D03*
Y-6100D02*
D03*
X9350Y-5600D02*
D03*
X9750D02*
D03*
X7500Y-5500D02*
D03*
X9800Y-11100D02*
D03*
X9864Y-12723D02*
D03*
X11200Y-12000D02*
D03*
X11600D02*
D03*
X12000D02*
D03*
X11400Y-10850D02*
D03*
X12000Y-8400D02*
D03*
X10200Y-2800D02*
D03*
X10500Y-8000D02*
D03*
X12400Y-6350D02*
D03*
Y-5800D02*
D03*
X11085Y-5782D02*
D03*
X12400Y-5250D02*
D03*
Y-4700D02*
D03*
X11600Y-3600D02*
D03*
X12100Y-3300D02*
D03*
X11100Y-7800D02*
D03*
X5300Y-7800D02*
D03*
Y-7200D02*
D03*
Y-6600D02*
D03*
X5600Y-6000D02*
D03*
X6500Y-4450D02*
D03*
X8000Y-8100D02*
D03*
X9200D02*
D03*
X5300Y-8400D02*
D03*
X8600Y-8100D02*
D03*
M02*
