G04*
G04 #@! TF.GenerationSoftware,Altium Limited,Altium Designer,24.9.1 (31)*
G04*
G04 Layer_Color=32768*
%FSLAX43Y43*%
%MOMM*%
G71*
G04*
G04 #@! TF.SameCoordinates,EB6F8884-3A13-42B7-98C6-1BA732C3788B*
G04*
G04*
G04 #@! TF.FilePolarity,Positive*
G04*
G01*
G75*
%ADD10C,0.100*%
D10*
X6225Y-27100D02*
G03*
X5025Y-27100I-600J0D01*
G01*
X14800Y-26750D02*
G03*
X15000Y-26550I0J200D01*
G01*
X-5525Y-27100D02*
G03*
X-6725Y-27100I-600J0D01*
G01*
X10425Y-26750D02*
G03*
X9925Y-27250I0J-500D01*
G01*
X-9925D02*
G03*
X-10425Y-26750I-500J0D01*
G01*
X-15000Y-26550D02*
G03*
X-14800Y-26750I200J0D01*
G01*
X15000Y-200D02*
G03*
X14800Y-0I-200J0D01*
G01*
X-14800Y0D02*
G03*
X-15000Y-200I0J-200D01*
G01*
X6225Y-30000D02*
X9925D01*
X-5525D02*
X5025D01*
X6225D02*
Y-27100D01*
X5025Y-30000D02*
Y-27100D01*
X-15000Y-26550D02*
Y-200D01*
X15000Y-26550D02*
Y-200D01*
X9925Y-30000D02*
Y-27250D01*
X10425Y-26750D02*
X14800D01*
X-6725Y-30000D02*
Y-27100D01*
X-5525Y-30000D02*
Y-27100D01*
X-14800Y-0D02*
X14800Y0D01*
X-14800Y-26750D02*
X-10425D01*
X-9925Y-30000D02*
Y-27250D01*
X-9925Y-30000D02*
X-6725D01*
M02*
