G04*
G04 #@! TF.GenerationSoftware,Altium Limited,Altium Designer,24.9.1 (31)*
G04*
G04 Layer_Color=10085887*
%FSLAX43Y43*%
%MOMM*%
G71*
G04*
G04 #@! TF.SameCoordinates,EB6F8884-3A13-42B7-98C6-1BA732C3788B*
G04*
G04*
G04 #@! TF.FilePolarity,Positive*
G04*
G01*
G75*
%ADD10C,0.100*%
%ADD11C,0.120*%
%ADD13C,0.200*%
G36*
X-12209Y-20270D02*
X-12228Y-20272D01*
X-12236Y-20373D01*
X-12247Y-20493D01*
X-12252Y-20559D01*
X-12263Y-20678D01*
X-12269Y-20744D01*
X-12280Y-20864D01*
X-12285Y-20929D01*
X-12296Y-21049D01*
X-12301Y-21114D01*
X-12307Y-21174D01*
X-12310Y-21215D01*
X-12192Y-21218D01*
X-12184Y-21188D01*
X-12176Y-21071D01*
X-12171Y-21000D01*
X-12160Y-20869D01*
X-12154Y-20798D01*
X-12138Y-20602D01*
X-12132Y-20531D01*
X-12127Y-20493D01*
X-11923Y-21123D01*
X-11890Y-21215D01*
X-11762Y-21218D01*
X-11748Y-21183D01*
X-11726Y-21112D01*
X-11528Y-20493D01*
X-11522Y-20515D01*
X-11511Y-20646D01*
X-11506Y-20717D01*
X-11489Y-20913D01*
X-11484Y-20984D01*
X-11468Y-21180D01*
X-11462Y-21218D01*
X-11340Y-21215D01*
X-11345Y-21128D01*
X-11350Y-21106D01*
X-11359Y-20995D01*
X-11364Y-20929D01*
X-11369Y-20869D01*
X-11380Y-20738D01*
X-11386Y-20678D01*
X-11397Y-20548D01*
X-11402Y-20488D01*
X-11408Y-20422D01*
X-11413Y-20362D01*
X-11419Y-20297D01*
X-11424Y-20270D01*
X-11574Y-20272D01*
X-11582Y-20302D01*
X-11596Y-20349D01*
X-11628Y-20452D01*
X-11656Y-20540D01*
X-11688Y-20643D01*
X-11716Y-20730D01*
X-11748Y-20834D01*
X-11803Y-21008D01*
X-11827Y-21076D01*
X-11890Y-20872D01*
X-12064Y-20305D01*
X-12078Y-20270D01*
X-12203Y-20270D01*
X-12209Y-20270D01*
D02*
G37*
G36*
X-10786Y-20264D02*
X-10803Y-20270D01*
X-10846Y-20281D01*
X-10874Y-20292D01*
X-10944Y-20330D01*
X-10993Y-20368D01*
X-11023Y-20398D01*
X-11029Y-20409D01*
X-11040Y-20420D01*
X-11045Y-20431D01*
X-11067Y-20463D01*
X-11089Y-20512D01*
X-11102Y-20548D01*
X-11113Y-20591D01*
X-11119Y-20619D01*
X-11124Y-20651D01*
X-11130Y-20722D01*
X-11132Y-20763D01*
X-11127Y-20779D01*
X-11122Y-20877D01*
X-11116Y-20894D01*
X-11108Y-20924D01*
X-11102Y-20945D01*
X-11081Y-21000D01*
X-11056Y-21046D01*
X-11004Y-21114D01*
X-10972Y-21147D01*
X-10961Y-21153D01*
X-10950Y-21163D01*
X-10857Y-21207D01*
X-10819Y-21218D01*
X-10797Y-21223D01*
X-10759Y-21229D01*
X-10677Y-21234D01*
X-10661Y-21229D01*
X-10596Y-21223D01*
X-10579Y-21218D01*
X-10528Y-21199D01*
X-10454Y-21158D01*
X-10443Y-21147D01*
X-10432Y-21142D01*
X-10375Y-21084D01*
X-10369Y-21074D01*
X-10359Y-21063D01*
X-10310Y-20959D01*
X-10293Y-20905D01*
X-10288Y-20883D01*
X-10282Y-20845D01*
X-10277Y-20790D01*
X-10282Y-20627D01*
X-10288Y-20610D01*
X-10296Y-20575D01*
X-10318Y-20515D01*
X-10329Y-20488D01*
X-10361Y-20433D01*
X-10405Y-20379D01*
X-10443Y-20341D01*
X-10454Y-20335D01*
X-10459Y-20330D01*
X-10465D01*
X-10476Y-20319D01*
X-10487Y-20313D01*
X-10557Y-20281D01*
X-10623Y-20264D01*
X-10694Y-20259D01*
X-10786Y-20264D01*
D02*
G37*
G36*
X-9748Y-20839D02*
X-9746Y-20384D01*
X-9470Y-20381D01*
X-9473Y-20270D01*
X-10151Y-20272D01*
X-10149Y-20384D01*
X-9871Y-20390D01*
X-9865Y-21218D01*
X-9748Y-21215D01*
X-9748Y-20845D01*
X-9748Y-20839D01*
D02*
G37*
G36*
X-9097Y-20275D02*
X-9116Y-20322D01*
X-9130Y-20357D01*
X-9293Y-20793D01*
X-9296Y-20796D01*
Y-20801D01*
X-9310Y-20837D01*
X-9440Y-21185D01*
X-9448Y-21215D01*
X-9326Y-21218D01*
X-9318Y-21210D01*
X-9299Y-21158D01*
X-9282Y-21114D01*
X-9260Y-21055D01*
X-9228Y-20967D01*
X-8827Y-20970D01*
X-8816Y-20997D01*
X-8797Y-21049D01*
X-8770Y-21125D01*
X-8748Y-21185D01*
X-8737Y-21218D01*
X-8615Y-21215D01*
X-8637Y-21161D01*
X-8650Y-21125D01*
X-8661Y-21098D01*
X-8694Y-21011D01*
X-8705Y-20984D01*
X-8737Y-20896D01*
X-8748Y-20869D01*
X-8781Y-20782D01*
X-8792Y-20755D01*
X-8825Y-20668D01*
X-8835Y-20640D01*
X-8868Y-20553D01*
X-8879Y-20526D01*
X-8912Y-20439D01*
X-8923Y-20411D01*
X-8955Y-20324D01*
X-8977Y-20270D01*
X-9097Y-20275D01*
D02*
G37*
G36*
X-7879Y-21112D02*
X-7841Y-21074D01*
X-7835Y-21063D01*
X-7825Y-21052D01*
X-7775Y-20948D01*
X-7765Y-20910D01*
X-7754Y-20866D01*
X-7748Y-20796D01*
X-7746Y-20744D01*
X-7751Y-20668D01*
X-7762Y-20602D01*
X-7767Y-20580D01*
X-7775Y-20550D01*
X-7786Y-20523D01*
X-7830Y-20441D01*
X-7841Y-20431D01*
X-7846Y-20420D01*
X-7863Y-20403D01*
X-7868Y-20392D01*
X-7887Y-20373D01*
X-7898Y-20368D01*
X-7920Y-20346D01*
X-7931Y-20341D01*
X-7963Y-20319D01*
X-8023Y-20292D01*
X-8094Y-20270D01*
X-8132Y-20264D01*
X-8154Y-20259D01*
X-8241Y-20253D01*
X-8350Y-20259D01*
X-8367Y-20264D01*
X-8408Y-20272D01*
X-8429Y-20278D01*
X-8484Y-20300D01*
X-8476Y-20341D01*
X-8470Y-20362D01*
X-8462Y-20392D01*
X-8446Y-20458D01*
X-8440Y-20469D01*
X-8438Y-20471D01*
X-8410Y-20460D01*
X-8345Y-20450D01*
X-8307Y-20444D01*
X-8176Y-20450D01*
X-8149Y-20460D01*
X-8113Y-20474D01*
X-8059Y-20507D01*
X-8015Y-20550D01*
X-8010Y-20561D01*
X-7983Y-20621D01*
X-7972Y-20665D01*
X-7966Y-20703D01*
X-7972Y-20828D01*
X-7977Y-20845D01*
X-7991Y-20880D01*
X-8002Y-20907D01*
X-8010Y-20916D01*
X-8015Y-20926D01*
X-8040Y-20956D01*
X-8062Y-20978D01*
X-8072Y-20984D01*
X-8083Y-20995D01*
X-8132Y-21016D01*
X-8171Y-21027D01*
X-8192Y-21033D01*
X-8247Y-21038D01*
X-8356Y-21033D01*
X-8372Y-21027D01*
X-8394Y-21022D01*
X-8429Y-21008D01*
X-8443Y-21005D01*
X-8451Y-21035D01*
X-8468Y-21101D01*
X-8476Y-21136D01*
X-8481Y-21158D01*
X-8484Y-21177D01*
X-8476Y-21185D01*
X-8421Y-21207D01*
X-8383Y-21218D01*
X-8340Y-21229D01*
X-8285Y-21234D01*
X-8122Y-21229D01*
X-8105Y-21223D01*
X-8070Y-21215D01*
X-8048Y-21210D01*
X-7993Y-21188D01*
X-7920Y-21147D01*
X-7909Y-21136D01*
X-7898Y-21131D01*
X-7882Y-21114D01*
X-7879Y-21112D01*
D02*
G37*
G36*
X-3286Y-18751D02*
X-3226Y-18757D01*
X-3138Y-18768D01*
X-3106Y-18773D01*
X-3078Y-18778D01*
X-3046Y-18784D01*
X-3010Y-18792D01*
X-2994Y-18798D01*
X-2989D01*
X-2923Y-18814D01*
X-2885Y-18825D01*
X-2757Y-18866D01*
X-2722Y-18879D01*
X-2683Y-18896D01*
X-2656Y-18907D01*
X-2553Y-18956D01*
X-2471Y-18999D01*
X-2460Y-19005D01*
X-2416Y-19032D01*
X-2405Y-19037D01*
X-2373Y-19059D01*
X-2362Y-19065D01*
X-2324Y-19092D01*
X-2313Y-19097D01*
X-2302Y-19108D01*
X-2291Y-19114D01*
X-2253Y-19141D01*
X-2242Y-19146D01*
X-2231Y-19157D01*
X-2220Y-19163D01*
X-2209Y-19174D01*
X-2198Y-19179D01*
X-2187Y-19190D01*
X-2177Y-19195D01*
X-2166Y-19206D01*
X-2155Y-19212D01*
X-2122Y-19244D01*
X-2111Y-19250D01*
X-2078Y-19283D01*
X-2068Y-19288D01*
X-1961Y-19394D01*
X-1956Y-19405D01*
X-1923Y-19438D01*
X-1918Y-19449D01*
X-1890Y-19476D01*
X-1885Y-19487D01*
X-1874Y-19498D01*
X-1869Y-19509D01*
X-1852Y-19525D01*
X-1847Y-19536D01*
X-1836Y-19547D01*
X-1831Y-19558D01*
X-1820Y-19569D01*
X-1814Y-19580D01*
X-1787Y-19618D01*
X-1781Y-19629D01*
X-1754Y-19667D01*
X-1749Y-19678D01*
X-1722Y-19721D01*
X-1623Y-19912D01*
X-1618Y-19934D01*
X-1626Y-19937D01*
X-1692Y-19953D01*
X-1779Y-19980D01*
X-1833Y-20002D01*
X-1937Y-20051D01*
X-1980Y-20078D01*
X-1991Y-20084D01*
X-2062Y-20133D01*
X-2073Y-20138D01*
X-2084Y-20149D01*
X-2095Y-20154D01*
X-2117Y-20176D01*
X-2128Y-20182D01*
X-2177Y-20231D01*
X-2187Y-20236D01*
X-2212Y-20261D01*
X-2217Y-20272D01*
X-2250Y-20304D01*
X-2264Y-20323D01*
X-2288Y-20353D01*
X-2326Y-20402D01*
X-2332Y-20413D01*
X-2359Y-20451D01*
X-2386Y-20501D01*
X-2411Y-20541D01*
X-2438Y-20601D01*
X-2460Y-20656D01*
X-2482Y-20716D01*
X-2504Y-20705D01*
X-2520Y-20689D01*
X-2531Y-20683D01*
X-2593Y-20620D01*
X-2599Y-20610D01*
X-2615Y-20593D01*
X-2621Y-20582D01*
X-2632Y-20571D01*
X-2637Y-20560D01*
X-2648Y-20550D01*
X-2653Y-20539D01*
X-2675Y-20506D01*
X-2749Y-20367D01*
X-2771Y-20313D01*
X-2787Y-20269D01*
X-2806Y-20217D01*
X-2841Y-20105D01*
X-2855Y-20070D01*
X-2877Y-20016D01*
X-2975Y-19814D01*
X-3002Y-19770D01*
X-3008Y-19759D01*
X-3046Y-19705D01*
X-3051Y-19694D01*
X-3062Y-19683D01*
X-3068Y-19672D01*
X-3078Y-19661D01*
X-3084Y-19650D01*
X-3095Y-19640D01*
X-3100Y-19629D01*
X-3128Y-19601D01*
X-3133Y-19590D01*
X-3250Y-19473D01*
X-3261Y-19468D01*
X-3277Y-19451D01*
X-3296Y-19438D01*
X-3365Y-19386D01*
X-3375Y-19381D01*
X-3408Y-19359D01*
X-3512Y-19304D01*
X-3534Y-19299D01*
X-3574Y-19340D01*
X-3580Y-19351D01*
X-3604Y-19375D01*
X-3664Y-19451D01*
X-3689Y-19481D01*
X-3702Y-19501D01*
X-3776Y-19612D01*
X-3847Y-19749D01*
X-3863Y-19787D01*
X-3880Y-19792D01*
X-3942Y-19800D01*
X-3959Y-19806D01*
X-4155Y-19811D01*
X-4242Y-19806D01*
X-4264Y-19800D01*
X-4329Y-19789D01*
X-4373Y-19778D01*
X-4411Y-19768D01*
X-4465Y-19751D01*
X-4520Y-19729D01*
X-4656Y-19664D01*
X-4694Y-19637D01*
X-4705Y-19631D01*
X-4743Y-19604D01*
X-4754Y-19599D01*
X-4765Y-19588D01*
X-4776Y-19582D01*
X-4792Y-19566D01*
X-4803Y-19560D01*
X-4831Y-19533D01*
X-4841Y-19528D01*
X-4915Y-19454D01*
X-4920Y-19438D01*
X-4893Y-19411D01*
X-4888Y-19400D01*
X-4833Y-19345D01*
X-4828Y-19334D01*
X-4781Y-19288D01*
X-4771Y-19283D01*
X-4716Y-19228D01*
X-4705Y-19223D01*
X-4678Y-19195D01*
X-4667Y-19190D01*
X-4651Y-19174D01*
X-4640Y-19168D01*
X-4632Y-19160D01*
X-4563Y-19108D01*
X-4553Y-19103D01*
X-4542Y-19092D01*
X-4531Y-19086D01*
X-4493Y-19059D01*
X-4482Y-19054D01*
X-4449Y-19032D01*
X-4438Y-19026D01*
X-4395Y-18999D01*
X-4313Y-18956D01*
X-4302Y-18950D01*
X-4209Y-18907D01*
X-4163Y-18887D01*
X-4119Y-18871D01*
X-3986Y-18825D01*
X-3956Y-18817D01*
X-3869Y-18795D01*
X-3841Y-18789D01*
X-3820Y-18784D01*
X-3787Y-18778D01*
X-3760Y-18773D01*
X-3697Y-18765D01*
X-3681Y-18759D01*
X-3593Y-18754D01*
X-3577Y-18749D01*
X-3286Y-18751D01*
D02*
G37*
G36*
X-3354Y-20291D02*
X-3332Y-20296D01*
X-3277Y-20313D01*
X-3228Y-20334D01*
X-3196Y-20356D01*
X-3185Y-20362D01*
X-3168Y-20378D01*
X-3157Y-20383D01*
X-3130Y-20411D01*
X-3078Y-20479D01*
X-3057Y-20517D01*
X-3049Y-20536D01*
X-3029Y-20588D01*
X-3024Y-20604D01*
X-3019Y-20735D01*
X-3024Y-20773D01*
X-3029Y-20795D01*
X-3040Y-20833D01*
X-3062Y-20882D01*
X-3084Y-20920D01*
X-3089Y-20931D01*
X-3106Y-20947D01*
X-3111Y-20958D01*
X-3147Y-20994D01*
X-3196Y-21032D01*
X-3277Y-21075D01*
X-3305Y-21086D01*
X-3326Y-21092D01*
X-3343Y-21097D01*
X-3457Y-21103D01*
X-3523Y-21092D01*
X-3561Y-21081D01*
X-3588Y-21070D01*
X-3626Y-21054D01*
X-3664Y-21026D01*
X-3675Y-21021D01*
X-3735Y-20961D01*
X-3760Y-20931D01*
X-3801Y-20857D01*
X-3817Y-20814D01*
X-3831Y-20757D01*
X-3836Y-20719D01*
X-3831Y-20631D01*
X-3814Y-20566D01*
X-3803Y-20539D01*
X-3787Y-20501D01*
X-3765Y-20468D01*
X-3760Y-20457D01*
X-3743Y-20441D01*
X-3738Y-20430D01*
X-3705Y-20397D01*
X-3637Y-20345D01*
X-3591Y-20321D01*
X-3563Y-20310D01*
X-3561Y-20307D01*
X-3523Y-20296D01*
X-3506Y-20291D01*
X-3408Y-20285D01*
X-3354Y-20291D01*
D02*
G37*
G36*
X-5808Y-21215D02*
X-6007Y-21218D01*
X-6010Y-20926D01*
X-6072Y-20924D01*
X-6176Y-20918D01*
X-6231Y-20913D01*
X-6274Y-20902D01*
X-6312Y-20891D01*
X-6394Y-20853D01*
X-6405Y-20842D01*
X-6416Y-20837D01*
X-6451Y-20801D01*
X-6454Y-20798D01*
X-6457Y-20790D01*
X-6465Y-20782D01*
X-6487Y-20749D01*
X-6498Y-20722D01*
X-6511Y-20687D01*
X-6517Y-20670D01*
X-6522Y-20545D01*
X-6517Y-20523D01*
X-6511Y-20485D01*
X-6489Y-20431D01*
X-6468Y-20398D01*
X-6462Y-20387D01*
X-6432Y-20357D01*
X-6421Y-20351D01*
X-6413Y-20343D01*
X-6369Y-20316D01*
X-6315Y-20294D01*
X-6258Y-20281D01*
X-6241Y-20275D01*
X-5811Y-20270D01*
X-5808Y-21215D01*
D02*
G37*
G36*
X-7072Y-20256D02*
X-7029Y-20262D01*
X-6993Y-20270D01*
X-6955Y-20281D01*
X-6863Y-20324D01*
X-6852Y-20335D01*
X-6841Y-20341D01*
X-6825Y-20357D01*
X-6814Y-20362D01*
X-6789Y-20387D01*
X-6784Y-20398D01*
X-6773Y-20409D01*
X-6759Y-20428D01*
X-6721Y-20488D01*
X-6710Y-20515D01*
X-6688Y-20575D01*
X-6680Y-20610D01*
X-6675Y-20627D01*
X-6669Y-20785D01*
X-6675Y-20856D01*
X-6680Y-20872D01*
Y-20877D01*
Y-20883D01*
X-6686Y-20905D01*
X-6702Y-20959D01*
X-6746Y-21052D01*
X-6756Y-21063D01*
X-6762Y-21074D01*
X-6778Y-21090D01*
X-6784Y-21101D01*
X-6797Y-21114D01*
X-6808Y-21120D01*
X-6830Y-21142D01*
X-6841Y-21147D01*
X-6849Y-21155D01*
X-6904Y-21188D01*
X-6931Y-21199D01*
X-6974Y-21215D01*
X-7010Y-21223D01*
X-7026Y-21229D01*
X-7168Y-21234D01*
X-7244Y-21223D01*
X-7266Y-21218D01*
X-7304Y-21207D01*
X-7397Y-21163D01*
X-7408Y-21158D01*
X-7419Y-21147D01*
X-7429Y-21142D01*
X-7465Y-21106D01*
X-7503Y-21057D01*
X-7538Y-20995D01*
X-7560Y-20935D01*
X-7574Y-20877D01*
X-7579Y-20861D01*
X-7585Y-20708D01*
X-7579Y-20654D01*
X-7574Y-20616D01*
X-7563Y-20572D01*
X-7552Y-20534D01*
X-7541Y-20507D01*
X-7525Y-20469D01*
X-7503Y-20436D01*
X-7498Y-20425D01*
X-7487Y-20414D01*
X-7481Y-20403D01*
X-7432Y-20354D01*
X-7380Y-20319D01*
X-7334Y-20294D01*
X-7290Y-20278D01*
X-7260Y-20270D01*
X-7244Y-20264D01*
X-7190Y-20259D01*
X-7173Y-20253D01*
X-7072Y-20256D01*
D02*
G37*
G36*
X-1569Y-20059D02*
X-1558Y-20086D01*
X-1539Y-20149D01*
X-1512Y-20258D01*
X-1506Y-20285D01*
X-1501Y-20318D01*
X-1495Y-20345D01*
X-1490Y-20378D01*
X-1482Y-20451D01*
X-1476Y-20468D01*
X-1471Y-20708D01*
X-1476Y-20860D01*
X-1482Y-20882D01*
X-1487Y-20937D01*
X-1493Y-20975D01*
X-1498Y-20996D01*
X-1514Y-21089D01*
X-1531Y-21154D01*
X-1553Y-21231D01*
X-1583Y-21326D01*
X-1596Y-21362D01*
X-1618Y-21416D01*
X-1716Y-21618D01*
X-1738Y-21656D01*
X-1743Y-21667D01*
X-1781Y-21727D01*
X-1787Y-21738D01*
X-1841Y-21814D01*
X-1847Y-21825D01*
X-1863Y-21841D01*
X-1869Y-21852D01*
X-1880Y-21863D01*
X-1885Y-21874D01*
X-1901Y-21890D01*
X-1907Y-21901D01*
X-1929Y-21923D01*
X-1934Y-21934D01*
X-1967Y-21966D01*
X-1972Y-21977D01*
X-2106Y-22111D01*
X-2117Y-22116D01*
X-2149Y-22149D01*
X-2160Y-22154D01*
X-2182Y-22176D01*
X-2193Y-22182D01*
X-2204Y-22193D01*
X-2223Y-22206D01*
X-2329Y-22285D01*
X-2367Y-22307D01*
X-2405Y-22334D01*
X-2444Y-22356D01*
X-2667Y-22471D01*
X-2697Y-22484D01*
X-2751Y-22506D01*
X-2795Y-22522D01*
X-2896Y-22558D01*
X-2926Y-22566D01*
X-3035Y-22593D01*
X-3089Y-22604D01*
X-3122Y-22610D01*
X-3193Y-22620D01*
X-3299Y-22629D01*
X-3316Y-22634D01*
X-3531Y-22631D01*
X-3648Y-22623D01*
X-3656Y-22615D01*
X-3651Y-22599D01*
X-3643Y-22569D01*
X-3632Y-22525D01*
X-3621Y-22471D01*
X-3613Y-22408D01*
X-3607Y-22392D01*
X-3602Y-22212D01*
X-3607Y-22174D01*
X-3613Y-22103D01*
X-3618Y-22081D01*
X-3629Y-22016D01*
X-3645Y-21950D01*
X-3672Y-21863D01*
X-3694Y-21808D01*
X-3732Y-21727D01*
X-3776Y-21645D01*
X-3831Y-21569D01*
X-3836Y-21558D01*
X-3852Y-21541D01*
X-3858Y-21531D01*
X-3880Y-21509D01*
X-3885Y-21498D01*
X-3901Y-21481D01*
X-3907Y-21465D01*
X-3882Y-21446D01*
X-3855Y-21430D01*
X-3847Y-21422D01*
X-3820Y-21411D01*
X-3760Y-21389D01*
X-3713Y-21381D01*
X-3697Y-21375D01*
X-3514Y-21378D01*
X-3471Y-21383D01*
X-3405Y-21394D01*
X-3384Y-21400D01*
X-3329Y-21411D01*
X-3307Y-21416D01*
X-3280Y-21422D01*
X-3247Y-21427D01*
X-3220Y-21432D01*
X-3157Y-21441D01*
X-3141Y-21446D01*
X-3065Y-21451D01*
X-3049Y-21457D01*
X-2792Y-21462D01*
X-2672Y-21457D01*
X-2651Y-21451D01*
X-2577Y-21443D01*
X-2544Y-21438D01*
X-2517Y-21432D01*
X-2482Y-21424D01*
X-2444Y-21413D01*
X-2356Y-21386D01*
X-2220Y-21321D01*
X-2209Y-21315D01*
X-2171Y-21288D01*
X-2160Y-21283D01*
X-2157Y-21274D01*
X-2168Y-21236D01*
X-2196Y-21149D01*
X-2228Y-21067D01*
X-2305Y-20909D01*
X-2332Y-20866D01*
X-2337Y-20855D01*
X-2359Y-20822D01*
X-2365Y-20811D01*
X-2392Y-20773D01*
X-2397Y-20762D01*
X-2414Y-20746D01*
X-2408Y-20724D01*
X-2386Y-20669D01*
X-2321Y-20533D01*
X-2294Y-20490D01*
X-2272Y-20451D01*
X-2261Y-20441D01*
X-2256Y-20430D01*
X-2245Y-20419D01*
X-2239Y-20408D01*
X-2223Y-20392D01*
X-2217Y-20381D01*
X-2185Y-20348D01*
X-2179Y-20337D01*
X-2117Y-20274D01*
X-2106Y-20269D01*
X-2068Y-20231D01*
X-2057Y-20225D01*
X-2046Y-20214D01*
X-2035Y-20209D01*
X-2019Y-20193D01*
X-2013D01*
X-2010Y-20190D01*
X-1942Y-20144D01*
X-1814Y-20075D01*
X-1732Y-20043D01*
X-1681Y-20024D01*
X-1643Y-20013D01*
X-1626Y-20007D01*
X-1588Y-20002D01*
X-1569Y-20059D01*
D02*
G37*
G36*
X-4880Y-19604D02*
X-4869Y-19610D01*
X-4850Y-19629D01*
X-4781Y-19680D01*
X-4762Y-19694D01*
X-4730Y-19716D01*
X-4626Y-19776D01*
X-4566Y-19803D01*
X-4539Y-19814D01*
X-4495Y-19830D01*
X-4460Y-19844D01*
X-4414Y-19857D01*
X-4370Y-19868D01*
X-4316Y-19879D01*
X-4258Y-19887D01*
X-4242Y-19893D01*
X-4106Y-19898D01*
X-3986Y-19893D01*
X-3964Y-19887D01*
X-3871Y-19877D01*
X-3855Y-19871D01*
X-3852Y-19874D01*
X-3847Y-19885D01*
X-3841Y-19923D01*
X-3847Y-19994D01*
X-3858Y-20037D01*
X-3869Y-20075D01*
X-3923Y-20190D01*
X-3978Y-20266D01*
X-3983Y-20277D01*
X-4005Y-20299D01*
X-4010Y-20310D01*
X-4043Y-20343D01*
X-4049Y-20353D01*
X-4087Y-20392D01*
X-4092Y-20402D01*
X-4125Y-20435D01*
X-4130Y-20446D01*
X-4152Y-20468D01*
X-4157Y-20479D01*
X-4168Y-20490D01*
X-4207Y-20539D01*
X-4272Y-20626D01*
X-4337Y-20724D01*
X-4343Y-20735D01*
X-4365Y-20768D01*
X-4463Y-20958D01*
X-4476Y-20988D01*
X-4493Y-21032D01*
X-4525Y-21125D01*
X-4547Y-21212D01*
X-4555Y-21258D01*
X-4561Y-21274D01*
X-4566Y-21460D01*
X-4555Y-21487D01*
X-4490Y-21503D01*
X-4463Y-21509D01*
X-4397Y-21520D01*
X-4335Y-21528D01*
X-4318Y-21533D01*
X-4111Y-21539D01*
X-4024Y-21533D01*
X-3969Y-21528D01*
X-3942Y-21566D01*
X-3890Y-21634D01*
X-3874Y-21661D01*
X-3847Y-21699D01*
X-3814Y-21759D01*
X-3806Y-21768D01*
X-3779Y-21828D01*
X-3768Y-21855D01*
X-3727Y-21972D01*
X-3722Y-21994D01*
X-3716Y-22010D01*
X-3711Y-22054D01*
X-3708Y-22056D01*
X-3700Y-22108D01*
X-3694Y-22125D01*
X-3689Y-22343D01*
X-3694Y-22381D01*
X-3702Y-22454D01*
X-3708Y-22487D01*
X-3716Y-22522D01*
X-3727Y-22566D01*
X-3741Y-22612D01*
X-3781Y-22604D01*
X-3814Y-22599D01*
X-3850Y-22590D01*
X-3893Y-22580D01*
X-3931Y-22569D01*
X-4049Y-22533D01*
X-4084Y-22520D01*
X-4166Y-22487D01*
X-4335Y-22405D01*
X-4395Y-22372D01*
X-4427Y-22351D01*
X-4438Y-22345D01*
X-4471Y-22323D01*
X-4482Y-22318D01*
X-4520Y-22291D01*
X-4531Y-22285D01*
X-4542Y-22274D01*
X-4553Y-22269D01*
X-4563Y-22258D01*
X-4574Y-22253D01*
X-4585Y-22242D01*
X-4596Y-22236D01*
X-4607Y-22225D01*
X-4618Y-22220D01*
X-4640Y-22198D01*
X-4651Y-22193D01*
X-4678Y-22165D01*
X-4689Y-22160D01*
X-4732Y-22116D01*
X-4743Y-22111D01*
X-4806Y-22048D01*
X-4811Y-22037D01*
X-4866Y-21983D01*
X-4871Y-21972D01*
X-4899Y-21945D01*
X-4904Y-21934D01*
X-4920Y-21917D01*
X-4926Y-21907D01*
X-4934Y-21898D01*
X-4986Y-21830D01*
X-4991Y-21819D01*
X-4999Y-21811D01*
X-5021Y-21778D01*
X-5059Y-21719D01*
X-5092Y-21664D01*
X-5163Y-21533D01*
X-5174Y-21506D01*
X-5201Y-21446D01*
X-5223Y-21392D01*
X-5275Y-21242D01*
X-5286Y-21204D01*
X-5294Y-21174D01*
X-5299Y-21146D01*
X-5310Y-21103D01*
X-5321Y-21048D01*
X-5326Y-21016D01*
X-5335Y-20958D01*
X-5340Y-20942D01*
X-5346Y-20849D01*
X-5351Y-20833D01*
X-5348Y-20547D01*
X-5343Y-20487D01*
X-5337Y-20411D01*
X-5329Y-20348D01*
X-5324Y-20326D01*
X-5307Y-20234D01*
X-5291Y-20168D01*
X-5269Y-20092D01*
X-5239Y-19996D01*
X-5226Y-19961D01*
X-5209Y-19923D01*
X-5198Y-19896D01*
X-5117Y-19727D01*
X-5089Y-19683D01*
X-5068Y-19645D01*
X-5062Y-19634D01*
X-4986Y-19525D01*
X-4980Y-19514D01*
X-4972Y-19511D01*
X-4880Y-19604D01*
D02*
G37*
G36*
X-6500Y-24400D02*
X-9938D01*
Y-23400D01*
X-6500D01*
Y-24400D01*
D02*
G37*
G36*
X300D02*
X-4300D01*
Y-23400D01*
X300D01*
Y-24400D01*
D02*
G37*
%LPC*%
G36*
X-10710Y-20373D02*
X-10639Y-20379D01*
X-10623Y-20384D01*
X-10587Y-20398D01*
X-10555Y-20414D01*
X-10536Y-20428D01*
X-10506Y-20452D01*
X-10489Y-20469D01*
X-10484Y-20480D01*
X-10473Y-20490D01*
X-10440Y-20561D01*
X-10429Y-20589D01*
X-10413Y-20681D01*
X-10410Y-20755D01*
X-10416Y-20831D01*
X-10421Y-20864D01*
X-10432Y-20907D01*
X-10448Y-20951D01*
X-10473Y-20997D01*
X-10498Y-21027D01*
X-10536Y-21065D01*
X-10547Y-21071D01*
X-10617Y-21104D01*
X-10639Y-21109D01*
X-10677Y-21114D01*
X-10732Y-21120D01*
X-10748Y-21114D01*
X-10797Y-21109D01*
X-10825Y-21098D01*
X-10874Y-21071D01*
X-10904Y-21046D01*
X-10931Y-21019D01*
X-10936Y-21008D01*
X-10958Y-20975D01*
X-10969Y-20948D01*
X-10974Y-20937D01*
Y-20932D01*
X-10985Y-20894D01*
X-10991Y-20872D01*
X-11002Y-20796D01*
X-10996Y-20632D01*
X-10991Y-20616D01*
X-10983Y-20580D01*
X-10966Y-20537D01*
X-10942Y-20490D01*
X-10917Y-20460D01*
X-10909Y-20452D01*
X-10904Y-20441D01*
X-10884Y-20428D01*
X-10852Y-20406D01*
X-10825Y-20395D01*
X-10786Y-20384D01*
X-10765Y-20379D01*
X-10710Y-20373D01*
D02*
G37*
G36*
X-9026Y-20411D02*
X-8917Y-20711D01*
X-8901Y-20755D01*
X-8879Y-20815D01*
X-8868Y-20853D01*
X-9181Y-20850D01*
X-9173Y-20820D01*
X-9151Y-20760D01*
X-9053Y-20482D01*
X-9032Y-20417D01*
X-9029Y-20414D01*
X-9026Y-20411D01*
D02*
G37*
G36*
X-6111Y-20450D02*
X-6116D01*
X-6192Y-20460D01*
X-6214Y-20466D01*
X-6263Y-20488D01*
X-6277Y-20501D01*
X-6304Y-20550D01*
X-6310Y-20599D01*
X-6304Y-20638D01*
X-6293Y-20665D01*
X-6288Y-20676D01*
X-6263Y-20700D01*
X-6203Y-20733D01*
X-6149Y-20738D01*
X-6132Y-20744D01*
X-6004Y-20741D01*
X-6007Y-20455D01*
X-6111Y-20450D01*
D02*
G37*
G36*
X-7075Y-20439D02*
X-7176Y-20441D01*
X-7198Y-20447D01*
X-7228Y-20455D01*
X-7260Y-20477D01*
X-7271Y-20482D01*
X-7299Y-20510D01*
X-7320Y-20542D01*
X-7348Y-20602D01*
X-7356Y-20638D01*
X-7361Y-20654D01*
X-7367Y-20763D01*
X-7361Y-20817D01*
X-7350Y-20883D01*
X-7340Y-20910D01*
X-7334Y-20932D01*
X-7312Y-20965D01*
X-7307Y-20975D01*
X-7271Y-21011D01*
X-7211Y-21044D01*
X-7190Y-21049D01*
X-7173Y-21055D01*
X-7089Y-21052D01*
X-7053Y-21044D01*
X-6993Y-21016D01*
X-6947Y-20970D01*
X-6925Y-20932D01*
X-6923Y-20929D01*
X-6917Y-20918D01*
X-6904Y-20883D01*
X-6893Y-20856D01*
X-6887Y-20785D01*
X-6882Y-20768D01*
X-6887Y-20687D01*
X-6893Y-20649D01*
X-6898Y-20627D01*
X-6909Y-20589D01*
X-6920Y-20561D01*
X-6942Y-20529D01*
X-6947Y-20518D01*
X-6983Y-20482D01*
X-7032Y-20455D01*
X-7059Y-20444D01*
X-7075Y-20439D01*
D02*
G37*
G36*
X-8806Y-23604D02*
X-8939D01*
D01*
X-8806D01*
D02*
G37*
G36*
X-7780D02*
Y-23716D01*
X-7781Y-23712D01*
Y-23709D01*
X-7782Y-23704D01*
X-7785Y-23693D01*
X-7789Y-23680D01*
X-7795Y-23667D01*
X-7803Y-23652D01*
X-7808Y-23646D01*
X-7814Y-23639D01*
X-7814Y-23638D01*
X-7815Y-23638D01*
X-7817Y-23636D01*
X-7820Y-23633D01*
X-7827Y-23628D01*
X-7837Y-23621D01*
X-7849Y-23615D01*
X-7863Y-23609D01*
X-7880Y-23605D01*
X-7888Y-23604D01*
X-7897Y-23604D01*
X-7780D01*
X-8015D01*
X-7990D01*
X-7994Y-23604D01*
X-8000Y-23607D01*
X-8004Y-23609D01*
X-8007Y-23612D01*
X-8007D01*
X-8008Y-23613D01*
X-8011Y-23617D01*
X-8013Y-23623D01*
X-8015Y-23626D01*
Y-23621D01*
Y-23631D01*
X-8014Y-23635D01*
X-8012Y-23641D01*
X-8007Y-23647D01*
X-8006Y-23648D01*
X-8002Y-23650D01*
X-7996Y-23653D01*
X-7993Y-23654D01*
X-7988Y-23655D01*
X-7893D01*
X-7888Y-23655D01*
X-7882Y-23657D01*
X-7874Y-23659D01*
X-7867Y-23663D01*
X-7859Y-23667D01*
X-7851Y-23674D01*
X-7851Y-23675D01*
X-7848Y-23677D01*
X-7846Y-23681D01*
X-7842Y-23686D01*
X-7838Y-23693D01*
X-7835Y-23701D01*
X-7833Y-23710D01*
X-7832Y-23720D01*
Y-24012D01*
Y-24014D01*
Y-24017D01*
X-7833Y-24022D01*
X-7834Y-24029D01*
X-7837Y-24036D01*
X-7840Y-24043D01*
X-7845Y-24052D01*
X-7851Y-24059D01*
X-7852Y-24060D01*
X-7855Y-24062D01*
X-7859Y-24065D01*
X-7865Y-24068D01*
X-7871Y-24072D01*
X-7879Y-24075D01*
X-7888Y-24077D01*
X-7897Y-24077D01*
X-7990D01*
X-7994Y-24078D01*
X-8000Y-24081D01*
X-8004Y-24083D01*
X-8007Y-24086D01*
X-8007D01*
X-8008Y-24087D01*
X-8011Y-24091D01*
X-8013Y-24097D01*
X-8015Y-24100D01*
Y-24128D01*
Y-24105D01*
X-8014Y-24109D01*
X-8012Y-24114D01*
X-8007Y-24120D01*
X-8006Y-24122D01*
X-8002Y-24124D01*
X-7996Y-24127D01*
X-7993Y-24128D01*
X-7988Y-24128D01*
X-8015D01*
X-7893D01*
X-7890Y-24128D01*
X-7885D01*
X-7881Y-24127D01*
X-7870Y-24124D01*
X-7857Y-24120D01*
X-7843Y-24114D01*
X-7830Y-24106D01*
X-7823Y-24101D01*
X-7816Y-24095D01*
X-7815Y-24094D01*
X-7814Y-24094D01*
X-7813Y-24092D01*
X-7811Y-24089D01*
X-7805Y-24082D01*
X-7798Y-24072D01*
X-7792Y-24060D01*
X-7786Y-24046D01*
X-7782Y-24030D01*
X-7781Y-24021D01*
X-7780Y-24012D01*
Y-24114D01*
Y-23604D01*
D02*
G37*
G36*
X-9116D02*
X-9387D01*
X-9274D01*
X-9277Y-23604D01*
X-9282D01*
X-9286Y-23605D01*
X-9297Y-23608D01*
X-9311Y-23612D01*
X-9325Y-23618D01*
X-9339Y-23627D01*
X-9345Y-23633D01*
X-9352Y-23638D01*
X-9353Y-23639D01*
X-9353Y-23640D01*
X-9358Y-23644D01*
X-9363Y-23652D01*
X-9370Y-23661D01*
X-9376Y-23673D01*
X-9382Y-23687D01*
X-9386Y-23703D01*
X-9387Y-23712D01*
X-9387Y-23720D01*
D01*
Y-24017D01*
X-9387Y-24021D01*
Y-24024D01*
X-9386Y-24029D01*
X-9383Y-24041D01*
X-9379Y-24053D01*
X-9373Y-24067D01*
X-9364Y-24081D01*
X-9359Y-24088D01*
X-9353Y-24094D01*
X-9352D01*
X-9351Y-24096D01*
X-9349Y-24097D01*
X-9347Y-24100D01*
X-9339Y-24106D01*
X-9330Y-24111D01*
X-9317Y-24117D01*
X-9303Y-24123D01*
X-9287Y-24127D01*
X-9278Y-24128D01*
X-9269Y-24128D01*
X-9228D01*
X-9226Y-24128D01*
X-9221D01*
X-9217Y-24127D01*
X-9206Y-24124D01*
X-9193Y-24120D01*
X-9180Y-24114D01*
X-9166Y-24106D01*
X-9158Y-24101D01*
X-9152Y-24095D01*
X-9151Y-24094D01*
X-9150Y-24094D01*
X-9149Y-24092D01*
X-9146Y-24089D01*
X-9141Y-24082D01*
X-9134Y-24072D01*
X-9127Y-24060D01*
X-9122Y-24046D01*
X-9118Y-24030D01*
X-9117Y-24021D01*
X-9116Y-24012D01*
Y-24110D01*
Y-23604D01*
D02*
G37*
G36*
X-8939D02*
X-8942D01*
X-8946Y-23604D01*
X-8952Y-23607D01*
X-8959Y-23611D01*
X-8959D01*
X-8960Y-23613D01*
X-8963Y-23616D01*
X-8965Y-23621D01*
X-8967Y-23625D01*
Y-24128D01*
Y-24106D01*
X-8966Y-24110D01*
X-8964Y-24116D01*
X-8959Y-24122D01*
X-8958Y-24123D01*
X-8954Y-24125D01*
X-8948Y-24128D01*
X-8940Y-24128D01*
X-8967D01*
X-8939D01*
X-8937Y-24128D01*
X-8931Y-24126D01*
X-8924Y-24124D01*
X-8922Y-24123D01*
X-8920Y-24119D01*
X-8917Y-24112D01*
X-8916Y-24108D01*
X-8915Y-24103D01*
Y-23681D01*
X-8849Y-23757D01*
X-8848Y-23758D01*
X-8844Y-23760D01*
X-8839Y-23763D01*
X-8832Y-23764D01*
X-8830D01*
X-8825Y-23763D01*
X-8819Y-23761D01*
X-8813Y-23757D01*
X-8812Y-23755D01*
X-8809Y-23752D01*
X-8807Y-23746D01*
X-8806Y-23738D01*
Y-23737D01*
X-8806Y-23735D01*
X-8809Y-23729D01*
X-8810Y-23726D01*
X-8812Y-23721D01*
X-8922Y-23611D01*
X-8923Y-23610D01*
X-8927Y-23607D01*
X-8932Y-23605D01*
X-8939Y-23604D01*
D02*
G37*
G36*
X-7399Y-23600D02*
X-7407D01*
X-7411Y-23601D01*
X-7415Y-23603D01*
X-7415Y-23604D01*
X-7418Y-23605D01*
X-7421Y-23609D01*
X-7424Y-23612D01*
X-7427Y-23616D01*
X-7550Y-23823D01*
X-7674Y-23616D01*
X-7675Y-23615D01*
X-7676Y-23613D01*
X-7678Y-23610D01*
X-7681Y-23607D01*
X-7688Y-23602D01*
X-7693Y-23601D01*
X-7698Y-23600D01*
X-7699D01*
D01*
D01*
D01*
X-7723D01*
X-7699D01*
X-7704Y-23601D01*
X-7710Y-23604D01*
X-7713Y-23606D01*
X-7715Y-23609D01*
X-7717Y-23610D01*
X-7719Y-23614D01*
X-7721Y-23621D01*
X-7723Y-23629D01*
Y-24128D01*
Y-24106D01*
X-7722Y-24110D01*
X-7720Y-24116D01*
X-7715Y-24122D01*
X-7714Y-24123D01*
X-7710Y-24125D01*
X-7704Y-24128D01*
X-7696Y-24128D01*
X-7723D01*
X-7379D01*
Y-23627D01*
X-7380Y-23624D01*
Y-23621D01*
X-7382Y-23615D01*
X-7386Y-23608D01*
Y-23607D01*
X-7387Y-23607D01*
X-7390Y-23604D01*
X-7396Y-23601D01*
X-7399Y-23600D01*
D02*
G37*
G36*
X-9006Y-24060D02*
D01*
Y-24093D01*
X-9007Y-24089D01*
X-9010Y-24082D01*
X-9011Y-24077D01*
X-9014Y-24073D01*
X-9015Y-24072D01*
X-9016Y-24071D01*
X-9018Y-24069D01*
X-9021Y-24066D01*
X-9024Y-24064D01*
X-9029Y-24062D01*
X-9035Y-24060D01*
X-9041Y-24060D01*
X-9043D01*
X-9046Y-24060D01*
X-9049Y-24061D01*
X-9053Y-24063D01*
X-9057Y-24064D01*
X-9061Y-24067D01*
X-9065Y-24071D01*
X-9066Y-24072D01*
X-9067Y-24072D01*
X-9069Y-24075D01*
X-9071Y-24077D01*
X-9075Y-24085D01*
X-9075Y-24089D01*
X-9076Y-24094D01*
Y-24097D01*
X-9075Y-24099D01*
X-9075Y-24102D01*
X-9073Y-24109D01*
X-9070Y-24113D01*
X-9067Y-24117D01*
X-9066Y-24118D01*
X-9065Y-24119D01*
X-9063Y-24121D01*
X-9060Y-24123D01*
X-9056Y-24125D01*
X-9052Y-24127D01*
X-9047Y-24128D01*
X-9041Y-24128D01*
X-9076D01*
X-9038D01*
X-9035Y-24128D01*
X-9032Y-24127D01*
X-9023Y-24125D01*
X-9019Y-24123D01*
X-9016Y-24120D01*
X-9015Y-24119D01*
X-9014Y-24117D01*
X-9013Y-24115D01*
X-9011Y-24112D01*
X-9007Y-24104D01*
X-9007Y-24100D01*
X-9006Y-24094D01*
Y-24060D01*
D02*
G37*
G36*
X-8293Y-23749D02*
X-8527D01*
D01*
X-8502D01*
X-8506Y-23750D01*
X-8513Y-23752D01*
X-8519Y-23757D01*
X-8520D01*
X-8520Y-23758D01*
X-8523Y-23761D01*
X-8526Y-23767D01*
X-8527Y-23771D01*
Y-23778D01*
X-8526Y-23782D01*
X-8526Y-23784D01*
X-8435Y-24108D01*
Y-24109D01*
X-8433Y-24111D01*
X-8432Y-24114D01*
X-8429Y-24118D01*
X-8426Y-24122D01*
X-8421Y-24126D01*
X-8416Y-24128D01*
X-8410Y-24128D01*
X-8408D01*
X-8404Y-24128D01*
X-8400Y-24126D01*
X-8395Y-24124D01*
X-8394Y-24123D01*
X-8391Y-24120D01*
X-8388Y-24115D01*
X-8384Y-24108D01*
X-8293Y-23782D01*
X-8293Y-23775D01*
Y-24114D01*
Y-23774D01*
D01*
X-8293Y-23770D01*
X-8296Y-23765D01*
X-8300Y-23758D01*
Y-23757D01*
X-8302Y-23757D01*
X-8305Y-23754D01*
X-8311Y-23751D01*
X-8315Y-23749D01*
X-8293D01*
D01*
D02*
G37*
G36*
X-7050Y-23604D02*
X-7321D01*
X-7296D01*
X-7301Y-23604D01*
X-7307Y-23607D01*
X-7313Y-23611D01*
X-7313D01*
X-7314Y-23613D01*
X-7317Y-23616D01*
X-7320Y-23621D01*
X-7321Y-23625D01*
Y-24017D01*
X-7321Y-24021D01*
Y-24024D01*
X-7320Y-24029D01*
X-7317Y-24041D01*
X-7313Y-24053D01*
X-7307Y-24067D01*
X-7299Y-24081D01*
X-7293Y-24088D01*
X-7287Y-24094D01*
X-7286D01*
X-7285Y-24096D01*
X-7283Y-24097D01*
X-7281Y-24100D01*
X-7273Y-24106D01*
X-7264Y-24111D01*
X-7251Y-24117D01*
X-7237Y-24123D01*
X-7221Y-24127D01*
X-7212Y-24128D01*
X-7203Y-24128D01*
X-7110D01*
X-7106Y-24128D01*
X-7099Y-24126D01*
X-7093Y-24122D01*
Y-24121D01*
X-7092Y-24120D01*
X-7090Y-24117D01*
X-7087Y-24111D01*
X-7086Y-24103D01*
Y-24103D01*
X-7087Y-24099D01*
X-7089Y-24094D01*
X-7092Y-24088D01*
Y-24087D01*
X-7094Y-24086D01*
X-7098Y-24083D01*
X-7103Y-24079D01*
X-7108Y-24078D01*
X-7112Y-24077D01*
X-7208D01*
X-7213Y-24077D01*
X-7219Y-24075D01*
X-7226Y-24073D01*
X-7234Y-24069D01*
X-7242Y-24065D01*
X-7250Y-24059D01*
X-7251Y-24058D01*
X-7253Y-24055D01*
X-7256Y-24052D01*
X-7260Y-24046D01*
X-7263Y-24040D01*
X-7267Y-24032D01*
X-7269Y-24023D01*
X-7270Y-24012D01*
Y-23910D01*
X-7162D01*
X-7159Y-23909D01*
X-7155D01*
X-7150Y-23908D01*
X-7140Y-23905D01*
X-7126Y-23902D01*
X-7112Y-23896D01*
X-7098Y-23888D01*
X-7091Y-23882D01*
X-7083Y-23876D01*
X-7083Y-23876D01*
X-7081Y-23873D01*
X-7078Y-23870D01*
X-7074Y-23865D01*
X-7070Y-23859D01*
X-7066Y-23854D01*
X-7058Y-23839D01*
X-7052Y-23818D01*
X-7050Y-23806D01*
Y-23627D01*
Y-23628D01*
X-7051Y-23624D01*
X-7053Y-23618D01*
X-7058Y-23613D01*
Y-23612D01*
X-7059Y-23611D01*
X-7063Y-23608D01*
X-7068Y-23605D01*
X-7072Y-23604D01*
X-7050D01*
D01*
D02*
G37*
%LPD*%
G36*
X-9116Y-23716D02*
X-9117Y-23712D01*
Y-23709D01*
X-9118Y-23704D01*
X-9121Y-23693D01*
X-9124Y-23680D01*
X-9130Y-23667D01*
X-9138Y-23652D01*
X-9143Y-23646D01*
X-9149Y-23639D01*
X-9150Y-23638D01*
X-9151Y-23638D01*
X-9153Y-23636D01*
X-9155Y-23633D01*
X-9163Y-23628D01*
X-9172Y-23621D01*
X-9185Y-23615D01*
X-9199Y-23609D01*
X-9215Y-23605D01*
X-9224Y-23604D01*
X-9233Y-23604D01*
X-9116D01*
Y-23716D01*
D02*
G37*
G36*
X-9223Y-23655D02*
X-9217Y-23657D01*
X-9209Y-23659D01*
X-9202Y-23663D01*
X-9194Y-23667D01*
X-9186Y-23674D01*
X-9186Y-23675D01*
X-9183Y-23678D01*
X-9180Y-23681D01*
X-9177Y-23687D01*
X-9174Y-23694D01*
X-9171Y-23702D01*
X-9169Y-23711D01*
X-9168Y-23720D01*
Y-24012D01*
Y-24014D01*
Y-24017D01*
X-9169Y-24022D01*
X-9170Y-24028D01*
X-9172Y-24035D01*
X-9176Y-24043D01*
X-9180Y-24051D01*
X-9187Y-24058D01*
X-9188Y-24059D01*
X-9191Y-24061D01*
X-9194Y-24064D01*
X-9200Y-24068D01*
X-9207Y-24072D01*
X-9215Y-24075D01*
X-9223Y-24077D01*
X-9233Y-24077D01*
X-9274D01*
X-9279Y-24077D01*
X-9285Y-24075D01*
X-9292Y-24073D01*
X-9300Y-24069D01*
X-9308Y-24065D01*
X-9316Y-24059D01*
X-9316Y-24058D01*
X-9319Y-24055D01*
X-9322Y-24052D01*
X-9326Y-24046D01*
X-9329Y-24040D01*
X-9333Y-24032D01*
X-9335Y-24023D01*
X-9336Y-24012D01*
Y-23720D01*
Y-23719D01*
Y-23716D01*
X-9335Y-23711D01*
X-9333Y-23705D01*
X-9330Y-23698D01*
X-9328Y-23690D01*
X-9322Y-23682D01*
X-9316Y-23675D01*
X-9315Y-23674D01*
X-9312Y-23672D01*
X-9308Y-23668D01*
X-9302Y-23664D01*
X-9296Y-23661D01*
X-9288Y-23658D01*
X-9279Y-23655D01*
X-9269Y-23655D01*
X-9228D01*
X-9223Y-23655D01*
D02*
G37*
G36*
X-7379Y-24128D02*
X-7404D01*
X-7401Y-24128D01*
X-7395Y-24126D01*
X-7388Y-24124D01*
X-7387Y-24123D01*
X-7384Y-24119D01*
X-7381Y-24112D01*
X-7380Y-24108D01*
X-7379Y-24103D01*
Y-24128D01*
D02*
G37*
G36*
X-7573Y-23879D02*
X-7572Y-23880D01*
X-7571Y-23882D01*
X-7569Y-23884D01*
X-7566Y-23886D01*
X-7559Y-23891D01*
X-7555Y-23893D01*
X-7550Y-23893D01*
X-7548D01*
X-7545Y-23893D01*
X-7543Y-23892D01*
X-7539Y-23890D01*
X-7535Y-23888D01*
X-7531Y-23884D01*
X-7528Y-23879D01*
X-7431Y-23701D01*
Y-24103D01*
Y-24104D01*
Y-24106D01*
X-7430Y-24110D01*
X-7427Y-24117D01*
X-7426Y-24120D01*
X-7423Y-24123D01*
X-7421Y-24123D01*
X-7418Y-24126D01*
X-7412Y-24128D01*
X-7404Y-24128D01*
X-7695D01*
X-7693Y-24128D01*
X-7687Y-24126D01*
X-7680Y-24124D01*
X-7679Y-24123D01*
X-7676Y-24119D01*
X-7673Y-24112D01*
X-7672Y-24108D01*
X-7671Y-24103D01*
Y-23701D01*
X-7573Y-23879D01*
D02*
G37*
G36*
X-8323Y-23750D02*
X-8327Y-23751D01*
X-8331Y-23754D01*
X-8333Y-23754D01*
X-8336Y-23757D01*
X-8339Y-23761D01*
X-8342Y-23765D01*
X-8344Y-23769D01*
X-8410Y-24025D01*
X-8475Y-23769D01*
X-8476Y-23768D01*
X-8478Y-23765D01*
X-8480Y-23760D01*
X-8483Y-23756D01*
X-8485Y-23755D01*
X-8488Y-23753D01*
X-8493Y-23751D01*
X-8500Y-23749D01*
X-8320D01*
X-8323Y-23750D01*
D02*
G37*
G36*
X-7081Y-23604D02*
X-7087Y-23607D01*
X-7093Y-23611D01*
X-7094D01*
X-7095Y-23613D01*
X-7098Y-23616D01*
X-7100Y-23621D01*
X-7102Y-23625D01*
Y-23630D01*
Y-23794D01*
Y-23795D01*
Y-23798D01*
X-7103Y-23803D01*
X-7104Y-23810D01*
X-7106Y-23817D01*
X-7110Y-23825D01*
X-7115Y-23833D01*
X-7120Y-23840D01*
X-7121Y-23841D01*
X-7124Y-23843D01*
X-7128Y-23846D01*
X-7134Y-23849D01*
X-7140Y-23853D01*
X-7149Y-23856D01*
X-7157Y-23858D01*
X-7167Y-23859D01*
X-7270D01*
Y-23630D01*
Y-23629D01*
Y-23628D01*
X-7270Y-23624D01*
X-7273Y-23618D01*
X-7277Y-23613D01*
Y-23612D01*
X-7279Y-23611D01*
X-7282Y-23608D01*
X-7287Y-23605D01*
X-7291Y-23604D01*
X-7077D01*
X-7081Y-23604D01*
D02*
G37*
%LPC*%
G36*
X-1253Y-23607D02*
D01*
Y-23631D01*
X-1254Y-23627D01*
X-1256Y-23621D01*
X-1260Y-23616D01*
Y-23615D01*
X-1262Y-23614D01*
X-1266Y-23611D01*
X-1271Y-23608D01*
X-1275Y-23607D01*
X-1280D01*
X-1284Y-23607D01*
X-1290Y-23610D01*
X-1296Y-23614D01*
X-1297D01*
X-1297Y-23616D01*
X-1300Y-23618D01*
X-1303Y-23624D01*
X-1305Y-23628D01*
Y-23633D01*
Y-23826D01*
X-1473D01*
Y-23633D01*
Y-23632D01*
Y-23631D01*
X-1473Y-23627D01*
X-1476Y-23621D01*
X-1480Y-23616D01*
Y-23615D01*
X-1482Y-23614D01*
X-1485Y-23611D01*
X-1490Y-23608D01*
X-1494Y-23607D01*
X-1499D01*
X-1504Y-23607D01*
X-1510Y-23610D01*
X-1515Y-23614D01*
X-1516D01*
X-1517Y-23616D01*
X-1520Y-23618D01*
X-1523Y-23624D01*
X-1524Y-23628D01*
Y-24109D01*
X-1524Y-24113D01*
X-1521Y-24119D01*
X-1517Y-24125D01*
X-1515Y-24126D01*
X-1512Y-24128D01*
X-1505Y-24131D01*
X-1498Y-24131D01*
X-1524D01*
D01*
X-1253D01*
Y-23607D01*
D02*
G37*
G36*
X-1582D02*
D01*
Y-23631D01*
X-1583Y-23628D01*
X-1584Y-23624D01*
X-1585Y-23619D01*
X-1588Y-23615D01*
X-1592Y-23610D01*
X-1599Y-23607D01*
X-1607Y-23607D01*
X-1853D01*
X-1828D01*
X-1831Y-23607D01*
X-1835Y-23608D01*
X-1840Y-23610D01*
X-1845Y-23613D01*
X-1849Y-23618D01*
X-1852Y-23624D01*
X-1853Y-23633D01*
Y-24109D01*
X-1853Y-24113D01*
X-1850Y-24119D01*
X-1846Y-24125D01*
X-1844Y-24126D01*
X-1841Y-24128D01*
X-1834Y-24131D01*
X-1827Y-24131D01*
X-1826D01*
X-1823Y-24131D01*
X-1818Y-24129D01*
X-1810Y-24127D01*
X-1809Y-24126D01*
X-1806Y-24122D01*
X-1803Y-24115D01*
X-1802Y-24111D01*
X-1802Y-24106D01*
Y-23658D01*
X-1634D01*
Y-24106D01*
Y-24107D01*
Y-24109D01*
X-1633Y-24113D01*
X-1631Y-24119D01*
X-1626Y-24125D01*
X-1625Y-24126D01*
X-1621Y-24128D01*
X-1615Y-24131D01*
X-1607Y-24131D01*
X-1763D01*
X-1582D01*
Y-23607D01*
D02*
G37*
G36*
X-2770D02*
D01*
Y-23631D01*
X-2771Y-23627D01*
X-2773Y-23621D01*
X-2777Y-23616D01*
Y-23615D01*
X-2779Y-23614D01*
X-2782Y-23611D01*
X-2788Y-23608D01*
X-2791Y-23607D01*
X-2796D01*
X-2801Y-23607D01*
X-2807Y-23610D01*
X-2813Y-23614D01*
X-2813D01*
X-2814Y-23616D01*
X-2817Y-23618D01*
X-2820Y-23624D01*
X-2822Y-23628D01*
Y-23633D01*
Y-23862D01*
X-2993Y-23618D01*
X-2994Y-23618D01*
X-2995Y-23616D01*
X-2999Y-23613D01*
X-3005Y-23608D01*
X-3009Y-23607D01*
X-3014Y-23607D01*
X-3015D01*
X-3020Y-23607D01*
X-3026Y-23610D01*
X-3029Y-23612D01*
X-3032Y-23615D01*
X-3033D01*
X-3034Y-23616D01*
X-3037Y-23620D01*
X-3040Y-23625D01*
X-3041Y-23629D01*
Y-23634D01*
X-3040Y-23638D01*
X-3039Y-23642D01*
X-3036Y-23647D01*
X-2907Y-23817D01*
X-3038Y-24096D01*
X-3040Y-24103D01*
Y-24103D01*
X-3040Y-24105D01*
Y-24106D01*
Y-24107D01*
X-3040Y-24109D01*
Y-24111D01*
X-3037Y-24118D01*
X-3035Y-24122D01*
X-3032Y-24125D01*
X-3031Y-24126D01*
X-3027Y-24128D01*
X-3020Y-24131D01*
X-3012Y-24131D01*
X-3041D01*
D01*
X-2770D01*
Y-23607D01*
D02*
G37*
G36*
X-394D02*
D01*
Y-23719D01*
X-395Y-23715D01*
Y-23712D01*
X-396Y-23707D01*
X-399Y-23696D01*
X-402Y-23683D01*
X-408Y-23669D01*
X-416Y-23655D01*
X-422Y-23649D01*
X-427Y-23642D01*
X-428Y-23641D01*
X-429Y-23641D01*
X-431Y-23639D01*
X-433Y-23636D01*
X-441Y-23631D01*
X-450Y-23624D01*
X-463Y-23618D01*
X-477Y-23612D01*
X-493Y-23608D01*
X-502Y-23607D01*
X-511Y-23607D01*
X-552D01*
X-555Y-23607D01*
X-560D01*
X-564Y-23608D01*
X-575Y-23611D01*
X-589Y-23615D01*
X-603Y-23621D01*
X-617Y-23630D01*
X-623Y-23635D01*
X-630Y-23641D01*
X-631Y-23642D01*
X-631Y-23643D01*
X-636Y-23647D01*
X-641Y-23655D01*
X-648Y-23664D01*
X-654Y-23676D01*
X-660Y-23690D01*
X-664Y-23706D01*
X-665Y-23715D01*
X-665Y-23723D01*
Y-24020D01*
X-665Y-24024D01*
Y-24027D01*
X-664Y-24032D01*
X-661Y-24043D01*
X-657Y-24056D01*
X-651Y-24070D01*
X-643Y-24084D01*
X-637Y-24091D01*
X-631Y-24097D01*
X-630D01*
X-629Y-24099D01*
X-627Y-24100D01*
X-625Y-24103D01*
X-617Y-24109D01*
X-608Y-24114D01*
X-595Y-24120D01*
X-581Y-24126D01*
X-565Y-24130D01*
X-556Y-24131D01*
X-547Y-24131D01*
X-665D01*
D01*
X-394D01*
Y-23607D01*
D02*
G37*
G36*
X-1911D02*
D01*
Y-23719D01*
X-1912Y-23715D01*
Y-23712D01*
X-1912Y-23707D01*
X-1915Y-23696D01*
X-1919Y-23683D01*
X-1925Y-23669D01*
X-1933Y-23655D01*
X-1938Y-23649D01*
X-1944Y-23642D01*
X-1945Y-23641D01*
X-1946Y-23641D01*
X-1948Y-23639D01*
X-1950Y-23636D01*
X-1957Y-23631D01*
X-1967Y-23624D01*
X-1980Y-23618D01*
X-1994Y-23612D01*
X-2010Y-23608D01*
X-2019Y-23607D01*
X-2028Y-23607D01*
X-2068D01*
X-2072Y-23607D01*
X-2076D01*
X-2081Y-23608D01*
X-2092Y-23611D01*
X-2105Y-23615D01*
X-2119Y-23621D01*
X-2133Y-23630D01*
X-2140Y-23635D01*
X-2147Y-23641D01*
X-2147Y-23642D01*
X-2148Y-23643D01*
X-2153Y-23647D01*
X-2158Y-23655D01*
X-2164Y-23664D01*
X-2171Y-23676D01*
X-2177Y-23690D01*
X-2181Y-23706D01*
X-2181Y-23715D01*
X-2182Y-23723D01*
Y-24020D01*
X-2181Y-24024D01*
Y-24027D01*
X-2181Y-24032D01*
X-2178Y-24043D01*
X-2174Y-24056D01*
X-2167Y-24070D01*
X-2159Y-24084D01*
X-2153Y-24091D01*
X-2147Y-24097D01*
X-2147D01*
X-2146Y-24099D01*
X-2144Y-24100D01*
X-2142Y-24103D01*
X-2134Y-24109D01*
X-2125Y-24114D01*
X-2112Y-24120D01*
X-2098Y-24126D01*
X-2082Y-24130D01*
X-2073Y-24131D01*
X-2064Y-24131D01*
X-2182D01*
D01*
X-1911D01*
Y-23607D01*
D02*
G37*
G36*
X-3428D02*
D01*
Y-23719D01*
X-3428Y-23715D01*
Y-23712D01*
X-3429Y-23707D01*
X-3432Y-23696D01*
X-3436Y-23683D01*
X-3442Y-23669D01*
X-3450Y-23655D01*
X-3455Y-23649D01*
X-3461Y-23642D01*
X-3462Y-23641D01*
X-3462Y-23641D01*
X-3465Y-23639D01*
X-3467Y-23636D01*
X-3474Y-23631D01*
X-3484Y-23624D01*
X-3496Y-23618D01*
X-3510Y-23612D01*
X-3527Y-23608D01*
X-3536Y-23607D01*
X-3544Y-23607D01*
X-3428D01*
X-3662D01*
X-3637D01*
X-3641Y-23607D01*
X-3647Y-23610D01*
X-3651Y-23612D01*
X-3654Y-23615D01*
X-3655D01*
X-3655Y-23616D01*
X-3658Y-23620D01*
X-3660Y-23626D01*
X-3662Y-23629D01*
Y-23634D01*
X-3661Y-23638D01*
X-3659Y-23644D01*
X-3655Y-23650D01*
X-3653Y-23651D01*
X-3649Y-23653D01*
X-3643Y-23656D01*
X-3640Y-23657D01*
X-3635Y-23658D01*
X-3540D01*
X-3535Y-23658D01*
X-3529Y-23660D01*
X-3522Y-23662D01*
X-3514Y-23666D01*
X-3506Y-23670D01*
X-3499Y-23677D01*
X-3498Y-23678D01*
X-3496Y-23680D01*
X-3493Y-23684D01*
X-3489Y-23689D01*
X-3485Y-23696D01*
X-3482Y-23704D01*
X-3480Y-23713D01*
X-3479Y-23723D01*
Y-24015D01*
Y-24017D01*
Y-24020D01*
X-3480Y-24025D01*
X-3482Y-24032D01*
X-3484Y-24039D01*
X-3488Y-24046D01*
X-3492Y-24055D01*
X-3499Y-24062D01*
X-3499Y-24063D01*
X-3502Y-24065D01*
X-3506Y-24068D01*
X-3512Y-24071D01*
X-3519Y-24075D01*
X-3526Y-24077D01*
X-3535Y-24080D01*
X-3544Y-24080D01*
X-3637D01*
X-3641Y-24081D01*
X-3647Y-24084D01*
X-3651Y-24086D01*
X-3654Y-24089D01*
X-3655D01*
X-3655Y-24090D01*
X-3658Y-24094D01*
X-3660Y-24100D01*
X-3662Y-24103D01*
Y-24108D01*
X-3661Y-24111D01*
X-3659Y-24117D01*
X-3655Y-24123D01*
X-3653Y-24125D01*
X-3649Y-24127D01*
X-3643Y-24130D01*
X-3640Y-24131D01*
X-3635Y-24131D01*
X-3662D01*
X-3540D01*
X-3537Y-24131D01*
X-3533D01*
X-3528Y-24130D01*
X-3517Y-24127D01*
X-3505Y-24123D01*
X-3490Y-24117D01*
X-3477Y-24109D01*
X-3470Y-24104D01*
X-3463Y-24098D01*
X-3462Y-24097D01*
X-3462Y-24097D01*
X-3460Y-24094D01*
X-3458Y-24092D01*
X-3452Y-24085D01*
X-3445Y-24075D01*
X-3439Y-24063D01*
X-3434Y-24049D01*
X-3429Y-24033D01*
X-3428Y-24024D01*
X-3428Y-24015D01*
Y-24131D01*
D01*
D01*
Y-23607D01*
D02*
G37*
G36*
X-3720Y-23786D02*
D01*
Y-23811D01*
X-3720Y-23808D01*
X-3723Y-23803D01*
X-3727Y-23796D01*
X-3728Y-23795D01*
X-3728Y-23794D01*
X-3732Y-23791D01*
X-3739Y-23788D01*
X-3743Y-23787D01*
X-3746Y-23786D01*
X-3720D01*
X-3748D01*
X-3751Y-23787D01*
X-3754Y-23788D01*
X-3757Y-23789D01*
X-3761Y-23791D01*
X-3765Y-23794D01*
X-3768Y-23799D01*
X-3865Y-23928D01*
X-3870Y-23941D01*
Y-23942D01*
Y-23943D01*
X-3869Y-23947D01*
X-3868Y-23952D01*
X-3865Y-23957D01*
X-3768Y-24086D01*
Y-24087D01*
X-3766Y-24088D01*
X-3762Y-24092D01*
X-3755Y-24096D01*
X-3751Y-24097D01*
X-3746Y-24098D01*
X-3745D01*
D01*
X-3720D01*
X-3745D01*
X-3740Y-24097D01*
X-3734Y-24095D01*
X-3728Y-24092D01*
Y-24091D01*
X-3727Y-24090D01*
X-3724Y-24086D01*
X-3721Y-24080D01*
X-3720Y-24076D01*
X-3720Y-24072D01*
Y-24098D01*
D01*
D01*
Y-23786D01*
D02*
G37*
G36*
X-946D02*
D01*
Y-23941D01*
X-947Y-23937D01*
X-948Y-23933D01*
X-950Y-23928D01*
X-1048Y-23798D01*
X-1048Y-23797D01*
X-1049Y-23796D01*
X-1054Y-23792D01*
X-1059Y-23788D01*
X-1064Y-23787D01*
X-1068Y-23786D01*
X-946D01*
X-1070D01*
X-1074Y-23787D01*
X-1080Y-23790D01*
X-1084Y-23791D01*
X-1087Y-23794D01*
X-1088D01*
X-1088Y-23796D01*
X-1091Y-23800D01*
X-1094Y-23805D01*
X-1096Y-23809D01*
Y-23813D01*
Y-23814D01*
X-1095Y-23817D01*
X-1093Y-23822D01*
X-1090Y-23827D01*
X-1003Y-23942D01*
X-1090Y-24058D01*
X-1090Y-24059D01*
X-1093Y-24062D01*
X-1095Y-24067D01*
X-1096Y-24073D01*
Y-24074D01*
Y-24075D01*
X-1095Y-24079D01*
X-1092Y-24085D01*
X-1090Y-24088D01*
X-1088Y-24091D01*
X-1086Y-24092D01*
X-1082Y-24094D01*
X-1076Y-24097D01*
X-1068Y-24098D01*
X-946D01*
Y-23786D01*
D02*
G37*
G36*
X-2463D02*
D01*
Y-23941D01*
X-2464Y-23937D01*
X-2465Y-23933D01*
X-2467Y-23928D01*
X-2564Y-23798D01*
X-2565Y-23797D01*
X-2566Y-23796D01*
X-2570Y-23792D01*
X-2576Y-23788D01*
X-2581Y-23787D01*
X-2585Y-23786D01*
X-2587D01*
X-2591Y-23787D01*
X-2597Y-23790D01*
X-2601Y-23791D01*
X-2604Y-23794D01*
X-2604D01*
X-2605Y-23796D01*
X-2608Y-23800D01*
X-2611Y-23805D01*
X-2612Y-23809D01*
Y-23813D01*
Y-23814D01*
X-2612Y-23817D01*
X-2610Y-23822D01*
X-2607Y-23827D01*
X-2519Y-23942D01*
X-2606Y-24058D01*
X-2607Y-24059D01*
X-2609Y-24062D01*
X-2612Y-24067D01*
X-2612Y-24073D01*
Y-24074D01*
Y-24075D01*
X-2612Y-24079D01*
X-2609Y-24085D01*
X-2607Y-24088D01*
X-2604Y-24091D01*
X-2603Y-24092D01*
X-2599Y-24094D01*
X-2592Y-24097D01*
X-2585Y-24098D01*
X-2685D01*
X-2683Y-24097D01*
X-2680Y-24097D01*
X-2677Y-24095D01*
X-2673Y-24094D01*
X-2669Y-24091D01*
X-2666Y-24087D01*
X-2570Y-23958D01*
X-2569Y-23956D01*
X-2567Y-23953D01*
X-2566Y-23948D01*
X-2565Y-23942D01*
Y-23941D01*
Y-23941D01*
X-2566Y-23937D01*
X-2567Y-23933D01*
X-2569Y-23928D01*
X-2666Y-23798D01*
X-2667Y-23797D01*
X-2668Y-23796D01*
X-2672Y-23792D01*
X-2678Y-23788D01*
X-2683Y-23787D01*
X-2687Y-23786D01*
X-2689D01*
X-2693Y-23787D01*
X-2699Y-23790D01*
X-2703Y-23791D01*
X-2706Y-23794D01*
X-2706D01*
X-2707Y-23796D01*
X-2710Y-23800D01*
X-2713Y-23805D01*
X-2714Y-23809D01*
Y-23814D01*
X-2714Y-23817D01*
X-2712Y-23822D01*
X-2709Y-23827D01*
X-2621Y-23942D01*
X-2708Y-24058D01*
X-2709Y-24059D01*
X-2711Y-24062D01*
X-2714Y-24067D01*
X-2714Y-24073D01*
Y-24075D01*
X-2714Y-24079D01*
X-2711Y-24085D01*
X-2709Y-24088D01*
X-2706Y-24091D01*
X-2705Y-24092D01*
X-2701Y-24094D01*
X-2694Y-24097D01*
X-2687Y-24098D01*
X-2714D01*
X-2463D01*
Y-23786D01*
D02*
G37*
G36*
X-1135D02*
X-1198D01*
D01*
X-1172D01*
X-1176Y-23787D01*
X-1182Y-23790D01*
X-1186Y-23791D01*
X-1189Y-23794D01*
X-1190D01*
X-1190Y-23796D01*
X-1193Y-23800D01*
X-1196Y-23805D01*
X-1198Y-23809D01*
Y-23814D01*
X-1197Y-23817D01*
X-1195Y-23822D01*
X-1192Y-23827D01*
X-1105Y-23942D01*
X-1192Y-24058D01*
X-1192Y-24059D01*
X-1195Y-24062D01*
X-1197Y-24067D01*
X-1198Y-24073D01*
Y-24075D01*
X-1197Y-24079D01*
X-1194Y-24085D01*
X-1192Y-24088D01*
X-1190Y-24091D01*
X-1188Y-24092D01*
X-1184Y-24094D01*
X-1178Y-24097D01*
X-1170Y-24098D01*
X-1135D01*
X-1168D01*
X-1166Y-24097D01*
X-1163Y-24097D01*
X-1160Y-24095D01*
X-1156Y-24094D01*
X-1153Y-24091D01*
X-1150Y-24087D01*
X-1053Y-23958D01*
X-1052Y-23956D01*
X-1051Y-23953D01*
X-1049Y-23948D01*
X-1048Y-23942D01*
Y-23941D01*
Y-23941D01*
X-1049Y-23937D01*
X-1050Y-23933D01*
X-1052Y-23928D01*
X-1150Y-23798D01*
X-1150Y-23797D01*
X-1151Y-23796D01*
X-1156Y-23792D01*
X-1161Y-23788D01*
X-1166Y-23787D01*
X-1170Y-23786D01*
X-1135D01*
D02*
G37*
G36*
X-3802D02*
X-3972D01*
X-3850D01*
X-3853Y-23787D01*
X-3856Y-23788D01*
X-3859Y-23789D01*
X-3863Y-23791D01*
X-3867Y-23794D01*
X-3870Y-23799D01*
X-3967Y-23928D01*
X-3972Y-23941D01*
Y-23943D01*
X-3971Y-23947D01*
X-3970Y-23952D01*
X-3967Y-23957D01*
X-3870Y-24086D01*
X-3870Y-24087D01*
X-3869Y-24088D01*
X-3864Y-24092D01*
X-3857Y-24096D01*
X-3853Y-24097D01*
X-3848Y-24098D01*
X-3847D01*
X-3842Y-24097D01*
X-3836Y-24095D01*
X-3830Y-24092D01*
Y-24091D01*
X-3829Y-24090D01*
X-3826Y-24086D01*
X-3823Y-24080D01*
X-3822Y-24076D01*
X-3822Y-24072D01*
Y-24072D01*
Y-24071D01*
X-3822Y-24067D01*
X-3824Y-24063D01*
X-3827Y-24058D01*
X-3915Y-23942D01*
X-3828Y-23828D01*
X-3827Y-23827D01*
X-3825Y-23823D01*
X-3822Y-23818D01*
X-3822Y-23812D01*
Y-23811D01*
X-3822Y-23808D01*
X-3825Y-23803D01*
X-3829Y-23796D01*
X-3830Y-23795D01*
X-3830Y-23794D01*
X-3834Y-23791D01*
X-3841Y-23788D01*
X-3845Y-23787D01*
X-3848Y-23786D01*
X-3802D01*
D02*
G37*
G36*
X-3099Y-23600D02*
X-3346D01*
X-3350Y-23601D01*
X-3356Y-23604D01*
X-3359Y-23606D01*
X-3362Y-23609D01*
X-3363D01*
X-3363Y-23610D01*
X-3366Y-23614D01*
X-3369Y-23621D01*
X-3370Y-23624D01*
Y-24105D01*
X-3369Y-24109D01*
X-3367Y-24115D01*
X-3363Y-24121D01*
X-3361Y-24123D01*
X-3357Y-24125D01*
X-3351Y-24127D01*
X-3343Y-24128D01*
X-3343D01*
X-3340Y-24128D01*
X-3335Y-24126D01*
X-3327Y-24123D01*
X-3326Y-24121D01*
X-3323Y-24117D01*
X-3320Y-24111D01*
X-3319Y-24107D01*
X-3318Y-24103D01*
Y-23719D01*
X-3148Y-24113D01*
X-3148Y-24114D01*
X-3147Y-24116D01*
X-3145Y-24119D01*
X-3142Y-24122D01*
X-3138Y-24125D01*
X-3133Y-24128D01*
X-3128Y-24130D01*
X-3122Y-24131D01*
X-3099D01*
Y-23627D01*
X-3099Y-23624D01*
X-3102Y-23618D01*
X-3106Y-23612D01*
Y-23611D01*
X-3108Y-23610D01*
X-3111Y-23607D01*
X-3116Y-23604D01*
X-3120Y-23603D01*
X-3125D01*
X-3130Y-23604D01*
X-3136Y-23606D01*
X-3142Y-23610D01*
X-3142D01*
X-3143Y-23612D01*
X-3146Y-23615D01*
X-3149Y-23621D01*
X-3150Y-23624D01*
Y-23629D01*
Y-24012D01*
X-3320Y-23618D01*
X-3320Y-23617D01*
X-3321Y-23615D01*
X-3323Y-23612D01*
X-3326Y-23609D01*
X-3330Y-23606D01*
X-3334Y-23603D01*
X-3339Y-23601D01*
X-3345Y-23600D01*
X-3099D01*
D02*
G37*
G36*
X-28Y-23607D02*
Y-24131D01*
D01*
Y-23607D01*
D02*
G37*
G36*
D02*
X-184D01*
X-188Y-23608D01*
X-192Y-23610D01*
X-196Y-23613D01*
X-200Y-23616D01*
X-204Y-23621D01*
X-206Y-23629D01*
X-334Y-24100D01*
X-335Y-24106D01*
Y-24108D01*
X-334Y-24112D01*
X-331Y-24118D01*
X-330Y-24121D01*
X-327Y-24125D01*
X-325Y-24126D01*
X-322Y-24128D01*
X-316Y-24131D01*
X-308Y-24131D01*
X-335D01*
X-123D01*
X-307D01*
X-303Y-24131D01*
X-299Y-24129D01*
X-294Y-24127D01*
X-293Y-24126D01*
X-290Y-24124D01*
X-287Y-24120D01*
X-285Y-24115D01*
X-250Y-23986D01*
X-113D01*
X-79Y-24111D01*
Y-24111D01*
Y-24112D01*
X-78Y-24117D01*
X-75Y-24122D01*
X-70Y-24126D01*
X-69Y-24127D01*
X-66Y-24128D01*
X-61Y-24131D01*
X-54Y-24131D01*
X-53D01*
X-48Y-24131D01*
X-42Y-24128D01*
X-36Y-24125D01*
X-34Y-24123D01*
X-32Y-24120D01*
X-30Y-24113D01*
X-28Y-24105D01*
X-29Y-24100D01*
X-157Y-23629D01*
Y-23628D01*
X-158Y-23625D01*
X-160Y-23622D01*
X-162Y-23618D01*
X-166Y-23614D01*
X-170Y-23610D01*
X-175Y-23608D01*
X-181Y-23607D01*
X-28D01*
D02*
G37*
%LPD*%
G36*
X-1253Y-24131D02*
X-1277D01*
X-1275Y-24131D01*
X-1269Y-24129D01*
X-1262Y-24127D01*
X-1260Y-24126D01*
X-1258Y-24122D01*
X-1255Y-24115D01*
X-1254Y-24111D01*
X-1253Y-24106D01*
Y-24131D01*
D02*
G37*
G36*
X-1305Y-24106D02*
Y-24107D01*
Y-24109D01*
X-1304Y-24113D01*
X-1302Y-24119D01*
X-1297Y-24125D01*
X-1296Y-24126D01*
X-1292Y-24128D01*
X-1286Y-24131D01*
X-1278Y-24131D01*
X-1497D01*
X-1494Y-24131D01*
X-1489Y-24129D01*
X-1482Y-24127D01*
X-1480Y-24126D01*
X-1477Y-24122D01*
X-1474Y-24115D01*
X-1473Y-24111D01*
X-1473Y-24106D01*
Y-23877D01*
X-1305D01*
Y-24106D01*
D02*
G37*
G36*
X-1582Y-24131D02*
X-1606D01*
X-1603Y-24131D01*
X-1598Y-24129D01*
X-1591Y-24127D01*
X-1589Y-24126D01*
X-1586Y-24122D01*
X-1584Y-24115D01*
X-1583Y-24111D01*
X-1582Y-24106D01*
Y-24131D01*
D02*
G37*
G36*
X-2770D02*
X-2794D01*
X-2791Y-24131D01*
X-2786Y-24129D01*
X-2779Y-24127D01*
X-2777Y-24126D01*
X-2774Y-24122D01*
X-2771Y-24115D01*
X-2771Y-24111D01*
X-2770Y-24106D01*
Y-24131D01*
D02*
G37*
G36*
X-2822Y-23933D02*
Y-24106D01*
Y-24107D01*
Y-24109D01*
X-2821Y-24113D01*
X-2819Y-24119D01*
X-2814Y-24125D01*
X-2813Y-24126D01*
X-2809Y-24128D01*
X-2802Y-24131D01*
X-2795Y-24131D01*
X-3012D01*
X-3000Y-24129D01*
X-2992Y-24118D01*
X-2873Y-23856D01*
X-2822Y-23933D01*
D02*
G37*
G36*
X-501Y-23658D02*
X-495Y-23660D01*
X-487Y-23662D01*
X-480Y-23666D01*
X-472Y-23670D01*
X-464Y-23677D01*
X-464Y-23678D01*
X-461Y-23681D01*
X-459Y-23684D01*
X-456Y-23690D01*
X-452Y-23697D01*
X-449Y-23705D01*
X-447Y-23714D01*
X-446Y-23723D01*
Y-24015D01*
Y-24017D01*
Y-24020D01*
X-447Y-24025D01*
X-448Y-24031D01*
X-450Y-24038D01*
X-454Y-24046D01*
X-459Y-24054D01*
X-465Y-24061D01*
X-466Y-24062D01*
X-469Y-24064D01*
X-473Y-24067D01*
X-478Y-24071D01*
X-485Y-24075D01*
X-493Y-24077D01*
X-501Y-24080D01*
X-511Y-24080D01*
X-552D01*
X-557Y-24080D01*
X-563Y-24078D01*
X-570Y-24076D01*
X-578Y-24072D01*
X-586Y-24068D01*
X-594Y-24062D01*
X-595Y-24061D01*
X-597Y-24058D01*
X-600Y-24055D01*
X-604Y-24049D01*
X-607Y-24043D01*
X-611Y-24035D01*
X-613Y-24026D01*
X-614Y-24015D01*
Y-23723D01*
Y-23722D01*
Y-23719D01*
X-613Y-23714D01*
X-612Y-23708D01*
X-609Y-23701D01*
X-606Y-23693D01*
X-600Y-23685D01*
X-594Y-23678D01*
X-593Y-23677D01*
X-590Y-23675D01*
X-586Y-23671D01*
X-580Y-23667D01*
X-574Y-23664D01*
X-566Y-23661D01*
X-557Y-23658D01*
X-547Y-23658D01*
X-507D01*
X-501Y-23658D01*
D02*
G37*
G36*
X-394Y-24131D02*
X-507D01*
X-504Y-24131D01*
X-499D01*
X-495Y-24130D01*
X-484Y-24127D01*
X-471Y-24123D01*
X-458Y-24117D01*
X-444Y-24109D01*
X-436Y-24104D01*
X-430Y-24098D01*
X-429Y-24097D01*
X-428Y-24097D01*
X-427Y-24094D01*
X-425Y-24092D01*
X-419Y-24085D01*
X-412Y-24075D01*
X-405Y-24063D01*
X-400Y-24049D01*
X-396Y-24033D01*
X-395Y-24024D01*
X-394Y-24015D01*
Y-24131D01*
D02*
G37*
G36*
X-2018Y-23658D02*
X-2011Y-23660D01*
X-2004Y-23662D01*
X-1997Y-23666D01*
X-1989Y-23670D01*
X-1981Y-23677D01*
X-1980Y-23678D01*
X-1978Y-23681D01*
X-1975Y-23684D01*
X-1972Y-23690D01*
X-1969Y-23697D01*
X-1966Y-23705D01*
X-1963Y-23714D01*
X-1963Y-23723D01*
Y-24015D01*
Y-24017D01*
Y-24020D01*
X-1963Y-24025D01*
X-1965Y-24031D01*
X-1967Y-24038D01*
X-1971Y-24046D01*
X-1975Y-24054D01*
X-1982Y-24061D01*
X-1983Y-24062D01*
X-1986Y-24064D01*
X-1989Y-24067D01*
X-1995Y-24071D01*
X-2002Y-24075D01*
X-2010Y-24077D01*
X-2018Y-24080D01*
X-2028Y-24080D01*
X-2068D01*
X-2074Y-24080D01*
X-2079Y-24078D01*
X-2087Y-24076D01*
X-2095Y-24072D01*
X-2103Y-24068D01*
X-2111Y-24062D01*
X-2111Y-24061D01*
X-2113Y-24058D01*
X-2117Y-24055D01*
X-2121Y-24049D01*
X-2124Y-24043D01*
X-2128Y-24035D01*
X-2130Y-24026D01*
X-2130Y-24015D01*
Y-23723D01*
Y-23722D01*
Y-23719D01*
X-2130Y-23714D01*
X-2128Y-23708D01*
X-2125Y-23701D01*
X-2122Y-23693D01*
X-2117Y-23685D01*
X-2111Y-23678D01*
X-2110Y-23677D01*
X-2107Y-23675D01*
X-2103Y-23671D01*
X-2097Y-23667D01*
X-2091Y-23664D01*
X-2082Y-23661D01*
X-2074Y-23658D01*
X-2064Y-23658D01*
X-2023D01*
X-2018Y-23658D01*
D02*
G37*
G36*
X-1911Y-24131D02*
X-2023D01*
X-2020Y-24131D01*
X-2016D01*
X-2011Y-24130D01*
X-2000Y-24127D01*
X-1988Y-24123D01*
X-1974Y-24117D01*
X-1960Y-24109D01*
X-1953Y-24104D01*
X-1946Y-24098D01*
X-1946Y-24097D01*
X-1945Y-24097D01*
X-1943Y-24094D01*
X-1941Y-24092D01*
X-1935Y-24085D01*
X-1929Y-24075D01*
X-1922Y-24063D01*
X-1917Y-24049D01*
X-1912Y-24033D01*
X-1912Y-24024D01*
X-1911Y-24015D01*
Y-24131D01*
D02*
G37*
G36*
X-3720Y-24071D02*
X-3720Y-24067D01*
X-3722Y-24063D01*
X-3725Y-24058D01*
X-3813Y-23942D01*
X-3726Y-23828D01*
X-3725Y-23827D01*
X-3723Y-23823D01*
X-3720Y-23818D01*
X-3720Y-23812D01*
Y-24071D01*
D02*
G37*
G36*
X-946Y-24098D02*
X-1066D01*
X-1064Y-24097D01*
X-1061Y-24097D01*
X-1058Y-24095D01*
X-1054Y-24094D01*
X-1051Y-24091D01*
X-1048Y-24087D01*
X-951Y-23958D01*
X-950Y-23956D01*
X-949Y-23953D01*
X-947Y-23948D01*
X-946Y-23942D01*
Y-24098D01*
D02*
G37*
G36*
X-2463D02*
X-2583D01*
X-2581Y-24097D01*
X-2578Y-24097D01*
X-2575Y-24095D01*
X-2571Y-24094D01*
X-2567Y-24091D01*
X-2564Y-24087D01*
X-2468Y-23958D01*
X-2467Y-23956D01*
X-2465Y-23953D01*
X-2464Y-23948D01*
X-2463Y-23942D01*
Y-24098D01*
D02*
G37*
G36*
X-3099Y-24131D02*
X-3121D01*
X-3116Y-24130D01*
X-3111Y-24128D01*
X-3105Y-24123D01*
Y-24123D01*
X-3105Y-24122D01*
X-3102Y-24117D01*
X-3099Y-24111D01*
X-3099Y-24103D01*
Y-24131D01*
D02*
G37*
G36*
X-125Y-23934D02*
X-238D01*
X-182Y-23709D01*
X-125Y-23934D01*
D02*
G37*
D10*
X-7200Y-19400D02*
G03*
X-6950Y-19650I250J0D01*
G01*
Y-18950D02*
G03*
X-7200Y-19200I0J-250D01*
G01*
X-6250Y-19650D02*
G03*
X-6000Y-19400I0J250D01*
G01*
Y-19200D02*
G03*
X-6250Y-18950I-250J0D01*
G01*
X-10600Y-19400D02*
G03*
X-10350Y-19650I250J0D01*
G01*
Y-18950D02*
G03*
X-10600Y-19200I0J-250D01*
G01*
X-9650Y-19650D02*
G03*
X-9400Y-19400I0J250D01*
G01*
Y-19200D02*
G03*
X-9650Y-18950I-250J0D01*
G01*
X-7700Y-19200D02*
G03*
X-7950Y-18950I-250J0D01*
G01*
Y-19650D02*
G03*
X-7700Y-19400I0J250D01*
G01*
X-8650Y-18950D02*
G03*
X-8900Y-19200I0J-250D01*
G01*
Y-19400D02*
G03*
X-8650Y-19650I250J0D01*
G01*
X13100Y-3400D02*
G03*
X12850Y-3650I0J-250D01*
G01*
X13550D02*
G03*
X13300Y-3400I-250J0D01*
G01*
X12850Y-4350D02*
G03*
X13100Y-4600I250J0D01*
G01*
X13300D02*
G03*
X13550Y-4350I0J250D01*
G01*
X4100Y-24100D02*
G03*
X3850Y-23850I-250J0D01*
G01*
Y-24550D02*
G03*
X4100Y-24300I0J250D01*
G01*
X3150Y-23850D02*
G03*
X2900Y-24100I0J-250D01*
G01*
Y-24300D02*
G03*
X3150Y-24550I250J0D01*
G01*
X600Y-20200D02*
G03*
X850Y-20450I250J0D01*
G01*
Y-19750D02*
G03*
X600Y-20000I0J-250D01*
G01*
X1550Y-20450D02*
G03*
X1800Y-20200I0J250D01*
G01*
Y-20000D02*
G03*
X1550Y-19750I-250J0D01*
G01*
X4900Y-13500D02*
G03*
X5150Y-13750I250J0D01*
G01*
Y-13050D02*
G03*
X4900Y-13300I0J-250D01*
G01*
X5850Y-13750D02*
G03*
X6100Y-13500I0J250D01*
G01*
Y-13300D02*
G03*
X5850Y-13050I-250J0D01*
G01*
X5100Y-5700D02*
G03*
X4850Y-5450I-250J0D01*
G01*
Y-6150D02*
G03*
X5100Y-5900I0J250D01*
G01*
X4150Y-5450D02*
G03*
X3900Y-5700I0J-250D01*
G01*
Y-5900D02*
G03*
X4150Y-6150I250J0D01*
G01*
X-5800Y-17900D02*
G03*
X-6050Y-17650I-250J0D01*
G01*
Y-18350D02*
G03*
X-5800Y-18100I0J250D01*
G01*
X-6750Y-17650D02*
G03*
X-7000Y-17900I0J-250D01*
G01*
Y-18100D02*
G03*
X-6750Y-18350I250J0D01*
G01*
X12500Y-4500D02*
G03*
X12500Y-4500I-100J0D01*
G01*
X-6950Y-19650D02*
X-6250D01*
X-7200Y-19400D02*
Y-19200D01*
X-6950Y-18950D02*
X-6250D01*
X-6000Y-19400D02*
Y-19200D01*
X6750Y-3400D02*
X7050D01*
X-7600Y-22250D02*
Y-21950D01*
X-8400Y-18650D02*
Y-18350D01*
X-9400Y-17650D02*
Y-17350D01*
X-10350Y-19650D02*
X-9650D01*
X-10600Y-19400D02*
Y-19200D01*
X-10350Y-18950D02*
X-9650D01*
X-9400Y-19400D02*
Y-19200D01*
X-7700Y-19400D02*
Y-19200D01*
X-8650Y-18950D02*
X-7950D01*
X-8900Y-19400D02*
Y-19200D01*
X-8650Y-19650D02*
X-7950D01*
X13100Y-3400D02*
X13300D01*
X12850Y-4350D02*
Y-3650D01*
X13100Y-4600D02*
X13300D01*
X13550Y-4350D02*
Y-3650D01*
X4100Y-24300D02*
Y-24100D01*
X3150Y-23850D02*
X3850D01*
X2900Y-24300D02*
Y-24100D01*
X3150Y-24550D02*
X3850D01*
X850Y-20450D02*
X1550D01*
X600Y-20200D02*
Y-20000D01*
X850Y-19750D02*
X1550D01*
X1800Y-20200D02*
Y-20000D01*
X4900Y-13500D02*
Y-13300D01*
X5150Y-13750D02*
X5850D01*
X6100Y-13500D02*
Y-13300D01*
X5150Y-13050D02*
X5850D01*
X4150Y-5450D02*
X4850D01*
X5100Y-5900D02*
Y-5700D01*
X4150Y-6150D02*
X4850D01*
X3900Y-5900D02*
Y-5700D01*
X-5800Y-18100D02*
Y-17900D01*
X-6750Y-17650D02*
X-6050D01*
X-7000Y-18100D02*
Y-17900D01*
X-6750Y-18350D02*
X-6050D01*
X13250Y-20500D02*
X13550D01*
X5450Y-1475D02*
X5750D01*
Y-2125D02*
Y-1475D01*
X5450Y-2125D02*
Y-1475D01*
Y-2125D02*
X5750D01*
X6100Y-10750D02*
Y-10450D01*
X5450D02*
X6100D01*
X5450Y-10750D02*
Y-10450D01*
Y-10750D02*
X6100D01*
X7125Y-10850D02*
Y-10550D01*
X6475Y-10850D02*
X7125D01*
X6475Y-10550D02*
X7125D01*
X6475Y-10850D02*
Y-10550D01*
X8350Y-6800D02*
X8650D01*
X-6700Y-12400D02*
X-6600Y-12500D01*
Y-13500D02*
Y-12500D01*
Y-13500D02*
X-6400Y-13700D01*
X4800Y-9500D02*
X5100Y-9800D01*
Y-11800D02*
Y-9800D01*
Y-11800D02*
X5900Y-12600D01*
X6300D01*
X4800Y-17000D02*
Y-16600D01*
X3600Y-17000D02*
Y-16600D01*
X8700Y-15100D02*
X10700D01*
X9300Y-16500D02*
X10700D01*
X2200Y-17900D02*
Y-15900D01*
X800Y-17900D02*
Y-15900D01*
X-2850Y-9500D02*
X-2400Y-9950D01*
X-2900Y-9500D02*
X-2850D01*
X-3350Y-9950D02*
X-2900Y-9500D01*
X-3400Y-9950D02*
X-3350D01*
X-3400D02*
X-2400D01*
Y-7050D01*
X-3400D02*
X-2400D01*
X-3400Y-9950D02*
Y-7050D01*
X-1200Y-6850D02*
Y-6550D01*
X-3400Y-10550D02*
X-2950Y-11000D01*
X-2900D01*
X-2450Y-10550D01*
X-2400D01*
X-3400D02*
X-2400D01*
X-3400Y-13450D02*
Y-10550D01*
Y-13450D02*
X-2400D01*
Y-10550D01*
X775Y-9450D02*
Y-9150D01*
X1425D01*
X775Y-9450D02*
X1425D01*
Y-9150D01*
X9250Y-22600D02*
X9550D01*
X10250Y-17700D02*
Y-17050D01*
X10550D01*
Y-17700D02*
Y-17050D01*
X10250Y-17700D02*
X10550D01*
X7950Y-17900D02*
X8250D01*
X10650Y-18700D02*
Y-18050D01*
X10950D01*
Y-18700D02*
Y-18050D01*
X10650Y-18700D02*
X10950D01*
X9850Y-21500D02*
X10300Y-21050D01*
Y-21000D01*
X9850Y-20550D02*
X10300Y-21000D01*
X9850Y-20550D02*
Y-20500D01*
Y-21500D02*
Y-20500D01*
Y-21500D02*
X12750D01*
Y-20500D01*
X9850D02*
X12750D01*
X-13400Y-10210D02*
Y-9910D01*
X2600Y-16500D02*
X3200Y-16500D01*
Y-16900D02*
Y-16500D01*
X2600Y-16900D02*
X3200D01*
X2600D02*
X2600Y-16500D01*
X6800Y-16500D02*
X6800Y-16900D01*
X7400D01*
X7400Y-16500D01*
X6800D02*
X7400D01*
X6400Y-17000D02*
Y-16600D01*
X5200Y-17000D02*
Y-16600D01*
X-2400Y-16950D02*
Y-14050D01*
X-3400Y-16950D02*
X-2400D01*
X-3400D02*
Y-14050D01*
X-2400D01*
X-2450D02*
X-2400D01*
X-2900Y-14500D02*
X-2450Y-14050D01*
X-2950Y-14500D02*
X-2900D01*
X-3400Y-14050D02*
X-2950Y-14500D01*
X-150Y-10400D02*
X150D01*
X-150Y-12200D02*
X150D01*
X-9400Y-11750D02*
Y-11450D01*
X-7150Y-13800D02*
X-6850D01*
X-5450Y-14600D02*
X-5150D01*
X-900Y-17950D02*
Y-17650D01*
X-550Y-16000D02*
X-250D01*
X-11650Y-14400D02*
X-11350D01*
X-7600Y-9650D02*
Y-9350D01*
X-5450Y-12700D02*
X-5150D01*
X-9300Y-10450D02*
Y-10150D01*
X-12450Y-14400D02*
X-12150D01*
X-7600Y-12550D02*
Y-12250D01*
X-7600Y-11750D02*
Y-11450D01*
Y-10450D02*
Y-10150D01*
X-9300Y-9650D02*
Y-9350D01*
X-7700Y-15300D02*
Y-14900D01*
X-10300Y-15300D02*
Y-14900D01*
X-9400Y-12550D02*
Y-12250D01*
X-7200Y-6800D02*
X-7000D01*
X-7200Y-8000D02*
X-7000Y-8000D01*
X9350Y-12600D02*
X9650D01*
X9250Y-10500D02*
X9550D01*
X7475Y-10850D02*
Y-10550D01*
X8125D01*
X7475Y-10850D02*
X8125D01*
Y-10550D01*
X8550Y-10500D02*
X8850D01*
X9950Y-9400D02*
X10250D01*
X3350Y-12500D02*
X3650Y-12500D01*
X4100Y-13200D02*
Y-12800D01*
Y-13200D02*
X4700Y-13200D01*
Y-12800D01*
X4100D02*
X4700D01*
X11400Y-9150D02*
Y-8850D01*
Y-9950D02*
Y-9650D01*
X13125Y-9150D02*
Y-8850D01*
X12475Y-9150D02*
X13125D01*
X12475Y-8850D02*
X13125D01*
X12475Y-9150D02*
Y-8850D01*
X11550Y-3225D02*
X11850D01*
X11550D02*
Y-2575D01*
X11850Y-3225D02*
Y-2575D01*
X11550D02*
X11850D01*
X9350Y-5975D02*
Y-5625D01*
X11850Y-5975D02*
Y-5625D01*
X7450Y-12925D02*
X7750Y-12925D01*
X7450Y-12925D02*
Y-12275D01*
X7750Y-12925D02*
Y-12275D01*
X7450D02*
X7750D01*
X7800Y-24550D02*
Y-24250D01*
X1350Y-22600D02*
X1650D01*
X7450Y-14000D02*
X7750D01*
X7750Y-13350D01*
X7450D02*
X7750D01*
X7450Y-14000D02*
X7450Y-13350D01*
X4650Y-4300D02*
X4950D01*
X3550D02*
X3850D01*
X2550Y-12500D02*
X2850Y-12500D01*
X1500Y-12800D02*
X2100D01*
Y-13200D02*
Y-12800D01*
X1500Y-13200D02*
X2100D01*
X1500D02*
Y-12800D01*
X7450Y-4300D02*
X7750D01*
X4950Y-2600D02*
X5250D01*
X4950Y-3250D02*
Y-2600D01*
Y-3250D02*
X5250D01*
Y-2600D01*
X8175Y-4750D02*
Y-4450D01*
X8825D01*
X8175Y-4750D02*
X8825D01*
Y-4450D01*
X8650Y-2575D02*
X8950D01*
Y-3225D02*
Y-2575D01*
X8650Y-3225D02*
Y-2575D01*
Y-3225D02*
X8950D01*
X0Y-14850D02*
Y-14550D01*
Y-13650D02*
Y-13350D01*
X3350Y-14200D02*
X3650Y-14200D01*
X2550D02*
X2850Y-14200D01*
X-8620Y-21775D02*
Y-22425D01*
Y-21775D02*
X-8899D01*
X-8992Y-21806D01*
X-9022Y-21837D01*
X-9053Y-21899D01*
Y-21961D01*
X-9022Y-22023D01*
X-8992Y-22054D01*
X-8899Y-22085D01*
X-8620D01*
X-8837D02*
X-9053Y-22425D01*
X-9508Y-21775D02*
X-9199Y-22208D01*
X-9663D01*
X-9508Y-21775D02*
Y-22425D01*
X-10180Y-21992D02*
X-10149Y-22085D01*
X-10087Y-22146D01*
X-9994Y-22177D01*
X-9963D01*
X-9870Y-22146D01*
X-9808Y-22085D01*
X-9778Y-21992D01*
Y-21961D01*
X-9808Y-21868D01*
X-9870Y-21806D01*
X-9963Y-21775D01*
X-9994D01*
X-10087Y-21806D01*
X-10149Y-21868D01*
X-10180Y-21992D01*
Y-22146D01*
X-10149Y-22301D01*
X-10087Y-22394D01*
X-9994Y-22425D01*
X-9932D01*
X-9839Y-22394D01*
X-9808Y-22332D01*
X-9320Y-18075D02*
Y-18725D01*
Y-18075D02*
X-9599D01*
X-9692Y-18106D01*
X-9722Y-18137D01*
X-9753Y-18199D01*
Y-18261D01*
X-9722Y-18323D01*
X-9692Y-18354D01*
X-9599Y-18385D01*
X-9320D01*
X-9537D02*
X-9753Y-18725D01*
X-9961Y-18075D02*
X-10301D01*
X-10115Y-18323D01*
X-10208D01*
X-10270Y-18354D01*
X-10301Y-18385D01*
X-10332Y-18477D01*
Y-18539D01*
X-10301Y-18632D01*
X-10239Y-18694D01*
X-10146Y-18725D01*
X-10054D01*
X-9961Y-18694D01*
X-9930Y-18663D01*
X-9899Y-18601D01*
X-10880Y-18292D02*
X-10849Y-18385D01*
X-10787Y-18446D01*
X-10694Y-18477D01*
X-10663D01*
X-10570Y-18446D01*
X-10508Y-18385D01*
X-10478Y-18292D01*
Y-18261D01*
X-10508Y-18168D01*
X-10570Y-18106D01*
X-10663Y-18075D01*
X-10694D01*
X-10787Y-18106D01*
X-10849Y-18168D01*
X-10880Y-18292D01*
Y-18446D01*
X-10849Y-18601D01*
X-10787Y-18694D01*
X-10694Y-18725D01*
X-10632D01*
X-10539Y-18694D01*
X-10508Y-18632D01*
X-10405Y-17175D02*
Y-17825D01*
Y-17175D02*
X-10683D01*
X-10776Y-17206D01*
X-10807Y-17237D01*
X-10838Y-17299D01*
Y-17361D01*
X-10807Y-17423D01*
X-10776Y-17454D01*
X-10683Y-17485D01*
X-10405D01*
X-10621D02*
X-10838Y-17825D01*
X-11045Y-17175D02*
X-11386D01*
X-11200Y-17423D01*
X-11293D01*
X-11355Y-17454D01*
X-11386Y-17485D01*
X-11417Y-17577D01*
Y-17639D01*
X-11386Y-17732D01*
X-11324Y-17794D01*
X-11231Y-17825D01*
X-11138D01*
X-11045Y-17794D01*
X-11014Y-17763D01*
X-10983Y-17701D01*
X-11717Y-17175D02*
X-11624Y-17206D01*
X-11593Y-17268D01*
Y-17330D01*
X-11624Y-17392D01*
X-11686Y-17423D01*
X-11810Y-17454D01*
X-11902Y-17485D01*
X-11964Y-17546D01*
X-11995Y-17608D01*
Y-17701D01*
X-11964Y-17763D01*
X-11933Y-17794D01*
X-11841Y-17825D01*
X-11717D01*
X-11624Y-17794D01*
X-11593Y-17763D01*
X-11562Y-17701D01*
Y-17608D01*
X-11593Y-17546D01*
X-11655Y-17485D01*
X-11748Y-17454D01*
X-11872Y-17423D01*
X-11933Y-17392D01*
X-11964Y-17330D01*
Y-17268D01*
X-11933Y-17206D01*
X-11841Y-17175D01*
X-11717D01*
X6465Y-830D02*
X6496Y-768D01*
X6558Y-706D01*
X6620Y-675D01*
X6744D01*
X6806Y-706D01*
X6867Y-768D01*
X6898Y-830D01*
X6929Y-923D01*
Y-1077D01*
X6898Y-1170D01*
X6867Y-1232D01*
X6806Y-1294D01*
X6744Y-1325D01*
X6620D01*
X6558Y-1294D01*
X6496Y-1232D01*
X6465Y-1170D01*
X6221Y-675D02*
X5880D01*
X6066Y-923D01*
X5973D01*
X5911Y-954D01*
X5880Y-985D01*
X5849Y-1077D01*
Y-1139D01*
X5880Y-1232D01*
X5942Y-1294D01*
X6035Y-1325D01*
X6128D01*
X6221Y-1294D01*
X6252Y-1263D01*
X6283Y-1201D01*
X5271Y-675D02*
X5580Y-1325D01*
X5704Y-675D02*
X5271D01*
X-1124Y-5730D02*
X-1093Y-5668D01*
X-1031Y-5606D01*
X-969Y-5575D01*
X-846D01*
X-784Y-5606D01*
X-722Y-5668D01*
X-691Y-5730D01*
X-660Y-5823D01*
Y-5977D01*
X-691Y-6070D01*
X-722Y-6132D01*
X-784Y-6194D01*
X-846Y-6225D01*
X-969D01*
X-1031Y-6194D01*
X-1093Y-6132D01*
X-1124Y-6070D01*
X-1461Y-5575D02*
X-1369Y-5606D01*
X-1338Y-5668D01*
Y-5730D01*
X-1369Y-5792D01*
X-1431Y-5823D01*
X-1554Y-5854D01*
X-1647Y-5885D01*
X-1709Y-5946D01*
X-1740Y-6008D01*
Y-6101D01*
X-1709Y-6163D01*
X-1678Y-6194D01*
X-1585Y-6225D01*
X-1461D01*
X-1369Y-6194D01*
X-1338Y-6163D01*
X-1307Y-6101D01*
Y-6008D01*
X-1338Y-5946D01*
X-1400Y-5885D01*
X-1492Y-5854D01*
X-1616Y-5823D01*
X-1678Y-5792D01*
X-1709Y-5730D01*
Y-5668D01*
X-1678Y-5606D01*
X-1585Y-5575D01*
X-1461D01*
X-10520Y-12075D02*
Y-12725D01*
Y-12075D02*
X-10799D01*
X-10892Y-12106D01*
X-10922Y-12137D01*
X-10953Y-12199D01*
Y-12261D01*
X-10922Y-12323D01*
X-10892Y-12354D01*
X-10799Y-12385D01*
X-10520D01*
X-10737D02*
X-10953Y-12725D01*
X-11161Y-12075D02*
X-11501D01*
X-11315Y-12323D01*
X-11408D01*
X-11470Y-12354D01*
X-11501Y-12385D01*
X-11532Y-12477D01*
Y-12539D01*
X-11501Y-12632D01*
X-11439Y-12694D01*
X-11346Y-12725D01*
X-11254D01*
X-11161Y-12694D01*
X-11130Y-12663D01*
X-11099Y-12601D01*
X-12049Y-12168D02*
X-12018Y-12106D01*
X-11925Y-12075D01*
X-11863D01*
X-11770Y-12106D01*
X-11708Y-12199D01*
X-11678Y-12354D01*
Y-12508D01*
X-11708Y-12632D01*
X-11770Y-12694D01*
X-11863Y-12725D01*
X-11894D01*
X-11987Y-12694D01*
X-12049Y-12632D01*
X-12080Y-12539D01*
Y-12508D01*
X-12049Y-12415D01*
X-11987Y-12354D01*
X-11894Y-12323D01*
X-11863D01*
X-11770Y-12354D01*
X-11708Y-12415D01*
X-11678Y-12508D01*
X-7543Y-16944D02*
X-7110Y-17594D01*
Y-16944D02*
X-7543D01*
X-7110Y-17594D02*
X-7543D01*
X-7874Y-16944D02*
X-7812Y-16975D01*
X-7750Y-17037D01*
X-7720Y-17099D01*
X-7689Y-17192D01*
Y-17346D01*
X-7720Y-17439D01*
X-7750Y-17501D01*
X-7812Y-17563D01*
X-7874Y-17594D01*
X-7998D01*
X-8060Y-17563D01*
X-8122Y-17501D01*
X-8153Y-17439D01*
X-8184Y-17346D01*
Y-17192D01*
X-8153Y-17099D01*
X-8122Y-17037D01*
X-8060Y-16975D01*
X-7998Y-16944D01*
X-7874D01*
X-7967Y-17470D02*
X-8153Y-17656D01*
X-8335Y-17068D02*
X-8397Y-17037D01*
X-8490Y-16944D01*
Y-17594D01*
X1780Y-18775D02*
X1532Y-19425D01*
X1285Y-18775D02*
X1532Y-19425D01*
X1201Y-18775D02*
Y-19425D01*
Y-18775D02*
X985D01*
X892Y-18806D01*
X830Y-18868D01*
X799Y-18930D01*
X768Y-19023D01*
Y-19177D01*
X799Y-19270D01*
X830Y-19332D01*
X892Y-19394D01*
X985Y-19425D01*
X1201D01*
X251Y-18868D02*
X282Y-18806D01*
X375Y-18775D01*
X437D01*
X530Y-18806D01*
X592Y-18899D01*
X622Y-19054D01*
Y-19208D01*
X592Y-19332D01*
X530Y-19394D01*
X437Y-19425D01*
X406D01*
X313Y-19394D01*
X251Y-19332D01*
X220Y-19239D01*
Y-19208D01*
X251Y-19115D01*
X313Y-19054D01*
X406Y-19023D01*
X437D01*
X530Y-19054D01*
X592Y-19115D01*
X622Y-19208D01*
X10595Y-14375D02*
X10348Y-15025D01*
X10100Y-14375D02*
X10348Y-15025D01*
X10017Y-14375D02*
Y-15025D01*
Y-14375D02*
X9800D01*
X9707Y-14406D01*
X9645Y-14468D01*
X9614Y-14530D01*
X9583Y-14623D01*
Y-14777D01*
X9614Y-14870D01*
X9645Y-14932D01*
X9707Y-14994D01*
X9800Y-15025D01*
X10017D01*
X9067Y-14375D02*
X9376D01*
X9407Y-14654D01*
X9376Y-14623D01*
X9283Y-14592D01*
X9190D01*
X9098Y-14623D01*
X9036Y-14685D01*
X9005Y-14777D01*
Y-14839D01*
X9036Y-14932D01*
X9098Y-14994D01*
X9190Y-15025D01*
X9283D01*
X9376Y-14994D01*
X9407Y-14963D01*
X9438Y-14901D01*
X9078Y-16375D02*
Y-17025D01*
Y-16375D02*
X8800D01*
X8707Y-16406D01*
X8676Y-16437D01*
X8645Y-16499D01*
Y-16561D01*
X8676Y-16623D01*
X8707Y-16654D01*
X8800Y-16685D01*
X9078D01*
X8862D02*
X8645Y-17025D01*
X8128Y-16468D02*
X8159Y-16406D01*
X8252Y-16375D01*
X8314D01*
X8407Y-16406D01*
X8469Y-16499D01*
X8500Y-16654D01*
Y-16808D01*
X8469Y-16932D01*
X8407Y-16994D01*
X8314Y-17025D01*
X8283D01*
X8190Y-16994D01*
X8128Y-16932D01*
X8097Y-16839D01*
Y-16808D01*
X8128Y-16715D01*
X8190Y-16654D01*
X8283Y-16623D01*
X8314D01*
X8407Y-16654D01*
X8469Y-16715D01*
X8500Y-16808D01*
X7800Y-16375D02*
X7893Y-16406D01*
X7924Y-16468D01*
Y-16530D01*
X7893Y-16592D01*
X7831Y-16623D01*
X7707Y-16654D01*
X7615Y-16685D01*
X7553Y-16746D01*
X7522Y-16808D01*
Y-16901D01*
X7553Y-16963D01*
X7584Y-16994D01*
X7676Y-17025D01*
X7800D01*
X7893Y-16994D01*
X7924Y-16963D01*
X7955Y-16901D01*
Y-16808D01*
X7924Y-16746D01*
X7862Y-16685D01*
X7769Y-16654D01*
X7646Y-16623D01*
X7584Y-16592D01*
X7553Y-16530D01*
Y-16468D01*
X7584Y-16406D01*
X7676Y-16375D01*
X7800D01*
X3463Y-18175D02*
Y-18825D01*
Y-18175D02*
X3184D01*
X3091Y-18206D01*
X3061Y-18237D01*
X3030Y-18299D01*
Y-18361D01*
X3061Y-18423D01*
X3091Y-18454D01*
X3184Y-18485D01*
X3463D01*
X3246D02*
X3030Y-18825D01*
X2513Y-18268D02*
X2544Y-18206D01*
X2637Y-18175D01*
X2698D01*
X2791Y-18206D01*
X2853Y-18299D01*
X2884Y-18454D01*
Y-18608D01*
X2853Y-18732D01*
X2791Y-18794D01*
X2698Y-18825D01*
X2668D01*
X2575Y-18794D01*
X2513Y-18732D01*
X2482Y-18639D01*
Y-18608D01*
X2513Y-18515D01*
X2575Y-18454D01*
X2668Y-18423D01*
X2698D01*
X2791Y-18454D01*
X2853Y-18515D01*
X2884Y-18608D01*
X1937Y-18392D02*
X1968Y-18485D01*
X2030Y-18546D01*
X2123Y-18577D01*
X2154D01*
X2247Y-18546D01*
X2309Y-18485D01*
X2339Y-18392D01*
Y-18361D01*
X2309Y-18268D01*
X2247Y-18206D01*
X2154Y-18175D01*
X2123D01*
X2030Y-18206D01*
X1968Y-18268D01*
X1937Y-18392D01*
Y-18546D01*
X1968Y-18701D01*
X2030Y-18794D01*
X2123Y-18825D01*
X2185D01*
X2278Y-18794D01*
X2309Y-18732D01*
X-6801Y-5875D02*
Y-6525D01*
X-7173D01*
X-7244Y-5999D02*
X-7306Y-5968D01*
X-7399Y-5875D01*
Y-6525D01*
X5165Y-14630D02*
X5196Y-14568D01*
X5258Y-14506D01*
X5320Y-14475D01*
X5444D01*
X5506Y-14506D01*
X5567Y-14568D01*
X5598Y-14630D01*
X5629Y-14723D01*
Y-14877D01*
X5598Y-14970D01*
X5567Y-15032D01*
X5506Y-15094D01*
X5444Y-15125D01*
X5320D01*
X5258Y-15094D01*
X5196Y-15032D01*
X5165Y-14970D01*
X4952Y-14630D02*
Y-14599D01*
X4921Y-14537D01*
X4890Y-14506D01*
X4828Y-14475D01*
X4704D01*
X4642Y-14506D01*
X4611Y-14537D01*
X4580Y-14599D01*
Y-14661D01*
X4611Y-14723D01*
X4673Y-14815D01*
X4983Y-15125D01*
X4549D01*
X4033Y-14475D02*
X4342D01*
X4373Y-14754D01*
X4342Y-14723D01*
X4249Y-14692D01*
X4156D01*
X4063Y-14723D01*
X4002Y-14785D01*
X3971Y-14877D01*
Y-14939D01*
X4002Y-15032D01*
X4063Y-15094D01*
X4156Y-15125D01*
X4249D01*
X4342Y-15094D01*
X4373Y-15063D01*
X4404Y-15001D01*
X6981Y-14630D02*
X7012Y-14568D01*
X7073Y-14506D01*
X7135Y-14475D01*
X7259D01*
X7321Y-14506D01*
X7383Y-14568D01*
X7414Y-14630D01*
X7445Y-14723D01*
Y-14877D01*
X7414Y-14970D01*
X7383Y-15032D01*
X7321Y-15094D01*
X7259Y-15125D01*
X7135D01*
X7073Y-15094D01*
X7012Y-15032D01*
X6981Y-14970D01*
X6767Y-14630D02*
Y-14599D01*
X6736Y-14537D01*
X6705Y-14506D01*
X6643Y-14475D01*
X6520D01*
X6458Y-14506D01*
X6427Y-14537D01*
X6396Y-14599D01*
Y-14661D01*
X6427Y-14723D01*
X6489Y-14815D01*
X6798Y-15125D01*
X6365D01*
X5910Y-14475D02*
X6219Y-14908D01*
X5755D01*
X5910Y-14475D02*
Y-15125D01*
X-12930Y-14626D02*
X-12868Y-14657D01*
X-12806Y-14719D01*
X-12775Y-14781D01*
Y-14904D01*
X-12806Y-14966D01*
X-12868Y-15028D01*
X-12930Y-15059D01*
X-13023Y-15090D01*
X-13177D01*
X-13270Y-15059D01*
X-13332Y-15028D01*
X-13394Y-14966D01*
X-13425Y-14904D01*
Y-14781D01*
X-13394Y-14719D01*
X-13332Y-14657D01*
X-13270Y-14626D01*
X-12930Y-14412D02*
X-12899D01*
X-12837Y-14381D01*
X-12806Y-14350D01*
X-12775Y-14289D01*
Y-14165D01*
X-12806Y-14103D01*
X-12837Y-14072D01*
X-12899Y-14041D01*
X-12961D01*
X-13023Y-14072D01*
X-13115Y-14134D01*
X-13425Y-14443D01*
Y-14010D01*
X-12899Y-13865D02*
X-12868Y-13803D01*
X-12775Y-13710D01*
X-13425D01*
X-6675Y-16295D02*
X-7325D01*
X-6675D02*
Y-16017D01*
X-6706Y-15924D01*
X-6737Y-15893D01*
X-6799Y-15862D01*
X-6861D01*
X-6923Y-15893D01*
X-6954Y-15924D01*
X-6985Y-16017D01*
Y-16295D01*
Y-16079D02*
X-7325Y-15862D01*
X-6675Y-15407D02*
X-7108Y-15717D01*
Y-15252D01*
X-6675Y-15407D02*
X-7325D01*
X-6675Y-14952D02*
X-6706Y-15045D01*
X-6799Y-15107D01*
X-6954Y-15138D01*
X-7046D01*
X-7201Y-15107D01*
X-7294Y-15045D01*
X-7325Y-14952D01*
Y-14890D01*
X-7294Y-14798D01*
X-7201Y-14736D01*
X-7046Y-14705D01*
X-6954D01*
X-6799Y-14736D01*
X-6706Y-14798D01*
X-6675Y-14890D01*
Y-14952D01*
X-11330Y-16499D02*
X-11268Y-16530D01*
X-11206Y-16591D01*
X-11175Y-16653D01*
Y-16777D01*
X-11206Y-16839D01*
X-11268Y-16901D01*
X-11330Y-16932D01*
X-11423Y-16963D01*
X-11577D01*
X-11670Y-16932D01*
X-11732Y-16901D01*
X-11794Y-16839D01*
X-11825Y-16777D01*
Y-16653D01*
X-11794Y-16591D01*
X-11732Y-16530D01*
X-11670Y-16499D01*
X-11299Y-16316D02*
X-11268Y-16254D01*
X-11175Y-16161D01*
X-11825D01*
X-11392Y-15437D02*
X-11485Y-15468D01*
X-11546Y-15530D01*
X-11577Y-15623D01*
Y-15654D01*
X-11546Y-15747D01*
X-11485Y-15809D01*
X-11392Y-15839D01*
X-11361D01*
X-11268Y-15809D01*
X-11206Y-15747D01*
X-11175Y-15654D01*
Y-15623D01*
X-11206Y-15530D01*
X-11268Y-15468D01*
X-11392Y-15437D01*
X-11546D01*
X-11701Y-15468D01*
X-11794Y-15530D01*
X-11825Y-15623D01*
Y-15685D01*
X-11794Y-15778D01*
X-11732Y-15809D01*
X-3405Y-9975D02*
X-3652Y-10625D01*
X-3900Y-9975D02*
X-3652Y-10625D01*
X-3983Y-9975D02*
Y-10625D01*
Y-9975D02*
X-4200D01*
X-4293Y-10006D01*
X-4355Y-10068D01*
X-4386Y-10130D01*
X-4417Y-10223D01*
Y-10377D01*
X-4386Y-10470D01*
X-4355Y-10532D01*
X-4293Y-10594D01*
X-4200Y-10625D01*
X-3983D01*
X-4624Y-9975D02*
X-4964D01*
X-4779Y-10223D01*
X-4872D01*
X-4933Y-10254D01*
X-4964Y-10285D01*
X-4995Y-10377D01*
Y-10439D01*
X-4964Y-10532D01*
X-4902Y-10594D01*
X-4810Y-10625D01*
X-4717D01*
X-4624Y-10594D01*
X-4593Y-10563D01*
X-4562Y-10501D01*
X-2205Y-17275D02*
X-2452Y-17925D01*
X-2700Y-17275D02*
X-2452Y-17925D01*
X-2783Y-17275D02*
Y-17925D01*
Y-17275D02*
X-3000D01*
X-3093Y-17306D01*
X-3155Y-17368D01*
X-3186Y-17430D01*
X-3217Y-17523D01*
Y-17677D01*
X-3186Y-17770D01*
X-3155Y-17832D01*
X-3093Y-17894D01*
X-3000Y-17925D01*
X-2783D01*
X-3393Y-17430D02*
Y-17399D01*
X-3424Y-17337D01*
X-3455Y-17306D01*
X-3517Y-17275D01*
X-3641D01*
X-3702Y-17306D01*
X-3733Y-17337D01*
X-3764Y-17399D01*
Y-17461D01*
X-3733Y-17523D01*
X-3672Y-17615D01*
X-3362Y-17925D01*
X-3795D01*
X-856Y-13475D02*
Y-14125D01*
Y-13475D02*
X-1134D01*
X-1227Y-13506D01*
X-1258Y-13537D01*
X-1289Y-13599D01*
Y-13661D01*
X-1258Y-13723D01*
X-1227Y-13754D01*
X-1134Y-13785D01*
X-856D01*
X-1072D02*
X-1289Y-14125D01*
X-1434Y-13599D02*
X-1496Y-13568D01*
X-1589Y-13475D01*
Y-14125D01*
X-1973Y-13475D02*
X-2313D01*
X-2128Y-13723D01*
X-2220D01*
X-2282Y-13754D01*
X-2313Y-13785D01*
X-2344Y-13877D01*
Y-13939D01*
X-2313Y-14032D01*
X-2251Y-14094D01*
X-2159Y-14125D01*
X-2066D01*
X-1973Y-14094D01*
X-1942Y-14063D01*
X-1911Y-14001D01*
X2244Y-14375D02*
Y-15025D01*
Y-14375D02*
X1966D01*
X1873Y-14406D01*
X1842Y-14437D01*
X1811Y-14499D01*
Y-14561D01*
X1842Y-14623D01*
X1873Y-14654D01*
X1966Y-14685D01*
X2244D01*
X2028D02*
X1811Y-15025D01*
X1666Y-14499D02*
X1604Y-14468D01*
X1511Y-14375D01*
Y-15025D01*
X1158Y-14530D02*
Y-14499D01*
X1127Y-14437D01*
X1096Y-14406D01*
X1034Y-14375D01*
X910D01*
X849Y-14406D01*
X818Y-14437D01*
X787Y-14499D01*
Y-14561D01*
X818Y-14623D01*
X880Y-14715D01*
X1189Y-15025D01*
X756D01*
X8638Y-14175D02*
Y-14825D01*
X8267D01*
X8133Y-14175D02*
X7793D01*
X7979Y-14423D01*
X7886D01*
X7824Y-14454D01*
X7793Y-14485D01*
X7762Y-14577D01*
Y-14639D01*
X7793Y-14732D01*
X7855Y-14794D01*
X7948Y-14825D01*
X8041D01*
X8133Y-14794D01*
X8164Y-14763D01*
X8195Y-14701D01*
X-5830Y-12776D02*
X-5768Y-12807D01*
X-5706Y-12869D01*
X-5675Y-12931D01*
Y-13054D01*
X-5706Y-13116D01*
X-5768Y-13178D01*
X-5830Y-13209D01*
X-5923Y-13240D01*
X-6077D01*
X-6170Y-13209D01*
X-6232Y-13178D01*
X-6294Y-13116D01*
X-6325Y-13054D01*
Y-12931D01*
X-6294Y-12869D01*
X-6232Y-12807D01*
X-6170Y-12776D01*
X-5675Y-12160D02*
X-6325Y-12469D01*
X-5675Y-12593D02*
Y-12160D01*
X-5130Y-16360D02*
X-5068Y-16391D01*
X-5006Y-16453D01*
X-4975Y-16515D01*
Y-16639D01*
X-5006Y-16701D01*
X-5068Y-16763D01*
X-5130Y-16794D01*
X-5223Y-16825D01*
X-5377D01*
X-5470Y-16794D01*
X-5532Y-16763D01*
X-5594Y-16701D01*
X-5625Y-16639D01*
Y-16515D01*
X-5594Y-16453D01*
X-5532Y-16391D01*
X-5470Y-16360D01*
X-5068Y-15806D02*
X-5006Y-15837D01*
X-4975Y-15930D01*
Y-15992D01*
X-5006Y-16085D01*
X-5099Y-16147D01*
X-5254Y-16178D01*
X-5408D01*
X-5532Y-16147D01*
X-5594Y-16085D01*
X-5625Y-15992D01*
Y-15961D01*
X-5594Y-15868D01*
X-5532Y-15806D01*
X-5439Y-15775D01*
X-5408D01*
X-5315Y-15806D01*
X-5254Y-15868D01*
X-5223Y-15961D01*
Y-15992D01*
X-5254Y-16085D01*
X-5315Y-16147D01*
X-5408Y-16178D01*
X1270Y-7376D02*
X1332Y-7407D01*
X1394Y-7469D01*
X1425Y-7531D01*
Y-7654D01*
X1394Y-7716D01*
X1332Y-7778D01*
X1270Y-7809D01*
X1177Y-7840D01*
X1023D01*
X930Y-7809D01*
X868Y-7778D01*
X806Y-7716D01*
X775Y-7654D01*
Y-7531D01*
X806Y-7469D01*
X868Y-7407D01*
X930Y-7376D01*
X1425Y-6822D02*
Y-7131D01*
X1146Y-7162D01*
X1177Y-7131D01*
X1208Y-7039D01*
Y-6946D01*
X1177Y-6853D01*
X1115Y-6791D01*
X1023Y-6760D01*
X961D01*
X868Y-6791D01*
X806Y-6853D01*
X775Y-6946D01*
Y-7039D01*
X806Y-7131D01*
X837Y-7162D01*
X899Y-7193D01*
X325Y-9495D02*
X-325D01*
X325D02*
Y-9217D01*
X294Y-9124D01*
X263Y-9093D01*
X201Y-9062D01*
X139D01*
X77Y-9093D01*
X46Y-9124D01*
X15Y-9217D01*
Y-9495D01*
Y-9279D02*
X-325Y-9062D01*
X170Y-8886D02*
X201D01*
X263Y-8855D01*
X294Y-8824D01*
X325Y-8762D01*
Y-8638D01*
X294Y-8576D01*
X263Y-8545D01*
X201Y-8514D01*
X139D01*
X77Y-8545D01*
X-15Y-8607D01*
X-325Y-8917D01*
Y-8483D01*
X325Y-7967D02*
Y-8276D01*
X46Y-8307D01*
X77Y-8276D01*
X108Y-8183D01*
Y-8090D01*
X77Y-7998D01*
X15Y-7936D01*
X-77Y-7905D01*
X-139D01*
X-232Y-7936D01*
X-294Y-7998D01*
X-325Y-8090D01*
Y-8183D01*
X-294Y-8276D01*
X-263Y-8307D01*
X-201Y-8338D01*
X-105Y-18275D02*
Y-18925D01*
Y-18275D02*
X-383D01*
X-476Y-18306D01*
X-507Y-18337D01*
X-538Y-18399D01*
Y-18461D01*
X-507Y-18523D01*
X-476Y-18554D01*
X-383Y-18585D01*
X-105D01*
X-321D02*
X-538Y-18925D01*
X-745Y-18275D02*
X-1086D01*
X-900Y-18523D01*
X-993D01*
X-1055Y-18554D01*
X-1086Y-18585D01*
X-1117Y-18677D01*
Y-18739D01*
X-1086Y-18832D01*
X-1024Y-18894D01*
X-931Y-18925D01*
X-838D01*
X-745Y-18894D01*
X-714Y-18863D01*
X-683Y-18801D01*
X-1293Y-18430D02*
Y-18399D01*
X-1324Y-18337D01*
X-1355Y-18306D01*
X-1417Y-18275D01*
X-1541D01*
X-1602Y-18306D01*
X-1633Y-18337D01*
X-1664Y-18399D01*
Y-18461D01*
X-1633Y-18523D01*
X-1572Y-18615D01*
X-1262Y-18925D01*
X-1695D01*
X-10505Y-9175D02*
Y-9825D01*
Y-9175D02*
X-10783D01*
X-10876Y-9206D01*
X-10907Y-9237D01*
X-10938Y-9299D01*
Y-9361D01*
X-10907Y-9423D01*
X-10876Y-9454D01*
X-10783Y-9485D01*
X-10505D01*
X-10721D02*
X-10938Y-9825D01*
X-11114Y-9330D02*
Y-9299D01*
X-11145Y-9237D01*
X-11176Y-9206D01*
X-11238Y-9175D01*
X-11362D01*
X-11424Y-9206D01*
X-11455Y-9237D01*
X-11486Y-9299D01*
Y-9361D01*
X-11455Y-9423D01*
X-11393Y-9515D01*
X-11083Y-9825D01*
X-11517D01*
X-11817Y-9175D02*
X-11724Y-9206D01*
X-11693Y-9268D01*
Y-9330D01*
X-11724Y-9392D01*
X-11786Y-9423D01*
X-11910Y-9454D01*
X-12002Y-9485D01*
X-12064Y-9546D01*
X-12095Y-9608D01*
Y-9701D01*
X-12064Y-9763D01*
X-12033Y-9794D01*
X-11941Y-9825D01*
X-11817D01*
X-11724Y-9794D01*
X-11693Y-9763D01*
X-11662Y-9701D01*
Y-9608D01*
X-11693Y-9546D01*
X-11755Y-9485D01*
X-11848Y-9454D01*
X-11972Y-9423D01*
X-12033Y-9392D01*
X-12064Y-9330D01*
Y-9268D01*
X-12033Y-9206D01*
X-11941Y-9175D01*
X-11817D01*
X-10644Y-9975D02*
Y-10625D01*
Y-9975D02*
X-10922D01*
X-11015Y-10006D01*
X-11046Y-10037D01*
X-11077Y-10099D01*
Y-10161D01*
X-11046Y-10223D01*
X-11015Y-10254D01*
X-10922Y-10285D01*
X-10644D01*
X-10861D02*
X-11077Y-10625D01*
X-11285Y-9975D02*
X-11625D01*
X-11439Y-10223D01*
X-11532D01*
X-11594Y-10254D01*
X-11625Y-10285D01*
X-11656Y-10377D01*
Y-10439D01*
X-11625Y-10532D01*
X-11563Y-10594D01*
X-11470Y-10625D01*
X-11377D01*
X-11285Y-10594D01*
X-11254Y-10563D01*
X-11223Y-10501D01*
X-11801Y-10099D02*
X-11863Y-10068D01*
X-11956Y-9975D01*
Y-10625D01*
X-10489Y-11275D02*
Y-11925D01*
Y-11275D02*
X-10768D01*
X-10861Y-11306D01*
X-10892Y-11337D01*
X-10922Y-11399D01*
Y-11461D01*
X-10892Y-11523D01*
X-10861Y-11554D01*
X-10768Y-11585D01*
X-10489D01*
X-10706D02*
X-10922Y-11925D01*
X-11099Y-11430D02*
Y-11399D01*
X-11130Y-11337D01*
X-11161Y-11306D01*
X-11223Y-11275D01*
X-11346D01*
X-11408Y-11306D01*
X-11439Y-11337D01*
X-11470Y-11399D01*
Y-11461D01*
X-11439Y-11523D01*
X-11377Y-11615D01*
X-11068Y-11925D01*
X-11501D01*
X-11956Y-11275D02*
X-11647Y-11708D01*
X-12111D01*
X-11956Y-11275D02*
Y-11925D01*
X-5105Y-10975D02*
Y-11625D01*
Y-10975D02*
X-5383D01*
X-5476Y-11006D01*
X-5507Y-11037D01*
X-5538Y-11099D01*
Y-11161D01*
X-5507Y-11223D01*
X-5476Y-11254D01*
X-5383Y-11285D01*
X-5105D01*
X-5321D02*
X-5538Y-11625D01*
X-5714Y-11130D02*
Y-11099D01*
X-5745Y-11037D01*
X-5776Y-11006D01*
X-5838Y-10975D01*
X-5962D01*
X-6024Y-11006D01*
X-6055Y-11037D01*
X-6086Y-11099D01*
Y-11161D01*
X-6055Y-11223D01*
X-5993Y-11315D01*
X-5683Y-11625D01*
X-6117D01*
X-6293Y-11130D02*
Y-11099D01*
X-6324Y-11037D01*
X-6355Y-11006D01*
X-6417Y-10975D01*
X-6541D01*
X-6602Y-11006D01*
X-6633Y-11037D01*
X-6664Y-11099D01*
Y-11161D01*
X-6633Y-11223D01*
X-6572Y-11315D01*
X-6262Y-11625D01*
X-6695D01*
X-5205Y-9975D02*
Y-10625D01*
Y-9975D02*
X-5483D01*
X-5576Y-10006D01*
X-5607Y-10037D01*
X-5638Y-10099D01*
Y-10161D01*
X-5607Y-10223D01*
X-5576Y-10254D01*
X-5483Y-10285D01*
X-5205D01*
X-5421D02*
X-5638Y-10625D01*
X-5814Y-10130D02*
Y-10099D01*
X-5845Y-10037D01*
X-5876Y-10006D01*
X-5938Y-9975D01*
X-6062D01*
X-6124Y-10006D01*
X-6155Y-10037D01*
X-6186Y-10099D01*
Y-10161D01*
X-6155Y-10223D01*
X-6093Y-10315D01*
X-5783Y-10625D01*
X-6217D01*
X-6548Y-9975D02*
X-6455Y-10006D01*
X-6393Y-10099D01*
X-6362Y-10254D01*
Y-10346D01*
X-6393Y-10501D01*
X-6455Y-10594D01*
X-6548Y-10625D01*
X-6610D01*
X-6702Y-10594D01*
X-6764Y-10501D01*
X-6795Y-10346D01*
Y-10254D01*
X-6764Y-10099D01*
X-6702Y-10006D01*
X-6610Y-9975D01*
X-6548D01*
X-5156Y-9075D02*
Y-9725D01*
Y-9075D02*
X-5434D01*
X-5527Y-9106D01*
X-5558Y-9137D01*
X-5589Y-9199D01*
Y-9261D01*
X-5558Y-9323D01*
X-5527Y-9354D01*
X-5434Y-9385D01*
X-5156D01*
X-5372D02*
X-5589Y-9725D01*
X-5734Y-9199D02*
X-5796Y-9168D01*
X-5889Y-9075D01*
Y-9725D01*
X-6366Y-9075D02*
X-6273Y-9106D01*
X-6242Y-9168D01*
Y-9230D01*
X-6273Y-9292D01*
X-6335Y-9323D01*
X-6459Y-9354D01*
X-6551Y-9385D01*
X-6613Y-9446D01*
X-6644Y-9508D01*
Y-9601D01*
X-6613Y-9663D01*
X-6582Y-9694D01*
X-6490Y-9725D01*
X-6366D01*
X-6273Y-9694D01*
X-6242Y-9663D01*
X-6211Y-9601D01*
Y-9508D01*
X-6242Y-9446D01*
X-6304Y-9385D01*
X-6397Y-9354D01*
X-6520Y-9323D01*
X-6582Y-9292D01*
X-6613Y-9230D01*
Y-9168D01*
X-6582Y-9106D01*
X-6490Y-9075D01*
X-6366D01*
X625Y-17229D02*
X-25D01*
X625D02*
Y-16950D01*
X594Y-16857D01*
X563Y-16826D01*
X501Y-16796D01*
X439D01*
X377Y-16826D01*
X346Y-16857D01*
X315Y-16950D01*
Y-17229D01*
Y-17012D02*
X-25Y-16796D01*
X501Y-16650D02*
X532Y-16588D01*
X625Y-16495D01*
X-25D01*
X532Y-15802D02*
X594Y-15833D01*
X625Y-15926D01*
Y-15988D01*
X594Y-16081D01*
X501Y-16143D01*
X346Y-16174D01*
X192D01*
X68Y-16143D01*
X6Y-16081D01*
X-25Y-15988D01*
Y-15957D01*
X6Y-15864D01*
X68Y-15802D01*
X161Y-15771D01*
X192D01*
X285Y-15802D01*
X346Y-15864D01*
X377Y-15957D01*
Y-15988D01*
X346Y-16081D01*
X285Y-16143D01*
X192Y-16174D01*
X-5775Y-15395D02*
X-6425D01*
X-5775D02*
Y-15117D01*
X-5806Y-15024D01*
X-5837Y-14993D01*
X-5899Y-14962D01*
X-5961D01*
X-6023Y-14993D01*
X-6054Y-15024D01*
X-6085Y-15117D01*
Y-15395D01*
Y-15179D02*
X-6425Y-14962D01*
X-5775Y-14755D02*
Y-14414D01*
X-6023Y-14600D01*
Y-14507D01*
X-6054Y-14445D01*
X-6085Y-14414D01*
X-6177Y-14383D01*
X-6239D01*
X-6332Y-14414D01*
X-6394Y-14476D01*
X-6425Y-14569D01*
Y-14662D01*
X-6394Y-14755D01*
X-6363Y-14786D01*
X-6301Y-14817D01*
X-5775Y-13805D02*
X-6425Y-14114D01*
X-5775Y-14238D02*
Y-13805D01*
X-2689Y-6075D02*
X-2937Y-6725D01*
X-3184Y-6075D02*
X-2937Y-6725D01*
X-3268Y-6075D02*
Y-6725D01*
Y-6075D02*
X-3485D01*
X-3577Y-6106D01*
X-3639Y-6168D01*
X-3670Y-6230D01*
X-3701Y-6323D01*
Y-6477D01*
X-3670Y-6570D01*
X-3639Y-6632D01*
X-3577Y-6694D01*
X-3485Y-6725D01*
X-3268D01*
X-4156Y-6075D02*
X-3847Y-6508D01*
X-4311D01*
X-4156Y-6075D02*
Y-6725D01*
X1125Y-12895D02*
X475D01*
X1125D02*
Y-12617D01*
X1094Y-12524D01*
X1063Y-12493D01*
X1001Y-12462D01*
X939D01*
X877Y-12493D01*
X846Y-12524D01*
X815Y-12617D01*
Y-12895D01*
Y-12679D02*
X475Y-12462D01*
X1125Y-12255D02*
Y-11914D01*
X877Y-12100D01*
Y-12007D01*
X846Y-11945D01*
X815Y-11914D01*
X723Y-11883D01*
X661D01*
X568Y-11914D01*
X506Y-11976D01*
X475Y-12069D01*
Y-12162D01*
X506Y-12255D01*
X537Y-12286D01*
X599Y-12317D01*
X1125Y-11367D02*
Y-11676D01*
X846Y-11707D01*
X877Y-11676D01*
X908Y-11583D01*
Y-11490D01*
X877Y-11398D01*
X815Y-11336D01*
X723Y-11305D01*
X661D01*
X568Y-11336D01*
X506Y-11398D01*
X475Y-11490D01*
Y-11583D01*
X506Y-11676D01*
X537Y-11707D01*
X599Y-11738D01*
X-12620Y-8875D02*
Y-9525D01*
Y-8875D02*
X-12899D01*
X-12992Y-8906D01*
X-13022Y-8937D01*
X-13053Y-8999D01*
Y-9061D01*
X-13022Y-9123D01*
X-12992Y-9154D01*
X-12899Y-9185D01*
X-12620D01*
X-12837D02*
X-13053Y-9525D01*
X-13508Y-8875D02*
X-13199Y-9308D01*
X-13663D01*
X-13508Y-8875D02*
Y-9525D01*
X-14149Y-8968D02*
X-14118Y-8906D01*
X-14025Y-8875D01*
X-13963D01*
X-13870Y-8906D01*
X-13808Y-8999D01*
X-13778Y-9154D01*
Y-9308D01*
X-13808Y-9432D01*
X-13870Y-9494D01*
X-13963Y-9525D01*
X-13994D01*
X-14087Y-9494D01*
X-14149Y-9432D01*
X-14180Y-9339D01*
Y-9308D01*
X-14149Y-9215D01*
X-14087Y-9154D01*
X-13994Y-9123D01*
X-13963D01*
X-13870Y-9154D01*
X-13808Y-9215D01*
X-13778Y-9308D01*
X8150Y-25030D02*
X8181Y-24968D01*
X8243Y-24906D01*
X8304Y-24875D01*
X8428D01*
X8490Y-24906D01*
X8552Y-24968D01*
X8583Y-25030D01*
X8614Y-25123D01*
Y-25277D01*
X8583Y-25370D01*
X8552Y-25432D01*
X8490Y-25494D01*
X8428Y-25525D01*
X8304D01*
X8243Y-25494D01*
X8181Y-25432D01*
X8150Y-25370D01*
X7905Y-24875D02*
X7565D01*
X7750Y-25123D01*
X7658D01*
X7596Y-25154D01*
X7565Y-25185D01*
X7534Y-25277D01*
Y-25339D01*
X7565Y-25432D01*
X7627Y-25494D01*
X7720Y-25525D01*
X7812D01*
X7905Y-25494D01*
X7936Y-25463D01*
X7967Y-25401D01*
X6986Y-25092D02*
X7017Y-25185D01*
X7079Y-25246D01*
X7172Y-25277D01*
X7203D01*
X7296Y-25246D01*
X7357Y-25185D01*
X7388Y-25092D01*
Y-25061D01*
X7357Y-24968D01*
X7296Y-24906D01*
X7203Y-24875D01*
X7172D01*
X7079Y-24906D01*
X7017Y-24968D01*
X6986Y-25092D01*
Y-25246D01*
X7017Y-25401D01*
X7079Y-25494D01*
X7172Y-25525D01*
X7234D01*
X7327Y-25494D01*
X7357Y-25432D01*
X9075Y-18695D02*
X8425D01*
X9075D02*
Y-18417D01*
X9044Y-18324D01*
X9013Y-18293D01*
X8951Y-18262D01*
X8889D01*
X8827Y-18293D01*
X8796Y-18324D01*
X8765Y-18417D01*
Y-18695D01*
Y-18479D02*
X8425Y-18262D01*
X9075Y-17962D02*
X9044Y-18055D01*
X8982Y-18086D01*
X8920D01*
X8858Y-18055D01*
X8827Y-17993D01*
X8796Y-17869D01*
X8765Y-17776D01*
X8704Y-17714D01*
X8642Y-17683D01*
X8549D01*
X8487Y-17714D01*
X8456Y-17745D01*
X8425Y-17838D01*
Y-17962D01*
X8456Y-18055D01*
X8487Y-18086D01*
X8549Y-18117D01*
X8642D01*
X8704Y-18086D01*
X8765Y-18024D01*
X8796Y-17931D01*
X8827Y-17807D01*
X8858Y-17745D01*
X8920Y-17714D01*
X8982D01*
X9044Y-17745D01*
X9075Y-17838D01*
Y-17962D01*
Y-17167D02*
Y-17476D01*
X8796Y-17507D01*
X8827Y-17476D01*
X8858Y-17383D01*
Y-17290D01*
X8827Y-17198D01*
X8765Y-17136D01*
X8673Y-17105D01*
X8611D01*
X8518Y-17136D01*
X8456Y-17198D01*
X8425Y-17290D01*
Y-17383D01*
X8456Y-17476D01*
X8487Y-17507D01*
X8549Y-17538D01*
X9725Y-25211D02*
X9075D01*
X9725D02*
Y-24932D01*
X9694Y-24839D01*
X9663Y-24808D01*
X9601Y-24778D01*
X9539D01*
X9477Y-24808D01*
X9446Y-24839D01*
X9415Y-24932D01*
Y-25211D01*
Y-24994D02*
X9075Y-24778D01*
X9725Y-24477D02*
X9694Y-24570D01*
X9632Y-24601D01*
X9570D01*
X9508Y-24570D01*
X9477Y-24508D01*
X9446Y-24385D01*
X9415Y-24292D01*
X9354Y-24230D01*
X9292Y-24199D01*
X9199D01*
X9137Y-24230D01*
X9106Y-24261D01*
X9075Y-24354D01*
Y-24477D01*
X9106Y-24570D01*
X9137Y-24601D01*
X9199Y-24632D01*
X9292D01*
X9354Y-24601D01*
X9415Y-24539D01*
X9446Y-24446D01*
X9477Y-24323D01*
X9508Y-24261D01*
X9570Y-24230D01*
X9632D01*
X9694Y-24261D01*
X9725Y-24354D01*
Y-24477D01*
Y-23744D02*
X9292Y-24053D01*
Y-23589D01*
X9725Y-23744D02*
X9075D01*
X995Y-22175D02*
Y-22825D01*
Y-22175D02*
X717D01*
X624Y-22206D01*
X593Y-22237D01*
X562Y-22299D01*
Y-22361D01*
X593Y-22423D01*
X624Y-22454D01*
X717Y-22485D01*
X995D01*
X779D02*
X562Y-22825D01*
X262Y-22175D02*
X355Y-22206D01*
X386Y-22268D01*
Y-22330D01*
X355Y-22392D01*
X293Y-22423D01*
X169Y-22454D01*
X76Y-22485D01*
X14Y-22546D01*
X-17Y-22608D01*
Y-22701D01*
X14Y-22763D01*
X45Y-22794D01*
X138Y-22825D01*
X262D01*
X355Y-22794D01*
X386Y-22763D01*
X417Y-22701D01*
Y-22608D01*
X386Y-22546D01*
X324Y-22485D01*
X231Y-22454D01*
X107Y-22423D01*
X45Y-22392D01*
X14Y-22330D01*
Y-22268D01*
X45Y-22206D01*
X138Y-22175D01*
X262D01*
X-224D02*
X-564D01*
X-379Y-22423D01*
X-472D01*
X-533Y-22454D01*
X-564Y-22485D01*
X-595Y-22577D01*
Y-22639D01*
X-564Y-22732D01*
X-502Y-22794D01*
X-410Y-22825D01*
X-317D01*
X-224Y-22794D01*
X-193Y-22763D01*
X-162Y-22701D01*
X13138Y-18075D02*
Y-18725D01*
X12767D01*
X12262Y-18075D02*
X12572Y-18725D01*
X12695Y-18075D02*
X12262D01*
X12622Y-17075D02*
Y-17725D01*
X12251D01*
X11809Y-17168D02*
X11839Y-17106D01*
X11932Y-17075D01*
X11994D01*
X12087Y-17106D01*
X12149Y-17199D01*
X12180Y-17354D01*
Y-17508D01*
X12149Y-17632D01*
X12087Y-17694D01*
X11994Y-17725D01*
X11963D01*
X11870Y-17694D01*
X11809Y-17632D01*
X11778Y-17539D01*
Y-17508D01*
X11809Y-17415D01*
X11870Y-17354D01*
X11963Y-17323D01*
X11994D01*
X12087Y-17354D01*
X12149Y-17415D01*
X12180Y-17508D01*
X6095Y-24075D02*
Y-24725D01*
Y-24075D02*
X5879D01*
X5786Y-24106D01*
X5724Y-24168D01*
X5693Y-24230D01*
X5662Y-24323D01*
Y-24477D01*
X5693Y-24570D01*
X5724Y-24632D01*
X5786Y-24694D01*
X5879Y-24725D01*
X6095D01*
X5517Y-24075D02*
Y-24725D01*
Y-24075D02*
X5300D01*
X5207Y-24106D01*
X5145Y-24168D01*
X5114Y-24230D01*
X5083Y-24323D01*
Y-24477D01*
X5114Y-24570D01*
X5145Y-24632D01*
X5207Y-24694D01*
X5300Y-24725D01*
X5517D01*
X4876Y-24075D02*
X4536D01*
X4721Y-24323D01*
X4628D01*
X4567Y-24354D01*
X4536Y-24385D01*
X4505Y-24477D01*
Y-24539D01*
X4536Y-24632D01*
X4598Y-24694D01*
X4690Y-24725D01*
X4783D01*
X4876Y-24694D01*
X4907Y-24663D01*
X4938Y-24601D01*
X12095Y-23075D02*
X11848Y-23725D01*
X11600Y-23075D02*
X11848Y-23725D01*
X11517Y-23075D02*
Y-23725D01*
Y-23075D02*
X11300D01*
X11207Y-23106D01*
X11145Y-23168D01*
X11114Y-23230D01*
X11083Y-23323D01*
Y-23477D01*
X11114Y-23570D01*
X11145Y-23632D01*
X11207Y-23694D01*
X11300Y-23725D01*
X11517D01*
X10505Y-23075D02*
X10814Y-23725D01*
X10938Y-23075D02*
X10505D01*
X13570Y-22865D02*
X13632Y-22896D01*
X13694Y-22958D01*
X13725Y-23020D01*
Y-23144D01*
X13694Y-23206D01*
X13632Y-23267D01*
X13570Y-23298D01*
X13477Y-23329D01*
X13323D01*
X13230Y-23298D01*
X13168Y-23267D01*
X13106Y-23206D01*
X13075Y-23144D01*
Y-23020D01*
X13106Y-22958D01*
X13168Y-22896D01*
X13230Y-22865D01*
X13725Y-22373D02*
X13292Y-22683D01*
Y-22218D01*
X13725Y-22373D02*
X13075D01*
X13725Y-21918D02*
X13694Y-22011D01*
X13601Y-22073D01*
X13446Y-22104D01*
X13354D01*
X13199Y-22073D01*
X13106Y-22011D01*
X13075Y-21918D01*
Y-21856D01*
X13106Y-21763D01*
X13199Y-21702D01*
X13354Y-21671D01*
X13446D01*
X13601Y-21702D01*
X13694Y-21763D01*
X13725Y-21856D01*
Y-21918D01*
X6870Y-8850D02*
X6932Y-8881D01*
X6994Y-8943D01*
X7025Y-9004D01*
Y-9128D01*
X6994Y-9190D01*
X6932Y-9252D01*
X6870Y-9283D01*
X6777Y-9314D01*
X6623D01*
X6530Y-9283D01*
X6468Y-9252D01*
X6406Y-9190D01*
X6375Y-9128D01*
Y-9004D01*
X6406Y-8943D01*
X6468Y-8881D01*
X6530Y-8850D01*
X7025Y-8605D02*
Y-8265D01*
X6777Y-8450D01*
Y-8358D01*
X6746Y-8296D01*
X6715Y-8265D01*
X6623Y-8234D01*
X6561D01*
X6468Y-8265D01*
X6406Y-8327D01*
X6375Y-8420D01*
Y-8512D01*
X6406Y-8605D01*
X6437Y-8636D01*
X6499Y-8667D01*
X6932Y-7717D02*
X6994Y-7748D01*
X7025Y-7841D01*
Y-7903D01*
X6994Y-7996D01*
X6901Y-8057D01*
X6746Y-8088D01*
X6592D01*
X6468Y-8057D01*
X6406Y-7996D01*
X6375Y-7903D01*
Y-7872D01*
X6406Y-7779D01*
X6468Y-7717D01*
X6561Y-7686D01*
X6592D01*
X6685Y-7717D01*
X6746Y-7779D01*
X6777Y-7872D01*
Y-7903D01*
X6746Y-7996D01*
X6685Y-8057D01*
X6592Y-8088D01*
X13870Y-9450D02*
X13932Y-9481D01*
X13994Y-9543D01*
X14025Y-9604D01*
Y-9728D01*
X13994Y-9790D01*
X13932Y-9852D01*
X13870Y-9883D01*
X13777Y-9914D01*
X13623D01*
X13530Y-9883D01*
X13468Y-9852D01*
X13406Y-9790D01*
X13375Y-9728D01*
Y-9604D01*
X13406Y-9543D01*
X13468Y-9481D01*
X13530Y-9450D01*
X13870Y-9236D02*
X13901D01*
X13963Y-9205D01*
X13994Y-9174D01*
X14025Y-9112D01*
Y-8989D01*
X13994Y-8927D01*
X13963Y-8896D01*
X13901Y-8865D01*
X13839D01*
X13777Y-8896D01*
X13685Y-8958D01*
X13375Y-9267D01*
Y-8834D01*
X13808Y-8286D02*
X13715Y-8317D01*
X13654Y-8379D01*
X13623Y-8472D01*
Y-8503D01*
X13654Y-8596D01*
X13715Y-8657D01*
X13808Y-8688D01*
X13839D01*
X13932Y-8657D01*
X13994Y-8596D01*
X14025Y-8503D01*
Y-8472D01*
X13994Y-8379D01*
X13932Y-8317D01*
X13808Y-8286D01*
X13654D01*
X13499Y-8317D01*
X13406Y-8379D01*
X13375Y-8472D01*
Y-8534D01*
X13406Y-8627D01*
X13468Y-8657D01*
X11765Y-8130D02*
X11796Y-8068D01*
X11858Y-8006D01*
X11920Y-7975D01*
X12044D01*
X12106Y-8006D01*
X12167Y-8068D01*
X12198Y-8130D01*
X12229Y-8223D01*
Y-8377D01*
X12198Y-8470D01*
X12167Y-8532D01*
X12106Y-8594D01*
X12044Y-8625D01*
X11920D01*
X11858Y-8594D01*
X11796Y-8532D01*
X11765Y-8470D01*
X11552Y-8130D02*
Y-8099D01*
X11521Y-8037D01*
X11490Y-8006D01*
X11428Y-7975D01*
X11304D01*
X11242Y-8006D01*
X11211Y-8037D01*
X11180Y-8099D01*
Y-8161D01*
X11211Y-8223D01*
X11273Y-8315D01*
X11583Y-8625D01*
X11149D01*
X10571Y-7975D02*
X10880Y-8625D01*
X11004Y-7975D02*
X10571D01*
X3125Y-11395D02*
X2475D01*
X3125D02*
Y-11117D01*
X3094Y-11024D01*
X3063Y-10993D01*
X3001Y-10962D01*
X2939D01*
X2877Y-10993D01*
X2846Y-11024D01*
X2815Y-11117D01*
Y-11395D01*
Y-11179D02*
X2475Y-10962D01*
X3125Y-10383D02*
X2475Y-10693D01*
X3125Y-10817D02*
Y-10383D01*
Y-9805D02*
X2475Y-10114D01*
X3125Y-10238D02*
Y-9805D01*
X3925Y-11380D02*
X3275D01*
X3925D02*
Y-11101D01*
X3894Y-11008D01*
X3863Y-10978D01*
X3801Y-10947D01*
X3739D01*
X3677Y-10978D01*
X3646Y-11008D01*
X3615Y-11101D01*
Y-11380D01*
Y-11163D02*
X3275Y-10947D01*
X3925Y-10368D02*
X3275Y-10677D01*
X3925Y-10801D02*
Y-10368D01*
X3832Y-9851D02*
X3894Y-9882D01*
X3925Y-9975D01*
Y-10037D01*
X3894Y-10130D01*
X3801Y-10192D01*
X3646Y-10222D01*
X3492D01*
X3368Y-10192D01*
X3306Y-10130D01*
X3275Y-10037D01*
Y-10006D01*
X3306Y-9913D01*
X3368Y-9851D01*
X3461Y-9820D01*
X3492D01*
X3585Y-9851D01*
X3646Y-9913D01*
X3677Y-10006D01*
Y-10037D01*
X3646Y-10130D01*
X3585Y-10192D01*
X3492Y-10222D01*
X2325Y-11395D02*
X1675D01*
X2325D02*
Y-11117D01*
X2294Y-11024D01*
X2263Y-10993D01*
X2201Y-10962D01*
X2139D01*
X2077Y-10993D01*
X2046Y-11024D01*
X2015Y-11117D01*
Y-11395D01*
Y-11179D02*
X1675Y-10962D01*
X2325Y-10383D02*
X1675Y-10693D01*
X2325Y-10817D02*
Y-10383D01*
Y-10083D02*
X2294Y-10176D01*
X2232Y-10207D01*
X2170D01*
X2108Y-10176D01*
X2077Y-10114D01*
X2046Y-9990D01*
X2015Y-9898D01*
X1954Y-9836D01*
X1892Y-9805D01*
X1799D01*
X1737Y-9836D01*
X1706Y-9867D01*
X1675Y-9959D01*
Y-10083D01*
X1706Y-10176D01*
X1737Y-10207D01*
X1799Y-10238D01*
X1892D01*
X1954Y-10207D01*
X2015Y-10145D01*
X2046Y-10052D01*
X2077Y-9928D01*
X2108Y-9867D01*
X2170Y-9836D01*
X2232D01*
X2294Y-9867D01*
X2325Y-9959D01*
Y-10083D01*
X4725Y-11395D02*
X4075D01*
X4725D02*
Y-11117D01*
X4694Y-11024D01*
X4663Y-10993D01*
X4601Y-10962D01*
X4539D01*
X4477Y-10993D01*
X4446Y-11024D01*
X4415Y-11117D01*
Y-11395D01*
Y-11179D02*
X4075Y-10962D01*
X4725Y-10383D02*
X4075Y-10693D01*
X4725Y-10817D02*
Y-10383D01*
Y-9867D02*
Y-10176D01*
X4446Y-10207D01*
X4477Y-10176D01*
X4508Y-10083D01*
Y-9990D01*
X4477Y-9898D01*
X4415Y-9836D01*
X4323Y-9805D01*
X4261D01*
X4168Y-9836D01*
X4106Y-9898D01*
X4075Y-9990D01*
Y-10083D01*
X4106Y-10176D01*
X4137Y-10207D01*
X4199Y-10238D01*
X3125Y-4995D02*
X2475D01*
X3125D02*
Y-4717D01*
X3094Y-4624D01*
X3063Y-4593D01*
X3001Y-4562D01*
X2939D01*
X2877Y-4593D01*
X2846Y-4624D01*
X2815Y-4717D01*
Y-4995D01*
Y-4779D02*
X2475Y-4562D01*
X3125Y-4045D02*
Y-4355D01*
X2846Y-4386D01*
X2877Y-4355D01*
X2908Y-4262D01*
Y-4169D01*
X2877Y-4076D01*
X2815Y-4014D01*
X2723Y-3983D01*
X2661D01*
X2568Y-4014D01*
X2506Y-4076D01*
X2475Y-4169D01*
Y-4262D01*
X2506Y-4355D01*
X2537Y-4386D01*
X2599Y-4417D01*
X3125Y-3683D02*
X3094Y-3776D01*
X3032Y-3807D01*
X2970D01*
X2908Y-3776D01*
X2877Y-3714D01*
X2846Y-3590D01*
X2815Y-3498D01*
X2754Y-3436D01*
X2692Y-3405D01*
X2599D01*
X2537Y-3436D01*
X2506Y-3467D01*
X2475Y-3559D01*
Y-3683D01*
X2506Y-3776D01*
X2537Y-3807D01*
X2599Y-3838D01*
X2692D01*
X2754Y-3807D01*
X2815Y-3745D01*
X2846Y-3652D01*
X2877Y-3528D01*
X2908Y-3467D01*
X2970Y-3436D01*
X3032D01*
X3094Y-3467D01*
X3125Y-3559D01*
Y-3683D01*
X7980Y-6975D02*
Y-7625D01*
Y-6975D02*
X7701D01*
X7608Y-7006D01*
X7578Y-7037D01*
X7547Y-7099D01*
Y-7161D01*
X7578Y-7223D01*
X7608Y-7254D01*
X7701Y-7285D01*
X7980D01*
X7763D02*
X7547Y-7625D01*
X7030Y-6975D02*
X7339D01*
X7370Y-7254D01*
X7339Y-7223D01*
X7246Y-7192D01*
X7154D01*
X7061Y-7223D01*
X6999Y-7285D01*
X6968Y-7377D01*
Y-7439D01*
X6999Y-7532D01*
X7061Y-7594D01*
X7154Y-7625D01*
X7246D01*
X7339Y-7594D01*
X7370Y-7563D01*
X7401Y-7501D01*
X6451Y-7068D02*
X6482Y-7006D01*
X6575Y-6975D01*
X6637D01*
X6730Y-7006D01*
X6792Y-7099D01*
X6822Y-7254D01*
Y-7408D01*
X6792Y-7532D01*
X6730Y-7594D01*
X6637Y-7625D01*
X6606D01*
X6513Y-7594D01*
X6451Y-7532D01*
X6420Y-7439D01*
Y-7408D01*
X6451Y-7315D01*
X6513Y-7254D01*
X6606Y-7223D01*
X6637D01*
X6730Y-7254D01*
X6792Y-7315D01*
X6822Y-7408D01*
X5925Y-5095D02*
X5275D01*
X5925D02*
Y-4817D01*
X5894Y-4724D01*
X5863Y-4693D01*
X5801Y-4662D01*
X5739D01*
X5677Y-4693D01*
X5646Y-4724D01*
X5615Y-4817D01*
Y-5095D01*
Y-4879D02*
X5275Y-4662D01*
X5925Y-4145D02*
Y-4455D01*
X5646Y-4486D01*
X5677Y-4455D01*
X5708Y-4362D01*
Y-4269D01*
X5677Y-4176D01*
X5615Y-4114D01*
X5523Y-4083D01*
X5461D01*
X5368Y-4114D01*
X5306Y-4176D01*
X5275Y-4269D01*
Y-4362D01*
X5306Y-4455D01*
X5337Y-4486D01*
X5399Y-4517D01*
X5925Y-3876D02*
Y-3536D01*
X5677Y-3721D01*
Y-3628D01*
X5646Y-3567D01*
X5615Y-3536D01*
X5523Y-3505D01*
X5461D01*
X5368Y-3536D01*
X5306Y-3598D01*
X5275Y-3690D01*
Y-3783D01*
X5306Y-3876D01*
X5337Y-3907D01*
X5399Y-3938D01*
X4153Y-1775D02*
Y-2425D01*
X3782D01*
X3401Y-1775D02*
X3711Y-2208D01*
X3247D01*
X3401Y-1775D02*
Y-2425D01*
X6125Y-9138D02*
X5475D01*
Y-8767D01*
X6125Y-8324D02*
Y-8633D01*
X5846Y-8664D01*
X5877Y-8633D01*
X5908Y-8541D01*
Y-8448D01*
X5877Y-8355D01*
X5815Y-8293D01*
X5723Y-8262D01*
X5661D01*
X5568Y-8293D01*
X5506Y-8355D01*
X5475Y-8448D01*
Y-8541D01*
X5506Y-8633D01*
X5537Y-8664D01*
X5599Y-8695D01*
X7338Y-5721D02*
X7316Y-5656D01*
X7316Y-5568D01*
X7338Y-5503D01*
X7425Y-5415D01*
X7491Y-5393D01*
X7579D01*
X7644Y-5415D01*
X7732Y-5459D01*
X7841Y-5568D01*
X7885Y-5656D01*
X7907Y-5721D01*
Y-5809D01*
X7885Y-5875D01*
X7797Y-5962D01*
X7732Y-5984D01*
X7644Y-5984D01*
X7579Y-5962D01*
X7056Y-5785D02*
X6815Y-6026D01*
X7121Y-6069D01*
X7056Y-6135D01*
X7034Y-6201D01*
X7034Y-6244D01*
X7077Y-6332D01*
X7121Y-6376D01*
X7209Y-6419D01*
X7296D01*
X7384Y-6376D01*
X7449Y-6310D01*
X7493Y-6223D01*
Y-6179D01*
X7471Y-6113D01*
X6428Y-6413D02*
X6646Y-6194D01*
X6865Y-6369D01*
X6821Y-6369D01*
X6734Y-6413D01*
X6668Y-6479D01*
X6624Y-6566D01*
Y-6654D01*
X6668Y-6741D01*
X6712Y-6785D01*
X6800Y-6829D01*
X6887D01*
X6975Y-6785D01*
X7040Y-6719D01*
X7084Y-6632D01*
Y-6588D01*
X7062Y-6522D01*
X7970Y-8881D02*
X8032Y-8912D01*
X8094Y-8973D01*
X8125Y-9035D01*
Y-9159D01*
X8094Y-9221D01*
X8032Y-9283D01*
X7970Y-9314D01*
X7877Y-9345D01*
X7723D01*
X7630Y-9314D01*
X7568Y-9283D01*
X7506Y-9221D01*
X7475Y-9159D01*
Y-9035D01*
X7506Y-8973D01*
X7568Y-8912D01*
X7630Y-8881D01*
X8125Y-8636D02*
Y-8296D01*
X7877Y-8481D01*
Y-8389D01*
X7846Y-8327D01*
X7815Y-8296D01*
X7723Y-8265D01*
X7661D01*
X7568Y-8296D01*
X7506Y-8358D01*
X7475Y-8450D01*
Y-8543D01*
X7506Y-8636D01*
X7537Y-8667D01*
X7599Y-8698D01*
X8125Y-7810D02*
X7692Y-8119D01*
Y-7655D01*
X8125Y-7810D02*
X7475D01*
X6638Y-5121D02*
X6616Y-5056D01*
X6616Y-4968D01*
X6638Y-4903D01*
X6725Y-4815D01*
X6791Y-4793D01*
X6879D01*
X6944Y-4815D01*
X7032Y-4859D01*
X7141Y-4968D01*
X7185Y-5056D01*
X7207Y-5121D01*
Y-5209D01*
X7185Y-5275D01*
X7097Y-5362D01*
X7032Y-5384D01*
X6944Y-5384D01*
X6879Y-5362D01*
X6356Y-5185D02*
X6115Y-5426D01*
X6421Y-5469D01*
X6356Y-5535D01*
X6334Y-5601D01*
X6334Y-5644D01*
X6377Y-5732D01*
X6421Y-5776D01*
X6509Y-5819D01*
X6596D01*
X6684Y-5776D01*
X6749Y-5710D01*
X6793Y-5623D01*
Y-5579D01*
X6771Y-5513D01*
X5946Y-5594D02*
X5706Y-5835D01*
X6012Y-5879D01*
X5946Y-5944D01*
X5924Y-6010D01*
X5924Y-6054D01*
X5968Y-6141D01*
X6012Y-6185D01*
X6100Y-6229D01*
X6187D01*
X6275Y-6185D01*
X6340Y-6119D01*
X6384Y-6032D01*
Y-5988D01*
X6362Y-5922D01*
X8770Y-9065D02*
X8832Y-9096D01*
X8894Y-9158D01*
X8925Y-9220D01*
Y-9344D01*
X8894Y-9406D01*
X8832Y-9467D01*
X8770Y-9498D01*
X8677Y-9529D01*
X8523D01*
X8430Y-9498D01*
X8368Y-9467D01*
X8306Y-9406D01*
X8275Y-9344D01*
Y-9220D01*
X8306Y-9158D01*
X8368Y-9096D01*
X8430Y-9065D01*
X8925Y-8821D02*
Y-8480D01*
X8677Y-8666D01*
Y-8573D01*
X8646Y-8511D01*
X8615Y-8480D01*
X8523Y-8449D01*
X8461D01*
X8368Y-8480D01*
X8306Y-8542D01*
X8275Y-8635D01*
Y-8728D01*
X8306Y-8821D01*
X8337Y-8852D01*
X8399Y-8883D01*
X8770Y-8273D02*
X8801D01*
X8863Y-8242D01*
X8894Y-8211D01*
X8925Y-8149D01*
Y-8025D01*
X8894Y-7963D01*
X8863Y-7933D01*
X8801Y-7902D01*
X8739D01*
X8677Y-7933D01*
X8585Y-7994D01*
X8275Y-8304D01*
Y-7871D01*
X7670Y-1726D02*
X7732Y-1757D01*
X7794Y-1819D01*
X7825Y-1881D01*
Y-2004D01*
X7794Y-2066D01*
X7732Y-2128D01*
X7670Y-2159D01*
X7577Y-2190D01*
X7423D01*
X7330Y-2159D01*
X7268Y-2128D01*
X7206Y-2066D01*
X7175Y-2004D01*
Y-1881D01*
X7206Y-1819D01*
X7268Y-1757D01*
X7330Y-1726D01*
X7825Y-1481D02*
Y-1141D01*
X7577Y-1327D01*
Y-1234D01*
X7546Y-1172D01*
X7515Y-1141D01*
X7423Y-1110D01*
X7361D01*
X7268Y-1141D01*
X7206Y-1203D01*
X7175Y-1296D01*
Y-1389D01*
X7206Y-1481D01*
X7237Y-1512D01*
X7299Y-1543D01*
X7701Y-965D02*
X7732Y-903D01*
X7825Y-810D01*
X7175D01*
X9570Y-9165D02*
X9632Y-9196D01*
X9694Y-9258D01*
X9725Y-9320D01*
Y-9444D01*
X9694Y-9506D01*
X9632Y-9567D01*
X9570Y-9598D01*
X9477Y-9629D01*
X9323D01*
X9230Y-9598D01*
X9168Y-9567D01*
X9106Y-9506D01*
X9075Y-9444D01*
Y-9320D01*
X9106Y-9258D01*
X9168Y-9196D01*
X9230Y-9165D01*
X9725Y-8921D02*
Y-8580D01*
X9477Y-8766D01*
Y-8673D01*
X9446Y-8611D01*
X9415Y-8580D01*
X9323Y-8549D01*
X9261D01*
X9168Y-8580D01*
X9106Y-8642D01*
X9075Y-8735D01*
Y-8828D01*
X9106Y-8921D01*
X9137Y-8952D01*
X9199Y-8983D01*
X9725Y-8218D02*
X9694Y-8311D01*
X9601Y-8373D01*
X9446Y-8404D01*
X9354D01*
X9199Y-8373D01*
X9106Y-8311D01*
X9075Y-8218D01*
Y-8156D01*
X9106Y-8063D01*
X9199Y-8002D01*
X9354Y-7971D01*
X9446D01*
X9601Y-8002D01*
X9694Y-8063D01*
X9725Y-8156D01*
Y-8218D01*
X13529Y-14375D02*
Y-15025D01*
Y-14375D02*
X13313D01*
X13220Y-14406D01*
X13158Y-14468D01*
X13127Y-14530D01*
X13096Y-14623D01*
Y-14777D01*
X13127Y-14870D01*
X13158Y-14932D01*
X13220Y-14994D01*
X13313Y-15025D01*
X13529D01*
X12456D02*
X12703Y-14375D01*
X12951Y-15025D01*
X12858Y-14808D02*
X12548D01*
X12273Y-14530D02*
Y-14499D01*
X12242Y-14437D01*
X12211Y-14406D01*
X12149Y-14375D01*
X12025D01*
X11963Y-14406D01*
X11933Y-14437D01*
X11902Y-14499D01*
Y-14561D01*
X11933Y-14623D01*
X11994Y-14715D01*
X12304Y-15025D01*
X11871D01*
X4250Y-8930D02*
X4281Y-8868D01*
X4343Y-8806D01*
X4404Y-8775D01*
X4528D01*
X4590Y-8806D01*
X4652Y-8868D01*
X4683Y-8930D01*
X4714Y-9023D01*
Y-9177D01*
X4683Y-9270D01*
X4652Y-9332D01*
X4590Y-9394D01*
X4528Y-9425D01*
X4404D01*
X4343Y-9394D01*
X4281Y-9332D01*
X4250Y-9270D01*
X4036Y-8930D02*
Y-8899D01*
X4005Y-8837D01*
X3974Y-8806D01*
X3912Y-8775D01*
X3789D01*
X3727Y-8806D01*
X3696Y-8837D01*
X3665Y-8899D01*
Y-8961D01*
X3696Y-9023D01*
X3758Y-9115D01*
X4067Y-9425D01*
X3634D01*
X3117Y-8868D02*
X3148Y-8806D01*
X3241Y-8775D01*
X3303D01*
X3396Y-8806D01*
X3457Y-8899D01*
X3488Y-9054D01*
Y-9208D01*
X3457Y-9332D01*
X3396Y-9394D01*
X3303Y-9425D01*
X3272D01*
X3179Y-9394D01*
X3117Y-9332D01*
X3086Y-9239D01*
Y-9208D01*
X3117Y-9115D01*
X3179Y-9054D01*
X3272Y-9023D01*
X3303D01*
X3396Y-9054D01*
X3457Y-9115D01*
X3488Y-9208D01*
X9265Y-1730D02*
X9296Y-1668D01*
X9358Y-1606D01*
X9420Y-1575D01*
X9544D01*
X9606Y-1606D01*
X9667Y-1668D01*
X9698Y-1730D01*
X9729Y-1823D01*
Y-1977D01*
X9698Y-2070D01*
X9667Y-2132D01*
X9606Y-2194D01*
X9544Y-2225D01*
X9420D01*
X9358Y-2194D01*
X9296Y-2132D01*
X9265Y-2070D01*
X9052Y-1730D02*
Y-1699D01*
X9021Y-1637D01*
X8990Y-1606D01*
X8928Y-1575D01*
X8804D01*
X8742Y-1606D01*
X8711Y-1637D01*
X8680Y-1699D01*
Y-1761D01*
X8711Y-1823D01*
X8773Y-1915D01*
X9083Y-2225D01*
X8649D01*
X8442Y-1575D02*
X8102D01*
X8287Y-1823D01*
X8194D01*
X8133Y-1854D01*
X8102Y-1885D01*
X8071Y-1977D01*
Y-2039D01*
X8102Y-2132D01*
X8163Y-2194D01*
X8256Y-2225D01*
X8349D01*
X8442Y-2194D01*
X8473Y-2163D01*
X8504Y-2101D01*
X12065Y-1730D02*
X12096Y-1668D01*
X12158Y-1606D01*
X12220Y-1575D01*
X12344D01*
X12406Y-1606D01*
X12467Y-1668D01*
X12498Y-1730D01*
X12529Y-1823D01*
Y-1977D01*
X12498Y-2070D01*
X12467Y-2132D01*
X12406Y-2194D01*
X12344Y-2225D01*
X12220D01*
X12158Y-2194D01*
X12096Y-2132D01*
X12065Y-2070D01*
X11852Y-1730D02*
Y-1699D01*
X11821Y-1637D01*
X11790Y-1606D01*
X11728Y-1575D01*
X11604D01*
X11542Y-1606D01*
X11511Y-1637D01*
X11480Y-1699D01*
Y-1761D01*
X11511Y-1823D01*
X11573Y-1915D01*
X11883Y-2225D01*
X11449D01*
X11273Y-1730D02*
Y-1699D01*
X11242Y-1637D01*
X11211Y-1606D01*
X11149Y-1575D01*
X11025D01*
X10963Y-1606D01*
X10933Y-1637D01*
X10902Y-1699D01*
Y-1761D01*
X10933Y-1823D01*
X10994Y-1915D01*
X11304Y-2225D01*
X10871D01*
X13790Y-5444D02*
Y-6094D01*
Y-5444D02*
X13512D01*
X13419Y-5475D01*
X13388Y-5506D01*
X13357Y-5568D01*
Y-5630D01*
X13388Y-5692D01*
X13419Y-5723D01*
X13512Y-5754D01*
X13790D02*
X13512D01*
X13419Y-5785D01*
X13388Y-5815D01*
X13357Y-5877D01*
Y-5970D01*
X13388Y-6032D01*
X13419Y-6063D01*
X13512Y-6094D01*
X13790D01*
X13026Y-5444D02*
X13088Y-5475D01*
X13150Y-5537D01*
X13180Y-5599D01*
X13211Y-5692D01*
Y-5846D01*
X13180Y-5939D01*
X13150Y-6001D01*
X13088Y-6063D01*
X13026Y-6094D01*
X12902D01*
X12840Y-6063D01*
X12778Y-6001D01*
X12747Y-5939D01*
X12716Y-5846D01*
Y-5692D01*
X12747Y-5599D01*
X12778Y-5537D01*
X12840Y-5475D01*
X12902Y-5444D01*
X13026D01*
X12933Y-5970D02*
X12747Y-6156D01*
X12565Y-5568D02*
X12503Y-5537D01*
X12410Y-5444D01*
Y-6094D01*
D11*
X-4300Y-25100D02*
G03*
X-4300Y-25100I-1100J0D01*
G01*
X-8288Y-2500D02*
G03*
X-8288Y-2500I-1712J0D01*
G01*
D13*
X6225Y-23690D02*
G03*
X4475Y-23690I-875J25D01*
G01*
X13150Y-13100D02*
Y-11300D01*
X11250D02*
X11950D01*
X10050Y-11850D02*
Y-11300D01*
X3450Y-23690D02*
X7250Y-23690D01*
X3450Y-23690D02*
Y-18790D01*
X7250Y-18790D01*
Y-23690D02*
Y-18790D01*
M02*
