G04*
G04 #@! TF.GenerationSoftware,Altium Limited,Altium Designer,24.9.1 (31)*
G04*
G04 Layer_Physical_Order=4*
G04 Layer_Color=16440176*
%FSLAX43Y43*%
%MOMM*%
G71*
G04*
G04 #@! TF.SameCoordinates,EB6F8884-3A13-42B7-98C6-1BA732C3788B*
G04*
G04*
G04 #@! TF.FilePolarity,Positive*
G04*
G01*
G75*
%ADD12C,0.250*%
%ADD14C,0.150*%
%ADD79C,0.400*%
%ADD80C,0.350*%
%ADD81C,0.300*%
%ADD82C,0.140*%
%ADD83C,0.130*%
%ADD86C,0.700*%
%AMCUSTOMSHAPE87*
4,1,6,0.000,0.500,0.000,-0.500,-0.500,-0.500,-0.600,-0.400,-0.600,0.400,-0.500,0.500,0.000,0.500,0.0*%
%ADD87CUSTOMSHAPE87*%

%ADD88C,1.000*%
%ADD89C,5.500*%
%AMCUSTOMSHAPE90*
4,1,6,0.000,-0.500,0.000,0.500,0.500,0.500,0.600,0.400,0.600,-0.400,0.500,-0.500,0.000,-0.500,0.0*%
%ADD90CUSTOMSHAPE90*%

%ADD91C,0.400*%
G36*
X14913Y-30D02*
X14970Y-87D01*
X15000Y-160D01*
Y-200D01*
Y-1200D01*
X14500D01*
X14431Y-1131D01*
Y-1367D01*
X14145D01*
Y-1567D01*
X14165Y-1665D01*
X14148Y-1788D01*
X14070Y-1903D01*
X14043Y-2040D01*
Y-2840D01*
X14070Y-2977D01*
X14136Y-3075D01*
X14070Y-3173D01*
X14043Y-3310D01*
Y-4110D01*
X14070Y-4247D01*
X14136Y-4345D01*
X14070Y-4443D01*
X14043Y-4580D01*
Y-5380D01*
X14070Y-5517D01*
X14136Y-5615D01*
X14070Y-5713D01*
X14043Y-5850D01*
Y-6650D01*
X14070Y-6787D01*
X14148Y-6902D01*
X14148Y-6902D01*
X14248Y-7002D01*
X14363Y-7080D01*
X14490Y-7105D01*
Y-12913D01*
X14324Y-12946D01*
X14176Y-13046D01*
X14176Y-13046D01*
X14076Y-13146D01*
X13976Y-13294D01*
X13941Y-13470D01*
Y-13831D01*
X8671D01*
X8537Y-13848D01*
X8412Y-13900D01*
X8304Y-13983D01*
X5865Y-16422D01*
X5547Y-16316D01*
X5528Y-16184D01*
X9079Y-12633D01*
X10200D01*
X10366Y-12600D01*
X10506Y-12506D01*
X11130Y-11883D01*
X11256Y-11936D01*
X11400Y-11955D01*
X11544Y-11936D01*
X11677Y-11880D01*
X11792Y-11792D01*
X11880Y-11677D01*
X11936Y-11544D01*
X11955Y-11400D01*
X11936Y-11256D01*
X11881Y-11125D01*
X11936Y-10994D01*
X11955Y-10850D01*
X11936Y-10706D01*
X11880Y-10573D01*
X11792Y-10458D01*
X11677Y-10370D01*
X11544Y-10314D01*
X11400Y-10295D01*
X11256Y-10314D01*
X11123Y-10370D01*
X11008Y-10458D01*
X10920Y-10573D01*
X10864Y-10706D01*
X10845Y-10850D01*
X10855Y-10926D01*
X10622Y-11129D01*
X10543Y-11120D01*
X10344Y-11019D01*
X10336Y-10956D01*
X10280Y-10823D01*
X10192Y-10708D01*
X10077Y-10620D01*
X9944Y-10564D01*
X9800Y-10545D01*
X9656Y-10564D01*
X9523Y-10620D01*
X9408Y-10708D01*
X9320Y-10823D01*
X9264Y-10956D01*
X9245Y-11100D01*
Y-11147D01*
X9069Y-11261D01*
X8945Y-11306D01*
X8844Y-11264D01*
X8700Y-11245D01*
X8556Y-11264D01*
X8423Y-11320D01*
X8308Y-11408D01*
X8220Y-11523D01*
X8164Y-11656D01*
X8145Y-11800D01*
X8164Y-11944D01*
X8220Y-12077D01*
X8302Y-12185D01*
X6859Y-13628D01*
X6542Y-13708D01*
X6427Y-13620D01*
X6351Y-13588D01*
X6348Y-13586D01*
X6344Y-13585D01*
X6294Y-13564D01*
X6150Y-13545D01*
X5750D01*
X5606Y-13564D01*
X5473Y-13620D01*
X5358Y-13708D01*
X5270Y-13823D01*
X5214Y-13956D01*
X5195Y-14100D01*
X5214Y-14244D01*
X5270Y-14377D01*
X5358Y-14492D01*
X5473Y-14580D01*
X5480Y-14583D01*
X5566Y-14884D01*
X5559Y-14928D01*
X4694Y-15794D01*
X4600Y-15934D01*
X4477Y-16115D01*
X4300Y-16145D01*
X4156Y-16164D01*
X4023Y-16220D01*
X3908Y-16308D01*
X3820Y-16423D01*
X3764Y-16556D01*
X3745Y-16700D01*
X3764Y-16844D01*
X3820Y-16977D01*
X3890Y-17069D01*
X3844Y-17376D01*
X3728Y-17456D01*
X3428Y-17306D01*
Y-12777D01*
X5319Y-10886D01*
X5408Y-10892D01*
X5523Y-10980D01*
X5656Y-11036D01*
X5800Y-11055D01*
X5944Y-11036D01*
X6077Y-10980D01*
X6192Y-10892D01*
X6280Y-10777D01*
X6336Y-10644D01*
X6355Y-10500D01*
X6336Y-10356D01*
X6280Y-10223D01*
X6192Y-10108D01*
X6186Y-10019D01*
X6503Y-9703D01*
X6563Y-9613D01*
X6578Y-9605D01*
X6772Y-9573D01*
X6898Y-9580D01*
X6908Y-9592D01*
X7023Y-9680D01*
X7156Y-9736D01*
X7300Y-9755D01*
X7444Y-9736D01*
X7577Y-9680D01*
X7692Y-9592D01*
X7780Y-9477D01*
X7836Y-9344D01*
X7855Y-9200D01*
X7836Y-9056D01*
X7780Y-8923D01*
X7773Y-8913D01*
X7783Y-8879D01*
X7948Y-8648D01*
X8000Y-8655D01*
X8144Y-8636D01*
X8277Y-8580D01*
X8300Y-8563D01*
X8323Y-8580D01*
X8456Y-8636D01*
X8600Y-8655D01*
X8744Y-8636D01*
X8877Y-8580D01*
X8900Y-8563D01*
X8923Y-8580D01*
X9056Y-8636D01*
X9200Y-8655D01*
X9344Y-8636D01*
X9477Y-8580D01*
X9578Y-8503D01*
X9656Y-8536D01*
X9800Y-8555D01*
X9944Y-8536D01*
X10077Y-8480D01*
X10150Y-8425D01*
X10223Y-8480D01*
X10356Y-8536D01*
X10500Y-8555D01*
X10644Y-8536D01*
X10777Y-8480D01*
X10892Y-8392D01*
X10980Y-8277D01*
X11036Y-8144D01*
X11055Y-8000D01*
X11036Y-7856D01*
X10980Y-7723D01*
X10933Y-7661D01*
Y-7600D01*
X10900Y-7434D01*
X10806Y-7294D01*
X8156Y-4644D01*
X8016Y-4550D01*
X7850Y-4517D01*
X7113D01*
X7055Y-4450D01*
X7036Y-4306D01*
X6980Y-4173D01*
X6892Y-4058D01*
X6777Y-3970D01*
X6644Y-3914D01*
X6500Y-3895D01*
X6356Y-3914D01*
X6223Y-3970D01*
X6108Y-4058D01*
X6020Y-4173D01*
X5964Y-4306D01*
X5945Y-4450D01*
X5887Y-4517D01*
X5511D01*
X5444Y-4236D01*
X5577Y-4180D01*
X5692Y-4092D01*
X5780Y-3977D01*
X5836Y-3844D01*
X5855Y-3700D01*
X5836Y-3556D01*
X5780Y-3423D01*
X5692Y-3308D01*
X5577Y-3220D01*
X5444Y-3164D01*
X5300Y-3145D01*
X5156Y-3164D01*
X5023Y-3220D01*
X4908Y-3308D01*
X4820Y-3423D01*
X4764Y-3556D01*
X4745Y-3700D01*
X4764Y-3844D01*
X4820Y-3977D01*
X4908Y-4092D01*
X5023Y-4180D01*
X5156Y-4236D01*
X5089Y-4517D01*
X-550D01*
X-758Y-4458D01*
X-820Y-4323D01*
X-908Y-4208D01*
X-1023Y-4120D01*
X-1156Y-4064D01*
X-1300Y-4045D01*
X-1444Y-4064D01*
X-1577Y-4120D01*
X-1692Y-4208D01*
X-1780Y-4323D01*
X-2056Y-4464D01*
X-2200Y-4445D01*
X-2344Y-4464D01*
X-2477Y-4520D01*
X-2592Y-4608D01*
X-2680Y-4723D01*
X-2685Y-4735D01*
X-2756Y-4764D01*
X-2900Y-4745D01*
X-3044Y-4764D01*
X-3177Y-4820D01*
X-3292Y-4908D01*
X-3380Y-5023D01*
X-3436Y-5156D01*
X-3455Y-5300D01*
X-3436Y-5444D01*
X-3380Y-5577D01*
X-3292Y-5692D01*
X-3177Y-5780D01*
X-3044Y-5836D01*
X-2967Y-5846D01*
X-2906Y-5906D01*
X-2766Y-6000D01*
X-2600Y-6033D01*
X-2585D01*
X-2305Y-6200D01*
X-2286Y-6344D01*
X-2230Y-6477D01*
X-2142Y-6592D01*
X-2027Y-6680D01*
X-1894Y-6736D01*
X-1750Y-6755D01*
X-1606Y-6736D01*
X-1473Y-6680D01*
X-1358Y-6592D01*
X-1270Y-6477D01*
X-1214Y-6344D01*
X-1195Y-6200D01*
X-1199Y-6052D01*
X-1034Y-6000D01*
X-894Y-5906D01*
X-371Y-5383D01*
X2025D01*
X2113Y-5491D01*
X2194Y-5683D01*
X2164Y-5756D01*
X2145Y-5900D01*
X2164Y-6044D01*
X2220Y-6177D01*
X2308Y-6292D01*
X2319Y-6301D01*
X2322Y-6307D01*
X2342Y-6618D01*
X2325Y-6665D01*
X2255Y-6757D01*
X2199Y-6891D01*
X2181Y-7034D01*
X2199Y-7178D01*
X2255Y-7312D01*
X2343Y-7426D01*
X2410Y-7478D01*
X2387Y-7718D01*
X2359Y-7798D01*
X2320Y-7829D01*
X2272Y-7849D01*
X2156Y-7864D01*
X2023Y-7920D01*
X1908Y-8008D01*
X1820Y-8123D01*
X1764Y-8256D01*
X1745Y-8400D01*
X1764Y-8544D01*
X1820Y-8677D01*
X1908Y-8792D01*
X2023Y-8880D01*
X2156Y-8936D01*
X2300Y-8955D01*
X2444Y-8936D01*
X2577Y-8880D01*
X2692Y-8792D01*
X2765Y-8698D01*
X2856Y-8736D01*
X3000Y-8755D01*
X3144Y-8736D01*
X3277Y-8680D01*
X3392Y-8592D01*
X3480Y-8477D01*
X3536Y-8344D01*
X3555Y-8200D01*
X3536Y-8056D01*
X3480Y-7923D01*
X3392Y-7808D01*
X3277Y-7720D01*
X3252Y-7709D01*
X3195Y-7580D01*
X3167Y-7435D01*
X3174Y-7366D01*
X3216Y-7312D01*
X3271Y-7178D01*
X3290Y-7034D01*
X3271Y-6891D01*
X3216Y-6757D01*
X3128Y-6642D01*
X3116Y-6633D01*
X3113Y-6627D01*
X3094Y-6316D01*
X3110Y-6269D01*
X3180Y-6177D01*
X3236Y-6044D01*
X3255Y-5900D01*
X3236Y-5756D01*
X3206Y-5683D01*
X3287Y-5491D01*
X3375Y-5383D01*
X5017D01*
X5060Y-5434D01*
X5150Y-5683D01*
X5120Y-5723D01*
X5064Y-5856D01*
X5045Y-6000D01*
X5059Y-6104D01*
X5023Y-6120D01*
X4908Y-6208D01*
X4820Y-6323D01*
X4764Y-6456D01*
X4745Y-6600D01*
X4764Y-6744D01*
X4820Y-6877D01*
X4837Y-6900D01*
X4820Y-6923D01*
X4764Y-7056D01*
X4745Y-7200D01*
X4764Y-7344D01*
X4820Y-7477D01*
X4837Y-7500D01*
X4820Y-7523D01*
X4764Y-7656D01*
X4745Y-7800D01*
X4764Y-7944D01*
X4820Y-8077D01*
X4837Y-8100D01*
X4820Y-8123D01*
X4764Y-8256D01*
X4745Y-8400D01*
X4764Y-8544D01*
X4820Y-8677D01*
X4908Y-8792D01*
X5023Y-8880D01*
X5156Y-8936D01*
X5300Y-8955D01*
X5444Y-8936D01*
X5634Y-9153D01*
X5667Y-9327D01*
X2697Y-12297D01*
X2604Y-12436D01*
X2572Y-12600D01*
Y-17535D01*
X2272Y-17659D01*
X1681Y-17068D01*
X1692Y-16892D01*
X1780Y-16777D01*
X1836Y-16644D01*
X1855Y-16500D01*
X1836Y-16356D01*
X1780Y-16223D01*
X1692Y-16108D01*
X1577Y-16020D01*
X1444Y-15964D01*
X1300Y-15945D01*
X1156Y-15964D01*
X1023Y-16020D01*
X908Y-16108D01*
X732Y-16119D01*
X-194Y-15194D01*
X-334Y-15100D01*
X-500Y-15067D01*
X-2599D01*
X-2830Y-14837D01*
X-2826Y-14702D01*
X-2801Y-14564D01*
X-2708Y-14492D01*
X-2620Y-14377D01*
X-2564Y-14244D01*
X-2545Y-14100D01*
X-2564Y-13956D01*
X-2620Y-13823D01*
X-2708Y-13708D01*
X-2823Y-13620D01*
X-2895Y-13590D01*
X-3008Y-13331D01*
X-3013Y-13305D01*
X-3010Y-13255D01*
X-2964Y-13144D01*
X-2945Y-13000D01*
X-2964Y-12856D01*
X-3020Y-12723D01*
X-3108Y-12608D01*
X-3223Y-12520D01*
X-3356Y-12464D01*
X-3500Y-12445D01*
X-3644Y-12464D01*
X-3777Y-12520D01*
X-3839Y-12567D01*
X-5820D01*
X-6219Y-12168D01*
X-6208Y-11992D01*
X-6120Y-11877D01*
X-6064Y-11744D01*
X-6045Y-11600D01*
X-6064Y-11456D01*
X-6120Y-11323D01*
X-6208Y-11208D01*
X-6323Y-11120D01*
X-6456Y-11064D01*
X-6600Y-11045D01*
X-6744Y-11064D01*
X-6877Y-11120D01*
X-6992Y-11208D01*
X-7168Y-11219D01*
X-7654Y-10733D01*
X-7664Y-10656D01*
X-7720Y-10523D01*
X-7808Y-10408D01*
X-7923Y-10320D01*
X-8056Y-10264D01*
X-8133Y-10254D01*
X-8694Y-9694D01*
X-8834Y-9600D01*
X-9000Y-9567D01*
X-9106Y-9298D01*
X-9105Y-9267D01*
X-9008Y-9192D01*
X-8960Y-9130D01*
X-8838Y-9060D01*
X-8589Y-9006D01*
X-8581Y-9008D01*
X-8520Y-9033D01*
X-8350Y-9056D01*
X-8322Y-9052D01*
X-8314Y-9064D01*
X-8178Y-9168D01*
X-8020Y-9233D01*
X-7850Y-9256D01*
X-7680Y-9233D01*
X-7522Y-9168D01*
X-7386Y-9064D01*
X-7385Y-9061D01*
X-7353Y-9039D01*
X-7221Y-9081D01*
X-7036Y-9356D01*
X-7055Y-9500D01*
X-7036Y-9644D01*
X-6980Y-9777D01*
X-6892Y-9892D01*
X-6777Y-9980D01*
X-6644Y-10036D01*
X-6500Y-10055D01*
X-6356Y-10036D01*
X-6223Y-9980D01*
X-6108Y-9892D01*
X-6020Y-9777D01*
X-5964Y-9644D01*
X-5945Y-9500D01*
X-5964Y-9356D01*
X-6020Y-9223D01*
X-6108Y-9108D01*
X-6223Y-9020D01*
X-6260Y-9004D01*
X-6268Y-8995D01*
X-6368Y-8713D01*
X-6369Y-8689D01*
X-6363Y-8661D01*
X-6314Y-8544D01*
X-6295Y-8400D01*
X-6314Y-8256D01*
X-6370Y-8123D01*
X-6458Y-8008D01*
X-6573Y-7920D01*
X-6706Y-7864D01*
X-6850Y-7845D01*
X-6994Y-7864D01*
X-7127Y-7920D01*
X-7242Y-8008D01*
X-7357Y-8110D01*
X-7522Y-8032D01*
X-7680Y-7967D01*
X-7850Y-7944D01*
X-7878Y-7948D01*
X-7886Y-7936D01*
X-8022Y-7832D01*
X-8180Y-7767D01*
X-8350Y-7744D01*
X-8520Y-7767D01*
X-8678Y-7832D01*
X-8814Y-7936D01*
X-8918Y-8072D01*
X-8926Y-8092D01*
X-9051Y-8237D01*
X-9290Y-8260D01*
X-9400Y-8245D01*
X-9544Y-8264D01*
X-9677Y-8320D01*
X-9739Y-8367D01*
X-11700D01*
X-11866Y-8400D01*
X-12006Y-8494D01*
X-13743Y-10230D01*
X-14043Y-10106D01*
Y-9660D01*
X-14070Y-9523D01*
X-14136Y-9425D01*
X-14070Y-9327D01*
X-14043Y-9190D01*
Y-8390D01*
X-14070Y-8253D01*
X-14136Y-8155D01*
X-14070Y-8057D01*
X-14043Y-7920D01*
Y-7120D01*
X-14070Y-6983D01*
X-14136Y-6885D01*
X-14070Y-6787D01*
X-14043Y-6650D01*
Y-5850D01*
X-14070Y-5713D01*
X-14136Y-5615D01*
X-14070Y-5517D01*
X-14043Y-5380D01*
Y-4580D01*
X-14070Y-4443D01*
X-14136Y-4345D01*
X-14070Y-4247D01*
X-14043Y-4110D01*
Y-3310D01*
X-14070Y-3173D01*
X-14136Y-3075D01*
X-14070Y-2977D01*
X-14043Y-2840D01*
Y-2040D01*
X-14070Y-1903D01*
X-14148Y-1788D01*
X-14165Y-1668D01*
X-14145Y-1570D01*
Y-1370D01*
X-14431D01*
Y-1131D01*
X-14500Y-1200D01*
X-15000D01*
Y-241D01*
Y-193D01*
X-14963Y-104D01*
X-14896Y-37D01*
X-14807Y0D01*
X14840D01*
X14913Y-30D01*
D02*
G37*
G36*
X-2699Y-5320D02*
X-2698Y-5338D01*
X-2694Y-5355D01*
X-2689Y-5371D01*
X-2683Y-5388D01*
X-2676Y-5404D01*
X-2667Y-5419D01*
X-2656Y-5434D01*
X-2644Y-5449D01*
X-2631Y-5463D01*
X-2737Y-5569D01*
X-2751Y-5556D01*
X-2766Y-5544D01*
X-2781Y-5533D01*
X-2796Y-5524D01*
X-2812Y-5517D01*
X-2829Y-5511D01*
X-2845Y-5506D01*
X-2862Y-5502D01*
X-2880Y-5501D01*
X-2898Y-5500D01*
X-2700Y-5302D01*
X-2699Y-5320D01*
D02*
G37*
G36*
X7498Y-5700D02*
X7480Y-5701D01*
X7462Y-5702D01*
X7445Y-5706D01*
X7429Y-5711D01*
X7412Y-5717D01*
X7396Y-5724D01*
X7381Y-5733D01*
X7366Y-5744D01*
X7351Y-5756D01*
X7337Y-5769D01*
X7231Y-5663D01*
X7244Y-5649D01*
X7256Y-5634D01*
X7267Y-5619D01*
X7276Y-5604D01*
X7283Y-5588D01*
X7289Y-5571D01*
X7294Y-5555D01*
X7298Y-5538D01*
X7299Y-5520D01*
X7300Y-5502D01*
X7498Y-5700D01*
D02*
G37*
G36*
X7756Y-5972D02*
X7770Y-5983D01*
X7784Y-5993D01*
X7799Y-6002D01*
X7815Y-6009D01*
X7832Y-6015D01*
X7849Y-6019D01*
X7867Y-6022D01*
X7886Y-6024D01*
X7905Y-6025D01*
Y-6175D01*
X7886Y-6176D01*
X7867Y-6178D01*
X7849Y-6181D01*
X7832Y-6185D01*
X7815Y-6191D01*
X7799Y-6198D01*
X7784Y-6207D01*
X7770Y-6217D01*
X7756Y-6228D01*
X7743Y-6240D01*
Y-5960D01*
X7756Y-5972D01*
D02*
G37*
G36*
X10576Y-7714D02*
X10578Y-7733D01*
X10581Y-7751D01*
X10585Y-7768D01*
X10591Y-7785D01*
X10598Y-7801D01*
X10607Y-7816D01*
X10617Y-7830D01*
X10628Y-7844D01*
X10640Y-7857D01*
X10360D01*
X10372Y-7844D01*
X10383Y-7830D01*
X10393Y-7816D01*
X10402Y-7801D01*
X10409Y-7785D01*
X10415Y-7768D01*
X10419Y-7751D01*
X10422Y-7733D01*
X10424Y-7714D01*
X10425Y-7695D01*
X10575D01*
X10576Y-7714D01*
D02*
G37*
G36*
X9918Y-7839D02*
X9660Y-7857D01*
X9668Y-7848D01*
X9673Y-7838D01*
X9677Y-7827D01*
X9677Y-7816D01*
X9675Y-7804D01*
X9671Y-7791D01*
X9664Y-7778D01*
X9655Y-7764D01*
X9643Y-7750D01*
X9629Y-7735D01*
X9768Y-7662D01*
X9918Y-7839D01*
D02*
G37*
G36*
X-9543Y-8940D02*
X-9556Y-8928D01*
X-9570Y-8917D01*
X-9584Y-8907D01*
X-9599Y-8898D01*
X-9615Y-8891D01*
X-9632Y-8885D01*
X-9649Y-8881D01*
X-9667Y-8878D01*
X-9686Y-8876D01*
X-9705Y-8875D01*
Y-8725D01*
X-9686Y-8724D01*
X-9667Y-8722D01*
X-9649Y-8719D01*
X-9632Y-8715D01*
X-9615Y-8709D01*
X-9599Y-8702D01*
X-9584Y-8693D01*
X-9570Y-8683D01*
X-9556Y-8672D01*
X-9543Y-8660D01*
Y-8940D01*
D02*
G37*
G36*
X-8349Y-10544D02*
X-8334Y-10556D01*
X-8319Y-10567D01*
X-8304Y-10576D01*
X-8288Y-10583D01*
X-8271Y-10589D01*
X-8255Y-10594D01*
X-8238Y-10598D01*
X-8220Y-10599D01*
X-8202Y-10600D01*
X-8400Y-10798D01*
X-8401Y-10780D01*
X-8402Y-10762D01*
X-8406Y-10745D01*
X-8411Y-10729D01*
X-8417Y-10712D01*
X-8424Y-10696D01*
X-8433Y-10681D01*
X-8444Y-10666D01*
X-8456Y-10651D01*
X-8469Y-10637D01*
X-8363Y-10531D01*
X-8349Y-10544D01*
D02*
G37*
G36*
X-7999Y-10820D02*
X-7998Y-10838D01*
X-7994Y-10855D01*
X-7989Y-10871D01*
X-7983Y-10888D01*
X-7976Y-10904D01*
X-7967Y-10919D01*
X-7956Y-10934D01*
X-7944Y-10949D01*
X-7931Y-10963D01*
X-8037Y-11069D01*
X-8051Y-11056D01*
X-8066Y-11044D01*
X-8081Y-11033D01*
X-8096Y-11024D01*
X-8112Y-11017D01*
X-8129Y-11011D01*
X-8145Y-11006D01*
X-8162Y-11002D01*
X-8180Y-11001D01*
X-8198Y-11000D01*
X-8000Y-10802D01*
X-7999Y-10820D01*
D02*
G37*
G36*
X-8699Y-11120D02*
X-8698Y-11138D01*
X-8694Y-11155D01*
X-8689Y-11171D01*
X-8683Y-11188D01*
X-8676Y-11204D01*
X-8667Y-11219D01*
X-8656Y-11234D01*
X-8644Y-11249D01*
X-8631Y-11263D01*
X-8737Y-11369D01*
X-8751Y-11356D01*
X-8766Y-11344D01*
X-8781Y-11333D01*
X-8796Y-11324D01*
X-8812Y-11317D01*
X-8829Y-11311D01*
X-8845Y-11306D01*
X-8862Y-11302D01*
X-8880Y-11301D01*
X-8898Y-11300D01*
X-8700Y-11102D01*
X-8699Y-11120D01*
D02*
G37*
G36*
X-8902Y-11300D02*
X-8920Y-11301D01*
X-8938Y-11302D01*
X-8955Y-11306D01*
X-8971Y-11311D01*
X-8988Y-11317D01*
X-9004Y-11324D01*
X-9019Y-11333D01*
X-9034Y-11344D01*
X-9049Y-11356D01*
X-9063Y-11369D01*
X-9169Y-11263D01*
X-9156Y-11249D01*
X-9144Y-11234D01*
X-9133Y-11219D01*
X-9124Y-11204D01*
X-9117Y-11188D01*
X-9111Y-11171D01*
X-9106Y-11155D01*
X-9102Y-11138D01*
X-9101Y-11120D01*
X-9100Y-11102D01*
X-8902Y-11300D01*
D02*
G37*
G36*
X-14402Y-11164D02*
X-14397Y-11177D01*
X-14390Y-11188D01*
X-14379Y-11198D01*
X-14366Y-11206D01*
X-14349Y-11213D01*
X-14330Y-11218D01*
X-14307Y-11222D01*
X-14282Y-11224D01*
X-14253Y-11225D01*
Y-11375D01*
X-14282Y-11376D01*
X-14307Y-11378D01*
X-14330Y-11382D01*
X-14349Y-11387D01*
X-14366Y-11394D01*
X-14379Y-11402D01*
X-14390Y-11412D01*
X-14397Y-11423D01*
X-14402Y-11436D01*
X-14403Y-11450D01*
Y-11150D01*
X-14402Y-11164D01*
D02*
G37*
G36*
X11257Y-11540D02*
X11244Y-11528D01*
X11230Y-11517D01*
X11216Y-11507D01*
X11201Y-11498D01*
X11185Y-11491D01*
X11168Y-11485D01*
X11151Y-11481D01*
X11133Y-11478D01*
X11114Y-11476D01*
X11095Y-11475D01*
Y-11325D01*
X11114Y-11324D01*
X11133Y-11322D01*
X11151Y-11319D01*
X11168Y-11315D01*
X11185Y-11309D01*
X11201Y-11302D01*
X11216Y-11293D01*
X11230Y-11283D01*
X11244Y-11272D01*
X11257Y-11260D01*
Y-11540D01*
D02*
G37*
G36*
X-8502Y-12600D02*
X-8520Y-12601D01*
X-8538Y-12602D01*
X-8555Y-12606D01*
X-8571Y-12611D01*
X-8588Y-12617D01*
X-8604Y-12624D01*
X-8619Y-12633D01*
X-8634Y-12644D01*
X-8649Y-12656D01*
X-8663Y-12669D01*
X-8769Y-12563D01*
X-8756Y-12549D01*
X-8744Y-12534D01*
X-8733Y-12519D01*
X-8724Y-12504D01*
X-8717Y-12488D01*
X-8711Y-12471D01*
X-8706Y-12455D01*
X-8702Y-12438D01*
X-8701Y-12420D01*
X-8700Y-12402D01*
X-8502Y-12600D01*
D02*
G37*
G36*
X-14402Y-12464D02*
X-14397Y-12477D01*
X-14390Y-12488D01*
X-14379Y-12498D01*
X-14366Y-12506D01*
X-14349Y-12513D01*
X-14330Y-12518D01*
X-14307Y-12522D01*
X-14282Y-12524D01*
X-14253Y-12525D01*
Y-12675D01*
X-14282Y-12676D01*
X-14307Y-12678D01*
X-14330Y-12682D01*
X-14349Y-12687D01*
X-14366Y-12694D01*
X-14379Y-12702D01*
X-14390Y-12712D01*
X-14397Y-12723D01*
X-14402Y-12736D01*
X-14403Y-12750D01*
Y-12450D01*
X-14402Y-12464D01*
D02*
G37*
G36*
X-3643Y-13140D02*
X-3656Y-13128D01*
X-3670Y-13117D01*
X-3684Y-13107D01*
X-3699Y-13098D01*
X-3715Y-13091D01*
X-3732Y-13085D01*
X-3749Y-13081D01*
X-3767Y-13078D01*
X-3786Y-13076D01*
X-3805Y-13075D01*
Y-12925D01*
X-3786Y-12924D01*
X-3767Y-12922D01*
X-3749Y-12919D01*
X-3732Y-12915D01*
X-3715Y-12909D01*
X-3699Y-12902D01*
X-3684Y-12893D01*
X-3670Y-12883D01*
X-3656Y-12872D01*
X-3643Y-12860D01*
Y-13140D01*
D02*
G37*
G36*
X-14402Y-13764D02*
X-14397Y-13777D01*
X-14390Y-13788D01*
X-14379Y-13798D01*
X-14366Y-13806D01*
X-14349Y-13813D01*
X-14330Y-13818D01*
X-14307Y-13822D01*
X-14282Y-13824D01*
X-14253Y-13825D01*
Y-13975D01*
X-14282Y-13976D01*
X-14307Y-13978D01*
X-14330Y-13982D01*
X-14349Y-13987D01*
X-14366Y-13994D01*
X-14379Y-14002D01*
X-14390Y-14012D01*
X-14397Y-14023D01*
X-14402Y-14036D01*
X-14403Y-14050D01*
Y-13750D01*
X-14402Y-13764D01*
D02*
G37*
G36*
X14487Y-14348D02*
X14484Y-14343D01*
X14479Y-14340D01*
X14473Y-14340D01*
X14466Y-14341D01*
X14458Y-14345D01*
X14448Y-14351D01*
X14437Y-14359D01*
X14425Y-14369D01*
X14396Y-14396D01*
X14311Y-14297D01*
X14332Y-14276D01*
X14389Y-14210D01*
X14397Y-14197D01*
X14403Y-14186D01*
X14406Y-14176D01*
X14408Y-14168D01*
X14406Y-14162D01*
X14487Y-14348D01*
D02*
G37*
G36*
X-3643Y-14740D02*
X-3656Y-14728D01*
X-3670Y-14717D01*
X-3684Y-14707D01*
X-3699Y-14698D01*
X-3715Y-14691D01*
X-3732Y-14685D01*
X-3749Y-14681D01*
X-3767Y-14678D01*
X-3786Y-14676D01*
X-3805Y-14675D01*
Y-14525D01*
X-3786Y-14524D01*
X-3767Y-14522D01*
X-3749Y-14519D01*
X-3732Y-14515D01*
X-3715Y-14509D01*
X-3699Y-14502D01*
X-3684Y-14493D01*
X-3670Y-14483D01*
X-3656Y-14472D01*
X-3643Y-14460D01*
Y-14740D01*
D02*
G37*
G36*
X14400Y-14607D02*
X14441Y-14641D01*
X14459Y-14652D01*
X14475Y-14660D01*
X14489Y-14665D01*
X14501Y-14666D01*
X14512Y-14663D01*
X14520Y-14656D01*
X14527Y-14646D01*
X14406Y-14887D01*
X14411Y-14875D01*
X14412Y-14861D01*
X14410Y-14846D01*
X14405Y-14829D01*
X14397Y-14812D01*
X14386Y-14793D01*
X14372Y-14772D01*
X14355Y-14751D01*
X14311Y-14703D01*
X14376Y-14584D01*
X14400Y-14607D01*
D02*
G37*
G36*
X-14402Y-14964D02*
X-14397Y-14977D01*
X-14390Y-14988D01*
X-14379Y-14998D01*
X-14366Y-15006D01*
X-14349Y-15013D01*
X-14330Y-15018D01*
X-14307Y-15022D01*
X-14282Y-15024D01*
X-14253Y-15025D01*
Y-15175D01*
X-14282Y-15176D01*
X-14307Y-15178D01*
X-14330Y-15182D01*
X-14349Y-15187D01*
X-14366Y-15194D01*
X-14379Y-15202D01*
X-14390Y-15212D01*
X-14397Y-15223D01*
X-14402Y-15236D01*
X-14403Y-15250D01*
Y-14950D01*
X-14402Y-14964D01*
D02*
G37*
G36*
X-2844Y-15372D02*
X-2830Y-15383D01*
X-2816Y-15393D01*
X-2801Y-15402D01*
X-2785Y-15409D01*
X-2768Y-15415D01*
X-2751Y-15419D01*
X-2733Y-15422D01*
X-2714Y-15424D01*
X-2695Y-15425D01*
Y-15575D01*
X-2714Y-15576D01*
X-2733Y-15578D01*
X-2751Y-15581D01*
X-2768Y-15585D01*
X-2785Y-15591D01*
X-2801Y-15598D01*
X-2816Y-15607D01*
X-2830Y-15617D01*
X-2844Y-15628D01*
X-2857Y-15640D01*
Y-15360D01*
X-2844Y-15372D01*
D02*
G37*
G36*
X-5649Y-16244D02*
X-5634Y-16256D01*
X-5619Y-16267D01*
X-5604Y-16276D01*
X-5588Y-16283D01*
X-5571Y-16289D01*
X-5555Y-16294D01*
X-5538Y-16298D01*
X-5520Y-16299D01*
X-5502Y-16300D01*
X-5700Y-16498D01*
X-5701Y-16480D01*
X-5702Y-16462D01*
X-5706Y-16445D01*
X-5711Y-16429D01*
X-5717Y-16412D01*
X-5724Y-16396D01*
X-5733Y-16381D01*
X-5744Y-16366D01*
X-5756Y-16351D01*
X-5769Y-16337D01*
X-5663Y-16231D01*
X-5649Y-16244D01*
D02*
G37*
G36*
X-14402Y-16264D02*
X-14397Y-16277D01*
X-14390Y-16288D01*
X-14379Y-16298D01*
X-14366Y-16306D01*
X-14349Y-16313D01*
X-14330Y-16318D01*
X-14307Y-16322D01*
X-14282Y-16324D01*
X-14253Y-16325D01*
Y-16475D01*
X-14282Y-16476D01*
X-14307Y-16478D01*
X-14330Y-16482D01*
X-14349Y-16487D01*
X-14366Y-16494D01*
X-14379Y-16502D01*
X-14390Y-16512D01*
X-14397Y-16523D01*
X-14402Y-16536D01*
X-14403Y-16550D01*
Y-16250D01*
X-14402Y-16264D01*
D02*
G37*
G36*
X-2906Y-16747D02*
X-2891Y-16778D01*
X-2883Y-16793D01*
X-2863Y-16823D01*
X-2852Y-16837D01*
X-2828Y-16865D01*
X-2815Y-16879D01*
X-2877Y-17029D01*
X-2891Y-17016D01*
X-2906Y-17004D01*
X-2921Y-16995D01*
X-2936Y-16987D01*
X-2951Y-16982D01*
X-2966Y-16979D01*
X-2981Y-16978D01*
X-2997Y-16978D01*
X-3012Y-16981D01*
X-3027Y-16986D01*
X-2912Y-16731D01*
X-2906Y-16747D01*
D02*
G37*
G36*
X-7044Y-17172D02*
X-7030Y-17183D01*
X-7016Y-17193D01*
X-7001Y-17202D01*
X-6985Y-17209D01*
X-6968Y-17215D01*
X-6951Y-17219D01*
X-6933Y-17222D01*
X-6914Y-17224D01*
X-6895Y-17225D01*
Y-17375D01*
X-6914Y-17376D01*
X-6933Y-17378D01*
X-6951Y-17381D01*
X-6968Y-17385D01*
X-6985Y-17391D01*
X-7001Y-17398D01*
X-7016Y-17407D01*
X-7030Y-17417D01*
X-7044Y-17428D01*
X-7057Y-17440D01*
Y-17160D01*
X-7044Y-17172D01*
D02*
G37*
G36*
X-14402Y-17584D02*
X-14399Y-17590D01*
X-14394Y-17596D01*
X-14387Y-17601D01*
X-14377Y-17605D01*
X-14366Y-17609D01*
X-14353Y-17612D01*
X-14337Y-17613D01*
X-14320Y-17615D01*
X-14300Y-17615D01*
Y-17745D01*
X-14320Y-17745D01*
X-14353Y-17748D01*
X-14366Y-17751D01*
X-14377Y-17755D01*
X-14387Y-17759D01*
X-14394Y-17764D01*
X-14399Y-17770D01*
X-14402Y-17776D01*
X-14403Y-17783D01*
Y-17577D01*
X-14402Y-17584D01*
D02*
G37*
G36*
X13941Y-15540D02*
X13976Y-15716D01*
X14076Y-15864D01*
X14070Y-15873D01*
X14043Y-16010D01*
Y-16810D01*
X14070Y-16947D01*
X14136Y-17045D01*
X14070Y-17143D01*
X14043Y-17280D01*
Y-18080D01*
X13885Y-18238D01*
X13655Y-18036D01*
Y-17100D01*
X13636Y-16956D01*
X13580Y-16823D01*
X13492Y-16708D01*
X13377Y-16620D01*
X13244Y-16564D01*
X13100Y-16545D01*
X12956Y-16564D01*
X12823Y-16620D01*
X12708Y-16708D01*
X12620Y-16823D01*
X12564Y-16956D01*
X12545Y-17100D01*
Y-18300D01*
X12564Y-18444D01*
X12620Y-18577D01*
X12662Y-18632D01*
X12658Y-18658D01*
X10058Y-21258D01*
X9953Y-21415D01*
X9916Y-21600D01*
Y-23232D01*
X9864Y-23356D01*
X9845Y-23500D01*
X9864Y-23644D01*
X9920Y-23777D01*
X10008Y-23892D01*
X10123Y-23980D01*
X10256Y-24036D01*
X10400Y-24055D01*
X10544Y-24036D01*
X10677Y-23980D01*
X10850Y-23914D01*
X11023Y-23980D01*
X11156Y-24036D01*
X11300Y-24055D01*
X11444Y-24036D01*
X11577Y-23980D01*
X11692Y-23892D01*
X11780Y-23777D01*
X11836Y-23644D01*
X11855Y-23500D01*
X11836Y-23356D01*
X11784Y-23232D01*
Y-21801D01*
X12318Y-21267D01*
X12572Y-21437D01*
X12564Y-21456D01*
X12545Y-21600D01*
X12564Y-21744D01*
X12620Y-21877D01*
X12708Y-21992D01*
X12823Y-22080D01*
X12956Y-22136D01*
X13100Y-22155D01*
X13244Y-22136D01*
X13377Y-22080D01*
X13492Y-21992D01*
X13580Y-21877D01*
X13636Y-21744D01*
X13655Y-21600D01*
X13636Y-21456D01*
X13580Y-21323D01*
X13492Y-21208D01*
X13377Y-21120D01*
X13244Y-21064D01*
X13169Y-21054D01*
X13041Y-20880D01*
X12996Y-20756D01*
X13039Y-20684D01*
X14056D01*
X14070Y-20757D01*
X14148Y-20872D01*
X14165Y-20992D01*
X14145Y-21090D01*
Y-21290D01*
X14431D01*
Y-21690D01*
X14145D01*
Y-21890D01*
X14165Y-21988D01*
X14204Y-22125D01*
X14165Y-22262D01*
X14145Y-22360D01*
Y-22560D01*
X14431D01*
Y-22960D01*
X14145D01*
Y-23160D01*
X14165Y-23258D01*
X14148Y-23378D01*
X14070Y-23493D01*
X14043Y-23630D01*
Y-24430D01*
X14070Y-24567D01*
X14136Y-24665D01*
X14070Y-24763D01*
X14043Y-24900D01*
Y-25700D01*
X14070Y-25837D01*
X14140Y-25940D01*
X14129Y-25991D01*
X14011Y-26240D01*
X10425D01*
X10400Y-26245D01*
X10375Y-26243D01*
X10277Y-26252D01*
X10206Y-26274D01*
X10132Y-26289D01*
X9952Y-26363D01*
X9787Y-26474D01*
X9649Y-26612D01*
X9538Y-26777D01*
X9464Y-26957D01*
X9449Y-27031D01*
X9427Y-27103D01*
X9418Y-27200D01*
X9420Y-27225D01*
X9415Y-27250D01*
Y-29490D01*
X6735Y-29490D01*
Y-27100D01*
X6730Y-27075D01*
X6732Y-27050D01*
X6721Y-26933D01*
X6699Y-26861D01*
X6684Y-26788D01*
X6595Y-26572D01*
X6484Y-26406D01*
X6319Y-26241D01*
X6153Y-26130D01*
X5937Y-26041D01*
X5742Y-26002D01*
X5508D01*
X5313Y-26041D01*
X5096Y-26130D01*
X4931Y-26241D01*
X4766Y-26406D01*
X4655Y-26572D01*
X4565Y-26788D01*
X4551Y-26861D01*
X4529Y-26933D01*
X4518Y-27050D01*
X4520Y-27075D01*
X4515Y-27100D01*
Y-29490D01*
X-5015Y-29490D01*
X-5015Y-27486D01*
X-4964Y-27441D01*
X-4642Y-27392D01*
X-4527Y-27480D01*
X-4394Y-27536D01*
X-4250Y-27555D01*
X-4106Y-27536D01*
X-3973Y-27480D01*
X-3858Y-27392D01*
X-3642D01*
X-3527Y-27480D01*
X-3394Y-27536D01*
X-3250Y-27555D01*
X-3106Y-27536D01*
X-2973Y-27480D01*
X-2858Y-27392D01*
X-2770Y-27277D01*
X-2760Y-27253D01*
X-2750Y-27255D01*
X-2606Y-27236D01*
X-2473Y-27180D01*
X-2239Y-27165D01*
X-2101Y-27250D01*
X-2078Y-27268D01*
X-1920Y-27333D01*
X-1802Y-27349D01*
X-1714Y-27464D01*
X-1578Y-27568D01*
X-1420Y-27633D01*
X-1250Y-27656D01*
X-1080Y-27633D01*
X-922Y-27568D01*
X-899Y-27550D01*
X-642Y-27392D01*
X-527Y-27480D01*
X-394Y-27536D01*
X-250Y-27555D01*
X-106Y-27536D01*
X27Y-27480D01*
X142Y-27392D01*
X230Y-27277D01*
X240Y-27253D01*
X250Y-27255D01*
X394Y-27236D01*
X527Y-27180D01*
X540Y-27171D01*
X858Y-27092D01*
X973Y-27180D01*
X1106Y-27236D01*
X1250Y-27255D01*
X1260Y-27253D01*
X1270Y-27277D01*
X1358Y-27392D01*
X1473Y-27480D01*
X1606Y-27536D01*
X1750Y-27555D01*
X1894Y-27536D01*
X2027Y-27480D01*
X2142Y-27392D01*
X2230Y-27277D01*
X2240Y-27253D01*
X2250Y-27255D01*
X2394Y-27236D01*
X2527Y-27180D01*
X2642Y-27092D01*
X2730Y-26977D01*
X2786Y-26844D01*
X2805Y-26700D01*
X2786Y-26556D01*
X2730Y-26423D01*
X2642Y-26308D01*
X2527Y-26220D01*
X2483Y-26201D01*
X2408Y-25947D01*
X2414Y-25864D01*
X2480Y-25777D01*
X2536Y-25644D01*
X2555Y-25500D01*
Y-25100D01*
X2536Y-24956D01*
X2480Y-24823D01*
X2392Y-24708D01*
X2277Y-24620D01*
X2144Y-24564D01*
X2000Y-24545D01*
X2000Y-24545D01*
X1600D01*
X1456Y-24564D01*
X1323Y-24620D01*
X1208Y-24708D01*
X1120Y-24823D01*
X1064Y-24956D01*
X1045Y-25100D01*
Y-25500D01*
X1064Y-25644D01*
X1120Y-25777D01*
X1109Y-25828D01*
X1007Y-26074D01*
X975Y-26083D01*
X683Y-25874D01*
Y-25550D01*
X650Y-25384D01*
X556Y-25244D01*
X-594Y-24094D01*
X-734Y-24000D01*
X-900Y-23967D01*
X-6361D01*
X-6423Y-23920D01*
X-6556Y-23864D01*
X-6700Y-23845D01*
X-6844Y-23864D01*
X-6977Y-23920D01*
X-7050Y-23975D01*
X-7123Y-23920D01*
X-7256Y-23864D01*
X-7400Y-23845D01*
X-7544Y-23864D01*
X-7677Y-23920D01*
X-7792Y-24008D01*
X-7880Y-24123D01*
X-7936Y-24256D01*
X-7955Y-24400D01*
X-7936Y-24544D01*
X-7880Y-24677D01*
X-7792Y-24792D01*
X-7677Y-24880D01*
X-7544Y-24936D01*
X-7467Y-24946D01*
X-7206Y-25206D01*
X-7066Y-25300D01*
X-6900Y-25333D01*
X-1179D01*
X-683Y-25829D01*
Y-26237D01*
X-790Y-26325D01*
X-983Y-26407D01*
X-1080Y-26367D01*
X-1198Y-26351D01*
X-1286Y-26236D01*
X-1422Y-26132D01*
X-1580Y-26067D01*
X-1750Y-26044D01*
X-1920Y-26067D01*
X-2078Y-26132D01*
X-2101Y-26150D01*
X-2239Y-26235D01*
X-2473Y-26220D01*
X-2606Y-26164D01*
X-2750Y-26145D01*
X-2894Y-26164D01*
X-3027Y-26220D01*
X-3040Y-26229D01*
X-3358Y-26308D01*
X-3473Y-26220D01*
X-3606Y-26164D01*
X-3750Y-26145D01*
X-3894Y-26164D01*
X-4027Y-26220D01*
X-4142Y-26308D01*
X-4460Y-26229D01*
X-4473Y-26220D01*
X-4606Y-26164D01*
X-4750Y-26145D01*
X-4894Y-26164D01*
X-5027Y-26220D01*
X-5142Y-26308D01*
X-5431Y-26241D01*
X-5597Y-26130D01*
X-5813Y-26041D01*
X-6008Y-26002D01*
X-6242D01*
X-6437Y-26041D01*
X-6653Y-26130D01*
X-6819Y-26241D01*
X-6984Y-26406D01*
X-7095Y-26572D01*
X-7184Y-26788D01*
X-7199Y-26861D01*
X-7221Y-26933D01*
X-7232Y-27050D01*
X-7230Y-27075D01*
X-7235Y-27100D01*
Y-29490D01*
X-9415Y-29490D01*
Y-27250D01*
X-9420Y-27225D01*
X-9418Y-27200D01*
X-9427Y-27102D01*
X-9449Y-27031D01*
X-9464Y-26957D01*
X-9538Y-26777D01*
X-9649Y-26612D01*
X-9787Y-26474D01*
X-9952Y-26363D01*
X-10132Y-26289D01*
X-10206Y-26274D01*
X-10277Y-26252D01*
X-10375Y-26243D01*
X-10400Y-26245D01*
X-10425Y-26240D01*
X-12376D01*
X-12400Y-26225D01*
X-12564Y-25944D01*
X-12564Y-25940D01*
X-12545Y-25800D01*
Y-25400D01*
X-12564Y-25256D01*
X-12620Y-25123D01*
X-12708Y-25008D01*
X-12823Y-24920D01*
X-12956Y-24864D01*
X-13100Y-24845D01*
X-13244Y-24864D01*
X-13377Y-24920D01*
X-13492Y-25008D01*
X-13580Y-25123D01*
X-13636Y-25256D01*
X-13655Y-25400D01*
Y-25800D01*
X-13636Y-25940D01*
X-13636Y-25944D01*
X-13800Y-26225D01*
X-13824Y-26240D01*
X-14490D01*
X-14490Y-19907D01*
X-14324Y-19874D01*
X-14176Y-19774D01*
X-14176Y-19774D01*
X-14076Y-19674D01*
X-13976Y-19526D01*
X-13941Y-19350D01*
Y-19276D01*
X-13833Y-19167D01*
X-13750Y-19060D01*
X-13698Y-18934D01*
X-13681Y-18800D01*
Y-18215D01*
X-13441Y-17975D01*
X-13312Y-17983D01*
X-13111Y-18053D01*
X-13080Y-18127D01*
X-12992Y-18242D01*
X-12877Y-18330D01*
X-12744Y-18386D01*
X-12600Y-18405D01*
X-12456Y-18386D01*
X-12323Y-18330D01*
X-12208Y-18242D01*
X-11859Y-18226D01*
X-11017Y-19067D01*
X-10910Y-19150D01*
X-10789Y-19200D01*
X-10783Y-19216D01*
X-10751Y-19509D01*
X-10777Y-19520D01*
X-10892Y-19608D01*
X-10980Y-19723D01*
X-11036Y-19856D01*
X-11055Y-20000D01*
X-11036Y-20144D01*
X-10980Y-20277D01*
X-10892Y-20392D01*
X-10777Y-20480D01*
X-10644Y-20536D01*
X-10500Y-20555D01*
X-10356Y-20536D01*
X-10223Y-20480D01*
X-10201Y-20464D01*
X-10115Y-20475D01*
X-9916Y-20567D01*
X-9893Y-20588D01*
X-9886Y-20644D01*
X-9830Y-20777D01*
X-9742Y-20892D01*
X-9627Y-20980D01*
X-9494Y-21036D01*
X-9350Y-21055D01*
X-9206Y-21036D01*
X-9073Y-20980D01*
X-8958Y-20892D01*
X-8870Y-20777D01*
X-8860Y-20753D01*
X-8850Y-20755D01*
X-8706Y-20736D01*
X-8573Y-20680D01*
X-8559Y-20670D01*
X-8542Y-20692D01*
X-8427Y-20780D01*
X-8294Y-20836D01*
X-8150Y-20855D01*
X-8006Y-20836D01*
X-7961Y-20817D01*
X-7942Y-20842D01*
X-7827Y-20930D01*
X-7694Y-20986D01*
X-7550Y-21005D01*
X-7406Y-20986D01*
X-7273Y-20930D01*
X-7158Y-20842D01*
X-7070Y-20727D01*
X-7014Y-20594D01*
X-7013Y-20585D01*
X-6982Y-20558D01*
X-6706Y-20458D01*
X-6677Y-20480D01*
X-6544Y-20536D01*
X-6400Y-20555D01*
X-6256Y-20536D01*
X-6123Y-20480D01*
X-6008Y-20392D01*
X-5920Y-20277D01*
X-5864Y-20144D01*
X-5845Y-20000D01*
X-5864Y-19856D01*
X-5920Y-19723D01*
X-6008Y-19608D01*
X-6123Y-19520D01*
X-6123Y-19519D01*
X-6063Y-19219D01*
X-2869D01*
X-637Y-21451D01*
X-635Y-21455D01*
X-633Y-21470D01*
X-568Y-21628D01*
X-464Y-21764D01*
X-328Y-21868D01*
X-170Y-21933D01*
X0Y-21956D01*
X28Y-21952D01*
X36Y-21964D01*
X172Y-22068D01*
X330Y-22133D01*
X500Y-22156D01*
X670Y-22133D01*
X828Y-22068D01*
X964Y-21964D01*
X1034Y-21871D01*
X1178Y-21823D01*
X1399Y-21812D01*
X2754Y-23167D01*
X2764Y-23244D01*
X2820Y-23377D01*
X2908Y-23492D01*
X3023Y-23580D01*
X3156Y-23636D01*
X3300Y-23655D01*
X3444Y-23636D01*
X3577Y-23580D01*
X3692Y-23492D01*
X3780Y-23377D01*
X3836Y-23244D01*
X3855Y-23100D01*
X3836Y-22956D01*
X3780Y-22823D01*
X3692Y-22708D01*
X3577Y-22620D01*
X3444Y-22564D01*
X3367Y-22554D01*
X1340Y-20527D01*
X1366Y-20402D01*
X1470Y-20233D01*
X2532D01*
X2630Y-20327D01*
X2754Y-20533D01*
X2745Y-20600D01*
X2764Y-20744D01*
X2820Y-20877D01*
X2908Y-20992D01*
X3023Y-21080D01*
X3156Y-21136D01*
X3300Y-21155D01*
X3444Y-21136D01*
X3577Y-21080D01*
X3692Y-20992D01*
X3780Y-20877D01*
X3836Y-20744D01*
X3855Y-20600D01*
X3836Y-20456D01*
X3780Y-20323D01*
X3692Y-20208D01*
X3577Y-20120D01*
X3598Y-19825D01*
X3604Y-19815D01*
X3946Y-19748D01*
X3972Y-19768D01*
X4130Y-19833D01*
X4300Y-19856D01*
X4470Y-19833D01*
X4628Y-19768D01*
X4650Y-19751D01*
X4672Y-19768D01*
X4830Y-19833D01*
X5000Y-19856D01*
X5170Y-19833D01*
X5328Y-19768D01*
X5464Y-19664D01*
X5568Y-19528D01*
X5633Y-19370D01*
X5656Y-19200D01*
X5633Y-19030D01*
X5568Y-18872D01*
X5464Y-18736D01*
X5458Y-18652D01*
X7248Y-16862D01*
X7358Y-16876D01*
X7556Y-16978D01*
X7564Y-17044D01*
X7620Y-17177D01*
X7708Y-17292D01*
X7823Y-17380D01*
X7956Y-17436D01*
X8100Y-17455D01*
X8244Y-17436D01*
X8377Y-17380D01*
X8492Y-17292D01*
X8580Y-17177D01*
X8636Y-17044D01*
X8655Y-16900D01*
X8636Y-16756D01*
X8580Y-16623D01*
X8492Y-16508D01*
X8377Y-16420D01*
X8244Y-16364D01*
X8178Y-16356D01*
X8076Y-16158D01*
X8062Y-16048D01*
X8990Y-15119D01*
X13941D01*
Y-15540D01*
D02*
G37*
G36*
X2251Y-18144D02*
X2266Y-18156D01*
X2281Y-18167D01*
X2296Y-18176D01*
X2312Y-18183D01*
X2329Y-18189D01*
X2345Y-18194D01*
X2362Y-18198D01*
X2380Y-18199D01*
X2398Y-18200D01*
X2200Y-18398D01*
X2199Y-18380D01*
X2198Y-18362D01*
X2194Y-18345D01*
X2189Y-18329D01*
X2183Y-18312D01*
X2176Y-18296D01*
X2167Y-18281D01*
X2156Y-18266D01*
X2144Y-18251D01*
X2131Y-18237D01*
X2237Y-18131D01*
X2251Y-18144D01*
D02*
G37*
G36*
X1557Y-18873D02*
X1571Y-18885D01*
X1586Y-18896D01*
X1602Y-18905D01*
X1618Y-18912D01*
X1635Y-18919D01*
X1652Y-18924D01*
X1670Y-18927D01*
X1688Y-18929D01*
X1707Y-18930D01*
X1707Y-19070D01*
X1688Y-19071D01*
X1670Y-19073D01*
X1652Y-19076D01*
X1635Y-19081D01*
X1618Y-19088D01*
X1602Y-19095D01*
X1586Y-19104D01*
X1571Y-19115D01*
X1557Y-19127D01*
X1543Y-19140D01*
X1543Y-18860D01*
X1557Y-18873D01*
D02*
G37*
G36*
X4841Y-18948D02*
X4856Y-18959D01*
X4871Y-18969D01*
X4886Y-18978D01*
X4903Y-18985D01*
X4920Y-18991D01*
X4938Y-18995D01*
X4956Y-18998D01*
X4975Y-19000D01*
X4995Y-19000D01*
X4800Y-19195D01*
X4800Y-19175D01*
X4798Y-19156D01*
X4795Y-19138D01*
X4791Y-19120D01*
X4785Y-19103D01*
X4778Y-19086D01*
X4769Y-19071D01*
X4760Y-19056D01*
X4748Y-19041D01*
X4735Y-19027D01*
X4827Y-18935D01*
X4841Y-18948D01*
D02*
G37*
G36*
X4565Y-19027D02*
X4552Y-19041D01*
X4541Y-19056D01*
X4531Y-19071D01*
X4522Y-19086D01*
X4515Y-19103D01*
X4509Y-19120D01*
X4505Y-19138D01*
X4502Y-19156D01*
X4500Y-19175D01*
X4500Y-19195D01*
X4305Y-19000D01*
X4325Y-19000D01*
X4344Y-18998D01*
X4362Y-18995D01*
X4380Y-18991D01*
X4397Y-18985D01*
X4414Y-18978D01*
X4429Y-18969D01*
X4444Y-18959D01*
X4459Y-18948D01*
X4473Y-18935D01*
X4565Y-19027D01*
D02*
G37*
G36*
X14406Y-19250D02*
X14404Y-19226D01*
X14396Y-19205D01*
X14384Y-19186D01*
X14366Y-19170D01*
X14343Y-19156D01*
X14315Y-19145D01*
X14282Y-19136D01*
X14244Y-19130D01*
X14201Y-19126D01*
X14153Y-19125D01*
Y-18875D01*
X14201Y-18874D01*
X14244Y-18870D01*
X14282Y-18864D01*
X14315Y-18855D01*
X14343Y-18844D01*
X14366Y-18830D01*
X14384Y-18814D01*
X14396Y-18795D01*
X14404Y-18774D01*
X14406Y-18750D01*
Y-19250D01*
D02*
G37*
G36*
Y-20450D02*
X14404Y-20426D01*
X14396Y-20405D01*
X14384Y-20386D01*
X14366Y-20370D01*
X14343Y-20356D01*
X14315Y-20345D01*
X14282Y-20336D01*
X14244Y-20330D01*
X14201Y-20326D01*
X14153Y-20325D01*
Y-20075D01*
X14201Y-20074D01*
X14244Y-20070D01*
X14282Y-20064D01*
X14315Y-20055D01*
X14343Y-20044D01*
X14366Y-20030D01*
X14384Y-20014D01*
X14396Y-19995D01*
X14404Y-19974D01*
X14406Y-19950D01*
Y-20450D01*
D02*
G37*
G36*
X-192Y-21069D02*
X-177Y-21080D01*
X-162Y-21089D01*
X-147Y-21096D01*
X-130Y-21102D01*
X-113Y-21106D01*
X-96Y-21108D01*
X-78Y-21108D01*
X-59Y-21107D01*
X-40Y-21104D01*
X-197Y-21336D01*
X-201Y-21315D01*
X-212Y-21276D01*
X-219Y-21258D01*
X-227Y-21240D01*
X-236Y-21224D01*
X-245Y-21208D01*
X-256Y-21193D01*
X-267Y-21180D01*
X-279Y-21167D01*
X-206Y-21056D01*
X-192Y-21069D01*
D02*
G37*
G36*
X566Y-21219D02*
X567Y-21238D01*
X570Y-21255D01*
X573Y-21270D01*
X578Y-21285D01*
X584Y-21298D01*
X590Y-21310D01*
X598Y-21320D01*
X607Y-21330D01*
X617Y-21338D01*
X383D01*
X393Y-21330D01*
X402Y-21320D01*
X410Y-21310D01*
X416Y-21298D01*
X422Y-21285D01*
X427Y-21270D01*
X430Y-21255D01*
X433Y-21238D01*
X434Y-21219D01*
X435Y-21200D01*
X565D01*
X566Y-21219D01*
D02*
G37*
G36*
X3151Y-22844D02*
X3166Y-22856D01*
X3181Y-22867D01*
X3196Y-22876D01*
X3212Y-22883D01*
X3229Y-22889D01*
X3245Y-22894D01*
X3262Y-22898D01*
X3280Y-22899D01*
X3298Y-22900D01*
X3100Y-23098D01*
X3099Y-23080D01*
X3098Y-23062D01*
X3094Y-23045D01*
X3089Y-23029D01*
X3083Y-23012D01*
X3076Y-22996D01*
X3067Y-22981D01*
X3056Y-22966D01*
X3044Y-22951D01*
X3031Y-22937D01*
X3137Y-22831D01*
X3151Y-22844D01*
D02*
G37*
G36*
X11425Y-23247D02*
X11430Y-23329D01*
X11432Y-23339D01*
X11435Y-23347D01*
X11437Y-23353D01*
X11440Y-23357D01*
X11160D01*
X11163Y-23353D01*
X11165Y-23347D01*
X11168Y-23339D01*
X11170Y-23329D01*
X11171Y-23316D01*
X11174Y-23286D01*
X11175Y-23224D01*
X11425D01*
X11425Y-23247D01*
D02*
G37*
G36*
X10525D02*
X10530Y-23329D01*
X10532Y-23339D01*
X10535Y-23347D01*
X10537Y-23353D01*
X10540Y-23357D01*
X10260D01*
X10263Y-23353D01*
X10265Y-23347D01*
X10268Y-23339D01*
X10270Y-23329D01*
X10271Y-23316D01*
X10274Y-23286D01*
X10275Y-23224D01*
X10525D01*
X10525Y-23247D01*
D02*
G37*
G36*
X-6544Y-24272D02*
X-6530Y-24283D01*
X-6516Y-24293D01*
X-6501Y-24302D01*
X-6485Y-24309D01*
X-6468Y-24315D01*
X-6451Y-24319D01*
X-6433Y-24322D01*
X-6414Y-24324D01*
X-6395Y-24325D01*
Y-24475D01*
X-6414Y-24476D01*
X-6433Y-24478D01*
X-6451Y-24481D01*
X-6468Y-24485D01*
X-6485Y-24491D01*
X-6501Y-24498D01*
X-6516Y-24507D01*
X-6530Y-24517D01*
X-6544Y-24528D01*
X-6557Y-24540D01*
Y-24260D01*
X-6544Y-24272D01*
D02*
G37*
G36*
X-7199Y-24420D02*
X-7198Y-24438D01*
X-7194Y-24455D01*
X-7189Y-24471D01*
X-7183Y-24488D01*
X-7176Y-24504D01*
X-7167Y-24519D01*
X-7156Y-24534D01*
X-7144Y-24549D01*
X-7131Y-24563D01*
X-7237Y-24669D01*
X-7251Y-24656D01*
X-7266Y-24644D01*
X-7281Y-24633D01*
X-7296Y-24624D01*
X-7312Y-24617D01*
X-7329Y-24611D01*
X-7345Y-24606D01*
X-7362Y-24602D01*
X-7380Y-24601D01*
X-7398Y-24600D01*
X-7200Y-24402D01*
X-7199Y-24420D01*
D02*
G37*
G36*
X326Y-26414D02*
X328Y-26433D01*
X331Y-26451D01*
X335Y-26468D01*
X341Y-26485D01*
X348Y-26501D01*
X357Y-26516D01*
X367Y-26530D01*
X378Y-26544D01*
X390Y-26557D01*
X110D01*
X122Y-26544D01*
X133Y-26530D01*
X143Y-26516D01*
X152Y-26501D01*
X159Y-26485D01*
X165Y-26468D01*
X169Y-26451D01*
X172Y-26433D01*
X174Y-26414D01*
X175Y-26395D01*
X325D01*
X326Y-26414D01*
D02*
G37*
G36*
X-174Y-26714D02*
X-172Y-26733D01*
X-169Y-26751D01*
X-165Y-26768D01*
X-159Y-26785D01*
X-152Y-26801D01*
X-143Y-26816D01*
X-133Y-26830D01*
X-122Y-26844D01*
X-110Y-26857D01*
X-390D01*
X-378Y-26844D01*
X-367Y-26830D01*
X-357Y-26816D01*
X-348Y-26801D01*
X-341Y-26785D01*
X-335Y-26768D01*
X-331Y-26751D01*
X-328Y-26733D01*
X-326Y-26714D01*
X-325Y-26695D01*
X-175D01*
X-174Y-26714D01*
D02*
G37*
%LPC*%
G36*
X13600Y-500D02*
X-13600D01*
X-13647Y-502D01*
X-13685Y-510D01*
X-2963D01*
X-2862Y-930D01*
X-2681Y-1366D01*
X-2435Y-1769D01*
X-2258Y-1975D01*
X-2059Y-1776D01*
X-1776Y-2059D01*
X-1975Y-2258D01*
X-1769Y-2435D01*
X-1366Y-2681D01*
X-930Y-2862D01*
X-471Y-2972D01*
X0Y-3009D01*
X471Y-2972D01*
X930Y-2862D01*
X1366Y-2681D01*
X1769Y-2435D01*
X1975Y-2258D01*
X1776Y-2059D01*
X2059Y-1776D01*
X2258Y-1975D01*
X2435Y-1769D01*
X2681Y-1366D01*
X2862Y-930D01*
X2963Y-510D01*
X4496D01*
X4629Y-810D01*
X4620Y-823D01*
X4564Y-956D01*
X4545Y-1100D01*
X4564Y-1244D01*
X4620Y-1377D01*
X4708Y-1492D01*
X4823Y-1580D01*
X4956Y-1636D01*
X5100Y-1655D01*
X5500D01*
X5644Y-1636D01*
X5777Y-1580D01*
X5892Y-1492D01*
X5980Y-1377D01*
X6036Y-1244D01*
X6055Y-1100D01*
X6036Y-956D01*
X5980Y-823D01*
X5971Y-810D01*
X6104Y-510D01*
X13685D01*
X13647Y-502D01*
X13600Y-500D01*
D02*
G37*
G36*
X14145Y-845D02*
Y-967D01*
X14267D01*
X14145Y-845D01*
D02*
G37*
G36*
X-14145Y-845D02*
X-14270Y-970D01*
X-14145D01*
Y-845D01*
D02*
G37*
G36*
X-9852Y-1000D02*
X-10148D01*
X-10438Y-1058D01*
X-10711Y-1171D01*
X-10956Y-1335D01*
X-11165Y-1544D01*
X-11329Y-1789D01*
X-11442Y-2062D01*
X-11500Y-2352D01*
Y-2648D01*
X-11442Y-2937D01*
X-11329Y-3210D01*
X-11165Y-3456D01*
X-10956Y-3665D01*
X-10711Y-3829D01*
X-10438Y-3942D01*
X-10148Y-4000D01*
X-10123D01*
X-9855Y-4200D01*
X-9836Y-4344D01*
X-9780Y-4477D01*
X-9692Y-4592D01*
X-9577Y-4680D01*
X-9444Y-4736D01*
X-9300Y-4755D01*
X-9156Y-4736D01*
X-9023Y-4680D01*
X-8908Y-4592D01*
X-8820Y-4477D01*
X-8764Y-4344D01*
X-8745Y-4200D01*
X-8764Y-4056D01*
X-8820Y-3923D01*
X-8908Y-3808D01*
X-8856Y-3477D01*
X-8835Y-3456D01*
X-8671Y-3210D01*
X-8558Y-2937D01*
X-8541Y-2856D01*
X-8432Y-2783D01*
X-8206Y-2710D01*
X-8144Y-2736D01*
X-8000Y-2755D01*
X-7600D01*
X-7456Y-2736D01*
X-7323Y-2680D01*
X-7208Y-2592D01*
X-7120Y-2477D01*
X-7064Y-2344D01*
X-7045Y-2200D01*
X-7064Y-2056D01*
X-7120Y-1923D01*
X-7208Y-1808D01*
X-7323Y-1720D01*
X-7456Y-1664D01*
X-7600Y-1645D01*
X-8000D01*
X-8144Y-1664D01*
X-8277Y-1720D01*
X-8351Y-1776D01*
X-8496Y-1782D01*
X-8711Y-1730D01*
X-8835Y-1544D01*
X-9044Y-1335D01*
X-9289Y-1171D01*
X-9562Y-1058D01*
X-9852Y-1000D01*
D02*
G37*
G36*
X8800Y-1945D02*
X8656Y-1964D01*
X8523Y-2020D01*
X8408Y-2108D01*
X8320Y-2223D01*
X8264Y-2356D01*
X8245Y-2500D01*
X8264Y-2644D01*
X8320Y-2777D01*
X8408Y-2892D01*
X8523Y-2980D01*
X8656Y-3036D01*
X8800Y-3055D01*
X8944Y-3036D01*
X9077Y-2980D01*
X9192Y-2892D01*
X9280Y-2777D01*
X9336Y-2644D01*
X9355Y-2500D01*
X9336Y-2356D01*
X9280Y-2223D01*
X9192Y-2108D01*
X9077Y-2020D01*
X8944Y-1964D01*
X8800Y-1945D01*
D02*
G37*
G36*
X10200Y-2245D02*
X10056Y-2264D01*
X9923Y-2320D01*
X9808Y-2408D01*
X9720Y-2523D01*
X9664Y-2656D01*
X9645Y-2800D01*
X9664Y-2944D01*
X9720Y-3077D01*
X9808Y-3192D01*
X9923Y-3280D01*
X10056Y-3336D01*
X10200Y-3355D01*
X10344Y-3336D01*
X10477Y-3280D01*
X10592Y-3192D01*
X10680Y-3077D01*
X10736Y-2944D01*
X10755Y-2800D01*
X10736Y-2656D01*
X10680Y-2523D01*
X10592Y-2408D01*
X10477Y-2320D01*
X10344Y-2264D01*
X10200Y-2245D01*
D02*
G37*
G36*
X12100Y-2745D02*
X11956Y-2764D01*
X11823Y-2820D01*
X11708Y-2908D01*
X11620Y-3023D01*
X11564Y-3156D01*
X11545Y-3300D01*
X11564Y-3444D01*
X11620Y-3577D01*
X11708Y-3692D01*
X11823Y-3780D01*
X11956Y-3836D01*
X12100Y-3855D01*
X12244Y-3836D01*
X12377Y-3780D01*
X12492Y-3692D01*
X12580Y-3577D01*
X12636Y-3444D01*
X12655Y-3300D01*
X12636Y-3156D01*
X12580Y-3023D01*
X12492Y-2908D01*
X12377Y-2820D01*
X12244Y-2764D01*
X12100Y-2745D01*
D02*
G37*
G36*
X-7000Y-3295D02*
X-7144Y-3314D01*
X-7277Y-3370D01*
X-7392Y-3458D01*
X-7480Y-3573D01*
X-7536Y-3706D01*
X-7555Y-3850D01*
X-7536Y-3994D01*
X-7480Y-4127D01*
X-7392Y-4242D01*
X-7277Y-4330D01*
X-7144Y-4386D01*
X-7000Y-4405D01*
X-6856Y-4386D01*
X-6723Y-4330D01*
X-6608Y-4242D01*
X-6520Y-4127D01*
X-6464Y-3994D01*
X-6445Y-3850D01*
X-6464Y-3706D01*
X-6520Y-3573D01*
X-6608Y-3458D01*
X-6723Y-3370D01*
X-6856Y-3314D01*
X-7000Y-3295D01*
D02*
G37*
G36*
X12400Y-4145D02*
X12256Y-4164D01*
X12123Y-4220D01*
X12008Y-4308D01*
X11920Y-4423D01*
X11864Y-4556D01*
X11845Y-4700D01*
X11864Y-4844D01*
X11919Y-4975D01*
X11864Y-5106D01*
X11845Y-5250D01*
X11848Y-5270D01*
X11806Y-5329D01*
X11601Y-5367D01*
X11425Y-5349D01*
X11363Y-5302D01*
X11229Y-5246D01*
X11085Y-5227D01*
X10942Y-5246D01*
X10808Y-5302D01*
X10693Y-5390D01*
X10605Y-5505D01*
X10550Y-5638D01*
X10531Y-5782D01*
X10550Y-5926D01*
X10605Y-6059D01*
X10693Y-6174D01*
X10808Y-6262D01*
X10942Y-6318D01*
X11085Y-6337D01*
X11229Y-6318D01*
X11363Y-6262D01*
X11432Y-6210D01*
X11609Y-6203D01*
X11801Y-6246D01*
X11849Y-6324D01*
X11845Y-6350D01*
X11864Y-6494D01*
X11920Y-6627D01*
X12008Y-6742D01*
X12123Y-6830D01*
X12256Y-6886D01*
X12400Y-6905D01*
X12544Y-6886D01*
X12677Y-6830D01*
X12792Y-6742D01*
X12880Y-6627D01*
X12936Y-6494D01*
X12955Y-6350D01*
X12936Y-6206D01*
X12881Y-6075D01*
X12936Y-5944D01*
X12955Y-5800D01*
X12936Y-5656D01*
X12881Y-5525D01*
X12936Y-5394D01*
X12955Y-5250D01*
X12936Y-5106D01*
X12881Y-4975D01*
X12936Y-4844D01*
X12955Y-4700D01*
X12936Y-4556D01*
X12880Y-4423D01*
X12792Y-4308D01*
X12677Y-4220D01*
X12544Y-4164D01*
X12400Y-4145D01*
D02*
G37*
G36*
X-10450Y-5345D02*
X-10594Y-5364D01*
X-10727Y-5420D01*
X-10842Y-5508D01*
X-10930Y-5623D01*
X-10986Y-5756D01*
X-11005Y-5900D01*
X-10986Y-6044D01*
X-10930Y-6177D01*
X-10842Y-6292D01*
X-10727Y-6380D01*
X-10594Y-6436D01*
X-10450Y-6455D01*
X-10306Y-6436D01*
X-10173Y-6380D01*
X-10058Y-6292D01*
X-9970Y-6177D01*
X-9914Y-6044D01*
X-9895Y-5900D01*
X-9914Y-5756D01*
X-9970Y-5623D01*
X-10058Y-5508D01*
X-10173Y-5420D01*
X-10306Y-5364D01*
X-10450Y-5345D01*
D02*
G37*
G36*
X-7700Y-5845D02*
X-7844Y-5864D01*
X-7977Y-5920D01*
X-8092Y-6008D01*
X-8180Y-6123D01*
X-8236Y-6256D01*
X-8255Y-6400D01*
X-8236Y-6544D01*
X-8180Y-6677D01*
X-8092Y-6792D01*
X-7977Y-6880D01*
X-7844Y-6936D01*
X-7700Y-6955D01*
X-7556Y-6936D01*
X-7423Y-6880D01*
X-7308Y-6792D01*
X-7220Y-6677D01*
X-7164Y-6544D01*
X-7145Y-6400D01*
X-7164Y-6256D01*
X-7220Y-6123D01*
X-7308Y-6008D01*
X-7423Y-5920D01*
X-7556Y-5864D01*
X-7700Y-5845D01*
D02*
G37*
G36*
X-800Y-6844D02*
X-970Y-6867D01*
X-1128Y-6932D01*
X-1264Y-7036D01*
X-1368Y-7172D01*
X-1433Y-7330D01*
X-1456Y-7500D01*
X-1433Y-7670D01*
X-1368Y-7828D01*
X-1264Y-7964D01*
X-1128Y-8068D01*
X-970Y-8133D01*
X-800Y-8156D01*
X-630Y-8133D01*
X-472Y-8068D01*
X-336Y-7964D01*
X-232Y-7828D01*
X-167Y-7670D01*
X-144Y-7500D01*
X-167Y-7330D01*
X-232Y-7172D01*
X-336Y-7036D01*
X-472Y-6932D01*
X-630Y-6867D01*
X-800Y-6844D01*
D02*
G37*
G36*
X900Y-7145D02*
X756Y-7164D01*
X623Y-7220D01*
X508Y-7308D01*
X420Y-7423D01*
X364Y-7556D01*
X345Y-7700D01*
X364Y-7844D01*
X420Y-7977D01*
X508Y-8092D01*
X623Y-8180D01*
X756Y-8236D01*
X900Y-8255D01*
X1044Y-8236D01*
X1177Y-8180D01*
X1292Y-8092D01*
X1380Y-7977D01*
X1436Y-7844D01*
X1455Y-7700D01*
X1436Y-7556D01*
X1380Y-7423D01*
X1292Y-7308D01*
X1177Y-7220D01*
X1044Y-7164D01*
X900Y-7145D01*
D02*
G37*
G36*
X12000Y-7845D02*
X11856Y-7864D01*
X11723Y-7920D01*
X11608Y-8008D01*
X11520Y-8123D01*
X11464Y-8256D01*
X11445Y-8400D01*
X11464Y-8544D01*
X11520Y-8677D01*
X11608Y-8792D01*
X11723Y-8880D01*
X11856Y-8936D01*
X12000Y-8955D01*
X12144Y-8936D01*
X12277Y-8880D01*
X12392Y-8792D01*
X12480Y-8677D01*
X12536Y-8544D01*
X12555Y-8400D01*
X12536Y-8256D01*
X12480Y-8123D01*
X12392Y-8008D01*
X12277Y-7920D01*
X12144Y-7864D01*
X12000Y-7845D01*
D02*
G37*
G36*
X-500Y-8444D02*
X-670Y-8467D01*
X-828Y-8532D01*
X-964Y-8636D01*
X-1068Y-8772D01*
X-1133Y-8930D01*
X-1156Y-9100D01*
X-1133Y-9270D01*
X-1068Y-9428D01*
X-964Y-9564D01*
X-828Y-9668D01*
X-670Y-9733D01*
X-500Y-9756D01*
X-330Y-9733D01*
X-172Y-9668D01*
X-36Y-9564D01*
X68Y-9428D01*
X133Y-9270D01*
X156Y-9100D01*
X133Y-8930D01*
X68Y-8772D01*
X-36Y-8636D01*
X-172Y-8532D01*
X-330Y-8467D01*
X-500Y-8444D01*
D02*
G37*
G36*
X-1300Y-9845D02*
X-1444Y-9864D01*
X-1550Y-9908D01*
X-1656Y-9864D01*
X-1800Y-9845D01*
X-1944Y-9864D01*
X-2077Y-9920D01*
X-2192Y-10008D01*
X-2280Y-10123D01*
X-2336Y-10256D01*
X-2355Y-10400D01*
X-2336Y-10544D01*
X-2280Y-10677D01*
X-2192Y-10792D01*
X-2077Y-10880D01*
X-1944Y-10936D01*
X-1800Y-10955D01*
X-1656Y-10936D01*
X-1550Y-10892D01*
X-1444Y-10936D01*
X-1300Y-10955D01*
X-1156Y-10936D01*
X-1023Y-10880D01*
X-908Y-10792D01*
X-820Y-10677D01*
X-764Y-10544D01*
X-745Y-10400D01*
X-764Y-10256D01*
X-820Y-10123D01*
X-908Y-10008D01*
X-1023Y-9920D01*
X-1156Y-9864D01*
X-1300Y-9845D01*
D02*
G37*
G36*
X-3100Y-8945D02*
X-3244Y-8964D01*
X-3377Y-9020D01*
X-3492Y-9108D01*
X-3580Y-9223D01*
X-3636Y-9356D01*
X-3655Y-9500D01*
X-3636Y-9644D01*
X-3580Y-9777D01*
X-3492Y-9892D01*
X-3377Y-9980D01*
X-3244Y-10036D01*
X-3100Y-10055D01*
X-2956Y-10036D01*
X-2823Y-9980D01*
X-2708Y-9892D01*
X-2620Y-9777D01*
X-2564Y-9644D01*
X-2545Y-9500D01*
X-2564Y-9356D01*
X-2620Y-9223D01*
X-2708Y-9108D01*
X-2823Y-9020D01*
X-2956Y-8964D01*
X-3100Y-8945D01*
D02*
G37*
G36*
X900Y-10145D02*
X756Y-10164D01*
X623Y-10220D01*
X508Y-10308D01*
X420Y-10423D01*
X364Y-10556D01*
X345Y-10700D01*
X364Y-10844D01*
X420Y-10977D01*
X508Y-11092D01*
X623Y-11180D01*
X756Y-11236D01*
X900Y-11255D01*
X1044Y-11236D01*
X1177Y-11180D01*
X1292Y-11092D01*
X1380Y-10977D01*
X1436Y-10844D01*
X1455Y-10700D01*
X1436Y-10556D01*
X1380Y-10423D01*
X1292Y-10308D01*
X1177Y-10220D01*
X1044Y-10164D01*
X900Y-10145D01*
D02*
G37*
G36*
X-3500Y-10645D02*
X-3644Y-10664D01*
X-3777Y-10720D01*
X-3892Y-10808D01*
X-3980Y-10923D01*
X-4036Y-11056D01*
X-4055Y-11200D01*
X-4036Y-11344D01*
X-3980Y-11477D01*
X-3892Y-11592D01*
X-3777Y-11680D01*
X-3644Y-11736D01*
X-3500Y-11755D01*
X-3356Y-11736D01*
X-3223Y-11680D01*
X-3108Y-11592D01*
X-3020Y-11477D01*
X-2964Y-11344D01*
X-2945Y-11200D01*
X-2964Y-11056D01*
X-3020Y-10923D01*
X-3108Y-10808D01*
X-3223Y-10720D01*
X-3356Y-10664D01*
X-3500Y-10645D01*
D02*
G37*
G36*
X-1700Y-13045D02*
X-1844Y-13064D01*
X-1977Y-13120D01*
X-2092Y-13208D01*
X-2180Y-13323D01*
X-2236Y-13456D01*
X-2255Y-13600D01*
X-2236Y-13744D01*
X-2180Y-13877D01*
X-2092Y-13992D01*
X-1977Y-14080D01*
X-1844Y-14136D01*
X-1795Y-14142D01*
X-1780Y-14177D01*
X-1692Y-14292D01*
X-1577Y-14380D01*
X-1444Y-14436D01*
X-1300Y-14455D01*
X-1156Y-14436D01*
X-1023Y-14380D01*
X-908Y-14292D01*
X-820Y-14177D01*
X-764Y-14044D01*
X-745Y-13900D01*
X-764Y-13756D01*
X-820Y-13623D01*
X-908Y-13508D01*
X-1023Y-13420D01*
X-1156Y-13364D01*
X-1205Y-13358D01*
X-1220Y-13323D01*
X-1308Y-13208D01*
X-1423Y-13120D01*
X-1556Y-13064D01*
X-1700Y-13045D01*
D02*
G37*
G36*
X-3750Y-20145D02*
X-3894Y-20164D01*
X-4027Y-20220D01*
X-4142Y-20308D01*
X-4230Y-20423D01*
X-4286Y-20556D01*
X-4305Y-20700D01*
X-4286Y-20844D01*
X-4230Y-20977D01*
X-4142Y-21092D01*
X-4027Y-21180D01*
X-3894Y-21236D01*
X-3750Y-21255D01*
X-3606Y-21236D01*
X-3473Y-21180D01*
X-3358Y-21092D01*
X-3270Y-20977D01*
X-3214Y-20844D01*
X-3195Y-20700D01*
X-3214Y-20556D01*
X-3270Y-20423D01*
X-3358Y-20308D01*
X-3473Y-20220D01*
X-3606Y-20164D01*
X-3750Y-20145D01*
D02*
G37*
G36*
X-13600Y-19945D02*
X-13744Y-19964D01*
X-13877Y-20020D01*
X-13992Y-20108D01*
X-14080Y-20223D01*
X-14136Y-20356D01*
X-14155Y-20500D01*
Y-21300D01*
X-14136Y-21444D01*
X-14080Y-21577D01*
X-13992Y-21692D01*
X-13877Y-21780D01*
X-13744Y-21836D01*
X-13600Y-21855D01*
X-13456Y-21836D01*
X-13323Y-21780D01*
X-13208Y-21692D01*
X-13120Y-21577D01*
X-13064Y-21444D01*
X-13045Y-21300D01*
Y-20500D01*
X-13064Y-20356D01*
X-13120Y-20223D01*
X-13208Y-20108D01*
X-13323Y-20020D01*
X-13456Y-19964D01*
X-13600Y-19945D01*
D02*
G37*
G36*
X-2000Y-21145D02*
X-2144Y-21164D01*
X-2277Y-21220D01*
X-2392Y-21308D01*
X-2480Y-21423D01*
X-2536Y-21556D01*
X-2555Y-21700D01*
X-2536Y-21844D01*
X-2480Y-21977D01*
X-2392Y-22092D01*
X-2277Y-22180D01*
X-2144Y-22236D01*
X-2000Y-22255D01*
X-1856Y-22236D01*
X-1723Y-22180D01*
X-1608Y-22092D01*
X-1520Y-21977D01*
X-1464Y-21844D01*
X-1445Y-21700D01*
X-1464Y-21556D01*
X-1520Y-21423D01*
X-1608Y-21308D01*
X-1723Y-21220D01*
X-1856Y-21164D01*
X-2000Y-21145D01*
D02*
G37*
G36*
X-6000D02*
X-6144Y-21164D01*
X-6277Y-21220D01*
X-6392Y-21308D01*
X-6480Y-21423D01*
X-6536Y-21556D01*
X-6555Y-21700D01*
X-6536Y-21844D01*
X-6480Y-21977D01*
X-6392Y-22092D01*
X-6277Y-22180D01*
X-6144Y-22236D01*
X-6000Y-22255D01*
X-5856Y-22236D01*
X-5723Y-22180D01*
X-5608Y-22092D01*
X-5520Y-21977D01*
X-5464Y-21844D01*
X-5445Y-21700D01*
X-5464Y-21556D01*
X-5520Y-21423D01*
X-5608Y-21308D01*
X-5723Y-21220D01*
X-5856Y-21164D01*
X-6000Y-21145D01*
D02*
G37*
G36*
X1000Y-22545D02*
X856Y-22564D01*
X723Y-22620D01*
X608Y-22708D01*
X520Y-22823D01*
X464Y-22956D01*
X445Y-23100D01*
X464Y-23244D01*
X520Y-23377D01*
X608Y-23492D01*
X723Y-23580D01*
X856Y-23636D01*
X1000Y-23655D01*
X1144Y-23636D01*
X1277Y-23580D01*
X1392Y-23492D01*
X1480Y-23377D01*
X1536Y-23244D01*
X1555Y-23100D01*
X1536Y-22956D01*
X1480Y-22823D01*
X1392Y-22708D01*
X1277Y-22620D01*
X1144Y-22564D01*
X1000Y-22545D01*
D02*
G37*
G36*
X8000Y-23345D02*
X7856Y-23364D01*
X7723Y-23420D01*
X7608Y-23508D01*
X7520Y-23623D01*
X7464Y-23756D01*
X7445Y-23900D01*
X7464Y-24044D01*
X7520Y-24177D01*
X7608Y-24292D01*
X7723Y-24380D01*
X7856Y-24436D01*
X8000Y-24455D01*
X8144Y-24436D01*
X8277Y-24380D01*
X8392Y-24292D01*
X8480Y-24177D01*
X8536Y-24044D01*
X8555Y-23900D01*
X8536Y-23756D01*
X8480Y-23623D01*
X8392Y-23508D01*
X8277Y-23420D01*
X8144Y-23364D01*
X8000Y-23345D01*
D02*
G37*
G36*
X-10300Y-22945D02*
X-10444Y-22964D01*
X-10577Y-23020D01*
X-10692Y-23108D01*
X-10780Y-23223D01*
X-10836Y-23356D01*
X-10855Y-23500D01*
Y-24300D01*
X-10836Y-24444D01*
X-10780Y-24577D01*
X-10692Y-24692D01*
X-10577Y-24780D01*
X-10444Y-24836D01*
X-10300Y-24855D01*
X-10156Y-24836D01*
X-10023Y-24780D01*
X-9908Y-24692D01*
X-9820Y-24577D01*
X-9764Y-24444D01*
X-9745Y-24300D01*
Y-23500D01*
X-9764Y-23356D01*
X-9820Y-23223D01*
X-9908Y-23108D01*
X-10023Y-23020D01*
X-10156Y-22964D01*
X-10300Y-22945D01*
D02*
G37*
G36*
X8250Y-25745D02*
X7750D01*
X7606Y-25764D01*
X7473Y-25820D01*
X7358Y-25908D01*
X7270Y-26023D01*
X7214Y-26156D01*
X7195Y-26300D01*
Y-26700D01*
X7214Y-26844D01*
X7270Y-26977D01*
X7358Y-27092D01*
X7473Y-27180D01*
X7606Y-27236D01*
X7750Y-27255D01*
X8250D01*
X8394Y-27236D01*
X8527Y-27180D01*
X8642Y-27092D01*
X8730Y-26977D01*
X8786Y-26844D01*
X8805Y-26700D01*
Y-26300D01*
X8786Y-26156D01*
X8730Y-26023D01*
X8642Y-25908D01*
X8527Y-25820D01*
X8394Y-25764D01*
X8250Y-25745D01*
D02*
G37*
%LPD*%
D12*
X11300Y-23500D02*
Y-21600D01*
X12700Y-20200D01*
X15000D01*
X10400Y-23500D02*
Y-21600D01*
X13000Y-19000D01*
X15000D01*
D14*
X-6900Y-24900D02*
X-1000D01*
X-250Y-25650D01*
X-7400Y-24400D02*
X-6900Y-24900D01*
X250Y-26700D02*
Y-25550D01*
X-250Y-27000D02*
Y-25650D01*
X-6700Y-24400D02*
X-900D01*
X250Y-25550D01*
X1400Y-19800D02*
X2800D01*
X200Y-18600D02*
Y-17900D01*
Y-18600D02*
X1400Y-19800D01*
X-1500Y-16200D02*
X200Y-17900D01*
X-3900Y-16200D02*
X-1500D01*
X-2600Y-5600D02*
X-1200D01*
X-550Y-4950D01*
X-2900Y-5300D02*
X-2600Y-5600D01*
X-8900Y-11100D02*
X-6400Y-13600D01*
Y-13800D02*
Y-13600D01*
Y-13800D02*
X-5600Y-14600D01*
X5000Y-16900D02*
Y-16100D01*
X3600Y-18300D02*
X5000Y-16900D01*
Y-16100D02*
X8900Y-12200D01*
X-11700Y-8800D02*
X-9400D01*
X-15000Y-11300D02*
X-14200D01*
X-11700Y-8800D01*
X3600Y-19000D02*
Y-18300D01*
X-13200Y-15500D02*
X-6500D01*
X-5500Y-16500D01*
X-14100Y-16400D02*
X-13200Y-15500D01*
X2800Y-19800D02*
X3600Y-19000D01*
X-5000Y-17300D02*
X-3900Y-16200D01*
X-7200Y-17300D02*
X-5000D01*
X8900Y-12200D02*
X10200D01*
X11000Y-11400D01*
X11400D01*
X-3000Y-15500D02*
X-500D01*
X2400Y-18400D01*
X-15000Y-16400D02*
X-14100D01*
X-15000Y-13900D02*
X-13400D01*
X-550Y-4950D02*
X7850D01*
X9800Y-8000D02*
Y-7800D01*
X8100Y-6100D02*
X9800Y-7800D01*
X7600Y-6100D02*
X8100D01*
X-5600Y-14600D02*
X-3500D01*
X7850Y-4950D02*
X10500Y-7600D01*
X-15000Y-12600D02*
X-13500D01*
X-10700Y-12900D02*
X-8900Y-11100D01*
X-13500Y-15100D02*
X-12800Y-14400D01*
X-8200Y-10800D02*
X-6000Y-13000D01*
X-3500D01*
X-13500Y-12600D02*
X-10900Y-10000D01*
X-9000D02*
X-8200Y-10800D01*
X-10900Y-10000D02*
X-9000D01*
X-12800Y-14400D02*
X-10500D01*
X-8500Y-12400D01*
X-12400Y-12900D02*
X-10700D01*
X-13400Y-13900D02*
X-12400Y-12900D01*
X-15000Y-15100D02*
X-13500D01*
X10500Y-8000D02*
Y-7600D01*
X-3100Y-16800D02*
X-3000D01*
X3300Y-23100D01*
X6800Y-6200D02*
X7500Y-5500D01*
D79*
X-13500Y-24400D02*
Y-24000D01*
X-13100Y-25800D02*
Y-25400D01*
X7750Y-26300D02*
X8250D01*
X1600Y-25100D02*
X2000D01*
X7750Y-26700D02*
X8250D01*
X2000Y-25300D02*
Y-25100D01*
Y-25500D02*
Y-25300D01*
X1600Y-25500D02*
X2000D01*
X-9550Y-26300D02*
X-9050D01*
X-9550Y-26700D02*
X-9050D01*
X13100Y-18300D02*
Y-17100D01*
X-10300Y-23900D02*
Y-23500D01*
Y-24300D02*
Y-23900D01*
X-2600Y-12400D02*
Y-12000D01*
X7300Y-14400D02*
X7700D01*
X8500Y-1600D02*
X8800Y-1900D01*
X11200Y-12000D02*
X12000D01*
X-13600Y-21300D02*
Y-20500D01*
X12600Y-15700D02*
X13400D01*
X12200D02*
X12600D01*
X1600Y-25300D02*
Y-25100D01*
Y-25500D02*
Y-25300D01*
X-9050Y-26700D02*
Y-26300D01*
X-9550Y-26700D02*
Y-26300D01*
X9050Y-26700D02*
X9550D01*
X8250D02*
Y-26300D01*
X7750Y-26700D02*
Y-26300D01*
X9550Y-26700D02*
Y-26300D01*
X9050D02*
X9550D01*
X9050Y-26700D02*
Y-26300D01*
X5100Y-1100D02*
X5500D01*
X-10800Y-21400D02*
Y-20600D01*
X-8000Y-2200D02*
X-7600D01*
X5750Y-14100D02*
X6150D01*
X9800Y-11500D02*
Y-11400D01*
Y-11100D01*
X9350Y-5600D02*
X9800D01*
X10150D01*
D80*
X-2250Y-27450D02*
Y-27000D01*
X750Y-27350D02*
Y-27000D01*
D81*
X6143Y-14066D02*
X6153Y-14057D01*
D82*
X1393Y-19000D02*
X2600D01*
X3000Y-18600D01*
Y-12600D02*
X6200Y-9400D01*
X3000Y-18600D02*
Y-12600D01*
X6200Y-6800D02*
X6800Y-6200D01*
X6200Y-9400D02*
Y-6800D01*
D83*
X-15000Y-18950D02*
X-14350D01*
X-14200Y-18800D01*
Y-18000D01*
X-13550Y-17350D01*
X-12000D01*
X-14300Y-17680D02*
X-13720Y-17100D01*
X-13400D01*
X-11896D01*
X-10546Y-18450D02*
X-2550D01*
X-11896Y-17100D02*
X-10546Y-18450D01*
X-10650Y-18700D02*
X-2654D01*
X-12000Y-17350D02*
X-10650Y-18700D01*
X-15000Y-17680D02*
X-14300D01*
X-2654Y-18700D02*
X-54Y-21300D01*
X0D01*
X-2550Y-18450D02*
X-100Y-20900D01*
X500Y-21500D02*
Y-21200D01*
X-100Y-20900D02*
X200D01*
X500Y-21200D01*
X4300Y-19200D02*
X4525Y-18975D01*
X4775D02*
X5000Y-19200D01*
X4775Y-18975D02*
Y-18600D01*
X8775Y-14600D01*
X4525Y-18975D02*
Y-18496D01*
X8671Y-14350D01*
X14350D01*
X8775Y-14600D02*
X14300D01*
X14800Y-15100D01*
X14350Y-14350D02*
X14800Y-13900D01*
D86*
X-2873Y-396D02*
G03*
X2873Y-396I2873J396D01*
G01*
D87*
X15000Y-4980D02*
D03*
Y-6250D02*
D03*
Y-20220D02*
D03*
Y-18950D02*
D03*
Y-17680D02*
D03*
Y-16410D02*
D03*
Y-2440D02*
D03*
Y-3710D02*
D03*
Y-15140D02*
D03*
Y-13870D02*
D03*
Y-21490D02*
D03*
Y-22760D02*
D03*
Y-24030D02*
D03*
Y-25300D02*
D03*
X15000Y-1167D02*
D03*
D88*
X-10000Y-2500D02*
D03*
D89*
X0Y0D02*
D03*
D90*
X-15000Y-17680D02*
D03*
Y-18950D02*
D03*
Y-15140D02*
D03*
Y-16410D02*
D03*
Y-11330D02*
D03*
Y-13870D02*
D03*
Y-12600D02*
D03*
Y-1170D02*
D03*
Y-2440D02*
D03*
Y-3710D02*
D03*
Y-4980D02*
D03*
Y-6250D02*
D03*
Y-7520D02*
D03*
Y-8790D02*
D03*
Y-10060D02*
D03*
D91*
X-6700Y-24400D02*
D03*
X-7400D02*
D03*
X-13100Y-25800D02*
D03*
Y-25400D02*
D03*
X1250Y-26700D02*
D03*
X2750Y-27000D02*
D03*
X2250Y-26700D02*
D03*
X1750Y-27000D02*
D03*
X-9300Y-4200D02*
D03*
X-7000Y-3850D02*
D03*
X-250Y-27000D02*
D03*
X250Y-26700D02*
D03*
X750Y-27000D02*
D03*
X-6850Y-8400D02*
D03*
X-7700Y-6400D02*
D03*
X-9350Y-20500D02*
D03*
X-7200Y-17300D02*
D03*
X11400Y-11400D02*
D03*
X-2600Y-12400D02*
D03*
X4000Y-22000D02*
D03*
X8100Y-16900D02*
D03*
X13900Y-19600D02*
D03*
X13100Y-21600D02*
D03*
X7700Y-14400D02*
D03*
X7300D02*
D03*
X-13500Y-24000D02*
D03*
Y-24400D02*
D03*
X8500Y-1600D02*
D03*
X5500Y-1100D02*
D03*
X5100D02*
D03*
X5800Y-10500D02*
D03*
X5100Y-9700D02*
D03*
X-10300Y-23900D02*
D03*
Y-24300D02*
D03*
Y-23500D02*
D03*
X-7200Y-18000D02*
D03*
X5300Y-3700D02*
D03*
X-1300Y-4600D02*
D03*
X4300Y-16700D02*
D03*
X3400D02*
D03*
X-1700Y-13600D02*
D03*
X1300Y-16500D02*
D03*
X3000Y-8200D02*
D03*
X1500Y-10800D02*
D03*
X3300Y-11400D02*
D03*
X-2900Y-5300D02*
D03*
X3300Y-2300D02*
D03*
X8800Y-1900D02*
D03*
X4300Y-19200D02*
D03*
X5000D02*
D03*
X2300Y-8400D02*
D03*
X900Y-7700D02*
D03*
X2735Y-7034D02*
D03*
X2700Y-5900D02*
D03*
X7100Y-8600D02*
D03*
X-3100Y-9500D02*
D03*
X-2200Y-5000D02*
D03*
X8800Y-2500D02*
D03*
X3300Y-20600D02*
D03*
X2000Y-17000D02*
D03*
X-1750Y-6200D02*
D03*
X-500Y-9100D02*
D03*
X-800Y-7500D02*
D03*
X3300Y-23100D02*
D03*
X2400Y-18400D02*
D03*
X-3100Y-16800D02*
D03*
X-3000Y-15500D02*
D03*
X1000Y-23100D02*
D03*
X11300Y-23500D02*
D03*
X10400D02*
D03*
X7300Y-23900D02*
D03*
X2000Y-25100D02*
D03*
Y-25500D02*
D03*
X1600D02*
D03*
Y-25100D02*
D03*
X-750Y-26700D02*
D03*
X-1250Y-27000D02*
D03*
X-1750Y-26700D02*
D03*
X-2250Y-27000D02*
D03*
X-2750Y-26700D02*
D03*
X-3250Y-27000D02*
D03*
X-3750Y-26700D02*
D03*
X-4250Y-27000D02*
D03*
X-4750Y-26700D02*
D03*
X-9050Y-26700D02*
D03*
X-9550D02*
D03*
X-9050Y-26300D02*
D03*
X-9550D02*
D03*
X7750Y-26700D02*
D03*
X8250D02*
D03*
X7750Y-26300D02*
D03*
X8250D02*
D03*
X9550D02*
D03*
X9050D02*
D03*
X9550Y-26700D02*
D03*
X9050D02*
D03*
X8000Y-23900D02*
D03*
X13400Y-22950D02*
D03*
X-8000Y-2200D02*
D03*
X900Y-10700D02*
D03*
X-1300Y-13900D02*
D03*
X13400Y-15700D02*
D03*
X12200D02*
D03*
X12600D02*
D03*
X13000D02*
D03*
X13100Y-18300D02*
D03*
Y-17500D02*
D03*
Y-17900D02*
D03*
Y-17100D02*
D03*
X-6400Y-20000D02*
D03*
X-7550Y-20450D02*
D03*
X-10500Y-20000D02*
D03*
X-10800Y-21400D02*
D03*
Y-21000D02*
D03*
Y-20600D02*
D03*
X-13600Y-21300D02*
D03*
Y-20900D02*
D03*
Y-20500D02*
D03*
X500Y-21500D02*
D03*
X0Y-21300D02*
D03*
X-8150Y-20300D02*
D03*
X-8850Y-20200D02*
D03*
X-600Y-6200D02*
D03*
X-3300Y-8700D02*
D03*
X-5500Y-16500D02*
D03*
X1400Y-19000D02*
D03*
X-2600Y-12000D02*
D03*
X-5700Y-13700D02*
D03*
X-5200Y-15700D02*
D03*
X-3500Y-11200D02*
D03*
Y-13000D02*
D03*
Y-14600D02*
D03*
X-3100Y-14100D02*
D03*
X-1900Y-17000D02*
D03*
X-1400Y-17200D02*
D03*
X-1800Y-10400D02*
D03*
X-1300Y-10400D02*
D03*
X-9400Y-8800D02*
D03*
X-8900Y-11100D02*
D03*
X-8200Y-10800D02*
D03*
X-12800Y-10700D02*
D03*
X-3500Y-4100D02*
D03*
X-7600Y-2200D02*
D03*
X-9700Y-5900D02*
D03*
X-10900Y-14950D02*
D03*
Y-13800D02*
D03*
X-7850Y-8600D02*
D03*
X-11000Y-11050D02*
D03*
X-8350Y-8400D02*
D03*
X-10800Y-11550D02*
D03*
X-10600Y-10450D02*
D03*
X-11000Y-12050D02*
D03*
X-8500Y-12400D02*
D03*
X-3750Y-20700D02*
D03*
X-4850Y-20700D02*
D03*
X-2000Y-21700D02*
D03*
X-6000D02*
D03*
X-7099Y-15953D02*
D03*
X-6500Y-9500D02*
D03*
X-6600Y-11600D02*
D03*
X-12600Y-17850D02*
D03*
X-8399Y-17301D02*
D03*
X-13000Y-16300D02*
D03*
X-12850Y-18700D02*
D03*
X-10450Y-5900D02*
D03*
X5750Y-14100D02*
D03*
X9800Y-11500D02*
D03*
X6150Y-14100D02*
D03*
X7400Y-12400D02*
D03*
X8700Y-11800D02*
D03*
X7300Y-9200D02*
D03*
X10150Y-5600D02*
D03*
X9800Y-8000D02*
D03*
X7500Y-7900D02*
D03*
X7600Y-7300D02*
D03*
Y-6100D02*
D03*
X9350Y-5600D02*
D03*
X9750D02*
D03*
X7500Y-5500D02*
D03*
X9800Y-11100D02*
D03*
X9864Y-12723D02*
D03*
X11200Y-12000D02*
D03*
X11600D02*
D03*
X12000D02*
D03*
X11400Y-10850D02*
D03*
X12000Y-8400D02*
D03*
X10200Y-2800D02*
D03*
X10500Y-8000D02*
D03*
X12400Y-6350D02*
D03*
Y-5800D02*
D03*
X11085Y-5782D02*
D03*
X12400Y-5250D02*
D03*
Y-4700D02*
D03*
X11600Y-3600D02*
D03*
X12100Y-3300D02*
D03*
X11100Y-7800D02*
D03*
X5300Y-7800D02*
D03*
Y-7200D02*
D03*
Y-6600D02*
D03*
X5600Y-6000D02*
D03*
X6500Y-4450D02*
D03*
X8000Y-8100D02*
D03*
X9200D02*
D03*
X5300Y-8400D02*
D03*
X8600Y-8100D02*
D03*
M02*
