G04*
G04 #@! TF.GenerationSoftware,Altium Limited,Altium Designer,24.9.1 (31)*
G04*
G04 Layer_Color=65535*
%FSLAX43Y43*%
%MOMM*%
G71*
G04*
G04 #@! TF.SameCoordinates,EB6F8884-3A13-42B7-98C6-1BA732C3788B*
G04*
G04*
G04 #@! TF.FilePolarity,Positive*
G04*
G01*
G75*
%ADD10C,0.100*%
%ADD11C,0.120*%
%ADD12C,0.250*%
%ADD13C,0.200*%
%ADD14C,0.150*%
G36*
X6132Y-1176D02*
X6148Y-1181D01*
X6205Y-1195D01*
X6260Y-1217D01*
X6304Y-1244D01*
X6312Y-1252D01*
X6323Y-1257D01*
X6353Y-1287D01*
X6358Y-1298D01*
X6380Y-1331D01*
X6402Y-1386D01*
X6407Y-1424D01*
X6413Y-1446D01*
X6407Y-1571D01*
X6402Y-1587D01*
X6388Y-1623D01*
X6377Y-1650D01*
X6355Y-1683D01*
X6347Y-1691D01*
X6344Y-1699D01*
X6342Y-1702D01*
X6306Y-1737D01*
X6295Y-1743D01*
X6284Y-1753D01*
X6203Y-1792D01*
X6165Y-1802D01*
X6121Y-1813D01*
X6066Y-1819D01*
X5963Y-1824D01*
X5900Y-1827D01*
X5898Y-2119D01*
X5699Y-2116D01*
X5701Y-1170D01*
X6132Y-1176D01*
D02*
G37*
G36*
X4043Y-1408D02*
X4131Y-1413D01*
X4147Y-1419D01*
X4210Y-1427D01*
X4237Y-1432D01*
X4269Y-1438D01*
X4291Y-1443D01*
X4319Y-1449D01*
X4406Y-1471D01*
X4436Y-1479D01*
X4569Y-1525D01*
X4613Y-1541D01*
X4659Y-1560D01*
X4752Y-1604D01*
X4763Y-1610D01*
X4844Y-1653D01*
X4888Y-1680D01*
X4899Y-1686D01*
X4932Y-1708D01*
X4943Y-1713D01*
X4981Y-1740D01*
X4992Y-1746D01*
X5002Y-1757D01*
X5013Y-1762D01*
X5081Y-1814D01*
X5090Y-1822D01*
X5101Y-1828D01*
X5117Y-1844D01*
X5128Y-1849D01*
X5155Y-1877D01*
X5166Y-1882D01*
X5220Y-1937D01*
X5231Y-1942D01*
X5278Y-1988D01*
X5283Y-1999D01*
X5338Y-2054D01*
X5343Y-2065D01*
X5370Y-2092D01*
X5365Y-2108D01*
X5291Y-2182D01*
X5280Y-2187D01*
X5253Y-2214D01*
X5242Y-2220D01*
X5226Y-2236D01*
X5215Y-2242D01*
X5204Y-2253D01*
X5193Y-2258D01*
X5155Y-2285D01*
X5144Y-2291D01*
X5106Y-2318D01*
X4970Y-2383D01*
X4915Y-2405D01*
X4861Y-2422D01*
X4823Y-2432D01*
X4779Y-2443D01*
X4714Y-2454D01*
X4692Y-2460D01*
X4605Y-2465D01*
X4408Y-2460D01*
X4392Y-2454D01*
X4329Y-2446D01*
X4313Y-2441D01*
X4297Y-2402D01*
X4226Y-2266D01*
X4152Y-2154D01*
X4139Y-2135D01*
X4114Y-2105D01*
X4054Y-2029D01*
X4030Y-2005D01*
X4024Y-1994D01*
X3983Y-1953D01*
X3962Y-1958D01*
X3858Y-2013D01*
X3825Y-2035D01*
X3814Y-2040D01*
X3746Y-2092D01*
X3727Y-2105D01*
X3711Y-2122D01*
X3700Y-2127D01*
X3583Y-2244D01*
X3577Y-2255D01*
X3550Y-2283D01*
X3545Y-2293D01*
X3534Y-2304D01*
X3528Y-2315D01*
X3517Y-2326D01*
X3512Y-2337D01*
X3501Y-2348D01*
X3496Y-2359D01*
X3457Y-2413D01*
X3452Y-2424D01*
X3425Y-2468D01*
X3327Y-2669D01*
X3305Y-2724D01*
X3291Y-2759D01*
X3256Y-2871D01*
X3237Y-2923D01*
X3220Y-2966D01*
X3199Y-3021D01*
X3125Y-3160D01*
X3103Y-3193D01*
X3098Y-3204D01*
X3087Y-3214D01*
X3081Y-3225D01*
X3071Y-3236D01*
X3065Y-3247D01*
X3049Y-3263D01*
X3043Y-3274D01*
X2981Y-3337D01*
X2970Y-3343D01*
X2953Y-3359D01*
X2932Y-3370D01*
X2910Y-3310D01*
X2888Y-3255D01*
X2861Y-3195D01*
X2836Y-3154D01*
X2809Y-3105D01*
X2782Y-3067D01*
X2776Y-3056D01*
X2738Y-3007D01*
X2714Y-2977D01*
X2700Y-2958D01*
X2667Y-2926D01*
X2662Y-2915D01*
X2637Y-2890D01*
X2626Y-2885D01*
X2577Y-2836D01*
X2566Y-2830D01*
X2545Y-2808D01*
X2534Y-2803D01*
X2523Y-2792D01*
X2512Y-2787D01*
X2441Y-2738D01*
X2430Y-2732D01*
X2387Y-2705D01*
X2283Y-2656D01*
X2229Y-2634D01*
X2141Y-2607D01*
X2076Y-2590D01*
X2068Y-2588D01*
X2073Y-2566D01*
X2171Y-2375D01*
X2199Y-2332D01*
X2204Y-2321D01*
X2231Y-2283D01*
X2237Y-2272D01*
X2264Y-2234D01*
X2269Y-2223D01*
X2280Y-2212D01*
X2286Y-2201D01*
X2297Y-2190D01*
X2302Y-2179D01*
X2319Y-2163D01*
X2324Y-2152D01*
X2335Y-2141D01*
X2340Y-2130D01*
X2368Y-2103D01*
X2373Y-2092D01*
X2406Y-2059D01*
X2411Y-2048D01*
X2517Y-1942D01*
X2528Y-1937D01*
X2561Y-1904D01*
X2572Y-1898D01*
X2605Y-1866D01*
X2616Y-1860D01*
X2626Y-1849D01*
X2637Y-1844D01*
X2648Y-1833D01*
X2659Y-1828D01*
X2670Y-1817D01*
X2681Y-1811D01*
X2692Y-1800D01*
X2703Y-1795D01*
X2741Y-1768D01*
X2752Y-1762D01*
X2763Y-1751D01*
X2774Y-1746D01*
X2812Y-1719D01*
X2823Y-1713D01*
X2855Y-1691D01*
X2866Y-1686D01*
X2910Y-1659D01*
X2921Y-1653D01*
X3002Y-1610D01*
X3106Y-1560D01*
X3133Y-1550D01*
X3171Y-1533D01*
X3207Y-1520D01*
X3335Y-1479D01*
X3373Y-1468D01*
X3438Y-1452D01*
X3444D01*
X3460Y-1446D01*
X3496Y-1438D01*
X3528Y-1432D01*
X3556Y-1427D01*
X3588Y-1422D01*
X3675Y-1411D01*
X3735Y-1405D01*
X4027Y-1402D01*
X4043Y-1408D01*
D02*
G37*
G36*
X5430Y-2168D02*
X5436Y-2179D01*
X5512Y-2288D01*
X5517Y-2299D01*
X5539Y-2337D01*
X5566Y-2381D01*
X5648Y-2550D01*
X5659Y-2577D01*
X5675Y-2615D01*
X5689Y-2650D01*
X5719Y-2746D01*
X5741Y-2822D01*
X5757Y-2887D01*
X5774Y-2980D01*
X5779Y-3002D01*
X5787Y-3065D01*
X5793Y-3141D01*
X5798Y-3201D01*
X5801Y-3487D01*
X5795Y-3503D01*
X5790Y-3596D01*
X5784Y-3612D01*
X5776Y-3669D01*
X5771Y-3702D01*
X5760Y-3757D01*
X5749Y-3800D01*
X5744Y-3828D01*
X5735Y-3857D01*
X5725Y-3896D01*
X5673Y-4045D01*
X5651Y-4100D01*
X5624Y-4160D01*
X5613Y-4187D01*
X5542Y-4318D01*
X5509Y-4372D01*
X5471Y-4432D01*
X5449Y-4465D01*
X5441Y-4473D01*
X5436Y-4484D01*
X5384Y-4552D01*
X5376Y-4560D01*
X5370Y-4571D01*
X5354Y-4588D01*
X5348Y-4599D01*
X5321Y-4626D01*
X5316Y-4637D01*
X5261Y-4691D01*
X5256Y-4702D01*
X5193Y-4765D01*
X5182Y-4770D01*
X5139Y-4814D01*
X5128Y-4819D01*
X5101Y-4847D01*
X5090Y-4852D01*
X5068Y-4874D01*
X5057Y-4879D01*
X5046Y-4890D01*
X5035Y-4896D01*
X5024Y-4907D01*
X5013Y-4912D01*
X5002Y-4923D01*
X4992Y-4928D01*
X4981Y-4939D01*
X4970Y-4945D01*
X4932Y-4972D01*
X4921Y-4977D01*
X4888Y-4999D01*
X4877Y-5005D01*
X4844Y-5026D01*
X4784Y-5059D01*
X4616Y-5141D01*
X4534Y-5174D01*
X4498Y-5187D01*
X4381Y-5223D01*
X4343Y-5234D01*
X4299Y-5244D01*
X4264Y-5253D01*
X4231Y-5258D01*
X4190Y-5266D01*
X4177Y-5220D01*
X4166Y-5176D01*
X4158Y-5141D01*
X4152Y-5108D01*
X4144Y-5035D01*
X4139Y-4996D01*
X4144Y-4778D01*
X4150Y-4762D01*
X4158Y-4710D01*
X4160Y-4708D01*
X4166Y-4664D01*
X4171Y-4648D01*
X4177Y-4626D01*
X4218Y-4509D01*
X4229Y-4481D01*
X4256Y-4422D01*
X4264Y-4413D01*
X4297Y-4353D01*
X4324Y-4315D01*
X4340Y-4288D01*
X4392Y-4220D01*
X4419Y-4182D01*
X4474Y-4187D01*
X4561Y-4193D01*
X4768Y-4187D01*
X4784Y-4182D01*
X4847Y-4174D01*
X4913Y-4163D01*
X4940Y-4157D01*
X5005Y-4141D01*
X5016Y-4114D01*
X5011Y-3928D01*
X5005Y-3912D01*
X4997Y-3866D01*
X4975Y-3778D01*
X4943Y-3686D01*
X4926Y-3642D01*
X4913Y-3612D01*
X4814Y-3422D01*
X4793Y-3389D01*
X4787Y-3378D01*
X4722Y-3280D01*
X4656Y-3193D01*
X4618Y-3144D01*
X4607Y-3133D01*
X4602Y-3122D01*
X4580Y-3100D01*
X4575Y-3089D01*
X4542Y-3056D01*
X4537Y-3046D01*
X4498Y-3007D01*
X4493Y-2996D01*
X4460Y-2964D01*
X4455Y-2953D01*
X4433Y-2931D01*
X4428Y-2920D01*
X4373Y-2844D01*
X4319Y-2729D01*
X4308Y-2691D01*
X4297Y-2648D01*
X4291Y-2577D01*
X4297Y-2539D01*
X4302Y-2528D01*
X4305Y-2525D01*
X4321Y-2531D01*
X4414Y-2541D01*
X4436Y-2547D01*
X4556Y-2552D01*
X4692Y-2547D01*
X4708Y-2541D01*
X4765Y-2533D01*
X4820Y-2522D01*
X4863Y-2511D01*
X4910Y-2498D01*
X4945Y-2484D01*
X4989Y-2468D01*
X5016Y-2457D01*
X5076Y-2430D01*
X5180Y-2370D01*
X5212Y-2348D01*
X5231Y-2334D01*
X5299Y-2283D01*
X5319Y-2263D01*
X5329Y-2258D01*
X5422Y-2165D01*
X5430Y-2168D01*
D02*
G37*
G36*
X3956Y-2945D02*
X3972Y-2950D01*
X4011Y-2961D01*
X4013Y-2964D01*
X4041Y-2975D01*
X4087Y-2999D01*
X4155Y-3051D01*
X4188Y-3084D01*
X4193Y-3095D01*
X4210Y-3111D01*
X4215Y-3122D01*
X4237Y-3154D01*
X4253Y-3193D01*
X4264Y-3220D01*
X4280Y-3285D01*
X4286Y-3372D01*
X4280Y-3411D01*
X4267Y-3468D01*
X4250Y-3511D01*
X4210Y-3585D01*
X4185Y-3615D01*
X4125Y-3675D01*
X4114Y-3680D01*
X4076Y-3708D01*
X4038Y-3724D01*
X4011Y-3735D01*
X3972Y-3746D01*
X3907Y-3757D01*
X3793Y-3751D01*
X3776Y-3746D01*
X3754Y-3740D01*
X3727Y-3729D01*
X3645Y-3686D01*
X3596Y-3648D01*
X3561Y-3612D01*
X3556Y-3601D01*
X3539Y-3585D01*
X3534Y-3574D01*
X3512Y-3536D01*
X3490Y-3487D01*
X3479Y-3449D01*
X3474Y-3427D01*
X3468Y-3389D01*
X3474Y-3258D01*
X3479Y-3242D01*
X3498Y-3190D01*
X3507Y-3171D01*
X3528Y-3133D01*
X3580Y-3065D01*
X3607Y-3037D01*
X3618Y-3032D01*
X3635Y-3016D01*
X3645Y-3010D01*
X3678Y-2988D01*
X3727Y-2966D01*
X3782Y-2950D01*
X3804Y-2945D01*
X3858Y-2939D01*
X3956Y-2945D01*
D02*
G37*
G36*
X2076Y-2661D02*
X2092Y-2667D01*
X2131Y-2678D01*
X2182Y-2697D01*
X2264Y-2729D01*
X2392Y-2798D01*
X2460Y-2844D01*
X2463Y-2847D01*
X2468D01*
X2485Y-2863D01*
X2496Y-2868D01*
X2507Y-2879D01*
X2517Y-2885D01*
X2556Y-2923D01*
X2566Y-2928D01*
X2629Y-2991D01*
X2635Y-3002D01*
X2667Y-3035D01*
X2673Y-3046D01*
X2689Y-3062D01*
X2695Y-3073D01*
X2705Y-3084D01*
X2711Y-3095D01*
X2722Y-3105D01*
X2744Y-3144D01*
X2771Y-3187D01*
X2836Y-3323D01*
X2858Y-3378D01*
X2863Y-3400D01*
X2847Y-3416D01*
X2842Y-3427D01*
X2814Y-3465D01*
X2809Y-3476D01*
X2787Y-3509D01*
X2782Y-3520D01*
X2754Y-3563D01*
X2678Y-3721D01*
X2645Y-3803D01*
X2618Y-3890D01*
X2607Y-3928D01*
X2610Y-3937D01*
X2621Y-3942D01*
X2659Y-3969D01*
X2670Y-3975D01*
X2806Y-4040D01*
X2893Y-4067D01*
X2932Y-4078D01*
X2967Y-4086D01*
X2994Y-4092D01*
X3027Y-4097D01*
X3101Y-4105D01*
X3122Y-4111D01*
X3242Y-4116D01*
X3498Y-4111D01*
X3515Y-4105D01*
X3591Y-4100D01*
X3607Y-4095D01*
X3670Y-4086D01*
X3697Y-4081D01*
X3730Y-4075D01*
X3757Y-4070D01*
X3779Y-4065D01*
X3834Y-4054D01*
X3855Y-4048D01*
X3921Y-4037D01*
X3964Y-4032D01*
X4147Y-4029D01*
X4163Y-4035D01*
X4210Y-4043D01*
X4269Y-4065D01*
X4297Y-4075D01*
X4305Y-4084D01*
X4332Y-4100D01*
X4357Y-4119D01*
X4351Y-4135D01*
X4335Y-4152D01*
X4329Y-4163D01*
X4308Y-4184D01*
X4302Y-4195D01*
X4286Y-4212D01*
X4280Y-4223D01*
X4226Y-4299D01*
X4182Y-4381D01*
X4144Y-4462D01*
X4122Y-4517D01*
X4095Y-4604D01*
X4079Y-4669D01*
X4068Y-4735D01*
X4062Y-4757D01*
X4057Y-4828D01*
X4051Y-4866D01*
X4057Y-5045D01*
X4062Y-5062D01*
X4071Y-5125D01*
X4081Y-5179D01*
X4092Y-5223D01*
X4101Y-5253D01*
X4106Y-5269D01*
X4098Y-5277D01*
X3981Y-5285D01*
X3765Y-5288D01*
X3749Y-5283D01*
X3643Y-5274D01*
X3572Y-5263D01*
X3539Y-5258D01*
X3485Y-5247D01*
X3376Y-5220D01*
X3346Y-5212D01*
X3245Y-5176D01*
X3201Y-5160D01*
X3147Y-5138D01*
X3117Y-5125D01*
X2893Y-5010D01*
X2855Y-4988D01*
X2817Y-4961D01*
X2779Y-4939D01*
X2673Y-4860D01*
X2654Y-4847D01*
X2643Y-4836D01*
X2632Y-4830D01*
X2610Y-4808D01*
X2599Y-4803D01*
X2566Y-4770D01*
X2556Y-4765D01*
X2422Y-4631D01*
X2417Y-4620D01*
X2384Y-4588D01*
X2378Y-4577D01*
X2357Y-4555D01*
X2351Y-4544D01*
X2335Y-4528D01*
X2329Y-4517D01*
X2319Y-4506D01*
X2313Y-4495D01*
X2297Y-4479D01*
X2291Y-4468D01*
X2237Y-4392D01*
X2231Y-4381D01*
X2193Y-4321D01*
X2188Y-4310D01*
X2166Y-4272D01*
X2068Y-4070D01*
X2046Y-4016D01*
X2032Y-3980D01*
X2002Y-3885D01*
X1981Y-3808D01*
X1964Y-3743D01*
X1948Y-3650D01*
X1943Y-3629D01*
X1937Y-3590D01*
X1932Y-3536D01*
X1926Y-3514D01*
X1921Y-3362D01*
X1926Y-3122D01*
X1932Y-3105D01*
X1940Y-3032D01*
X1945Y-2999D01*
X1951Y-2972D01*
X1956Y-2939D01*
X1962Y-2912D01*
X1989Y-2803D01*
X2008Y-2740D01*
X2019Y-2713D01*
X2038Y-2656D01*
X2076Y-2661D01*
D02*
G37*
G36*
X7080Y-1159D02*
X7135Y-1165D01*
X7151Y-1170D01*
X7181Y-1178D01*
X7225Y-1195D01*
X7271Y-1219D01*
X7323Y-1255D01*
X7372Y-1304D01*
X7377Y-1315D01*
X7388Y-1326D01*
X7393Y-1337D01*
X7415Y-1369D01*
X7432Y-1407D01*
X7443Y-1435D01*
X7453Y-1473D01*
X7464Y-1516D01*
X7470Y-1554D01*
X7475Y-1609D01*
X7470Y-1762D01*
X7464Y-1778D01*
X7451Y-1835D01*
X7429Y-1895D01*
X7393Y-1958D01*
X7355Y-2007D01*
X7320Y-2042D01*
X7309Y-2048D01*
X7298Y-2059D01*
X7287Y-2064D01*
X7195Y-2108D01*
X7156Y-2119D01*
X7135Y-2124D01*
X7058Y-2135D01*
X6917Y-2129D01*
X6900Y-2124D01*
X6865Y-2116D01*
X6821Y-2099D01*
X6794Y-2089D01*
X6740Y-2056D01*
X6731Y-2048D01*
X6720Y-2042D01*
X6699Y-2020D01*
X6688Y-2015D01*
X6674Y-2001D01*
X6669Y-1990D01*
X6652Y-1974D01*
X6647Y-1963D01*
X6636Y-1952D01*
X6592Y-1860D01*
X6576Y-1805D01*
X6571Y-1783D01*
Y-1778D01*
Y-1772D01*
X6565Y-1756D01*
X6560Y-1685D01*
X6565Y-1527D01*
X6571Y-1511D01*
X6579Y-1475D01*
X6601Y-1416D01*
X6611Y-1388D01*
X6650Y-1328D01*
X6663Y-1309D01*
X6674Y-1298D01*
X6680Y-1287D01*
X6704Y-1263D01*
X6715Y-1257D01*
X6731Y-1241D01*
X6742Y-1236D01*
X6753Y-1225D01*
X6846Y-1181D01*
X6884Y-1170D01*
X6919Y-1162D01*
X6963Y-1157D01*
X7064Y-1154D01*
X7080Y-1159D01*
D02*
G37*
G36*
X7769Y-2012D02*
X7731Y-1974D01*
X7726Y-1963D01*
X7715Y-1952D01*
X7666Y-1849D01*
X7655Y-1811D01*
X7644Y-1767D01*
X7639Y-1696D01*
X7636Y-1644D01*
X7641Y-1568D01*
X7652Y-1503D01*
X7658Y-1481D01*
X7666Y-1451D01*
X7677Y-1424D01*
X7720Y-1342D01*
X7731Y-1331D01*
X7737Y-1320D01*
X7753Y-1304D01*
X7759Y-1293D01*
X7778Y-1274D01*
X7789Y-1268D01*
X7810Y-1247D01*
X7821Y-1241D01*
X7854Y-1219D01*
X7914Y-1192D01*
X7985Y-1170D01*
X8023Y-1165D01*
X8045Y-1159D01*
X8132Y-1154D01*
X8241Y-1159D01*
X8257Y-1165D01*
X8298Y-1173D01*
X8320Y-1178D01*
X8374Y-1200D01*
X8366Y-1241D01*
X8361Y-1263D01*
X8353Y-1293D01*
X8336Y-1358D01*
X8331Y-1369D01*
X8328Y-1372D01*
X8301Y-1361D01*
X8235Y-1350D01*
X8197Y-1345D01*
X8066Y-1350D01*
X8039Y-1361D01*
X8004Y-1375D01*
X7949Y-1407D01*
X7906Y-1451D01*
X7900Y-1462D01*
X7873Y-1522D01*
X7862Y-1565D01*
X7857Y-1604D01*
X7862Y-1729D01*
X7868Y-1745D01*
X7881Y-1781D01*
X7892Y-1808D01*
X7900Y-1816D01*
X7906Y-1827D01*
X7930Y-1857D01*
X7952Y-1879D01*
X7963Y-1884D01*
X7974Y-1895D01*
X8023Y-1917D01*
X8061Y-1928D01*
X8083Y-1933D01*
X8137Y-1939D01*
X8246Y-1933D01*
X8263Y-1928D01*
X8284Y-1922D01*
X8320Y-1909D01*
X8334Y-1906D01*
X8342Y-1936D01*
X8358Y-2001D01*
X8366Y-2037D01*
X8372Y-2059D01*
X8374Y-2078D01*
X8366Y-2086D01*
X8312Y-2108D01*
X8274Y-2119D01*
X8230Y-2129D01*
X8175Y-2135D01*
X8012Y-2129D01*
X7996Y-2124D01*
X7960Y-2116D01*
X7938Y-2110D01*
X7884Y-2089D01*
X7810Y-2048D01*
X7799Y-2037D01*
X7789Y-2031D01*
X7772Y-2015D01*
X7769Y-2012D01*
D02*
G37*
G36*
X8987Y-1176D02*
X9007Y-1222D01*
X9020Y-1257D01*
X9184Y-1693D01*
X9186Y-1696D01*
Y-1702D01*
X9200Y-1737D01*
X9331Y-2086D01*
X9339Y-2116D01*
X9216Y-2119D01*
X9208Y-2110D01*
X9189Y-2059D01*
X9173Y-2015D01*
X9151Y-1955D01*
X9118Y-1868D01*
X8718Y-1871D01*
X8707Y-1898D01*
X8688Y-1950D01*
X8660Y-2026D01*
X8639Y-2086D01*
X8628Y-2119D01*
X8505Y-2116D01*
X8527Y-2061D01*
X8541Y-2026D01*
X8552Y-1999D01*
X8584Y-1911D01*
X8595Y-1884D01*
X8628Y-1797D01*
X8639Y-1770D01*
X8671Y-1683D01*
X8682Y-1655D01*
X8715Y-1568D01*
X8726Y-1541D01*
X8759Y-1454D01*
X8769Y-1426D01*
X8802Y-1339D01*
X8813Y-1312D01*
X8846Y-1225D01*
X8868Y-1170D01*
X8987Y-1176D01*
D02*
G37*
G36*
X9639Y-1740D02*
X9636Y-1285D01*
X9361Y-1282D01*
X9363Y-1170D01*
X10042Y-1173D01*
X10039Y-1285D01*
X9761Y-1290D01*
X9756Y-2119D01*
X9639Y-2116D01*
X9639Y-1745D01*
X9639Y-1740D01*
D02*
G37*
G36*
X10677Y-1165D02*
X10693Y-1170D01*
X10737Y-1181D01*
X10764Y-1192D01*
X10835Y-1230D01*
X10884Y-1268D01*
X10914Y-1298D01*
X10919Y-1309D01*
X10930Y-1320D01*
X10936Y-1331D01*
X10958Y-1364D01*
X10979Y-1413D01*
X10993Y-1448D01*
X11004Y-1492D01*
X11009Y-1519D01*
X11015Y-1552D01*
X11020Y-1623D01*
X11023Y-1663D01*
X11017Y-1680D01*
X11012Y-1778D01*
X11007Y-1794D01*
X10998Y-1824D01*
X10993Y-1846D01*
X10971Y-1901D01*
X10947Y-1947D01*
X10895Y-2015D01*
X10862Y-2048D01*
X10851Y-2053D01*
X10840Y-2064D01*
X10748Y-2108D01*
X10710Y-2119D01*
X10688Y-2124D01*
X10650Y-2129D01*
X10568Y-2135D01*
X10552Y-2129D01*
X10486Y-2124D01*
X10470Y-2119D01*
X10418Y-2099D01*
X10344Y-2059D01*
X10334Y-2048D01*
X10323Y-2042D01*
X10265Y-1985D01*
X10260Y-1974D01*
X10249Y-1963D01*
X10200Y-1860D01*
X10184Y-1805D01*
X10178Y-1783D01*
X10173Y-1745D01*
X10167Y-1691D01*
X10173Y-1527D01*
X10178Y-1511D01*
X10186Y-1475D01*
X10208Y-1416D01*
X10219Y-1388D01*
X10252Y-1334D01*
X10295Y-1279D01*
X10334Y-1241D01*
X10344Y-1236D01*
X10350Y-1230D01*
X10355D01*
X10366Y-1219D01*
X10377Y-1214D01*
X10448Y-1181D01*
X10513Y-1165D01*
X10584Y-1159D01*
X10677Y-1165D01*
D02*
G37*
G36*
X12099Y-1170D02*
X12118Y-1173D01*
X12126Y-1274D01*
X12137Y-1394D01*
X12143Y-1459D01*
X12154Y-1579D01*
X12159Y-1644D01*
X12170Y-1764D01*
X12175Y-1830D01*
X12186Y-1950D01*
X12192Y-2015D01*
X12197Y-2075D01*
X12200Y-2116D01*
X12083Y-2119D01*
X12075Y-2089D01*
X12066Y-1971D01*
X12061Y-1901D01*
X12050Y-1770D01*
X12045Y-1699D01*
X12028Y-1503D01*
X12023Y-1432D01*
X12017Y-1394D01*
X11813Y-2023D01*
X11780Y-2116D01*
X11652Y-2119D01*
X11639Y-2083D01*
X11617Y-2012D01*
X11418Y-1394D01*
X11413Y-1416D01*
X11402Y-1546D01*
X11396Y-1617D01*
X11380Y-1813D01*
X11374Y-1884D01*
X11358Y-2080D01*
X11353Y-2119D01*
X11230Y-2116D01*
X11235Y-2029D01*
X11241Y-2007D01*
X11249Y-1895D01*
X11255Y-1830D01*
X11260Y-1770D01*
X11271Y-1639D01*
X11276Y-1579D01*
X11287Y-1448D01*
X11293Y-1388D01*
X11298Y-1323D01*
X11304Y-1263D01*
X11309Y-1198D01*
X11314Y-1170D01*
X11464Y-1173D01*
X11472Y-1203D01*
X11486Y-1249D01*
X11519Y-1353D01*
X11546Y-1440D01*
X11579Y-1544D01*
X11606Y-1631D01*
X11639Y-1734D01*
X11693Y-1909D01*
X11718Y-1977D01*
X11780Y-1772D01*
X11955Y-1206D01*
X11968Y-1170D01*
X12094Y-1170D01*
X12099Y-1170D01*
D02*
G37*
G36*
X-1762Y-25500D02*
X-5200D01*
Y-24500D01*
X-1762D01*
Y-25500D01*
D02*
G37*
G36*
X-6200D02*
X-10800D01*
Y-24500D01*
X-6200D01*
Y-25500D01*
D02*
G37*
%LPC*%
G36*
X6001Y-1350D02*
X5898Y-1356D01*
X5895Y-1642D01*
X6023Y-1644D01*
X6039Y-1639D01*
X6094Y-1634D01*
X6154Y-1601D01*
X6178Y-1576D01*
X6184Y-1565D01*
X6195Y-1538D01*
X6200Y-1500D01*
X6195Y-1451D01*
X6167Y-1402D01*
X6154Y-1388D01*
X6105Y-1366D01*
X6083Y-1361D01*
X6007Y-1350D01*
X6001D01*
D02*
G37*
G36*
X6966Y-1339D02*
X6949Y-1345D01*
X6922Y-1356D01*
X6873Y-1383D01*
X6838Y-1418D01*
X6832Y-1429D01*
X6810Y-1462D01*
X6799Y-1489D01*
X6789Y-1527D01*
X6783Y-1549D01*
X6778Y-1587D01*
X6772Y-1669D01*
X6778Y-1685D01*
X6783Y-1756D01*
X6794Y-1783D01*
X6808Y-1819D01*
X6813Y-1830D01*
X6816Y-1832D01*
X6838Y-1871D01*
X6884Y-1917D01*
X6944Y-1944D01*
X6979Y-1952D01*
X7064Y-1955D01*
X7080Y-1950D01*
X7102Y-1944D01*
X7162Y-1911D01*
X7197Y-1876D01*
X7203Y-1865D01*
X7225Y-1832D01*
X7230Y-1811D01*
X7241Y-1783D01*
X7252Y-1718D01*
X7257Y-1663D01*
X7252Y-1554D01*
X7246Y-1538D01*
X7238Y-1503D01*
X7211Y-1443D01*
X7189Y-1410D01*
X7162Y-1383D01*
X7151Y-1377D01*
X7118Y-1356D01*
X7088Y-1347D01*
X7066Y-1342D01*
X6966Y-1339D01*
D02*
G37*
G36*
X8917Y-1312D02*
X8808Y-1612D01*
X8791Y-1655D01*
X8769Y-1715D01*
X8759Y-1753D01*
X9072Y-1751D01*
X9064Y-1721D01*
X9042Y-1661D01*
X8944Y-1383D01*
X8922Y-1317D01*
X8919Y-1315D01*
X8917Y-1312D01*
D02*
G37*
G36*
X10601Y-1274D02*
X10530Y-1279D01*
X10513Y-1285D01*
X10478Y-1298D01*
X10445Y-1315D01*
X10426Y-1328D01*
X10396Y-1353D01*
X10380Y-1369D01*
X10374Y-1380D01*
X10363Y-1391D01*
X10331Y-1462D01*
X10320Y-1489D01*
X10304Y-1582D01*
X10301Y-1655D01*
X10306Y-1732D01*
X10312Y-1764D01*
X10323Y-1808D01*
X10339Y-1852D01*
X10363Y-1898D01*
X10388Y-1928D01*
X10426Y-1966D01*
X10437Y-1971D01*
X10508Y-2004D01*
X10530Y-2010D01*
X10568Y-2015D01*
X10622Y-2020D01*
X10639Y-2015D01*
X10688Y-2010D01*
X10715Y-1999D01*
X10764Y-1971D01*
X10794Y-1947D01*
X10821Y-1920D01*
X10827Y-1909D01*
X10849Y-1876D01*
X10859Y-1849D01*
X10865Y-1838D01*
Y-1832D01*
X10876Y-1794D01*
X10881Y-1772D01*
X10892Y-1696D01*
X10887Y-1533D01*
X10881Y-1516D01*
X10873Y-1481D01*
X10857Y-1437D01*
X10832Y-1391D01*
X10808Y-1361D01*
X10799Y-1353D01*
X10794Y-1342D01*
X10775Y-1328D01*
X10742Y-1307D01*
X10715Y-1296D01*
X10677Y-1285D01*
X10655Y-1279D01*
X10601Y-1274D01*
D02*
G37*
G36*
X-4001Y-24700D02*
X-4301D01*
X-4304Y-24701D01*
X-4310Y-24704D01*
X-4313Y-24707D01*
X-4314Y-24707D01*
Y-24708D01*
X-4318Y-24715D01*
X-4320Y-24721D01*
Y-24724D01*
X-4321Y-24727D01*
Y-24700D01*
D01*
Y-25228D01*
D01*
Y-25203D01*
X-4320Y-25208D01*
X-4319Y-25212D01*
X-4316Y-25219D01*
X-4313Y-25223D01*
X-4312Y-25224D01*
X-4305Y-25226D01*
X-4299Y-25228D01*
X-4296Y-25228D01*
X-4296D01*
X-4288Y-25228D01*
X-4282Y-25226D01*
X-4279Y-25223D01*
X-4277Y-25223D01*
X-4274Y-25220D01*
X-4273Y-25217D01*
X-4270Y-25210D01*
X-4269Y-25206D01*
Y-25204D01*
Y-25203D01*
Y-24801D01*
X-4172Y-24979D01*
X-4169Y-24984D01*
X-4165Y-24988D01*
X-4161Y-24990D01*
X-4158Y-24992D01*
X-4155Y-24993D01*
X-4152Y-24993D01*
X-4150D01*
X-4145Y-24993D01*
X-4141Y-24991D01*
X-4134Y-24986D01*
X-4131Y-24984D01*
X-4129Y-24982D01*
X-4128Y-24980D01*
X-4127Y-24979D01*
X-4029Y-24801D01*
Y-25203D01*
X-4028Y-25208D01*
X-4027Y-25212D01*
X-4024Y-25219D01*
X-4022Y-25223D01*
X-4020Y-25224D01*
X-4013Y-25226D01*
X-4007Y-25228D01*
X-4004Y-25228D01*
X-4004D01*
X-3996Y-25228D01*
X-3990Y-25225D01*
X-3986Y-25223D01*
X-3985Y-25222D01*
X-3980Y-25216D01*
X-3978Y-25210D01*
X-3977Y-25206D01*
Y-24729D01*
X-3979Y-24721D01*
X-3981Y-24714D01*
X-3983Y-24710D01*
X-3985Y-24709D01*
X-3987Y-24706D01*
X-3990Y-24704D01*
X-3996Y-24701D01*
X-4001Y-24700D01*
D02*
G37*
G36*
X-3710Y-24704D02*
X-3803D01*
X-3812Y-24704D01*
X-3820Y-24705D01*
X-3837Y-24709D01*
X-3851Y-24715D01*
X-3863Y-24721D01*
X-3873Y-24728D01*
X-3880Y-24733D01*
X-3883Y-24736D01*
X-3885Y-24738D01*
X-3885Y-24738D01*
X-3886Y-24739D01*
X-3892Y-24746D01*
X-3897Y-24752D01*
X-3905Y-24767D01*
X-3911Y-24780D01*
X-3915Y-24793D01*
X-3918Y-24804D01*
X-3919Y-24809D01*
Y-24812D01*
X-3920Y-24816D01*
Y-24704D01*
D01*
Y-25228D01*
D01*
Y-25112D01*
X-3919Y-25121D01*
X-3918Y-25130D01*
X-3914Y-25146D01*
X-3908Y-25160D01*
X-3902Y-25172D01*
X-3895Y-25182D01*
X-3889Y-25189D01*
X-3887Y-25192D01*
X-3885Y-25194D01*
X-3885Y-25194D01*
X-3884Y-25195D01*
X-3877Y-25201D01*
X-3870Y-25206D01*
X-3857Y-25214D01*
X-3843Y-25220D01*
X-3830Y-25224D01*
X-3819Y-25227D01*
X-3815Y-25228D01*
X-3810D01*
X-3807Y-25228D01*
X-3712D01*
X-3707Y-25228D01*
X-3704Y-25227D01*
X-3698Y-25224D01*
X-3694Y-25222D01*
X-3693Y-25220D01*
X-3688Y-25214D01*
X-3686Y-25209D01*
X-3685Y-25205D01*
Y-25200D01*
X-3687Y-25197D01*
X-3689Y-25191D01*
X-3692Y-25187D01*
X-3693Y-25186D01*
X-3693D01*
X-3696Y-25183D01*
X-3700Y-25181D01*
X-3706Y-25178D01*
X-3710Y-25177D01*
X-3803D01*
X-3812Y-25177D01*
X-3821Y-25175D01*
X-3829Y-25172D01*
X-3835Y-25168D01*
X-3841Y-25165D01*
X-3845Y-25162D01*
X-3848Y-25160D01*
X-3849Y-25159D01*
X-3855Y-25152D01*
X-3860Y-25143D01*
X-3863Y-25136D01*
X-3866Y-25129D01*
X-3867Y-25122D01*
X-3868Y-25117D01*
Y-25114D01*
Y-25112D01*
Y-24820D01*
X-3867Y-24810D01*
X-3865Y-24801D01*
X-3862Y-24793D01*
X-3858Y-24786D01*
X-3854Y-24781D01*
X-3852Y-24777D01*
X-3849Y-24775D01*
X-3849Y-24774D01*
X-3841Y-24767D01*
X-3833Y-24763D01*
X-3826Y-24759D01*
X-3818Y-24757D01*
X-3812Y-24755D01*
X-3807Y-24755D01*
X-3712D01*
X-3707Y-24754D01*
X-3704Y-24753D01*
X-3698Y-24750D01*
X-3694Y-24748D01*
X-3693Y-24747D01*
X-3688Y-24741D01*
X-3686Y-24735D01*
X-3685Y-24731D01*
Y-24726D01*
X-3687Y-24723D01*
X-3689Y-24717D01*
X-3692Y-24713D01*
X-3693Y-24712D01*
X-3693D01*
X-3696Y-24709D01*
X-3700Y-24707D01*
X-3706Y-24704D01*
X-3710Y-24704D01*
D02*
G37*
G36*
X-2733D02*
X-2761D01*
X-2768Y-24705D01*
X-2773Y-24707D01*
X-2777Y-24710D01*
X-2778Y-24711D01*
X-2888Y-24821D01*
X-2890Y-24826D01*
X-2891Y-24829D01*
X-2894Y-24835D01*
X-2894Y-24837D01*
Y-24704D01*
D01*
Y-25228D01*
D01*
Y-24838D01*
X-2893Y-24846D01*
X-2891Y-24852D01*
X-2888Y-24855D01*
X-2887Y-24857D01*
X-2881Y-24861D01*
X-2875Y-24863D01*
X-2870Y-24864D01*
X-2868D01*
X-2861Y-24863D01*
X-2856Y-24860D01*
X-2852Y-24858D01*
X-2851Y-24857D01*
X-2785Y-24781D01*
Y-25203D01*
X-2784Y-25208D01*
X-2783Y-25212D01*
X-2780Y-25219D01*
X-2778Y-25223D01*
X-2776Y-25224D01*
X-2769Y-25226D01*
X-2763Y-25228D01*
X-2761Y-25228D01*
X-2894D01*
X-2760D01*
X-2752Y-25228D01*
X-2746Y-25225D01*
X-2742Y-25223D01*
X-2741Y-25222D01*
X-2736Y-25216D01*
X-2734Y-25210D01*
X-2733Y-25206D01*
Y-24725D01*
X-2735Y-24721D01*
X-2737Y-24716D01*
X-2740Y-24713D01*
X-2741Y-24711D01*
X-2741D01*
X-2748Y-24707D01*
X-2754Y-24704D01*
X-2758Y-24704D01*
X-2733D01*
D02*
G37*
G36*
X-3198Y-24849D02*
X-3200D01*
X-3207Y-24851D01*
X-3212Y-24853D01*
X-3215Y-24855D01*
X-3217Y-24856D01*
X-3220Y-24860D01*
X-3222Y-24865D01*
X-3224Y-24868D01*
X-3225Y-24869D01*
X-3290Y-25125D01*
X-3356Y-24869D01*
X-3358Y-24865D01*
X-3361Y-24861D01*
X-3364Y-24857D01*
X-3367Y-24854D01*
X-3369Y-24854D01*
X-3373Y-24851D01*
X-3377Y-24850D01*
X-3380Y-24849D01*
X-3290D01*
X-3407D01*
Y-25228D01*
D01*
Y-24875D01*
X-3407Y-24882D01*
X-3316Y-25208D01*
X-3312Y-25215D01*
X-3309Y-25220D01*
X-3306Y-25223D01*
X-3305Y-25224D01*
X-3300Y-25226D01*
X-3296Y-25228D01*
X-3292Y-25228D01*
X-3173D01*
X-3290D01*
X-3284Y-25228D01*
X-3279Y-25226D01*
X-3274Y-25222D01*
X-3271Y-25218D01*
X-3268Y-25214D01*
X-3267Y-25211D01*
X-3265Y-25209D01*
Y-25208D01*
X-3174Y-24884D01*
X-3174Y-24882D01*
X-3173Y-24878D01*
Y-24871D01*
X-3174Y-24867D01*
X-3177Y-24861D01*
X-3180Y-24858D01*
X-3180Y-24857D01*
X-3181D01*
X-3187Y-24852D01*
X-3194Y-24850D01*
X-3198Y-24849D01*
D02*
G37*
G36*
X-2313Y-24704D02*
X-2584D01*
Y-25228D01*
D01*
Y-25112D01*
X-2583Y-25121D01*
X-2582Y-25130D01*
X-2578Y-25146D01*
X-2573Y-25160D01*
X-2566Y-25172D01*
X-2559Y-25182D01*
X-2554Y-25189D01*
X-2551Y-25192D01*
X-2550Y-25194D01*
X-2549Y-25194D01*
X-2548Y-25195D01*
X-2542Y-25201D01*
X-2534Y-25206D01*
X-2520Y-25214D01*
X-2507Y-25220D01*
X-2494Y-25224D01*
X-2483Y-25227D01*
X-2479Y-25228D01*
X-2474D01*
X-2472Y-25228D01*
X-2431D01*
X-2422Y-25228D01*
X-2413Y-25227D01*
X-2397Y-25223D01*
X-2383Y-25217D01*
X-2370Y-25211D01*
X-2361Y-25206D01*
X-2353Y-25200D01*
X-2351Y-25197D01*
X-2349Y-25196D01*
X-2348Y-25194D01*
X-2347D01*
X-2341Y-25188D01*
X-2336Y-25181D01*
X-2327Y-25167D01*
X-2321Y-25153D01*
X-2317Y-25141D01*
X-2314Y-25129D01*
X-2313Y-25124D01*
Y-25121D01*
X-2313Y-25117D01*
Y-24820D01*
X-2313Y-24812D01*
X-2314Y-24803D01*
X-2318Y-24787D01*
X-2324Y-24773D01*
X-2330Y-24761D01*
X-2337Y-24752D01*
X-2342Y-24744D01*
X-2347Y-24740D01*
X-2347Y-24739D01*
X-2348Y-24738D01*
X-2355Y-24733D01*
X-2361Y-24727D01*
X-2375Y-24718D01*
X-2389Y-24712D01*
X-2403Y-24708D01*
X-2414Y-24705D01*
X-2418Y-24704D01*
X-2423D01*
X-2426Y-24704D01*
X-2313D01*
D01*
D02*
G37*
G36*
X-2624Y-25160D02*
X-2694D01*
Y-25228D01*
D01*
Y-25194D01*
X-2693Y-25200D01*
X-2693Y-25204D01*
X-2689Y-25212D01*
X-2687Y-25215D01*
X-2686Y-25217D01*
X-2685Y-25219D01*
X-2684Y-25220D01*
X-2681Y-25223D01*
X-2677Y-25225D01*
X-2668Y-25227D01*
X-2665Y-25228D01*
X-2662Y-25228D01*
X-2694D01*
X-2659D01*
X-2653Y-25228D01*
X-2648Y-25227D01*
X-2644Y-25225D01*
X-2640Y-25223D01*
X-2637Y-25221D01*
X-2635Y-25219D01*
X-2634Y-25218D01*
X-2633Y-25217D01*
X-2630Y-25213D01*
X-2627Y-25209D01*
X-2625Y-25202D01*
X-2625Y-25199D01*
X-2624Y-25197D01*
Y-25194D01*
X-2625Y-25189D01*
X-2625Y-25185D01*
X-2629Y-25177D01*
X-2631Y-25175D01*
X-2633Y-25172D01*
X-2634Y-25172D01*
X-2635Y-25171D01*
X-2639Y-25167D01*
X-2643Y-25164D01*
X-2647Y-25163D01*
X-2651Y-25161D01*
X-2654Y-25160D01*
X-2657Y-25160D01*
X-2624D01*
D02*
G37*
G36*
X-3807Y-25228D02*
X-3920D01*
X-3807D01*
D01*
D02*
G37*
G36*
X-4379Y-24704D02*
X-4650D01*
Y-25228D01*
D01*
Y-24906D01*
X-4648Y-24918D01*
X-4642Y-24939D01*
X-4634Y-24954D01*
X-4630Y-24959D01*
X-4626Y-24965D01*
X-4622Y-24970D01*
X-4619Y-24973D01*
X-4617Y-24976D01*
X-4617Y-24976D01*
X-4609Y-24982D01*
X-4602Y-24988D01*
X-4588Y-24996D01*
X-4574Y-25002D01*
X-4560Y-25005D01*
X-4550Y-25008D01*
X-4545Y-25009D01*
X-4541D01*
X-4538Y-25010D01*
X-4430D01*
Y-25112D01*
X-4431Y-25123D01*
X-4433Y-25132D01*
X-4437Y-25140D01*
X-4440Y-25146D01*
X-4444Y-25152D01*
X-4447Y-25155D01*
X-4449Y-25158D01*
X-4450Y-25159D01*
X-4458Y-25165D01*
X-4466Y-25169D01*
X-4474Y-25173D01*
X-4481Y-25175D01*
X-4487Y-25177D01*
X-4492Y-25177D01*
X-4588D01*
X-4592Y-25178D01*
X-4597Y-25179D01*
X-4602Y-25183D01*
X-4606Y-25186D01*
X-4608Y-25187D01*
Y-25188D01*
X-4611Y-25194D01*
X-4613Y-25199D01*
X-4614Y-25203D01*
Y-25203D01*
X-4613Y-25211D01*
X-4610Y-25217D01*
X-4608Y-25220D01*
X-4607Y-25221D01*
Y-25222D01*
X-4601Y-25226D01*
X-4594Y-25228D01*
X-4590Y-25228D01*
X-4497D01*
X-4488Y-25228D01*
X-4479Y-25227D01*
X-4463Y-25223D01*
X-4449Y-25217D01*
X-4436Y-25211D01*
X-4427Y-25206D01*
X-4419Y-25200D01*
X-4417Y-25197D01*
X-4415Y-25196D01*
X-4414Y-25194D01*
X-4413D01*
X-4407Y-25188D01*
X-4401Y-25181D01*
X-4393Y-25167D01*
X-4387Y-25153D01*
X-4383Y-25141D01*
X-4380Y-25129D01*
X-4379Y-25124D01*
Y-25121D01*
X-4379Y-25117D01*
Y-24725D01*
X-4380Y-24721D01*
X-4383Y-24716D01*
X-4386Y-24713D01*
X-4387Y-24711D01*
X-4387D01*
X-4393Y-24707D01*
X-4399Y-24704D01*
X-4404Y-24704D01*
X-4379D01*
D01*
D02*
G37*
%LPD*%
G36*
X-4007Y-24701D02*
X-4012Y-24702D01*
X-4019Y-24707D01*
X-4022Y-24710D01*
X-4024Y-24713D01*
X-4025Y-24715D01*
X-4026Y-24716D01*
X-4150Y-24923D01*
X-4273Y-24716D01*
X-4276Y-24712D01*
X-4279Y-24709D01*
X-4282Y-24705D01*
X-4285Y-24704D01*
X-4285Y-24703D01*
X-4289Y-24701D01*
X-4293Y-24700D01*
X-4002D01*
X-4007Y-24701D01*
D02*
G37*
G36*
X-3389Y-24851D02*
X-3395Y-24854D01*
X-3398Y-24857D01*
X-3400Y-24857D01*
Y-24858D01*
X-3404Y-24865D01*
X-3407Y-24870D01*
X-3407Y-24874D01*
Y-24849D01*
X-3385D01*
X-3389Y-24851D01*
D02*
G37*
G36*
X-2476Y-24704D02*
X-2485Y-24705D01*
X-2501Y-24709D01*
X-2515Y-24715D01*
X-2528Y-24721D01*
X-2537Y-24728D01*
X-2545Y-24733D01*
X-2547Y-24736D01*
X-2549Y-24738D01*
X-2550Y-24738D01*
X-2551Y-24739D01*
X-2557Y-24746D01*
X-2562Y-24752D01*
X-2570Y-24767D01*
X-2576Y-24780D01*
X-2579Y-24793D01*
X-2582Y-24804D01*
X-2583Y-24809D01*
Y-24812D01*
X-2584Y-24816D01*
Y-24704D01*
X-2467D01*
X-2476Y-24704D01*
D02*
G37*
G36*
X-2421Y-24755D02*
X-2412Y-24758D01*
X-2404Y-24761D01*
X-2398Y-24764D01*
X-2392Y-24768D01*
X-2388Y-24772D01*
X-2385Y-24774D01*
X-2384Y-24775D01*
X-2378Y-24782D01*
X-2372Y-24790D01*
X-2370Y-24798D01*
X-2367Y-24805D01*
X-2365Y-24811D01*
X-2364Y-24816D01*
Y-24819D01*
Y-24820D01*
Y-25112D01*
X-2365Y-25123D01*
X-2367Y-25132D01*
X-2371Y-25140D01*
X-2374Y-25146D01*
X-2378Y-25152D01*
X-2381Y-25155D01*
X-2384Y-25158D01*
X-2384Y-25159D01*
X-2392Y-25165D01*
X-2400Y-25169D01*
X-2408Y-25173D01*
X-2415Y-25175D01*
X-2421Y-25177D01*
X-2426Y-25177D01*
X-2467D01*
X-2477Y-25177D01*
X-2485Y-25175D01*
X-2493Y-25172D01*
X-2500Y-25168D01*
X-2506Y-25164D01*
X-2509Y-25161D01*
X-2512Y-25159D01*
X-2513Y-25158D01*
X-2520Y-25151D01*
X-2524Y-25143D01*
X-2528Y-25135D01*
X-2530Y-25128D01*
X-2531Y-25122D01*
X-2532Y-25117D01*
Y-25114D01*
Y-25112D01*
Y-24820D01*
X-2531Y-24811D01*
X-2529Y-24802D01*
X-2526Y-24794D01*
X-2523Y-24787D01*
X-2520Y-24781D01*
X-2517Y-24778D01*
X-2514Y-24775D01*
X-2514Y-24774D01*
X-2506Y-24767D01*
X-2498Y-24763D01*
X-2491Y-24759D01*
X-2483Y-24757D01*
X-2477Y-24755D01*
X-2472Y-24755D01*
X-2431D01*
X-2421Y-24755D01*
D02*
G37*
G36*
X-2665Y-25160D02*
X-2671Y-25162D01*
X-2676Y-25164D01*
X-2679Y-25166D01*
X-2682Y-25169D01*
X-2684Y-25171D01*
X-2685Y-25172D01*
X-2686Y-25173D01*
X-2689Y-25177D01*
X-2690Y-25182D01*
X-2693Y-25189D01*
X-2694Y-25193D01*
Y-25160D01*
X-2659D01*
X-2665Y-25160D01*
D02*
G37*
G36*
X-4632Y-24705D02*
X-4637Y-24708D01*
X-4641Y-24711D01*
X-4642Y-24712D01*
Y-24713D01*
X-4647Y-24718D01*
X-4649Y-24724D01*
X-4650Y-24728D01*
Y-24704D01*
X-4628D01*
X-4632Y-24705D01*
D02*
G37*
G36*
X-4413D02*
X-4418Y-24708D01*
X-4421Y-24711D01*
X-4423Y-24712D01*
Y-24713D01*
X-4427Y-24718D01*
X-4430Y-24724D01*
X-4430Y-24728D01*
Y-24729D01*
Y-24730D01*
Y-24959D01*
X-4533D01*
X-4543Y-24958D01*
X-4551Y-24956D01*
X-4560Y-24953D01*
X-4566Y-24949D01*
X-4572Y-24946D01*
X-4576Y-24943D01*
X-4579Y-24941D01*
X-4580Y-24940D01*
X-4585Y-24933D01*
X-4590Y-24925D01*
X-4594Y-24917D01*
X-4596Y-24910D01*
X-4597Y-24903D01*
X-4598Y-24898D01*
Y-24895D01*
Y-24894D01*
Y-24730D01*
Y-24725D01*
X-4600Y-24721D01*
X-4602Y-24716D01*
X-4605Y-24713D01*
X-4606Y-24711D01*
X-4607D01*
X-4613Y-24707D01*
X-4619Y-24704D01*
X-4623Y-24704D01*
X-4409D01*
X-4413Y-24705D01*
D02*
G37*
%LPC*%
G36*
X-6528Y-24913D02*
Y-25041D01*
D01*
Y-24913D01*
D02*
G37*
G36*
X-7130Y-24700D02*
X-7155D01*
X-7161Y-24701D01*
X-7166Y-24703D01*
X-7170Y-24706D01*
X-7174Y-24709D01*
X-7177Y-24712D01*
X-7179Y-24715D01*
X-7180Y-24717D01*
X-7180Y-24718D01*
X-7350Y-25112D01*
Y-24729D01*
Y-24724D01*
X-7351Y-24721D01*
X-7354Y-24715D01*
X-7357Y-24712D01*
X-7358Y-24710D01*
X-7358D01*
X-7364Y-24706D01*
X-7370Y-24704D01*
X-7375Y-24703D01*
X-7380D01*
X-7384Y-24704D01*
X-7389Y-24707D01*
X-7392Y-24710D01*
X-7394Y-24711D01*
Y-24712D01*
X-7398Y-24718D01*
X-7401Y-24724D01*
X-7401Y-24727D01*
Y-24700D01*
D01*
Y-25203D01*
X-7401Y-25211D01*
X-7398Y-25217D01*
X-7395Y-25222D01*
X-7395Y-25223D01*
Y-25223D01*
X-7389Y-25228D01*
X-7384Y-25230D01*
X-7379Y-25231D01*
X-7378D01*
X-7130D01*
X-7378D01*
X-7372Y-25230D01*
X-7367Y-25228D01*
X-7362Y-25225D01*
X-7358Y-25222D01*
X-7355Y-25219D01*
X-7353Y-25216D01*
X-7352Y-25214D01*
X-7352Y-25213D01*
X-7182Y-24819D01*
Y-25203D01*
X-7181Y-25207D01*
X-7180Y-25211D01*
X-7177Y-25217D01*
X-7174Y-25221D01*
X-7173Y-25223D01*
X-7165Y-25226D01*
X-7160Y-25228D01*
X-7157Y-25228D01*
X-7157D01*
X-7149Y-25227D01*
X-7143Y-25225D01*
X-7139Y-25223D01*
X-7137Y-25221D01*
X-7133Y-25215D01*
X-7131Y-25209D01*
X-7130Y-25205D01*
Y-24724D01*
X-7131Y-24721D01*
X-7134Y-24714D01*
X-7137Y-24710D01*
X-7137Y-24709D01*
X-7138D01*
X-7141Y-24706D01*
X-7144Y-24704D01*
X-7150Y-24701D01*
X-7154Y-24700D01*
X-7130D01*
D02*
G37*
G36*
X-6650Y-24886D02*
X-6652D01*
X-6655Y-24887D01*
X-6659Y-24888D01*
X-6666Y-24891D01*
X-6670Y-24894D01*
X-6670Y-24895D01*
X-6671Y-24896D01*
X-6675Y-24903D01*
X-6678Y-24908D01*
X-6678Y-24911D01*
Y-24912D01*
X-6678Y-24918D01*
X-6675Y-24923D01*
X-6673Y-24927D01*
X-6672Y-24928D01*
X-6585Y-25042D01*
X-6673Y-25158D01*
X-6676Y-25163D01*
X-6678Y-25167D01*
X-6678Y-25171D01*
Y-25172D01*
Y-25172D01*
X-6678Y-25176D01*
X-6677Y-25180D01*
X-6674Y-25186D01*
X-6671Y-25190D01*
X-6670Y-25191D01*
Y-25192D01*
X-6664Y-25195D01*
X-6658Y-25197D01*
X-6653Y-25198D01*
X-6754D01*
X-6749Y-25197D01*
X-6745Y-25196D01*
X-6738Y-25192D01*
X-6734Y-25188D01*
X-6732Y-25187D01*
Y-25186D01*
X-6635Y-25057D01*
X-6632Y-25052D01*
X-6631Y-25047D01*
X-6630Y-25043D01*
Y-25042D01*
Y-25041D01*
X-6635Y-25028D01*
X-6732Y-24899D01*
X-6735Y-24894D01*
X-6739Y-24891D01*
X-6743Y-24889D01*
X-6746Y-24888D01*
X-6749Y-24887D01*
X-6752Y-24886D01*
X-6754D01*
X-6757Y-24887D01*
X-6761Y-24888D01*
X-6768Y-24891D01*
X-6772Y-24894D01*
X-6772Y-24895D01*
X-6773Y-24896D01*
X-6777Y-24903D01*
X-6780Y-24908D01*
X-6780Y-24911D01*
Y-25198D01*
Y-25172D01*
X-6780Y-25176D01*
X-6779Y-25180D01*
X-6776Y-25186D01*
X-6773Y-25190D01*
X-6772Y-25191D01*
Y-25192D01*
X-6766Y-25195D01*
X-6760Y-25197D01*
X-6755Y-25198D01*
X-6528D01*
X-6652D01*
X-6647Y-25197D01*
X-6643Y-25196D01*
X-6636Y-25192D01*
X-6631Y-25188D01*
X-6630Y-25187D01*
X-6630Y-25186D01*
X-6533Y-25057D01*
X-6530Y-25052D01*
X-6529Y-25047D01*
X-6528Y-25043D01*
Y-25041D01*
X-6533Y-25028D01*
X-6630Y-24899D01*
X-6633Y-24894D01*
X-6637Y-24891D01*
X-6641Y-24889D01*
X-6644Y-24888D01*
X-6647Y-24887D01*
X-6650Y-24886D01*
D02*
G37*
G36*
X-7812D02*
X-7813D01*
X-7817Y-24887D01*
X-7822Y-24888D01*
X-7828Y-24892D01*
X-7832Y-24896D01*
X-7833Y-24897D01*
X-7834Y-24898D01*
X-7931Y-25028D01*
X-7933Y-25033D01*
X-7934Y-25037D01*
X-7935Y-25041D01*
Y-25041D01*
Y-25042D01*
X-7934Y-25048D01*
X-7933Y-25053D01*
X-7931Y-25056D01*
X-7931Y-25058D01*
X-7834Y-25187D01*
X-7831Y-25191D01*
X-7827Y-25194D01*
X-7823Y-25195D01*
X-7820Y-25197D01*
X-7817Y-25197D01*
X-7815Y-25198D01*
X-7915D01*
X-7908Y-25197D01*
X-7901Y-25194D01*
X-7897Y-25192D01*
X-7896Y-25191D01*
X-7893Y-25188D01*
X-7891Y-25185D01*
X-7888Y-25179D01*
X-7888Y-25175D01*
Y-25174D01*
Y-25173D01*
X-7888Y-25167D01*
X-7891Y-25162D01*
X-7893Y-25159D01*
X-7894Y-25158D01*
X-7981Y-25042D01*
X-7893Y-24927D01*
X-7890Y-24922D01*
X-7888Y-24917D01*
X-7888Y-24914D01*
Y-24913D01*
Y-24909D01*
X-7889Y-24905D01*
X-7892Y-24900D01*
X-7895Y-24896D01*
X-7896Y-24894D01*
X-7897D01*
X-7899Y-24891D01*
X-7903Y-24890D01*
X-7909Y-24887D01*
X-7913Y-24886D01*
X-7915D01*
X-7919Y-24887D01*
X-7924Y-24888D01*
X-7930Y-24892D01*
X-7934Y-24896D01*
X-7935Y-24897D01*
X-7936Y-24898D01*
X-8033Y-25028D01*
X-8035Y-25033D01*
X-8036Y-25037D01*
X-8037Y-25041D01*
Y-25198D01*
X-7786D01*
D01*
X-7813D01*
X-7806Y-25197D01*
X-7799Y-25194D01*
X-7795Y-25192D01*
X-7794Y-25191D01*
X-7791Y-25188D01*
X-7789Y-25185D01*
X-7786Y-25179D01*
X-7786Y-25175D01*
Y-25173D01*
X-7786Y-25167D01*
X-7789Y-25162D01*
X-7791Y-25159D01*
X-7792Y-25158D01*
X-7879Y-25042D01*
X-7791Y-24927D01*
X-7788Y-24922D01*
X-7786Y-24917D01*
X-7786Y-24914D01*
Y-24909D01*
X-7787Y-24905D01*
X-7790Y-24900D01*
X-7793Y-24896D01*
X-7794Y-24894D01*
X-7794D01*
X-7797Y-24891D01*
X-7801Y-24890D01*
X-7807Y-24887D01*
X-7812Y-24886D01*
D02*
G37*
G36*
X-9328D02*
X-9330D01*
X-9334Y-24887D01*
X-9339Y-24888D01*
X-9344Y-24892D01*
X-9349Y-24896D01*
X-9350Y-24897D01*
X-9350Y-24898D01*
X-9448Y-25028D01*
X-9450Y-25033D01*
X-9451Y-25037D01*
X-9452Y-25041D01*
Y-25041D01*
Y-25042D01*
X-9451Y-25048D01*
X-9449Y-25053D01*
X-9448Y-25056D01*
X-9447Y-25058D01*
X-9350Y-25187D01*
X-9347Y-25191D01*
X-9344Y-25194D01*
X-9340Y-25195D01*
X-9337Y-25197D01*
X-9334Y-25197D01*
X-9332Y-25198D01*
X-9302D01*
D01*
X-9330D01*
X-9322Y-25197D01*
X-9316Y-25194D01*
X-9312Y-25192D01*
X-9310Y-25191D01*
X-9308Y-25188D01*
X-9306Y-25185D01*
X-9303Y-25179D01*
X-9302Y-25175D01*
Y-25173D01*
X-9303Y-25167D01*
X-9305Y-25162D01*
X-9308Y-25159D01*
X-9308Y-25158D01*
X-9395Y-25042D01*
X-9308Y-24927D01*
X-9305Y-24922D01*
X-9303Y-24917D01*
X-9302Y-24914D01*
Y-24909D01*
X-9304Y-24905D01*
X-9307Y-24900D01*
X-9310Y-24896D01*
X-9310Y-24894D01*
X-9311D01*
X-9314Y-24891D01*
X-9318Y-24890D01*
X-9324Y-24887D01*
X-9328Y-24886D01*
D02*
G37*
G36*
X-9365D02*
X-9432D01*
X-9436Y-24887D01*
X-9441Y-24888D01*
X-9446Y-24892D01*
X-9451Y-24896D01*
X-9452Y-24897D01*
X-9452Y-24898D01*
X-9550Y-25028D01*
X-9552Y-25033D01*
X-9553Y-25037D01*
X-9554Y-25041D01*
Y-25198D01*
Y-25042D01*
X-9553Y-25048D01*
X-9551Y-25053D01*
X-9550Y-25056D01*
X-9549Y-25058D01*
X-9452Y-25187D01*
X-9449Y-25191D01*
X-9446Y-25194D01*
X-9442Y-25195D01*
X-9439Y-25197D01*
X-9436Y-25197D01*
X-9434Y-25198D01*
X-9365D01*
X-9432D01*
X-9424Y-25197D01*
X-9418Y-25194D01*
X-9414Y-25192D01*
X-9412Y-25191D01*
X-9410Y-25188D01*
X-9408Y-25185D01*
X-9405Y-25179D01*
X-9404Y-25175D01*
Y-25174D01*
Y-25173D01*
X-9405Y-25167D01*
X-9407Y-25162D01*
X-9410Y-25159D01*
X-9410Y-25158D01*
X-9497Y-25042D01*
X-9410Y-24927D01*
X-9407Y-24922D01*
X-9405Y-24917D01*
X-9404Y-24914D01*
Y-24913D01*
Y-24909D01*
X-9406Y-24905D01*
X-9409Y-24900D01*
X-9412Y-24896D01*
X-9412Y-24894D01*
X-9413D01*
X-9416Y-24891D01*
X-9420Y-24890D01*
X-9426Y-24887D01*
X-9430Y-24886D01*
X-9365D01*
D02*
G37*
G36*
X-8318Y-24707D02*
X-8589D01*
X-8472D01*
X-8481Y-24707D01*
X-8490Y-24708D01*
X-8506Y-24712D01*
X-8520Y-24718D01*
X-8533Y-24724D01*
X-8543Y-24731D01*
X-8550Y-24736D01*
X-8552Y-24739D01*
X-8554Y-24741D01*
X-8555Y-24741D01*
X-8556Y-24742D01*
X-8562Y-24749D01*
X-8567Y-24755D01*
X-8575Y-24769D01*
X-8581Y-24783D01*
X-8585Y-24796D01*
X-8588Y-24807D01*
X-8588Y-24812D01*
Y-24815D01*
X-8589Y-24819D01*
Y-25115D01*
X-8588Y-25124D01*
X-8588Y-25133D01*
X-8583Y-25149D01*
X-8578Y-25163D01*
X-8571Y-25175D01*
X-8565Y-25185D01*
X-8559Y-25192D01*
X-8557Y-25194D01*
X-8555Y-25197D01*
X-8554Y-25197D01*
X-8554Y-25198D01*
X-8547Y-25204D01*
X-8540Y-25209D01*
X-8526Y-25217D01*
X-8512Y-25223D01*
X-8500Y-25227D01*
X-8489Y-25230D01*
X-8484Y-25231D01*
X-8480D01*
X-8477Y-25231D01*
X-8436D01*
X-8427Y-25231D01*
X-8418Y-25230D01*
X-8402Y-25226D01*
X-8388Y-25220D01*
X-8375Y-25214D01*
X-8366Y-25209D01*
X-8358Y-25203D01*
X-8356Y-25200D01*
X-8354Y-25199D01*
X-8353Y-25197D01*
X-8353D01*
X-8347Y-25191D01*
X-8341Y-25184D01*
X-8333Y-25170D01*
X-8326Y-25156D01*
X-8322Y-25143D01*
X-8319Y-25132D01*
X-8319Y-25127D01*
Y-25124D01*
X-8318Y-25120D01*
Y-25199D01*
Y-24823D01*
X-8319Y-24815D01*
X-8319Y-24806D01*
X-8323Y-24790D01*
X-8329Y-24776D01*
X-8336Y-24764D01*
X-8342Y-24755D01*
X-8347Y-24747D01*
X-8352Y-24743D01*
X-8353Y-24742D01*
X-8353Y-24741D01*
X-8360Y-24735D01*
X-8367Y-24730D01*
X-8381Y-24721D01*
X-8395Y-24715D01*
X-8408Y-24711D01*
X-8419Y-24708D01*
X-8424Y-24707D01*
X-8428D01*
X-8432Y-24707D01*
X-8318D01*
D01*
D02*
G37*
G36*
X-9835D02*
X-10106D01*
X-9989D01*
X-9998Y-24707D01*
X-10007Y-24708D01*
X-10023Y-24712D01*
X-10037Y-24718D01*
X-10050Y-24724D01*
X-10059Y-24731D01*
X-10067Y-24736D01*
X-10069Y-24739D01*
X-10071Y-24741D01*
X-10072Y-24741D01*
X-10073Y-24742D01*
X-10078Y-24749D01*
X-10084Y-24755D01*
X-10092Y-24769D01*
X-10098Y-24783D01*
X-10101Y-24796D01*
X-10104Y-24807D01*
X-10105Y-24812D01*
Y-24815D01*
X-10106Y-24819D01*
Y-25115D01*
X-10105Y-25124D01*
X-10104Y-25133D01*
X-10100Y-25149D01*
X-10095Y-25163D01*
X-10088Y-25175D01*
X-10081Y-25185D01*
X-10075Y-25192D01*
X-10073Y-25194D01*
X-10072Y-25197D01*
X-10071Y-25197D01*
X-10070Y-25198D01*
X-10064Y-25204D01*
X-10056Y-25209D01*
X-10042Y-25217D01*
X-10029Y-25223D01*
X-10016Y-25227D01*
X-10005Y-25230D01*
X-10001Y-25231D01*
X-9996D01*
X-9993Y-25231D01*
X-9953D01*
X-9944Y-25231D01*
X-9935Y-25230D01*
X-9919Y-25226D01*
X-9905Y-25220D01*
X-9892Y-25214D01*
X-9883Y-25209D01*
X-9875Y-25203D01*
X-9873Y-25200D01*
X-9871Y-25199D01*
X-9870Y-25197D01*
X-9869D01*
X-9863Y-25191D01*
X-9857Y-25184D01*
X-9849Y-25170D01*
X-9843Y-25156D01*
X-9839Y-25143D01*
X-9836Y-25132D01*
X-9835Y-25127D01*
Y-25124D01*
X-9835Y-25120D01*
Y-25229D01*
Y-24823D01*
X-9835Y-24815D01*
X-9836Y-24806D01*
X-9840Y-24790D01*
X-9846Y-24776D01*
X-9852Y-24764D01*
X-9859Y-24755D01*
X-9864Y-24747D01*
X-9869Y-24743D01*
X-9869Y-24742D01*
X-9870Y-24741D01*
X-9877Y-24735D01*
X-9883Y-24730D01*
X-9897Y-24721D01*
X-9911Y-24715D01*
X-9925Y-24711D01*
X-9936Y-24708D01*
X-9940Y-24707D01*
X-9945D01*
X-9948Y-24707D01*
X-9835D01*
D01*
D02*
G37*
%LPD*%
G36*
X-7378Y-25231D02*
D01*
D01*
D01*
D02*
G37*
%LPC*%
G36*
X-6863Y-24707D02*
X-6956D01*
X-6964Y-24707D01*
X-6973Y-24708D01*
X-6990Y-24712D01*
X-7004Y-24718D01*
X-7016Y-24724D01*
X-7026Y-24731D01*
X-7033Y-24736D01*
X-7035Y-24739D01*
X-7038Y-24741D01*
X-7038Y-24741D01*
X-7039Y-24742D01*
X-7045Y-24749D01*
X-7050Y-24755D01*
X-7058Y-24769D01*
X-7064Y-24783D01*
X-7068Y-24796D01*
X-7071Y-24807D01*
X-7072Y-24812D01*
Y-24815D01*
X-7072Y-24819D01*
Y-25115D01*
X-7072Y-25124D01*
X-7071Y-25133D01*
X-7066Y-25149D01*
X-7061Y-25163D01*
X-7055Y-25175D01*
X-7048Y-25185D01*
X-7042Y-25192D01*
X-7040Y-25194D01*
X-7038Y-25197D01*
X-7038Y-25197D01*
X-7037Y-25198D01*
X-7030Y-25204D01*
X-7023Y-25209D01*
X-7010Y-25217D01*
X-6995Y-25223D01*
X-6983Y-25227D01*
X-6972Y-25230D01*
X-6967Y-25231D01*
X-6963D01*
X-6960Y-25231D01*
X-6865D01*
X-6860Y-25231D01*
X-6857Y-25230D01*
X-6851Y-25227D01*
X-6847Y-25225D01*
X-6845Y-25223D01*
X-6841Y-25217D01*
X-6839Y-25211D01*
X-6838Y-25208D01*
Y-25203D01*
X-6840Y-25200D01*
X-6842Y-25194D01*
X-6845Y-25190D01*
X-6845Y-25189D01*
X-6846D01*
X-6849Y-25186D01*
X-6853Y-25184D01*
X-6859Y-25181D01*
X-6863Y-25180D01*
X-6956D01*
X-6965Y-25180D01*
X-6974Y-25177D01*
X-6981Y-25175D01*
X-6988Y-25171D01*
X-6994Y-25168D01*
X-6998Y-25165D01*
X-7001Y-25163D01*
X-7001Y-25162D01*
X-7008Y-25155D01*
X-7012Y-25146D01*
X-7016Y-25139D01*
X-7018Y-25132D01*
X-7020Y-25125D01*
X-7021Y-25120D01*
Y-25117D01*
Y-25115D01*
Y-24823D01*
X-7020Y-24813D01*
X-7018Y-24804D01*
X-7015Y-24796D01*
X-7011Y-24789D01*
X-7007Y-24784D01*
X-7004Y-24780D01*
X-7002Y-24778D01*
X-7001Y-24777D01*
X-6994Y-24770D01*
X-6986Y-24766D01*
X-6978Y-24762D01*
X-6971Y-24760D01*
X-6965Y-24758D01*
X-6960Y-24758D01*
X-6865D01*
X-6860Y-24757D01*
X-6857Y-24756D01*
X-6851Y-24753D01*
X-6847Y-24751D01*
X-6845Y-24750D01*
X-6841Y-24744D01*
X-6839Y-24738D01*
X-6838Y-24734D01*
Y-24729D01*
X-6840Y-24726D01*
X-6842Y-24720D01*
X-6845Y-24716D01*
X-6845Y-24715D01*
X-6846D01*
X-6849Y-24712D01*
X-6853Y-24710D01*
X-6859Y-24707D01*
X-6863Y-24707D01*
D02*
G37*
G36*
X-7459D02*
X-7730D01*
X-7709D01*
X-7712Y-24708D01*
X-7718Y-24711D01*
X-7721Y-24714D01*
X-7723Y-24715D01*
Y-24716D01*
X-7727Y-24721D01*
X-7729Y-24727D01*
X-7730Y-24731D01*
Y-25206D01*
X-7729Y-25211D01*
X-7729Y-25215D01*
X-7726Y-25222D01*
X-7723Y-25226D01*
X-7721Y-25227D01*
X-7714Y-25229D01*
X-7709Y-25231D01*
X-7706Y-25231D01*
X-7705D01*
X-7698Y-25231D01*
X-7691Y-25228D01*
X-7687Y-25226D01*
X-7686Y-25225D01*
X-7681Y-25219D01*
X-7679Y-25213D01*
X-7678Y-25209D01*
Y-25207D01*
Y-25206D01*
Y-25033D01*
X-7627Y-24956D01*
X-7508Y-25218D01*
X-7500Y-25229D01*
X-7488Y-25231D01*
D01*
X-7480Y-25231D01*
X-7473Y-25228D01*
X-7469Y-25226D01*
X-7468Y-25225D01*
X-7465Y-25222D01*
X-7463Y-25218D01*
X-7460Y-25211D01*
Y-25209D01*
X-7460Y-25207D01*
Y-25206D01*
Y-25205D01*
X-7460Y-25203D01*
Y-25203D01*
X-7462Y-25196D01*
X-7593Y-24917D01*
X-7464Y-24747D01*
X-7461Y-24742D01*
X-7460Y-24738D01*
X-7459Y-24734D01*
Y-24729D01*
X-7460Y-24725D01*
X-7463Y-24720D01*
X-7466Y-24716D01*
X-7467Y-24715D01*
X-7468D01*
X-7471Y-24712D01*
X-7474Y-24710D01*
X-7480Y-24707D01*
X-7485Y-24707D01*
X-7459D01*
D01*
D02*
G37*
G36*
X-8672D02*
X-8918D01*
X-8893D01*
X-8901Y-24707D01*
X-8908Y-24710D01*
X-8912Y-24715D01*
X-8915Y-24719D01*
X-8917Y-24724D01*
X-8917Y-24728D01*
X-8918Y-24731D01*
Y-25206D01*
X-8917Y-25211D01*
X-8917Y-25215D01*
X-8914Y-25222D01*
X-8911Y-25226D01*
X-8909Y-25227D01*
X-8902Y-25229D01*
X-8897Y-25231D01*
X-8894Y-25231D01*
X-8893D01*
X-8885Y-25231D01*
X-8879Y-25228D01*
X-8875Y-25226D01*
X-8874Y-25225D01*
X-8869Y-25219D01*
X-8867Y-25213D01*
X-8866Y-25209D01*
Y-25207D01*
Y-25206D01*
Y-24758D01*
X-8698D01*
Y-25206D01*
X-8698Y-25211D01*
X-8697Y-25215D01*
X-8694Y-25222D01*
X-8691Y-25226D01*
X-8690Y-25227D01*
X-8682Y-25229D01*
X-8677Y-25231D01*
X-8674Y-25231D01*
X-8737D01*
X-8647D01*
X-8673D01*
X-8666Y-25231D01*
X-8659Y-25228D01*
X-8656Y-25226D01*
X-8654Y-25225D01*
X-8650Y-25219D01*
X-8647Y-25213D01*
X-8647Y-25209D01*
Y-24733D01*
X-8648Y-24724D01*
X-8651Y-24718D01*
X-8655Y-24713D01*
X-8660Y-24710D01*
X-8665Y-24708D01*
X-8669Y-24707D01*
X-8672Y-24707D01*
D02*
G37*
G36*
X-8976D02*
X-9247D01*
X-9225D01*
X-9229Y-24708D01*
X-9234Y-24711D01*
X-9238Y-24714D01*
X-9240Y-24715D01*
Y-24716D01*
X-9244Y-24721D01*
X-9246Y-24727D01*
X-9247Y-24731D01*
Y-25206D01*
X-9246Y-25211D01*
X-9245Y-25215D01*
X-9242Y-25222D01*
X-9240Y-25226D01*
X-9238Y-25227D01*
X-9231Y-25229D01*
X-9225Y-25231D01*
X-9223Y-25231D01*
X-9222D01*
X-9214Y-25231D01*
X-9208Y-25228D01*
X-9204Y-25226D01*
X-9203Y-25225D01*
X-9198Y-25219D01*
X-9196Y-25213D01*
X-9195Y-25209D01*
Y-25207D01*
Y-25206D01*
Y-24977D01*
X-9027D01*
Y-25206D01*
X-9027Y-25211D01*
X-9026Y-25215D01*
X-9023Y-25222D01*
X-9020Y-25226D01*
X-9019Y-25227D01*
X-9011Y-25229D01*
X-9006Y-25231D01*
X-9003Y-25231D01*
X-9002D01*
X-8995Y-25231D01*
X-8988Y-25228D01*
X-8985Y-25226D01*
X-8983Y-25225D01*
X-8979Y-25219D01*
X-8976Y-25213D01*
X-8976Y-25209D01*
Y-24707D01*
D02*
G37*
G36*
X-10165Y-24707D02*
X-10319D01*
X-10325Y-24708D01*
X-10330Y-24710D01*
X-10334Y-24714D01*
X-10338Y-24718D01*
X-10340Y-24722D01*
X-10342Y-24725D01*
X-10343Y-24728D01*
Y-24729D01*
X-10471Y-25200D01*
X-10472Y-25205D01*
X-10470Y-25213D01*
X-10468Y-25220D01*
X-10466Y-25223D01*
X-10464Y-25225D01*
X-10458Y-25228D01*
X-10452Y-25231D01*
X-10447Y-25231D01*
X-10472D01*
X-10377D01*
X-10446D01*
X-10439Y-25231D01*
X-10434Y-25228D01*
X-10431Y-25227D01*
X-10430Y-25226D01*
X-10425Y-25222D01*
X-10422Y-25217D01*
X-10421Y-25212D01*
Y-25211D01*
Y-25211D01*
X-10387Y-25086D01*
X-10250D01*
X-10215Y-25215D01*
X-10213Y-25220D01*
X-10210Y-25224D01*
X-10207Y-25226D01*
X-10206Y-25227D01*
X-10201Y-25229D01*
X-10197Y-25231D01*
X-10193Y-25231D01*
X-10192D01*
X-10184Y-25231D01*
X-10178Y-25228D01*
X-10175Y-25226D01*
X-10173Y-25225D01*
X-10170Y-25221D01*
X-10169Y-25218D01*
X-10166Y-25212D01*
X-10165Y-25208D01*
Y-25206D01*
X-10166Y-25200D01*
X-10294Y-24729D01*
X-10296Y-24721D01*
X-10300Y-24716D01*
X-10304Y-24713D01*
X-10308Y-24710D01*
X-10312Y-24708D01*
X-10316Y-24707D01*
X-10165D01*
D02*
G37*
G36*
X-10472D02*
D01*
Y-25231D01*
Y-24707D01*
D02*
G37*
%LPD*%
G36*
X-6780Y-24918D02*
X-6777Y-24923D01*
X-6775Y-24927D01*
X-6774Y-24928D01*
X-6687Y-25042D01*
X-6775Y-25158D01*
X-6778Y-25163D01*
X-6780Y-25167D01*
X-6780Y-25171D01*
Y-24912D01*
X-6780Y-24918D01*
D02*
G37*
G36*
X-8036Y-25048D02*
X-8035Y-25053D01*
X-8033Y-25056D01*
X-8033Y-25058D01*
X-7936Y-25187D01*
X-7933Y-25191D01*
X-7929Y-25194D01*
X-7925Y-25195D01*
X-7922Y-25197D01*
X-7919Y-25197D01*
X-7917Y-25198D01*
X-8037D01*
Y-25042D01*
X-8036Y-25048D01*
D02*
G37*
G36*
X-8426Y-24758D02*
X-8418Y-24761D01*
X-8409Y-24764D01*
X-8403Y-24767D01*
X-8397Y-24771D01*
X-8393Y-24775D01*
X-8390Y-24777D01*
X-8390Y-24778D01*
X-8383Y-24785D01*
X-8378Y-24793D01*
X-8375Y-24801D01*
X-8372Y-24808D01*
X-8370Y-24814D01*
X-8370Y-24819D01*
Y-24822D01*
Y-24823D01*
Y-25115D01*
X-8370Y-25126D01*
X-8373Y-25135D01*
X-8376Y-25143D01*
X-8379Y-25149D01*
X-8383Y-25155D01*
X-8387Y-25158D01*
X-8389Y-25161D01*
X-8390Y-25162D01*
X-8397Y-25168D01*
X-8405Y-25172D01*
X-8413Y-25176D01*
X-8421Y-25178D01*
X-8426Y-25180D01*
X-8432Y-25180D01*
X-8472D01*
X-8482Y-25180D01*
X-8490Y-25177D01*
X-8498Y-25175D01*
X-8505Y-25171D01*
X-8511Y-25167D01*
X-8514Y-25164D01*
X-8517Y-25162D01*
X-8518Y-25161D01*
X-8525Y-25154D01*
X-8529Y-25146D01*
X-8533Y-25138D01*
X-8535Y-25131D01*
X-8537Y-25125D01*
X-8537Y-25120D01*
Y-25117D01*
Y-25115D01*
Y-24823D01*
X-8537Y-24814D01*
X-8534Y-24805D01*
X-8531Y-24797D01*
X-8528Y-24790D01*
X-8525Y-24784D01*
X-8522Y-24781D01*
X-8520Y-24778D01*
X-8519Y-24777D01*
X-8511Y-24770D01*
X-8503Y-24766D01*
X-8496Y-24762D01*
X-8489Y-24760D01*
X-8482Y-24758D01*
X-8477Y-24758D01*
X-8436D01*
X-8426Y-24758D01*
D02*
G37*
G36*
X-9943D02*
X-9934Y-24761D01*
X-9926Y-24764D01*
X-9920Y-24767D01*
X-9914Y-24771D01*
X-9910Y-24775D01*
X-9907Y-24777D01*
X-9906Y-24778D01*
X-9900Y-24785D01*
X-9894Y-24793D01*
X-9891Y-24801D01*
X-9888Y-24808D01*
X-9887Y-24814D01*
X-9886Y-24819D01*
Y-24822D01*
Y-24823D01*
Y-25115D01*
X-9887Y-25126D01*
X-9889Y-25135D01*
X-9893Y-25143D01*
X-9896Y-25149D01*
X-9900Y-25155D01*
X-9903Y-25158D01*
X-9905Y-25161D01*
X-9906Y-25162D01*
X-9914Y-25168D01*
X-9922Y-25172D01*
X-9930Y-25176D01*
X-9937Y-25178D01*
X-9943Y-25180D01*
X-9948Y-25180D01*
X-9989D01*
X-9999Y-25180D01*
X-10007Y-25177D01*
X-10015Y-25175D01*
X-10022Y-25171D01*
X-10027Y-25167D01*
X-10031Y-25164D01*
X-10034Y-25162D01*
X-10035Y-25161D01*
X-10041Y-25154D01*
X-10046Y-25146D01*
X-10050Y-25138D01*
X-10052Y-25131D01*
X-10053Y-25125D01*
X-10054Y-25120D01*
Y-25117D01*
Y-25115D01*
Y-24823D01*
X-10053Y-24814D01*
X-10051Y-24805D01*
X-10048Y-24797D01*
X-10044Y-24790D01*
X-10041Y-24784D01*
X-10039Y-24781D01*
X-10036Y-24778D01*
X-10036Y-24777D01*
X-10028Y-24770D01*
X-10020Y-24766D01*
X-10013Y-24762D01*
X-10005Y-24760D01*
X-9999Y-24758D01*
X-9993Y-24758D01*
X-9953D01*
X-9943Y-24758D01*
D02*
G37*
G36*
X-7491Y-24707D02*
X-7495Y-24708D01*
X-7501Y-24713D01*
X-7505Y-24716D01*
X-7506Y-24718D01*
X-7507Y-24718D01*
X-7678Y-24962D01*
Y-24733D01*
Y-24728D01*
X-7680Y-24724D01*
X-7683Y-24718D01*
X-7686Y-24716D01*
X-7687Y-24714D01*
X-7687D01*
X-7693Y-24710D01*
X-7699Y-24707D01*
X-7704Y-24707D01*
X-7486D01*
X-7491Y-24707D01*
D02*
G37*
G36*
X-8976Y-24728D02*
X-8977Y-24724D01*
X-8980Y-24718D01*
X-8983Y-24716D01*
X-8984Y-24714D01*
X-8985D01*
X-8990Y-24710D01*
X-8996Y-24707D01*
X-9001Y-24707D01*
X-8976D01*
Y-24728D01*
D02*
G37*
G36*
X-9010Y-24708D02*
X-9015Y-24711D01*
X-9019Y-24714D01*
X-9020Y-24715D01*
Y-24716D01*
X-9024Y-24721D01*
X-9027Y-24727D01*
X-9027Y-24731D01*
Y-24732D01*
Y-24733D01*
Y-24926D01*
X-9195D01*
Y-24733D01*
Y-24728D01*
X-9197Y-24724D01*
X-9200Y-24718D01*
X-9203Y-24716D01*
X-9203Y-24714D01*
X-9204D01*
X-9210Y-24710D01*
X-9216Y-24707D01*
X-9220Y-24707D01*
X-9006D01*
X-9010Y-24708D01*
D02*
G37*
G36*
X-10262Y-25034D02*
X-10375D01*
X-10318Y-24809D01*
X-10262Y-25034D01*
D02*
G37*
D10*
X-13450Y-25750D02*
G03*
X-13200Y-25500I0J250D01*
G01*
Y-25300D02*
G03*
X-13450Y-25050I-250J0D01*
G01*
X-14400Y-25500D02*
G03*
X-14150Y-25750I250J0D01*
G01*
Y-25050D02*
G03*
X-14400Y-25300I0J-250D01*
G01*
X-13750Y-23750D02*
G03*
X-14000Y-23500I-250J0D01*
G01*
X-14200D02*
G03*
X-14450Y-23750I0J-250D01*
G01*
X-14000Y-24700D02*
G03*
X-13750Y-24450I0J250D01*
G01*
X-14450D02*
G03*
X-14200Y-24700I250J0D01*
G01*
X-13050Y-14150D02*
G03*
X-12800Y-13900I0J250D01*
G01*
Y-13700D02*
G03*
X-13050Y-13450I-250J0D01*
G01*
X-14000Y-13900D02*
G03*
X-13750Y-14150I250J0D01*
G01*
Y-13450D02*
G03*
X-14000Y-13700I0J-250D01*
G01*
X7150Y-26450D02*
G03*
X6900Y-26200I-250J0D01*
G01*
X6700D02*
G03*
X6450Y-26450I0J-250D01*
G01*
X6900Y-27400D02*
G03*
X7150Y-27150I0J250D01*
G01*
X6450D02*
G03*
X6700Y-27400I250J0D01*
G01*
X12250Y-8300D02*
G03*
X12250Y-8300I-50J0D01*
G01*
X-14150Y-25750D02*
X-13450D01*
X-13200Y-25500D02*
Y-25300D01*
X-14150Y-25050D02*
X-13450D01*
X-14400Y-25500D02*
Y-25300D01*
X-13750Y-24450D02*
Y-23750D01*
X-14200Y-23500D02*
X-14000D01*
X-14450Y-24450D02*
Y-23750D01*
X-14200Y-24700D02*
X-14000D01*
X-7150Y-4800D02*
X-6850D01*
X-8950Y-4700D02*
X-8650D01*
X-13750Y-14150D02*
X-13050D01*
X-12800Y-13900D02*
Y-13700D01*
X-13750Y-13450D02*
X-13050D01*
X-14000Y-13900D02*
Y-13700D01*
X7150Y-27150D02*
Y-26450D01*
X6700Y-26200D02*
X6900D01*
X6450Y-27150D02*
Y-26450D01*
X6700Y-27400D02*
X6900D01*
X1400Y-13200D02*
Y-12900D01*
Y-12400D02*
Y-12100D01*
X5100Y-14300D02*
X5300D01*
X5100Y-16100D02*
Y-13500D01*
Y-15200D02*
X5300D01*
X5100Y-16100D02*
X5300D01*
X1400Y-14000D02*
Y-13700D01*
X6450Y-13725D02*
X6750D01*
Y-13075D01*
X6450Y-13725D02*
Y-13075D01*
X6750D01*
X-12250Y-23875D02*
X-11950D01*
X-12250Y-24525D02*
Y-23875D01*
X-11950Y-24525D02*
Y-23875D01*
X-12250Y-24525D02*
X-11950D01*
X-12250Y-22800D02*
X-11950D01*
Y-23450D02*
Y-22800D01*
X-12250Y-23450D02*
X-11950D01*
X-12250D02*
Y-22800D01*
X2600Y-13500D02*
X5100D01*
X2400Y-13900D02*
X2600D01*
Y-12200D01*
X2400D02*
X2600D01*
X2400Y-13000D02*
X2600D01*
X1400Y-11600D02*
Y-11300D01*
X3950Y-14400D02*
X4250D01*
X3050D02*
X3350D01*
X2200Y-7650D02*
Y-7350D01*
X1900Y-9050D02*
Y-8750D01*
X200Y-8350D02*
Y-8050D01*
X1700Y-14850D02*
Y-14550D01*
X-5200Y-21000D02*
X-4800Y-20600D01*
X-5200Y-22900D02*
X-5000Y-23100D01*
X-5200Y-22900D02*
Y-21000D01*
X-3800Y-3100D02*
X-3600Y-2900D01*
X-3800Y-4000D02*
Y-3100D01*
X-4000Y-4200D02*
X-3800Y-4000D01*
X-4400Y-5150D02*
Y-5050D01*
X-4600Y-5050D02*
X-4200D01*
X-5300Y-5150D02*
Y-5050D01*
X-5500Y-5050D02*
X-5100D01*
X-10150Y-20700D02*
X-9850D01*
X-4550Y-2700D02*
X-4250D01*
X-5450D02*
X-5150D01*
X1300Y-10250D02*
Y-9950D01*
X12075Y-17250D02*
Y-16950D01*
Y-17250D02*
X12725D01*
X12075Y-16950D02*
X12725D01*
Y-17250D02*
Y-16950D01*
X11750Y-23500D02*
X12050Y-23500D01*
X-2350Y-8800D02*
X-1600Y-9550D01*
X-2350Y-17800D02*
X-1600Y-17050D01*
X-10600Y-9550D02*
X-9850Y-8800D01*
X-10600Y-17050D02*
X-9850Y-17800D01*
X-1600Y-17050D02*
Y-9550D01*
X-10600Y-17050D02*
Y-9550D01*
X-9850Y-8800D02*
X-2350D01*
X-9850Y-17800D02*
X-2350D01*
X-8100Y-21050D02*
Y-20750D01*
X-12350Y-21025D02*
X-12050D01*
Y-20375D01*
X-12350Y-21025D02*
Y-20375D01*
X-12050D01*
X-12350Y-21575D02*
X-12050D01*
X-12350Y-22225D02*
Y-21575D01*
X-12050Y-22225D02*
Y-21575D01*
X-12350Y-22225D02*
X-12050D01*
X-13400Y-2590D02*
Y-2290D01*
Y-3860D02*
Y-3560D01*
Y-5130D02*
Y-4830D01*
Y-6400D02*
Y-6100D01*
Y-7670D02*
Y-7370D01*
X12900Y-23550D02*
Y-23450D01*
X12775Y-23550D02*
X13025D01*
X9600Y-16400D02*
Y-15800D01*
Y-16400D02*
X10000D01*
Y-15800D01*
X9600D02*
X10000D01*
X5850Y-24525D02*
X6150D01*
Y-23875D01*
X5850Y-24525D02*
Y-23875D01*
X6150D01*
X5700Y-25350D02*
Y-25050D01*
X9600Y-15200D02*
X10000D01*
X9600D02*
Y-14600D01*
X10000D01*
Y-15200D02*
Y-14600D01*
X-8100Y-5050D02*
X-7700D01*
X-7900Y-5150D02*
Y-5050D01*
X-7250Y-2700D02*
X-6950D01*
X-6350D02*
X-6050D01*
X-6200Y-5150D02*
Y-5050D01*
X-6400D02*
X-6000D01*
X2200Y-6550D02*
Y-6250D01*
X3050Y-12600D02*
X3350D01*
X-3650Y-5100D02*
X-3350D01*
X-9900Y-6550D02*
Y-6250D01*
X400Y-18050D02*
Y-17750D01*
X-1350Y-21700D02*
X-1050D01*
X-4300Y-21550D02*
Y-21250D01*
X-2250Y-20700D02*
X-1950D01*
X-3050D02*
X-2750D01*
X-5800Y-20700D02*
X-5500D01*
X500Y-6950D02*
Y-6650D01*
X-12250Y-19825D02*
X-11950D01*
Y-19175D01*
X-12250Y-19825D02*
Y-19175D01*
X-11950D01*
X-13150Y-15400D02*
X-12850D01*
X400Y-19150D02*
Y-18850D01*
X-4300Y-20350D02*
Y-20050D01*
X550Y-16400D02*
X850D01*
X-13150Y-17300D02*
X-12850D01*
X7775Y-24175D02*
X11225D01*
Y-25825D02*
Y-24175D01*
X7775Y-25825D02*
X11225D01*
X7775D02*
Y-24175D01*
X5950Y-6100D02*
X6250D01*
X12850Y-3600D02*
X13150D01*
X11950Y-9900D02*
X12250D01*
X11480Y-8700D02*
X11880D01*
X11880Y-8300D02*
X11880Y-8700D01*
X6880D02*
X7280D01*
X6880D02*
X6880Y-8300D01*
X11880Y-4100D02*
Y-3700D01*
X11480Y-3700D02*
X11880Y-3700D01*
X6880D02*
X6880Y-4100D01*
X6880Y-3700D02*
X7280Y-3700D01*
X12850Y-7400D02*
X13150D01*
X11050Y-9900D02*
X11350D01*
X12850Y-9400D02*
X13150D01*
X11500Y-2850D02*
Y-2550D01*
X5950Y-7800D02*
X6250D01*
X6550Y-12000D02*
X6850D01*
X6300Y-10050D02*
X6700D01*
X6500D02*
Y-9950D01*
X7150Y-10100D02*
X7450D01*
X8775Y-10050D02*
X9025D01*
X8900D02*
Y-9950D01*
X9550Y-9900D02*
X9850D01*
X7950Y-10100D02*
X8250D01*
X-6200Y-22850D02*
Y-22550D01*
X-8100Y-22850D02*
Y-22550D01*
Y-21950D02*
Y-21650D01*
X-10795Y-4375D02*
Y-5025D01*
Y-4375D02*
X-10517D01*
X-10424Y-4406D01*
X-10393Y-4437D01*
X-10362Y-4499D01*
Y-4561D01*
X-10393Y-4623D01*
X-10424Y-4654D01*
X-10517Y-4685D01*
X-10795D01*
X-10579D02*
X-10362Y-5025D01*
X-9907Y-4375D02*
X-10217Y-4808D01*
X-9752D01*
X-9907Y-4375D02*
Y-5025D01*
X-9483Y-4375D02*
X-9576Y-4406D01*
X-9607Y-4468D01*
Y-4530D01*
X-9576Y-4592D01*
X-9514Y-4623D01*
X-9390Y-4654D01*
X-9298Y-4685D01*
X-9236Y-4746D01*
X-9205Y-4808D01*
Y-4901D01*
X-9236Y-4963D01*
X-9267Y-4994D01*
X-9359Y-5025D01*
X-9483D01*
X-9576Y-4994D01*
X-9607Y-4963D01*
X-9638Y-4901D01*
Y-4808D01*
X-9607Y-4746D01*
X-9545Y-4685D01*
X-9452Y-4654D01*
X-9328Y-4623D01*
X-9267Y-4592D01*
X-9236Y-4530D01*
Y-4468D01*
X-9267Y-4406D01*
X-9359Y-4375D01*
X-9483D01*
X-8225Y-4095D02*
X-7575D01*
X-8225D02*
Y-3817D01*
X-8194Y-3724D01*
X-8163Y-3693D01*
X-8101Y-3662D01*
X-8039D01*
X-7977Y-3693D01*
X-7946Y-3724D01*
X-7915Y-3817D01*
Y-4095D01*
Y-3879D02*
X-7575Y-3662D01*
X-8225Y-3207D02*
X-7792Y-3517D01*
Y-3052D01*
X-8225Y-3207D02*
X-7575D01*
X-8225Y-2505D02*
X-7575Y-2814D01*
X-8225Y-2938D02*
Y-2505D01*
X8435Y-13230D02*
X8404Y-13168D01*
X8342Y-13106D01*
X8280Y-13075D01*
X8156D01*
X8094Y-13106D01*
X8033Y-13168D01*
X8002Y-13230D01*
X7971Y-13323D01*
Y-13477D01*
X8002Y-13570D01*
X8033Y-13632D01*
X8094Y-13694D01*
X8156Y-13725D01*
X8280D01*
X8342Y-13694D01*
X8404Y-13632D01*
X8435Y-13570D01*
X8679Y-13075D02*
X9020D01*
X8834Y-13323D01*
X8927D01*
X8989Y-13354D01*
X9020Y-13385D01*
X9051Y-13477D01*
Y-13539D01*
X9020Y-13632D01*
X8958Y-13694D01*
X8865Y-13725D01*
X8772D01*
X8679Y-13694D01*
X8648Y-13663D01*
X8617Y-13601D01*
X9351Y-13075D02*
X9258Y-13106D01*
X9227Y-13168D01*
Y-13230D01*
X9258Y-13292D01*
X9320Y-13323D01*
X9444Y-13354D01*
X9537Y-13385D01*
X9598Y-13446D01*
X9629Y-13508D01*
Y-13601D01*
X9598Y-13663D01*
X9567Y-13694D01*
X9475Y-13725D01*
X9351D01*
X9258Y-13694D01*
X9227Y-13663D01*
X9196Y-13601D01*
Y-13508D01*
X9227Y-13446D01*
X9289Y-13385D01*
X9382Y-13354D01*
X9506Y-13323D01*
X9567Y-13292D01*
X9598Y-13230D01*
Y-13168D01*
X9567Y-13106D01*
X9475Y-13075D01*
X9351D01*
X-12565Y-25030D02*
X-12596Y-24968D01*
X-12658Y-24906D01*
X-12720Y-24875D01*
X-12844D01*
X-12906Y-24906D01*
X-12967Y-24968D01*
X-12998Y-25030D01*
X-13029Y-25123D01*
Y-25277D01*
X-12998Y-25370D01*
X-12967Y-25432D01*
X-12906Y-25494D01*
X-12844Y-25525D01*
X-12720D01*
X-12658Y-25494D01*
X-12596Y-25432D01*
X-12565Y-25370D01*
X-12352Y-25030D02*
Y-24999D01*
X-12321Y-24937D01*
X-12290Y-24906D01*
X-12228Y-24875D01*
X-12104D01*
X-12042Y-24906D01*
X-12011Y-24937D01*
X-11980Y-24999D01*
Y-25061D01*
X-12011Y-25123D01*
X-12073Y-25215D01*
X-12383Y-25525D01*
X-11949D01*
X-11618Y-24875D02*
X-11711Y-24906D01*
X-11773Y-24999D01*
X-11804Y-25154D01*
Y-25246D01*
X-11773Y-25401D01*
X-11711Y-25494D01*
X-11618Y-25525D01*
X-11556D01*
X-11463Y-25494D01*
X-11402Y-25401D01*
X-11371Y-25246D01*
Y-25154D01*
X-11402Y-24999D01*
X-11463Y-24906D01*
X-11556Y-24875D01*
X-11618D01*
X-567Y-26175D02*
X-133Y-26825D01*
Y-26175D02*
X-567Y-26825D01*
X12Y-26299D02*
X74Y-26268D01*
X167Y-26175D01*
Y-26825D01*
X-10314Y-21930D02*
X-10345Y-21868D01*
X-10407Y-21806D01*
X-10469Y-21775D01*
X-10593D01*
X-10655Y-21806D01*
X-10716Y-21868D01*
X-10747Y-21930D01*
X-10778Y-22023D01*
Y-22177D01*
X-10747Y-22270D01*
X-10716Y-22332D01*
X-10655Y-22394D01*
X-10593Y-22425D01*
X-10469D01*
X-10407Y-22394D01*
X-10345Y-22332D01*
X-10314Y-22270D01*
X-10132Y-21899D02*
X-10070Y-21868D01*
X-9977Y-21775D01*
Y-22425D01*
X-9500Y-21775D02*
X-9593Y-21806D01*
X-9624Y-21868D01*
Y-21930D01*
X-9593Y-21992D01*
X-9531Y-22023D01*
X-9407Y-22054D01*
X-9315Y-22085D01*
X-9253Y-22146D01*
X-9222Y-22208D01*
Y-22301D01*
X-9253Y-22363D01*
X-9284Y-22394D01*
X-9376Y-22425D01*
X-9500D01*
X-9593Y-22394D01*
X-9624Y-22363D01*
X-9655Y-22301D01*
Y-22208D01*
X-9624Y-22146D01*
X-9562Y-22085D01*
X-9469Y-22054D01*
X-9345Y-22023D01*
X-9284Y-21992D01*
X-9253Y-21930D01*
Y-21868D01*
X-9284Y-21806D01*
X-9376Y-21775D01*
X-9500D01*
X-4606Y-1075D02*
Y-1725D01*
Y-1075D02*
X-4327D01*
X-4235Y-1106D01*
X-4204Y-1137D01*
X-4173Y-1199D01*
Y-1261D01*
X-4204Y-1323D01*
X-4235Y-1354D01*
X-4327Y-1385D01*
X-4606D01*
X-4389D02*
X-4173Y-1725D01*
X-3873Y-1075D02*
X-3965Y-1106D01*
X-3996Y-1168D01*
Y-1230D01*
X-3965Y-1292D01*
X-3903Y-1323D01*
X-3780Y-1354D01*
X-3687Y-1385D01*
X-3625Y-1446D01*
X-3594Y-1508D01*
Y-1601D01*
X-3625Y-1663D01*
X-3656Y-1694D01*
X-3749Y-1725D01*
X-3873D01*
X-3965Y-1694D01*
X-3996Y-1663D01*
X-4027Y-1601D01*
Y-1508D01*
X-3996Y-1446D01*
X-3934Y-1385D01*
X-3842Y-1354D01*
X-3718Y-1323D01*
X-3656Y-1292D01*
X-3625Y-1230D01*
Y-1168D01*
X-3656Y-1106D01*
X-3749Y-1075D01*
X-3873D01*
X-5625Y-1706D02*
X-4975D01*
X-5625D02*
Y-1427D01*
X-5594Y-1335D01*
X-5563Y-1304D01*
X-5501Y-1273D01*
X-5439D01*
X-5377Y-1304D01*
X-5346Y-1335D01*
X-5315Y-1427D01*
Y-1706D01*
Y-1489D02*
X-4975Y-1273D01*
X-5625Y-694D02*
X-4975Y-1003D01*
X-5625Y-1127D02*
Y-694D01*
X-3444Y-2575D02*
Y-3225D01*
X-3011Y-2575D02*
Y-3225D01*
X-3444Y-2885D02*
X-3011D01*
X-2832Y-2575D02*
Y-3225D01*
X-2460D01*
X-2327Y-2575D02*
X-1987D01*
X-2172Y-2823D01*
X-2080D01*
X-2018Y-2854D01*
X-1987Y-2885D01*
X-1956Y-2977D01*
Y-3039D01*
X-1987Y-3132D01*
X-2049Y-3194D01*
X-2141Y-3225D01*
X-2234D01*
X-2327Y-3194D01*
X-2358Y-3163D01*
X-2389Y-3101D01*
X-5344Y-6075D02*
Y-6725D01*
X-4911Y-6075D02*
Y-6725D01*
X-5344Y-6385D02*
X-4911D01*
X-4732Y-6075D02*
Y-6725D01*
X-4360D01*
X-4258Y-6230D02*
Y-6199D01*
X-4227Y-6137D01*
X-4196Y-6106D01*
X-4134Y-6075D01*
X-4010D01*
X-3949Y-6106D01*
X-3918Y-6137D01*
X-3887Y-6199D01*
Y-6261D01*
X-3918Y-6323D01*
X-3980Y-6415D01*
X-4289Y-6725D01*
X-3856D01*
X13175Y-20890D02*
X13825D01*
X13175D02*
Y-20673D01*
X13206Y-20581D01*
X13268Y-20519D01*
X13330Y-20488D01*
X13423Y-20457D01*
X13577D01*
X13670Y-20488D01*
X13732Y-20519D01*
X13794Y-20581D01*
X13825Y-20673D01*
Y-20890D01*
Y-19816D02*
X13175Y-20064D01*
X13825Y-20311D01*
X13608Y-20219D02*
Y-19909D01*
X13299Y-19665D02*
X13268Y-19603D01*
X13175Y-19510D01*
X13825D01*
X-14056Y-9475D02*
Y-10125D01*
Y-9475D02*
X-13839D01*
X-13747Y-9506D01*
X-13685Y-9568D01*
X-13654Y-9630D01*
X-13623Y-9723D01*
Y-9877D01*
X-13654Y-9970D01*
X-13685Y-10032D01*
X-13747Y-10094D01*
X-13839Y-10125D01*
X-14056D01*
X-13477Y-9475D02*
Y-10125D01*
Y-9475D02*
X-13261D01*
X-13168Y-9506D01*
X-13106Y-9568D01*
X-13075Y-9630D01*
X-13044Y-9723D01*
Y-9877D01*
X-13075Y-9970D01*
X-13106Y-10032D01*
X-13168Y-10094D01*
X-13261Y-10125D01*
X-13477D01*
X-12899Y-9599D02*
X-12837Y-9568D01*
X-12744Y-9475D01*
Y-10125D01*
X1544Y-22875D02*
X1792Y-23525D01*
X2039Y-22875D02*
X1792Y-23525D01*
X2123Y-22875D02*
Y-23525D01*
Y-22875D02*
X2339D01*
X2432Y-22906D01*
X2494Y-22968D01*
X2525Y-23030D01*
X2556Y-23123D01*
Y-23277D01*
X2525Y-23370D01*
X2494Y-23432D01*
X2432Y-23494D01*
X2339Y-23525D01*
X2123D01*
X2701Y-22999D02*
X2763Y-22968D01*
X2856Y-22875D01*
Y-23525D01*
X7294Y-15775D02*
Y-16425D01*
Y-15775D02*
X7573D01*
X7665Y-15806D01*
X7696Y-15837D01*
X7727Y-15899D01*
Y-15961D01*
X7696Y-16023D01*
X7665Y-16054D01*
X7573Y-16085D01*
X7294D01*
X7511D02*
X7727Y-16425D01*
X7935Y-15775D02*
X8275D01*
X8089Y-16023D01*
X8182D01*
X8244Y-16054D01*
X8275Y-16085D01*
X8306Y-16177D01*
Y-16239D01*
X8275Y-16332D01*
X8213Y-16394D01*
X8120Y-16425D01*
X8027D01*
X7935Y-16394D01*
X7904Y-16363D01*
X7873Y-16301D01*
X8775Y-12529D02*
X9425D01*
X8775Y-12096D02*
X9425D01*
X9085Y-12529D02*
Y-12096D01*
X8775Y-11916D02*
X9425D01*
Y-11545D01*
X8868Y-11102D02*
X8806Y-11133D01*
X8775Y-11226D01*
Y-11288D01*
X8806Y-11381D01*
X8899Y-11443D01*
X9054Y-11474D01*
X9208D01*
X9332Y-11443D01*
X9394Y-11381D01*
X9425Y-11288D01*
Y-11257D01*
X9394Y-11164D01*
X9332Y-11102D01*
X9239Y-11071D01*
X9208D01*
X9115Y-11102D01*
X9054Y-11164D01*
X9023Y-11257D01*
Y-11288D01*
X9054Y-11381D01*
X9115Y-11443D01*
X9208Y-11474D01*
X13475Y-24144D02*
X14125D01*
X13475Y-23711D02*
X14125D01*
X13785Y-24144D02*
Y-23711D01*
X13475Y-23532D02*
X14125D01*
Y-23160D01*
X13475Y-22718D02*
Y-23027D01*
X13754Y-23058D01*
X13723Y-23027D01*
X13692Y-22934D01*
Y-22841D01*
X13723Y-22749D01*
X13785Y-22687D01*
X13877Y-22656D01*
X13939D01*
X14032Y-22687D01*
X14094Y-22749D01*
X14125Y-22841D01*
Y-22934D01*
X14094Y-23027D01*
X14063Y-23058D01*
X14001Y-23089D01*
X-8860Y-6075D02*
Y-6725D01*
X-8426Y-6075D02*
Y-6725D01*
X-8860Y-6385D02*
X-8426D01*
X-8247Y-6075D02*
Y-6725D01*
X-7876D01*
X-7495Y-6075D02*
X-7804Y-6508D01*
X-7340D01*
X-7495Y-6075D02*
Y-6725D01*
X-7005Y-6075D02*
Y-6725D01*
X-6572Y-6075D02*
Y-6725D01*
X-7005Y-6385D02*
X-6572D01*
X-6392Y-6075D02*
Y-6725D01*
X-6021D01*
X-5950Y-6199D02*
X-5888Y-6168D01*
X-5795Y-6075D01*
Y-6725D01*
X11575Y-25406D02*
X12225D01*
X11575D02*
Y-25127D01*
X11606Y-25035D01*
X11637Y-25004D01*
X11699Y-24973D01*
X11761D01*
X11823Y-25004D01*
X11854Y-25035D01*
X11885Y-25127D01*
Y-25406D01*
Y-25189D02*
X12225Y-24973D01*
X11575Y-24456D02*
Y-24765D01*
X11854Y-24796D01*
X11823Y-24765D01*
X11792Y-24673D01*
Y-24580D01*
X11823Y-24487D01*
X11885Y-24425D01*
X11977Y-24394D01*
X12039D01*
X12132Y-24425D01*
X12194Y-24487D01*
X12225Y-24580D01*
Y-24673D01*
X12194Y-24765D01*
X12163Y-24796D01*
X12101Y-24827D01*
X3156Y-6075D02*
Y-6725D01*
Y-6075D02*
X3434D01*
X3527Y-6106D01*
X3558Y-6137D01*
X3589Y-6199D01*
Y-6261D01*
X3558Y-6323D01*
X3527Y-6354D01*
X3434Y-6385D01*
X3156D01*
X3372D02*
X3589Y-6725D01*
X3734Y-6199D02*
X3796Y-6168D01*
X3889Y-6075D01*
Y-6725D01*
X4644Y-6075D02*
X4335Y-6725D01*
X4211Y-6075D02*
X4644D01*
X5275Y-10644D02*
X5925D01*
X5275Y-10211D02*
X5925D01*
X5585Y-10644D02*
Y-10211D01*
X5275Y-10032D02*
X5925D01*
Y-9660D01*
X5275Y-9156D02*
X5925Y-9465D01*
X5275Y-9589D02*
Y-9156D01*
X-12160Y-18430D02*
X-12191Y-18368D01*
X-12253Y-18306D01*
X-12315Y-18275D01*
X-12439D01*
X-12501Y-18306D01*
X-12563Y-18368D01*
X-12594Y-18430D01*
X-12625Y-18523D01*
Y-18677D01*
X-12594Y-18770D01*
X-12563Y-18832D01*
X-12501Y-18894D01*
X-12439Y-18925D01*
X-12315D01*
X-12253Y-18894D01*
X-12191Y-18832D01*
X-12160Y-18770D01*
X-11575Y-18492D02*
X-11606Y-18585D01*
X-11668Y-18646D01*
X-11761Y-18677D01*
X-11792D01*
X-11885Y-18646D01*
X-11947Y-18585D01*
X-11978Y-18492D01*
Y-18461D01*
X-11947Y-18368D01*
X-11885Y-18306D01*
X-11792Y-18275D01*
X-11761D01*
X-11668Y-18306D01*
X-11606Y-18368D01*
X-11575Y-18492D01*
Y-18646D01*
X-11606Y-18801D01*
X-11668Y-18894D01*
X-11761Y-18925D01*
X-11823D01*
X-11916Y-18894D01*
X-11947Y-18832D01*
X-3225Y-23295D02*
X-2575D01*
X-3225D02*
Y-23017D01*
X-3194Y-22924D01*
X-3163Y-22893D01*
X-3101Y-22862D01*
X-3039D01*
X-2977Y-22893D01*
X-2946Y-22924D01*
X-2915Y-23017D01*
Y-23295D01*
Y-23079D02*
X-2575Y-22862D01*
X-3070Y-22686D02*
X-3101D01*
X-3163Y-22655D01*
X-3194Y-22624D01*
X-3225Y-22562D01*
Y-22438D01*
X-3194Y-22376D01*
X-3163Y-22345D01*
X-3101Y-22314D01*
X-3039D01*
X-2977Y-22345D01*
X-2885Y-22407D01*
X-2575Y-22717D01*
Y-22283D01*
X-3225Y-21705D02*
X-2575Y-22014D01*
X-3225Y-22138D02*
Y-21705D01*
X1420Y-17675D02*
Y-18325D01*
Y-17675D02*
X1699D01*
X1792Y-17706D01*
X1822Y-17737D01*
X1853Y-17799D01*
Y-17861D01*
X1822Y-17923D01*
X1792Y-17954D01*
X1699Y-17985D01*
X1420D01*
X1637D02*
X1853Y-18325D01*
X2030Y-17830D02*
Y-17799D01*
X2061Y-17737D01*
X2092Y-17706D01*
X2154Y-17675D01*
X2277D01*
X2339Y-17706D01*
X2370Y-17737D01*
X2401Y-17799D01*
Y-17861D01*
X2370Y-17923D01*
X2308Y-18015D01*
X1999Y-18325D01*
X2432D01*
X2949Y-17768D02*
X2918Y-17706D01*
X2825Y-17675D01*
X2763D01*
X2670Y-17706D01*
X2608Y-17799D01*
X2578Y-17954D01*
Y-18108D01*
X2608Y-18232D01*
X2670Y-18294D01*
X2763Y-18325D01*
X2794D01*
X2887Y-18294D01*
X2949Y-18232D01*
X2980Y-18139D01*
Y-18108D01*
X2949Y-18015D01*
X2887Y-17954D01*
X2794Y-17923D01*
X2763D01*
X2670Y-17954D01*
X2608Y-18015D01*
X2578Y-18108D01*
X3105Y-7175D02*
Y-7825D01*
Y-7175D02*
X3383D01*
X3476Y-7206D01*
X3507Y-7237D01*
X3538Y-7299D01*
Y-7361D01*
X3507Y-7423D01*
X3476Y-7454D01*
X3383Y-7485D01*
X3105D01*
X3321D02*
X3538Y-7825D01*
X3745Y-7175D02*
X4086D01*
X3900Y-7423D01*
X3993D01*
X4055Y-7454D01*
X4086Y-7485D01*
X4117Y-7577D01*
Y-7639D01*
X4086Y-7732D01*
X4024Y-7794D01*
X3931Y-7825D01*
X3838D01*
X3745Y-7794D01*
X3714Y-7763D01*
X3683Y-7701D01*
X4448Y-7175D02*
X4355Y-7206D01*
X4293Y-7299D01*
X4262Y-7454D01*
Y-7546D01*
X4293Y-7701D01*
X4355Y-7794D01*
X4448Y-7825D01*
X4510D01*
X4602Y-7794D01*
X4664Y-7701D01*
X4695Y-7546D01*
Y-7454D01*
X4664Y-7299D01*
X4602Y-7206D01*
X4510Y-7175D01*
X4448D01*
X-1856Y-6375D02*
Y-7025D01*
Y-6375D02*
X-1578D01*
X-1485Y-6406D01*
X-1454Y-6437D01*
X-1423Y-6499D01*
Y-6561D01*
X-1454Y-6623D01*
X-1485Y-6654D01*
X-1578Y-6685D01*
X-1856D01*
X-1639D02*
X-1423Y-7025D01*
X-1246Y-6530D02*
Y-6499D01*
X-1215Y-6437D01*
X-1185Y-6406D01*
X-1123Y-6375D01*
X-999D01*
X-937Y-6406D01*
X-906Y-6437D01*
X-875Y-6499D01*
Y-6561D01*
X-906Y-6623D01*
X-968Y-6715D01*
X-1277Y-7025D01*
X-844D01*
X-699Y-6499D02*
X-637Y-6468D01*
X-544Y-6375D01*
Y-7025D01*
X2805Y-8575D02*
Y-9225D01*
Y-8575D02*
X3083D01*
X3176Y-8606D01*
X3207Y-8637D01*
X3238Y-8699D01*
Y-8761D01*
X3207Y-8823D01*
X3176Y-8854D01*
X3083Y-8885D01*
X2805D01*
X3021D02*
X3238Y-9225D01*
X3445Y-8575D02*
X3786D01*
X3600Y-8823D01*
X3693D01*
X3755Y-8854D01*
X3786Y-8885D01*
X3817Y-8977D01*
Y-9039D01*
X3786Y-9132D01*
X3724Y-9194D01*
X3631Y-9225D01*
X3538D01*
X3445Y-9194D01*
X3414Y-9163D01*
X3383Y-9101D01*
X4024Y-8575D02*
X4364D01*
X4179Y-8823D01*
X4272D01*
X4333Y-8854D01*
X4364Y-8885D01*
X4395Y-8977D01*
Y-9039D01*
X4364Y-9132D01*
X4302Y-9194D01*
X4210Y-9225D01*
X4117D01*
X4024Y-9194D01*
X3993Y-9163D01*
X3962Y-9101D01*
X-580Y-7175D02*
Y-7825D01*
Y-7175D02*
X-301D01*
X-208Y-7206D01*
X-178Y-7237D01*
X-147Y-7299D01*
Y-7361D01*
X-178Y-7423D01*
X-208Y-7454D01*
X-301Y-7485D01*
X-580D01*
X-363D02*
X-147Y-7825D01*
X30Y-7330D02*
Y-7299D01*
X61Y-7237D01*
X92Y-7206D01*
X154Y-7175D01*
X277D01*
X339Y-7206D01*
X370Y-7237D01*
X401Y-7299D01*
Y-7361D01*
X370Y-7423D01*
X308Y-7515D01*
X-1Y-7825D01*
X432D01*
X980Y-7392D02*
X949Y-7485D01*
X887Y-7546D01*
X794Y-7577D01*
X763D01*
X670Y-7546D01*
X608Y-7485D01*
X578Y-7392D01*
Y-7361D01*
X608Y-7268D01*
X670Y-7206D01*
X763Y-7175D01*
X794D01*
X887Y-7206D01*
X949Y-7268D01*
X980Y-7392D01*
Y-7546D01*
X949Y-7701D01*
X887Y-7794D01*
X794Y-7825D01*
X732D01*
X639Y-7794D01*
X608Y-7732D01*
X-2325Y-23195D02*
X-1675D01*
X-2325D02*
Y-22917D01*
X-2294Y-22824D01*
X-2263Y-22793D01*
X-2201Y-22762D01*
X-2139D01*
X-2077Y-22793D01*
X-2046Y-22824D01*
X-2015Y-22917D01*
Y-23195D01*
Y-22979D02*
X-1675Y-22762D01*
X-2170Y-22586D02*
X-2201D01*
X-2263Y-22555D01*
X-2294Y-22524D01*
X-2325Y-22462D01*
Y-22338D01*
X-2294Y-22276D01*
X-2263Y-22245D01*
X-2201Y-22214D01*
X-2139D01*
X-2077Y-22245D01*
X-1985Y-22307D01*
X-1675Y-22617D01*
Y-22183D01*
X-2325Y-21976D02*
Y-21636D01*
X-2077Y-21821D01*
Y-21728D01*
X-2046Y-21667D01*
X-2015Y-21636D01*
X-1923Y-21605D01*
X-1861D01*
X-1768Y-21636D01*
X-1706Y-21698D01*
X-1675Y-21790D01*
Y-21883D01*
X-1706Y-21976D01*
X-1737Y-22007D01*
X-1799Y-22038D01*
X-6725Y-21329D02*
X-6075D01*
X-6725D02*
Y-21050D01*
X-6694Y-20957D01*
X-6663Y-20926D01*
X-6601Y-20896D01*
X-6539D01*
X-6477Y-20926D01*
X-6446Y-20957D01*
X-6415Y-21050D01*
Y-21329D01*
Y-21112D02*
X-6075Y-20896D01*
X-6601Y-20750D02*
X-6632Y-20688D01*
X-6725Y-20595D01*
X-6075D01*
X-6508Y-19871D02*
X-6415Y-19902D01*
X-6354Y-19964D01*
X-6323Y-20057D01*
Y-20088D01*
X-6354Y-20181D01*
X-6415Y-20243D01*
X-6508Y-20274D01*
X-6539D01*
X-6632Y-20243D01*
X-6694Y-20181D01*
X-6725Y-20088D01*
Y-20057D01*
X-6694Y-19964D01*
X-6632Y-19902D01*
X-6508Y-19871D01*
X-6354D01*
X-6199Y-19902D01*
X-6106Y-19964D01*
X-6075Y-20057D01*
Y-20119D01*
X-6106Y-20212D01*
X-6168Y-20243D01*
X-3611Y-3575D02*
Y-4225D01*
Y-3575D02*
X-3332D01*
X-3239Y-3606D01*
X-3208Y-3637D01*
X-3178Y-3699D01*
Y-3761D01*
X-3208Y-3823D01*
X-3239Y-3854D01*
X-3332Y-3885D01*
X-3611D01*
X-3394D02*
X-3178Y-4225D01*
X-2661Y-3575D02*
X-2970D01*
X-3001Y-3854D01*
X-2970Y-3823D01*
X-2877Y-3792D01*
X-2785D01*
X-2692Y-3823D01*
X-2630Y-3885D01*
X-2599Y-3977D01*
Y-4039D01*
X-2630Y-4132D01*
X-2692Y-4194D01*
X-2785Y-4225D01*
X-2877D01*
X-2970Y-4194D01*
X-3001Y-4163D01*
X-3032Y-4101D01*
X-2144Y-3575D02*
X-2453Y-4008D01*
X-1989D01*
X-2144Y-3575D02*
Y-4225D01*
X-725Y-22460D02*
X-75D01*
X-725D02*
Y-22181D01*
X-694Y-22088D01*
X-663Y-22057D01*
X-601Y-22026D01*
X-539D01*
X-477Y-22057D01*
X-446Y-22088D01*
X-415Y-22181D01*
Y-22460D01*
Y-22243D02*
X-75Y-22026D01*
X-601Y-21881D02*
X-632Y-21819D01*
X-725Y-21726D01*
X-75D01*
X-725Y-21095D02*
X-292Y-21404D01*
Y-20940D01*
X-725Y-21095D02*
X-75D01*
X-4944Y-21875D02*
Y-22525D01*
Y-21875D02*
X-4666D01*
X-4573Y-21906D01*
X-4542Y-21937D01*
X-4511Y-21999D01*
Y-22061D01*
X-4542Y-22123D01*
X-4573Y-22154D01*
X-4666Y-22185D01*
X-4944D01*
X-4728D02*
X-4511Y-22525D01*
X-4366Y-21999D02*
X-4304Y-21968D01*
X-4211Y-21875D01*
Y-22525D01*
X-3518Y-21875D02*
X-3827D01*
X-3858Y-22154D01*
X-3827Y-22123D01*
X-3734Y-22092D01*
X-3641D01*
X-3549Y-22123D01*
X-3487Y-22185D01*
X-3456Y-22277D01*
Y-22339D01*
X-3487Y-22432D01*
X-3549Y-22494D01*
X-3641Y-22525D01*
X-3734D01*
X-3827Y-22494D01*
X-3858Y-22463D01*
X-3889Y-22401D01*
X5575Y-12705D02*
X6225D01*
X5575D02*
Y-12426D01*
X5606Y-12334D01*
X5637Y-12303D01*
X5699Y-12272D01*
X5761D01*
X5823Y-12303D01*
X5854Y-12334D01*
X5885Y-12426D01*
Y-12705D01*
Y-12488D02*
X6225Y-12272D01*
X5699Y-12126D02*
X5668Y-12064D01*
X5575Y-11972D01*
X6225D01*
X5699Y-11650D02*
X5668Y-11588D01*
X5575Y-11495D01*
X6225D01*
X12405Y-1775D02*
Y-2425D01*
Y-1775D02*
X12683D01*
X12776Y-1806D01*
X12807Y-1837D01*
X12838Y-1899D01*
Y-1961D01*
X12807Y-2023D01*
X12776Y-2054D01*
X12683Y-2085D01*
X12405D01*
X12621D02*
X12838Y-2425D01*
X13417Y-1775D02*
X13107Y-2425D01*
X12983Y-1775D02*
X13417D01*
X13748D02*
X13655Y-1806D01*
X13593Y-1899D01*
X13562Y-2054D01*
Y-2146D01*
X13593Y-2301D01*
X13655Y-2394D01*
X13748Y-2425D01*
X13810D01*
X13902Y-2394D01*
X13964Y-2301D01*
X13995Y-2146D01*
Y-2054D01*
X13964Y-1899D01*
X13902Y-1806D01*
X13810Y-1775D01*
X13748D01*
X7975Y-12544D02*
X8625D01*
X7975D02*
Y-12266D01*
X8006Y-12173D01*
X8037Y-12142D01*
X8099Y-12111D01*
X8161D01*
X8223Y-12142D01*
X8254Y-12173D01*
X8285Y-12266D01*
Y-12544D01*
Y-12328D02*
X8625Y-12111D01*
X8099Y-11966D02*
X8068Y-11904D01*
X7975Y-11811D01*
X8625D01*
X7975Y-11303D02*
X8006Y-11396D01*
X8099Y-11458D01*
X8254Y-11489D01*
X8346D01*
X8501Y-11458D01*
X8594Y-11396D01*
X8625Y-11303D01*
Y-11241D01*
X8594Y-11149D01*
X8501Y-11087D01*
X8346Y-11056D01*
X8254D01*
X8099Y-11087D01*
X8006Y-11149D01*
X7975Y-11241D01*
Y-11303D01*
X-7425Y-1690D02*
X-6775D01*
X-7425D02*
Y-1412D01*
X-7394Y-1319D01*
X-7363Y-1288D01*
X-7301Y-1257D01*
X-7239D01*
X-7177Y-1288D01*
X-7146Y-1319D01*
X-7115Y-1412D01*
Y-1690D01*
Y-1474D02*
X-6775Y-1257D01*
X-7208Y-710D02*
X-7115Y-740D01*
X-7054Y-802D01*
X-7023Y-895D01*
Y-926D01*
X-7054Y-1019D01*
X-7115Y-1081D01*
X-7208Y-1112D01*
X-7239D01*
X-7332Y-1081D01*
X-7394Y-1019D01*
X-7425Y-926D01*
Y-895D01*
X-7394Y-802D01*
X-7332Y-740D01*
X-7208Y-710D01*
X-7054D01*
X-6899Y-740D01*
X-6806Y-802D01*
X-6775Y-895D01*
Y-957D01*
X-6806Y-1050D01*
X-6868Y-1081D01*
X-6525Y-1690D02*
X-5875D01*
X-6525D02*
Y-1412D01*
X-6494Y-1319D01*
X-6463Y-1288D01*
X-6401Y-1257D01*
X-6339D01*
X-6277Y-1288D01*
X-6246Y-1319D01*
X-6215Y-1412D01*
Y-1690D01*
Y-1474D02*
X-5875Y-1257D01*
X-6432Y-740D02*
X-6494Y-771D01*
X-6525Y-864D01*
Y-926D01*
X-6494Y-1019D01*
X-6401Y-1081D01*
X-6246Y-1112D01*
X-6092D01*
X-5968Y-1081D01*
X-5906Y-1019D01*
X-5875Y-926D01*
Y-895D01*
X-5906Y-802D01*
X-5968Y-740D01*
X-6061Y-710D01*
X-6092D01*
X-6185Y-740D01*
X-6246Y-802D01*
X-6277Y-895D01*
Y-926D01*
X-6246Y-1019D01*
X-6185Y-1081D01*
X-6092Y-1112D01*
X-14125Y-16111D02*
X-13475D01*
X-14125D02*
Y-15832D01*
X-14094Y-15739D01*
X-14063Y-15708D01*
X-14001Y-15678D01*
X-13939D01*
X-13877Y-15708D01*
X-13846Y-15739D01*
X-13815Y-15832D01*
Y-16111D01*
Y-15894D02*
X-13475Y-15678D01*
X-14125Y-15470D02*
Y-15130D01*
X-13877Y-15315D01*
Y-15223D01*
X-13846Y-15161D01*
X-13815Y-15130D01*
X-13723Y-15099D01*
X-13661D01*
X-13568Y-15130D01*
X-13506Y-15192D01*
X-13475Y-15285D01*
Y-15377D01*
X-13506Y-15470D01*
X-13537Y-15501D01*
X-13599Y-15532D01*
X-14125Y-14644D02*
X-13692Y-14953D01*
Y-14489D01*
X-14125Y-14644D02*
X-13475D01*
X-12033Y-7408D02*
X-12492Y-7867D01*
X-12033Y-7408D02*
X-11836Y-7605D01*
X-11792Y-7692D01*
X-11792Y-7736D01*
X-11814Y-7802D01*
X-11858Y-7846D01*
X-11923Y-7867D01*
X-11967D01*
X-12054Y-7824D01*
X-12251Y-7627D01*
X-12098Y-7780D02*
X-12186Y-8174D01*
X-11405Y-8036D02*
X-11930Y-8123D01*
X-11602Y-8452D01*
X-11405Y-8036D02*
X-11864Y-8495D01*
X-10952Y-8489D02*
X-11170Y-8270D01*
X-11389Y-8445D01*
X-11346Y-8445D01*
X-11258Y-8489D01*
X-11192Y-8554D01*
X-11149Y-8642D01*
Y-8730D01*
X-11192Y-8817D01*
X-11236Y-8861D01*
X-11324Y-8905D01*
X-11411D01*
X-11499Y-8861D01*
X-11564Y-8795D01*
X-11608Y-8708D01*
Y-8664D01*
X-11586Y-8598D01*
X-12044Y-5997D02*
X-12503Y-6456D01*
X-12044Y-5997D02*
X-11847Y-6194D01*
X-11803Y-6281D01*
X-11803Y-6325D01*
X-11825Y-6391D01*
X-11868Y-6435D01*
X-11934Y-6456D01*
X-11978D01*
X-12065Y-6413D01*
X-12262Y-6216D01*
X-12109Y-6369D02*
X-12197Y-6763D01*
X-11416Y-6625D02*
X-11941Y-6712D01*
X-11612Y-7041D01*
X-11416Y-6625D02*
X-11875Y-7084D01*
X-11006Y-7034D02*
X-11532Y-7122D01*
X-11203Y-7450D01*
X-11006Y-7034D02*
X-11466Y-7494D01*
X-12033Y-4708D02*
X-12492Y-5167D01*
X-12033Y-4708D02*
X-11836Y-4905D01*
X-11792Y-4992D01*
X-11792Y-5036D01*
X-11814Y-5102D01*
X-11858Y-5146D01*
X-11923Y-5167D01*
X-11967D01*
X-12054Y-5124D01*
X-12251Y-4927D01*
X-12098Y-5080D02*
X-12186Y-5474D01*
X-11405Y-5336D02*
X-11930Y-5423D01*
X-11602Y-5752D01*
X-11405Y-5336D02*
X-11864Y-5795D01*
X-11170Y-5570D02*
X-10930Y-5811D01*
X-11236Y-5854D01*
X-11170Y-5920D01*
X-11149Y-5986D01*
Y-6030D01*
X-11192Y-6117D01*
X-11236Y-6161D01*
X-11324Y-6205D01*
X-11411D01*
X-11499Y-6161D01*
X-11564Y-6095D01*
X-11608Y-6008D01*
Y-5964D01*
X-11586Y-5898D01*
X-12033Y-3408D02*
X-12492Y-3867D01*
X-12033Y-3408D02*
X-11836Y-3605D01*
X-11792Y-3692D01*
X-11792Y-3736D01*
X-11814Y-3802D01*
X-11858Y-3846D01*
X-11923Y-3867D01*
X-11967D01*
X-12054Y-3824D01*
X-12251Y-3627D01*
X-12098Y-3780D02*
X-12186Y-4174D01*
X-11405Y-4036D02*
X-11930Y-4123D01*
X-11602Y-4452D01*
X-11405Y-4036D02*
X-11864Y-4495D01*
X-11302Y-4358D02*
X-11280Y-4336D01*
X-11214Y-4314D01*
X-11170Y-4314D01*
X-11105Y-4336D01*
X-11017Y-4423D01*
X-10995Y-4489D01*
Y-4533D01*
X-11017Y-4598D01*
X-11061Y-4642D01*
X-11127Y-4664D01*
X-11236Y-4686D01*
X-11674D01*
X-11367Y-4992D01*
X-14056Y-1275D02*
Y-1925D01*
Y-1275D02*
X-13778D01*
X-13685Y-1306D01*
X-13654Y-1337D01*
X-13623Y-1399D01*
Y-1461D01*
X-13654Y-1523D01*
X-13685Y-1554D01*
X-13778Y-1585D01*
X-14056D01*
X-13839D02*
X-13623Y-1925D01*
X-13168Y-1275D02*
X-13477Y-1708D01*
X-13013D01*
X-13168Y-1275D02*
Y-1925D01*
X-12899Y-1399D02*
X-12837Y-1368D01*
X-12744Y-1275D01*
Y-1925D01*
X-10638Y-22775D02*
Y-23425D01*
X-10267D01*
X-10164Y-22930D02*
Y-22899D01*
X-10133Y-22837D01*
X-10103Y-22806D01*
X-10041Y-22775D01*
X-9917D01*
X-9855Y-22806D01*
X-9824Y-22837D01*
X-9793Y-22899D01*
Y-22961D01*
X-9824Y-23023D01*
X-9886Y-23115D01*
X-10195Y-23425D01*
X-9762D01*
X-8430Y-20030D02*
X-8461Y-19968D01*
X-8522Y-19906D01*
X-8584Y-19875D01*
X-8708D01*
X-8770Y-19906D01*
X-8832Y-19968D01*
X-8863Y-20030D01*
X-8894Y-20123D01*
Y-20277D01*
X-8863Y-20370D01*
X-8832Y-20432D01*
X-8770Y-20494D01*
X-8708Y-20525D01*
X-8584D01*
X-8522Y-20494D01*
X-8461Y-20432D01*
X-8430Y-20370D01*
X-8247Y-19999D02*
X-8185Y-19968D01*
X-8092Y-19875D01*
Y-20525D01*
X-7461Y-19875D02*
X-7770Y-20308D01*
X-7306D01*
X-7461Y-19875D02*
Y-20525D01*
X-10214Y-5430D02*
X-10245Y-5368D01*
X-10307Y-5306D01*
X-10369Y-5275D01*
X-10493D01*
X-10554Y-5306D01*
X-10616Y-5368D01*
X-10647Y-5430D01*
X-10678Y-5523D01*
Y-5677D01*
X-10647Y-5770D01*
X-10616Y-5832D01*
X-10554Y-5894D01*
X-10493Y-5925D01*
X-10369D01*
X-10307Y-5894D01*
X-10245Y-5832D01*
X-10214Y-5770D01*
X-10032Y-5399D02*
X-9970Y-5368D01*
X-9877Y-5275D01*
Y-5925D01*
X-9122Y-5275D02*
X-9431Y-5925D01*
X-9555Y-5275D02*
X-9122D01*
X2901Y-9930D02*
X2870Y-9868D01*
X2809Y-9806D01*
X2747Y-9775D01*
X2623D01*
X2561Y-9806D01*
X2499Y-9868D01*
X2468Y-9930D01*
X2437Y-10023D01*
Y-10177D01*
X2468Y-10270D01*
X2499Y-10332D01*
X2561Y-10394D01*
X2623Y-10425D01*
X2747D01*
X2809Y-10394D01*
X2870Y-10332D01*
X2901Y-10270D01*
X3084Y-9899D02*
X3146Y-9868D01*
X3239Y-9775D01*
Y-10425D01*
X3932Y-9868D02*
X3901Y-9806D01*
X3808Y-9775D01*
X3746D01*
X3653Y-9806D01*
X3591Y-9899D01*
X3561Y-10054D01*
Y-10208D01*
X3591Y-10332D01*
X3653Y-10394D01*
X3746Y-10425D01*
X3777D01*
X3870Y-10394D01*
X3932Y-10332D01*
X3963Y-10239D01*
Y-10208D01*
X3932Y-10115D01*
X3870Y-10054D01*
X3777Y-10023D01*
X3746D01*
X3653Y-10054D01*
X3591Y-10115D01*
X3561Y-10208D01*
X1330Y-17014D02*
X1268Y-17045D01*
X1206Y-17107D01*
X1175Y-17169D01*
Y-17293D01*
X1206Y-17354D01*
X1268Y-17416D01*
X1330Y-17447D01*
X1423Y-17478D01*
X1577D01*
X1670Y-17447D01*
X1732Y-17416D01*
X1794Y-17354D01*
X1825Y-17293D01*
Y-17169D01*
X1794Y-17107D01*
X1732Y-17045D01*
X1670Y-17014D01*
X1299Y-16832D02*
X1268Y-16770D01*
X1175Y-16677D01*
X1825D01*
X1175Y-15984D02*
Y-16293D01*
X1454Y-16324D01*
X1423Y-16293D01*
X1392Y-16200D01*
Y-16107D01*
X1423Y-16015D01*
X1485Y-15953D01*
X1577Y-15922D01*
X1639D01*
X1732Y-15953D01*
X1794Y-16015D01*
X1825Y-16107D01*
Y-16200D01*
X1794Y-16293D01*
X1763Y-16324D01*
X1701Y-16355D01*
X-4414Y-23230D02*
X-4445Y-23168D01*
X-4507Y-23106D01*
X-4569Y-23075D01*
X-4693D01*
X-4754Y-23106D01*
X-4816Y-23168D01*
X-4847Y-23230D01*
X-4878Y-23323D01*
Y-23477D01*
X-4847Y-23570D01*
X-4816Y-23632D01*
X-4754Y-23694D01*
X-4693Y-23725D01*
X-4569D01*
X-4507Y-23694D01*
X-4445Y-23632D01*
X-4414Y-23570D01*
X-4232Y-23199D02*
X-4170Y-23168D01*
X-4077Y-23075D01*
Y-23725D01*
X-3693Y-23075D02*
X-3353D01*
X-3538Y-23323D01*
X-3445D01*
X-3384Y-23354D01*
X-3353Y-23385D01*
X-3322Y-23477D01*
Y-23539D01*
X-3353Y-23632D01*
X-3415Y-23694D01*
X-3507Y-23725D01*
X-3600D01*
X-3693Y-23694D01*
X-3724Y-23663D01*
X-3755Y-23601D01*
X-14070Y-20614D02*
X-14132Y-20645D01*
X-14194Y-20707D01*
X-14225Y-20769D01*
Y-20893D01*
X-14194Y-20955D01*
X-14132Y-21016D01*
X-14070Y-21047D01*
X-13977Y-21078D01*
X-13823D01*
X-13730Y-21047D01*
X-13668Y-21016D01*
X-13606Y-20955D01*
X-13575Y-20893D01*
Y-20769D01*
X-13606Y-20707D01*
X-13668Y-20645D01*
X-13730Y-20614D01*
X-14101Y-20432D02*
X-14132Y-20370D01*
X-14225Y-20277D01*
X-13575D01*
X-14225Y-19769D02*
X-14194Y-19862D01*
X-14101Y-19924D01*
X-13946Y-19955D01*
X-13854D01*
X-13699Y-19924D01*
X-13606Y-19862D01*
X-13575Y-19769D01*
Y-19707D01*
X-13606Y-19615D01*
X-13699Y-19553D01*
X-13854Y-19522D01*
X-13946D01*
X-14101Y-19553D01*
X-14194Y-19615D01*
X-14225Y-19707D01*
Y-19769D01*
X-13970Y-17814D02*
X-14032Y-17845D01*
X-14094Y-17907D01*
X-14125Y-17969D01*
Y-18093D01*
X-14094Y-18154D01*
X-14032Y-18216D01*
X-13970Y-18247D01*
X-13877Y-18278D01*
X-13723D01*
X-13630Y-18247D01*
X-13568Y-18216D01*
X-13506Y-18154D01*
X-13475Y-18093D01*
Y-17969D01*
X-13506Y-17907D01*
X-13568Y-17845D01*
X-13630Y-17814D01*
X-14001Y-17632D02*
X-14032Y-17570D01*
X-14125Y-17477D01*
X-13475D01*
X-13970Y-17124D02*
X-14001D01*
X-14063Y-17093D01*
X-14094Y-17062D01*
X-14125Y-17000D01*
Y-16876D01*
X-14094Y-16815D01*
X-14063Y-16784D01*
X-14001Y-16753D01*
X-13939D01*
X-13877Y-16784D01*
X-13785Y-16845D01*
X-13475Y-17155D01*
Y-16722D01*
X-14070Y-22275D02*
X-14132Y-22306D01*
X-14194Y-22368D01*
X-14225Y-22430D01*
Y-22553D01*
X-14194Y-22615D01*
X-14132Y-22677D01*
X-14070Y-22708D01*
X-13977Y-22739D01*
X-13823D01*
X-13730Y-22708D01*
X-13668Y-22677D01*
X-13606Y-22615D01*
X-13575Y-22553D01*
Y-22430D01*
X-13606Y-22368D01*
X-13668Y-22306D01*
X-13730Y-22275D01*
X-14101Y-22092D02*
X-14132Y-22030D01*
X-14225Y-21938D01*
X-13575D01*
X-14101Y-21616D02*
X-14132Y-21554D01*
X-14225Y-21461D01*
X-13575D01*
X5624Y-25830D02*
X5593Y-25768D01*
X5531Y-25706D01*
X5469Y-25675D01*
X5346D01*
X5284Y-25706D01*
X5222Y-25768D01*
X5191Y-25830D01*
X5160Y-25923D01*
Y-26077D01*
X5191Y-26170D01*
X5222Y-26232D01*
X5284Y-26294D01*
X5346Y-26325D01*
X5469D01*
X5531Y-26294D01*
X5593Y-26232D01*
X5624Y-26170D01*
X5838Y-25830D02*
Y-25799D01*
X5869Y-25737D01*
X5900Y-25706D01*
X5961Y-25675D01*
X6085D01*
X6147Y-25706D01*
X6178Y-25737D01*
X6209Y-25799D01*
Y-25861D01*
X6178Y-25923D01*
X6116Y-26015D01*
X5807Y-26325D01*
X6240D01*
X13409Y-16230D02*
X13378Y-16168D01*
X13316Y-16106D01*
X13254Y-16075D01*
X13130D01*
X13068Y-16106D01*
X13006Y-16168D01*
X12975Y-16230D01*
X12945Y-16323D01*
Y-16477D01*
X12975Y-16570D01*
X13006Y-16632D01*
X13068Y-16694D01*
X13130Y-16725D01*
X13254D01*
X13316Y-16694D01*
X13378Y-16632D01*
X13409Y-16570D01*
X13901Y-16075D02*
X13591Y-16508D01*
X14055D01*
X13901Y-16075D02*
Y-16725D01*
X6930Y-25137D02*
X6868Y-25168D01*
X6806Y-25229D01*
X6775Y-25291D01*
Y-25415D01*
X6806Y-25477D01*
X6868Y-25539D01*
X6930Y-25570D01*
X7023Y-25601D01*
X7177D01*
X7270Y-25570D01*
X7332Y-25539D01*
X7394Y-25477D01*
X7425Y-25415D01*
Y-25291D01*
X7394Y-25229D01*
X7332Y-25168D01*
X7270Y-25137D01*
X6899Y-24954D02*
X6868Y-24892D01*
X6775Y-24799D01*
X7425D01*
X-8606Y-23275D02*
Y-23925D01*
Y-23275D02*
X-8327D01*
X-8235Y-23306D01*
X-8204Y-23337D01*
X-8173Y-23399D01*
Y-23461D01*
X-8204Y-23523D01*
X-8235Y-23554D01*
X-8327Y-23585D01*
X-8606D01*
X-8389D02*
X-8173Y-23925D01*
X-7996Y-23430D02*
Y-23399D01*
X-7965Y-23337D01*
X-7934Y-23306D01*
X-7873Y-23275D01*
X-7749D01*
X-7687Y-23306D01*
X-7656Y-23337D01*
X-7625Y-23399D01*
Y-23461D01*
X-7656Y-23523D01*
X-7718Y-23615D01*
X-8027Y-23925D01*
X-7594D01*
X-6567Y-23275D02*
Y-23925D01*
Y-23275D02*
X-6288D01*
X-6195Y-23306D01*
X-6164Y-23337D01*
X-6133Y-23399D01*
Y-23461D01*
X-6164Y-23523D01*
X-6195Y-23554D01*
X-6288Y-23585D01*
X-6567D01*
X-6350D02*
X-6133Y-23925D01*
X-5988Y-23399D02*
X-5926Y-23368D01*
X-5833Y-23275D01*
Y-23925D01*
X9879Y-13675D02*
Y-14325D01*
Y-13675D02*
X10157D01*
X10250Y-13706D01*
X10281Y-13737D01*
X10312Y-13799D01*
Y-13861D01*
X10281Y-13923D01*
X10250Y-13954D01*
X10157Y-13985D01*
X9879D01*
X10095D02*
X10312Y-14325D01*
X10767Y-13675D02*
X10457Y-14108D01*
X10921D01*
X10767Y-13675D02*
Y-14325D01*
X-6676Y-21730D02*
X-6707Y-21668D01*
X-6769Y-21606D01*
X-6831Y-21575D01*
X-6954D01*
X-7016Y-21606D01*
X-7078Y-21668D01*
X-7109Y-21730D01*
X-7140Y-21823D01*
Y-21977D01*
X-7109Y-22070D01*
X-7078Y-22132D01*
X-7016Y-22194D01*
X-6954Y-22225D01*
X-6831D01*
X-6769Y-22194D01*
X-6707Y-22132D01*
X-6676Y-22070D01*
X-6431Y-21575D02*
X-6091D01*
X-6277Y-21823D01*
X-6184D01*
X-6122Y-21854D01*
X-6091Y-21885D01*
X-6060Y-21977D01*
Y-22039D01*
X-6091Y-22132D01*
X-6153Y-22194D01*
X-6246Y-22225D01*
X-6339D01*
X-6431Y-22194D01*
X-6462Y-22163D01*
X-6493Y-22101D01*
X11520Y-25775D02*
Y-26425D01*
Y-25775D02*
X11799D01*
X11892Y-25806D01*
X11922Y-25837D01*
X11953Y-25899D01*
Y-25961D01*
X11922Y-26023D01*
X11892Y-26054D01*
X11799Y-26085D01*
X11520D01*
X11737D02*
X11953Y-26425D01*
X12254Y-25775D02*
X12161Y-25806D01*
X12130Y-25868D01*
Y-25930D01*
X12161Y-25992D01*
X12223Y-26023D01*
X12346Y-26054D01*
X12439Y-26085D01*
X12501Y-26146D01*
X12532Y-26208D01*
Y-26301D01*
X12501Y-26363D01*
X12470Y-26394D01*
X12377Y-26425D01*
X12254D01*
X12161Y-26394D01*
X12130Y-26363D01*
X12099Y-26301D01*
Y-26208D01*
X12130Y-26146D01*
X12192Y-26085D01*
X12285Y-26054D01*
X12408Y-26023D01*
X12470Y-25992D01*
X12501Y-25930D01*
Y-25868D01*
X12470Y-25806D01*
X12377Y-25775D01*
X12254D01*
X13049Y-25868D02*
X13018Y-25806D01*
X12925Y-25775D01*
X12863D01*
X12770Y-25806D01*
X12708Y-25899D01*
X12678Y-26054D01*
Y-26208D01*
X12708Y-26332D01*
X12770Y-26394D01*
X12863Y-26425D01*
X12894D01*
X12987Y-26394D01*
X13049Y-26332D01*
X13080Y-26239D01*
Y-26208D01*
X13049Y-26115D01*
X12987Y-26054D01*
X12894Y-26023D01*
X12863D01*
X12770Y-26054D01*
X12708Y-26115D01*
X12678Y-26208D01*
X4875Y-8678D02*
X5525D01*
X4875D02*
Y-8400D01*
X4906Y-8307D01*
X4937Y-8276D01*
X4999Y-8245D01*
X5061D01*
X5123Y-8276D01*
X5154Y-8307D01*
X5185Y-8400D01*
Y-8678D01*
Y-8462D02*
X5525Y-8245D01*
X4968Y-7728D02*
X4906Y-7759D01*
X4875Y-7852D01*
Y-7914D01*
X4906Y-8007D01*
X4999Y-8069D01*
X5154Y-8100D01*
X5308D01*
X5432Y-8069D01*
X5494Y-8007D01*
X5525Y-7914D01*
Y-7883D01*
X5494Y-7790D01*
X5432Y-7728D01*
X5339Y-7697D01*
X5308D01*
X5215Y-7728D01*
X5154Y-7790D01*
X5123Y-7883D01*
Y-7914D01*
X5154Y-8007D01*
X5215Y-8069D01*
X5308Y-8100D01*
X4875Y-7493D02*
Y-7153D01*
X5123Y-7338D01*
Y-7245D01*
X5154Y-7184D01*
X5185Y-7153D01*
X5277Y-7122D01*
X5339D01*
X5432Y-7153D01*
X5494Y-7215D01*
X5525Y-7307D01*
Y-7400D01*
X5494Y-7493D01*
X5463Y-7524D01*
X5401Y-7555D01*
X-378Y-19475D02*
Y-20125D01*
Y-19475D02*
X-100D01*
X-7Y-19506D01*
X24Y-19537D01*
X55Y-19599D01*
Y-19661D01*
X24Y-19723D01*
X-7Y-19754D01*
X-100Y-19785D01*
X-378D01*
X-162D02*
X55Y-20125D01*
X572Y-19568D02*
X541Y-19506D01*
X448Y-19475D01*
X386D01*
X293Y-19506D01*
X231Y-19599D01*
X200Y-19754D01*
Y-19908D01*
X231Y-20032D01*
X293Y-20094D01*
X386Y-20125D01*
X417D01*
X510Y-20094D01*
X572Y-20032D01*
X603Y-19939D01*
Y-19908D01*
X572Y-19815D01*
X510Y-19754D01*
X417Y-19723D01*
X386D01*
X293Y-19754D01*
X231Y-19815D01*
X200Y-19908D01*
X776Y-19630D02*
Y-19599D01*
X807Y-19537D01*
X838Y-19506D01*
X900Y-19475D01*
X1024D01*
X1085Y-19506D01*
X1116Y-19537D01*
X1147Y-19599D01*
Y-19661D01*
X1116Y-19723D01*
X1054Y-19815D01*
X745Y-20125D01*
X1178D01*
X1261Y-15175D02*
Y-15825D01*
Y-15175D02*
X1539D01*
X1632Y-15206D01*
X1663Y-15237D01*
X1694Y-15299D01*
Y-15361D01*
X1663Y-15423D01*
X1632Y-15454D01*
X1539Y-15485D01*
X1261D01*
X1478D02*
X1694Y-15825D01*
X2211Y-15268D02*
X2180Y-15206D01*
X2087Y-15175D01*
X2025D01*
X1932Y-15206D01*
X1871Y-15299D01*
X1840Y-15454D01*
Y-15608D01*
X1871Y-15732D01*
X1932Y-15794D01*
X2025Y-15825D01*
X2056D01*
X2149Y-15794D01*
X2211Y-15732D01*
X2242Y-15639D01*
Y-15608D01*
X2211Y-15515D01*
X2149Y-15454D01*
X2056Y-15423D01*
X2025D01*
X1932Y-15454D01*
X1871Y-15515D01*
X1840Y-15608D01*
X2384Y-15299D02*
X2446Y-15268D01*
X2539Y-15175D01*
Y-15825D01*
X2422Y-10975D02*
Y-11625D01*
Y-10975D02*
X2700D01*
X2793Y-11006D01*
X2824Y-11037D01*
X2855Y-11099D01*
Y-11161D01*
X2824Y-11223D01*
X2793Y-11254D01*
X2700Y-11285D01*
X2422D01*
X2638D02*
X2855Y-11625D01*
X3372Y-11068D02*
X3341Y-11006D01*
X3248Y-10975D01*
X3186D01*
X3093Y-11006D01*
X3031Y-11099D01*
X3000Y-11254D01*
Y-11408D01*
X3031Y-11532D01*
X3093Y-11594D01*
X3186Y-11625D01*
X3217D01*
X3310Y-11594D01*
X3372Y-11532D01*
X3403Y-11439D01*
Y-11408D01*
X3372Y-11315D01*
X3310Y-11254D01*
X3217Y-11223D01*
X3186D01*
X3093Y-11254D01*
X3031Y-11315D01*
X3000Y-11408D01*
X3731Y-10975D02*
X3638Y-11006D01*
X3576Y-11099D01*
X3545Y-11254D01*
Y-11346D01*
X3576Y-11501D01*
X3638Y-11594D01*
X3731Y-11625D01*
X3793D01*
X3885Y-11594D01*
X3947Y-11501D01*
X3978Y-11346D01*
Y-11254D01*
X3947Y-11099D01*
X3885Y-11006D01*
X3793Y-10975D01*
X3731D01*
X5422Y-13975D02*
Y-14625D01*
Y-13975D02*
X5700D01*
X5793Y-14006D01*
X5824Y-14037D01*
X5855Y-14099D01*
Y-14161D01*
X5824Y-14223D01*
X5793Y-14254D01*
X5700Y-14285D01*
X5422D01*
X5638D02*
X5855Y-14625D01*
X6372Y-14068D02*
X6341Y-14006D01*
X6248Y-13975D01*
X6186D01*
X6093Y-14006D01*
X6031Y-14099D01*
X6000Y-14254D01*
Y-14408D01*
X6031Y-14532D01*
X6093Y-14594D01*
X6186Y-14625D01*
X6217D01*
X6310Y-14594D01*
X6372Y-14532D01*
X6403Y-14439D01*
Y-14408D01*
X6372Y-14315D01*
X6310Y-14254D01*
X6217Y-14223D01*
X6186D01*
X6093Y-14254D01*
X6031Y-14315D01*
X6000Y-14408D01*
X6916Y-13975D02*
X6607D01*
X6576Y-14254D01*
X6607Y-14223D01*
X6700Y-14192D01*
X6793D01*
X6885Y-14223D01*
X6947Y-14285D01*
X6978Y-14377D01*
Y-14439D01*
X6947Y-14532D01*
X6885Y-14594D01*
X6793Y-14625D01*
X6700D01*
X6607Y-14594D01*
X6576Y-14563D01*
X6545Y-14501D01*
X5420Y-14875D02*
Y-15525D01*
Y-14875D02*
X5699D01*
X5792Y-14906D01*
X5822Y-14937D01*
X5853Y-14999D01*
Y-15061D01*
X5822Y-15123D01*
X5792Y-15154D01*
X5699Y-15185D01*
X5420D01*
X5637D02*
X5853Y-15525D01*
X6370Y-14875D02*
X6061D01*
X6030Y-15154D01*
X6061Y-15123D01*
X6154Y-15092D01*
X6246D01*
X6339Y-15123D01*
X6401Y-15185D01*
X6432Y-15277D01*
Y-15339D01*
X6401Y-15432D01*
X6339Y-15494D01*
X6246Y-15525D01*
X6154D01*
X6061Y-15494D01*
X6030Y-15463D01*
X5999Y-15401D01*
X6980Y-15092D02*
X6949Y-15185D01*
X6887Y-15246D01*
X6794Y-15277D01*
X6763D01*
X6670Y-15246D01*
X6608Y-15185D01*
X6578Y-15092D01*
Y-15061D01*
X6608Y-14968D01*
X6670Y-14906D01*
X6763Y-14875D01*
X6794D01*
X6887Y-14906D01*
X6949Y-14968D01*
X6980Y-15092D01*
Y-15246D01*
X6949Y-15401D01*
X6887Y-15494D01*
X6794Y-15525D01*
X6732D01*
X6639Y-15494D01*
X6608Y-15432D01*
X5306Y-15775D02*
Y-16425D01*
Y-15775D02*
X5585D01*
X5678Y-15806D01*
X5709Y-15837D01*
X5739Y-15899D01*
Y-15961D01*
X5709Y-16023D01*
X5678Y-16054D01*
X5585Y-16085D01*
X5306D01*
X5523D02*
X5739Y-16425D01*
X6256Y-15868D02*
X6225Y-15806D01*
X6132Y-15775D01*
X6071D01*
X5978Y-15806D01*
X5916Y-15899D01*
X5885Y-16054D01*
Y-16208D01*
X5916Y-16332D01*
X5978Y-16394D01*
X6071Y-16425D01*
X6102D01*
X6194Y-16394D01*
X6256Y-16332D01*
X6287Y-16239D01*
Y-16208D01*
X6256Y-16115D01*
X6194Y-16054D01*
X6102Y-16023D01*
X6071D01*
X5978Y-16054D01*
X5916Y-16115D01*
X5885Y-16208D01*
X6739Y-15775D02*
X6430Y-16208D01*
X6894D01*
X6739Y-15775D02*
Y-16425D01*
X3675Y-13295D02*
X4325D01*
X3675D02*
Y-13017D01*
X3706Y-12924D01*
X3737Y-12893D01*
X3799Y-12862D01*
X3861D01*
X3923Y-12893D01*
X3954Y-12924D01*
X3985Y-13017D01*
Y-13295D01*
Y-13079D02*
X4325Y-12862D01*
X3675Y-12562D02*
X3706Y-12655D01*
X3768Y-12686D01*
X3830D01*
X3892Y-12655D01*
X3923Y-12593D01*
X3954Y-12469D01*
X3985Y-12376D01*
X4046Y-12314D01*
X4108Y-12283D01*
X4201D01*
X4263Y-12314D01*
X4294Y-12345D01*
X4325Y-12438D01*
Y-12562D01*
X4294Y-12655D01*
X4263Y-12686D01*
X4201Y-12717D01*
X4108D01*
X4046Y-12686D01*
X3985Y-12624D01*
X3954Y-12531D01*
X3923Y-12407D01*
X3892Y-12345D01*
X3830Y-12314D01*
X3768D01*
X3706Y-12345D01*
X3675Y-12438D01*
Y-12562D01*
X3830Y-12107D02*
X3799D01*
X3737Y-12076D01*
X3706Y-12045D01*
X3675Y-11983D01*
Y-11859D01*
X3706Y-11798D01*
X3737Y-11767D01*
X3799Y-11736D01*
X3861D01*
X3923Y-11767D01*
X4015Y-11828D01*
X4325Y-12138D01*
Y-11705D01*
X9675Y-12456D02*
X10325D01*
X9675D02*
Y-12178D01*
X9706Y-12085D01*
X9737Y-12054D01*
X9799Y-12023D01*
X9861D01*
X9923Y-12054D01*
X9954Y-12085D01*
X9985Y-12178D01*
Y-12456D01*
Y-12239D02*
X10325Y-12023D01*
X9675Y-11723D02*
X9706Y-11815D01*
X9768Y-11846D01*
X9830D01*
X9892Y-11815D01*
X9923Y-11754D01*
X9954Y-11630D01*
X9985Y-11537D01*
X10046Y-11475D01*
X10108Y-11444D01*
X10201D01*
X10263Y-11475D01*
X10294Y-11506D01*
X10325Y-11599D01*
Y-11723D01*
X10294Y-11815D01*
X10263Y-11846D01*
X10201Y-11877D01*
X10108D01*
X10046Y-11846D01*
X9985Y-11785D01*
X9954Y-11692D01*
X9923Y-11568D01*
X9892Y-11506D01*
X9830Y-11475D01*
X9768D01*
X9706Y-11506D01*
X9675Y-11599D01*
Y-11723D01*
X9799Y-11299D02*
X9768Y-11237D01*
X9675Y-11144D01*
X10325D01*
X7175Y-12595D02*
X7825D01*
X7175D02*
Y-12317D01*
X7206Y-12224D01*
X7237Y-12193D01*
X7299Y-12162D01*
X7361D01*
X7423Y-12193D01*
X7454Y-12224D01*
X7485Y-12317D01*
Y-12595D01*
Y-12379D02*
X7825Y-12162D01*
X7175Y-11583D02*
X7825Y-11893D01*
X7175Y-12017D02*
Y-11583D01*
X7330Y-11407D02*
X7299D01*
X7237Y-11376D01*
X7206Y-11345D01*
X7175Y-11283D01*
Y-11159D01*
X7206Y-11098D01*
X7237Y-11067D01*
X7299Y-11036D01*
X7361D01*
X7423Y-11067D01*
X7515Y-11128D01*
X7825Y-11438D01*
Y-11005D01*
X13475Y-4378D02*
X14125D01*
X13475D02*
Y-4100D01*
X13506Y-4007D01*
X13537Y-3976D01*
X13599Y-3945D01*
X13661D01*
X13723Y-3976D01*
X13754Y-4007D01*
X13785Y-4100D01*
Y-4378D01*
Y-4162D02*
X14125Y-3945D01*
X13568Y-3428D02*
X13506Y-3459D01*
X13475Y-3552D01*
Y-3614D01*
X13506Y-3707D01*
X13599Y-3769D01*
X13754Y-3800D01*
X13908D01*
X14032Y-3769D01*
X14094Y-3707D01*
X14125Y-3614D01*
Y-3583D01*
X14094Y-3490D01*
X14032Y-3428D01*
X13939Y-3397D01*
X13908D01*
X13815Y-3428D01*
X13754Y-3490D01*
X13723Y-3583D01*
Y-3614D01*
X13754Y-3707D01*
X13815Y-3769D01*
X13908Y-3800D01*
X13475Y-2822D02*
X14125Y-3131D01*
X13475Y-3255D02*
Y-2822D01*
X2875Y-16895D02*
X3525D01*
X2875D02*
Y-16617D01*
X2906Y-16524D01*
X2937Y-16493D01*
X2999Y-16462D01*
X3061D01*
X3123Y-16493D01*
X3154Y-16524D01*
X3185Y-16617D01*
Y-16895D01*
Y-16679D02*
X3525Y-16462D01*
X2875Y-15945D02*
Y-16255D01*
X3154Y-16286D01*
X3123Y-16255D01*
X3092Y-16162D01*
Y-16069D01*
X3123Y-15976D01*
X3185Y-15914D01*
X3277Y-15883D01*
X3339D01*
X3432Y-15914D01*
X3494Y-15976D01*
X3525Y-16069D01*
Y-16162D01*
X3494Y-16255D01*
X3463Y-16286D01*
X3401Y-16317D01*
X2875Y-15305D02*
X3525Y-15614D01*
X2875Y-15738D02*
Y-15305D01*
X11775Y-12595D02*
X12425D01*
X11775D02*
Y-12317D01*
X11806Y-12224D01*
X11837Y-12193D01*
X11899Y-12162D01*
X11961D01*
X12023Y-12193D01*
X12054Y-12224D01*
X12085Y-12317D01*
Y-12595D01*
Y-12379D02*
X12425Y-12162D01*
X11775Y-11645D02*
Y-11955D01*
X12054Y-11986D01*
X12023Y-11955D01*
X11992Y-11862D01*
Y-11769D01*
X12023Y-11676D01*
X12085Y-11614D01*
X12177Y-11583D01*
X12239D01*
X12332Y-11614D01*
X12394Y-11676D01*
X12425Y-11769D01*
Y-11862D01*
X12394Y-11955D01*
X12363Y-11986D01*
X12301Y-12017D01*
X11775Y-11067D02*
Y-11376D01*
X12054Y-11407D01*
X12023Y-11376D01*
X11992Y-11283D01*
Y-11190D01*
X12023Y-11098D01*
X12085Y-11036D01*
X12177Y-11005D01*
X12239D01*
X12332Y-11036D01*
X12394Y-11098D01*
X12425Y-11190D01*
Y-11283D01*
X12394Y-11376D01*
X12363Y-11407D01*
X12301Y-11438D01*
X3775Y-16895D02*
X4425D01*
X3775D02*
Y-16617D01*
X3806Y-16524D01*
X3837Y-16493D01*
X3899Y-16462D01*
X3961D01*
X4023Y-16493D01*
X4054Y-16524D01*
X4085Y-16617D01*
Y-16895D01*
Y-16679D02*
X4425Y-16462D01*
X3775Y-15945D02*
Y-16255D01*
X4054Y-16286D01*
X4023Y-16255D01*
X3992Y-16162D01*
Y-16069D01*
X4023Y-15976D01*
X4085Y-15914D01*
X4177Y-15883D01*
X4239D01*
X4332Y-15914D01*
X4394Y-15976D01*
X4425Y-16069D01*
Y-16162D01*
X4394Y-16255D01*
X4363Y-16286D01*
X4301Y-16317D01*
X3930Y-15707D02*
X3899D01*
X3837Y-15676D01*
X3806Y-15645D01*
X3775Y-15583D01*
Y-15459D01*
X3806Y-15398D01*
X3837Y-15367D01*
X3899Y-15336D01*
X3961D01*
X4023Y-15367D01*
X4115Y-15428D01*
X4425Y-15738D01*
Y-15305D01*
X10775Y-12595D02*
X11425D01*
X10775D02*
Y-12317D01*
X10806Y-12224D01*
X10837Y-12193D01*
X10899Y-12162D01*
X10961D01*
X11023Y-12193D01*
X11054Y-12224D01*
X11085Y-12317D01*
Y-12595D01*
Y-12379D02*
X11425Y-12162D01*
X10775Y-11645D02*
Y-11955D01*
X11054Y-11986D01*
X11023Y-11955D01*
X10992Y-11862D01*
Y-11769D01*
X11023Y-11676D01*
X11085Y-11614D01*
X11177Y-11583D01*
X11239D01*
X11332Y-11614D01*
X11394Y-11676D01*
X11425Y-11769D01*
Y-11862D01*
X11394Y-11955D01*
X11363Y-11986D01*
X11301Y-12017D01*
X10775Y-11252D02*
X10806Y-11345D01*
X10899Y-11407D01*
X11054Y-11438D01*
X11146D01*
X11301Y-11407D01*
X11394Y-11345D01*
X11425Y-11252D01*
Y-11190D01*
X11394Y-11098D01*
X11301Y-11036D01*
X11146Y-11005D01*
X11054D01*
X10899Y-11036D01*
X10806Y-11098D01*
X10775Y-11190D01*
Y-11252D01*
X13475Y-8211D02*
X14125D01*
X13475D02*
Y-7932D01*
X13506Y-7839D01*
X13537Y-7808D01*
X13599Y-7778D01*
X13661D01*
X13723Y-7808D01*
X13754Y-7839D01*
X13785Y-7932D01*
Y-8211D01*
Y-7994D02*
X14125Y-7778D01*
X13475Y-7199D02*
X14125Y-7508D01*
X13475Y-7632D02*
Y-7199D01*
Y-6744D02*
X13908Y-7053D01*
Y-6589D01*
X13475Y-6744D02*
X14125D01*
X12830Y-11665D02*
X12768Y-11696D01*
X12706Y-11758D01*
X12675Y-11820D01*
Y-11944D01*
X12706Y-12006D01*
X12768Y-12067D01*
X12830Y-12098D01*
X12923Y-12129D01*
X13077D01*
X13170Y-12098D01*
X13232Y-12067D01*
X13294Y-12006D01*
X13325Y-11944D01*
Y-11820D01*
X13294Y-11758D01*
X13232Y-11696D01*
X13170Y-11665D01*
X12830Y-11452D02*
X12799D01*
X12737Y-11421D01*
X12706Y-11390D01*
X12675Y-11328D01*
Y-11204D01*
X12706Y-11142D01*
X12737Y-11111D01*
X12799Y-11080D01*
X12861D01*
X12923Y-11111D01*
X13015Y-11173D01*
X13325Y-11483D01*
Y-11049D01*
X12675Y-10749D02*
X12706Y-10842D01*
X12768Y-10873D01*
X12830D01*
X12892Y-10842D01*
X12923Y-10780D01*
X12954Y-10656D01*
X12985Y-10563D01*
X13046Y-10502D01*
X13108Y-10471D01*
X13201D01*
X13263Y-10502D01*
X13294Y-10533D01*
X13325Y-10625D01*
Y-10749D01*
X13294Y-10842D01*
X13263Y-10873D01*
X13201Y-10904D01*
X13108D01*
X13046Y-10873D01*
X12985Y-10811D01*
X12954Y-10718D01*
X12923Y-10594D01*
X12892Y-10533D01*
X12830Y-10502D01*
X12768D01*
X12706Y-10533D01*
X12675Y-10625D01*
Y-10749D01*
X4875Y-6663D02*
X5525D01*
X4875D02*
Y-6384D01*
X4906Y-6291D01*
X4937Y-6261D01*
X4999Y-6230D01*
X5061D01*
X5123Y-6261D01*
X5154Y-6291D01*
X5185Y-6384D01*
Y-6663D01*
Y-6446D02*
X5525Y-6230D01*
X4968Y-5713D02*
X4906Y-5744D01*
X4875Y-5837D01*
Y-5898D01*
X4906Y-5991D01*
X4999Y-6053D01*
X5154Y-6084D01*
X5308D01*
X5432Y-6053D01*
X5494Y-5991D01*
X5525Y-5898D01*
Y-5868D01*
X5494Y-5775D01*
X5432Y-5713D01*
X5339Y-5682D01*
X5308D01*
X5215Y-5713D01*
X5154Y-5775D01*
X5123Y-5868D01*
Y-5898D01*
X5154Y-5991D01*
X5215Y-6053D01*
X5308Y-6084D01*
X4968Y-5168D02*
X4906Y-5199D01*
X4875Y-5292D01*
Y-5354D01*
X4906Y-5447D01*
X4999Y-5509D01*
X5154Y-5539D01*
X5308D01*
X5432Y-5509D01*
X5494Y-5447D01*
X5525Y-5354D01*
Y-5323D01*
X5494Y-5230D01*
X5432Y-5168D01*
X5339Y-5137D01*
X5308D01*
X5215Y-5168D01*
X5154Y-5230D01*
X5123Y-5323D01*
Y-5354D01*
X5154Y-5447D01*
X5215Y-5509D01*
X5308Y-5539D01*
X12575Y-6395D02*
X13225D01*
X12575D02*
Y-6179D01*
X12606Y-6086D01*
X12668Y-6024D01*
X12730Y-5993D01*
X12823Y-5962D01*
X12977D01*
X13070Y-5993D01*
X13132Y-6024D01*
X13194Y-6086D01*
X13225Y-6179D01*
Y-6395D01*
X12575Y-5817D02*
X13225D01*
X12575D02*
Y-5600D01*
X12606Y-5507D01*
X12668Y-5445D01*
X12730Y-5414D01*
X12823Y-5383D01*
X12977D01*
X13070Y-5414D01*
X13132Y-5445D01*
X13194Y-5507D01*
X13225Y-5600D01*
Y-5817D01*
X12730Y-5207D02*
X12699D01*
X12637Y-5176D01*
X12606Y-5145D01*
X12575Y-5083D01*
Y-4959D01*
X12606Y-4898D01*
X12637Y-4867D01*
X12699Y-4836D01*
X12761D01*
X12823Y-4867D01*
X12915Y-4928D01*
X13225Y-5238D01*
Y-4805D01*
D11*
X13900Y-13900D02*
G03*
X13900Y-13900I-1100J0D01*
G01*
X-8288Y-2500D02*
G03*
X-8288Y-2500I-1712J0D01*
G01*
D12*
X-10425Y-19050D02*
G03*
X-10425Y-19050I-125J0D01*
G01*
X2600Y-25675D02*
Y-23925D01*
D13*
X10825Y-18000D02*
Y-17050D01*
Y-23550D02*
Y-22500D01*
X7500Y-23550D02*
X10825D01*
X7500D02*
Y-17050D01*
X10825D01*
D14*
X100Y-23975D02*
Y-23850D01*
X4100D01*
Y-23975D02*
Y-23850D01*
X100Y-25750D02*
Y-25625D01*
Y-25750D02*
X4100D01*
Y-25625D01*
M02*
