G04*
G04 #@! TF.GenerationSoftware,Altium Limited,Altium Designer,24.9.1 (31)*
G04*
G04 Layer_Physical_Order=6*
G04 Layer_Color=13460847*
%FSLAX43Y43*%
%MOMM*%
G71*
G04*
G04 #@! TF.SameCoordinates,EB6F8884-3A13-42B7-98C6-1BA732C3788B*
G04*
G04*
G04 #@! TF.FilePolarity,Positive*
G04*
G01*
G75*
%ADD12C,0.250*%
%ADD13C,0.200*%
%ADD14C,0.150*%
G04:AMPARAMS|DCode=34|XSize=0.5mm|YSize=1mm|CornerRadius=0.125mm|HoleSize=0mm|Usage=FLASHONLY|Rotation=90.000|XOffset=0mm|YOffset=0mm|HoleType=Round|Shape=RoundedRectangle|*
%AMROUNDEDRECTD34*
21,1,0.500,0.750,0,0,90.0*
21,1,0.250,1.000,0,0,90.0*
1,1,0.250,0.375,0.125*
1,1,0.250,0.375,-0.125*
1,1,0.250,-0.375,-0.125*
1,1,0.250,-0.375,0.125*
%
%ADD34ROUNDEDRECTD34*%
G04:AMPARAMS|DCode=35|XSize=0.5mm|YSize=1mm|CornerRadius=0.125mm|HoleSize=0mm|Usage=FLASHONLY|Rotation=180.000|XOffset=0mm|YOffset=0mm|HoleType=Round|Shape=RoundedRectangle|*
%AMROUNDEDRECTD35*
21,1,0.500,0.750,0,0,180.0*
21,1,0.250,1.000,0,0,180.0*
1,1,0.250,-0.125,0.375*
1,1,0.250,0.125,0.375*
1,1,0.250,0.125,-0.375*
1,1,0.250,-0.125,-0.375*
%
%ADD35ROUNDEDRECTD35*%
%ADD59C,0.160*%
G04:AMPARAMS|DCode=60|XSize=0.5mm|YSize=0.6mm|CornerRadius=0.063mm|HoleSize=0mm|Usage=FLASHONLY|Rotation=270.000|XOffset=0mm|YOffset=0mm|HoleType=Round|Shape=RoundedRectangle|*
%AMROUNDEDRECTD60*
21,1,0.500,0.475,0,0,270.0*
21,1,0.375,0.600,0,0,270.0*
1,1,0.125,-0.238,-0.188*
1,1,0.125,-0.238,0.188*
1,1,0.125,0.238,0.188*
1,1,0.125,0.238,-0.188*
%
%ADD60ROUNDEDRECTD60*%
G04:AMPARAMS|DCode=61|XSize=0.5mm|YSize=0.6mm|CornerRadius=0.063mm|HoleSize=0mm|Usage=FLASHONLY|Rotation=0.000|XOffset=0mm|YOffset=0mm|HoleType=Round|Shape=RoundedRectangle|*
%AMROUNDEDRECTD61*
21,1,0.500,0.475,0,0,0.0*
21,1,0.375,0.600,0,0,0.0*
1,1,0.125,0.188,-0.238*
1,1,0.125,-0.188,-0.238*
1,1,0.125,-0.188,0.238*
1,1,0.125,0.188,0.238*
%
%ADD61ROUNDEDRECTD61*%
G04:AMPARAMS|DCode=62|XSize=0.8mm|YSize=0.75mm|CornerRadius=0.094mm|HoleSize=0mm|Usage=FLASHONLY|Rotation=0.000|XOffset=0mm|YOffset=0mm|HoleType=Round|Shape=RoundedRectangle|*
%AMROUNDEDRECTD62*
21,1,0.800,0.563,0,0,0.0*
21,1,0.613,0.750,0,0,0.0*
1,1,0.188,0.306,-0.281*
1,1,0.188,-0.306,-0.281*
1,1,0.188,-0.306,0.281*
1,1,0.188,0.306,0.281*
%
%ADD62ROUNDEDRECTD62*%
G04:AMPARAMS|DCode=63|XSize=0.9mm|YSize=0.7mm|CornerRadius=0.088mm|HoleSize=0mm|Usage=FLASHONLY|Rotation=0.000|XOffset=0mm|YOffset=0mm|HoleType=Round|Shape=RoundedRectangle|*
%AMROUNDEDRECTD63*
21,1,0.900,0.525,0,0,0.0*
21,1,0.725,0.700,0,0,0.0*
1,1,0.175,0.363,-0.263*
1,1,0.175,-0.363,-0.263*
1,1,0.175,-0.363,0.263*
1,1,0.175,0.363,0.263*
%
%ADD63ROUNDEDRECTD63*%
G04:AMPARAMS|DCode=68|XSize=0.6mm|YSize=0.5mm|CornerRadius=0.063mm|HoleSize=0mm|Usage=FLASHONLY|Rotation=90.000|XOffset=0mm|YOffset=0mm|HoleType=Round|Shape=RoundedRectangle|*
%AMROUNDEDRECTD68*
21,1,0.600,0.375,0,0,90.0*
21,1,0.475,0.500,0,0,90.0*
1,1,0.125,0.188,0.238*
1,1,0.125,0.188,-0.238*
1,1,0.125,-0.188,-0.238*
1,1,0.125,-0.188,0.238*
%
%ADD68ROUNDEDRECTD68*%
G04:AMPARAMS|DCode=69|XSize=0.6mm|YSize=0.5mm|CornerRadius=0.063mm|HoleSize=0mm|Usage=FLASHONLY|Rotation=0.000|XOffset=0mm|YOffset=0mm|HoleType=Round|Shape=RoundedRectangle|*
%AMROUNDEDRECTD69*
21,1,0.600,0.375,0,0,0.0*
21,1,0.475,0.500,0,0,0.0*
1,1,0.125,0.238,-0.188*
1,1,0.125,-0.238,-0.188*
1,1,0.125,-0.238,0.188*
1,1,0.125,0.238,0.188*
%
%ADD69ROUNDEDRECTD69*%
G04:AMPARAMS|DCode=70|XSize=0.8mm|YSize=0.75mm|CornerRadius=0.094mm|HoleSize=0mm|Usage=FLASHONLY|Rotation=90.000|XOffset=0mm|YOffset=0mm|HoleType=Round|Shape=RoundedRectangle|*
%AMROUNDEDRECTD70*
21,1,0.800,0.563,0,0,90.0*
21,1,0.613,0.750,0,0,90.0*
1,1,0.188,0.281,0.306*
1,1,0.188,0.281,-0.306*
1,1,0.188,-0.281,-0.306*
1,1,0.188,-0.281,0.306*
%
%ADD70ROUNDEDRECTD70*%
%ADD79C,0.400*%
%ADD81C,0.300*%
%ADD83C,0.130*%
%ADD85C,0.600*%
%ADD86C,0.700*%
%AMCUSTOMSHAPE87*
4,1,6,0.000,0.500,0.000,-0.500,-0.500,-0.500,-0.600,-0.400,-0.600,0.400,-0.500,0.500,0.000,0.500,0.0*%
%ADD87CUSTOMSHAPE87*%

%ADD88C,1.000*%
%AMCUSTOMSHAPE90*
4,1,6,0.000,-0.500,0.000,0.500,0.500,0.500,0.600,0.400,0.600,-0.400,0.500,-0.500,0.000,-0.500,0.0*%
%ADD90CUSTOMSHAPE90*%

%ADD91C,0.400*%
G04:AMPARAMS|DCode=93|XSize=0.6mm|YSize=1mm|CornerRadius=0.075mm|HoleSize=0mm|Usage=FLASHONLY|Rotation=0.000|XOffset=0mm|YOffset=0mm|HoleType=Round|Shape=RoundedRectangle|*
%AMROUNDEDRECTD93*
21,1,0.600,0.850,0,0,0.0*
21,1,0.450,1.000,0,0,0.0*
1,1,0.150,0.225,-0.425*
1,1,0.150,-0.225,-0.425*
1,1,0.150,-0.225,0.425*
1,1,0.150,0.225,0.425*
%
%ADD93ROUNDEDRECTD93*%
G04:AMPARAMS|DCode=94|XSize=0.9mm|YSize=0.7mm|CornerRadius=0.088mm|HoleSize=0mm|Usage=FLASHONLY|Rotation=90.000|XOffset=0mm|YOffset=0mm|HoleType=Round|Shape=RoundedRectangle|*
%AMROUNDEDRECTD94*
21,1,0.900,0.525,0,0,90.0*
21,1,0.725,0.700,0,0,90.0*
1,1,0.175,0.263,0.363*
1,1,0.175,0.263,-0.363*
1,1,0.175,-0.263,-0.363*
1,1,0.175,-0.263,0.363*
%
%ADD94ROUNDEDRECTD94*%
G04:AMPARAMS|DCode=95|XSize=1mm|YSize=1.25mm|CornerRadius=0.125mm|HoleSize=0mm|Usage=FLASHONLY|Rotation=270.000|XOffset=0mm|YOffset=0mm|HoleType=Round|Shape=RoundedRectangle|*
%AMROUNDEDRECTD95*
21,1,1.000,1.000,0,0,270.0*
21,1,0.750,1.250,0,0,270.0*
1,1,0.250,-0.500,-0.375*
1,1,0.250,-0.500,0.375*
1,1,0.250,0.500,0.375*
1,1,0.250,0.500,-0.375*
%
%ADD95ROUNDEDRECTD95*%
G04:AMPARAMS|DCode=96|XSize=0.8mm|YSize=0.8mm|CornerRadius=0.1mm|HoleSize=0mm|Usage=FLASHONLY|Rotation=0.000|XOffset=0mm|YOffset=0mm|HoleType=Round|Shape=RoundedRectangle|*
%AMROUNDEDRECTD96*
21,1,0.800,0.600,0,0,0.0*
21,1,0.600,0.800,0,0,0.0*
1,1,0.200,0.300,-0.300*
1,1,0.200,-0.300,-0.300*
1,1,0.200,-0.300,0.300*
1,1,0.200,0.300,0.300*
%
%ADD96ROUNDEDRECTD96*%
G04:AMPARAMS|DCode=97|XSize=0.8mm|YSize=0.8mm|CornerRadius=0.1mm|HoleSize=0mm|Usage=FLASHONLY|Rotation=90.000|XOffset=0mm|YOffset=0mm|HoleType=Round|Shape=RoundedRectangle|*
%AMROUNDEDRECTD97*
21,1,0.800,0.600,0,0,90.0*
21,1,0.600,0.800,0,0,90.0*
1,1,0.200,0.300,0.300*
1,1,0.200,0.300,-0.300*
1,1,0.200,-0.300,-0.300*
1,1,0.200,-0.300,0.300*
%
%ADD97ROUNDEDRECTD97*%
G04:AMPARAMS|DCode=98|XSize=0.6mm|YSize=1.05mm|CornerRadius=0.075mm|HoleSize=0mm|Usage=FLASHONLY|Rotation=270.000|XOffset=0mm|YOffset=0mm|HoleType=Round|Shape=RoundedRectangle|*
%AMROUNDEDRECTD98*
21,1,0.600,0.900,0,0,270.0*
21,1,0.450,1.050,0,0,270.0*
1,1,0.150,-0.450,-0.225*
1,1,0.150,-0.450,0.225*
1,1,0.150,0.450,0.225*
1,1,0.150,0.450,-0.225*
%
%ADD98ROUNDEDRECTD98*%
%ADD99R,0.350X2.000*%
G04:AMPARAMS|DCode=100|XSize=0.6mm|YSize=1.05mm|CornerRadius=0.075mm|HoleSize=0mm|Usage=FLASHONLY|Rotation=180.000|XOffset=0mm|YOffset=0mm|HoleType=Round|Shape=RoundedRectangle|*
%AMROUNDEDRECTD100*
21,1,0.600,0.900,0,0,180.0*
21,1,0.450,1.050,0,0,180.0*
1,1,0.150,-0.225,0.450*
1,1,0.150,0.225,0.450*
1,1,0.150,0.225,-0.450*
1,1,0.150,-0.225,-0.450*
%
%ADD100ROUNDEDRECTD100*%
G04:AMPARAMS|DCode=101|XSize=0.9mm|YSize=0.8mm|CornerRadius=0.1mm|HoleSize=0mm|Usage=FLASHONLY|Rotation=270.000|XOffset=0mm|YOffset=0mm|HoleType=Round|Shape=RoundedRectangle|*
%AMROUNDEDRECTD101*
21,1,0.900,0.600,0,0,270.0*
21,1,0.700,0.800,0,0,270.0*
1,1,0.200,-0.300,-0.350*
1,1,0.200,-0.300,0.350*
1,1,0.200,0.300,0.350*
1,1,0.200,0.300,-0.350*
%
%ADD101ROUNDEDRECTD101*%
G04:AMPARAMS|DCode=102|XSize=1.3mm|YSize=1.1mm|CornerRadius=0.138mm|HoleSize=0mm|Usage=FLASHONLY|Rotation=270.000|XOffset=0mm|YOffset=0mm|HoleType=Round|Shape=RoundedRectangle|*
%AMROUNDEDRECTD102*
21,1,1.300,0.825,0,0,270.0*
21,1,1.025,1.100,0,0,270.0*
1,1,0.275,-0.413,-0.513*
1,1,0.275,-0.413,0.513*
1,1,0.275,0.413,0.513*
1,1,0.275,0.413,-0.513*
%
%ADD102ROUNDEDRECTD102*%
G04:AMPARAMS|DCode=103|XSize=0.9mm|YSize=0.4mm|CornerRadius=0.1mm|HoleSize=0mm|Usage=FLASHONLY|Rotation=180.000|XOffset=0mm|YOffset=0mm|HoleType=Round|Shape=RoundedRectangle|*
%AMROUNDEDRECTD103*
21,1,0.900,0.200,0,0,180.0*
21,1,0.700,0.400,0,0,180.0*
1,1,0.200,-0.350,0.100*
1,1,0.200,0.350,0.100*
1,1,0.200,0.350,-0.100*
1,1,0.200,-0.350,-0.100*
%
%ADD103ROUNDEDRECTD103*%
G04:AMPARAMS|DCode=104|XSize=1.4mm|YSize=1.2mm|CornerRadius=0.15mm|HoleSize=0mm|Usage=FLASHONLY|Rotation=90.000|XOffset=0mm|YOffset=0mm|HoleType=Round|Shape=RoundedRectangle|*
%AMROUNDEDRECTD104*
21,1,1.400,0.900,0,0,90.0*
21,1,1.100,1.200,0,0,90.0*
1,1,0.300,0.450,0.550*
1,1,0.300,0.450,-0.550*
1,1,0.300,-0.450,-0.550*
1,1,0.300,-0.450,0.550*
%
%ADD104ROUNDEDRECTD104*%
G04:AMPARAMS|DCode=105|XSize=1.4mm|YSize=1.2mm|CornerRadius=0.3mm|HoleSize=0mm|Usage=FLASHONLY|Rotation=90.000|XOffset=0mm|YOffset=0mm|HoleType=Round|Shape=RoundedRectangle|*
%AMROUNDEDRECTD105*
21,1,1.400,0.600,0,0,90.0*
21,1,0.800,1.200,0,0,90.0*
1,1,0.600,0.300,0.400*
1,1,0.600,0.300,-0.400*
1,1,0.600,-0.300,-0.400*
1,1,0.600,-0.300,0.400*
%
%ADD105ROUNDEDRECTD105*%
%ADD106R,6.000X1.000*%
%ADD107C,6.000*%
G36*
X14913Y-30D02*
X14970Y-87D01*
X15000Y-160D01*
Y-200D01*
Y-1200D01*
X14500D01*
X14431Y-1131D01*
Y-1367D01*
X14145D01*
Y-1567D01*
X14165Y-1665D01*
X14204Y-1804D01*
X14165Y-1942D01*
X14145Y-2040D01*
Y-2752D01*
X13922Y-2874D01*
X13854Y-2885D01*
X13631Y-2663D01*
Y-2500D01*
X13606Y-2373D01*
X13534Y-2266D01*
X13034Y-1766D01*
X12927Y-1694D01*
X12800Y-1669D01*
X9300D01*
X9173Y-1694D01*
X9066Y-1766D01*
X8788Y-2044D01*
X8624Y-2076D01*
X8476Y-2176D01*
X8376Y-2324D01*
X8341Y-2500D01*
X8376Y-2676D01*
X8476Y-2824D01*
X8624Y-2924D01*
X8800Y-2959D01*
X8893Y-3035D01*
Y-3181D01*
X8920Y-3315D01*
X8996Y-3429D01*
X9110Y-3505D01*
X9244Y-3532D01*
X9856D01*
X9951Y-3513D01*
X9966Y-3534D01*
X10269Y-3837D01*
Y-5650D01*
X10200Y-5942D01*
X9357D01*
X9309Y-5913D01*
X9270Y-5872D01*
X9257Y-5885D01*
X9086Y-5773D01*
X9100Y-5757D01*
X9125Y-5728D01*
X9134Y-5713D01*
X9142Y-5700D01*
X9144Y-5695D01*
X9129Y-5670D01*
X9132Y-5656D01*
Y-5044D01*
X9105Y-4910D01*
X9029Y-4796D01*
X8915Y-4720D01*
X8781Y-4693D01*
X8255D01*
X8180Y-4629D01*
X8177Y-4626D01*
X8089Y-4529D01*
X8082Y-4491D01*
X8059Y-4456D01*
X8052Y-4436D01*
X8043Y-4426D01*
X8037Y-4415D01*
X8022Y-4401D01*
X8013Y-4387D01*
X7999Y-4378D01*
X7985Y-4362D01*
X7973Y-4357D01*
X7963Y-4348D01*
X7944Y-4341D01*
X7909Y-4318D01*
X7874Y-4311D01*
X7861Y-4304D01*
X7832Y-4301D01*
X7805Y-4294D01*
X7778Y-4292D01*
X7764Y-4289D01*
X7745Y-4283D01*
X7720Y-4272D01*
X7689Y-4256D01*
X7654Y-4235D01*
X7618Y-4208D01*
X7549Y-4150D01*
X7543Y-4144D01*
X7475Y-4072D01*
X7428Y-4013D01*
X7406Y-3982D01*
Y-3712D01*
X7382Y-3591D01*
X7313Y-3487D01*
X7209Y-3418D01*
X7087Y-3394D01*
X6847D01*
X6638Y-3192D01*
X6607Y-3109D01*
Y-2638D01*
X6580Y-2506D01*
X6506Y-2394D01*
X6394Y-2320D01*
X6262Y-2293D01*
X5761D01*
X5516Y-2089D01*
X5507Y-2005D01*
Y-1557D01*
X5676Y-1524D01*
X5824Y-1424D01*
X5924Y-1276D01*
X5959Y-1100D01*
X5924Y-924D01*
X5847Y-810D01*
X5886Y-660D01*
X5967Y-510D01*
X13685D01*
X13647Y-502D01*
X13600Y-500D01*
X6000D01*
Y-500D01*
X6000Y-500D01*
X5632Y-564D01*
X4906Y-746D01*
X4741Y-805D01*
X4741Y-810D01*
X4526Y-1026D01*
X4426Y-1174D01*
X4423Y-1192D01*
X4410Y-1195D01*
X4296Y-1271D01*
X4220Y-1385D01*
X4193Y-1519D01*
Y-1792D01*
X4080Y-1921D01*
X3976Y-2026D01*
X3876Y-2174D01*
X3849Y-2311D01*
X3806Y-2320D01*
X3694Y-2394D01*
X3620Y-2506D01*
X3593Y-2638D01*
Y-3162D01*
X3620Y-3294D01*
X3694Y-3406D01*
X3806Y-3480D01*
X3938Y-3507D01*
X4157D01*
X4244Y-3613D01*
Y-3879D01*
X4239Y-3885D01*
X3840Y-4284D01*
X3830Y-4294D01*
X3463D01*
X3341Y-4318D01*
X3237Y-4387D01*
X3168Y-4491D01*
X3144Y-4612D01*
Y-4987D01*
X3168Y-5109D01*
X3237Y-5213D01*
X3341Y-5282D01*
X3463Y-5306D01*
X3560D01*
X3627Y-5377D01*
X3756Y-5606D01*
X3743Y-5675D01*
Y-5925D01*
X3772Y-6071D01*
X3855Y-6195D01*
X3979Y-6278D01*
X4125Y-6307D01*
X4617D01*
X4623Y-6310D01*
X4807Y-6532D01*
X4817Y-6607D01*
X3529Y-7896D01*
X3324Y-7876D01*
X3176Y-7776D01*
X3000Y-7741D01*
X2980Y-7727D01*
X2951Y-7431D01*
X3060Y-7359D01*
X3159Y-7210D01*
X3194Y-7034D01*
X3159Y-6859D01*
X3060Y-6710D01*
X2925Y-6620D01*
X2896Y-6443D01*
X2906Y-6304D01*
X3024Y-6224D01*
X3124Y-6076D01*
X3159Y-5900D01*
X3124Y-5724D01*
X3024Y-5576D01*
X2876Y-5476D01*
X2700Y-5441D01*
X2524Y-5476D01*
X2376Y-5576D01*
X2276Y-5724D01*
X2241Y-5900D01*
X2276Y-6076D01*
X2376Y-6224D01*
X2510Y-6314D01*
X2540Y-6491D01*
X2529Y-6631D01*
X2411Y-6710D01*
X2311Y-6859D01*
X2276Y-7034D01*
X2311Y-7210D01*
X2411Y-7359D01*
X2560Y-7458D01*
X2735Y-7493D01*
X2755Y-7507D01*
X2784Y-7803D01*
X2676Y-7876D01*
X2576Y-8024D01*
X2559Y-8032D01*
X2476Y-7976D01*
X2300Y-7941D01*
X2124Y-7976D01*
X1976Y-8076D01*
X1876Y-8224D01*
X1841Y-8400D01*
X1876Y-8576D01*
X1976Y-8724D01*
X2124Y-8824D01*
X2167Y-8832D01*
X2278Y-9146D01*
X2062Y-9362D01*
X1989Y-9471D01*
X1979Y-9521D01*
X1892Y-9549D01*
X1673Y-9562D01*
X1629Y-9496D01*
X1515Y-9420D01*
X1381Y-9393D01*
X819D01*
X757Y-9406D01*
X533Y-9281D01*
X457Y-9211D01*
Y-8800D01*
X430Y-8663D01*
X352Y-8548D01*
X52Y-8248D01*
X-63Y-8170D01*
X-120Y-8159D01*
X-228Y-7950D01*
X-244Y-7843D01*
X-232Y-7828D01*
X-167Y-7670D01*
X-144Y-7500D01*
X-167Y-7330D01*
X-232Y-7172D01*
X-336Y-7036D01*
X-472Y-6932D01*
X-630Y-6867D01*
X-800Y-6844D01*
X-867Y-6853D01*
X-963Y-6814D01*
X-1100Y-6795D01*
X-1194D01*
Y-6512D01*
X-1218Y-6391D01*
X-1287Y-6287D01*
X-1306Y-6275D01*
X-1291Y-6200D01*
X-1326Y-6024D01*
X-1426Y-5876D01*
X-1574Y-5776D01*
X-1750Y-5741D01*
X-1926Y-5776D01*
X-2074Y-5876D01*
X-2174Y-6024D01*
X-2209Y-6200D01*
X-2356Y-6323D01*
X-2488Y-6412D01*
X-2488Y-6412D01*
X-2988Y-6912D01*
X-3044Y-6995D01*
X-3211Y-7031D01*
X-3357Y-7018D01*
X-3377Y-7014D01*
X-3426Y-6951D01*
X-3535Y-6866D01*
X-3663Y-6814D01*
X-3800Y-6795D01*
X-4700D01*
X-4837Y-6814D01*
X-4965Y-6866D01*
X-4984Y-6881D01*
X-5233Y-6633D01*
X-5340Y-6550D01*
X-5466Y-6498D01*
X-5531Y-6490D01*
X-5623Y-6420D01*
X-5756Y-6364D01*
X-5900Y-6345D01*
X-6600D01*
X-6744Y-6364D01*
X-6877Y-6420D01*
X-6890Y-6429D01*
X-6988Y-6454D01*
X-7261Y-6299D01*
X-7276Y-6224D01*
X-7376Y-6076D01*
X-7411Y-5716D01*
X-6748Y-5052D01*
X-6670Y-4937D01*
X-6643Y-4800D01*
Y-4126D01*
X-6576Y-4026D01*
X-6541Y-3850D01*
X-6576Y-3674D01*
X-6676Y-3526D01*
X-6824Y-3426D01*
X-7000Y-3391D01*
X-7176Y-3426D01*
X-7324Y-3526D01*
X-7424Y-3674D01*
X-7459Y-3850D01*
X-7424Y-4026D01*
X-7357Y-4126D01*
Y-4652D01*
X-8466Y-5761D01*
X-8743Y-5647D01*
Y-4400D01*
X-8770Y-4263D01*
X-8848Y-4148D01*
X-8853Y-4143D01*
X-8876Y-4024D01*
X-8976Y-3876D01*
X-8926Y-3548D01*
X-8835Y-3456D01*
X-8671Y-3210D01*
X-8558Y-2937D01*
X-8517Y-2735D01*
X-8292Y-2620D01*
X-8200Y-2608D01*
X-8176Y-2624D01*
X-8000Y-2659D01*
X-7600D01*
X-7424Y-2624D01*
X-7276Y-2524D01*
X-7176Y-2376D01*
X-7141Y-2200D01*
X-7176Y-2024D01*
X-7276Y-1876D01*
X-7424Y-1776D01*
X-7600Y-1741D01*
X-8000D01*
X-8176Y-1776D01*
X-8313Y-1868D01*
X-8327Y-1875D01*
X-8654Y-1829D01*
X-8671Y-1789D01*
X-8835Y-1544D01*
X-9044Y-1335D01*
X-9289Y-1171D01*
X-9562Y-1058D01*
X-9852Y-1000D01*
X-10148D01*
X-10438Y-1058D01*
X-10711Y-1171D01*
X-10956Y-1335D01*
X-11165Y-1544D01*
X-11329Y-1789D01*
X-11442Y-2062D01*
X-11500Y-2352D01*
Y-2648D01*
X-11442Y-2937D01*
X-11329Y-3210D01*
X-11165Y-3456D01*
X-10956Y-3665D01*
X-10711Y-3829D01*
X-10438Y-3942D01*
X-10148Y-4000D01*
X-10025D01*
X-9759Y-4200D01*
X-9724Y-4376D01*
X-9624Y-4524D01*
X-9476Y-4624D01*
X-9457Y-4628D01*
Y-6052D01*
X-12452Y-9048D01*
X-12530Y-9163D01*
X-12557Y-9300D01*
X-12713Y-9504D01*
X-13088D01*
X-13209Y-9528D01*
X-13313Y-9597D01*
X-13487D01*
X-13591Y-9528D01*
X-13712Y-9504D01*
X-13948D01*
X-13970Y-9488D01*
X-14018Y-9438D01*
X-14143Y-9247D01*
X-14150Y-9214D01*
X-14145Y-9190D01*
Y-8390D01*
X-14165Y-8292D01*
X-14204Y-8155D01*
X-14165Y-8018D01*
X-14145Y-7920D01*
Y-7120D01*
X-14165Y-7022D01*
X-14204Y-6885D01*
X-14165Y-6748D01*
X-14145Y-6650D01*
Y-5850D01*
X-14165Y-5752D01*
X-14204Y-5615D01*
X-14165Y-5478D01*
X-14145Y-5380D01*
Y-4580D01*
X-14165Y-4482D01*
X-14204Y-4345D01*
X-14165Y-4208D01*
X-14145Y-4110D01*
Y-3310D01*
X-14165Y-3212D01*
X-14204Y-3075D01*
X-14165Y-2938D01*
X-14145Y-2840D01*
Y-2040D01*
X-14165Y-1942D01*
X-14204Y-1805D01*
X-14165Y-1668D01*
X-14145Y-1570D01*
Y-1370D01*
X-14431D01*
Y-1131D01*
X-14500Y-1200D01*
X-15000D01*
Y-241D01*
Y-193D01*
X-14963Y-104D01*
X-14896Y-37D01*
X-14807Y0D01*
X14840D01*
X14913Y-30D01*
D02*
G37*
G36*
X4863Y-2171D02*
X4849Y-2165D01*
X4830Y-2167D01*
X4806Y-2177D01*
X4775Y-2194D01*
X4739Y-2219D01*
X4698Y-2251D01*
X4598Y-2339D01*
X4501Y-2433D01*
X4501Y-2554D01*
X4099D01*
X4099Y-2552D01*
X4099Y-2546D01*
X4100Y-2350D01*
X4349D01*
X4168Y-2199D01*
X4232Y-2134D01*
X4410Y-1932D01*
X4434Y-1897D01*
X4451Y-1867D01*
X4460Y-1843D01*
X4461Y-1824D01*
X4454Y-1812D01*
X4863Y-2171D01*
D02*
G37*
G36*
X9069Y-2337D02*
X9056Y-2351D01*
X9044Y-2366D01*
X9033Y-2381D01*
X9024Y-2396D01*
X9017Y-2412D01*
X9011Y-2429D01*
X9006Y-2445D01*
X9002Y-2462D01*
X9001Y-2480D01*
X9000Y-2498D01*
X8802Y-2300D01*
X8820Y-2299D01*
X8838Y-2298D01*
X8855Y-2294D01*
X8871Y-2289D01*
X8888Y-2283D01*
X8904Y-2276D01*
X8919Y-2267D01*
X8934Y-2256D01*
X8949Y-2244D01*
X8963Y-2231D01*
X9069Y-2337D01*
D02*
G37*
G36*
X10337Y-2950D02*
X10324Y-2974D01*
X10313Y-3001D01*
X10303Y-3032D01*
X10294Y-3068D01*
X10287Y-3106D01*
X10278Y-3196D01*
X10276Y-3246D01*
X10275Y-3300D01*
X10125D01*
X10124Y-3246D01*
X10113Y-3106D01*
X10106Y-3068D01*
X10097Y-3032D01*
X10087Y-3001D01*
X10076Y-2974D01*
X10063Y-2950D01*
X10048Y-2930D01*
X10352D01*
X10337Y-2950D01*
D02*
G37*
G36*
X12653Y-2964D02*
X12661Y-2982D01*
X12675Y-3005D01*
X12694Y-3032D01*
X12749Y-3099D01*
X12763Y-3113D01*
X12846Y-3066D01*
X12831Y-3078D01*
X12823Y-3093D01*
X12821Y-3112D01*
X12826Y-3135D01*
X12837Y-3161D01*
X12854Y-3190D01*
X12878Y-3224D01*
X12907Y-3260D01*
X12986Y-3344D01*
X12806Y-3404D01*
X12785Y-3426D01*
X12769Y-3411D01*
X12736Y-3379D01*
X12666Y-3320D01*
X12635Y-3298D01*
X12605Y-3281D01*
X12578Y-3269D01*
X12553Y-3262D01*
X12530Y-3260D01*
X12510Y-3263D01*
X12491Y-3271D01*
X12565Y-3228D01*
X12505Y-3175D01*
X12482Y-3161D01*
X12464Y-3153D01*
X12450Y-3150D01*
X12650Y-2950D01*
X12653Y-2964D01*
D02*
G37*
G36*
X11320Y-2811D02*
X11306Y-2844D01*
X11305Y-2885D01*
X11315Y-2932D01*
X11338Y-2985D01*
X11373Y-3045D01*
X11419Y-3111D01*
X11478Y-3184D01*
X11632Y-3349D01*
X11274Y-3557D01*
X11195Y-3480D01*
X11052Y-3360D01*
X10988Y-3315D01*
X10929Y-3282D01*
X10875Y-3258D01*
X10826Y-3245D01*
X10781Y-3243D01*
X10742Y-3252D01*
X10708Y-3271D01*
X11346Y-2783D01*
X11320Y-2811D01*
D02*
G37*
G36*
X13040Y-3397D02*
X13111Y-3457D01*
X13143Y-3479D01*
X13172Y-3496D01*
X13199Y-3508D01*
X13224Y-3515D01*
X13246Y-3516D01*
X13266Y-3512D01*
X13283Y-3504D01*
X12954Y-3734D01*
X12967Y-3720D01*
X12974Y-3704D01*
X12975Y-3685D01*
X12971Y-3662D01*
X12960Y-3636D01*
X12943Y-3606D01*
X12920Y-3574D01*
X12891Y-3538D01*
X12815Y-3456D01*
X13001Y-3359D01*
X13040Y-3397D01*
D02*
G37*
G36*
X14406Y-3850D02*
X14405Y-3836D01*
X14400Y-3823D01*
X14393Y-3812D01*
X14382Y-3802D01*
X14368Y-3794D01*
X14351Y-3787D01*
X14331Y-3782D01*
X14308Y-3778D01*
X14282Y-3776D01*
X14253Y-3775D01*
Y-3625D01*
X14282Y-3624D01*
X14308Y-3622D01*
X14331Y-3618D01*
X14351Y-3613D01*
X14368Y-3606D01*
X14382Y-3598D01*
X14393Y-3588D01*
X14400Y-3577D01*
X14405Y-3564D01*
X14406Y-3550D01*
Y-3850D01*
D02*
G37*
G36*
X12234Y-3453D02*
X12227Y-3472D01*
X12220Y-3498D01*
X12215Y-3530D01*
X12207Y-3617D01*
X12200Y-3799D01*
X12200Y-3873D01*
X12000D01*
X12000Y-3799D01*
X11980Y-3498D01*
X11973Y-3472D01*
X11966Y-3453D01*
X11958Y-3441D01*
X12242D01*
X12234Y-3453D01*
D02*
G37*
G36*
X5143Y-3718D02*
X5164Y-3719D01*
X5200Y-3720D01*
Y-3821D01*
X5238Y-3890D01*
X5230Y-3888D01*
X5219Y-3886D01*
X5186Y-3884D01*
X5150Y-3883D01*
X5124Y-3885D01*
X5115Y-3887D01*
X5108Y-3889D01*
X5103Y-3892D01*
X5100Y-3895D01*
X5099Y-3898D01*
Y-3881D01*
X5080Y-3880D01*
X5007Y-3880D01*
X4981Y-3720D01*
X5002Y-3719D01*
X5020Y-3717D01*
X5037Y-3714D01*
X5053Y-3709D01*
X5066Y-3703D01*
X5078Y-3695D01*
X5087Y-3686D01*
X5096Y-3675D01*
X5102Y-3663D01*
X5106Y-3650D01*
X5143Y-3718D01*
D02*
G37*
G36*
X4774Y-4049D02*
X4760Y-4042D01*
X4744Y-4040D01*
X4726Y-4041D01*
X4706Y-4047D01*
X4684Y-4056D01*
X4661Y-4070D01*
X4635Y-4088D01*
X4608Y-4109D01*
X4548Y-4165D01*
X4385Y-4102D01*
X4419Y-4066D01*
X4473Y-4004D01*
X4492Y-3977D01*
X4506Y-3953D01*
X4515Y-3932D01*
X4519Y-3914D01*
X4518Y-3898D01*
X4512Y-3886D01*
X4501Y-3876D01*
X4774Y-4049D01*
D02*
G37*
G36*
X7124Y-3865D02*
X7111Y-3899D01*
X7110Y-3940D01*
X7121Y-3987D01*
X7144Y-4041D01*
X7178Y-4100D01*
X7224Y-4166D01*
X7283Y-4239D01*
X7371Y-4333D01*
X7461Y-4410D01*
X7512Y-4446D01*
X7562Y-4477D01*
X7610Y-4503D01*
X7657Y-4523D01*
X7702Y-4537D01*
X7745Y-4545D01*
X7787Y-4548D01*
X7348Y-5087D01*
X7345Y-5045D01*
X7337Y-5002D01*
X7323Y-4957D01*
X7303Y-4910D01*
X7277Y-4862D01*
X7246Y-4812D01*
X7210Y-4761D01*
X7167Y-4708D01*
X7101Y-4637D01*
X6810Y-4366D01*
X6782Y-4388D01*
X6740Y-4424D01*
X6698Y-4464D01*
X6436Y-4302D01*
X6496Y-4240D01*
X6590Y-4131D01*
X6624Y-4084D01*
X6650Y-4041D01*
X6667Y-4003D01*
X6676Y-3969D01*
X6676Y-3941D01*
X6668Y-3917D01*
X6651Y-3897D01*
X6864Y-4070D01*
X7149Y-3836D01*
X7124Y-3865D01*
D02*
G37*
G36*
X-6868Y-4001D02*
X-6874Y-4011D01*
X-6880Y-4023D01*
X-6886Y-4036D01*
X-6890Y-4050D01*
X-6894Y-4066D01*
X-6896Y-4083D01*
X-6898Y-4102D01*
X-6900Y-4143D01*
X-7100D01*
X-7100Y-4122D01*
X-7104Y-4083D01*
X-7106Y-4066D01*
X-7110Y-4050D01*
X-7114Y-4036D01*
X-7120Y-4023D01*
X-7126Y-4011D01*
X-7132Y-4001D01*
X-7140Y-3993D01*
X-6860D01*
X-6868Y-4001D01*
D02*
G37*
G36*
X4115Y-4598D02*
X4085Y-4629D01*
X4038Y-4685D01*
X4020Y-4711D01*
X4006Y-4734D01*
X3997Y-4756D01*
X3991Y-4776D01*
X3990Y-4794D01*
X3992Y-4810D01*
X3999Y-4824D01*
X3826Y-4551D01*
X3836Y-4562D01*
X3848Y-4568D01*
X3864Y-4569D01*
X3882Y-4565D01*
X3903Y-4556D01*
X3927Y-4542D01*
X3954Y-4523D01*
X3984Y-4499D01*
X4052Y-4435D01*
X4115Y-4598D01*
D02*
G37*
G36*
X14162Y-4193D02*
X14165Y-4208D01*
X14204Y-4345D01*
X14165Y-4482D01*
X14145Y-4580D01*
Y-5380D01*
X14165Y-5478D01*
X14204Y-5615D01*
X14165Y-5752D01*
X14145Y-5850D01*
Y-6650D01*
X14165Y-6748D01*
X14220Y-6830D01*
X14320Y-6930D01*
X14402Y-6985D01*
X14490Y-7003D01*
Y-12913D01*
X14324Y-12946D01*
X14176Y-13046D01*
X14176Y-13046D01*
X14076Y-13146D01*
X13976Y-13294D01*
X13941Y-13470D01*
Y-14270D01*
X13976Y-14446D01*
X14016Y-14505D01*
X13976Y-14564D01*
X13941Y-14740D01*
Y-15540D01*
X13976Y-15716D01*
X14076Y-15864D01*
X14158Y-15947D01*
X14145Y-16010D01*
Y-16810D01*
X14165Y-16908D01*
X14204Y-17045D01*
X14165Y-17182D01*
X14145Y-17280D01*
Y-18080D01*
X14165Y-18178D01*
X14204Y-18315D01*
X14165Y-18452D01*
X14145Y-18550D01*
Y-19350D01*
X14165Y-19448D01*
X14204Y-19585D01*
X14165Y-19722D01*
X14145Y-19820D01*
Y-20586D01*
X14096Y-20605D01*
X13938Y-20643D01*
X13856Y-20652D01*
X13813Y-20587D01*
X13709Y-20518D01*
X13587Y-20494D01*
X13212D01*
X13091Y-20518D01*
X13071Y-20531D01*
X13069Y-20531D01*
X13037Y-20553D01*
X13003Y-20572D01*
X12996Y-20581D01*
X12987Y-20587D01*
X12983Y-20592D01*
X12847Y-20603D01*
X12783Y-20528D01*
X12732Y-20300D01*
X12781Y-20227D01*
X12806Y-20100D01*
Y-19571D01*
X12830Y-19537D01*
X12857Y-19400D01*
Y-19012D01*
X13100Y-18759D01*
X13276Y-18724D01*
X13424Y-18624D01*
X13524Y-18476D01*
X13559Y-18300D01*
Y-17100D01*
X13524Y-16924D01*
X13424Y-16776D01*
X13276Y-16676D01*
X13100Y-16641D01*
X12924Y-16676D01*
X12776Y-16776D01*
X12676Y-16924D01*
X12641Y-17100D01*
Y-17245D01*
X12364Y-17359D01*
X12152Y-17148D01*
X12037Y-17070D01*
X11900Y-17043D01*
X11888D01*
X11880Y-17006D01*
X11806Y-16894D01*
X11694Y-16820D01*
X11562Y-16793D01*
X10837D01*
X10706Y-16820D01*
X10594Y-16894D01*
X10567Y-16935D01*
X10484Y-16956D01*
X10316D01*
X10233Y-16935D01*
X10206Y-16894D01*
X10094Y-16820D01*
X9962Y-16793D01*
X9238D01*
X9177Y-16805D01*
X9050Y-16525D01*
X9092Y-16492D01*
X9180Y-16377D01*
X9236Y-16244D01*
X9255Y-16100D01*
Y-15500D01*
X9236Y-15356D01*
X9180Y-15223D01*
X9092Y-15108D01*
X8977Y-15020D01*
X8844Y-14964D01*
X8786Y-14957D01*
X8767Y-14933D01*
X8474Y-14640D01*
X8582Y-14399D01*
X8618Y-14359D01*
X10250D01*
X10426Y-14324D01*
X10527Y-14256D01*
X10875D01*
X11002Y-14231D01*
X11109Y-14159D01*
X11181Y-14052D01*
X11206Y-13925D01*
Y-13075D01*
X11220Y-13059D01*
X11980D01*
X11994Y-13075D01*
Y-13925D01*
X12019Y-14052D01*
X12091Y-14159D01*
X12198Y-14231D01*
X12325Y-14256D01*
X12775D01*
X12902Y-14231D01*
X13009Y-14159D01*
X13081Y-14052D01*
X13106Y-13925D01*
Y-13075D01*
X13081Y-12948D01*
X13009Y-12841D01*
X13009Y-12840D01*
Y-12750D01*
X12974Y-12574D01*
X12874Y-12426D01*
X12724Y-12276D01*
X12576Y-12176D01*
X12400Y-12141D01*
X11518D01*
X11489Y-11841D01*
X11576Y-11824D01*
X11724Y-11724D01*
X11782Y-11638D01*
X11964Y-11592D01*
X12033Y-11582D01*
X12128Y-11584D01*
X12198Y-11631D01*
X12325Y-11656D01*
X12775D01*
X12902Y-11631D01*
X13009Y-11559D01*
X13081Y-11452D01*
X13106Y-11325D01*
Y-10475D01*
X13092Y-10405D01*
X13215Y-10380D01*
X13329Y-10304D01*
X13405Y-10190D01*
X13432Y-10056D01*
Y-9444D01*
X13405Y-9310D01*
X13329Y-9196D01*
X13215Y-9120D01*
X13081Y-9093D01*
X12654D01*
X12506Y-8946D01*
Y-8813D01*
X12482Y-8691D01*
X12469Y-8671D01*
X12468Y-8670D01*
X12468Y-8669D01*
X12459Y-8519D01*
Y-8400D01*
X12424Y-8224D01*
X12324Y-8076D01*
X12176Y-7976D01*
X12000Y-7941D01*
X11824Y-7976D01*
X11676Y-8076D01*
X11576Y-8224D01*
X11541Y-8400D01*
Y-8406D01*
X11465Y-8467D01*
X11319Y-8537D01*
X11303Y-8540D01*
X11281Y-8542D01*
X11209Y-8518D01*
X11209Y-8518D01*
X11201Y-8516D01*
X11088Y-8494D01*
X11070D01*
X10912Y-8194D01*
X10924Y-8176D01*
X10959Y-8000D01*
X10924Y-7824D01*
X10908Y-7800D01*
X10900D01*
X10900Y-7788D01*
X10824Y-7676D01*
X10676Y-7576D01*
X10586Y-7558D01*
X10608Y-7450D01*
Y-6512D01*
X10613Y-6506D01*
X10834Y-6284D01*
X10894Y-6195D01*
X10910Y-6206D01*
X11085Y-6241D01*
X11261Y-6206D01*
X11410Y-6106D01*
X11509Y-5958D01*
X11518Y-5914D01*
X11652Y-5835D01*
X11976Y-5976D01*
X12043Y-6075D01*
X11976Y-6174D01*
X11941Y-6350D01*
X11976Y-6526D01*
X12076Y-6674D01*
X12224Y-6774D01*
X12400Y-6809D01*
X12576Y-6774D01*
X12724Y-6674D01*
X12824Y-6526D01*
X12859Y-6350D01*
X12824Y-6174D01*
X12757Y-6075D01*
X12824Y-5976D01*
X12859Y-5800D01*
X12824Y-5624D01*
X12757Y-5525D01*
X12824Y-5426D01*
X12859Y-5250D01*
X12824Y-5074D01*
X12757Y-4975D01*
X12758Y-4975D01*
X12929Y-4728D01*
X13075Y-4757D01*
X13325D01*
X13471Y-4728D01*
X13595Y-4645D01*
X13678Y-4521D01*
X13707Y-4375D01*
Y-4250D01*
X13830Y-4142D01*
X14007Y-4084D01*
X14162Y-4193D01*
D02*
G37*
G36*
X5092Y-4583D02*
X5107Y-4597D01*
X5126Y-4609D01*
X5151Y-4620D01*
X5180Y-4629D01*
X5214Y-4637D01*
X5254Y-4643D01*
X5298Y-4647D01*
X5402Y-4650D01*
Y-4950D01*
X5347Y-4951D01*
X5254Y-4957D01*
X5214Y-4963D01*
X5180Y-4971D01*
X5151Y-4980D01*
X5126Y-4991D01*
X5107Y-5003D01*
X5092Y-5017D01*
X5083Y-5033D01*
X5058Y-5046D01*
X5035Y-5063D01*
X5015Y-5085D01*
X4998Y-5110D01*
X4983Y-5140D01*
X4971Y-5174D01*
X4962Y-5212D01*
X4955Y-5255D01*
X4951Y-5301D01*
X4950Y-5352D01*
X4650D01*
X4649Y-5301D01*
X4645Y-5255D01*
X4638Y-5212D01*
X4629Y-5174D01*
X4617Y-5140D01*
X4602Y-5110D01*
X4585Y-5085D01*
X4565Y-5063D01*
X4542Y-5046D01*
X4517Y-5033D01*
X5083D01*
Y-4567D01*
X5092Y-4583D01*
D02*
G37*
G36*
X7833Y-4567D02*
X7817Y-4595D01*
X7836Y-4623D01*
X7873Y-4669D01*
X7990Y-4800D01*
X8006Y-4816D01*
X8127Y-4919D01*
X8190Y-4963D01*
X8247Y-4994D01*
X8296Y-5012D01*
X8337Y-5017D01*
X8371Y-5009D01*
X8398Y-4988D01*
X8417Y-4954D01*
X8133Y-5692D01*
X8121Y-5646D01*
X8102Y-5597D01*
X8076Y-5545D01*
X8043Y-5489D01*
X8004Y-5430D01*
X7904Y-5302D01*
X7888Y-5285D01*
X7807Y-5215D01*
X7740Y-5168D01*
X7680Y-5133D01*
X7627Y-5110D01*
X7581Y-5101D01*
X7542Y-5104D01*
X7511Y-5120D01*
X7486Y-5149D01*
X7817Y-4595D01*
X7813Y-4590D01*
X7805Y-4569D01*
X7812Y-4562D01*
X7833Y-4567D01*
D02*
G37*
G36*
X10456Y-6300D02*
X10430Y-6327D01*
X10388Y-6377D01*
X10372Y-6400D01*
X10360Y-6422D01*
X10351Y-6443D01*
X10345Y-6462D01*
X10342Y-6480D01*
X10343Y-6497D01*
X10347Y-6512D01*
X10231Y-6209D01*
X10238Y-6222D01*
X10247Y-6230D01*
X10259Y-6234D01*
X10273Y-6234D01*
X10290Y-6228D01*
X10309Y-6219D01*
X10330Y-6205D01*
X10354Y-6186D01*
X10380Y-6163D01*
X10408Y-6136D01*
X10456Y-6300D01*
D02*
G37*
G36*
X7732Y-6251D02*
X7726Y-6261D01*
X7720Y-6273D01*
X7714Y-6286D01*
X7710Y-6300D01*
X7706Y-6316D01*
X7704Y-6333D01*
X7702Y-6352D01*
X7700Y-6393D01*
X7500D01*
X7500Y-6372D01*
X7496Y-6333D01*
X7494Y-6316D01*
X7490Y-6300D01*
X7486Y-6286D01*
X7480Y-6273D01*
X7474Y-6261D01*
X7468Y-6251D01*
X7460Y-6243D01*
X7740D01*
X7732Y-6251D01*
D02*
G37*
G36*
X-1599Y-6249D02*
X-1591Y-6330D01*
X-1584Y-6363D01*
X-1576Y-6391D01*
X-1565Y-6414D01*
X-1552Y-6432D01*
X-1538Y-6445D01*
X-1521Y-6453D01*
X-1503Y-6455D01*
X-1997D01*
X-1978Y-6453D01*
X-1962Y-6445D01*
X-1947Y-6432D01*
X-1935Y-6414D01*
X-1924Y-6391D01*
X-1915Y-6363D01*
X-1909Y-6330D01*
X-1904Y-6292D01*
X-1901Y-6249D01*
X-1900Y-6200D01*
X-1600D01*
X-1599Y-6249D01*
D02*
G37*
G36*
X5298Y-6800D02*
X5281Y-6801D01*
X5265Y-6803D01*
X5249Y-6806D01*
X5233Y-6811D01*
X5217Y-6817D01*
X5202Y-6825D01*
X5186Y-6834D01*
X5171Y-6845D01*
X5157Y-6857D01*
X5142Y-6871D01*
X5029Y-6758D01*
X5043Y-6743D01*
X5055Y-6729D01*
X5066Y-6714D01*
X5075Y-6698D01*
X5083Y-6683D01*
X5089Y-6667D01*
X5094Y-6651D01*
X5097Y-6635D01*
X5099Y-6619D01*
X5100Y-6602D01*
X5298Y-6800D01*
D02*
G37*
G36*
X-8396Y-7101D02*
X-8397Y-7094D01*
X-8400Y-7088D01*
X-8405Y-7082D01*
X-8412Y-7078D01*
X-8422Y-7074D01*
X-8433Y-7071D01*
X-8447Y-7068D01*
X-8462Y-7066D01*
X-8480Y-7065D01*
X-8500Y-7065D01*
Y-6935D01*
X-8480Y-6935D01*
X-8447Y-6932D01*
X-8433Y-6929D01*
X-8422Y-6926D01*
X-8412Y-6922D01*
X-8405Y-6918D01*
X-8400Y-6912D01*
X-8397Y-6906D01*
X-8396Y-6899D01*
Y-7101D01*
D02*
G37*
G36*
X-5809Y-6883D02*
X-5805Y-6894D01*
X-5798Y-6903D01*
X-5788Y-6912D01*
X-5775Y-6919D01*
X-5760Y-6925D01*
X-5742Y-6929D01*
X-5721Y-6932D01*
X-5698Y-6934D01*
X-5671Y-6935D01*
Y-7065D01*
X-5698Y-7066D01*
X-5721Y-7068D01*
X-5742Y-7071D01*
X-5760Y-7075D01*
X-5775Y-7081D01*
X-5788Y-7088D01*
X-5798Y-7097D01*
X-5805Y-7106D01*
X-5809Y-7117D01*
X-5810Y-7129D01*
Y-6871D01*
X-5809Y-6883D01*
D02*
G37*
G36*
X8192Y-6949D02*
X8269Y-7015D01*
X8302Y-7038D01*
X8332Y-7056D01*
X8358Y-7067D01*
X8382Y-7072D01*
X8401Y-7071D01*
X8418Y-7064D01*
X8431Y-7051D01*
X8201Y-7381D01*
X8210Y-7363D01*
X8214Y-7344D01*
X8212Y-7321D01*
X8205Y-7297D01*
X8193Y-7269D01*
X8176Y-7240D01*
X8154Y-7208D01*
X8127Y-7174D01*
X8057Y-7098D01*
X8148Y-6907D01*
X8192Y-6949D01*
D02*
G37*
G36*
X-943Y-7433D02*
X-922Y-7434D01*
X-897Y-7435D01*
Y-7565D01*
X-922Y-7566D01*
X-943Y-7567D01*
X-943Y-7640D01*
X-958Y-7626D01*
X-973Y-7613D01*
X-989Y-7602D01*
X-1005Y-7592D01*
X-1010Y-7590D01*
X-1018Y-7597D01*
X-1024Y-7607D01*
X-1028Y-7618D01*
X-1030Y-7630D01*
Y-7580D01*
X-1038Y-7577D01*
X-1055Y-7572D01*
X-1073Y-7568D01*
X-1091Y-7566D01*
X-1109Y-7565D01*
X-1109Y-7435D01*
X-1091Y-7434D01*
X-1073Y-7432D01*
X-1055Y-7428D01*
X-1038Y-7423D01*
X-1030Y-7420D01*
Y-7370D01*
X-1028Y-7382D01*
X-1024Y-7393D01*
X-1018Y-7403D01*
X-1010Y-7410D01*
X-1005Y-7408D01*
X-989Y-7398D01*
X-973Y-7387D01*
X-958Y-7374D01*
X-943Y-7360D01*
X-943Y-7433D01*
D02*
G37*
G36*
X5298Y-7400D02*
X5281Y-7401D01*
X5265Y-7403D01*
X5249Y-7406D01*
X5233Y-7411D01*
X5217Y-7417D01*
X5202Y-7425D01*
X5186Y-7434D01*
X5171Y-7445D01*
X5157Y-7457D01*
X5142Y-7471D01*
X5029Y-7358D01*
X5043Y-7343D01*
X5055Y-7329D01*
X5066Y-7314D01*
X5075Y-7298D01*
X5083Y-7283D01*
X5089Y-7267D01*
X5094Y-7251D01*
X5097Y-7235D01*
X5099Y-7219D01*
X5100Y-7202D01*
X5298Y-7400D01*
D02*
G37*
G36*
X-4770Y-7680D02*
X-4772Y-7668D01*
X-4776Y-7657D01*
X-4782Y-7647D01*
X-4792Y-7638D01*
X-4804Y-7631D01*
X-4818Y-7625D01*
X-4836Y-7621D01*
X-4855Y-7618D01*
X-4878Y-7616D01*
X-4903Y-7615D01*
Y-7485D01*
X-4878Y-7484D01*
X-4855Y-7482D01*
X-4836Y-7479D01*
X-4818Y-7475D01*
X-4804Y-7469D01*
X-4792Y-7462D01*
X-4782Y-7453D01*
X-4776Y-7443D01*
X-4772Y-7432D01*
X-4770Y-7420D01*
Y-7680D01*
D02*
G37*
G36*
X-5809Y-7683D02*
X-5805Y-7694D01*
X-5798Y-7703D01*
X-5788Y-7712D01*
X-5775Y-7719D01*
X-5760Y-7725D01*
X-5742Y-7729D01*
X-5721Y-7732D01*
X-5698Y-7734D01*
X-5671Y-7735D01*
Y-7865D01*
X-5698Y-7866D01*
X-5721Y-7868D01*
X-5742Y-7871D01*
X-5760Y-7875D01*
X-5775Y-7881D01*
X-5788Y-7888D01*
X-5798Y-7897D01*
X-5805Y-7906D01*
X-5809Y-7917D01*
X-5810Y-7929D01*
Y-7671D01*
X-5809Y-7683D01*
D02*
G37*
G36*
X5298Y-8000D02*
X5281Y-8001D01*
X5265Y-8003D01*
X5249Y-8006D01*
X5233Y-8011D01*
X5217Y-8017D01*
X5202Y-8025D01*
X5186Y-8034D01*
X5171Y-8045D01*
X5157Y-8057D01*
X5142Y-8071D01*
X5029Y-7958D01*
X5043Y-7943D01*
X5055Y-7929D01*
X5066Y-7914D01*
X5075Y-7898D01*
X5083Y-7883D01*
X5089Y-7867D01*
X5094Y-7851D01*
X5097Y-7835D01*
X5099Y-7819D01*
X5100Y-7802D01*
X5298Y-8000D01*
D02*
G37*
G36*
X-7732Y-7997D02*
X-7743Y-8001D01*
X-7753Y-8008D01*
X-7762Y-8017D01*
X-7769Y-8029D01*
X-7775Y-8044D01*
X-7779Y-8061D01*
X-7782Y-8081D01*
X-7784Y-8104D01*
X-7785Y-8129D01*
X-7915D01*
X-7916Y-8104D01*
X-7918Y-8081D01*
X-7921Y-8061D01*
X-7925Y-8044D01*
X-7931Y-8029D01*
X-7938Y-8017D01*
X-7947Y-8008D01*
X-7957Y-8001D01*
X-7968Y-7997D01*
X-7980Y-7996D01*
X-7720D01*
X-7732Y-7997D01*
D02*
G37*
G36*
X10001Y-8013D02*
X10003Y-8025D01*
X10007Y-8038D01*
X10012Y-8050D01*
X10019Y-8064D01*
X10028Y-8077D01*
X10038Y-8091D01*
X10050Y-8106D01*
X10078Y-8137D01*
X9937Y-8278D01*
X9921Y-8263D01*
X9891Y-8238D01*
X9877Y-8228D01*
X9864Y-8219D01*
X9850Y-8212D01*
X9838Y-8207D01*
X9825Y-8203D01*
X9813Y-8201D01*
X9802Y-8200D01*
X10000Y-8002D01*
X10001Y-8013D01*
D02*
G37*
G36*
X-8509Y-8148D02*
X-8495Y-8159D01*
X-8480Y-8169D01*
X-8464Y-8177D01*
X-8447Y-8184D01*
X-8430Y-8190D01*
X-8411Y-8195D01*
X-8392Y-8198D01*
X-8373Y-8200D01*
X-8352Y-8200D01*
X-8550Y-8398D01*
X-8550Y-8377D01*
X-8552Y-8358D01*
X-8555Y-8339D01*
X-8560Y-8320D01*
X-8566Y-8303D01*
X-8573Y-8286D01*
X-8581Y-8270D01*
X-8591Y-8255D01*
X-8602Y-8241D01*
X-8615Y-8227D01*
X-8523Y-8135D01*
X-8509Y-8148D01*
D02*
G37*
G36*
X9318Y-8261D02*
X9186Y-8456D01*
X9006Y-8352D01*
X9021Y-8337D01*
X9045Y-8308D01*
X9054Y-8296D01*
X9061Y-8284D01*
X9065Y-8274D01*
X9067Y-8264D01*
X9067Y-8256D01*
X9065Y-8249D01*
X9060Y-8243D01*
X9318Y-8261D01*
D02*
G37*
G36*
X-7784Y-8309D02*
X-7782Y-8327D01*
X-7778Y-8345D01*
X-7773Y-8362D01*
X-7766Y-8379D01*
X-7758Y-8395D01*
X-7748Y-8411D01*
X-7737Y-8427D01*
X-7724Y-8442D01*
X-7710Y-8457D01*
X-7990D01*
X-7976Y-8442D01*
X-7963Y-8427D01*
X-7952Y-8411D01*
X-7942Y-8395D01*
X-7934Y-8379D01*
X-7927Y-8362D01*
X-7922Y-8345D01*
X-7918Y-8327D01*
X-7916Y-8309D01*
X-7915Y-8291D01*
X-7785D01*
X-7784Y-8309D01*
D02*
G37*
G36*
X-1440Y-8395D02*
X-1430Y-8396D01*
X-1392Y-8398D01*
X-1138Y-8400D01*
Y-8600D01*
X-1444Y-8606D01*
Y-8394D01*
X-1440Y-8395D01*
D02*
G37*
G36*
X10201Y-8487D02*
X10204Y-8521D01*
X10209Y-8552D01*
X10216Y-8578D01*
X10225Y-8600D01*
X10236Y-8619D01*
X10249Y-8633D01*
X10264Y-8643D01*
X10281Y-8649D01*
X10300Y-8651D01*
X9900D01*
X9919Y-8649D01*
X9936Y-8643D01*
X9951Y-8633D01*
X9964Y-8619D01*
X9975Y-8600D01*
X9984Y-8578D01*
X9991Y-8552D01*
X9996Y-8521D01*
X9999Y-8487D01*
X10000Y-8448D01*
X10200D01*
X10201Y-8487D01*
D02*
G37*
G36*
X5298Y-8600D02*
X5281Y-8601D01*
X5265Y-8603D01*
X5249Y-8606D01*
X5233Y-8611D01*
X5217Y-8617D01*
X5202Y-8625D01*
X5186Y-8634D01*
X5171Y-8645D01*
X5157Y-8657D01*
X5142Y-8671D01*
X5029Y-8558D01*
X5043Y-8543D01*
X5055Y-8529D01*
X5066Y-8514D01*
X5075Y-8498D01*
X5083Y-8483D01*
X5089Y-8467D01*
X5094Y-8451D01*
X5097Y-8435D01*
X5099Y-8419D01*
X5100Y-8402D01*
X5298Y-8600D01*
D02*
G37*
G36*
X-1028Y-8319D02*
X-1022Y-8336D01*
X-1011Y-8351D01*
X-997Y-8364D01*
X-979Y-8375D01*
X-957Y-8384D01*
X-930Y-8391D01*
X-900Y-8396D01*
X-865Y-8399D01*
X-827Y-8400D01*
Y-8600D01*
X-865Y-8601D01*
X-900Y-8604D01*
X-930Y-8609D01*
X-957Y-8616D01*
X-979Y-8625D01*
X-997Y-8636D01*
X-1011Y-8649D01*
X-1022Y-8664D01*
X-1028Y-8681D01*
X-1030Y-8700D01*
Y-8300D01*
X-1028Y-8319D01*
D02*
G37*
G36*
X-3728D02*
X-3722Y-8336D01*
X-3711Y-8351D01*
X-3697Y-8364D01*
X-3679Y-8375D01*
X-3657Y-8384D01*
X-3630Y-8391D01*
X-3600Y-8396D01*
X-3565Y-8399D01*
X-3527Y-8400D01*
Y-8600D01*
X-3565Y-8601D01*
X-3600Y-8604D01*
X-3630Y-8609D01*
X-3657Y-8616D01*
X-3679Y-8625D01*
X-3697Y-8636D01*
X-3711Y-8649D01*
X-3722Y-8664D01*
X-3728Y-8681D01*
X-3730Y-8700D01*
Y-8300D01*
X-3728Y-8319D01*
D02*
G37*
G36*
X-2070Y-8726D02*
X-2072Y-8712D01*
X-2079Y-8699D01*
X-2091Y-8687D01*
X-2107Y-8677D01*
X-2128Y-8669D01*
X-2153Y-8662D01*
X-2183Y-8657D01*
X-2217Y-8653D01*
X-2300Y-8650D01*
Y-8350D01*
X-2256Y-8349D01*
X-2183Y-8343D01*
X-2153Y-8338D01*
X-2128Y-8331D01*
X-2107Y-8323D01*
X-2091Y-8313D01*
X-2079Y-8301D01*
X-2072Y-8288D01*
X-2070Y-8274D01*
Y-8726D01*
D02*
G37*
G36*
X12200Y-8467D02*
X12216Y-8728D01*
X12221Y-8748D01*
X12227Y-8761D01*
X12233Y-8767D01*
X11667D01*
X11692Y-8753D01*
X11715Y-8735D01*
X11735Y-8711D01*
X11752Y-8682D01*
X11767Y-8648D01*
X11779Y-8608D01*
X11788Y-8564D01*
X11795Y-8514D01*
X11799Y-8460D01*
X11800Y-8400D01*
X12200D01*
X12200Y-8467D01*
D02*
G37*
G36*
X-9210Y-8737D02*
X-9206Y-8743D01*
X-9200Y-8751D01*
X-9185Y-8770D01*
X-9151Y-8807D01*
X-9121Y-8838D01*
X-9196Y-9045D01*
X-9212Y-9031D01*
X-9227Y-9018D01*
X-9241Y-9007D01*
X-9255Y-8998D01*
X-9269Y-8991D01*
X-9281Y-8986D01*
X-9294Y-8983D01*
X-9305Y-8982D01*
X-9317Y-8983D01*
X-9327Y-8986D01*
X-9212Y-8731D01*
X-9210Y-8737D01*
D02*
G37*
G36*
X-7745Y-9151D02*
X-7776Y-9183D01*
X-7826Y-9241D01*
X-7843Y-9266D01*
X-7856Y-9288D01*
X-7865Y-9308D01*
X-7868Y-9325D01*
X-7867Y-9339D01*
X-7862Y-9351D01*
X-7851Y-9360D01*
X-8110Y-9201D01*
X-8097Y-9207D01*
X-8081Y-9209D01*
X-8064Y-9208D01*
X-8046Y-9203D01*
X-8025Y-9194D01*
X-8003Y-9181D01*
X-7980Y-9164D01*
X-7954Y-9144D01*
X-7898Y-9092D01*
X-7745Y-9151D01*
D02*
G37*
G36*
X-8870Y-9087D02*
X-8808Y-9138D01*
X-8779Y-9157D01*
X-8750Y-9174D01*
X-8722Y-9186D01*
X-8695Y-9195D01*
X-8669Y-9201D01*
X-8644Y-9203D01*
X-8619Y-9201D01*
X-9052Y-9263D01*
X-9049Y-9251D01*
X-9050Y-9238D01*
X-9053Y-9224D01*
X-9060Y-9207D01*
X-9070Y-9189D01*
X-9084Y-9170D01*
X-9100Y-9148D01*
X-9142Y-9100D01*
X-9168Y-9073D01*
X-8902Y-9057D01*
X-8870Y-9087D01*
D02*
G37*
G36*
X-4770Y-9610D02*
X-4772Y-9592D01*
X-4776Y-9573D01*
X-4783Y-9552D01*
X-4793Y-9531D01*
X-4806Y-9509D01*
X-4821Y-9485D01*
X-4839Y-9461D01*
X-4884Y-9408D01*
X-4911Y-9381D01*
X-4865Y-9243D01*
X-4847Y-9260D01*
X-4831Y-9273D01*
X-4817Y-9283D01*
X-4805Y-9288D01*
X-4794Y-9290D01*
X-4786Y-9288D01*
X-4779Y-9283D01*
X-4774Y-9273D01*
X-4771Y-9260D01*
X-4770Y-9243D01*
Y-9610D01*
D02*
G37*
G36*
X7451Y-9068D02*
X7461Y-9074D01*
X7473Y-9080D01*
X7486Y-9086D01*
X7500Y-9090D01*
X7516Y-9094D01*
X7533Y-9096D01*
X7552Y-9098D01*
X7593Y-9100D01*
Y-9300D01*
X7572Y-9300D01*
X7533Y-9304D01*
X7516Y-9306D01*
X7500Y-9310D01*
X7486Y-9314D01*
X7473Y-9320D01*
X7461Y-9326D01*
X7451Y-9332D01*
X7443Y-9340D01*
Y-9060D01*
X7451Y-9068D01*
D02*
G37*
G36*
X-502Y-9300D02*
X-523Y-9300D01*
X-542Y-9302D01*
X-561Y-9305D01*
X-580Y-9310D01*
X-597Y-9316D01*
X-614Y-9323D01*
X-630Y-9331D01*
X-645Y-9341D01*
X-659Y-9352D01*
X-673Y-9365D01*
X-765Y-9273D01*
X-752Y-9259D01*
X-741Y-9245D01*
X-731Y-9230D01*
X-723Y-9214D01*
X-716Y-9197D01*
X-710Y-9180D01*
X-705Y-9161D01*
X-702Y-9142D01*
X-700Y-9123D01*
X-700Y-9102D01*
X-502Y-9300D01*
D02*
G37*
G36*
X-8349Y-9400D02*
X-8348Y-9400D01*
Y-9600D01*
X-8349Y-9600D01*
Y-9700D01*
X-8351Y-9681D01*
X-8357Y-9664D01*
X-8367Y-9649D01*
X-8381Y-9636D01*
X-8400Y-9625D01*
X-8422Y-9616D01*
X-8448Y-9609D01*
X-8450Y-9609D01*
X-8452Y-9609D01*
X-8478Y-9616D01*
X-8500Y-9625D01*
X-8519Y-9636D01*
X-8533Y-9649D01*
X-8543Y-9664D01*
X-8549Y-9681D01*
X-8551Y-9700D01*
Y-9600D01*
X-8552Y-9600D01*
Y-9400D01*
X-8551Y-9400D01*
Y-9300D01*
X-8549Y-9319D01*
X-8543Y-9336D01*
X-8533Y-9351D01*
X-8519Y-9364D01*
X-8500Y-9375D01*
X-8478Y-9384D01*
X-8452Y-9391D01*
X-8450Y-9391D01*
X-8448Y-9391D01*
X-8422Y-9384D01*
X-8400Y-9375D01*
X-8381Y-9364D01*
X-8367Y-9351D01*
X-8357Y-9336D01*
X-8351Y-9319D01*
X-8349Y-9300D01*
Y-9400D01*
D02*
G37*
G36*
X11039Y-9250D02*
X11031Y-9255D01*
X11024Y-9262D01*
X11017Y-9273D01*
X11012Y-9287D01*
X11008Y-9303D01*
X11004Y-9323D01*
X11002Y-9346D01*
X11000Y-9400D01*
X10800D01*
X10800Y-9371D01*
X10796Y-9323D01*
X10792Y-9303D01*
X10788Y-9287D01*
X10783Y-9273D01*
X10776Y-9262D01*
X10769Y-9255D01*
X10761Y-9250D01*
X10752Y-9249D01*
X11048D01*
X11039Y-9250D01*
D02*
G37*
G36*
X-1028Y-9332D02*
X-1024Y-9343D01*
X-1018Y-9353D01*
X-1008Y-9362D01*
X-996Y-9369D01*
X-982Y-9375D01*
X-964Y-9379D01*
X-945Y-9382D01*
X-922Y-9384D01*
X-897Y-9385D01*
Y-9515D01*
X-922Y-9516D01*
X-945Y-9518D01*
X-964Y-9521D01*
X-982Y-9525D01*
X-996Y-9531D01*
X-1008Y-9538D01*
X-1018Y-9547D01*
X-1024Y-9557D01*
X-1028Y-9568D01*
X-1030Y-9580D01*
Y-9320D01*
X-1028Y-9332D01*
D02*
G37*
G36*
X201Y-9484D02*
X203Y-9516D01*
X207Y-9545D01*
X213Y-9572D01*
X221Y-9595D01*
X230Y-9616D01*
X241Y-9633D01*
X253Y-9647D01*
X267Y-9659D01*
X283Y-9667D01*
X-100Y-9651D01*
X-81Y-9650D01*
X-64Y-9644D01*
X-49Y-9635D01*
X-36Y-9621D01*
X-25Y-9603D01*
X-16Y-9580D01*
X-9Y-9553D01*
X-4Y-9523D01*
X-1Y-9487D01*
X0Y-9448D01*
X200D01*
X201Y-9484D01*
D02*
G37*
G36*
X7453Y-9743D02*
X7457Y-9743D01*
X7513Y-9748D01*
X7574Y-9750D01*
Y-10150D01*
X7513Y-10152D01*
X7457Y-10157D01*
X7453Y-10157D01*
Y-10322D01*
X7428Y-10289D01*
X7400Y-10260D01*
X7367Y-10234D01*
X7330Y-10212D01*
X7300Y-10198D01*
X7270Y-10212D01*
X7233Y-10234D01*
X7200Y-10260D01*
X7172Y-10289D01*
X7147Y-10322D01*
Y-10157D01*
X7143Y-10157D01*
X7087Y-10152D01*
X7026Y-10150D01*
Y-9750D01*
X7087Y-9748D01*
X7143Y-9743D01*
X7147Y-9743D01*
Y-9578D01*
X7172Y-9611D01*
X7200Y-9640D01*
X7233Y-9666D01*
X7270Y-9688D01*
X7300Y-9702D01*
X7330Y-9688D01*
X7367Y-9666D01*
X7400Y-9640D01*
X7428Y-9611D01*
X7453Y-9578D01*
Y-9743D01*
D02*
G37*
G36*
X9167Y-9743D02*
X9279Y-9749D01*
X9352Y-9750D01*
Y-10150D01*
X9279Y-10151D01*
X9167Y-10159D01*
Y-10233D01*
X9157Y-10217D01*
X9139Y-10203D01*
X9115Y-10191D01*
X9084Y-10180D01*
X9050Y-10172D01*
X9017Y-10180D01*
X8985Y-10191D01*
X8961Y-10203D01*
X8943Y-10217D01*
X8933Y-10233D01*
Y-10157D01*
X8822Y-10151D01*
X8748Y-10150D01*
Y-9750D01*
X8822Y-9749D01*
X8933Y-9741D01*
Y-9667D01*
X8943Y-9683D01*
X8961Y-9697D01*
X8985Y-9709D01*
X9017Y-9720D01*
X9050Y-9728D01*
X9084Y-9720D01*
X9115Y-9709D01*
X9139Y-9697D01*
X9157Y-9683D01*
X9167Y-9667D01*
Y-9743D01*
D02*
G37*
G36*
X-6857Y-9233D02*
X-6841Y-9247D01*
X-6820Y-9259D01*
X-6792Y-9270D01*
X-6758Y-9279D01*
X-6718Y-9287D01*
X-6673Y-9293D01*
X-6564Y-9299D01*
X-6500Y-9300D01*
Y-9700D01*
X-6564Y-9701D01*
X-6718Y-9713D01*
X-6758Y-9721D01*
X-6792Y-9730D01*
X-6820Y-9741D01*
X-6841Y-9753D01*
X-6857Y-9767D01*
X-6867Y-9783D01*
X-6873Y-9790D01*
X-6879Y-9804D01*
X-6884Y-9826D01*
X-6888Y-9856D01*
X-6879Y-9996D01*
X-6873Y-10010D01*
X-6867Y-10017D01*
X-6897D01*
X-6900Y-10121D01*
X-6900Y-10197D01*
X-7300D01*
X-7300Y-10121D01*
X-7307Y-10017D01*
X-7333D01*
X-7327Y-10010D01*
X-7321Y-9996D01*
X-7316Y-9974D01*
X-7312Y-9944D01*
X-7321Y-9804D01*
X-7327Y-9790D01*
X-7333Y-9783D01*
X-7303D01*
X-7300Y-9679D01*
X-7300Y-9603D01*
X-6900D01*
X-6900Y-9679D01*
X-6893Y-9783D01*
X-6867D01*
Y-9217D01*
X-6857Y-9233D01*
D02*
G37*
G36*
X-14149Y-10260D02*
X-14151Y-10241D01*
X-14157Y-10224D01*
X-14167Y-10209D01*
X-14181Y-10196D01*
X-14200Y-10185D01*
X-14222Y-10176D01*
X-14248Y-10169D01*
X-14277Y-10164D01*
X-14305Y-10169D01*
X-14331Y-10176D01*
X-14353Y-10185D01*
X-14371Y-10196D01*
X-14385Y-10209D01*
X-14395Y-10224D01*
X-14401Y-10241D01*
X-14403Y-10260D01*
Y-9860D01*
X-14401Y-9879D01*
X-14395Y-9896D01*
X-14385Y-9911D01*
X-14371Y-9924D01*
X-14353Y-9935D01*
X-14331Y-9944D01*
X-14305Y-9951D01*
X-14277Y-9956D01*
X-14248Y-9951D01*
X-14222Y-9944D01*
X-14200Y-9935D01*
X-14181Y-9924D01*
X-14167Y-9911D01*
X-14157Y-9896D01*
X-14151Y-9879D01*
X-14149Y-9860D01*
Y-10260D01*
D02*
G37*
G36*
X-2680Y-9851D02*
X-2471Y-9909D01*
X-2459Y-9940D01*
X-2374Y-10049D01*
X-2265Y-10134D01*
X-2250Y-10140D01*
X-2224Y-10224D01*
X-2259Y-10400D01*
X-2224Y-10576D01*
X-2220Y-10581D01*
X-2234Y-10591D01*
X-2306Y-10698D01*
X-2331Y-10825D01*
Y-11275D01*
X-2306Y-11402D01*
X-2234Y-11509D01*
X-2127Y-11581D01*
X-2000Y-11606D01*
X-1100D01*
X-997Y-11586D01*
X-952Y-11652D01*
X-652Y-11952D01*
X-537Y-12030D01*
X-516Y-12034D01*
X-463Y-12113D01*
X-359Y-12182D01*
X-237Y-12206D01*
X237D01*
X359Y-12182D01*
X463Y-12113D01*
X464Y-12112D01*
X764Y-12203D01*
Y-12881D01*
X687Y-12944D01*
X312D01*
X191Y-12968D01*
X87Y-13037D01*
X-87D01*
X-191Y-12968D01*
X-312Y-12944D01*
X-687D01*
X-782Y-12657D01*
X-794Y-12598D01*
X-866Y-12491D01*
X-973Y-12419D01*
X-1100Y-12394D01*
X-2000D01*
X-2127Y-12419D01*
X-2234Y-12491D01*
X-2306Y-12598D01*
X-2331Y-12725D01*
Y-13175D01*
X-2306Y-13302D01*
X-2234Y-13409D01*
X-2134Y-13476D01*
X-2159Y-13600D01*
X-2124Y-13776D01*
X-2127Y-14005D01*
X-2234Y-14091D01*
X-2306Y-14198D01*
X-2331Y-14325D01*
Y-14775D01*
X-2306Y-14902D01*
X-2234Y-15009D01*
X-2127Y-15081D01*
X-2000Y-15106D01*
X-1209D01*
X-1020Y-15260D01*
X-956Y-15384D01*
Y-15616D01*
X-1020Y-15740D01*
X-1209Y-15894D01*
X-2000D01*
X-2127Y-15919D01*
X-2234Y-15991D01*
X-2306Y-16098D01*
X-2331Y-16225D01*
Y-16675D01*
X-2307Y-16799D01*
X-2324Y-16824D01*
X-2359Y-17000D01*
X-2324Y-17176D01*
X-2224Y-17324D01*
X-2076Y-17424D01*
X-1906Y-17562D01*
Y-18038D01*
X-1882Y-18159D01*
X-1813Y-18263D01*
X-1709Y-18332D01*
X-1587Y-18356D01*
X-1212D01*
X-1091Y-18332D01*
X-987Y-18263D01*
X-813D01*
X-709Y-18332D01*
X-588Y-18356D01*
X-213D01*
X-91Y-18332D01*
X13Y-18263D01*
X82Y-18159D01*
X106Y-18038D01*
Y-17562D01*
X82Y-17441D01*
X13Y-17337D01*
X-43Y-17300D01*
Y-16982D01*
X-41Y-16982D01*
X63Y-16913D01*
X94Y-16867D01*
X332Y-16797D01*
X442Y-16790D01*
X476Y-16824D01*
X624Y-16924D01*
X800Y-16959D01*
X1300D01*
X1476Y-16924D01*
X1624Y-16824D01*
X1724Y-16676D01*
X1734Y-16626D01*
X1926Y-16505D01*
X2037Y-16478D01*
X2208Y-16642D01*
X2208Y-16808D01*
X2120Y-16923D01*
X2064Y-17056D01*
X2045Y-17200D01*
Y-17900D01*
X2064Y-18044D01*
X2077Y-18075D01*
X2076Y-18076D01*
X1976Y-18224D01*
X1941Y-18400D01*
X1961Y-18500D01*
X1815Y-18609D01*
X1698Y-18658D01*
X1576Y-18576D01*
X1400Y-18541D01*
X1224Y-18576D01*
X1076Y-18676D01*
X976Y-18824D01*
X941Y-19000D01*
X976Y-19176D01*
X1054Y-19293D01*
X1018Y-19436D01*
X937Y-19593D01*
X825D01*
X679Y-19622D01*
X555Y-19705D01*
X472Y-19829D01*
X443Y-19975D01*
Y-20225D01*
X472Y-20371D01*
X473Y-20374D01*
X389Y-20697D01*
X371Y-20719D01*
X328Y-20732D01*
X322Y-20730D01*
X170Y-20667D01*
X0Y-20644D01*
X-170Y-20667D01*
X-328Y-20732D01*
X-464Y-20836D01*
X-568Y-20972D01*
X-633Y-21130D01*
X-656Y-21300D01*
X-633Y-21470D01*
X-568Y-21628D01*
X-464Y-21764D01*
X-328Y-21868D01*
X-170Y-21933D01*
X0Y-21956D01*
X28Y-21952D01*
X36Y-21964D01*
X172Y-22068D01*
X330Y-22133D01*
X500Y-22156D01*
X644Y-22137D01*
X687Y-22143D01*
X788Y-22200D01*
X953Y-22334D01*
X956Y-22350D01*
X896Y-22544D01*
X825Y-22675D01*
X817Y-22681D01*
X676Y-22776D01*
X576Y-22924D01*
X541Y-23100D01*
X576Y-23276D01*
X676Y-23424D01*
X824Y-23524D01*
X1000Y-23559D01*
X1082Y-23543D01*
X1141Y-23582D01*
X1263Y-23606D01*
X1737D01*
X1852Y-23583D01*
X1879Y-23592D01*
X2133Y-23732D01*
X2165Y-23908D01*
X1958Y-24143D01*
X748D01*
X-1248Y-22148D01*
X-1351Y-22079D01*
X-1404Y-22033D01*
X-1519Y-21928D01*
X-1550Y-21743D01*
X-1541Y-21700D01*
X-1576Y-21524D01*
X-1676Y-21376D01*
X-1824Y-21276D01*
X-2000Y-21241D01*
X-2176Y-21276D01*
X-2324Y-21376D01*
X-2424Y-21524D01*
X-2459Y-21700D01*
X-2450Y-21743D01*
X-2624Y-22010D01*
X-2673Y-22043D01*
X-5327D01*
X-5376Y-22010D01*
X-5550Y-21743D01*
X-5541Y-21700D01*
X-5576Y-21524D01*
X-5676Y-21376D01*
X-5824Y-21276D01*
X-6000Y-21241D01*
X-6176Y-21276D01*
X-6324Y-21376D01*
X-6424Y-21524D01*
X-6451Y-21536D01*
X-6745Y-21599D01*
X-6791Y-21568D01*
X-6913Y-21544D01*
X-7288D01*
X-7409Y-21568D01*
X-7513Y-21637D01*
X-7687D01*
X-7791Y-21568D01*
X-7912Y-21544D01*
X-8147D01*
X-8175Y-21520D01*
X-8633Y-21062D01*
X-8640Y-20989D01*
X-8550Y-20728D01*
X-8387Y-20683D01*
X-8326Y-20724D01*
X-8150Y-20759D01*
X-7974Y-20724D01*
X-7929Y-20693D01*
X-7874Y-20774D01*
X-7726Y-20874D01*
X-7550Y-20909D01*
X-7374Y-20874D01*
X-7226Y-20774D01*
X-7126Y-20626D01*
X-7091Y-20450D01*
X-7126Y-20274D01*
X-7043Y-20081D01*
X-6824Y-20176D01*
X-6724Y-20324D01*
X-6576Y-20424D01*
X-6400Y-20459D01*
X-6224Y-20424D01*
X-6076Y-20324D01*
X-5976Y-20176D01*
X-5941Y-20000D01*
X-5976Y-19824D01*
X-6029Y-19745D01*
X-5955Y-19695D01*
X-5872Y-19571D01*
X-5843Y-19425D01*
Y-19175D01*
X-5872Y-19029D01*
X-5955Y-18905D01*
X-6079Y-18822D01*
X-6151Y-18807D01*
X-6122Y-18507D01*
X-6025D01*
X-5879Y-18478D01*
X-5755Y-18395D01*
X-5672Y-18271D01*
X-5643Y-18125D01*
Y-17875D01*
X-5672Y-17729D01*
X-5755Y-17605D01*
X-5879Y-17522D01*
X-6025Y-17493D01*
X-6474D01*
X-6741Y-17300D01*
X-6776Y-17124D01*
X-6876Y-16976D01*
X-7024Y-16876D01*
X-7200Y-16841D01*
X-7376Y-16876D01*
X-7453Y-16928D01*
X-7700Y-16739D01*
Y-14945D01*
X-7611Y-14928D01*
X-7483Y-14842D01*
X-7417Y-14743D01*
X-7359Y-14782D01*
X-7238Y-14806D01*
X-6762D01*
X-6641Y-14782D01*
X-6537Y-14713D01*
X-6468Y-14609D01*
X-6444Y-14488D01*
Y-14113D01*
X-6468Y-13991D01*
X-6537Y-13887D01*
Y-13713D01*
X-6468Y-13609D01*
X-6444Y-13488D01*
Y-13113D01*
X-6468Y-12991D01*
X-6537Y-12887D01*
X-6545Y-12882D01*
X-6576Y-12724D01*
X-6603Y-12684D01*
X-6594Y-12638D01*
Y-12163D01*
X-6509Y-12059D01*
X-6040D01*
X-5950Y-12149D01*
X-5926Y-12175D01*
X-5893Y-12215D01*
X-5865Y-12254D01*
X-5844Y-12289D01*
X-5827Y-12320D01*
X-5817Y-12345D01*
X-5811Y-12365D01*
X-5808Y-12378D01*
X-5806Y-12405D01*
X-5805Y-12409D01*
X-5805Y-12413D01*
X-5793Y-12455D01*
X-5782Y-12509D01*
X-5713Y-12613D01*
X-5609Y-12682D01*
X-5487Y-12706D01*
X-5318D01*
X-5109Y-12720D01*
X-5031Y-12996D01*
Y-13175D01*
X-5006Y-13302D01*
X-4934Y-13409D01*
X-4827Y-13481D01*
X-4700Y-13506D01*
X-3800D01*
X-3673Y-13481D01*
X-3592Y-13528D01*
X-3547Y-13594D01*
X-3528Y-13870D01*
X-3536Y-13891D01*
X-3589Y-13941D01*
X-3800Y-13994D01*
X-3820Y-13994D01*
X-4700D01*
X-4827Y-14019D01*
X-4934Y-14091D01*
X-5006Y-14198D01*
X-5027Y-14305D01*
X-5113Y-14594D01*
X-5488D01*
X-5609Y-14618D01*
X-5713Y-14687D01*
X-5782Y-14791D01*
X-5806Y-14912D01*
Y-15387D01*
X-5782Y-15509D01*
X-5713Y-15613D01*
X-5659Y-15649D01*
Y-15700D01*
X-5624Y-15876D01*
X-5676Y-16076D01*
X-5824Y-16176D01*
X-5924Y-16324D01*
X-5959Y-16500D01*
X-5924Y-16676D01*
X-5824Y-16824D01*
X-5676Y-16924D01*
X-5500Y-16959D01*
X-5324Y-16924D01*
X-5224Y-16857D01*
X-4969D01*
X-4934Y-16909D01*
X-4827Y-16981D01*
X-4700Y-17006D01*
X-3800D01*
X-3657Y-16990D01*
X-3424Y-17124D01*
X-3276Y-17224D01*
X-3100Y-17259D01*
X-2924Y-17224D01*
X-2776Y-17124D01*
X-2676Y-16976D01*
X-2641Y-16800D01*
X-2676Y-16624D01*
X-2776Y-16476D01*
X-2924Y-16376D01*
X-3100Y-16341D01*
X-3140Y-16349D01*
X-3327Y-16223D01*
X-3357Y-16092D01*
X-3329Y-16059D01*
X-3140Y-15931D01*
X-3000Y-15959D01*
X-2824Y-15924D01*
X-2676Y-15824D01*
X-2576Y-15676D01*
X-2541Y-15500D01*
X-2576Y-15324D01*
X-2676Y-15176D01*
X-2824Y-15076D01*
X-2870Y-15067D01*
X-3033Y-14803D01*
X-3008Y-14703D01*
X-2924Y-14524D01*
X-2776Y-14424D01*
X-2676Y-14276D01*
X-2641Y-14100D01*
X-2676Y-13924D01*
X-2776Y-13776D01*
X-2924Y-13676D01*
X-3100Y-13641D01*
X-3114Y-13644D01*
X-3192Y-13455D01*
Y-13455D01*
X-3231Y-13361D01*
X-3207Y-13346D01*
X-3176Y-13324D01*
X-3076Y-13176D01*
X-3041Y-13000D01*
X-3076Y-12824D01*
X-3176Y-12676D01*
X-3296Y-12595D01*
X-3339Y-12545D01*
X-3474Y-12253D01*
X-3469Y-12225D01*
Y-11775D01*
X-3374Y-11634D01*
X-3324Y-11624D01*
X-3176Y-11524D01*
X-3076Y-11376D01*
X-3041Y-11200D01*
X-3076Y-11024D01*
X-3176Y-10876D01*
X-3324Y-10776D01*
X-3353Y-10770D01*
X-3362Y-10762D01*
X-3494Y-10673D01*
X-3513Y-10669D01*
X-3566Y-10591D01*
X-3673Y-10519D01*
X-3800Y-10494D01*
X-3800Y-10205D01*
X-3663Y-10186D01*
X-3535Y-10134D01*
X-3426Y-10049D01*
X-3341Y-9940D01*
X-3280Y-9921D01*
X-3276Y-9924D01*
X-3100Y-9959D01*
X-2924Y-9924D01*
X-2809Y-9847D01*
X-2748Y-9840D01*
X-2680Y-9851D01*
D02*
G37*
G36*
X6852Y-9310D02*
X6856Y-9362D01*
X6864Y-9409D01*
X6874Y-9448D01*
X6887Y-9482D01*
X6904Y-9509D01*
X6924Y-9530D01*
X6946Y-9544D01*
X6971Y-9552D01*
X7000Y-9554D01*
X6825Y-9562D01*
X7024Y-9751D01*
X6801Y-9974D01*
X6799Y-9970D01*
X6793Y-9961D01*
X6768Y-9933D01*
X6594Y-9756D01*
X6786Y-9564D01*
X6453Y-9578D01*
X6472Y-9563D01*
X6488Y-9545D01*
X6503Y-9522D01*
X6515Y-9495D01*
X6526Y-9464D01*
X6535Y-9430D01*
X6541Y-9391D01*
X6546Y-9348D01*
X6550Y-9251D01*
X6850D01*
X6852Y-9310D01*
D02*
G37*
G36*
X-8349Y-10200D02*
X-8348Y-10200D01*
Y-10400D01*
X-8349Y-10400D01*
Y-10500D01*
X-8351Y-10481D01*
X-8357Y-10464D01*
X-8367Y-10449D01*
X-8381Y-10436D01*
X-8400Y-10425D01*
X-8422Y-10416D01*
X-8448Y-10409D01*
X-8450Y-10409D01*
X-8452Y-10409D01*
X-8478Y-10416D01*
X-8500Y-10425D01*
X-8519Y-10436D01*
X-8533Y-10449D01*
X-8543Y-10464D01*
X-8549Y-10481D01*
X-8551Y-10500D01*
Y-10400D01*
X-8552Y-10400D01*
Y-10200D01*
X-8551Y-10200D01*
Y-10100D01*
X-8549Y-10119D01*
X-8543Y-10136D01*
X-8533Y-10151D01*
X-8519Y-10164D01*
X-8500Y-10175D01*
X-8478Y-10184D01*
X-8452Y-10191D01*
X-8450Y-10191D01*
X-8448Y-10191D01*
X-8422Y-10184D01*
X-8400Y-10175D01*
X-8381Y-10164D01*
X-8367Y-10151D01*
X-8357Y-10136D01*
X-8351Y-10119D01*
X-8349Y-10100D01*
Y-10200D01*
D02*
G37*
G36*
X8172Y-9611D02*
X8200Y-9640D01*
X8233Y-9666D01*
X8270Y-9688D01*
X8311Y-9707D01*
X8355Y-9723D01*
X8364Y-9725D01*
X8384Y-9720D01*
X8415Y-9709D01*
X8439Y-9697D01*
X8457Y-9683D01*
X8467Y-9667D01*
Y-9744D01*
X8513Y-9748D01*
X8574Y-9750D01*
Y-10150D01*
X8513Y-10152D01*
X8467Y-10156D01*
Y-10233D01*
X8457Y-10217D01*
X8439Y-10203D01*
X8415Y-10191D01*
X8384Y-10180D01*
X8364Y-10175D01*
X8355Y-10177D01*
X8311Y-10193D01*
X8270Y-10212D01*
X8233Y-10234D01*
X8200Y-10260D01*
X8172Y-10289D01*
X8147Y-10322D01*
Y-10152D01*
X8122Y-10151D01*
X8048Y-10150D01*
Y-9750D01*
X8122Y-9749D01*
X8147Y-9747D01*
Y-9578D01*
X8172Y-9611D01*
D02*
G37*
G36*
X11080Y-10096D02*
X11063Y-10102D01*
X11048Y-10113D01*
X11036Y-10127D01*
X11025Y-10146D01*
X11016Y-10169D01*
X11009Y-10196D01*
X11004Y-10227D01*
X11001Y-10262D01*
X11000Y-10302D01*
X10800D01*
X10799Y-10262D01*
X10796Y-10227D01*
X10791Y-10196D01*
X10784Y-10169D01*
X10775Y-10146D01*
X10764Y-10127D01*
X10752Y-10113D01*
X10737Y-10102D01*
X10720Y-10096D01*
X10701Y-10094D01*
X11099D01*
X11080Y-10096D01*
D02*
G37*
G36*
X-1555Y-10195D02*
X-1568Y-10210D01*
X-1580Y-10225D01*
X-1590Y-10240D01*
X-1598Y-10255D01*
X-1604Y-10270D01*
X-1608Y-10286D01*
X-1610Y-10302D01*
X-1611Y-10318D01*
X-1609Y-10335D01*
X-1606Y-10352D01*
X-1845Y-10205D01*
X-1827Y-10201D01*
X-1810Y-10195D01*
X-1794Y-10189D01*
X-1777Y-10181D01*
X-1762Y-10173D01*
X-1746Y-10164D01*
X-1731Y-10153D01*
X-1717Y-10142D01*
X-1702Y-10130D01*
X-1689Y-10117D01*
X-1555Y-10195D01*
D02*
G37*
G36*
X10200Y-10149D02*
X10181Y-10150D01*
X10164Y-10156D01*
X10149Y-10165D01*
X10136Y-10179D01*
X10125Y-10197D01*
X10116Y-10220D01*
X10109Y-10247D01*
X10104Y-10277D01*
X10101Y-10313D01*
X10100Y-10352D01*
X9900D01*
X9899Y-10316D01*
X9897Y-10284D01*
X9893Y-10255D01*
X9887Y-10228D01*
X9879Y-10205D01*
X9870Y-10184D01*
X9859Y-10167D01*
X9847Y-10153D01*
X9833Y-10141D01*
X9817Y-10133D01*
X10200Y-10149D01*
D02*
G37*
G36*
X6042Y-10248D02*
X6033Y-10256D01*
X6025Y-10268D01*
X6018Y-10286D01*
X6013Y-10309D01*
X6008Y-10337D01*
X6005Y-10370D01*
X6001Y-10452D01*
X6000Y-10500D01*
X5600D01*
X5599Y-10452D01*
X5592Y-10337D01*
X5587Y-10309D01*
X5582Y-10286D01*
X5575Y-10268D01*
X5567Y-10256D01*
X5558Y-10248D01*
X5549Y-10246D01*
X6051D01*
X6042Y-10248D01*
D02*
G37*
G36*
X1157Y-10557D02*
X1143Y-10570D01*
X1106Y-10613D01*
X1100Y-10622D01*
X1096Y-10629D01*
X1093Y-10635D01*
X1092Y-10640D01*
X1092Y-10645D01*
X955Y-10508D01*
X960Y-10508D01*
X965Y-10507D01*
X971Y-10504D01*
X978Y-10500D01*
X987Y-10494D01*
X996Y-10487D01*
X1018Y-10468D01*
X1043Y-10443D01*
X1157Y-10557D01*
D02*
G37*
G36*
X-1134Y-10286D02*
X-1128Y-10289D01*
X-1121Y-10292D01*
X-1111Y-10294D01*
X-1099Y-10296D01*
X-1068Y-10299D01*
X-1029Y-10300D01*
X-1007Y-10300D01*
Y-10500D01*
X-1029Y-10500D01*
X-1111Y-10506D01*
X-1121Y-10508D01*
X-1128Y-10511D01*
X-1134Y-10514D01*
X-1138Y-10517D01*
Y-10283D01*
X-1134Y-10286D01*
D02*
G37*
G36*
X-9719Y-10599D02*
X-9737Y-10590D01*
X-9756Y-10586D01*
X-9779Y-10588D01*
X-9803Y-10595D01*
X-9830Y-10607D01*
X-9860Y-10624D01*
X-9892Y-10646D01*
X-9926Y-10673D01*
X-10002Y-10743D01*
X-10193Y-10652D01*
X-10151Y-10608D01*
X-10085Y-10531D01*
X-10062Y-10498D01*
X-10044Y-10468D01*
X-10033Y-10442D01*
X-10028Y-10418D01*
X-10028Y-10399D01*
X-10036Y-10382D01*
X-10049Y-10369D01*
X-9719Y-10599D01*
D02*
G37*
G36*
X-12720Y-10356D02*
X-12737Y-10362D01*
X-12752Y-10373D01*
X-12764Y-10387D01*
X-12775Y-10406D01*
X-12784Y-10429D01*
X-12791Y-10456D01*
X-12791Y-10457D01*
X-12788Y-10468D01*
X-12782Y-10480D01*
X-12776Y-10490D01*
X-12768Y-10497D01*
X-12760Y-10503D01*
X-12750Y-10506D01*
X-12799Y-10533D01*
X-12800Y-10562D01*
X-12852D01*
X-12990Y-10638D01*
X-12993Y-10562D01*
X-13000D01*
X-13001Y-10522D01*
X-13004Y-10487D01*
X-13009Y-10456D01*
X-13016Y-10429D01*
X-13025Y-10406D01*
X-13036Y-10387D01*
X-13048Y-10373D01*
X-13063Y-10362D01*
X-13080Y-10356D01*
X-13099Y-10354D01*
X-12701D01*
X-12720Y-10356D01*
D02*
G37*
G36*
X-8000Y-10507D02*
X-8010Y-10738D01*
X-8250Y-10606D01*
X-8240Y-10603D01*
X-8232Y-10597D01*
X-8224Y-10590D01*
X-8218Y-10580D01*
X-8212Y-10568D01*
X-8208Y-10555D01*
X-8204Y-10539D01*
X-8202Y-10521D01*
X-8200Y-10502D01*
X-8200Y-10480D01*
X-8000Y-10507D01*
D02*
G37*
G36*
X-223Y-10570D02*
X-170Y-10614D01*
X-147Y-10631D01*
X-125Y-10644D01*
X-104Y-10653D01*
X-86Y-10658D01*
X-69Y-10659D01*
X-53Y-10657D01*
X-40Y-10651D01*
X-299Y-10810D01*
X-288Y-10801D01*
X-283Y-10789D01*
X-282Y-10775D01*
X-285Y-10758D01*
X-294Y-10738D01*
X-307Y-10716D01*
X-324Y-10691D01*
X-347Y-10664D01*
X-405Y-10601D01*
X-252Y-10542D01*
X-223Y-10570D01*
D02*
G37*
G36*
X9167Y-10843D02*
X9278Y-10849D01*
X9352Y-10850D01*
Y-11250D01*
X9278Y-11251D01*
X9167Y-11259D01*
Y-11333D01*
X9157Y-11317D01*
X9139Y-11303D01*
X9115Y-11291D01*
X9083Y-11280D01*
X9050Y-11272D01*
X9016Y-11280D01*
X8985Y-11291D01*
X8961Y-11303D01*
X8943Y-11317D01*
X8933Y-11333D01*
Y-11257D01*
X8821Y-11251D01*
X8748Y-11250D01*
Y-10850D01*
X8821Y-10849D01*
X8933Y-10841D01*
Y-10767D01*
X8943Y-10783D01*
X8961Y-10797D01*
X8985Y-10809D01*
X9016Y-10820D01*
X9050Y-10828D01*
X9083Y-10820D01*
X9115Y-10809D01*
X9139Y-10797D01*
X9157Y-10783D01*
X9167Y-10767D01*
Y-10843D01*
D02*
G37*
G36*
X12800Y-9600D02*
Y-9700D01*
Y-10900D01*
X12300D01*
Y-10300D01*
X12100Y-10100D01*
X11900D01*
Y-9651D01*
X11800Y-9652D01*
X11799Y-9582D01*
X11794Y-9529D01*
X11667Y-9517D01*
X11692Y-9503D01*
X11715Y-9483D01*
X11735Y-9456D01*
X11752Y-9424D01*
X11767Y-9385D01*
X11769Y-9375D01*
X11767Y-9365D01*
X11752Y-9327D01*
X11735Y-9294D01*
X11715Y-9267D01*
X11692Y-9247D01*
X11667Y-9233D01*
X11794D01*
X11795Y-9231D01*
X11799Y-9168D01*
X11800Y-9098D01*
X11900D01*
Y-9000D01*
X12200D01*
X12800Y-9600D01*
D02*
G37*
G36*
X8492Y-11092D02*
X8591Y-11191D01*
X8519Y-11266D01*
X8507Y-11280D01*
X8512Y-11352D01*
X8499Y-11350D01*
X8481Y-11354D01*
X8459Y-11363D01*
X8433Y-11379D01*
X8403Y-11400D01*
X8399Y-11403D01*
X8341Y-11470D01*
X8295Y-11532D01*
X8223Y-11646D01*
X8198Y-11698D01*
X8179Y-11746D01*
X8167Y-11792D01*
X7896Y-11054D01*
X7913Y-11088D01*
X7936Y-11111D01*
X7963Y-11123D01*
X7997Y-11125D01*
X8035Y-11115D01*
X8079Y-11095D01*
X8128Y-11065D01*
X8183Y-11023D01*
X8243Y-10971D01*
X8309Y-10909D01*
X8314Y-10914D01*
X8467Y-10767D01*
X8492Y-11092D01*
D02*
G37*
G36*
X1092Y-10760D02*
X1093Y-10765D01*
X1096Y-10771D01*
X1100Y-10778D01*
X1106Y-10787D01*
X1113Y-10796D01*
X1132Y-10818D01*
X1157Y-10843D01*
X1043Y-10957D01*
X1030Y-10943D01*
X987Y-10906D01*
X978Y-10900D01*
X971Y-10896D01*
X965Y-10893D01*
X960Y-10892D01*
X955Y-10892D01*
X1092Y-10755D01*
X1092Y-10760D01*
D02*
G37*
G36*
X-4526Y-10667D02*
X-4482Y-10703D01*
X-4460Y-10717D01*
X-4439Y-10729D01*
X-4418Y-10739D01*
X-4397Y-10747D01*
X-4376Y-10752D01*
X-4356Y-10754D01*
X-4336Y-10755D01*
X-4431Y-10758D01*
X-4291Y-10881D01*
X-4274Y-10892D01*
X-4260Y-10898D01*
X-4250Y-10900D01*
X-4400Y-11050D01*
X-4402Y-11040D01*
X-4408Y-11026D01*
X-4419Y-11009D01*
X-4433Y-10989D01*
X-4475Y-10939D01*
X-4568Y-10839D01*
X-4607Y-10799D01*
X-4572Y-10764D01*
X-4742Y-10771D01*
X-4724Y-10769D01*
X-4710Y-10764D01*
X-4701Y-10758D01*
X-4696Y-10749D01*
X-4696Y-10737D01*
X-4700Y-10724D01*
X-4708Y-10708D01*
X-4721Y-10689D01*
X-4739Y-10669D01*
X-4760Y-10646D01*
X-4548D01*
X-4526Y-10667D01*
D02*
G37*
G36*
X10071Y-10971D02*
X10059Y-10983D01*
X10049Y-10996D01*
X10039Y-11010D01*
X10030Y-11024D01*
X10023Y-11039D01*
X10016Y-11055D01*
X10010Y-11072D01*
X10005Y-11089D01*
X10001Y-11107D01*
X9998Y-11126D01*
X9774Y-10902D01*
X9793Y-10899D01*
X9811Y-10895D01*
X9828Y-10890D01*
X9845Y-10884D01*
X9861Y-10877D01*
X9876Y-10870D01*
X9890Y-10861D01*
X9904Y-10851D01*
X9917Y-10841D01*
X9929Y-10829D01*
X10071Y-10971D01*
D02*
G37*
G36*
X-10849Y-10918D02*
X-10839Y-10924D01*
X-10827Y-10930D01*
X-10814Y-10936D01*
X-10800Y-10940D01*
X-10784Y-10944D01*
X-10767Y-10946D01*
X-10748Y-10948D01*
X-10707Y-10950D01*
Y-11150D01*
X-10728Y-11150D01*
X-10767Y-11154D01*
X-10784Y-11156D01*
X-10800Y-11160D01*
X-10814Y-11164D01*
X-10827Y-11170D01*
X-10839Y-11176D01*
X-10849Y-11182D01*
X-10857Y-11190D01*
Y-10910D01*
X-10849Y-10918D01*
D02*
G37*
G36*
X7453Y-11243D02*
X7457Y-11243D01*
X7513Y-11248D01*
X7574Y-11250D01*
Y-11650D01*
X7513Y-11652D01*
X7457Y-11657D01*
X7453Y-11657D01*
Y-11822D01*
X7428Y-11789D01*
X7400Y-11760D01*
X7367Y-11734D01*
X7330Y-11712D01*
X7300Y-11698D01*
X7270Y-11712D01*
X7233Y-11734D01*
X7200Y-11760D01*
X7172Y-11789D01*
X7147Y-11822D01*
Y-11657D01*
X7143Y-11657D01*
X7087Y-11652D01*
X7026Y-11650D01*
Y-11250D01*
X7087Y-11248D01*
X7143Y-11243D01*
X7147Y-11243D01*
Y-11078D01*
X7172Y-11111D01*
X7200Y-11140D01*
X7233Y-11166D01*
X7270Y-11188D01*
X7300Y-11202D01*
X7330Y-11188D01*
X7367Y-11166D01*
X7400Y-11140D01*
X7428Y-11111D01*
X7453Y-11078D01*
Y-11243D01*
D02*
G37*
G36*
X-8799Y-11139D02*
X-8796Y-11174D01*
X-8791Y-11205D01*
X-8785Y-11231D01*
X-8780Y-11243D01*
X-8760Y-11243D01*
X-8768Y-11251D01*
X-8773Y-11259D01*
X-8765Y-11273D01*
X-8752Y-11287D01*
X-8738Y-11297D01*
X-8721Y-11303D01*
X-8703Y-11305D01*
X-8791D01*
X-8794Y-11316D01*
X-8796Y-11333D01*
X-8798Y-11352D01*
X-8800Y-11393D01*
X-9000Y-11393D01*
X-9000Y-11372D01*
X-9004Y-11333D01*
X-9006Y-11316D01*
X-9009Y-11305D01*
X-9097D01*
X-9079Y-11303D01*
X-9062Y-11297D01*
X-9048Y-11287D01*
X-9035Y-11273D01*
X-9027Y-11259D01*
X-9032Y-11251D01*
X-9040Y-11243D01*
X-9020Y-11243D01*
X-9016Y-11231D01*
X-9009Y-11205D01*
X-9004Y-11174D01*
X-9001Y-11139D01*
X-9000Y-11100D01*
X-8800D01*
X-8799Y-11139D01*
D02*
G37*
G36*
X-8349Y-11800D02*
X-8351Y-11781D01*
X-8357Y-11764D01*
X-8367Y-11749D01*
X-8381Y-11736D01*
X-8400Y-11725D01*
X-8422Y-11716D01*
X-8448Y-11709D01*
X-8479Y-11704D01*
X-8500Y-11702D01*
X-8521Y-11704D01*
X-8552Y-11709D01*
X-8578Y-11716D01*
X-8600Y-11725D01*
X-8619Y-11736D01*
X-8633Y-11749D01*
X-8643Y-11764D01*
X-8649Y-11781D01*
X-8651Y-11800D01*
Y-11400D01*
X-8649Y-11419D01*
X-8643Y-11436D01*
X-8633Y-11451D01*
X-8619Y-11464D01*
X-8600Y-11475D01*
X-8578Y-11484D01*
X-8552Y-11491D01*
X-8521Y-11496D01*
X-8500Y-11498D01*
X-8479Y-11496D01*
X-8448Y-11491D01*
X-8422Y-11484D01*
X-8400Y-11475D01*
X-8381Y-11464D01*
X-8367Y-11451D01*
X-8357Y-11436D01*
X-8351Y-11419D01*
X-8349Y-11400D01*
Y-11800D01*
D02*
G37*
G36*
X-10649Y-11418D02*
X-10639Y-11424D01*
X-10627Y-11430D01*
X-10614Y-11436D01*
X-10600Y-11440D01*
X-10584Y-11444D01*
X-10567Y-11446D01*
X-10548Y-11448D01*
X-10507Y-11450D01*
Y-11650D01*
X-10528Y-11650D01*
X-10567Y-11654D01*
X-10584Y-11656D01*
X-10600Y-11660D01*
X-10614Y-11664D01*
X-10627Y-11670D01*
X-10639Y-11676D01*
X-10649Y-11682D01*
X-10657Y-11690D01*
Y-11410D01*
X-10649Y-11418D01*
D02*
G37*
G36*
X4481Y-11572D02*
X4483Y-11600D01*
X4487Y-11624D01*
X4493Y-11645D01*
X4500Y-11663D01*
X4509Y-11678D01*
X4519Y-11690D01*
X4531Y-11698D01*
X4545Y-11703D01*
X4560Y-11704D01*
X4240D01*
X4255Y-11703D01*
X4269Y-11698D01*
X4281Y-11690D01*
X4291Y-11678D01*
X4300Y-11663D01*
X4307Y-11645D01*
X4313Y-11624D01*
X4317Y-11600D01*
X4319Y-11572D01*
X4320Y-11541D01*
X4480D01*
X4481Y-11572D01*
D02*
G37*
G36*
X1881Y-11572D02*
X1883Y-11600D01*
X1887Y-11624D01*
X1893Y-11645D01*
X1900Y-11663D01*
X1909Y-11678D01*
X1919Y-11690D01*
X1931Y-11698D01*
X1945Y-11703D01*
X1960Y-11704D01*
X1640D01*
X1655Y-11703D01*
X1669Y-11698D01*
X1681Y-11690D01*
X1691Y-11678D01*
X1700Y-11663D01*
X1707Y-11645D01*
X1713Y-11624D01*
X1717Y-11600D01*
X1719Y-11572D01*
X1720Y-11541D01*
X1880D01*
X1881Y-11572D01*
D02*
G37*
G36*
X-10149Y-11750D02*
X-10151Y-11731D01*
X-10156Y-11714D01*
X-10167Y-11699D01*
X-10181Y-11686D01*
X-10199Y-11675D01*
X-10221Y-11666D01*
X-10248Y-11659D01*
X-10278Y-11654D01*
X-10313Y-11651D01*
X-10352Y-11650D01*
Y-11450D01*
X-10313Y-11449D01*
X-10277Y-11446D01*
X-10246Y-11441D01*
X-10219Y-11434D01*
X-10196Y-11425D01*
X-10178Y-11414D01*
X-10163Y-11402D01*
X-10153Y-11387D01*
X-10146Y-11370D01*
X-10144Y-11351D01*
X-10149Y-11750D01*
D02*
G37*
G36*
X2781Y-11619D02*
X2783Y-11647D01*
X2787Y-11671D01*
X2793Y-11693D01*
X2800Y-11710D01*
X2809Y-11725D01*
X2819Y-11737D01*
X2831Y-11745D01*
X2845Y-11750D01*
X2860Y-11751D01*
X2540D01*
X2555Y-11750D01*
X2569Y-11745D01*
X2581Y-11737D01*
X2591Y-11725D01*
X2600Y-11710D01*
X2607Y-11693D01*
X2613Y-11671D01*
X2617Y-11647D01*
X2619Y-11619D01*
X2620Y-11588D01*
X2780D01*
X2781Y-11619D01*
D02*
G37*
G36*
X3778Y-11635D02*
X3756Y-11659D01*
X3738Y-11680D01*
X3724Y-11699D01*
X3716Y-11715D01*
X3712Y-11729D01*
X3713Y-11741D01*
X3719Y-11750D01*
X3730Y-11757D01*
X3745Y-11761D01*
X3765Y-11763D01*
X3326Y-11751D01*
X3348Y-11750D01*
X3371Y-11745D01*
X3396Y-11737D01*
X3422Y-11725D01*
X3450Y-11709D01*
X3479Y-11690D01*
X3509Y-11668D01*
X3574Y-11612D01*
X3608Y-11578D01*
X3778Y-11635D01*
D02*
G37*
G36*
X6149Y-11088D02*
X6160Y-11122D01*
X6179Y-11152D01*
X6207Y-11178D01*
X6243Y-11200D01*
X6277Y-11214D01*
X6295Y-11207D01*
X6334Y-11188D01*
X6369Y-11166D01*
X6401Y-11140D01*
X6429Y-11111D01*
X6453Y-11078D01*
Y-11246D01*
X6471Y-11248D01*
X6549Y-11250D01*
Y-11650D01*
X6489Y-11652D01*
X6453Y-11655D01*
Y-11822D01*
X6429Y-11789D01*
X6401Y-11760D01*
X6369Y-11734D01*
X6334Y-11712D01*
X6295Y-11693D01*
X6292Y-11692D01*
X6288Y-11693D01*
X6247Y-11712D01*
X6210Y-11735D01*
X6177Y-11761D01*
X6148Y-11790D01*
X6123Y-11823D01*
X6128Y-11654D01*
X6106Y-11652D01*
X6050Y-11650D01*
Y-11250D01*
X6106Y-11248D01*
X6140Y-11245D01*
X6146Y-11050D01*
X6149Y-11088D01*
D02*
G37*
G36*
X-6853Y-11362D02*
X-6845Y-11370D01*
X-6832Y-11377D01*
X-6815Y-11383D01*
X-6792Y-11388D01*
X-6763Y-11392D01*
X-6692Y-11398D01*
X-6600Y-11400D01*
Y-11800D01*
X-6649Y-11800D01*
X-6792Y-11812D01*
X-6815Y-11817D01*
X-6832Y-11823D01*
X-6845Y-11830D01*
X-6853Y-11838D01*
X-6855Y-11847D01*
Y-11353D01*
X-6853Y-11362D01*
D02*
G37*
G36*
X-5546Y-11619D02*
X-5439Y-11710D01*
X-5388Y-11746D01*
X-5338Y-11777D01*
X-5290Y-11803D01*
X-5243Y-11823D01*
X-5198Y-11837D01*
X-5155Y-11845D01*
X-5150Y-11846D01*
Y-11800D01*
X-5084Y-11799D01*
X-4920Y-11788D01*
X-4877Y-11781D01*
X-4840Y-11772D01*
X-4809Y-11762D01*
X-4784Y-11751D01*
X-4765Y-11738D01*
X-4752Y-11723D01*
Y-11802D01*
X-4648Y-11800D01*
Y-12200D01*
X-4729Y-12202D01*
X-4752Y-12204D01*
Y-12277D01*
X-4765Y-12262D01*
X-4784Y-12249D01*
X-4809Y-12238D01*
X-4840Y-12228D01*
X-4873Y-12220D01*
X-4919Y-12232D01*
X-4964Y-12250D01*
X-5001Y-12272D01*
X-5028Y-12297D01*
X-5046Y-12327D01*
X-5056Y-12361D01*
X-5056Y-12399D01*
X-5076Y-12202D01*
X-5150Y-12200D01*
Y-11894D01*
X-5552Y-12388D01*
X-5555Y-12345D01*
X-5563Y-12302D01*
X-5577Y-12257D01*
X-5597Y-12210D01*
X-5623Y-12162D01*
X-5654Y-12112D01*
X-5690Y-12061D01*
X-5733Y-12008D01*
X-5835Y-11898D01*
X-5602Y-11565D01*
X-5546Y-11619D01*
D02*
G37*
G36*
X-6900Y-11703D02*
X-6900Y-11779D01*
X-6893Y-11883D01*
X-6867D01*
X-6873Y-11890D01*
X-6879Y-11904D01*
X-6884Y-11926D01*
X-6888Y-11956D01*
X-6879Y-12096D01*
X-6873Y-12110D01*
X-6867Y-12117D01*
X-6897D01*
X-6900Y-12221D01*
X-6900Y-12297D01*
X-7300Y-12297D01*
X-7300Y-12221D01*
X-7307Y-12117D01*
X-7333D01*
X-7327Y-12110D01*
X-7321Y-12096D01*
X-7316Y-12074D01*
X-7312Y-12044D01*
X-7321Y-11904D01*
X-7327Y-11890D01*
X-7333Y-11883D01*
X-7303D01*
X-7300Y-11779D01*
X-7300Y-11703D01*
X-6900Y-11703D01*
D02*
G37*
G36*
X9797Y-11921D02*
X9803Y-11938D01*
X9813Y-11952D01*
X9827Y-11965D01*
X9846Y-11976D01*
X9869Y-11984D01*
X9895Y-11991D01*
X9926Y-11996D01*
X9961Y-11999D01*
X10000Y-12000D01*
Y-12200D01*
X9961Y-12201D01*
X9926Y-12204D01*
X9895Y-12209D01*
X9869Y-12216D01*
X9846Y-12224D01*
X9827Y-12235D01*
X9813Y-12248D01*
X9803Y-12262D01*
X9797Y-12279D01*
X9795Y-12297D01*
X9795Y-11903D01*
X9797Y-11921D01*
D02*
G37*
G36*
X-10805Y-12099D02*
X-10804Y-12111D01*
X-10802Y-12123D01*
X-10798Y-12136D01*
X-10792Y-12150D01*
X-10784Y-12163D01*
X-10775Y-12178D01*
X-10764Y-12192D01*
X-10750Y-12207D01*
X-10736Y-12223D01*
X-10907Y-12335D01*
X-10922Y-12319D01*
X-10965Y-12283D01*
X-10978Y-12273D01*
X-10990Y-12265D01*
X-11002Y-12258D01*
X-11013Y-12253D01*
X-11024Y-12250D01*
X-11033Y-12247D01*
X-10804Y-12087D01*
X-10805Y-12099D01*
D02*
G37*
G36*
X-8650Y-12261D02*
X-8648Y-12264D01*
X-8643Y-12260D01*
Y-12271D01*
X-8638Y-12276D01*
X-8627Y-12283D01*
X-8613Y-12288D01*
X-8597Y-12292D01*
X-8577Y-12296D01*
X-8554Y-12298D01*
X-8500Y-12300D01*
X-8471Y-12300D01*
X-8423Y-12296D01*
X-8403Y-12292D01*
X-8387Y-12288D01*
X-8373Y-12283D01*
X-8362Y-12276D01*
X-8357Y-12271D01*
Y-12260D01*
X-8352Y-12264D01*
X-8350Y-12261D01*
X-8349Y-12252D01*
Y-12267D01*
X-8349Y-12268D01*
X-8339Y-12274D01*
X-8327Y-12280D01*
X-8314Y-12286D01*
X-8300Y-12290D01*
X-8284Y-12294D01*
X-8267Y-12296D01*
X-8248Y-12298D01*
X-8207Y-12300D01*
Y-12500D01*
X-8228Y-12500D01*
X-8267Y-12504D01*
X-8284Y-12506D01*
X-8300Y-12510D01*
X-8314Y-12514D01*
X-8327Y-12520D01*
X-8339Y-12526D01*
X-8349Y-12532D01*
X-8349Y-12533D01*
Y-12548D01*
X-8350Y-12539D01*
X-8352Y-12536D01*
X-8357Y-12540D01*
Y-12529D01*
X-8362Y-12524D01*
X-8373Y-12517D01*
X-8387Y-12512D01*
X-8403Y-12508D01*
X-8423Y-12504D01*
X-8446Y-12502D01*
X-8500Y-12500D01*
X-8529Y-12500D01*
X-8577Y-12504D01*
X-8597Y-12508D01*
X-8613Y-12512D01*
X-8627Y-12517D01*
X-8638Y-12524D01*
X-8643Y-12529D01*
Y-12540D01*
X-8648Y-12536D01*
X-8650Y-12539D01*
X-8651Y-12548D01*
Y-12533D01*
X-8651Y-12532D01*
X-8661Y-12526D01*
X-8673Y-12520D01*
X-8686Y-12514D01*
X-8700Y-12510D01*
X-8716Y-12506D01*
X-8733Y-12504D01*
X-8752Y-12502D01*
X-8793Y-12500D01*
Y-12300D01*
X-8772Y-12300D01*
X-8733Y-12296D01*
X-8716Y-12294D01*
X-8700Y-12290D01*
X-8686Y-12286D01*
X-8673Y-12280D01*
X-8661Y-12274D01*
X-8651Y-12268D01*
X-8651Y-12267D01*
Y-12252D01*
X-8650Y-12261D01*
D02*
G37*
G36*
X-10149Y-12600D02*
X-10151Y-12581D01*
X-10157Y-12564D01*
X-10167Y-12549D01*
X-10181Y-12536D01*
X-10200Y-12525D01*
X-10222Y-12516D01*
X-10248Y-12509D01*
X-10279Y-12504D01*
X-10313Y-12501D01*
X-10352Y-12500D01*
Y-12300D01*
X-10313Y-12299D01*
X-10279Y-12296D01*
X-10248Y-12291D01*
X-10222Y-12284D01*
X-10200Y-12275D01*
X-10181Y-12264D01*
X-10167Y-12251D01*
X-10157Y-12236D01*
X-10151Y-12219D01*
X-10149Y-12200D01*
Y-12600D01*
D02*
G37*
G36*
X10851Y-12799D02*
X10858Y-12916D01*
X10863Y-12945D01*
X10868Y-12968D01*
X10875Y-12987D01*
X10883Y-13000D01*
X10891Y-13007D01*
X10901Y-13010D01*
X10399D01*
X10409Y-13007D01*
X10417Y-13000D01*
X10425Y-12987D01*
X10432Y-12968D01*
X10437Y-12945D01*
X10442Y-12916D01*
X10445Y-12883D01*
X10449Y-12799D01*
X10450Y-12750D01*
X10850D01*
X10851Y-12799D01*
D02*
G37*
G36*
X12751D02*
X12758Y-12916D01*
X12763Y-12945D01*
X12768Y-12968D01*
X12775Y-12987D01*
X12783Y-13000D01*
X12791Y-13007D01*
X12801Y-13010D01*
X12299D01*
X12309Y-13007D01*
X12317Y-13000D01*
X12325Y-12987D01*
X12332Y-12968D01*
X12337Y-12945D01*
X12342Y-12916D01*
X12345Y-12883D01*
X12349Y-12799D01*
X12350Y-12750D01*
X12750D01*
X12751Y-12799D01*
D02*
G37*
G36*
X5282Y-13039D02*
X5342Y-13089D01*
X5372Y-13108D01*
X5400Y-13124D01*
X5428Y-13137D01*
X5456Y-13146D01*
X5482Y-13152D01*
X5508Y-13155D01*
X5534Y-13154D01*
X5026Y-13208D01*
X5049Y-13205D01*
X5067Y-13199D01*
X5080Y-13190D01*
X5088Y-13180D01*
X5091Y-13167D01*
X5088Y-13152D01*
X5081Y-13135D01*
X5069Y-13116D01*
X5052Y-13094D01*
X5029Y-13071D01*
X5251Y-13009D01*
X5282Y-13039D01*
D02*
G37*
G36*
X-3728Y-12788D02*
X-3721Y-12801D01*
X-3710Y-12812D01*
X-3694Y-12822D01*
X-3674Y-12831D01*
X-3648Y-12838D01*
X-3618Y-12843D01*
X-3584Y-12847D01*
X-3500Y-12850D01*
Y-13150D01*
X-3538Y-13151D01*
X-3605Y-13157D01*
X-3634Y-13162D01*
X-3660Y-13169D01*
X-3684Y-13178D01*
X-3704Y-13188D01*
X-3722Y-13199D01*
X-3736Y-13212D01*
X-3748Y-13227D01*
X-3730Y-12773D01*
X-3728Y-12788D01*
D02*
G37*
G36*
X922Y-13392D02*
X888Y-13426D01*
X832Y-13491D01*
X810Y-13521D01*
X791Y-13550D01*
X775Y-13578D01*
X763Y-13604D01*
X755Y-13629D01*
X750Y-13652D01*
X749Y-13674D01*
X737Y-13235D01*
X739Y-13255D01*
X743Y-13270D01*
X750Y-13281D01*
X759Y-13287D01*
X771Y-13288D01*
X785Y-13284D01*
X801Y-13276D01*
X820Y-13262D01*
X841Y-13244D01*
X865Y-13222D01*
X922Y-13392D01*
D02*
G37*
G36*
X8701Y-12855D02*
X8706Y-12918D01*
X8742Y-12917D01*
X8734Y-12934D01*
X8727Y-12962D01*
X8720Y-13001D01*
X8716Y-13054D01*
X8720Y-13112D01*
X8731Y-13179D01*
X8744Y-13237D01*
X8760Y-13286D01*
X8779Y-13325D01*
X8800Y-13356D01*
X8823Y-13377D01*
X8701D01*
X8700Y-13561D01*
X8100Y-13574D01*
X8099Y-13469D01*
X8092Y-13377D01*
X7977D01*
X8000Y-13356D01*
X8021Y-13325D01*
X8040Y-13286D01*
X8056Y-13237D01*
X8069Y-13179D01*
X8072Y-13160D01*
X8070Y-13144D01*
X8056Y-13086D01*
X8040Y-13037D01*
X8022Y-12998D01*
X8001Y-12968D01*
X7978Y-12947D01*
X8095Y-12942D01*
X8100Y-12751D01*
X8700D01*
X8701Y-12855D01*
D02*
G37*
G36*
X-11733Y-13649D02*
X-11722Y-13649D01*
X-11648Y-13650D01*
Y-14050D01*
X-11722Y-14051D01*
X-11733Y-14052D01*
Y-14133D01*
X-11743Y-14117D01*
X-11761Y-14103D01*
X-11785Y-14091D01*
X-11816Y-14080D01*
X-11855Y-14071D01*
X-11900Y-14063D01*
X-11945Y-14071D01*
X-11983Y-14080D01*
X-12015Y-14091D01*
X-12039Y-14103D01*
X-12057Y-14117D01*
X-12067Y-14133D01*
Y-14051D01*
X-12078Y-14051D01*
X-12152Y-14050D01*
Y-13650D01*
X-12078Y-13649D01*
X-12067Y-13648D01*
Y-13567D01*
X-12057Y-13583D01*
X-12039Y-13597D01*
X-12015Y-13609D01*
X-11983Y-13620D01*
X-11945Y-13629D01*
X-11900Y-13637D01*
X-11855Y-13629D01*
X-11816Y-13620D01*
X-11785Y-13609D01*
X-11761Y-13597D01*
X-11743Y-13583D01*
X-11733Y-13567D01*
Y-13649D01*
D02*
G37*
G36*
X-1630Y-13412D02*
X-1619Y-13414D01*
X-1586Y-13416D01*
X-1480Y-13420D01*
X-1407Y-13420D01*
X-1381Y-13580D01*
X-1402Y-13581D01*
X-1420Y-13583D01*
X-1437Y-13586D01*
X-1453Y-13591D01*
X-1466Y-13597D01*
X-1478Y-13605D01*
X-1487Y-13614D01*
X-1496Y-13625D01*
X-1502Y-13637D01*
X-1506Y-13650D01*
X-1638Y-13410D01*
X-1630Y-13412D01*
D02*
G37*
G36*
X3701Y-13122D02*
X3709Y-13233D01*
X3783D01*
X3767Y-13243D01*
X3753Y-13261D01*
X3741Y-13285D01*
X3730Y-13316D01*
X3722Y-13350D01*
X3730Y-13383D01*
X3741Y-13415D01*
X3753Y-13439D01*
X3767Y-13457D01*
X3783Y-13467D01*
X3707D01*
X3701Y-13578D01*
X3700Y-13652D01*
X3300D01*
X3299Y-13578D01*
X3291Y-13467D01*
X3217D01*
X3233Y-13457D01*
X3247Y-13439D01*
X3259Y-13415D01*
X3270Y-13383D01*
X3278Y-13350D01*
X3270Y-13316D01*
X3259Y-13285D01*
X3247Y-13261D01*
X3233Y-13243D01*
X3217Y-13233D01*
X3293D01*
X3299Y-13122D01*
X3300Y-13048D01*
X3700D01*
X3701Y-13122D01*
D02*
G37*
G36*
X2901D02*
X2909Y-13233D01*
X2983D01*
X2967Y-13243D01*
X2953Y-13261D01*
X2941Y-13285D01*
X2930Y-13316D01*
X2922Y-13350D01*
X2930Y-13383D01*
X2941Y-13415D01*
X2953Y-13439D01*
X2967Y-13457D01*
X2983Y-13467D01*
X2907D01*
X2901Y-13578D01*
X2900Y-13652D01*
X2500D01*
X2499Y-13578D01*
X2491Y-13467D01*
X2417D01*
X2433Y-13457D01*
X2447Y-13439D01*
X2459Y-13415D01*
X2470Y-13383D01*
X2478Y-13350D01*
X2470Y-13316D01*
X2459Y-13285D01*
X2447Y-13261D01*
X2433Y-13243D01*
X2417Y-13233D01*
X2493D01*
X2499Y-13122D01*
X2500Y-13048D01*
X2900D01*
X2901Y-13122D01*
D02*
G37*
G36*
X-749Y-13660D02*
X-750Y-13645D01*
X-755Y-13631D01*
X-763Y-13619D01*
X-775Y-13609D01*
X-790Y-13600D01*
X-807Y-13593D01*
X-829Y-13587D01*
X-853Y-13583D01*
X-881Y-13581D01*
X-912Y-13580D01*
Y-13420D01*
X-881Y-13419D01*
X-853Y-13417D01*
X-829Y-13413D01*
X-807Y-13407D01*
X-790Y-13400D01*
X-775Y-13391D01*
X-763Y-13381D01*
X-755Y-13369D01*
X-750Y-13355D01*
X-749Y-13340D01*
Y-13660D01*
D02*
G37*
G36*
X-10221Y-13194D02*
X-10078Y-13314D01*
X-10014Y-13359D01*
X-9955Y-13393D01*
X-9901Y-13416D01*
X-9851Y-13429D01*
X-9807Y-13431D01*
X-9768Y-13422D01*
X-9734Y-13403D01*
X-10372Y-13891D01*
X-10346Y-13864D01*
X-10332Y-13830D01*
X-10331Y-13789D01*
X-10341Y-13742D01*
X-10364Y-13689D01*
X-10398Y-13629D01*
X-10445Y-13563D01*
X-10504Y-13490D01*
X-10657Y-13325D01*
X-10300Y-13118D01*
X-10221Y-13194D01*
D02*
G37*
G36*
X-262Y-13636D02*
X-268Y-13648D01*
X-269Y-13664D01*
X-265Y-13682D01*
X-256Y-13703D01*
X-242Y-13727D01*
X-223Y-13754D01*
X-199Y-13784D01*
X-135Y-13852D01*
X-298Y-13915D01*
X-329Y-13885D01*
X-385Y-13838D01*
X-411Y-13820D01*
X-434Y-13807D01*
X-456Y-13797D01*
X-476Y-13791D01*
X-494Y-13790D01*
X-510Y-13792D01*
X-524Y-13799D01*
X-251Y-13626D01*
X-262Y-13636D01*
D02*
G37*
G36*
X-1131Y-13791D02*
X-1122Y-13798D01*
X-1113Y-13805D01*
X-1101Y-13810D01*
X-1088Y-13815D01*
X-1074Y-13818D01*
X-1058Y-13821D01*
X-1040Y-13823D01*
X-1021Y-13825D01*
X-1000Y-13825D01*
Y-13975D01*
X-1021Y-13975D01*
X-1058Y-13979D01*
X-1074Y-13982D01*
X-1088Y-13985D01*
X-1101Y-13990D01*
X-1113Y-13995D01*
X-1122Y-14002D01*
X-1131Y-14009D01*
X-1138Y-14017D01*
Y-13783D01*
X-1131Y-13791D01*
D02*
G37*
G36*
X8846Y-13538D02*
X8856Y-13572D01*
X8874Y-13602D01*
X8901Y-13628D01*
X8937Y-13650D01*
X8982Y-13668D01*
X9035Y-13682D01*
X9098Y-13692D01*
X9169Y-13698D01*
X9249Y-13700D01*
Y-14100D01*
X9147Y-14099D01*
X8826Y-14079D01*
X8800Y-14072D01*
X8786Y-14063D01*
X8784Y-14053D01*
X8795Y-14042D01*
X8846Y-13500D01*
X8846Y-13538D01*
D02*
G37*
G36*
X-11258Y-13583D02*
X-11243Y-13597D01*
X-11224Y-13609D01*
X-11200Y-13620D01*
X-11171Y-13629D01*
X-11136Y-13637D01*
X-11097Y-13643D01*
X-11053Y-13647D01*
X-10950Y-13650D01*
Y-14050D01*
X-11004Y-14051D01*
X-11097Y-14058D01*
X-11136Y-14063D01*
X-11171Y-14071D01*
X-11200Y-14080D01*
X-11224Y-14091D01*
X-11243Y-14103D01*
X-11258Y-14117D01*
X-11267Y-14133D01*
Y-13567D01*
X-11258Y-13583D01*
D02*
G37*
G36*
X6278Y-13945D02*
X6282Y-13946D01*
X6289Y-13947D01*
X6310Y-13948D01*
X6400Y-13950D01*
Y-14250D01*
X6275Y-14256D01*
Y-13944D01*
X6278Y-13945D01*
D02*
G37*
G36*
X4185Y-14296D02*
X4175Y-14289D01*
X4163Y-14285D01*
X4150Y-14286D01*
X4134Y-14289D01*
X4117Y-14297D01*
X4098Y-14308D01*
X4077Y-14323D01*
X4054Y-14342D01*
X4002Y-14390D01*
X3910Y-14298D01*
X3936Y-14271D01*
X3977Y-14223D01*
X3992Y-14202D01*
X4003Y-14183D01*
X4011Y-14166D01*
X4014Y-14150D01*
X4015Y-14137D01*
X4011Y-14125D01*
X4004Y-14115D01*
X4185Y-14296D01*
D02*
G37*
G36*
X2189Y-14125D02*
X2185Y-14137D01*
X2186Y-14150D01*
X2189Y-14166D01*
X2197Y-14183D01*
X2208Y-14202D01*
X2223Y-14223D01*
X2242Y-14246D01*
X2290Y-14298D01*
X2198Y-14390D01*
X2171Y-14364D01*
X2123Y-14323D01*
X2102Y-14308D01*
X2083Y-14297D01*
X2066Y-14289D01*
X2050Y-14286D01*
X2037Y-14285D01*
X2025Y-14289D01*
X2015Y-14296D01*
X2196Y-14115D01*
X2189Y-14125D01*
D02*
G37*
G36*
X-10633Y-14512D02*
Y-14563D01*
X-10603Y-14714D01*
X-10517Y-14842D01*
X-10389Y-14928D01*
X-10238Y-14958D01*
X-10238Y-15242D01*
X-10389Y-15273D01*
X-10517Y-15358D01*
X-10603Y-15486D01*
X-10633Y-15638D01*
Y-16663D01*
X-10603Y-16814D01*
X-10517Y-16942D01*
X-10389Y-17028D01*
X-10406Y-17263D01*
Y-17737D01*
X-10382Y-17859D01*
X-10313Y-17963D01*
X-10209Y-18032D01*
X-10087Y-18056D01*
X-9712D01*
X-9651Y-18044D01*
X-9465Y-18189D01*
X-9406Y-18263D01*
Y-18537D01*
X-9611Y-18776D01*
X-9700Y-18793D01*
X-10375D01*
X-10521Y-18822D01*
X-10645Y-18905D01*
X-10728Y-19029D01*
X-10757Y-19175D01*
Y-19425D01*
X-10728Y-19571D01*
X-10737Y-19617D01*
X-10824Y-19676D01*
X-10924Y-19824D01*
X-10959Y-20000D01*
X-10924Y-20176D01*
X-10824Y-20324D01*
X-10676Y-20424D01*
X-10500Y-20459D01*
X-10324Y-20424D01*
X-10176Y-20324D01*
X-10028Y-20310D01*
X-9809Y-20500D01*
X-9774Y-20676D01*
X-9707Y-20775D01*
X-9707Y-20784D01*
Y-20850D01*
X-9680Y-20987D01*
X-9602Y-21102D01*
X-8645Y-22060D01*
X-8643Y-22098D01*
X-8655Y-22377D01*
X-8859Y-22543D01*
X-9152D01*
X-9748Y-21948D01*
X-9863Y-21870D01*
X-10000Y-21843D01*
X-10752D01*
X-11543Y-21052D01*
Y-16500D01*
X-11570Y-16363D01*
X-11648Y-16248D01*
X-12743Y-15152D01*
Y-14638D01*
X-12732Y-14616D01*
X-12487Y-14406D01*
X-12112D01*
X-11991Y-14382D01*
X-11971Y-14369D01*
X-11969Y-14369D01*
X-11948Y-14354D01*
X-11924Y-14344D01*
X-11876D01*
X-11852Y-14354D01*
X-11830Y-14369D01*
X-11829Y-14369D01*
X-11809Y-14382D01*
X-11687Y-14406D01*
X-11312D01*
X-11191Y-14382D01*
X-11171Y-14369D01*
X-11169Y-14369D01*
X-11143Y-14351D01*
X-11114Y-14337D01*
X-11102Y-14323D01*
X-11087Y-14314D01*
X-11069Y-14311D01*
X-11038Y-14309D01*
X-10950D01*
X-10933Y-14305D01*
X-10633Y-14512D01*
D02*
G37*
G36*
X-524Y-14269D02*
X-440Y-14341D01*
X-415Y-14358D01*
X-391Y-14373D01*
X-369Y-14384D01*
X-349Y-14392D01*
X-330Y-14397D01*
X-312Y-14398D01*
X-705Y-14409D01*
X-686Y-14407D01*
X-672Y-14403D01*
X-662Y-14397D01*
X-656Y-14389D01*
X-655Y-14378D01*
X-658Y-14365D01*
X-665Y-14350D01*
X-677Y-14333D01*
X-693Y-14314D01*
X-714Y-14292D01*
X-555Y-14239D01*
X-524Y-14269D01*
D02*
G37*
G36*
X3894Y-14498D02*
X3870Y-14523D01*
X3832Y-14568D01*
X3818Y-14589D01*
X3806Y-14608D01*
X3799Y-14625D01*
X3794Y-14642D01*
X3792Y-14656D01*
X3794Y-14670D01*
X3799Y-14682D01*
X3668Y-14451D01*
X3676Y-14460D01*
X3685Y-14466D01*
X3697Y-14467D01*
X3712Y-14464D01*
X3728Y-14457D01*
X3747Y-14447D01*
X3768Y-14432D01*
X3792Y-14413D01*
X3845Y-14363D01*
X3894Y-14498D01*
D02*
G37*
G36*
X-7626Y-14119D02*
X-7620Y-14136D01*
X-7610Y-14151D01*
X-7596Y-14164D01*
X-7578Y-14175D01*
X-7555Y-14184D01*
X-7529Y-14191D01*
X-7499Y-14196D01*
X-7464Y-14199D01*
X-7463Y-14199D01*
X-7462Y-14199D01*
X-7427Y-14196D01*
X-7396Y-14191D01*
X-7369Y-14184D01*
X-7346Y-14175D01*
X-7327Y-14164D01*
X-7313Y-14152D01*
X-7302Y-14137D01*
X-7296Y-14120D01*
X-7294Y-14101D01*
Y-14499D01*
X-7296Y-14480D01*
X-7302Y-14463D01*
X-7313Y-14448D01*
X-7327Y-14436D01*
X-7346Y-14425D01*
X-7369Y-14416D01*
X-7396Y-14409D01*
X-7427Y-14404D01*
X-7462Y-14401D01*
X-7463Y-14401D01*
X-7464Y-14401D01*
X-7499Y-14404D01*
X-7529Y-14409D01*
X-7555Y-14416D01*
X-7578Y-14425D01*
X-7596Y-14436D01*
X-7610Y-14449D01*
X-7620Y-14464D01*
X-7626Y-14481D01*
X-7628Y-14500D01*
Y-14100D01*
X-7626Y-14119D01*
D02*
G37*
G36*
X329Y-14315D02*
X385Y-14362D01*
X411Y-14380D01*
X434Y-14394D01*
X456Y-14403D01*
X476Y-14409D01*
X494Y-14410D01*
X510Y-14408D01*
X524Y-14401D01*
X251Y-14574D01*
X262Y-14564D01*
X268Y-14552D01*
X269Y-14536D01*
X265Y-14518D01*
X256Y-14497D01*
X242Y-14473D01*
X223Y-14446D01*
X199Y-14416D01*
X135Y-14349D01*
X298Y-14285D01*
X329Y-14315D01*
D02*
G37*
G36*
X2383Y-14390D02*
X2432Y-14432D01*
X2453Y-14447D01*
X2472Y-14457D01*
X2488Y-14464D01*
X2503Y-14467D01*
X2515Y-14466D01*
X2524Y-14460D01*
X2532Y-14451D01*
X2401Y-14682D01*
X2406Y-14670D01*
X2408Y-14656D01*
X2406Y-14642D01*
X2401Y-14625D01*
X2394Y-14608D01*
X2382Y-14589D01*
X2368Y-14568D01*
X2351Y-14546D01*
X2306Y-14498D01*
X2355Y-14363D01*
X2383Y-14390D01*
D02*
G37*
G36*
X-3728Y-14378D02*
X-3723Y-14383D01*
X-3714Y-14387D01*
X-3701Y-14390D01*
X-3685Y-14393D01*
X-3665Y-14396D01*
X-3615Y-14399D01*
X-3550Y-14400D01*
Y-14700D01*
X-3584Y-14700D01*
X-3685Y-14707D01*
X-3701Y-14710D01*
X-3714Y-14713D01*
X-3723Y-14717D01*
X-3728Y-14722D01*
X-3730Y-14727D01*
Y-14373D01*
X-3728Y-14378D01*
D02*
G37*
G36*
X2532Y-14949D02*
X2524Y-14939D01*
X2515Y-14934D01*
X2503Y-14933D01*
X2488Y-14936D01*
X2472Y-14943D01*
X2453Y-14953D01*
X2432Y-14968D01*
X2408Y-14987D01*
X2355Y-15037D01*
X2306Y-14902D01*
X2330Y-14877D01*
X2368Y-14832D01*
X2382Y-14811D01*
X2394Y-14792D01*
X2401Y-14775D01*
X2406Y-14758D01*
X2408Y-14744D01*
X2406Y-14730D01*
X2401Y-14718D01*
X2532Y-14949D01*
D02*
G37*
G36*
X3796Y-14782D02*
X3797Y-14793D01*
X3802Y-14803D01*
X3810Y-14812D01*
X3821Y-14819D01*
X3836Y-14825D01*
X3855Y-14829D01*
X3877Y-14832D01*
X3903Y-14834D01*
X3932Y-14835D01*
X3927Y-14965D01*
X3885Y-14965D01*
X3734Y-14954D01*
X3737Y-14952D01*
X3799Y-14770D01*
X3796Y-14782D01*
D02*
G37*
G36*
X1991Y-15401D02*
X1972Y-15421D01*
X1940Y-15460D01*
X1927Y-15479D01*
X1917Y-15497D01*
X1908Y-15515D01*
X1902Y-15533D01*
X1898Y-15551D01*
X1896Y-15568D01*
X1896Y-15585D01*
X1874Y-15241D01*
X1876Y-15257D01*
X1880Y-15268D01*
X1887Y-15276D01*
X1895Y-15279D01*
X1906Y-15279D01*
X1919Y-15275D01*
X1933Y-15266D01*
X1950Y-15254D01*
X1970Y-15238D01*
X1991Y-15217D01*
Y-15401D01*
D02*
G37*
G36*
X8465Y-15320D02*
X8468Y-15353D01*
X8471Y-15367D01*
X8474Y-15378D01*
X8478Y-15388D01*
X8483Y-15395D01*
X8488Y-15400D01*
X8494Y-15403D01*
X8501Y-15404D01*
X8299D01*
X8306Y-15403D01*
X8312Y-15400D01*
X8317Y-15395D01*
X8322Y-15388D01*
X8326Y-15378D01*
X8329Y-15367D01*
X8332Y-15353D01*
X8334Y-15338D01*
X8335Y-15320D01*
X8335Y-15300D01*
X8465D01*
X8465Y-15320D01*
D02*
G37*
G36*
X1897Y-15682D02*
X1901Y-15693D01*
X1907Y-15703D01*
X1916Y-15712D01*
X1928Y-15719D01*
X1943Y-15725D01*
X1960Y-15729D01*
X1980Y-15732D01*
X2003Y-15734D01*
X2029Y-15735D01*
Y-15865D01*
X2003Y-15866D01*
X1979Y-15868D01*
X1959Y-15871D01*
X1941Y-15875D01*
X1925Y-15881D01*
X1913Y-15888D01*
X1903Y-15897D01*
X1896Y-15906D01*
X1892Y-15917D01*
X1890Y-15929D01*
X1896Y-15670D01*
X1897Y-15682D01*
D02*
G37*
G36*
X2504Y-15930D02*
X2503Y-15918D01*
X2499Y-15907D01*
X2492Y-15897D01*
X2483Y-15888D01*
X2471Y-15881D01*
X2456Y-15875D01*
X2439Y-15871D01*
X2419Y-15868D01*
X2396Y-15866D01*
X2371Y-15865D01*
Y-15735D01*
X2396Y-15734D01*
X2419Y-15732D01*
X2439Y-15729D01*
X2456Y-15725D01*
X2471Y-15719D01*
X2483Y-15712D01*
X2492Y-15703D01*
X2499Y-15693D01*
X2503Y-15682D01*
X2504Y-15670D01*
Y-15930D01*
D02*
G37*
G36*
X3579Y-15930D02*
X3577Y-15918D01*
X3573Y-15907D01*
X3567Y-15897D01*
X3557Y-15889D01*
X3545Y-15881D01*
X3531Y-15875D01*
X3514Y-15871D01*
X3494Y-15868D01*
X3471Y-15866D01*
X3446Y-15865D01*
Y-15735D01*
X3471Y-15734D01*
X3494Y-15733D01*
X3514Y-15729D01*
X3531Y-15725D01*
X3545Y-15719D01*
X3557Y-15712D01*
X3567Y-15703D01*
X3573Y-15693D01*
X3577Y-15682D01*
X3579Y-15670D01*
Y-15930D01*
D02*
G37*
G36*
X3297Y-15682D02*
X3301Y-15693D01*
X3308Y-15703D01*
X3317Y-15712D01*
X3329Y-15719D01*
X3344Y-15725D01*
X3361Y-15729D01*
X3381Y-15733D01*
X3404Y-15734D01*
X3429Y-15735D01*
Y-15865D01*
X3404Y-15866D01*
X3381Y-15868D01*
X3361Y-15871D01*
X3344Y-15875D01*
X3329Y-15881D01*
X3317Y-15889D01*
X3308Y-15897D01*
X3301Y-15907D01*
X3297Y-15918D01*
X3296Y-15930D01*
Y-15670D01*
X3297Y-15682D01*
D02*
G37*
G36*
X8004Y-15980D02*
X8003Y-15968D01*
X7999Y-15957D01*
X7992Y-15947D01*
X7983Y-15938D01*
X7971Y-15931D01*
X7956Y-15925D01*
X7939Y-15921D01*
X7919Y-15918D01*
X7896Y-15916D01*
X7871Y-15915D01*
Y-15785D01*
X7896Y-15784D01*
X7919Y-15782D01*
X7939Y-15779D01*
X7956Y-15775D01*
X7971Y-15769D01*
X7983Y-15762D01*
X7992Y-15753D01*
X7999Y-15743D01*
X8003Y-15732D01*
X8004Y-15720D01*
Y-15980D01*
D02*
G37*
G36*
X7497Y-15732D02*
X7501Y-15743D01*
X7508Y-15753D01*
X7517Y-15762D01*
X7529Y-15769D01*
X7544Y-15775D01*
X7561Y-15779D01*
X7581Y-15782D01*
X7604Y-15784D01*
X7629Y-15785D01*
Y-15915D01*
X7604Y-15916D01*
X7581Y-15918D01*
X7561Y-15921D01*
X7544Y-15925D01*
X7529Y-15931D01*
X7517Y-15938D01*
X7508Y-15947D01*
X7501Y-15957D01*
X7497Y-15968D01*
X7496Y-15980D01*
Y-15720D01*
X7497Y-15732D01*
D02*
G37*
G36*
X6704Y-15980D02*
X6703Y-15968D01*
X6699Y-15957D01*
X6692Y-15947D01*
X6683Y-15938D01*
X6671Y-15931D01*
X6656Y-15925D01*
X6639Y-15921D01*
X6619Y-15918D01*
X6596Y-15916D01*
X6571Y-15915D01*
Y-15785D01*
X6596Y-15784D01*
X6619Y-15782D01*
X6639Y-15779D01*
X6656Y-15775D01*
X6671Y-15769D01*
X6683Y-15762D01*
X6692Y-15753D01*
X6699Y-15743D01*
X6703Y-15732D01*
X6704Y-15720D01*
Y-15980D01*
D02*
G37*
G36*
X6423Y-15732D02*
X6427Y-15743D01*
X6433Y-15753D01*
X6443Y-15762D01*
X6455Y-15769D01*
X6469Y-15775D01*
X6486Y-15779D01*
X6506Y-15782D01*
X6529Y-15784D01*
X6554Y-15785D01*
Y-15915D01*
X6529Y-15916D01*
X6506Y-15918D01*
X6486Y-15921D01*
X6469Y-15925D01*
X6455Y-15931D01*
X6443Y-15938D01*
X6433Y-15947D01*
X6427Y-15957D01*
X6423Y-15968D01*
X6421Y-15980D01*
Y-15720D01*
X6423Y-15732D01*
D02*
G37*
G36*
X-121Y-15272D02*
X-117Y-15279D01*
X-101Y-15300D01*
X-73Y-15332D01*
X232Y-15649D01*
X326Y-15743D01*
X52Y-16035D01*
X-33Y-15953D01*
X-184Y-15824D01*
X-250Y-15778D01*
X-309Y-15744D01*
X-363Y-15721D01*
X-410Y-15710D01*
X-451Y-15711D01*
X-485Y-15724D01*
X-514Y-15749D01*
X-121Y-15272D01*
X-123Y-15268D01*
X-117Y-15267D01*
X-121Y-15272D01*
D02*
G37*
G36*
X-5349Y-16368D02*
X-5339Y-16374D01*
X-5327Y-16380D01*
X-5314Y-16386D01*
X-5300Y-16390D01*
X-5284Y-16394D01*
X-5267Y-16396D01*
X-5248Y-16398D01*
X-5207Y-16400D01*
Y-16600D01*
X-5228Y-16600D01*
X-5267Y-16604D01*
X-5284Y-16606D01*
X-5300Y-16610D01*
X-5314Y-16614D01*
X-5327Y-16620D01*
X-5339Y-16626D01*
X-5349Y-16632D01*
X-5357Y-16640D01*
Y-16360D01*
X-5349Y-16368D01*
D02*
G37*
G36*
X-1028Y-16269D02*
X-1022Y-16286D01*
X-1011Y-16301D01*
X-997Y-16314D01*
X-979Y-16325D01*
X-957Y-16334D01*
X-930Y-16341D01*
X-900Y-16346D01*
X-865Y-16349D01*
X-864Y-16349D01*
X-834Y-16347D01*
X-805Y-16343D01*
X-778Y-16337D01*
X-755Y-16329D01*
X-735Y-16320D01*
X-717Y-16309D01*
X-703Y-16297D01*
X-691Y-16283D01*
X-683Y-16267D01*
X-699Y-16650D01*
X-700Y-16631D01*
X-706Y-16614D01*
X-715Y-16599D01*
X-729Y-16586D01*
X-748Y-16575D01*
X-770Y-16566D01*
X-797Y-16559D01*
X-827Y-16554D01*
X-863Y-16551D01*
X-864Y-16551D01*
X-865Y-16551D01*
X-900Y-16554D01*
X-930Y-16559D01*
X-957Y-16566D01*
X-979Y-16575D01*
X-997Y-16586D01*
X-1011Y-16599D01*
X-1022Y-16614D01*
X-1028Y-16631D01*
X-1030Y-16650D01*
Y-16250D01*
X-1028Y-16269D01*
D02*
G37*
G36*
X-4765Y-16699D02*
X-4768Y-16681D01*
X-4774Y-16664D01*
X-4785Y-16649D01*
X-4799Y-16636D01*
X-4818Y-16625D01*
X-4841Y-16616D01*
X-4868Y-16609D01*
X-4899Y-16604D01*
X-4934Y-16601D01*
X-4973Y-16600D01*
Y-16400D01*
X-4935Y-16399D01*
X-4900Y-16396D01*
X-4869Y-16391D01*
X-4843Y-16384D01*
X-4820Y-16375D01*
X-4802Y-16364D01*
X-4788Y-16351D01*
X-4778Y-16336D01*
X-4772Y-16319D01*
X-4770Y-16300D01*
X-4765Y-16699D01*
D02*
G37*
G36*
X-1706Y-16748D02*
X-1721Y-16763D01*
X-1745Y-16792D01*
X-1754Y-16804D01*
X-1761Y-16816D01*
X-1765Y-16826D01*
X-1767Y-16836D01*
X-1767Y-16844D01*
X-1765Y-16851D01*
X-1760Y-16857D01*
X-1812Y-16853D01*
X-1829Y-16871D01*
X-1849Y-16851D01*
X-2018Y-16839D01*
X-1955Y-16745D01*
X-1955Y-16745D01*
X-1958Y-16745D01*
X-1964Y-16745D01*
X-1968Y-16744D01*
X-1972Y-16743D01*
X-1974Y-16741D01*
X-1975Y-16740D01*
X-1976Y-16737D01*
X-1975Y-16735D01*
X-1973Y-16732D01*
X-1971Y-16729D01*
X-1955Y-16745D01*
X-1955Y-16745D01*
X-1886Y-16644D01*
X-1706Y-16748D01*
D02*
G37*
G36*
X-9704Y-16798D02*
X-9709Y-16802D01*
X-9713Y-16808D01*
X-9716Y-16817D01*
X-9719Y-16829D01*
X-9721Y-16843D01*
X-9723Y-16859D01*
X-9725Y-16901D01*
X-9725Y-16925D01*
X-9925D01*
X-9925Y-16901D01*
X-9929Y-16843D01*
X-9931Y-16829D01*
X-9934Y-16817D01*
X-9937Y-16808D01*
X-9941Y-16802D01*
X-9946Y-16798D01*
X-9950Y-16797D01*
X-9700D01*
X-9704Y-16798D01*
D02*
G37*
G36*
X-219Y-16751D02*
X-236Y-16757D01*
X-251Y-16767D01*
X-264Y-16781D01*
X-275Y-16800D01*
X-284Y-16822D01*
X-291Y-16848D01*
X-296Y-16879D01*
X-299Y-16913D01*
X-300Y-16952D01*
X-500D01*
X-501Y-16913D01*
X-504Y-16879D01*
X-509Y-16848D01*
X-516Y-16822D01*
X-525Y-16800D01*
X-536Y-16781D01*
X-549Y-16767D01*
X-564Y-16757D01*
X-581Y-16751D01*
X-600Y-16749D01*
X-200D01*
X-219Y-16751D01*
D02*
G37*
G36*
X8251Y-16949D02*
X8259Y-17030D01*
X8266Y-17063D01*
X8274Y-17092D01*
X8285Y-17115D01*
X8298Y-17132D01*
X8312Y-17145D01*
X8329Y-17153D01*
X8347Y-17155D01*
X7853D01*
X7871Y-17153D01*
X7888Y-17145D01*
X7902Y-17132D01*
X7915Y-17115D01*
X7926Y-17092D01*
X7934Y-17063D01*
X7941Y-17030D01*
X7946Y-16992D01*
X7949Y-16949D01*
X7950Y-16900D01*
X8250D01*
X8251Y-16949D01*
D02*
G37*
G36*
X-8559Y-17201D02*
X-8448Y-17201D01*
Y-17401D01*
X-8490Y-17402D01*
X-8528Y-17405D01*
X-8559Y-17410D01*
Y-17421D01*
X-8563Y-17418D01*
X-8569Y-17414D01*
X-8571Y-17413D01*
X-8588Y-17417D01*
X-8611Y-17426D01*
X-8628Y-17437D01*
X-8641Y-17450D01*
X-8650Y-17465D01*
X-8653Y-17482D01*
X-8651Y-17501D01*
X-8671Y-17402D01*
X-8692Y-17401D01*
Y-17301D01*
X-8713Y-17198D01*
X-8708Y-17199D01*
X-8699Y-17199D01*
X-8648Y-17200D01*
X-8599Y-17196D01*
X-8587Y-17194D01*
X-8577Y-17192D01*
X-8569Y-17189D01*
X-8563Y-17185D01*
X-8559Y-17181D01*
Y-17201D01*
D02*
G37*
G36*
X-9799Y-17039D02*
X-9796Y-17074D01*
X-9791Y-17105D01*
X-9784Y-17131D01*
X-9776Y-17154D01*
X-9765Y-17173D01*
X-9752Y-17187D01*
X-9738Y-17197D01*
X-9721Y-17203D01*
X-9703Y-17205D01*
X-10097Y-17205D01*
X-10079Y-17203D01*
X-10062Y-17197D01*
X-10048Y-17187D01*
X-10035Y-17173D01*
X-10024Y-17154D01*
X-10016Y-17131D01*
X-10009Y-17105D01*
X-10004Y-17074D01*
X-10001Y-17039D01*
X-10000Y-17000D01*
X-9800D01*
X-9799Y-17039D01*
D02*
G37*
G36*
X-7343Y-17440D02*
X-7352Y-17432D01*
X-7362Y-17427D01*
X-7373Y-17423D01*
X-7384Y-17423D01*
X-7396Y-17425D01*
X-7409Y-17429D01*
X-7422Y-17436D01*
X-7436Y-17445D01*
X-7450Y-17457D01*
X-7465Y-17471D01*
X-7538Y-17332D01*
X-7361Y-17182D01*
X-7343Y-17440D01*
D02*
G37*
G36*
X-299Y-17338D02*
X-296Y-17373D01*
X-291Y-17404D01*
X-284Y-17431D01*
X-275Y-17454D01*
X-264Y-17473D01*
X-252Y-17487D01*
X-237Y-17498D01*
X-220Y-17504D01*
X-201Y-17506D01*
X-599D01*
X-580Y-17504D01*
X-563Y-17498D01*
X-548Y-17487D01*
X-536Y-17473D01*
X-525Y-17454D01*
X-516Y-17431D01*
X-509Y-17404D01*
X-504Y-17373D01*
X-501Y-17338D01*
X-500Y-17298D01*
X-300D01*
X-299Y-17338D01*
D02*
G37*
G36*
X-1299Y-17338D02*
X-1299Y-17343D01*
X-1260D01*
X-1268Y-17351D01*
X-1274Y-17361D01*
X-1280Y-17373D01*
X-1286Y-17386D01*
X-1290Y-17400D01*
X-1291Y-17405D01*
X-1284Y-17431D01*
X-1275Y-17454D01*
X-1264Y-17473D01*
X-1252Y-17487D01*
X-1237Y-17498D01*
X-1220Y-17504D01*
X-1201Y-17506D01*
X-1599Y-17506D01*
X-1580Y-17504D01*
X-1563Y-17498D01*
X-1548Y-17487D01*
X-1536Y-17473D01*
X-1525Y-17454D01*
X-1516Y-17431D01*
X-1509Y-17405D01*
X-1510Y-17400D01*
X-1514Y-17386D01*
X-1520Y-17373D01*
X-1526Y-17361D01*
X-1532Y-17351D01*
X-1540Y-17343D01*
X-1501D01*
X-1501Y-17338D01*
X-1500Y-17298D01*
X-1300D01*
X-1299Y-17338D01*
D02*
G37*
G36*
X11648Y-17219D02*
X11654Y-17236D01*
X11664Y-17251D01*
X11678Y-17264D01*
X11696Y-17275D01*
X11719Y-17284D01*
X11745Y-17291D01*
X11776Y-17296D01*
X11810Y-17299D01*
X11849Y-17300D01*
Y-17500D01*
X11810Y-17501D01*
X11776Y-17504D01*
X11745Y-17509D01*
X11719Y-17516D01*
X11696Y-17525D01*
X11678Y-17536D01*
X11664Y-17549D01*
X11654Y-17564D01*
X11648Y-17581D01*
X11646Y-17600D01*
Y-17200D01*
X11648Y-17219D01*
D02*
G37*
G36*
X9434Y-17746D02*
X9419Y-17735D01*
X9401Y-17729D01*
X9380Y-17729D01*
X9356Y-17735D01*
X9329Y-17747D01*
X9299Y-17764D01*
X9267Y-17787D01*
X9231Y-17816D01*
X9151Y-17890D01*
X9010Y-17749D01*
X9050Y-17707D01*
X9113Y-17633D01*
X9136Y-17601D01*
X9153Y-17571D01*
X9165Y-17544D01*
X9170Y-17520D01*
X9171Y-17499D01*
X9165Y-17481D01*
X9154Y-17466D01*
X9434Y-17746D01*
D02*
G37*
G36*
X6710Y-17929D02*
X6708Y-17917D01*
X6704Y-17906D01*
X6697Y-17896D01*
X6687Y-17888D01*
X6675Y-17881D01*
X6659Y-17875D01*
X6641Y-17871D01*
X6621Y-17868D01*
X6597Y-17866D01*
X6571Y-17865D01*
Y-17735D01*
X6597Y-17734D01*
X6620Y-17732D01*
X6640Y-17729D01*
X6657Y-17725D01*
X6672Y-17719D01*
X6684Y-17712D01*
X6693Y-17703D01*
X6699Y-17693D01*
X6703Y-17682D01*
X6704Y-17670D01*
X6710Y-17929D01*
D02*
G37*
G36*
X3297Y-17682D02*
X3301Y-17693D01*
X3307Y-17703D01*
X3316Y-17712D01*
X3328Y-17719D01*
X3343Y-17725D01*
X3360Y-17729D01*
X3380Y-17732D01*
X3403Y-17734D01*
X3429Y-17735D01*
Y-17865D01*
X3403Y-17866D01*
X3379Y-17868D01*
X3359Y-17871D01*
X3341Y-17875D01*
X3325Y-17881D01*
X3313Y-17888D01*
X3303Y-17896D01*
X3296Y-17906D01*
X3292Y-17917D01*
X3290Y-17929D01*
X3296Y-17670D01*
X3297Y-17682D01*
D02*
G37*
G36*
X6423D02*
X6427Y-17693D01*
X6433Y-17703D01*
X6443Y-17712D01*
X6455Y-17719D01*
X6469Y-17725D01*
X6486Y-17729D01*
X6506Y-17732D01*
X6529Y-17734D01*
X6554Y-17735D01*
Y-17865D01*
X6529Y-17866D01*
X6506Y-17868D01*
X6486Y-17871D01*
X6469Y-17875D01*
X6455Y-17881D01*
X6443Y-17888D01*
X6433Y-17897D01*
X6427Y-17907D01*
X6423Y-17918D01*
X6421Y-17930D01*
Y-17670D01*
X6423Y-17682D01*
D02*
G37*
G36*
X3579Y-17930D02*
X3577Y-17918D01*
X3573Y-17907D01*
X3567Y-17897D01*
X3557Y-17888D01*
X3545Y-17881D01*
X3531Y-17875D01*
X3514Y-17871D01*
X3494Y-17868D01*
X3471Y-17866D01*
X3446Y-17865D01*
Y-17735D01*
X3471Y-17734D01*
X3494Y-17732D01*
X3514Y-17729D01*
X3531Y-17725D01*
X3545Y-17719D01*
X3557Y-17712D01*
X3567Y-17703D01*
X3573Y-17693D01*
X3577Y-17682D01*
X3579Y-17670D01*
Y-17930D01*
D02*
G37*
G36*
X-7824Y-18077D02*
X-7822Y-18103D01*
X-7818Y-18126D01*
X-7813Y-18146D01*
X-7806Y-18163D01*
X-7798Y-18177D01*
X-7788Y-18187D01*
X-7777Y-18195D01*
X-7764Y-18200D01*
X-7750Y-18201D01*
X-8050D01*
X-8036Y-18200D01*
X-8023Y-18195D01*
X-8012Y-18187D01*
X-8002Y-18177D01*
X-7994Y-18163D01*
X-7987Y-18146D01*
X-7982Y-18126D01*
X-7978Y-18103D01*
X-7976Y-18077D01*
X-7975Y-18048D01*
X-7825D01*
X-7824Y-18077D01*
D02*
G37*
G36*
X-8720Y-17796D02*
X-8737Y-17802D01*
X-8752Y-17813D01*
X-8764Y-17827D01*
X-8775Y-17846D01*
X-8784Y-17869D01*
X-8791Y-17896D01*
X-8796Y-17927D01*
X-8799Y-17962D01*
X-8800Y-18000D01*
X-8799Y-18038D01*
X-8796Y-18073D01*
X-8791Y-18104D01*
X-8784Y-18131D01*
X-8775Y-18154D01*
X-8764Y-18173D01*
X-8752Y-18187D01*
X-8737Y-18198D01*
X-8720Y-18204D01*
X-8701Y-18206D01*
X-9099D01*
X-9080Y-18204D01*
X-9063Y-18198D01*
X-9048Y-18187D01*
X-9036Y-18173D01*
X-9025Y-18154D01*
X-9016Y-18131D01*
X-9009Y-18104D01*
X-9004Y-18073D01*
X-9001Y-18038D01*
X-9000Y-18000D01*
X-9001Y-17962D01*
X-9004Y-17927D01*
X-9009Y-17896D01*
X-9016Y-17869D01*
X-9025Y-17846D01*
X-9036Y-17827D01*
X-9048Y-17813D01*
X-9063Y-17802D01*
X-9080Y-17796D01*
X-9099Y-17794D01*
X-8701Y-17794D01*
X-8720Y-17796D01*
D02*
G37*
G36*
X-6823Y-18240D02*
X-6851Y-18223D01*
X-6880Y-18208D01*
X-6913Y-18194D01*
X-6947Y-18182D01*
X-6983Y-18172D01*
X-7021Y-18164D01*
X-7061Y-18158D01*
X-7148Y-18151D01*
X-7194Y-18150D01*
X-7194Y-17850D01*
X-7148Y-17849D01*
X-7061Y-17842D01*
X-7021Y-17836D01*
X-6983Y-17828D01*
X-6947Y-17818D01*
X-6913Y-17806D01*
X-6881Y-17792D01*
X-6851Y-17777D01*
X-6823Y-17760D01*
Y-18240D01*
D02*
G37*
G36*
X5485Y-18296D02*
X5470Y-18294D01*
X5454Y-18295D01*
X5438Y-18298D01*
X5421Y-18303D01*
X5403Y-18311D01*
X5384Y-18322D01*
X5364Y-18336D01*
X5344Y-18351D01*
X5323Y-18370D01*
X5301Y-18391D01*
X5140Y-18368D01*
X5163Y-18344D01*
X5197Y-18303D01*
X5208Y-18285D01*
X5215Y-18270D01*
X5218Y-18257D01*
X5217Y-18246D01*
X5213Y-18237D01*
X5204Y-18230D01*
X5191Y-18226D01*
X5485Y-18296D01*
D02*
G37*
G36*
X4796Y-18230D02*
X4787Y-18237D01*
X4783Y-18246D01*
X4782Y-18257D01*
X4785Y-18270D01*
X4792Y-18285D01*
X4803Y-18303D01*
X4818Y-18322D01*
X4837Y-18344D01*
X4860Y-18368D01*
X4699Y-18391D01*
X4677Y-18370D01*
X4636Y-18336D01*
X4616Y-18322D01*
X4597Y-18311D01*
X4579Y-18303D01*
X4562Y-18298D01*
X4546Y-18295D01*
X4530Y-18294D01*
X4516Y-18296D01*
X4809Y-18226D01*
X4796Y-18230D01*
D02*
G37*
G36*
X8396Y-18220D02*
X8402Y-18237D01*
X8413Y-18252D01*
X8427Y-18264D01*
X8446Y-18275D01*
X8469Y-18284D01*
X8496Y-18291D01*
X8527Y-18296D01*
X8562Y-18299D01*
X8602Y-18300D01*
Y-18500D01*
X8562Y-18501D01*
X8527Y-18504D01*
X8496Y-18509D01*
X8469Y-18516D01*
X8446Y-18525D01*
X8427Y-18536D01*
X8413Y-18548D01*
X8402Y-18563D01*
X8396Y-18580D01*
X8394Y-18599D01*
X8394Y-18201D01*
X8396Y-18220D01*
D02*
G37*
G36*
X2513Y-18566D02*
X2511Y-18572D01*
X2508Y-18579D01*
X2506Y-18589D01*
X2504Y-18601D01*
X2501Y-18632D01*
X2500Y-18671D01*
X2500Y-18693D01*
X2300D01*
X2300Y-18671D01*
X2294Y-18589D01*
X2292Y-18579D01*
X2289Y-18572D01*
X2287Y-18566D01*
X2283Y-18562D01*
X2517D01*
X2513Y-18566D01*
D02*
G37*
G36*
X9100Y-18400D02*
X8900Y-18700D01*
X8898Y-18662D01*
X8892Y-18628D01*
X8882Y-18598D01*
X8868Y-18572D01*
X8850Y-18550D01*
X8828Y-18532D01*
X8802Y-18518D01*
X8772Y-18508D01*
X8738Y-18502D01*
X8700Y-18500D01*
Y-18300D01*
X8738Y-18298D01*
X8772Y-18292D01*
X8802Y-18282D01*
X8828Y-18268D01*
X8850Y-18250D01*
X8868Y-18228D01*
X8882Y-18202D01*
X8892Y-18172D01*
X8898Y-18138D01*
X8900Y-18100D01*
X9100Y-18400D01*
D02*
G37*
G36*
X11172Y-18711D02*
X11170Y-18687D01*
X11164Y-18668D01*
X11156Y-18655D01*
X11144Y-18648D01*
X11129Y-18648D01*
X11112Y-18652D01*
X11091Y-18663D01*
X11067Y-18680D01*
X11040Y-18703D01*
X11010Y-18731D01*
X10939Y-18519D01*
X10981Y-18476D01*
X11051Y-18395D01*
X11079Y-18357D01*
X11103Y-18321D01*
X11122Y-18287D01*
X11137Y-18254D01*
X11147Y-18223D01*
X11153Y-18193D01*
X11154Y-18166D01*
X11172Y-18711D01*
D02*
G37*
G36*
X9705Y-18746D02*
X9703Y-18746D01*
X9698Y-18749D01*
X9691Y-18755D01*
X9654Y-18789D01*
X9571Y-18871D01*
X9429Y-18729D01*
X9554Y-18595D01*
X9705Y-18746D01*
D02*
G37*
G36*
X2701Y-18949D02*
X2704Y-18984D01*
X2709Y-19014D01*
X2716Y-19041D01*
X2725Y-19063D01*
X2736Y-19081D01*
X2749Y-19095D01*
X2764Y-19106D01*
X2781Y-19112D01*
X2800Y-19114D01*
X2400D01*
X2419Y-19112D01*
X2436Y-19106D01*
X2451Y-19095D01*
X2464Y-19081D01*
X2475Y-19063D01*
X2484Y-19041D01*
X2491Y-19014D01*
X2496Y-18984D01*
X2499Y-18949D01*
X2500Y-18911D01*
X2700D01*
X2701Y-18949D01*
D02*
G37*
G36*
X10748Y-18993D02*
X10726Y-19016D01*
X10707Y-19039D01*
X10690Y-19061D01*
X10676Y-19083D01*
X10664Y-19104D01*
X10656Y-19124D01*
X10650Y-19144D01*
X10647Y-19163D01*
X10646Y-19182D01*
X10648Y-19200D01*
X10191Y-19130D01*
X10215Y-19132D01*
X10240Y-19130D01*
X10266Y-19124D01*
X10293Y-19115D01*
X10321Y-19103D01*
X10350Y-19087D01*
X10379Y-19067D01*
X10410Y-19043D01*
X10441Y-19016D01*
X10473Y-18985D01*
X10748Y-18993D01*
D02*
G37*
G36*
X12600Y-18932D02*
X12599Y-19029D01*
X12581Y-19282D01*
X12575Y-19285D01*
X12567Y-19272D01*
X12558Y-19244D01*
X12548Y-19200D01*
X12300Y-19130D01*
X12319Y-19133D01*
X12336Y-19131D01*
X12351Y-19123D01*
X12364Y-19111D01*
X12375Y-19093D01*
X12384Y-19070D01*
X12391Y-19042D01*
X12396Y-19009D01*
X12399Y-18970D01*
X12400Y-18927D01*
X12600Y-18932D01*
D02*
G37*
G36*
X4588Y-19200D02*
X4458Y-19395D01*
X4457Y-19370D01*
X4453Y-19348D01*
X4447Y-19329D01*
X4437Y-19312D01*
X4426Y-19298D01*
X4411Y-19286D01*
X4395Y-19277D01*
X4375Y-19270D01*
X4353Y-19266D01*
X4328Y-19265D01*
Y-19135D01*
X4353Y-19134D01*
X4375Y-19130D01*
X4395Y-19123D01*
X4411Y-19114D01*
X4426Y-19103D01*
X4437Y-19088D01*
X4447Y-19071D01*
X4453Y-19052D01*
X4457Y-19030D01*
X4458Y-19005D01*
X4588Y-19200D01*
D02*
G37*
G36*
X-8267Y-19546D02*
X-8292Y-19545D01*
X-8318Y-19548D01*
X-8344Y-19554D01*
X-8372Y-19563D01*
X-8400Y-19576D01*
X-8428Y-19592D01*
X-8458Y-19611D01*
X-8487Y-19634D01*
X-8518Y-19661D01*
X-8549Y-19691D01*
X-8830Y-19688D01*
X-8796Y-19653D01*
X-8748Y-19594D01*
X-8733Y-19569D01*
X-8724Y-19548D01*
X-8722Y-19530D01*
X-8725Y-19515D01*
X-8735Y-19504D01*
X-8751Y-19496D01*
X-8774Y-19492D01*
X-8267Y-19546D01*
D02*
G37*
G36*
X2273Y-19606D02*
X2264Y-19590D01*
X2250Y-19580D01*
X2233Y-19576D01*
X2212Y-19579D01*
X2188Y-19588D01*
X2161Y-19603D01*
X2129Y-19624D01*
X2095Y-19652D01*
X2056Y-19686D01*
X2014Y-19727D01*
X1959Y-19499D01*
X1995Y-19462D01*
X2052Y-19394D01*
X2074Y-19362D01*
X2091Y-19333D01*
X2104Y-19305D01*
X2112Y-19279D01*
X2115Y-19255D01*
X2114Y-19233D01*
X2108Y-19212D01*
X2273Y-19606D01*
D02*
G37*
G36*
X-9849Y-19548D02*
X-9850Y-19552D01*
X-9850Y-19700D01*
X-10150D01*
X-10151Y-19546D01*
X-9849D01*
X-9849Y-19548D01*
D02*
G37*
G36*
X1841Y-19901D02*
X1803Y-19940D01*
X1743Y-20011D01*
X1721Y-20043D01*
X1704Y-20072D01*
X1692Y-20099D01*
X1685Y-20124D01*
X1684Y-20146D01*
X1688Y-20166D01*
X1696Y-20184D01*
X1467Y-19854D01*
X1480Y-19867D01*
X1496Y-19874D01*
X1515Y-19875D01*
X1538Y-19871D01*
X1564Y-19860D01*
X1594Y-19843D01*
X1626Y-19820D01*
X1662Y-19791D01*
X1744Y-19715D01*
X1841Y-19901D01*
D02*
G37*
G36*
X-8750Y-19928D02*
X-8746Y-19967D01*
X-8744Y-19984D01*
X-8740Y-20000D01*
X-8736Y-20014D01*
X-8730Y-20027D01*
X-8724Y-20039D01*
X-8718Y-20049D01*
X-8710Y-20057D01*
X-8990D01*
X-8982Y-20049D01*
X-8976Y-20039D01*
X-8970Y-20027D01*
X-8964Y-20014D01*
X-8960Y-20000D01*
X-8956Y-19984D01*
X-8954Y-19967D01*
X-8952Y-19948D01*
X-8950Y-19907D01*
X-8750D01*
X-8750Y-19928D01*
D02*
G37*
G36*
X-7872Y-20163D02*
X-7887Y-20179D01*
X-7912Y-20209D01*
X-7922Y-20223D01*
X-7931Y-20236D01*
X-7938Y-20250D01*
X-7943Y-20262D01*
X-7947Y-20275D01*
X-7949Y-20287D01*
X-7950Y-20298D01*
X-8148Y-20100D01*
X-8137Y-20099D01*
X-8125Y-20097D01*
X-8112Y-20093D01*
X-8100Y-20088D01*
X-8086Y-20081D01*
X-8073Y-20072D01*
X-8059Y-20062D01*
X-8044Y-20050D01*
X-8013Y-20022D01*
X-7872Y-20163D01*
D02*
G37*
G36*
X3089Y-20473D02*
X3095Y-20485D01*
X3104Y-20496D01*
X3115Y-20504D01*
X3121Y-20500D01*
X3130Y-20492D01*
X3138Y-20483D01*
X3143Y-20516D01*
X3153Y-20519D01*
X3177Y-20524D01*
X3204Y-20527D01*
X3235Y-20529D01*
X3270Y-20530D01*
Y-20730D01*
X3235Y-20731D01*
X3177Y-20736D01*
X3176Y-20736D01*
X3180Y-20760D01*
X3171Y-20754D01*
X3161Y-20749D01*
X3149Y-20745D01*
X3146Y-20744D01*
X3133Y-20748D01*
X3117Y-20755D01*
X3104Y-20764D01*
X3095Y-20775D01*
X3089Y-20787D01*
X3087Y-20800D01*
Y-20733D01*
X3070Y-20731D01*
X3050Y-20730D01*
X3028Y-20730D01*
X2993Y-20530D01*
X3014Y-20530D01*
X3052Y-20526D01*
X3069Y-20522D01*
X3085Y-20518D01*
X3087Y-20517D01*
Y-20460D01*
X3089Y-20473D01*
D02*
G37*
G36*
X8589Y-20473D02*
X8595Y-20485D01*
X8604Y-20496D01*
X8617Y-20505D01*
X8633Y-20512D01*
X8653Y-20519D01*
X8677Y-20524D01*
X8704Y-20527D01*
X8735Y-20529D01*
X8770Y-20530D01*
Y-20730D01*
X8735Y-20731D01*
X8677Y-20736D01*
X8653Y-20741D01*
X8633Y-20748D01*
X8617Y-20755D01*
X8604Y-20764D01*
X8595Y-20775D01*
X8589Y-20787D01*
X8587Y-20800D01*
Y-20460D01*
X8589Y-20473D01*
D02*
G37*
G36*
X-9237Y-20601D02*
X-9240Y-20612D01*
X-9242Y-20626D01*
X-9244Y-20643D01*
X-9210D01*
X-9218Y-20651D01*
X-9224Y-20661D01*
X-9230Y-20673D01*
X-9236Y-20686D01*
X-9240Y-20700D01*
X-9244Y-20716D01*
X-9246Y-20733D01*
X-9248Y-20752D01*
X-9249Y-20768D01*
X-9250Y-20850D01*
X-9450D01*
X-9450Y-20805D01*
X-9455Y-20722D01*
X-9456Y-20716D01*
X-9460Y-20700D01*
X-9464Y-20686D01*
X-9470Y-20673D01*
X-9476Y-20661D01*
X-9482Y-20651D01*
X-9490Y-20643D01*
X-9460D01*
X-9463Y-20601D01*
X-9466Y-20595D01*
X-9234D01*
X-9237Y-20601D01*
D02*
G37*
G36*
X2500Y-20876D02*
X2481Y-20877D01*
X2464Y-20881D01*
X2449Y-20891D01*
X2436Y-20904D01*
X2425Y-20922D01*
X2416Y-20945D01*
X2409Y-20972D01*
X2404Y-21003D01*
X2401Y-21039D01*
X2400Y-21079D01*
X2200Y-21074D01*
X2199Y-21038D01*
X2194Y-20974D01*
X2190Y-20946D01*
X2184Y-20922D01*
X2177Y-20900D01*
X2169Y-20881D01*
X2160Y-20866D01*
X2149Y-20853D01*
X2137Y-20843D01*
X2500Y-20876D01*
D02*
G37*
G36*
X2401Y-21491D02*
X2404Y-21527D01*
X2409Y-21558D01*
X2416Y-21585D01*
X2425Y-21608D01*
X2436Y-21626D01*
X2449Y-21639D01*
X2464Y-21649D01*
X2481Y-21653D01*
X2500Y-21654D01*
X2137Y-21687D01*
X2149Y-21677D01*
X2160Y-21664D01*
X2169Y-21649D01*
X2177Y-21630D01*
X2184Y-21608D01*
X2190Y-21584D01*
X2194Y-21556D01*
X2197Y-21525D01*
X2200Y-21456D01*
X2400Y-21451D01*
X2401Y-21491D01*
D02*
G37*
G36*
X13167Y-21065D02*
X13633Y-21333D01*
X13634Y-21335D01*
X13627Y-21345D01*
X13610Y-21365D01*
X13392Y-21591D01*
X13241Y-21741D01*
X12959Y-21459D01*
X13019Y-21396D01*
X13113Y-21285D01*
X13122Y-21272D01*
X13115Y-21265D01*
X13090Y-21248D01*
X13060Y-21233D01*
X13026Y-21221D01*
X12989Y-21212D01*
X12946Y-21205D01*
X12900Y-21201D01*
X12850Y-21200D01*
Y-20900D01*
X12900Y-20899D01*
X12946Y-20895D01*
X12989Y-20888D01*
X13026Y-20879D01*
X13060Y-20867D01*
X13090Y-20852D01*
X13115Y-20835D01*
X13137Y-20815D01*
X13154Y-20792D01*
X13167Y-20767D01*
Y-21065D01*
D02*
G37*
G36*
X9501Y-21687D02*
X9504Y-21721D01*
X9509Y-21752D01*
X9516Y-21778D01*
X9525Y-21800D01*
X9536Y-21819D01*
X9549Y-21833D01*
X9564Y-21843D01*
X9581Y-21849D01*
X9600Y-21851D01*
X9200D01*
X9219Y-21849D01*
X9236Y-21843D01*
X9251Y-21833D01*
X9264Y-21819D01*
X9275Y-21800D01*
X9284Y-21778D01*
X9291Y-21752D01*
X9296Y-21721D01*
X9299Y-21687D01*
X9300Y-21648D01*
X9500D01*
X9501Y-21687D01*
D02*
G37*
G36*
X8571Y-21720D02*
X8578Y-21737D01*
X8590Y-21752D01*
X8606Y-21765D01*
X8627Y-21775D01*
X8652Y-21784D01*
X8682Y-21791D01*
X8716Y-21796D01*
X8756Y-21799D01*
X8799Y-21800D01*
Y-22000D01*
X8756Y-22001D01*
X8716Y-22004D01*
X8682Y-22009D01*
X8652Y-22016D01*
X8627Y-22025D01*
X8606Y-22035D01*
X8590Y-22048D01*
X8578Y-22063D01*
X8571Y-22080D01*
X8569Y-22098D01*
Y-21702D01*
X8571Y-21720D01*
D02*
G37*
G36*
X-8358Y-21699D02*
X-8281Y-21765D01*
X-8248Y-21788D01*
X-8218Y-21806D01*
X-8192Y-21817D01*
X-8168Y-21822D01*
X-8148Y-21822D01*
X-8132Y-21814D01*
X-8119Y-21801D01*
X-8349Y-22131D01*
X-8340Y-22113D01*
X-8336Y-22094D01*
X-8338Y-22071D01*
X-8345Y-22047D01*
X-8356Y-22020D01*
X-8374Y-21990D01*
X-8396Y-21958D01*
X-8423Y-21924D01*
X-8493Y-21848D01*
X-8402Y-21657D01*
X-8358Y-21699D01*
D02*
G37*
G36*
X3134Y-23063D02*
X3144Y-23065D01*
X3161Y-23067D01*
X3204Y-23070D01*
X3230Y-23070D01*
Y-23270D01*
X3211Y-23270D01*
X3215Y-23281D01*
X3210Y-23279D01*
X3202Y-23277D01*
X3193Y-23275D01*
X3169Y-23273D01*
X3144Y-23275D01*
X3129Y-23278D01*
X3117Y-23281D01*
X3107Y-23285D01*
X3101Y-23289D01*
X3097Y-23294D01*
X3095Y-23300D01*
Y-23270D01*
X3075Y-23270D01*
X2982Y-23070D01*
X3004Y-23069D01*
X3024Y-23068D01*
X3042Y-23065D01*
X3058Y-23062D01*
X3072Y-23057D01*
X3085Y-23052D01*
X3095Y-23045D01*
Y-23040D01*
X3096Y-23044D01*
X3105Y-23037D01*
X3112Y-23029D01*
X3117Y-23019D01*
X3134Y-23063D01*
D02*
G37*
G36*
X12417Y-22872D02*
X12408Y-22878D01*
X12400Y-22886D01*
X12394Y-22899D01*
X12388Y-22915D01*
X12383Y-22935D01*
X12380Y-22958D01*
X12377Y-22985D01*
X12375Y-23050D01*
X12125D01*
X12124Y-23016D01*
X12120Y-22958D01*
X12117Y-22935D01*
X12112Y-22915D01*
X12106Y-22899D01*
X12100Y-22886D01*
X12092Y-22878D01*
X12083Y-22872D01*
X12073Y-22870D01*
X12427D01*
X12417Y-22872D01*
D02*
G37*
G36*
X10517D02*
X10508Y-22878D01*
X10500Y-22886D01*
X10494Y-22899D01*
X10488Y-22915D01*
X10483Y-22935D01*
X10480Y-22958D01*
X10477Y-22985D01*
X10475Y-23050D01*
X10225D01*
X10224Y-23016D01*
X10220Y-22958D01*
X10217Y-22935D01*
X10212Y-22915D01*
X10206Y-22899D01*
X10200Y-22886D01*
X10192Y-22878D01*
X10183Y-22872D01*
X10173Y-22870D01*
X10527D01*
X10517Y-22872D01*
D02*
G37*
G36*
X9000Y-22758D02*
X9070Y-22816D01*
X9089Y-22830D01*
X9107Y-22840D01*
X9124Y-22847D01*
X9138Y-22850D01*
X9151Y-22851D01*
X9163Y-22848D01*
X9101Y-23281D01*
X9103Y-23256D01*
X9101Y-23231D01*
X9095Y-23205D01*
X9086Y-23178D01*
X9074Y-23150D01*
X9057Y-23121D01*
X9038Y-23091D01*
X9014Y-23061D01*
X8987Y-23030D01*
X8957Y-22998D01*
X8973Y-22732D01*
X9000Y-22758D01*
D02*
G37*
G36*
X1205Y-23297D02*
X1203Y-23288D01*
X1197Y-23280D01*
X1187Y-23273D01*
X1173Y-23267D01*
X1154Y-23262D01*
X1131Y-23258D01*
X1105Y-23254D01*
X1039Y-23250D01*
X1000Y-23250D01*
Y-22950D01*
X1039Y-22950D01*
X1131Y-22942D01*
X1154Y-22938D01*
X1173Y-22933D01*
X1187Y-22927D01*
X1197Y-22920D01*
X1203Y-22912D01*
X1205Y-22903D01*
X1205Y-23297D01*
D02*
G37*
G36*
X10525Y-23247D02*
X10530Y-23329D01*
X10532Y-23339D01*
X10535Y-23347D01*
X10537Y-23353D01*
X10540Y-23357D01*
X10260D01*
X10263Y-23353D01*
X10265Y-23347D01*
X10268Y-23339D01*
X10270Y-23329D01*
X10271Y-23316D01*
X10274Y-23286D01*
X10275Y-23224D01*
X10525D01*
X10525Y-23247D01*
D02*
G37*
G36*
X2781Y-23418D02*
X2764Y-23424D01*
X2749Y-23435D01*
X2736Y-23449D01*
X2725Y-23467D01*
X2716Y-23489D01*
X2709Y-23516D01*
X2704Y-23546D01*
X2701Y-23581D01*
X2700Y-23619D01*
X2500D01*
X2499Y-23581D01*
X2496Y-23546D01*
X2491Y-23516D01*
X2484Y-23489D01*
X2475Y-23467D01*
X2464Y-23449D01*
X2451Y-23435D01*
X2436Y-23424D01*
X2419Y-23418D01*
X2400Y-23416D01*
X2800D01*
X2781Y-23418D01*
D02*
G37*
G36*
X8567Y-23353D02*
X8557Y-23358D01*
X8550Y-23365D01*
X8547Y-23373D01*
X8548Y-23384D01*
X8552Y-23396D01*
X8560Y-23410D01*
X8572Y-23426D01*
X8587Y-23444D01*
X8606Y-23464D01*
X8349Y-23631D01*
X8306Y-23589D01*
X8162Y-23465D01*
X8133Y-23446D01*
X8107Y-23432D01*
X8085Y-23422D01*
X8065Y-23417D01*
X8048Y-23416D01*
X8581Y-23350D01*
X8567Y-23353D01*
D02*
G37*
G36*
X11447Y-23363D02*
X11453Y-23365D01*
X11461Y-23368D01*
X11471Y-23370D01*
X11484Y-23371D01*
X11514Y-23374D01*
X11576Y-23375D01*
Y-23625D01*
X11553Y-23625D01*
X11471Y-23630D01*
X11461Y-23632D01*
X11453Y-23635D01*
X11447Y-23637D01*
X11443Y-23640D01*
Y-23360D01*
X11447Y-23363D01*
D02*
G37*
G36*
X11437Y-23647D02*
X11435Y-23653D01*
X11432Y-23661D01*
X11430Y-23671D01*
X11429Y-23684D01*
X11426Y-23714D01*
X11425Y-23776D01*
X11175D01*
X11175Y-23753D01*
X11170Y-23671D01*
X11168Y-23661D01*
X11165Y-23653D01*
X11163Y-23647D01*
X11160Y-23643D01*
X11440D01*
X11437Y-23647D01*
D02*
G37*
G36*
X10537D02*
X10535Y-23653D01*
X10532Y-23661D01*
X10530Y-23671D01*
X10529Y-23684D01*
X10526Y-23714D01*
X10525Y-23776D01*
X10275D01*
X10275Y-23753D01*
X10270Y-23671D01*
X10268Y-23661D01*
X10265Y-23653D01*
X10263Y-23647D01*
X10260Y-23643D01*
X10540D01*
X10537Y-23647D01*
D02*
G37*
G36*
X8650Y-23908D02*
X8650Y-23959D01*
X8636Y-24166D01*
X8633Y-24167D01*
X8200Y-24151D01*
X8229Y-24149D01*
X8254Y-24141D01*
X8276Y-24126D01*
X8296Y-24105D01*
X8312Y-24078D01*
X8326Y-24045D01*
X8337Y-24005D01*
X8344Y-23959D01*
X8349Y-23907D01*
X8350Y-23848D01*
X8650Y-23908D01*
D02*
G37*
G36*
X3004Y-24301D02*
X3003Y-24301D01*
X3000Y-24300D01*
X2900Y-24300D01*
Y-24100D01*
X3004Y-24099D01*
Y-24301D01*
D02*
G37*
G36*
X7544Y-18587D02*
X7568Y-18709D01*
X7637Y-18813D01*
X7741Y-18882D01*
X7863Y-18906D01*
X8337D01*
X8343Y-18905D01*
X8602Y-19067D01*
X8643Y-19120D01*
Y-19850D01*
X8475Y-20123D01*
X7725D01*
X7579Y-20152D01*
X7455Y-20235D01*
X7372Y-20359D01*
X7343Y-20505D01*
Y-20755D01*
X7372Y-20901D01*
X7455Y-21025D01*
X7579Y-21108D01*
X7598Y-21112D01*
Y-21418D01*
X7579Y-21422D01*
X7455Y-21505D01*
X7372Y-21629D01*
X7343Y-21775D01*
Y-22025D01*
X7372Y-22171D01*
X7455Y-22295D01*
X7579Y-22378D01*
X7598Y-22382D01*
Y-22688D01*
X7579Y-22692D01*
X7455Y-22775D01*
X7372Y-22899D01*
X7343Y-23045D01*
Y-23295D01*
X7372Y-23441D01*
X7455Y-23565D01*
X7579Y-23648D01*
X7541Y-23900D01*
Y-24050D01*
X7576Y-24226D01*
X7676Y-24375D01*
X7684Y-24383D01*
X7610Y-24673D01*
X7514Y-24718D01*
X7300D01*
X7154Y-24747D01*
X7030Y-24830D01*
X6430Y-25430D01*
X6347Y-25554D01*
X6318Y-25700D01*
Y-26000D01*
X4491D01*
X4435Y-25700D01*
X5067Y-25067D01*
X5067Y-25067D01*
X5141Y-24994D01*
X5223Y-24886D01*
X5275Y-24761D01*
X5293Y-24627D01*
Y-19782D01*
X5328Y-19768D01*
X5464Y-19664D01*
X5568Y-19528D01*
X5633Y-19370D01*
X5656Y-19200D01*
X5636Y-19051D01*
X5640Y-19021D01*
X5830Y-18755D01*
X6300D01*
X6450Y-18735D01*
X6590Y-18677D01*
X6710Y-18585D01*
X6802Y-18465D01*
X6806Y-18455D01*
X7400D01*
X7544Y-18587D01*
D02*
G37*
G36*
X-12305Y-22000D02*
X-12293Y-22012D01*
X-11352Y-22952D01*
X-11237Y-23030D01*
X-11100Y-23057D01*
X-10906D01*
X-10745Y-23293D01*
X-10730Y-23357D01*
X-10759Y-23500D01*
Y-24300D01*
X-10724Y-24476D01*
X-10624Y-24624D01*
X-10476Y-24724D01*
X-10300Y-24759D01*
X-10124Y-24724D01*
X-9976Y-24624D01*
X-9876Y-24476D01*
X-9841Y-24300D01*
Y-23874D01*
X-9833Y-23865D01*
X-9541Y-23727D01*
X-9537Y-23730D01*
X-9400Y-23757D01*
X-7787D01*
X-7696Y-24057D01*
X-7724Y-24076D01*
X-7824Y-24224D01*
X-7859Y-24400D01*
X-7824Y-24576D01*
X-7724Y-24724D01*
X-7576Y-24824D01*
X-7400Y-24859D01*
X-7224Y-24824D01*
X-7050Y-24737D01*
X-6876Y-24824D01*
X-6700Y-24859D01*
X-6677Y-24854D01*
X-6567Y-24913D01*
X-6407Y-25067D01*
X-6400Y-25082D01*
X-6400Y-25198D01*
X-6362Y-25392D01*
X-6286Y-25574D01*
X-6202Y-25700D01*
X-6239Y-25839D01*
X-6338Y-26000D01*
X-12375D01*
X-12641Y-25800D01*
Y-25400D01*
X-12676Y-25224D01*
X-12776Y-25076D01*
X-12924Y-24976D01*
X-13100Y-24941D01*
X-13276Y-24976D01*
X-13424Y-25076D01*
X-13524Y-25224D01*
X-13559Y-25400D01*
Y-25800D01*
X-13825Y-26000D01*
X-14490D01*
X-14490Y-22024D01*
X-14190Y-22000D01*
X-13339D01*
X-12305D01*
D02*
G37*
G36*
X2350Y-26428D02*
X2354Y-26467D01*
X2356Y-26484D01*
X2360Y-26500D01*
X2364Y-26514D01*
X2370Y-26527D01*
X2376Y-26539D01*
X2382Y-26549D01*
X2390Y-26557D01*
X2110D01*
X2118Y-26549D01*
X2124Y-26539D01*
X2130Y-26527D01*
X2136Y-26514D01*
X2140Y-26500D01*
X2144Y-26484D01*
X2146Y-26467D01*
X2148Y-26448D01*
X2150Y-26407D01*
X2350D01*
X2350Y-26428D01*
D02*
G37*
G36*
X1344Y-26524D02*
X1082Y-26592D01*
X1086Y-26583D01*
X1088Y-26574D01*
X1088Y-26563D01*
X1086Y-26552D01*
X1082Y-26540D01*
X1075Y-26528D01*
X1067Y-26514D01*
X1056Y-26500D01*
X1043Y-26485D01*
X1028Y-26470D01*
X1191Y-26350D01*
X1344Y-26524D01*
D02*
G37*
G36*
X1850Y-26728D02*
X1854Y-26767D01*
X1856Y-26784D01*
X1860Y-26800D01*
X1864Y-26814D01*
X1870Y-26827D01*
X1876Y-26839D01*
X1882Y-26849D01*
X1890Y-26857D01*
X1610D01*
X1618Y-26849D01*
X1624Y-26839D01*
X1630Y-26827D01*
X1636Y-26814D01*
X1640Y-26800D01*
X1644Y-26784D01*
X1646Y-26767D01*
X1648Y-26748D01*
X1650Y-26707D01*
X1850D01*
X1850Y-26728D01*
D02*
G37*
G36*
X7625Y-27339D02*
X7633Y-27430D01*
X7637Y-27452D01*
X7642Y-27471D01*
X7648Y-27485D01*
X7655Y-27495D01*
X7663Y-27501D01*
X7672Y-27503D01*
X7328D01*
X7337Y-27501D01*
X7345Y-27495D01*
X7352Y-27485D01*
X7358Y-27471D01*
X7363Y-27452D01*
X7367Y-27430D01*
X7371Y-27404D01*
X7375Y-27339D01*
X7375Y-27300D01*
X7625D01*
X7625Y-27339D01*
D02*
G37*
G36*
X4066Y-27398D02*
X4068Y-27421D01*
X4071Y-27441D01*
X4075Y-27458D01*
X4081Y-27473D01*
X4088Y-27485D01*
X4097Y-27494D01*
X4107Y-27501D01*
X4118Y-27505D01*
X4130Y-27506D01*
X3870D01*
X3882Y-27505D01*
X3893Y-27501D01*
X3903Y-27494D01*
X3912Y-27485D01*
X3919Y-27473D01*
X3925Y-27458D01*
X3929Y-27441D01*
X3932Y-27421D01*
X3934Y-27398D01*
X3935Y-27373D01*
X4065D01*
X4066Y-27398D01*
D02*
G37*
G36*
X3566D02*
X3568Y-27421D01*
X3571Y-27441D01*
X3575Y-27458D01*
X3581Y-27473D01*
X3588Y-27485D01*
X3597Y-27494D01*
X3607Y-27501D01*
X3618Y-27505D01*
X3630Y-27506D01*
X3370D01*
X3382Y-27505D01*
X3393Y-27501D01*
X3403Y-27494D01*
X3412Y-27485D01*
X3419Y-27473D01*
X3425Y-27458D01*
X3429Y-27441D01*
X3432Y-27421D01*
X3434Y-27398D01*
X3435Y-27373D01*
X3565D01*
X3566Y-27398D01*
D02*
G37*
%LPC*%
G36*
X-6000Y-500D02*
X-13600D01*
X-13647Y-502D01*
X-13685Y-510D01*
X-5944D01*
X-6000Y-500D01*
X-6000Y-500D01*
Y-500D01*
D02*
G37*
G36*
X14145Y-845D02*
Y-967D01*
X14267D01*
X14145Y-845D01*
D02*
G37*
G36*
X-14145Y-845D02*
X-14270Y-970D01*
X-14145D01*
Y-845D01*
D02*
G37*
G36*
X2658Y-1872D02*
X2369Y-2086D01*
X2435Y-2152D01*
X2584Y-1983D01*
X2658Y-1872D01*
D02*
G37*
G36*
X-2658Y-1872D02*
X-2584Y-1983D01*
X-2435Y-2152D01*
X-2369Y-2086D01*
X-2658Y-1872D01*
D02*
G37*
G36*
X-2065Y-2348D02*
X-2152Y-2435D01*
X-1983Y-2584D01*
X-1628Y-2821D01*
X-1537Y-2866D01*
X-1732Y-2651D01*
X-2065Y-2348D01*
D02*
G37*
G36*
X2065D02*
X1732Y-2651D01*
X1537Y-2866D01*
X1628Y-2821D01*
X1983Y-2584D01*
X2152Y-2435D01*
X2065Y-2348D01*
D02*
G37*
G36*
X1000Y-500D02*
X-1000D01*
X-1000Y-3093D01*
X-843Y-3146D01*
X-425Y-3229D01*
X0Y-3257D01*
X425Y-3229D01*
X843Y-3146D01*
X1000Y-3093D01*
X1000Y-500D01*
D02*
G37*
G36*
X-1300Y-4141D02*
X-1476Y-4176D01*
X-1624Y-4276D01*
X-1720Y-4419D01*
X-1724Y-4424D01*
X-1778Y-4452D01*
X-2034Y-4573D01*
X-2047Y-4572D01*
X-2200Y-4541D01*
X-2376Y-4576D01*
X-2524Y-4676D01*
X-2724Y-4876D01*
X-2900Y-4841D01*
X-3076Y-4876D01*
X-3224Y-4976D01*
X-3324Y-5124D01*
X-3359Y-5300D01*
X-3324Y-5476D01*
X-3224Y-5624D01*
X-3076Y-5724D01*
X-2900Y-5759D01*
X-2724Y-5724D01*
X-2576Y-5624D01*
X-2376Y-5424D01*
X-2200Y-5459D01*
X-2024Y-5424D01*
X-1876Y-5324D01*
X-1780Y-5181D01*
X-1776Y-5176D01*
X-1722Y-5148D01*
X-1466Y-5027D01*
X-1453Y-5028D01*
X-1300Y-5059D01*
X-1124Y-5024D01*
X-976Y-4924D01*
X-876Y-4776D01*
X-841Y-4600D01*
X-876Y-4424D01*
X-976Y-4276D01*
X-1124Y-4176D01*
X-1300Y-4141D01*
D02*
G37*
G36*
X-10450Y-5441D02*
X-10626Y-5476D01*
X-10774Y-5576D01*
X-10874Y-5724D01*
X-10909Y-5900D01*
X-10874Y-6076D01*
X-10774Y-6224D01*
X-10626Y-6324D01*
X-10450Y-6359D01*
X-10274Y-6324D01*
X-10126Y-6224D01*
X-10026Y-6076D01*
X-9991Y-5900D01*
X-10026Y-5724D01*
X-10126Y-5576D01*
X-10274Y-5476D01*
X-10450Y-5441D01*
D02*
G37*
G36*
X900Y-7241D02*
X724Y-7276D01*
X576Y-7376D01*
X476Y-7524D01*
X441Y-7700D01*
X476Y-7876D01*
X576Y-8024D01*
X724Y-8124D01*
X900Y-8159D01*
X1076Y-8124D01*
X1224Y-8024D01*
X1324Y-7876D01*
X1359Y-7700D01*
X1324Y-7524D01*
X1224Y-7376D01*
X1076Y-7276D01*
X900Y-7241D01*
D02*
G37*
G36*
X-3750Y-20241D02*
X-3926Y-20276D01*
X-4074Y-20376D01*
X-4174Y-20524D01*
X-4209Y-20700D01*
X-4174Y-20876D01*
X-4074Y-21024D01*
X-3926Y-21124D01*
X-3750Y-21159D01*
X-3574Y-21124D01*
X-3426Y-21024D01*
X-3326Y-20876D01*
X-3291Y-20700D01*
X-3326Y-20524D01*
X-3426Y-20376D01*
X-3574Y-20276D01*
X-3750Y-20241D01*
D02*
G37*
G36*
X13167Y-21068D02*
Y-21200D01*
X13170Y-21195D01*
X13184Y-21157D01*
X13190Y-21124D01*
X13186Y-21096D01*
X13173Y-21073D01*
X13167Y-21068D01*
D02*
G37*
%LPD*%
D12*
X10300Y-25600D02*
X11300Y-24600D01*
X7500Y-25600D02*
X10300D01*
X11300Y-24600D02*
Y-23500D01*
X10350Y-23050D02*
Y-22350D01*
X10400Y-23500D02*
Y-23100D01*
X10350Y-23050D02*
X10400Y-23100D01*
X12250Y-23050D02*
Y-22350D01*
X11800Y-23500D02*
X12250Y-23050D01*
X11300Y-23500D02*
X11800D01*
X6700Y-27200D02*
Y-25700D01*
X7300Y-25100D02*
X10000D01*
X6700Y-25700D02*
X7300Y-25100D01*
X7000Y-28500D02*
Y-27500D01*
X6700Y-27200D02*
X7000Y-27500D01*
X7200Y-27000D02*
Y-25900D01*
Y-27000D02*
X7500Y-27300D01*
Y-28500D02*
Y-27300D01*
X7200Y-25900D02*
X7500Y-25600D01*
X10000Y-25100D02*
X10400Y-24700D01*
Y-23500D01*
D13*
X-7150Y-19300D02*
X-6600D01*
X-8150Y-20300D02*
X-7150Y-19300D01*
X-8300D02*
X-8300D01*
X-8850Y-19850D02*
X-8300Y-19300D01*
X1500Y-20100D02*
X2240Y-19360D01*
X1200Y-20100D02*
X1500D01*
X2240Y-19360D02*
X2600D01*
X-12200Y-11200D02*
Y-9300D01*
X-11700Y-11400D02*
Y-9500D01*
X-13600Y-12600D02*
X-12200Y-11200D01*
X-13600Y-18800D02*
Y-12600D01*
X-13100Y-15300D02*
Y-12800D01*
X-11700Y-11400D01*
X2250Y-26250D02*
X2600Y-25900D01*
X2200Y-24500D02*
X2600Y-24900D01*
Y-25900D02*
Y-24900D01*
X2250Y-26700D02*
Y-26250D01*
X1750Y-27000D02*
Y-26350D01*
X-1700Y-22900D02*
X1750Y-26350D01*
X1250Y-26700D02*
Y-26550D01*
X-1900Y-23400D02*
X1250Y-26550D01*
X-1500Y-22400D02*
X600Y-24500D01*
X2200D01*
X-6800Y-22400D02*
X-1500D01*
X-7100Y-22100D02*
X-6800Y-22400D01*
X2600Y-23900D02*
Y-23170D01*
X2900Y-24200D02*
X3500D01*
X2600Y-23900D02*
X2900Y-24200D01*
X-9350Y-20850D02*
X-8100Y-22100D01*
X-9350Y-20850D02*
Y-20500D01*
X-9300Y-22900D02*
X-1700D01*
X-9400Y-23400D02*
X-1900D01*
X-10900Y-22200D02*
X-10000D01*
X-9300Y-22900D01*
X-11100Y-22700D02*
X-10100D01*
X-12400Y-21400D02*
X-11100Y-22700D01*
X-10100D02*
X-9400Y-23400D01*
X-13600Y-18800D02*
X-12400Y-20000D01*
Y-21400D02*
Y-20000D01*
X-13100Y-15300D02*
X-11900Y-16500D01*
X-9300Y-4200D02*
X-9100Y-4400D01*
Y-6200D02*
Y-4400D01*
X-12200Y-9300D02*
X-9100Y-6200D01*
X-7000Y-4800D02*
Y-3850D01*
X-11700Y-9500D02*
X-7000Y-4800D01*
X-11900Y-21200D02*
X-10900Y-22200D01*
X-11900Y-21200D02*
Y-16500D01*
X-8850Y-20200D02*
Y-19850D01*
X-10800Y-10550D02*
Y-10200D01*
X-8900Y-17500D02*
X-8900Y-17500D01*
Y-18500D02*
Y-17500D01*
X-8900Y-17500D02*
X-8701Y-17301D01*
X-8399D01*
X-9825Y-16925D02*
Y-16150D01*
X-9900Y-17000D02*
X-9825Y-16925D01*
X-9900Y-17500D02*
Y-17000D01*
X9000Y-18400D02*
Y-17900D01*
Y-20400D02*
Y-18400D01*
X8100D02*
X9000D01*
X8100Y-18400D02*
X8100Y-18400D01*
X9400Y-21000D02*
X9500Y-20900D01*
X9400Y-22100D02*
Y-21000D01*
X9500Y-20900D02*
Y-18800D01*
X9200Y-23100D02*
X9400D01*
X8600Y-22500D02*
X9200Y-23100D01*
X6600Y-22500D02*
X8600D01*
X8100Y-21900D02*
X8800D01*
X9000Y-22100D01*
X9400D01*
X12500Y-19400D02*
Y-18000D01*
X11200Y-17400D02*
X11900D01*
X12500Y-18000D01*
X12250Y-19650D02*
X12500Y-19400D01*
X10350Y-19650D02*
Y-19250D01*
X11200Y-18400D01*
X11600D01*
X9500Y-18800D02*
X9900Y-18400D01*
X10000D01*
X-8200Y-14000D02*
X-7900Y-14300D01*
X-7000D01*
X10650Y-10900D02*
Y-10650D01*
X10900Y-10400D01*
Y-9800D01*
X9500Y-12100D02*
X10000D01*
X10650Y-11450D02*
Y-10900D01*
X10000Y-12100D02*
X10650Y-11450D01*
X-700Y-11400D02*
X-400Y-11700D01*
X-700Y-11400D02*
Y-10700D01*
X-1000Y-10400D02*
X-700Y-10700D01*
X-1550Y-12000D02*
X-1000D01*
X-300Y-12700D02*
X0D01*
X-1000Y-12000D02*
X-300Y-12700D01*
X-11000Y-12100D02*
Y-12050D01*
X-10700Y-12400D02*
X-9900D01*
X-11000Y-12100D02*
X-10700Y-12400D01*
X-10800Y-10200D02*
X-10100Y-9500D01*
X2400Y-18700D02*
X2600Y-18900D01*
Y-19360D02*
Y-18900D01*
X2400Y-18700D02*
Y-18400D01*
X5100Y-13000D02*
X5500Y-13400D01*
X5100Y-13000D02*
Y-11700D01*
X5400Y-11400D01*
X5800D01*
X8300Y-9200D02*
X9200Y-8300D01*
X7300Y-9200D02*
X8300D01*
X9200Y-8300D02*
Y-8100D01*
X0Y-9900D02*
X100Y-9800D01*
Y-8800D01*
X-200Y-8500D02*
X100Y-8800D01*
X-1550Y-8500D02*
X-200D01*
X-400Y-11700D02*
X0D01*
X-1300Y-10400D02*
X-1000D01*
X-1800Y-10400D02*
Y-10400D01*
X-650Y-6250D02*
X-600Y-6200D01*
X3270Y-20630D02*
X3300Y-20600D01*
X2600Y-20630D02*
X3270D01*
X2600Y-23170D02*
X3230D01*
X3300Y-23100D01*
X2100Y-21900D02*
X2600D01*
X1500Y-22100D02*
X1900D01*
X2100Y-21900D01*
X2300Y-21900D02*
Y-20630D01*
X4400Y-12150D02*
Y-11700D01*
X-1400Y-17800D02*
X-1400Y-17800D01*
X-1400Y-17800D02*
Y-17200D01*
X-400Y-16500D02*
X-400Y-16500D01*
X-400Y-17800D02*
Y-16500D01*
X9000Y-17900D02*
X9500Y-17400D01*
X8770Y-20630D02*
X9000Y-20400D01*
X8100Y-20630D02*
X8770D01*
X12450Y-2950D02*
X13200Y-3700D01*
Y-4000D02*
Y-3700D01*
X-3500Y-8500D02*
X-3300Y-8700D01*
X-4300Y-16500D02*
X-4250Y-16450D01*
X-5500Y-16500D02*
X-4300D01*
X-5700Y-13700D02*
X-5700Y-13700D01*
X-1900Y-17000D02*
Y-16800D01*
X-1550Y-16450D01*
X-450D02*
X-400Y-16500D01*
X-1550Y-16450D02*
X-450D01*
X-8800Y-9500D02*
Y-9300D01*
X-9300Y-8800D02*
X-8800Y-9300D01*
X-9400Y-8800D02*
X-9300D01*
X-8900Y-11100D02*
X-8900Y-11100D01*
X-8900Y-11600D02*
Y-11100D01*
X-8200Y-10800D02*
X-8100Y-10700D01*
Y-10300D01*
X-12900Y-10600D02*
Y-10060D01*
Y-10600D02*
X-12800Y-10700D01*
X-15000Y-10060D02*
X-13900D01*
X-10800Y-11550D02*
X-9850D01*
X-8800Y-11600D02*
X-8100D01*
X-8800Y-11600D02*
X-8800Y-11600D01*
X-8500Y-12400D02*
X-8100D01*
X-8900D02*
X-8500D01*
X-9800Y-10400D02*
Y-10300D01*
X-10450Y-11050D02*
X-9800Y-10400D01*
X-11000Y-11050D02*
X-10450D01*
X-8800Y-10300D02*
X-8800Y-10300D01*
X-8100D01*
X-8800Y-9500D02*
X-8100D01*
X-10100D02*
X-9800D01*
X-4250Y-8500D02*
X-3500D01*
X10000Y-10900D02*
Y-10100D01*
X9800Y-11100D02*
X10000Y-10900D01*
Y-10100D02*
X10100Y-10000D01*
X8400Y-7300D02*
X8500D01*
X9800Y-8000D02*
X10100Y-8300D01*
Y-9000D02*
Y-8300D01*
X10850Y-9000D02*
X10900Y-9050D01*
Y-9400D02*
Y-9050D01*
Y-9800D02*
Y-9400D01*
X12100Y-4050D02*
Y-3300D01*
X11450Y-4700D02*
X12100Y-4050D01*
X7600Y-6500D02*
Y-6100D01*
Y-6500D02*
X8400Y-7300D01*
X8500Y-6300D02*
X8800Y-6000D01*
X9000D01*
X9350Y-5650D01*
Y-5600D01*
D14*
X-1800Y-10400D02*
Y-10334D01*
X-900Y-10000D02*
X0Y-10900D01*
X-7400Y-17300D02*
X-7200D01*
X-7900Y-17800D02*
X-7400Y-17300D01*
X-7900Y-18500D02*
Y-17800D01*
X14200Y-3700D02*
X15000D01*
X13300Y-2800D02*
X14200Y-3700D01*
X13300Y-2800D02*
Y-2500D01*
X12800Y-2000D02*
X13300Y-2500D01*
X8800Y-2500D02*
X9300Y-2000D01*
X12800D01*
X-7600Y-8900D02*
X-6400D01*
X-4250Y-11050D01*
X-1466Y-10000D02*
X-900D01*
X-1800Y-10334D02*
X-1466Y-10000D01*
X-1300Y-13900D02*
X-1000D01*
X-500Y-14400D01*
Y-14700D02*
Y-14400D01*
X-8100Y-9400D02*
X-7600Y-8900D01*
X-4250Y-12950D02*
X-4200Y-13000D01*
X-8200Y-10800D02*
X-8200Y-10800D01*
X-8100Y-9500D02*
Y-9400D01*
X10200Y-3300D02*
X10600Y-3700D01*
Y-6050D02*
Y-3700D01*
X9750Y-6900D02*
X10600Y-6050D01*
X10200Y-2800D02*
Y-2800D01*
Y-3300D02*
Y-2800D01*
D34*
X-6600Y-19300D02*
D03*
X-10000D02*
D03*
X-8300D02*
D03*
X3500Y-24200D02*
D03*
X1200Y-20100D02*
D03*
X5500Y-13400D02*
D03*
X4500Y-5800D02*
D03*
X-6400Y-18000D02*
D03*
X2600Y-23170D02*
D03*
X2600Y-21900D02*
D03*
X2600Y-20630D02*
D03*
Y-19360D02*
D03*
X8100Y-19360D02*
D03*
Y-20630D02*
D03*
Y-21900D02*
D03*
Y-23170D02*
D03*
D35*
X13200Y-4000D02*
D03*
D59*
X3700Y-4800D02*
X3800D01*
X2300Y-10900D02*
Y-9600D01*
X5300Y-6600D01*
X1800Y-11400D02*
X2300Y-10900D01*
X2700Y-9800D02*
X5300Y-7200D01*
X2700Y-10900D02*
Y-9800D01*
Y-12000D02*
Y-10900D01*
X1800Y-12150D02*
Y-11400D01*
X5200Y-3800D02*
X5300Y-3700D01*
X-1600Y-13500D02*
X-500D01*
X-1700Y-13600D02*
X-1600Y-13500D01*
X500D02*
X700D01*
X-500Y-13600D02*
X500Y-14600D01*
X900Y-10700D02*
X1100Y-10900D01*
Y-13100D02*
Y-10900D01*
X700Y-13500D02*
X1100Y-13100D01*
X3500Y-11800D02*
X4000Y-11300D01*
Y-9100D01*
X3500Y-12000D02*
Y-11800D01*
X4800Y-3800D02*
X5200D01*
X3800Y-4800D02*
X4800Y-3800D01*
X4800Y-3800D01*
Y-3800D02*
Y-3800D01*
X1100Y-10500D02*
Y-10050D01*
X900Y-10700D02*
X1100Y-10500D01*
X4000Y-9100D02*
X5300Y-7800D01*
X4400Y-12150D02*
Y-9300D01*
X5300Y-8400D01*
D60*
X8500Y-7300D02*
D03*
Y-6300D02*
D03*
X9400Y-22100D02*
D03*
Y-23100D02*
D03*
X8100Y-18400D02*
D03*
Y-17400D02*
D03*
X0Y-10900D02*
D03*
Y-9900D02*
D03*
Y-11700D02*
D03*
Y-12700D02*
D03*
X-7000Y-13300D02*
D03*
Y-14300D02*
D03*
X-400Y-16500D02*
D03*
Y-15500D02*
D03*
X9500Y-13100D02*
D03*
Y-12100D02*
D03*
X10100Y-9900D02*
D03*
Y-8900D02*
D03*
X3500Y-12000D02*
D03*
Y-13000D02*
D03*
X1500Y-22100D02*
D03*
Y-23100D02*
D03*
X4800Y-3800D02*
D03*
Y-4800D02*
D03*
X3700Y-3800D02*
D03*
Y-4800D02*
D03*
X2700Y-13000D02*
D03*
X2700Y-12000D02*
D03*
X3500Y-13700D02*
D03*
Y-14700D02*
D03*
X2700D02*
D03*
X2700Y-13700D02*
D03*
D61*
X-7100Y-22100D02*
D03*
X-8100D02*
D03*
X-7900Y-18500D02*
D03*
X-8900D02*
D03*
X-9900Y-17500D02*
D03*
X-8900D02*
D03*
X-13900Y-10060D02*
D03*
X-12900D02*
D03*
X-9900Y-11600D02*
D03*
X-8900D02*
D03*
X-400Y-17800D02*
D03*
X-1400D02*
D03*
X-7100Y-9500D02*
D03*
X-8100D02*
D03*
X-8800Y-10300D02*
D03*
X-9800D02*
D03*
X-7100Y-12400D02*
D03*
X-8100D02*
D03*
X-7100Y-11600D02*
D03*
X-8100D02*
D03*
Y-10300D02*
D03*
X-7100D02*
D03*
X-9800Y-9500D02*
D03*
X-8800D02*
D03*
X-8900Y-12400D02*
D03*
X-9900D02*
D03*
X11900Y-9800D02*
D03*
X10900D02*
D03*
X500Y-14700D02*
D03*
X-500D02*
D03*
X500Y-13500D02*
D03*
X-500D02*
D03*
D62*
X4850Y-1800D02*
D03*
X6350Y-1800D02*
D03*
X12450Y-2900D02*
D03*
X10950Y-2900D02*
D03*
X8350Y-12600D02*
D03*
X6850Y-12600D02*
D03*
X8050Y-2900D02*
D03*
X9550Y-2900D02*
D03*
D63*
X9600Y-17400D02*
D03*
X11200D02*
D03*
X10000Y-18400D02*
D03*
X11600D02*
D03*
X8400Y-13700D02*
D03*
X6800D02*
D03*
X4300Y-2900D02*
D03*
X5900D02*
D03*
D68*
X6900Y-3950D02*
D03*
X6900Y-2850D02*
D03*
X13400Y-21050D02*
D03*
X13400Y-19950D02*
D03*
X-5300Y-14050D02*
D03*
X-5300Y-15150D02*
D03*
X-11500Y-14950D02*
D03*
X-11500Y-13850D02*
D03*
X-5300Y-12150D02*
D03*
X-5300Y-13250D02*
D03*
X-12300Y-13850D02*
D03*
X-12300Y-14950D02*
D03*
X9400Y-11050D02*
D03*
X9400Y-9950D02*
D03*
X8700Y-11050D02*
D03*
X8700Y-9950D02*
D03*
X7600Y-3750D02*
D03*
X7600Y-4850D02*
D03*
D69*
X-1750Y-6700D02*
D03*
X-650Y-6700D02*
D03*
X10850Y-9000D02*
D03*
X11950Y-9000D02*
D03*
X8350Y-24400D02*
D03*
X7250Y-24400D02*
D03*
D70*
X6800Y-9950D02*
D03*
X6800Y-11450D02*
D03*
X1100Y-10050D02*
D03*
X1100Y-8550D02*
D03*
X7800Y-11450D02*
D03*
X7800Y-9950D02*
D03*
X12800Y-8250D02*
D03*
X12800Y-9750D02*
D03*
X8500Y-5350D02*
D03*
X8500Y-3850D02*
D03*
D79*
X100Y-7900D02*
X750Y-8550D01*
X100Y-7900D02*
Y-7100D01*
X750Y-8550D02*
X1100D01*
X-300Y-6700D02*
X100Y-7100D01*
X-650Y-6700D02*
X-300D01*
X-12000Y-13100D02*
X-10600D01*
X-12300Y-13400D02*
X-12000Y-13100D01*
X-12300Y-13850D02*
Y-13400D01*
X10650Y-12750D02*
X10800Y-12600D01*
X12400D02*
X12550Y-12750D01*
X10800Y-12600D02*
X12400D01*
X13400Y-21300D02*
Y-21050D01*
X13100Y-21600D02*
X13400Y-21300D01*
X13400Y-19950D02*
X13750Y-19600D01*
X13900D01*
X6350Y-1800D02*
X6550Y-1600D01*
X8500D01*
X6900Y-2850D02*
Y-2300D01*
X6400Y-1800D02*
X6900Y-2300D01*
X6350Y-1800D02*
X6400D01*
X6900Y-4050D02*
Y-3950D01*
Y-4150D02*
Y-4050D01*
X4850Y-1800D02*
Y-1350D01*
X5100Y-1100D01*
X4300Y-2350D02*
X4850Y-1800D01*
X4300Y-2900D02*
Y-2350D01*
X5800Y-10500D02*
Y-10000D01*
X12200Y-7200D02*
X12800Y-7800D01*
Y-8200D02*
Y-7800D01*
X11750Y-7200D02*
X12200D01*
X-9825Y-14050D02*
Y-13875D01*
X-10600Y-13100D02*
X-9825Y-13875D01*
X-7000Y-13300D02*
Y-12900D01*
X-7100Y-12800D02*
Y-12400D01*
Y-12800D02*
X-7000Y-12900D01*
X-8175Y-16150D02*
X-7296D01*
X-7099Y-15953D01*
X-650Y-6700D02*
X-600Y-6650D01*
Y-6200D01*
X12000Y-9800D02*
Y-8400D01*
X6800Y-11450D02*
X8050D01*
X6050D02*
X6800D01*
X-400Y-15500D02*
X-200D01*
X800Y-16500D01*
X1300D01*
X1500Y-18400D02*
Y-17500D01*
X2000Y-17000D01*
X11000Y-15800D02*
X11100Y-15700D01*
X12200D01*
X7250Y-24400D02*
X7300Y-24350D01*
Y-23900D01*
X8000Y-24050D02*
X8350Y-24400D01*
X8000Y-24050D02*
Y-23900D01*
X-5300Y-13700D02*
Y-13250D01*
Y-14050D02*
Y-13700D01*
X-5700D02*
X-5300D01*
X-5200Y-15250D02*
X-4950Y-15500D01*
X-5300Y-15150D02*
X-5200Y-15250D01*
Y-15700D02*
Y-15250D01*
X-5850Y-11600D02*
X-5300Y-12150D01*
X-6600Y-11600D02*
X-5850D01*
X-5300Y-14050D02*
X-5300Y-14050D01*
X-5300Y-12150D02*
X-5150Y-12000D01*
X-4250D01*
X-4950Y-15500D02*
X-4250D01*
X-12300Y-14950D02*
X-12300Y-14950D01*
X-10900D01*
X-12300Y-13850D02*
X-11500D01*
X-10950D01*
X-10900Y-13800D01*
X-7100Y-9500D02*
X-6500D01*
X-7100Y-10300D02*
Y-9500D01*
Y-10300D02*
X-7100Y-10300D01*
X-2600Y-12000D02*
X-1550D01*
X-7100Y-11600D02*
X-6600D01*
X-7100Y-12400D02*
Y-11600D01*
X-7100Y-12400D02*
X-7100Y-12400D01*
X12550Y-13500D02*
Y-12750D01*
X10250Y-13900D02*
X10650Y-13500D01*
Y-12750D01*
X9750Y-11050D02*
X9800Y-11100D01*
X8700Y-11050D02*
X9750D01*
X6000Y-11400D02*
X6050Y-11450D01*
X7900Y-9950D02*
X9400D01*
X8050Y-11450D02*
X8450Y-11050D01*
X8700D01*
X8700Y-11050D01*
X3500Y-13700D02*
Y-13000D01*
X7000Y-9950D02*
X7900D01*
X7900Y-9950D01*
X11100Y-7800D02*
Y-7250D01*
X10950Y-2950D02*
Y-2900D01*
Y-2950D02*
X11600Y-3600D01*
X11100Y-7250D02*
X11450Y-6900D01*
X11750Y-7200D01*
X9750Y-5550D02*
X9800Y-5600D01*
X12100Y-3300D02*
X12450Y-2950D01*
Y-2900D01*
X9864Y-12736D02*
Y-12723D01*
X6850Y-12600D02*
X7050Y-12400D01*
X7400D01*
X6750Y-12700D02*
X6850Y-12600D01*
X8600Y-13900D02*
X10250D01*
X8400Y-13700D02*
X8600Y-13900D01*
X9500Y-13100D02*
X9864Y-12736D01*
X6450Y-3950D02*
X6900D01*
X5900Y-3400D02*
X6450Y-3950D01*
X2700Y-13700D02*
Y-13000D01*
X8250Y-5350D02*
X8500D01*
X7600Y-4850D02*
X7750D01*
X8250Y-5350D01*
X5900Y-3400D02*
Y-2900D01*
X9750Y-5550D02*
Y-4700D01*
Y-4550D01*
X8050Y-3150D02*
X8600Y-3700D01*
X8400Y-3750D02*
X8500Y-3850D01*
X6900Y-4150D02*
X7600Y-4850D01*
X7600Y-3750D02*
X8400D01*
X8000Y-2850D02*
X8050Y-2900D01*
Y-3150D02*
Y-2900D01*
X8600Y-3700D02*
X8900D01*
X9750Y-4550D01*
X9550Y-2900D02*
X10100D01*
X10200Y-2800D01*
X-13500Y-24400D02*
Y-24000D01*
X-13100Y-25800D02*
Y-25400D01*
X7750Y-26300D02*
X8250D01*
X1600Y-25100D02*
X2000D01*
X7750Y-26700D02*
X8250D01*
X2000Y-25300D02*
Y-25100D01*
Y-25500D02*
Y-25300D01*
X1600Y-25500D02*
X2000D01*
X-9550Y-26300D02*
X-9050D01*
X-9550Y-26700D02*
X-9050D01*
X13100Y-18300D02*
Y-17100D01*
X-10300Y-23900D02*
Y-23500D01*
Y-24300D02*
Y-23900D01*
X-2600Y-12400D02*
Y-12000D01*
X7300Y-14400D02*
X7700D01*
X8500Y-1600D02*
X8800Y-1900D01*
X11200Y-12000D02*
X12000D01*
X-13600Y-21300D02*
Y-20500D01*
X12600Y-15700D02*
X13400D01*
X12200D02*
X12600D01*
X1600Y-25300D02*
Y-25100D01*
Y-25500D02*
Y-25300D01*
X-9050Y-26700D02*
Y-26300D01*
X-9550Y-26700D02*
Y-26300D01*
X9050Y-26700D02*
X9550D01*
X8250D02*
Y-26300D01*
X7750Y-26700D02*
Y-26300D01*
X9550Y-26700D02*
Y-26300D01*
X9050D02*
X9550D01*
X9050Y-26700D02*
Y-26300D01*
X5100Y-1100D02*
X5500D01*
X-10800Y-21400D02*
Y-20600D01*
X-8000Y-2200D02*
X-7600D01*
X5750Y-14100D02*
X6150D01*
X9800Y-11500D02*
Y-11400D01*
Y-11100D01*
X9350Y-5600D02*
X9800D01*
X10150D01*
D81*
X-10000Y-19700D02*
X-9350Y-20350D01*
X-10000Y-19700D02*
Y-19300D01*
X-9350Y-20500D02*
Y-20350D01*
X-6400Y-18000D02*
X-6400Y-18000D01*
X-7200Y-18000D02*
X-6400D01*
X-2600Y-12400D02*
X-2500Y-12500D01*
Y-15200D02*
Y-12500D01*
Y-15200D02*
X-2200Y-15500D01*
X-1550D01*
X8100Y-17400D02*
Y-16900D01*
X6600Y-22500D02*
Y-20200D01*
Y-24100D02*
Y-22500D01*
X12850Y-20500D02*
X13400Y-19950D01*
X11600Y-20500D02*
X12850D01*
X11300Y-20200D02*
X11600Y-20500D01*
X11300Y-20200D02*
Y-19650D01*
X12850Y-21050D02*
X13400D01*
X12600Y-21300D02*
X12850Y-21050D01*
X11700Y-21300D02*
X12600D01*
X11300Y-21700D02*
X11700Y-21300D01*
X11300Y-22350D02*
Y-21700D01*
X3600Y-3800D02*
X3700D01*
X3300Y-3500D02*
Y-2300D01*
Y-3500D02*
X3600Y-3800D01*
X6900Y-4050D02*
Y-3950D01*
X6500Y-4450D02*
X6900Y-4050D01*
X4500Y-5800D02*
X4800Y-5500D01*
Y-4800D01*
X5500Y-8900D02*
X6400D01*
X5100Y-9300D02*
X5500Y-8900D01*
X6400D02*
X6700Y-9200D01*
X6150Y-4800D02*
X6500Y-4450D01*
X4800Y-4800D02*
X6150D01*
X5100Y-9700D02*
Y-9300D01*
X-1750Y-6200D02*
X-1750Y-6200D01*
Y-6700D02*
Y-6200D01*
X-2700Y-8100D02*
Y-7200D01*
X-2300Y-8500D02*
X-1550D01*
X-2700Y-8100D02*
X-2300Y-8500D01*
X-2200Y-6700D02*
X-1750D01*
X-2700Y-7200D02*
X-2200Y-6700D01*
X1500Y-23100D02*
X1500Y-23100D01*
X1000Y-23100D02*
X1500D01*
X6600Y-20200D02*
X7440Y-19360D01*
X8100D01*
X6600Y-24100D02*
X6900Y-24400D01*
X7250D01*
X8100Y-23170D02*
X8500Y-23570D01*
X8350Y-24400D02*
X8500Y-24250D01*
Y-23570D01*
X12200Y-15700D02*
Y-15000D01*
X11600Y-14400D02*
X12200Y-15000D01*
X11600Y-14400D02*
Y-13500D01*
X-3650Y-11050D02*
X-3500Y-11200D01*
X-4250Y-11050D02*
X-3650D01*
X-4200Y-13000D02*
X-3500D01*
X-3550Y-14550D02*
X-3500Y-14600D01*
X-4250Y-14550D02*
X-3550D01*
X6700Y-9650D02*
Y-9200D01*
Y-9650D02*
X7000Y-9950D01*
X6150Y-14100D02*
X6400D01*
X6800Y-13700D01*
D83*
X-1500Y-7500D02*
X-700D01*
X4773Y-19200D02*
Y-18980D01*
X3600Y-14700D02*
X4400Y-13900D01*
X3500Y-14700D02*
X3600D01*
X4400Y-13900D02*
Y-13850D01*
X1800Y-13900D02*
Y-13850D01*
Y-13900D02*
X2600Y-14700D01*
X4773Y-24627D02*
Y-19200D01*
X4800D02*
X5000D01*
X4300D02*
X4523D01*
Y-24523D02*
Y-19200D01*
Y-18877D01*
X2600Y-14700D02*
X2600Y-14700D01*
X1500Y-15800D02*
X2600Y-14700D01*
X2600Y-14700D02*
X2700D01*
X1500Y-15800D02*
X2850D01*
X2900Y-15850D01*
X3500Y-14700D02*
X3700Y-14900D01*
X3500Y-14700D02*
X3500Y-14700D01*
X3700Y-14900D02*
X8000D01*
X8400Y-15300D01*
Y-15800D02*
Y-15300D01*
X8350Y-15850D02*
X8400Y-15800D01*
X7100Y-15850D02*
X8350D01*
X4000Y-28500D02*
Y-27300D01*
X3500Y-28500D02*
Y-27300D01*
X5150Y-18450D02*
X5800Y-17800D01*
X5150Y-18604D02*
Y-18450D01*
X5077Y-18677D02*
X5150Y-18604D01*
X5077Y-18677D02*
Y-18677D01*
X4200Y-17800D02*
X4900Y-18500D01*
Y-18500D02*
Y-18500D01*
X4773Y-18980D02*
X5077Y-18677D01*
X4700Y-24700D02*
X4773Y-24627D01*
X4700Y-24700D02*
Y-24700D01*
X4523Y-18877D02*
X4900Y-18500D01*
X3625Y-25421D02*
X4523Y-24523D01*
X3625Y-27175D02*
Y-25421D01*
X3875Y-25525D02*
X4700Y-24700D01*
X3875Y-27175D02*
Y-25525D01*
Y-27175D02*
X4000Y-27300D01*
X3500D02*
X3625Y-27175D01*
X-850Y-9450D02*
X-500Y-9100D01*
X2900Y-17550D02*
X3150Y-17800D01*
X4200D01*
X5800D02*
X6850D01*
X7100Y-17550D01*
X2900Y-15850D02*
X2950Y-15800D01*
X4200D01*
X5850Y-15850D02*
X7100D01*
X5800Y-15800D02*
X5850Y-15850D01*
X-5600Y-7800D02*
X-5200Y-8200D01*
Y-9000D02*
X-4750Y-9450D01*
X-5200Y-9000D02*
Y-8200D01*
X-4750Y-9450D02*
X-4250D01*
X-6250Y-7000D02*
X-5600D01*
X-5050Y-7550D01*
X-7950Y-7800D02*
X-7850Y-7900D01*
Y-8600D02*
Y-7900D01*
X-8700Y-8050D02*
Y-7200D01*
X-1550Y-7550D02*
X-1500Y-7500D01*
X-1550Y-9450D02*
X-850D01*
X-8500Y-7000D02*
X-7950D01*
X-8700Y-7200D02*
X-8500Y-7000D01*
X-8700Y-8050D02*
X-8350Y-8400D01*
X-6250Y-7800D02*
X-5600D01*
X-5050Y-7550D02*
X-4250D01*
D85*
X8350Y-12600D02*
X8400Y-12650D01*
X8350Y-12600D02*
X8350Y-12600D01*
X8400Y-13700D02*
Y-12650D01*
D86*
X-2873Y-396D02*
G03*
X2873Y-396I2873J396D01*
G01*
D87*
X15000Y-4980D02*
D03*
Y-6250D02*
D03*
Y-20220D02*
D03*
Y-18950D02*
D03*
Y-17680D02*
D03*
Y-16410D02*
D03*
Y-2440D02*
D03*
Y-3710D02*
D03*
Y-15140D02*
D03*
Y-13870D02*
D03*
Y-21490D02*
D03*
Y-22760D02*
D03*
Y-24030D02*
D03*
Y-25300D02*
D03*
X15000Y-1167D02*
D03*
D88*
X-5400Y-25100D02*
D03*
X-10000Y-2500D02*
D03*
D90*
X-15000Y-17680D02*
D03*
Y-18950D02*
D03*
Y-15140D02*
D03*
Y-16410D02*
D03*
Y-11330D02*
D03*
Y-13870D02*
D03*
Y-12600D02*
D03*
Y-1170D02*
D03*
Y-2440D02*
D03*
Y-3710D02*
D03*
Y-4980D02*
D03*
Y-6250D02*
D03*
Y-7520D02*
D03*
Y-8790D02*
D03*
Y-10060D02*
D03*
D91*
X-6700Y-24400D02*
D03*
X-7400D02*
D03*
X-13100Y-25800D02*
D03*
Y-25400D02*
D03*
X1250Y-26700D02*
D03*
X2750Y-27000D02*
D03*
X2250Y-26700D02*
D03*
X1750Y-27000D02*
D03*
X-9300Y-4200D02*
D03*
X-7000Y-3850D02*
D03*
X-250Y-27000D02*
D03*
X250Y-26700D02*
D03*
X750Y-27000D02*
D03*
X-6850Y-8400D02*
D03*
X-7700Y-6400D02*
D03*
X-9350Y-20500D02*
D03*
X-7200Y-17300D02*
D03*
X11400Y-11400D02*
D03*
X-2600Y-12400D02*
D03*
X4000Y-22000D02*
D03*
X8100Y-16900D02*
D03*
X13900Y-19600D02*
D03*
X13100Y-21600D02*
D03*
X7700Y-14400D02*
D03*
X7300D02*
D03*
X-13500Y-24000D02*
D03*
Y-24400D02*
D03*
X8500Y-1600D02*
D03*
X5500Y-1100D02*
D03*
X5100D02*
D03*
X5800Y-10500D02*
D03*
X5100Y-9700D02*
D03*
X-10300Y-23900D02*
D03*
Y-24300D02*
D03*
Y-23500D02*
D03*
X-7200Y-18000D02*
D03*
X5300Y-3700D02*
D03*
X-1300Y-4600D02*
D03*
X4300Y-16700D02*
D03*
X3400D02*
D03*
X-1700Y-13600D02*
D03*
X1300Y-16500D02*
D03*
X3000Y-8200D02*
D03*
X1500Y-10800D02*
D03*
X3300Y-11400D02*
D03*
X-2900Y-5300D02*
D03*
X3300Y-2300D02*
D03*
X8800Y-1900D02*
D03*
X4300Y-19200D02*
D03*
X5000D02*
D03*
X2300Y-8400D02*
D03*
X900Y-7700D02*
D03*
X2735Y-7034D02*
D03*
X2700Y-5900D02*
D03*
X7100Y-8600D02*
D03*
X-3100Y-9500D02*
D03*
X-2200Y-5000D02*
D03*
X8800Y-2500D02*
D03*
X3300Y-20600D02*
D03*
X2000Y-17000D02*
D03*
X-1750Y-6200D02*
D03*
X-500Y-9100D02*
D03*
X-800Y-7500D02*
D03*
X3300Y-23100D02*
D03*
X2400Y-18400D02*
D03*
X-3100Y-16800D02*
D03*
X-3000Y-15500D02*
D03*
X1000Y-23100D02*
D03*
X11300Y-23500D02*
D03*
X10400D02*
D03*
X7300Y-23900D02*
D03*
X2000Y-25100D02*
D03*
Y-25500D02*
D03*
X1600D02*
D03*
Y-25100D02*
D03*
X-750Y-26700D02*
D03*
X-1250Y-27000D02*
D03*
X-1750Y-26700D02*
D03*
X-2250Y-27000D02*
D03*
X-2750Y-26700D02*
D03*
X-3250Y-27000D02*
D03*
X-3750Y-26700D02*
D03*
X-4250Y-27000D02*
D03*
X-4750Y-26700D02*
D03*
X-9050Y-26700D02*
D03*
X-9550D02*
D03*
X-9050Y-26300D02*
D03*
X-9550D02*
D03*
X7750Y-26700D02*
D03*
X8250D02*
D03*
X7750Y-26300D02*
D03*
X8250D02*
D03*
X9550D02*
D03*
X9050D02*
D03*
X9550Y-26700D02*
D03*
X9050D02*
D03*
X8000Y-23900D02*
D03*
X13400Y-22950D02*
D03*
X-8000Y-2200D02*
D03*
X900Y-10700D02*
D03*
X-1300Y-13900D02*
D03*
X13400Y-15700D02*
D03*
X12200D02*
D03*
X12600D02*
D03*
X13000D02*
D03*
X13100Y-18300D02*
D03*
Y-17500D02*
D03*
Y-17900D02*
D03*
Y-17100D02*
D03*
X-6400Y-20000D02*
D03*
X-7550Y-20450D02*
D03*
X-10500Y-20000D02*
D03*
X-10800Y-21400D02*
D03*
Y-21000D02*
D03*
Y-20600D02*
D03*
X-13600Y-21300D02*
D03*
Y-20900D02*
D03*
Y-20500D02*
D03*
X500Y-21500D02*
D03*
X0Y-21300D02*
D03*
X-8150Y-20300D02*
D03*
X-8850Y-20200D02*
D03*
X-600Y-6200D02*
D03*
X-3300Y-8700D02*
D03*
X-5500Y-16500D02*
D03*
X1400Y-19000D02*
D03*
X-2600Y-12000D02*
D03*
X-5700Y-13700D02*
D03*
X-5200Y-15700D02*
D03*
X-3500Y-11200D02*
D03*
Y-13000D02*
D03*
Y-14600D02*
D03*
X-3100Y-14100D02*
D03*
X-1900Y-17000D02*
D03*
X-1400Y-17200D02*
D03*
X-1800Y-10400D02*
D03*
X-1300Y-10400D02*
D03*
X-9400Y-8800D02*
D03*
X-8900Y-11100D02*
D03*
X-8200Y-10800D02*
D03*
X-12800Y-10700D02*
D03*
X-3500Y-4100D02*
D03*
X-7600Y-2200D02*
D03*
X-9700Y-5900D02*
D03*
X-10900Y-14950D02*
D03*
Y-13800D02*
D03*
X-7850Y-8600D02*
D03*
X-11000Y-11050D02*
D03*
X-8350Y-8400D02*
D03*
X-10800Y-11550D02*
D03*
X-10600Y-10450D02*
D03*
X-11000Y-12050D02*
D03*
X-8500Y-12400D02*
D03*
X-3750Y-20700D02*
D03*
X-4850Y-20700D02*
D03*
X-2000Y-21700D02*
D03*
X-6000D02*
D03*
X-7099Y-15953D02*
D03*
X-6500Y-9500D02*
D03*
X-6600Y-11600D02*
D03*
X-12600Y-17850D02*
D03*
X-8399Y-17301D02*
D03*
X-13000Y-16300D02*
D03*
X-12850Y-18700D02*
D03*
X-10450Y-5900D02*
D03*
X5750Y-14100D02*
D03*
X9800Y-11500D02*
D03*
X6150Y-14100D02*
D03*
X7400Y-12400D02*
D03*
X8700Y-11800D02*
D03*
X7300Y-9200D02*
D03*
X10150Y-5600D02*
D03*
X9800Y-8000D02*
D03*
X7500Y-7900D02*
D03*
X7600Y-7300D02*
D03*
Y-6100D02*
D03*
X9350Y-5600D02*
D03*
X9750D02*
D03*
X7500Y-5500D02*
D03*
X9800Y-11100D02*
D03*
X9864Y-12723D02*
D03*
X11200Y-12000D02*
D03*
X11600D02*
D03*
X12000D02*
D03*
X11400Y-10850D02*
D03*
X12000Y-8400D02*
D03*
X10200Y-2800D02*
D03*
X10500Y-8000D02*
D03*
X12400Y-6350D02*
D03*
Y-5800D02*
D03*
X11085Y-5782D02*
D03*
X12400Y-5250D02*
D03*
Y-4700D02*
D03*
X11600Y-3600D02*
D03*
X12100Y-3300D02*
D03*
X11100Y-7800D02*
D03*
X5300Y-7800D02*
D03*
Y-7200D02*
D03*
Y-6600D02*
D03*
X5600Y-6000D02*
D03*
X6500Y-4450D02*
D03*
X8000Y-8100D02*
D03*
X9200D02*
D03*
X5300Y-8400D02*
D03*
X8600Y-8100D02*
D03*
D93*
X12550Y-10900D02*
D03*
Y-13500D02*
D03*
X10650Y-10900D02*
D03*
Y-13500D02*
D03*
X11600Y-13500D02*
D03*
D94*
X5800Y-9800D02*
D03*
Y-11400D02*
D03*
D95*
X4200Y-17800D02*
D03*
Y-15800D02*
D03*
X5800Y-17800D02*
D03*
Y-15800D02*
D03*
D96*
X8400Y-15800D02*
D03*
X11000D02*
D03*
D97*
X1500Y-15600D02*
D03*
Y-18200D02*
D03*
D98*
X-4250Y-7550D02*
D03*
Y-8500D02*
D03*
Y-9450D02*
D03*
X-1550D02*
D03*
Y-7550D02*
D03*
Y-8500D02*
D03*
X-1550Y-12950D02*
D03*
Y-12000D02*
D03*
Y-11050D02*
D03*
X-4250D02*
D03*
Y-12950D02*
D03*
Y-12000D02*
D03*
Y-15500D02*
D03*
Y-16450D02*
D03*
Y-14550D02*
D03*
X-1550D02*
D03*
Y-15500D02*
D03*
Y-16450D02*
D03*
D99*
X2000Y-28500D02*
D03*
X2500D02*
D03*
X3000D02*
D03*
X3500D02*
D03*
X-9000D02*
D03*
X-8500D02*
D03*
X-8000D02*
D03*
X-7500D02*
D03*
X-5000D02*
D03*
X-4500D02*
D03*
X-4000D02*
D03*
X-3500D02*
D03*
X-3000D02*
D03*
X-2500D02*
D03*
X-2000D02*
D03*
X-1500D02*
D03*
X-1000D02*
D03*
X-500D02*
D03*
X0D02*
D03*
X500D02*
D03*
X1000D02*
D03*
X8500D02*
D03*
X4500D02*
D03*
X4000D02*
D03*
X9000D02*
D03*
X8000D02*
D03*
X1500D02*
D03*
X7500D02*
D03*
X7000D02*
D03*
D100*
X12250Y-19650D02*
D03*
X11300D02*
D03*
X10350D02*
D03*
Y-22350D02*
D03*
X12250D02*
D03*
X11300D02*
D03*
D101*
X2900Y-17550D02*
D03*
X2900Y-15850D02*
D03*
X7100D02*
D03*
X7100Y-17550D02*
D03*
X4400Y-12150D02*
D03*
Y-13850D02*
D03*
X1800Y-13850D02*
D03*
X1800Y-12150D02*
D03*
D102*
X-9825Y-14050D02*
D03*
X-9825Y-16150D02*
D03*
X-8175D02*
D03*
Y-14050D02*
D03*
D103*
X-6250Y-7800D02*
D03*
X-7950D02*
D03*
Y-7000D02*
D03*
X-6250D02*
D03*
D104*
X11450Y-4700D02*
D03*
X9750Y-6900D02*
D03*
D105*
X11450D02*
D03*
X9750Y-4700D02*
D03*
D106*
X-0Y-500D02*
D03*
D107*
X0Y0D02*
D03*
Y-1000D02*
D03*
M02*
