M48
;Layer_Color=9474304
;FILE_FORMAT=4:4
METRIC,LZ
;TYPE=PLATED
T01F00S00C0.2000
T02F00S00C0.6000
T03F00S00C1.0000
;TYPE=NON_PLATED
T04F00S00C0.9000
%
T01
X0008Y-00021
Y-00017
Y-00013
Y-00009
X0009
Y-00013
Y-00017
Y-00021
X001025Y-00009
X001125
X001175Y-00001
X001075
X000975Y-00001
X001275Y-00009
X001325Y-00006
X001375Y-00018
Y-00022
X001225
Y-00018
X001575Y-00006
X001625Y-00011
X001675Y-00006
X00175Y-00009
Y-00013
Y-00017
Y-00021
X00185
Y-00017
Y-00013
Y-00009
X00186Y00036
Y0004
X00183Y000725
X001735
X00167889Y00076174
X001925Y000725
X00247Y000751
X00251
X00248Y000435
X00244
X00247Y00037
X00251
X002265Y00038
Y00034
X00294Y00042
Y00056
X0013Y0005
Y00046
X00128Y00076
X00092Y00072
X00088
X00086Y00033
Y00029
X0006Y00058
X00056
X00052
X00025Y00073
X00021
X00017
X00013
X00009
X00008Y0008
X0002
X0004Y00088
X00045
X0005
X00055
X0006Y00088
X00063Y00114
X00066Y00111
X00073Y0012
X00068Y00129
X00067014Y00148986
X000455Y00148
X00044014Y00162986
X00026Y001795
Y00191
X00027Y002025
X00025Y002085
X00027Y002135
X00025Y002185
X00027Y002235
X00025Y002285
X00027Y002335
X00006Y00234
Y00239
Y00244
Y00249
Y00254
X-00006
Y00249
Y00244
Y00239
Y00234
Y00229
X00006
X00006Y002065
X00006Y00186
Y00166
X0001Y001505
X000155Y00149
Y00153
X00015Y00143
X00019
X00023
X00023014Y00148486
X00033Y001385
Y00114
X00052Y00122
X000865Y00122
X000975Y00122001
X00124Y00122
X00122Y00155
X00121Y0016
X00122Y00166
X00123548Y00183591
X001215Y001925
X00104Y00188
X00107Y00202
X001075Y002115
X00107Y00218
X001075Y002245
X00107Y00234
X001055Y002395
X001015Y00245
X000975Y00234
X0007Y00234
X00072Y002255
X00069Y00213
X00071999Y001935
X0007886Y00181609
X00077011Y00169471
X0009781Y0016645
X00101896Y0016645
X00103Y00161
X001045Y00148
X0015Y00142
X0015Y00134
X00155Y001595
X00147Y001705
X001585Y001825
Y001905
X00163Y00187
X00164Y00197
X0017Y00198
X001773Y00199
X001845Y00192
X0019Y00193
X001915Y00182
X002045Y00182
X002027Y00199
X002155Y00195
X00215Y00225
X00219Y00222
X00218Y00238
Y00244
Y0025
Y00256
X00221Y00262
X00241Y00261
X0024Y00267
X0025Y00276
X002585Y00266
X002625
X002665
X00275854Y0026418
X00289Y00264
Y002695
Y00275
Y002585
X00285Y00238
X00276Y00244
X0027Y00242
X00263
X00257Y00241
X00251
X00245
X0024Y00243
X00241Y00249
X00238Y0023
X00252Y00204
X00263Y00207
Y00211
X00279Y00208
X00283Y00213
X00281Y00286
X00286Y00289
X00267Y00294
X0023Y002775
X00218Y00285
X00187Y00286
X00186Y00278
X00192
X001925Y00293
X00157Y00294
X00159Y00287
X00158795Y00268892
X001585Y00248
X00162Y00241
X00152999Y002325
X00147Y002285
X00144Y00222
X001585Y002145
Y002065
X00181Y00226
X0018Y00238
X00199Y00226
X001365Y002415
X001215Y002565
X00128Y00267
X001215Y002765
X00139Y00278
X00139Y00295
X00129Y00289
X001075Y002635
X001Y00263
X00063Y00278
X00046
X00029
X00028Y00262
X00021Y002685
X00011
X00041Y00244
X000515Y00245
X000565Y00243
X000615Y00245
X000665Y00243
X0005Y00205
X00117Y00218
X001225Y0022
X00172Y00168
X00179Y00117
X001875Y00115
X001976Y00116
X00203798Y0012203
X00216198Y0012203
X002103Y00116
X002265Y00115
X00279Y00102
X00283
X00287
X00293Y00114
X00294Y0008
X00128
X00014Y001055
X000095Y001255
X000055
X000065Y00142
X-00027Y00186
X-00031
X-00035
X-00035Y0025
X-00031
X-00027
X-00093
X-00097
X-00101
Y00186
X-00097
X-00093
T02
X000111Y00288
X000238
X000365
X000492
X000619
X000746
X000873
X001
T03
X000186Y000152
X00044
X00144Y000526
X00144Y00078
X00256Y00015
X002814
X00245Y001148
X00245Y001402
Y001656
X00245Y00191
X00144Y001034
T04
X-00062Y00196
Y0024
M30
