G04*
G04 #@! TF.GenerationSoftware,Altium Limited,Altium Designer,24.9.1 (31)*
G04*
G04 Layer_Physical_Order=5*
G04 Layer_Color=16737945*
%FSLAX43Y43*%
%MOMM*%
G71*
G04*
G04 #@! TF.SameCoordinates,966C214A-C48B-4C11-AD4A-F44F92C35951*
G04*
G04*
G04 #@! TF.FilePolarity,Positive*
G04*
G01*
G75*
%ADD79C,0.350*%
%ADD80C,0.400*%
%ADD86C,0.700*%
%ADD87C,1.000*%
%AMCUSTOMSHAPE88*
4,1,6,0.000,0.500,0.000,-0.500,-0.500,-0.500,-0.600,-0.400,-0.600,0.400,-0.500,0.500,0.000,0.500,0.0*%
%ADD88CUSTOMSHAPE88*%

%ADD89C,5.500*%
%AMCUSTOMSHAPE90*
4,1,6,0.000,-0.500,0.000,0.500,0.500,0.500,0.600,0.400,0.600,-0.400,0.500,-0.500,0.000,-0.500,0.0*%
%ADD90CUSTOMSHAPE90*%

%ADD91C,0.400*%
G36*
X14913Y-30D02*
X14970Y-87D01*
X15000Y-160D01*
Y-200D01*
Y-1200D01*
X14500D01*
X14431Y-1131D01*
Y-1367D01*
X14145D01*
Y-1567D01*
X14165Y-1665D01*
X14148Y-1788D01*
X14070Y-1903D01*
X14043Y-2040D01*
Y-2840D01*
X14070Y-2977D01*
X14136Y-3075D01*
X14070Y-3173D01*
X14043Y-3310D01*
Y-4110D01*
X14070Y-4247D01*
X14136Y-4345D01*
X14070Y-4443D01*
X14043Y-4580D01*
Y-5380D01*
X14070Y-5517D01*
X14136Y-5615D01*
X14070Y-5713D01*
X14043Y-5850D01*
Y-6650D01*
X14070Y-6787D01*
X14136Y-6885D01*
X14070Y-6983D01*
X14043Y-7120D01*
Y-7920D01*
X14070Y-8057D01*
X14136Y-8155D01*
X14070Y-8253D01*
X14043Y-8390D01*
Y-9190D01*
X14070Y-9327D01*
X14136Y-9425D01*
X14070Y-9523D01*
X14043Y-9660D01*
Y-10460D01*
X14070Y-10597D01*
X14136Y-10695D01*
X14070Y-10793D01*
X14043Y-10930D01*
Y-11730D01*
X14070Y-11867D01*
X14136Y-11965D01*
X14070Y-12063D01*
X14043Y-12200D01*
Y-13000D01*
X14070Y-13137D01*
X14076Y-13146D01*
X13976Y-13294D01*
X13941Y-13470D01*
Y-14270D01*
X13976Y-14446D01*
X14016Y-14505D01*
X13976Y-14564D01*
X13941Y-14740D01*
Y-15540D01*
X13976Y-15716D01*
X14076Y-15864D01*
X14070Y-15873D01*
X14043Y-16010D01*
Y-16810D01*
X14070Y-16947D01*
X14136Y-17045D01*
X14070Y-17143D01*
X14043Y-17280D01*
Y-18080D01*
X14070Y-18217D01*
X14136Y-18315D01*
X14070Y-18413D01*
X14043Y-18550D01*
Y-19350D01*
X14070Y-19487D01*
X14136Y-19585D01*
X14070Y-19683D01*
X14043Y-19820D01*
Y-20620D01*
X14070Y-20757D01*
X14148Y-20872D01*
X14165Y-20992D01*
X14145Y-21090D01*
Y-21290D01*
X14431D01*
Y-21690D01*
X14145D01*
Y-21890D01*
X14165Y-21988D01*
X14204Y-22125D01*
X14165Y-22262D01*
X14145Y-22360D01*
Y-22560D01*
X14431D01*
Y-22960D01*
X14145D01*
Y-23160D01*
X14165Y-23258D01*
X14148Y-23378D01*
X14070Y-23493D01*
X14043Y-23630D01*
Y-24430D01*
X14070Y-24567D01*
X14136Y-24665D01*
X14070Y-24763D01*
X14043Y-24900D01*
Y-25700D01*
X14070Y-25837D01*
X14140Y-25940D01*
X14129Y-25991D01*
X14011Y-26240D01*
X10425D01*
X10400Y-26245D01*
X10375Y-26243D01*
X10277Y-26252D01*
X10206Y-26274D01*
X10132Y-26289D01*
X9952Y-26363D01*
X9787Y-26474D01*
X9649Y-26612D01*
X9538Y-26777D01*
X9464Y-26957D01*
X9449Y-27031D01*
X9427Y-27103D01*
X9418Y-27200D01*
X9420Y-27225D01*
X9415Y-27250D01*
Y-29490D01*
X6735Y-29490D01*
Y-27100D01*
X6730Y-27075D01*
X6732Y-27050D01*
X6721Y-26933D01*
X6699Y-26861D01*
X6684Y-26788D01*
X6595Y-26572D01*
X6484Y-26406D01*
X6319Y-26241D01*
X6153Y-26130D01*
X5937Y-26041D01*
X5742Y-26002D01*
X5508D01*
X5313Y-26041D01*
X5096Y-26130D01*
X4931Y-26241D01*
X4766Y-26406D01*
X4655Y-26572D01*
X4565Y-26788D01*
X4551Y-26861D01*
X4529Y-26933D01*
X4518Y-27050D01*
X4520Y-27075D01*
X4515Y-27100D01*
Y-29490D01*
X-5015Y-29490D01*
X-5015Y-27486D01*
X-4964Y-27441D01*
X-4642Y-27392D01*
X-4527Y-27480D01*
X-4394Y-27536D01*
X-4250Y-27555D01*
X-4106Y-27536D01*
X-3973Y-27480D01*
X-3858Y-27392D01*
X-3642D01*
X-3527Y-27480D01*
X-3394Y-27536D01*
X-3250Y-27555D01*
X-3106Y-27536D01*
X-2973Y-27480D01*
X-2858Y-27392D01*
X-2770Y-27277D01*
X-2760Y-27253D01*
X-2750Y-27255D01*
X-2606Y-27236D01*
X-2473Y-27180D01*
X-2239Y-27165D01*
X-2101Y-27250D01*
X-2078Y-27268D01*
X-1920Y-27333D01*
X-1802Y-27349D01*
X-1714Y-27464D01*
X-1578Y-27568D01*
X-1420Y-27633D01*
X-1250Y-27656D01*
X-1080Y-27633D01*
X-922Y-27568D01*
X-899Y-27550D01*
X-642Y-27392D01*
X-527Y-27480D01*
X-394Y-27536D01*
X-250Y-27555D01*
X-106Y-27536D01*
X27Y-27480D01*
X142Y-27392D01*
X230Y-27277D01*
X240Y-27253D01*
X250Y-27255D01*
X394Y-27236D01*
X527Y-27180D01*
X540Y-27171D01*
X858Y-27092D01*
X973Y-27180D01*
X1106Y-27236D01*
X1250Y-27255D01*
X1260Y-27253D01*
X1270Y-27277D01*
X1358Y-27392D01*
X1473Y-27480D01*
X1606Y-27536D01*
X1750Y-27555D01*
X1894Y-27536D01*
X2027Y-27480D01*
X2142Y-27392D01*
X2230Y-27277D01*
X2240Y-27253D01*
X2250Y-27255D01*
X2394Y-27236D01*
X2527Y-27180D01*
X2642Y-27092D01*
X2730Y-26977D01*
X2786Y-26844D01*
X2805Y-26700D01*
X2786Y-26556D01*
X2730Y-26423D01*
X2642Y-26308D01*
X2527Y-26220D01*
X2483Y-26201D01*
X2408Y-25947D01*
X2414Y-25864D01*
X2480Y-25777D01*
X2536Y-25644D01*
X2555Y-25500D01*
Y-25100D01*
X2536Y-24956D01*
X2480Y-24823D01*
X2392Y-24708D01*
X2277Y-24620D01*
X2144Y-24564D01*
X2000Y-24545D01*
X2000Y-24545D01*
X1600D01*
X1456Y-24564D01*
X1323Y-24620D01*
X1208Y-24708D01*
X1120Y-24823D01*
X1064Y-24956D01*
X1045Y-25100D01*
Y-25500D01*
X1064Y-25644D01*
X1120Y-25777D01*
X1177Y-25852D01*
X1144Y-26036D01*
X1082Y-26174D01*
X973Y-26220D01*
X858Y-26308D01*
X540Y-26229D01*
X527Y-26220D01*
X394Y-26164D01*
X250Y-26145D01*
X106Y-26164D01*
X-27Y-26220D01*
X-142Y-26308D01*
X-230Y-26423D01*
X-240Y-26447D01*
X-250Y-26445D01*
X-394Y-26464D01*
X-527Y-26520D01*
X-642Y-26608D01*
X-899Y-26450D01*
X-922Y-26432D01*
X-1080Y-26367D01*
X-1198Y-26351D01*
X-1286Y-26236D01*
X-1422Y-26132D01*
X-1580Y-26067D01*
X-1750Y-26044D01*
X-1920Y-26067D01*
X-2078Y-26132D01*
X-2101Y-26150D01*
X-2239Y-26235D01*
X-2473Y-26220D01*
X-2606Y-26164D01*
X-2750Y-26145D01*
X-2894Y-26164D01*
X-3027Y-26220D01*
X-3040Y-26229D01*
X-3358Y-26308D01*
X-3473Y-26220D01*
X-3606Y-26164D01*
X-3750Y-26145D01*
X-3894Y-26164D01*
X-4027Y-26220D01*
X-4142Y-26308D01*
X-4460Y-26229D01*
X-4473Y-26220D01*
X-4606Y-26164D01*
X-4750Y-26145D01*
X-4894Y-26164D01*
X-5027Y-26220D01*
X-5142Y-26308D01*
X-5431Y-26241D01*
X-5597Y-26130D01*
X-5813Y-26041D01*
X-6008Y-26002D01*
X-6242D01*
X-6437Y-26041D01*
X-6653Y-26130D01*
X-6819Y-26241D01*
X-6984Y-26406D01*
X-7095Y-26572D01*
X-7184Y-26788D01*
X-7199Y-26861D01*
X-7221Y-26933D01*
X-7232Y-27050D01*
X-7230Y-27075D01*
X-7235Y-27100D01*
Y-29490D01*
X-9415Y-29490D01*
Y-27250D01*
X-9420Y-27225D01*
X-9418Y-27200D01*
X-9427Y-27102D01*
X-9449Y-27031D01*
X-9464Y-26957D01*
X-9538Y-26777D01*
X-9649Y-26612D01*
X-9787Y-26474D01*
X-9952Y-26363D01*
X-10132Y-26289D01*
X-10206Y-26274D01*
X-10277Y-26252D01*
X-10375Y-26243D01*
X-10400Y-26245D01*
X-10425Y-26240D01*
X-14011Y-26240D01*
X-14129Y-25991D01*
X-14140Y-25940D01*
X-14070Y-25837D01*
X-14043Y-25700D01*
Y-24900D01*
X-14070Y-24763D01*
X-14148Y-24648D01*
X-14165Y-24528D01*
X-14145Y-24430D01*
Y-24230D01*
X-14431D01*
Y-23830D01*
X-14145D01*
Y-23630D01*
X-14165Y-23532D01*
X-14148Y-23412D01*
X-14070Y-23297D01*
X-14043Y-23160D01*
Y-22360D01*
X-14070Y-22223D01*
X-13952Y-21915D01*
X-13887Y-21872D01*
X-13845Y-21854D01*
X-13744Y-21836D01*
X-13600Y-21855D01*
X-13456Y-21836D01*
X-13323Y-21780D01*
X-13208Y-21692D01*
X-13120Y-21577D01*
X-13064Y-21444D01*
X-13045Y-21300D01*
Y-20500D01*
X-13064Y-20356D01*
X-13120Y-20223D01*
X-13208Y-20108D01*
X-13323Y-20020D01*
X-13456Y-19964D01*
X-13600Y-19945D01*
X-13744Y-19964D01*
X-13896Y-19886D01*
X-13991Y-19548D01*
X-13976Y-19526D01*
X-13941Y-19350D01*
Y-18550D01*
X-13976Y-18374D01*
X-14016Y-18315D01*
X-13976Y-18256D01*
X-13941Y-18080D01*
Y-17280D01*
X-13976Y-17104D01*
X-14076Y-16956D01*
X-14070Y-16947D01*
X-14043Y-16810D01*
Y-16010D01*
X-14070Y-15873D01*
X-14136Y-15775D01*
X-14070Y-15677D01*
X-14043Y-15540D01*
Y-14740D01*
X-14070Y-14603D01*
X-14136Y-14505D01*
X-14070Y-14407D01*
X-14043Y-14270D01*
Y-13470D01*
X-14070Y-13333D01*
X-14136Y-13235D01*
X-14070Y-13137D01*
X-14043Y-13000D01*
Y-12200D01*
X-14070Y-12063D01*
X-14136Y-11965D01*
X-14070Y-11867D01*
X-14043Y-11730D01*
Y-10930D01*
X-14070Y-10793D01*
X-14136Y-10695D01*
X-14070Y-10597D01*
X-14043Y-10460D01*
Y-9660D01*
X-14070Y-9523D01*
X-14136Y-9425D01*
X-14070Y-9327D01*
X-14043Y-9190D01*
Y-8390D01*
X-14070Y-8253D01*
X-14136Y-8155D01*
X-14070Y-8057D01*
X-14043Y-7920D01*
Y-7120D01*
X-14070Y-6983D01*
X-14136Y-6885D01*
X-14070Y-6787D01*
X-14043Y-6650D01*
Y-5850D01*
X-14070Y-5713D01*
X-14136Y-5615D01*
X-14070Y-5517D01*
X-14043Y-5380D01*
Y-4580D01*
X-14070Y-4443D01*
X-14136Y-4345D01*
X-14070Y-4247D01*
X-14043Y-4110D01*
Y-3310D01*
X-14070Y-3173D01*
X-14136Y-3075D01*
X-14070Y-2977D01*
X-14043Y-2840D01*
Y-2040D01*
X-14070Y-1903D01*
X-14148Y-1788D01*
X-14165Y-1668D01*
X-14145Y-1570D01*
Y-1370D01*
X-14431D01*
Y-1131D01*
X-14500Y-1200D01*
X-15000D01*
Y-241D01*
Y-193D01*
X-14963Y-104D01*
X-14896Y-37D01*
X-14807Y0D01*
X14840D01*
X14913Y-30D01*
D02*
G37*
%LPC*%
G36*
X14145Y-845D02*
Y-967D01*
X14267D01*
X14145Y-845D01*
D02*
G37*
G36*
X-14145Y-845D02*
X-14270Y-970D01*
X-14145D01*
Y-845D01*
D02*
G37*
G36*
X13600Y-500D02*
X-13600D01*
X-13647Y-502D01*
X-13685Y-510D01*
X-2963D01*
X-2862Y-930D01*
X-2681Y-1366D01*
X-2435Y-1769D01*
X-2258Y-1975D01*
X-2059Y-1776D01*
X-1776Y-2059D01*
X-1975Y-2258D01*
X-1769Y-2435D01*
X-1366Y-2681D01*
X-930Y-2862D01*
X-471Y-2972D01*
X0Y-3009D01*
X471Y-2972D01*
X930Y-2862D01*
X1366Y-2681D01*
X1769Y-2435D01*
X1975Y-2258D01*
X1776Y-2059D01*
X2059Y-1776D01*
X2258Y-1975D01*
X2435Y-1769D01*
X2681Y-1366D01*
X2862Y-930D01*
X2963Y-510D01*
X4496D01*
X4629Y-810D01*
X4620Y-823D01*
X4564Y-956D01*
X4545Y-1100D01*
X4564Y-1244D01*
X4620Y-1377D01*
X4708Y-1492D01*
X4823Y-1580D01*
X4956Y-1636D01*
X5100Y-1655D01*
X5500D01*
X5644Y-1636D01*
X5777Y-1580D01*
X5892Y-1492D01*
X5980Y-1377D01*
X6036Y-1244D01*
X6055Y-1100D01*
X6036Y-956D01*
X5980Y-823D01*
X5971Y-810D01*
X6104Y-510D01*
X13685D01*
X13647Y-502D01*
X13600Y-500D01*
D02*
G37*
G36*
X-9852Y-1000D02*
X-10148D01*
X-10438Y-1058D01*
X-10711Y-1171D01*
X-10956Y-1335D01*
X-11165Y-1544D01*
X-11329Y-1789D01*
X-11442Y-2062D01*
X-11500Y-2352D01*
Y-2648D01*
X-11442Y-2937D01*
X-11329Y-3210D01*
X-11165Y-3456D01*
X-10956Y-3665D01*
X-10711Y-3829D01*
X-10438Y-3942D01*
X-10148Y-4000D01*
X-10123D01*
X-9855Y-4200D01*
X-9836Y-4344D01*
X-9780Y-4477D01*
X-9692Y-4592D01*
X-9577Y-4680D01*
X-9444Y-4736D01*
X-9300Y-4755D01*
X-9156Y-4736D01*
X-9023Y-4680D01*
X-8908Y-4592D01*
X-8820Y-4477D01*
X-8764Y-4344D01*
X-8745Y-4200D01*
X-8764Y-4056D01*
X-8820Y-3923D01*
X-8908Y-3808D01*
X-8856Y-3477D01*
X-8835Y-3456D01*
X-8671Y-3210D01*
X-8558Y-2937D01*
X-8541Y-2856D01*
X-8432Y-2783D01*
X-8206Y-2710D01*
X-8144Y-2736D01*
X-8000Y-2755D01*
X-7600D01*
X-7456Y-2736D01*
X-7323Y-2680D01*
X-7208Y-2592D01*
X-7120Y-2477D01*
X-7064Y-2344D01*
X-7045Y-2200D01*
X-7064Y-2056D01*
X-7120Y-1923D01*
X-7208Y-1808D01*
X-7323Y-1720D01*
X-7456Y-1664D01*
X-7600Y-1645D01*
X-8000D01*
X-8144Y-1664D01*
X-8277Y-1720D01*
X-8351Y-1776D01*
X-8496Y-1782D01*
X-8711Y-1730D01*
X-8835Y-1544D01*
X-9044Y-1335D01*
X-9289Y-1171D01*
X-9562Y-1058D01*
X-9852Y-1000D01*
D02*
G37*
G36*
X8800Y-1945D02*
X8656Y-1964D01*
X8523Y-2020D01*
X8408Y-2108D01*
X8320Y-2223D01*
X8264Y-2356D01*
X8245Y-2500D01*
X8264Y-2644D01*
X8320Y-2777D01*
X8408Y-2892D01*
X8523Y-2980D01*
X8656Y-3036D01*
X8800Y-3055D01*
X8944Y-3036D01*
X9077Y-2980D01*
X9192Y-2892D01*
X9280Y-2777D01*
X9336Y-2644D01*
X9355Y-2500D01*
X9336Y-2356D01*
X9280Y-2223D01*
X9192Y-2108D01*
X9077Y-2020D01*
X8944Y-1964D01*
X8800Y-1945D01*
D02*
G37*
G36*
X10200Y-2245D02*
X10056Y-2264D01*
X9923Y-2320D01*
X9808Y-2408D01*
X9720Y-2523D01*
X9664Y-2656D01*
X9645Y-2800D01*
X9664Y-2944D01*
X9720Y-3077D01*
X9808Y-3192D01*
X9923Y-3280D01*
X10056Y-3336D01*
X10200Y-3355D01*
X10344Y-3336D01*
X10477Y-3280D01*
X10592Y-3192D01*
X10680Y-3077D01*
X10736Y-2944D01*
X10755Y-2800D01*
X10736Y-2656D01*
X10680Y-2523D01*
X10592Y-2408D01*
X10477Y-2320D01*
X10344Y-2264D01*
X10200Y-2245D01*
D02*
G37*
G36*
X12100Y-2745D02*
X11956Y-2764D01*
X11823Y-2820D01*
X11708Y-2908D01*
X11620Y-3023D01*
X11564Y-3156D01*
X11545Y-3300D01*
X11564Y-3444D01*
X11620Y-3577D01*
X11708Y-3692D01*
X11823Y-3780D01*
X11956Y-3836D01*
X12100Y-3855D01*
X12244Y-3836D01*
X12377Y-3780D01*
X12492Y-3692D01*
X12580Y-3577D01*
X12636Y-3444D01*
X12655Y-3300D01*
X12636Y-3156D01*
X12580Y-3023D01*
X12492Y-2908D01*
X12377Y-2820D01*
X12244Y-2764D01*
X12100Y-2745D01*
D02*
G37*
G36*
X5300Y-3145D02*
X5156Y-3164D01*
X5023Y-3220D01*
X4908Y-3308D01*
X4820Y-3423D01*
X4764Y-3556D01*
X4745Y-3700D01*
X4764Y-3844D01*
X4820Y-3977D01*
X4908Y-4092D01*
X5023Y-4180D01*
X5156Y-4236D01*
X5300Y-4255D01*
X5444Y-4236D01*
X5577Y-4180D01*
X5692Y-4092D01*
X5780Y-3977D01*
X5836Y-3844D01*
X5855Y-3700D01*
X5836Y-3556D01*
X5780Y-3423D01*
X5692Y-3308D01*
X5577Y-3220D01*
X5444Y-3164D01*
X5300Y-3145D01*
D02*
G37*
G36*
X-7000Y-3295D02*
X-7144Y-3314D01*
X-7277Y-3370D01*
X-7392Y-3458D01*
X-7480Y-3573D01*
X-7536Y-3706D01*
X-7555Y-3850D01*
X-7536Y-3994D01*
X-7480Y-4127D01*
X-7392Y-4242D01*
X-7277Y-4330D01*
X-7144Y-4386D01*
X-7000Y-4405D01*
X-6856Y-4386D01*
X-6723Y-4330D01*
X-6608Y-4242D01*
X-6520Y-4127D01*
X-6464Y-3994D01*
X-6445Y-3850D01*
X-6464Y-3706D01*
X-6520Y-3573D01*
X-6608Y-3458D01*
X-6723Y-3370D01*
X-6856Y-3314D01*
X-7000Y-3295D01*
D02*
G37*
G36*
X-1300Y-4045D02*
X-1444Y-4064D01*
X-1577Y-4120D01*
X-1692Y-4208D01*
X-1780Y-4323D01*
X-2056Y-4464D01*
X-2200Y-4445D01*
X-2344Y-4464D01*
X-2477Y-4520D01*
X-2592Y-4608D01*
X-2680Y-4723D01*
X-2685Y-4735D01*
X-2756Y-4764D01*
X-2900Y-4745D01*
X-3044Y-4764D01*
X-3177Y-4820D01*
X-3292Y-4908D01*
X-3380Y-5023D01*
X-3436Y-5156D01*
X-3455Y-5300D01*
X-3436Y-5444D01*
X-3380Y-5577D01*
X-3292Y-5692D01*
X-3177Y-5780D01*
X-3044Y-5836D01*
X-2900Y-5855D01*
X-2756Y-5836D01*
X-2623Y-5780D01*
X-2537Y-5715D01*
X-2452Y-5695D01*
X-2434Y-5696D01*
X-2339Y-5802D01*
X-2306Y-5861D01*
X-2278Y-6037D01*
X-2286Y-6056D01*
X-2305Y-6200D01*
X-2286Y-6344D01*
X-2230Y-6477D01*
X-2142Y-6592D01*
X-2027Y-6680D01*
X-1894Y-6736D01*
X-1750Y-6755D01*
X-1606Y-6736D01*
X-1473Y-6680D01*
X-1358Y-6592D01*
X-1270Y-6477D01*
X-1214Y-6344D01*
X-1195Y-6200D01*
X-1214Y-6056D01*
X-1270Y-5923D01*
X-1358Y-5808D01*
X-1473Y-5720D01*
X-1606Y-5664D01*
X-1660Y-5657D01*
X-1751Y-5493D01*
X-1769Y-5438D01*
X-1774Y-5381D01*
X-1574Y-5140D01*
X-1444Y-5136D01*
X-1300Y-5155D01*
X-1156Y-5136D01*
X-1023Y-5080D01*
X-908Y-4992D01*
X-820Y-4877D01*
X-764Y-4744D01*
X-745Y-4600D01*
X-764Y-4456D01*
X-820Y-4323D01*
X-908Y-4208D01*
X-1023Y-4120D01*
X-1156Y-4064D01*
X-1300Y-4045D01*
D02*
G37*
G36*
X6500Y-3895D02*
X6356Y-3914D01*
X6223Y-3970D01*
X6108Y-4058D01*
X6020Y-4173D01*
X5964Y-4306D01*
X5945Y-4450D01*
X5964Y-4594D01*
X6020Y-4727D01*
X6108Y-4842D01*
X6223Y-4930D01*
X6356Y-4986D01*
X6500Y-5005D01*
X6644Y-4986D01*
X6777Y-4930D01*
X6892Y-4842D01*
X6980Y-4727D01*
X7036Y-4594D01*
X7055Y-4450D01*
X7036Y-4306D01*
X6980Y-4173D01*
X6892Y-4058D01*
X6777Y-3970D01*
X6644Y-3914D01*
X6500Y-3895D01*
D02*
G37*
G36*
X12400Y-4145D02*
X12256Y-4164D01*
X12123Y-4220D01*
X12008Y-4308D01*
X11920Y-4423D01*
X11864Y-4556D01*
X11845Y-4700D01*
X11864Y-4844D01*
X11919Y-4975D01*
X11864Y-5106D01*
X11845Y-5250D01*
X11848Y-5270D01*
X11806Y-5329D01*
X11601Y-5367D01*
X11425Y-5349D01*
X11363Y-5302D01*
X11229Y-5246D01*
X11085Y-5227D01*
X10942Y-5246D01*
X10808Y-5302D01*
X10693Y-5390D01*
X10605Y-5505D01*
X10550Y-5638D01*
X10531Y-5782D01*
X10550Y-5926D01*
X10605Y-6059D01*
X10693Y-6174D01*
X10808Y-6262D01*
X10942Y-6318D01*
X11085Y-6337D01*
X11229Y-6318D01*
X11363Y-6262D01*
X11432Y-6210D01*
X11609Y-6203D01*
X11801Y-6246D01*
X11849Y-6324D01*
X11845Y-6350D01*
X11864Y-6494D01*
X11920Y-6627D01*
X12008Y-6742D01*
X12123Y-6830D01*
X12256Y-6886D01*
X12400Y-6905D01*
X12544Y-6886D01*
X12677Y-6830D01*
X12792Y-6742D01*
X12880Y-6627D01*
X12936Y-6494D01*
X12955Y-6350D01*
X12936Y-6206D01*
X12881Y-6075D01*
X12936Y-5944D01*
X12955Y-5800D01*
X12936Y-5656D01*
X12881Y-5525D01*
X12936Y-5394D01*
X12955Y-5250D01*
X12936Y-5106D01*
X12881Y-4975D01*
X12936Y-4844D01*
X12955Y-4700D01*
X12936Y-4556D01*
X12880Y-4423D01*
X12792Y-4308D01*
X12677Y-4220D01*
X12544Y-4164D01*
X12400Y-4145D01*
D02*
G37*
G36*
X-10450Y-5345D02*
X-10594Y-5364D01*
X-10727Y-5420D01*
X-10842Y-5508D01*
X-10930Y-5623D01*
X-10986Y-5756D01*
X-11005Y-5900D01*
X-10986Y-6044D01*
X-10930Y-6177D01*
X-10842Y-6292D01*
X-10727Y-6380D01*
X-10594Y-6436D01*
X-10450Y-6455D01*
X-10306Y-6436D01*
X-10173Y-6380D01*
X-10058Y-6292D01*
X-9970Y-6177D01*
X-9914Y-6044D01*
X-9895Y-5900D01*
X-9914Y-5756D01*
X-9970Y-5623D01*
X-10058Y-5508D01*
X-10173Y-5420D01*
X-10306Y-5364D01*
X-10450Y-5345D01*
D02*
G37*
G36*
X-7700Y-5845D02*
X-7844Y-5864D01*
X-7977Y-5920D01*
X-8092Y-6008D01*
X-8180Y-6123D01*
X-8236Y-6256D01*
X-8255Y-6400D01*
X-8236Y-6544D01*
X-8180Y-6677D01*
X-8092Y-6792D01*
X-7977Y-6880D01*
X-7844Y-6936D01*
X-7700Y-6955D01*
X-7556Y-6936D01*
X-7423Y-6880D01*
X-7308Y-6792D01*
X-7220Y-6677D01*
X-7164Y-6544D01*
X-7145Y-6400D01*
X-7164Y-6256D01*
X-7220Y-6123D01*
X-7308Y-6008D01*
X-7423Y-5920D01*
X-7556Y-5864D01*
X-7700Y-5845D01*
D02*
G37*
G36*
X-800Y-6844D02*
X-970Y-6867D01*
X-1128Y-6932D01*
X-1264Y-7036D01*
X-1368Y-7172D01*
X-1433Y-7330D01*
X-1456Y-7500D01*
X-1433Y-7670D01*
X-1368Y-7828D01*
X-1264Y-7964D01*
X-1128Y-8068D01*
X-970Y-8133D01*
X-800Y-8156D01*
X-630Y-8133D01*
X-472Y-8068D01*
X-336Y-7964D01*
X-232Y-7828D01*
X-167Y-7670D01*
X-144Y-7500D01*
X-167Y-7330D01*
X-232Y-7172D01*
X-336Y-7036D01*
X-472Y-6932D01*
X-630Y-6867D01*
X-800Y-6844D01*
D02*
G37*
G36*
X900Y-7145D02*
X756Y-7164D01*
X623Y-7220D01*
X508Y-7308D01*
X420Y-7423D01*
X364Y-7556D01*
X345Y-7700D01*
X364Y-7844D01*
X420Y-7977D01*
X508Y-8092D01*
X623Y-8180D01*
X756Y-8236D01*
X900Y-8255D01*
X1044Y-8236D01*
X1177Y-8180D01*
X1292Y-8092D01*
X1380Y-7977D01*
X1436Y-7844D01*
X1455Y-7700D01*
X1436Y-7556D01*
X1380Y-7423D01*
X1292Y-7308D01*
X1177Y-7220D01*
X1044Y-7164D01*
X900Y-7145D01*
D02*
G37*
G36*
X-8350Y-7744D02*
X-8520Y-7767D01*
X-8678Y-7832D01*
X-8814Y-7936D01*
X-8918Y-8072D01*
X-8926Y-8092D01*
X-9051Y-8237D01*
X-9290Y-8260D01*
X-9400Y-8245D01*
X-9544Y-8264D01*
X-9677Y-8320D01*
X-9792Y-8408D01*
X-9880Y-8523D01*
X-9936Y-8656D01*
X-9955Y-8800D01*
X-9936Y-8944D01*
X-9880Y-9077D01*
X-9792Y-9192D01*
X-9677Y-9280D01*
X-9544Y-9336D01*
X-9400Y-9355D01*
X-9256Y-9336D01*
X-9123Y-9280D01*
X-9008Y-9192D01*
X-8960Y-9130D01*
X-8838Y-9060D01*
X-8589Y-9006D01*
X-8581Y-9008D01*
X-8520Y-9033D01*
X-8350Y-9056D01*
X-8322Y-9052D01*
X-8314Y-9064D01*
X-8178Y-9168D01*
X-8020Y-9233D01*
X-7850Y-9256D01*
X-7680Y-9233D01*
X-7522Y-9168D01*
X-7386Y-9064D01*
X-7385Y-9061D01*
X-7353Y-9039D01*
X-7221Y-9081D01*
X-7036Y-9356D01*
X-7055Y-9500D01*
X-7036Y-9644D01*
X-6980Y-9777D01*
X-6892Y-9892D01*
X-6777Y-9980D01*
X-6644Y-10036D01*
X-6500Y-10055D01*
X-6356Y-10036D01*
X-6223Y-9980D01*
X-6108Y-9892D01*
X-6020Y-9777D01*
X-5964Y-9644D01*
X-5945Y-9500D01*
X-5964Y-9356D01*
X-6020Y-9223D01*
X-6108Y-9108D01*
X-6223Y-9020D01*
X-6260Y-9004D01*
X-6268Y-8995D01*
X-6368Y-8713D01*
X-6369Y-8689D01*
X-6363Y-8661D01*
X-6314Y-8544D01*
X-6295Y-8400D01*
X-6314Y-8256D01*
X-6370Y-8123D01*
X-6458Y-8008D01*
X-6573Y-7920D01*
X-6706Y-7864D01*
X-6850Y-7845D01*
X-6994Y-7864D01*
X-7127Y-7920D01*
X-7242Y-8008D01*
X-7357Y-8110D01*
X-7522Y-8032D01*
X-7680Y-7967D01*
X-7850Y-7944D01*
X-7878Y-7948D01*
X-7886Y-7936D01*
X-8022Y-7832D01*
X-8180Y-7767D01*
X-8350Y-7744D01*
D02*
G37*
G36*
X7500Y-4945D02*
X7356Y-4964D01*
X7223Y-5020D01*
X7108Y-5108D01*
X7020Y-5223D01*
X6964Y-5356D01*
X6945Y-5500D01*
X6964Y-5644D01*
X7020Y-5777D01*
X7097Y-5878D01*
X7064Y-5956D01*
X7045Y-6100D01*
X7064Y-6244D01*
X7120Y-6377D01*
X7208Y-6492D01*
X7250Y-6525D01*
X7276Y-6632D01*
Y-6768D01*
X7250Y-6875D01*
X7208Y-6908D01*
X7120Y-7023D01*
X7064Y-7156D01*
X7045Y-7300D01*
X7064Y-7444D01*
X7097Y-7522D01*
X7020Y-7623D01*
X6964Y-7756D01*
X6945Y-7900D01*
X6955Y-8048D01*
X6823Y-8120D01*
X6708Y-8208D01*
X6620Y-8323D01*
X6564Y-8456D01*
X6545Y-8600D01*
X6564Y-8744D01*
X6620Y-8877D01*
X6708Y-8992D01*
X6771Y-9041D01*
X6764Y-9056D01*
X6745Y-9200D01*
X6764Y-9344D01*
X6820Y-9477D01*
X6908Y-9592D01*
X7023Y-9680D01*
X7156Y-9736D01*
X7300Y-9755D01*
X7444Y-9736D01*
X7577Y-9680D01*
X7692Y-9592D01*
X7780Y-9477D01*
X7836Y-9344D01*
X7855Y-9200D01*
X7836Y-9056D01*
X7780Y-8923D01*
X7773Y-8913D01*
X7783Y-8879D01*
X7948Y-8648D01*
X8000Y-8655D01*
X8144Y-8636D01*
X8277Y-8580D01*
X8300Y-8563D01*
X8323Y-8580D01*
X8456Y-8636D01*
X8600Y-8655D01*
X8744Y-8636D01*
X8877Y-8580D01*
X8900Y-8563D01*
X8923Y-8580D01*
X9056Y-8636D01*
X9200Y-8655D01*
X9344Y-8636D01*
X9477Y-8580D01*
X9578Y-8503D01*
X9656Y-8536D01*
X9800Y-8555D01*
X9944Y-8536D01*
X10077Y-8480D01*
X10150Y-8425D01*
X10223Y-8480D01*
X10356Y-8536D01*
X10500Y-8555D01*
X10644Y-8536D01*
X10777Y-8480D01*
X10892Y-8392D01*
X10980Y-8277D01*
X11036Y-8144D01*
X11055Y-8000D01*
X11036Y-7856D01*
X10980Y-7723D01*
X10892Y-7608D01*
X10777Y-7520D01*
X10644Y-7464D01*
X10500Y-7445D01*
X10356Y-7464D01*
X10223Y-7520D01*
X10150Y-7575D01*
X10077Y-7520D01*
X9944Y-7464D01*
X9800Y-7445D01*
X9656Y-7464D01*
X9523Y-7520D01*
X9422Y-7597D01*
X9344Y-7564D01*
X9200Y-7545D01*
X9056Y-7564D01*
X8923Y-7620D01*
X8900Y-7637D01*
X8877Y-7620D01*
X8744Y-7564D01*
X8600Y-7545D01*
X8456Y-7564D01*
X8401Y-7587D01*
X8253Y-7507D01*
X8212Y-7472D01*
X8151Y-7390D01*
X8155Y-7300D01*
X8136Y-7156D01*
X8080Y-7023D01*
X7992Y-6908D01*
X7950Y-6875D01*
X7924Y-6768D01*
Y-6632D01*
X7950Y-6525D01*
X7992Y-6492D01*
X8080Y-6377D01*
X8136Y-6244D01*
X8155Y-6100D01*
X8136Y-5956D01*
X8080Y-5823D01*
X8003Y-5722D01*
X8036Y-5644D01*
X8055Y-5500D01*
X8036Y-5356D01*
X7980Y-5223D01*
X7892Y-5108D01*
X7777Y-5020D01*
X7644Y-4964D01*
X7500Y-4945D01*
D02*
G37*
G36*
X2700Y-5345D02*
X2556Y-5364D01*
X2423Y-5420D01*
X2308Y-5508D01*
X2220Y-5623D01*
X2164Y-5756D01*
X2145Y-5900D01*
X2164Y-6044D01*
X2220Y-6177D01*
X2308Y-6292D01*
X2319Y-6301D01*
X2322Y-6307D01*
X2342Y-6618D01*
X2325Y-6665D01*
X2255Y-6757D01*
X2199Y-6891D01*
X2181Y-7034D01*
X2199Y-7178D01*
X2255Y-7312D01*
X2343Y-7426D01*
X2410Y-7478D01*
X2387Y-7718D01*
X2359Y-7798D01*
X2320Y-7829D01*
X2272Y-7849D01*
X2156Y-7864D01*
X2023Y-7920D01*
X1908Y-8008D01*
X1820Y-8123D01*
X1764Y-8256D01*
X1745Y-8400D01*
X1764Y-8544D01*
X1820Y-8677D01*
X1908Y-8792D01*
X2023Y-8880D01*
X2156Y-8936D01*
X2300Y-8955D01*
X2444Y-8936D01*
X2577Y-8880D01*
X2692Y-8792D01*
X2765Y-8698D01*
X2856Y-8736D01*
X3000Y-8755D01*
X3144Y-8736D01*
X3277Y-8680D01*
X3392Y-8592D01*
X3480Y-8477D01*
X3536Y-8344D01*
X3555Y-8200D01*
X3536Y-8056D01*
X3480Y-7923D01*
X3392Y-7808D01*
X3277Y-7720D01*
X3252Y-7709D01*
X3195Y-7580D01*
X3167Y-7435D01*
X3174Y-7366D01*
X3216Y-7312D01*
X3271Y-7178D01*
X3290Y-7034D01*
X3271Y-6891D01*
X3216Y-6757D01*
X3128Y-6642D01*
X3116Y-6633D01*
X3113Y-6627D01*
X3094Y-6316D01*
X3110Y-6269D01*
X3180Y-6177D01*
X3236Y-6044D01*
X3255Y-5900D01*
X3236Y-5756D01*
X3180Y-5623D01*
X3092Y-5508D01*
X2977Y-5420D01*
X2844Y-5364D01*
X2700Y-5345D01*
D02*
G37*
G36*
X12000Y-7845D02*
X11856Y-7864D01*
X11723Y-7920D01*
X11608Y-8008D01*
X11520Y-8123D01*
X11464Y-8256D01*
X11445Y-8400D01*
X11464Y-8544D01*
X11520Y-8677D01*
X11608Y-8792D01*
X11723Y-8880D01*
X11856Y-8936D01*
X12000Y-8955D01*
X12144Y-8936D01*
X12277Y-8880D01*
X12392Y-8792D01*
X12480Y-8677D01*
X12536Y-8544D01*
X12555Y-8400D01*
X12536Y-8256D01*
X12480Y-8123D01*
X12392Y-8008D01*
X12277Y-7920D01*
X12144Y-7864D01*
X12000Y-7845D01*
D02*
G37*
G36*
X5600Y-5445D02*
X5456Y-5464D01*
X5323Y-5520D01*
X5208Y-5608D01*
X5120Y-5723D01*
X5064Y-5856D01*
X5045Y-6000D01*
X5059Y-6104D01*
X5023Y-6120D01*
X4908Y-6208D01*
X4820Y-6323D01*
X4764Y-6456D01*
X4745Y-6600D01*
X4764Y-6744D01*
X4820Y-6877D01*
X4837Y-6900D01*
X4820Y-6923D01*
X4764Y-7056D01*
X4745Y-7200D01*
X4764Y-7344D01*
X4820Y-7477D01*
X4837Y-7500D01*
X4820Y-7523D01*
X4764Y-7656D01*
X4745Y-7800D01*
X4764Y-7944D01*
X4820Y-8077D01*
X4837Y-8100D01*
X4820Y-8123D01*
X4764Y-8256D01*
X4745Y-8400D01*
X4764Y-8544D01*
X4820Y-8677D01*
X4908Y-8792D01*
X5023Y-8880D01*
X5156Y-8936D01*
X5300Y-8955D01*
X5444Y-8936D01*
X5577Y-8880D01*
X5692Y-8792D01*
X5780Y-8677D01*
X5836Y-8544D01*
X5855Y-8400D01*
X5836Y-8256D01*
X5780Y-8123D01*
X5763Y-8100D01*
X5780Y-8077D01*
X5836Y-7944D01*
X5855Y-7800D01*
X5836Y-7656D01*
X5780Y-7523D01*
X5763Y-7500D01*
X5780Y-7477D01*
X5836Y-7344D01*
X5855Y-7200D01*
X5836Y-7056D01*
X5780Y-6923D01*
X5763Y-6900D01*
X5780Y-6877D01*
X5836Y-6744D01*
X5855Y-6600D01*
X5841Y-6495D01*
X5877Y-6480D01*
X5992Y-6392D01*
X6080Y-6277D01*
X6136Y-6144D01*
X6155Y-6000D01*
X6136Y-5856D01*
X6080Y-5723D01*
X5992Y-5608D01*
X5877Y-5520D01*
X5744Y-5464D01*
X5600Y-5445D01*
D02*
G37*
G36*
X-500Y-8444D02*
X-670Y-8467D01*
X-828Y-8532D01*
X-964Y-8636D01*
X-1068Y-8772D01*
X-1133Y-8930D01*
X-1156Y-9100D01*
X-1133Y-9270D01*
X-1068Y-9428D01*
X-964Y-9564D01*
X-828Y-9668D01*
X-670Y-9733D01*
X-500Y-9756D01*
X-330Y-9733D01*
X-172Y-9668D01*
X-36Y-9564D01*
X68Y-9428D01*
X133Y-9270D01*
X156Y-9100D01*
X133Y-8930D01*
X68Y-8772D01*
X-36Y-8636D01*
X-172Y-8532D01*
X-330Y-8467D01*
X-500Y-8444D01*
D02*
G37*
G36*
X-1300Y-9845D02*
X-1444Y-9864D01*
X-1550Y-9908D01*
X-1656Y-9864D01*
X-1800Y-9845D01*
X-1944Y-9864D01*
X-2077Y-9920D01*
X-2192Y-10008D01*
X-2280Y-10123D01*
X-2336Y-10256D01*
X-2355Y-10400D01*
X-2336Y-10544D01*
X-2280Y-10677D01*
X-2192Y-10792D01*
X-2077Y-10880D01*
X-1944Y-10936D01*
X-1800Y-10955D01*
X-1656Y-10936D01*
X-1550Y-10892D01*
X-1444Y-10936D01*
X-1300Y-10955D01*
X-1156Y-10936D01*
X-1023Y-10880D01*
X-908Y-10792D01*
X-820Y-10677D01*
X-764Y-10544D01*
X-745Y-10400D01*
X-764Y-10256D01*
X-820Y-10123D01*
X-908Y-10008D01*
X-1023Y-9920D01*
X-1156Y-9864D01*
X-1300Y-9845D01*
D02*
G37*
G36*
X-3100Y-8945D02*
X-3244Y-8964D01*
X-3377Y-9020D01*
X-3492Y-9108D01*
X-3580Y-9223D01*
X-3636Y-9356D01*
X-3655Y-9500D01*
X-3636Y-9644D01*
X-3580Y-9777D01*
X-3492Y-9892D01*
X-3377Y-9980D01*
X-3244Y-10036D01*
X-3100Y-10055D01*
X-2956Y-10036D01*
X-2823Y-9980D01*
X-2708Y-9892D01*
X-2620Y-9777D01*
X-2564Y-9644D01*
X-2545Y-9500D01*
X-2564Y-9356D01*
X-2620Y-9223D01*
X-2708Y-9108D01*
X-2823Y-9020D01*
X-2956Y-8964D01*
X-3100Y-8945D01*
D02*
G37*
G36*
X-8200Y-10245D02*
X-8344Y-10264D01*
X-8477Y-10320D01*
X-8592Y-10408D01*
X-8680Y-10523D01*
X-8706Y-10585D01*
X-8756Y-10564D01*
X-8900Y-10545D01*
X-9044Y-10564D01*
X-9177Y-10620D01*
X-9292Y-10708D01*
X-9380Y-10823D01*
X-9436Y-10956D01*
X-9455Y-11100D01*
X-9436Y-11244D01*
X-9380Y-11377D01*
X-9292Y-11492D01*
X-9177Y-11580D01*
X-9105Y-11611D01*
X-8859Y-11743D01*
Y-11743D01*
Y-11743D01*
X-8815Y-11839D01*
X-8811Y-11946D01*
X-8892Y-12008D01*
X-8980Y-12123D01*
X-9036Y-12256D01*
X-9055Y-12400D01*
X-9036Y-12544D01*
X-8980Y-12677D01*
X-8892Y-12792D01*
X-8777Y-12880D01*
X-8644Y-12936D01*
X-8500Y-12955D01*
X-8356Y-12936D01*
X-8223Y-12880D01*
X-8108Y-12792D01*
X-8020Y-12677D01*
X-7964Y-12544D01*
X-7945Y-12400D01*
X-7964Y-12256D01*
X-8020Y-12123D01*
X-8108Y-12008D01*
X-8223Y-11920D01*
X-8295Y-11889D01*
X-8541Y-11757D01*
Y-11757D01*
Y-11757D01*
X-8585Y-11661D01*
X-8589Y-11554D01*
X-8508Y-11492D01*
X-8420Y-11377D01*
X-8394Y-11315D01*
X-8344Y-11336D01*
X-8200Y-11355D01*
X-8056Y-11336D01*
X-7923Y-11280D01*
X-7808Y-11192D01*
X-7720Y-11077D01*
X-7664Y-10944D01*
X-7645Y-10800D01*
X-7664Y-10656D01*
X-7720Y-10523D01*
X-7808Y-10408D01*
X-7923Y-10320D01*
X-8056Y-10264D01*
X-8200Y-10245D01*
D02*
G37*
G36*
X5800Y-9945D02*
X5656Y-9964D01*
X5523Y-10020D01*
X5408Y-10108D01*
X5320Y-10223D01*
X5264Y-10356D01*
X5245Y-10500D01*
X5264Y-10644D01*
X5320Y-10777D01*
X5408Y-10892D01*
X5523Y-10980D01*
X5656Y-11036D01*
X5800Y-11055D01*
X5944Y-11036D01*
X6077Y-10980D01*
X6192Y-10892D01*
X6280Y-10777D01*
X6336Y-10644D01*
X6355Y-10500D01*
X6336Y-10356D01*
X6280Y-10223D01*
X6192Y-10108D01*
X6077Y-10020D01*
X5944Y-9964D01*
X5800Y-9945D01*
D02*
G37*
G36*
X900Y-10145D02*
X756Y-10164D01*
X623Y-10220D01*
X508Y-10308D01*
X420Y-10423D01*
X364Y-10556D01*
X345Y-10700D01*
X364Y-10844D01*
X420Y-10977D01*
X508Y-11092D01*
X623Y-11180D01*
X756Y-11236D01*
X900Y-11255D01*
X1044Y-11236D01*
X1177Y-11180D01*
X1292Y-11092D01*
X1380Y-10977D01*
X1436Y-10844D01*
X1455Y-10700D01*
X1436Y-10556D01*
X1380Y-10423D01*
X1292Y-10308D01*
X1177Y-10220D01*
X1044Y-10164D01*
X900Y-10145D01*
D02*
G37*
G36*
X-12800D02*
X-12944Y-10164D01*
X-13077Y-10220D01*
X-13192Y-10308D01*
X-13280Y-10423D01*
X-13336Y-10556D01*
X-13355Y-10700D01*
X-13336Y-10844D01*
X-13280Y-10977D01*
X-13192Y-11092D01*
X-13077Y-11180D01*
X-12944Y-11236D01*
X-12800Y-11255D01*
X-12656Y-11236D01*
X-12523Y-11180D01*
X-12408Y-11092D01*
X-12320Y-10977D01*
X-12264Y-10844D01*
X-12245Y-10700D01*
X-12264Y-10556D01*
X-12320Y-10423D01*
X-12408Y-10308D01*
X-12523Y-10220D01*
X-12656Y-10164D01*
X-12800Y-10145D01*
D02*
G37*
G36*
X9800Y-10545D02*
X9656Y-10564D01*
X9523Y-10620D01*
X9408Y-10708D01*
X9320Y-10823D01*
X9264Y-10956D01*
X9245Y-11100D01*
Y-11147D01*
X9069Y-11261D01*
X8945Y-11306D01*
X8844Y-11264D01*
X8700Y-11245D01*
X8556Y-11264D01*
X8423Y-11320D01*
X8308Y-11408D01*
X8220Y-11523D01*
X8164Y-11656D01*
X8145Y-11800D01*
X8164Y-11944D01*
X8220Y-12077D01*
X8308Y-12192D01*
X8423Y-12280D01*
X8556Y-12336D01*
X8700Y-12355D01*
X8844Y-12336D01*
X8977Y-12280D01*
X9092Y-12192D01*
X9180Y-12077D01*
X9204Y-12058D01*
X9498Y-11977D01*
X9522Y-11980D01*
X9532Y-11984D01*
X9656Y-12036D01*
X9800Y-12055D01*
X9944Y-12036D01*
X10077Y-11980D01*
X10192Y-11892D01*
X10280Y-11777D01*
X10336Y-11644D01*
X10355Y-11500D01*
Y-11100D01*
X10336Y-10956D01*
X10280Y-10823D01*
X10192Y-10708D01*
X10077Y-10620D01*
X9944Y-10564D01*
X9800Y-10545D01*
D02*
G37*
G36*
X-3500Y-10645D02*
X-3644Y-10664D01*
X-3777Y-10720D01*
X-3892Y-10808D01*
X-3980Y-10923D01*
X-4036Y-11056D01*
X-4055Y-11200D01*
X-4036Y-11344D01*
X-3980Y-11477D01*
X-3892Y-11592D01*
X-3777Y-11680D01*
X-3644Y-11736D01*
X-3500Y-11755D01*
X-3356Y-11736D01*
X-3223Y-11680D01*
X-3108Y-11592D01*
X-3020Y-11477D01*
X-2964Y-11344D01*
X-2945Y-11200D01*
X-2964Y-11056D01*
X-3020Y-10923D01*
X-3108Y-10808D01*
X-3223Y-10720D01*
X-3356Y-10664D01*
X-3500Y-10645D01*
D02*
G37*
G36*
X11400Y-10295D02*
X11256Y-10314D01*
X11123Y-10370D01*
X11008Y-10458D01*
X10920Y-10573D01*
X10864Y-10706D01*
X10845Y-10850D01*
X10864Y-10994D01*
X10919Y-11125D01*
X10864Y-11256D01*
X10845Y-11400D01*
X10864Y-11544D01*
X10920Y-11677D01*
X11008Y-11792D01*
X11123Y-11880D01*
X11256Y-11936D01*
X11400Y-11955D01*
X11544Y-11936D01*
X11677Y-11880D01*
X11792Y-11792D01*
X11880Y-11677D01*
X11936Y-11544D01*
X11955Y-11400D01*
X11936Y-11256D01*
X11881Y-11125D01*
X11936Y-10994D01*
X11955Y-10850D01*
X11936Y-10706D01*
X11880Y-10573D01*
X11792Y-10458D01*
X11677Y-10370D01*
X11544Y-10314D01*
X11400Y-10295D01*
D02*
G37*
G36*
X-6600Y-11045D02*
X-6744Y-11064D01*
X-6877Y-11120D01*
X-6992Y-11208D01*
X-7080Y-11323D01*
X-7136Y-11456D01*
X-7155Y-11600D01*
X-7136Y-11744D01*
X-7080Y-11877D01*
X-6992Y-11992D01*
X-6877Y-12080D01*
X-6744Y-12136D01*
X-6600Y-12155D01*
X-6456Y-12136D01*
X-6323Y-12080D01*
X-6208Y-11992D01*
X-6120Y-11877D01*
X-6064Y-11744D01*
X-6045Y-11600D01*
X-6064Y-11456D01*
X-6120Y-11323D01*
X-6208Y-11208D01*
X-6323Y-11120D01*
X-6456Y-11064D01*
X-6600Y-11045D01*
D02*
G37*
G36*
X-10600Y-9895D02*
X-10744Y-9914D01*
X-10877Y-9970D01*
X-10992Y-10058D01*
X-11080Y-10173D01*
X-11136Y-10306D01*
X-11155Y-10450D01*
X-11146Y-10515D01*
X-11277Y-10570D01*
X-11392Y-10658D01*
X-11480Y-10773D01*
X-11536Y-10906D01*
X-11555Y-11050D01*
X-11536Y-11194D01*
X-11480Y-11327D01*
X-11392Y-11442D01*
X-11453Y-11736D01*
X-11480Y-11773D01*
X-11536Y-11906D01*
X-11555Y-12050D01*
X-11536Y-12194D01*
X-11480Y-12327D01*
X-11392Y-12442D01*
X-11277Y-12530D01*
X-11144Y-12586D01*
X-11000Y-12605D01*
X-10856Y-12586D01*
X-10723Y-12530D01*
X-10608Y-12442D01*
X-10520Y-12327D01*
X-10464Y-12194D01*
X-10445Y-12050D01*
X-10455Y-11978D01*
X-10408Y-11942D01*
X-10320Y-11827D01*
X-10264Y-11694D01*
X-10245Y-11550D01*
X-10264Y-11406D01*
X-10320Y-11273D01*
X-10330Y-11258D01*
X-10324Y-10998D01*
X-10267Y-10888D01*
X-10208Y-10842D01*
X-10120Y-10727D01*
X-10064Y-10594D01*
X-10045Y-10450D01*
X-10064Y-10306D01*
X-10120Y-10173D01*
X-10208Y-10058D01*
X-10323Y-9970D01*
X-10456Y-9914D01*
X-10600Y-9895D01*
D02*
G37*
G36*
X-10900Y-13245D02*
X-11044Y-13264D01*
X-11177Y-13320D01*
X-11292Y-13408D01*
X-11380Y-13523D01*
X-11436Y-13656D01*
X-11455Y-13800D01*
X-11436Y-13944D01*
X-11380Y-14077D01*
X-11292Y-14192D01*
X-11177Y-14280D01*
X-11044Y-14336D01*
X-10900Y-14355D01*
X-10756Y-14336D01*
X-10623Y-14280D01*
X-10508Y-14192D01*
X-10420Y-14077D01*
X-10364Y-13944D01*
X-10345Y-13800D01*
X-10364Y-13656D01*
X-10420Y-13523D01*
X-10508Y-13408D01*
X-10623Y-13320D01*
X-10756Y-13264D01*
X-10900Y-13245D01*
D02*
G37*
G36*
X-1700Y-13045D02*
X-1844Y-13064D01*
X-1977Y-13120D01*
X-2092Y-13208D01*
X-2180Y-13323D01*
X-2236Y-13456D01*
X-2255Y-13600D01*
X-2236Y-13744D01*
X-2180Y-13877D01*
X-2092Y-13992D01*
X-1977Y-14080D01*
X-1844Y-14136D01*
X-1795Y-14142D01*
X-1780Y-14177D01*
X-1692Y-14292D01*
X-1577Y-14380D01*
X-1444Y-14436D01*
X-1300Y-14455D01*
X-1156Y-14436D01*
X-1023Y-14380D01*
X-908Y-14292D01*
X-820Y-14177D01*
X-764Y-14044D01*
X-745Y-13900D01*
X-764Y-13756D01*
X-820Y-13623D01*
X-908Y-13508D01*
X-1023Y-13420D01*
X-1156Y-13364D01*
X-1205Y-13358D01*
X-1220Y-13323D01*
X-1308Y-13208D01*
X-1423Y-13120D01*
X-1556Y-13064D01*
X-1700Y-13045D01*
D02*
G37*
G36*
X6150Y-13545D02*
X5750D01*
X5606Y-13564D01*
X5473Y-13620D01*
X5358Y-13708D01*
X5270Y-13823D01*
X5214Y-13956D01*
X5195Y-14100D01*
X5214Y-14244D01*
X5270Y-14377D01*
X5358Y-14492D01*
X5473Y-14580D01*
X5606Y-14636D01*
X5750Y-14655D01*
X6150D01*
X6294Y-14636D01*
X6427Y-14580D01*
X6542Y-14492D01*
X6630Y-14377D01*
X6686Y-14244D01*
X6705Y-14100D01*
X6686Y-13956D01*
X6630Y-13823D01*
X6542Y-13708D01*
X6427Y-13620D01*
X6294Y-13564D01*
X6150Y-13545D01*
D02*
G37*
G36*
X-7200Y-16745D02*
X-7344Y-16764D01*
X-7477Y-16820D01*
X-7592Y-16908D01*
X-7624Y-16950D01*
X-7727Y-16976D01*
X-7870Y-16976D01*
X-7975Y-16950D01*
X-8006Y-16909D01*
X-8121Y-16821D01*
X-8255Y-16766D01*
X-8399Y-16747D01*
X-8542Y-16766D01*
X-8676Y-16821D01*
X-8791Y-16909D01*
X-8879Y-17024D01*
X-8934Y-17158D01*
X-8953Y-17301D01*
X-8934Y-17445D01*
X-8879Y-17579D01*
X-8791Y-17694D01*
X-8676Y-17782D01*
X-8542Y-17837D01*
X-8399Y-17856D01*
X-8255Y-17837D01*
X-8121Y-17782D01*
X-8006Y-17694D01*
X-7978Y-17656D01*
X-7716Y-17808D01*
X-7736Y-17856D01*
X-7755Y-18000D01*
X-7736Y-18144D01*
X-7680Y-18277D01*
X-7592Y-18392D01*
X-7477Y-18480D01*
X-7344Y-18536D01*
X-7200Y-18555D01*
X-7056Y-18536D01*
X-6923Y-18480D01*
X-6808Y-18392D01*
X-6720Y-18277D01*
X-6664Y-18144D01*
X-6645Y-18000D01*
X-6664Y-17856D01*
X-6720Y-17723D01*
X-6775Y-17650D01*
X-6720Y-17577D01*
X-6664Y-17444D01*
X-6645Y-17300D01*
X-6664Y-17156D01*
X-6720Y-17023D01*
X-6808Y-16908D01*
X-6923Y-16820D01*
X-7056Y-16764D01*
X-7200Y-16745D01*
D02*
G37*
G36*
X1300Y-15945D02*
X1156Y-15964D01*
X1023Y-16020D01*
X908Y-16108D01*
X820Y-16223D01*
X764Y-16356D01*
X745Y-16500D01*
X764Y-16644D01*
X820Y-16777D01*
X908Y-16892D01*
X1023Y-16980D01*
X1156Y-17036D01*
X1300Y-17055D01*
X1444Y-17036D01*
X1577Y-16980D01*
X1692Y-16892D01*
X1780Y-16777D01*
X1836Y-16644D01*
X1855Y-16500D01*
X1836Y-16356D01*
X1780Y-16223D01*
X1692Y-16108D01*
X1577Y-16020D01*
X1444Y-15964D01*
X1300Y-15945D01*
D02*
G37*
G36*
X-5200Y-15145D02*
X-5344Y-15164D01*
X-5477Y-15220D01*
X-5592Y-15308D01*
X-5680Y-15423D01*
X-5736Y-15556D01*
X-5755Y-15700D01*
X-5736Y-15844D01*
X-5777Y-16020D01*
X-5892Y-16108D01*
X-5980Y-16223D01*
X-6036Y-16356D01*
X-6055Y-16500D01*
X-6036Y-16644D01*
X-5980Y-16777D01*
X-5892Y-16892D01*
X-5777Y-16980D01*
X-5644Y-17036D01*
X-5500Y-17055D01*
X-5356Y-17036D01*
X-5223Y-16980D01*
X-5108Y-16892D01*
X-5020Y-16777D01*
X-4964Y-16644D01*
X-4945Y-16500D01*
X-4964Y-16356D01*
X-4923Y-16180D01*
X-4808Y-16092D01*
X-4720Y-15977D01*
X-4664Y-15844D01*
X-4645Y-15700D01*
X-4664Y-15556D01*
X-4720Y-15423D01*
X-4808Y-15308D01*
X-4923Y-15220D01*
X-5056Y-15164D01*
X-5200Y-15145D01*
D02*
G37*
G36*
X4300Y-16145D02*
X4156Y-16164D01*
X4023Y-16220D01*
X3908Y-16308D01*
X3820Y-16423D01*
X3764Y-16556D01*
X3745Y-16700D01*
X3764Y-16844D01*
X3820Y-16977D01*
X3908Y-17092D01*
X4023Y-17180D01*
X4156Y-17236D01*
X4300Y-17255D01*
X4444Y-17236D01*
X4577Y-17180D01*
X4692Y-17092D01*
X4780Y-16977D01*
X4836Y-16844D01*
X4855Y-16700D01*
X4836Y-16556D01*
X4780Y-16423D01*
X4692Y-16308D01*
X4577Y-16220D01*
X4444Y-16164D01*
X4300Y-16145D01*
D02*
G37*
G36*
X8100Y-16345D02*
X7956Y-16364D01*
X7823Y-16420D01*
X7708Y-16508D01*
X7620Y-16623D01*
X7564Y-16756D01*
X7545Y-16900D01*
X7564Y-17044D01*
X7620Y-17177D01*
X7708Y-17292D01*
X7823Y-17380D01*
X7956Y-17436D01*
X8100Y-17455D01*
X8244Y-17436D01*
X8377Y-17380D01*
X8492Y-17292D01*
X8580Y-17177D01*
X8636Y-17044D01*
X8655Y-16900D01*
X8636Y-16756D01*
X8580Y-16623D01*
X8492Y-16508D01*
X8377Y-16420D01*
X8244Y-16364D01*
X8100Y-16345D01*
D02*
G37*
G36*
X-3500Y-12445D02*
X-3644Y-12464D01*
X-3777Y-12520D01*
X-3892Y-12608D01*
X-3980Y-12723D01*
X-4036Y-12856D01*
X-4055Y-13000D01*
X-4036Y-13144D01*
X-3980Y-13277D01*
X-3892Y-13392D01*
X-3777Y-13480D01*
X-3705Y-13510D01*
X-3592Y-13769D01*
X-3587Y-13795D01*
X-3590Y-13846D01*
X-3636Y-13956D01*
X-3650Y-14067D01*
X-3777Y-14120D01*
X-3892Y-14208D01*
X-3980Y-14323D01*
X-4036Y-14456D01*
X-4055Y-14600D01*
X-4036Y-14744D01*
X-3980Y-14877D01*
X-3892Y-14992D01*
X-3777Y-15080D01*
X-3734Y-15098D01*
X-3639Y-15145D01*
X-3536Y-15356D01*
X-3555Y-15500D01*
X-3536Y-15644D01*
X-3480Y-15777D01*
X-3392Y-15892D01*
X-3290Y-15971D01*
X-3274Y-16068D01*
X-3310Y-16292D01*
X-3377Y-16320D01*
X-3492Y-16408D01*
X-3580Y-16523D01*
X-3636Y-16656D01*
X-3655Y-16800D01*
X-3636Y-16944D01*
X-3580Y-17077D01*
X-3492Y-17192D01*
X-3377Y-17280D01*
X-3244Y-17336D01*
X-3100Y-17355D01*
X-2956Y-17336D01*
X-2823Y-17280D01*
X-2722Y-17203D01*
X-2690Y-17196D01*
X-2385Y-17265D01*
X-2380Y-17277D01*
X-2292Y-17392D01*
X-2177Y-17480D01*
X-2044Y-17536D01*
X-1900Y-17555D01*
X-1828Y-17545D01*
X-1792Y-17592D01*
X-1677Y-17680D01*
X-1544Y-17736D01*
X-1400Y-17755D01*
X-1256Y-17736D01*
X-1123Y-17680D01*
X-1008Y-17592D01*
X-920Y-17477D01*
X-864Y-17344D01*
X-845Y-17200D01*
X-864Y-17056D01*
X-920Y-16923D01*
X-1008Y-16808D01*
X-1123Y-16720D01*
X-1256Y-16664D01*
X-1400Y-16645D01*
X-1472Y-16655D01*
X-1508Y-16608D01*
X-1623Y-16520D01*
X-1756Y-16464D01*
X-1900Y-16445D01*
X-2044Y-16464D01*
X-2177Y-16520D01*
X-2278Y-16597D01*
X-2310Y-16604D01*
X-2615Y-16535D01*
X-2620Y-16523D01*
X-2708Y-16408D01*
X-2810Y-16329D01*
X-2826Y-16232D01*
X-2790Y-16008D01*
X-2723Y-15980D01*
X-2608Y-15892D01*
X-2520Y-15777D01*
X-2464Y-15644D01*
X-2445Y-15500D01*
X-2464Y-15356D01*
X-2520Y-15223D01*
X-2608Y-15108D01*
X-2723Y-15020D01*
X-2756Y-15006D01*
X-2833Y-14909D01*
X-2826Y-14702D01*
X-2801Y-14564D01*
X-2708Y-14492D01*
X-2620Y-14377D01*
X-2564Y-14244D01*
X-2545Y-14100D01*
X-2564Y-13956D01*
X-2620Y-13823D01*
X-2708Y-13708D01*
X-2823Y-13620D01*
X-2895Y-13590D01*
X-3008Y-13331D01*
X-3013Y-13305D01*
X-3010Y-13255D01*
X-2964Y-13144D01*
X-2945Y-13000D01*
X-2964Y-12856D01*
X-3020Y-12723D01*
X-3108Y-12608D01*
X-3223Y-12520D01*
X-3356Y-12464D01*
X-3500Y-12445D01*
D02*
G37*
G36*
X-12600Y-17295D02*
X-12744Y-17314D01*
X-12877Y-17370D01*
X-12992Y-17458D01*
X-13080Y-17573D01*
X-13136Y-17706D01*
X-13155Y-17850D01*
X-13136Y-17994D01*
X-13080Y-18127D01*
X-12992Y-18242D01*
X-12877Y-18330D01*
X-12744Y-18386D01*
X-12600Y-18405D01*
X-12456Y-18386D01*
X-12323Y-18330D01*
X-12208Y-18242D01*
X-12120Y-18127D01*
X-12064Y-17994D01*
X-12045Y-17850D01*
X-12064Y-17706D01*
X-12120Y-17573D01*
X-12208Y-17458D01*
X-12323Y-17370D01*
X-12456Y-17314D01*
X-12600Y-17295D01*
D02*
G37*
G36*
X2400Y-17845D02*
X2256Y-17864D01*
X2123Y-17920D01*
X2008Y-18008D01*
X1920Y-18123D01*
X1864Y-18256D01*
X1861Y-18282D01*
X1826Y-18327D01*
X1626Y-18450D01*
X1552Y-18467D01*
X1544Y-18464D01*
X1400Y-18445D01*
X1256Y-18464D01*
X1123Y-18520D01*
X1008Y-18608D01*
X920Y-18723D01*
X864Y-18856D01*
X845Y-19000D01*
X864Y-19144D01*
X920Y-19277D01*
X1008Y-19392D01*
X1123Y-19480D01*
X1256Y-19536D01*
X1400Y-19555D01*
X1544Y-19536D01*
X1677Y-19480D01*
X1792Y-19392D01*
X1880Y-19277D01*
X1936Y-19144D01*
X1939Y-19118D01*
X1974Y-19073D01*
X2174Y-18950D01*
X2248Y-18933D01*
X2256Y-18936D01*
X2400Y-18955D01*
X2544Y-18936D01*
X2677Y-18880D01*
X2792Y-18792D01*
X2880Y-18677D01*
X2936Y-18544D01*
X2955Y-18400D01*
X2936Y-18256D01*
X2880Y-18123D01*
X2792Y-18008D01*
X2677Y-17920D01*
X2544Y-17864D01*
X2400Y-17845D01*
D02*
G37*
G36*
X5000Y-18544D02*
X4830Y-18567D01*
X4672Y-18632D01*
X4650Y-18649D01*
X4628Y-18632D01*
X4470Y-18567D01*
X4300Y-18544D01*
X4130Y-18567D01*
X3972Y-18632D01*
X3836Y-18736D01*
X3732Y-18872D01*
X3667Y-19030D01*
X3644Y-19200D01*
X3667Y-19370D01*
X3732Y-19528D01*
X3836Y-19664D01*
X3972Y-19768D01*
X4130Y-19833D01*
X4300Y-19856D01*
X4470Y-19833D01*
X4628Y-19768D01*
X4650Y-19751D01*
X4672Y-19768D01*
X4830Y-19833D01*
X5000Y-19856D01*
X5170Y-19833D01*
X5328Y-19768D01*
X5464Y-19664D01*
X5568Y-19528D01*
X5633Y-19370D01*
X5656Y-19200D01*
X5633Y-19030D01*
X5568Y-18872D01*
X5464Y-18736D01*
X5328Y-18632D01*
X5170Y-18567D01*
X5000Y-18544D01*
D02*
G37*
G36*
X13100Y-16545D02*
X12956Y-16564D01*
X12823Y-16620D01*
X12708Y-16708D01*
X12620Y-16823D01*
X12564Y-16956D01*
X12545Y-17100D01*
Y-18300D01*
X12564Y-18444D01*
X12620Y-18577D01*
X12708Y-18692D01*
X12823Y-18780D01*
X12956Y-18836D01*
X13100Y-18855D01*
X13244Y-18836D01*
X13377Y-18780D01*
X13492Y-18692D01*
X13580Y-18577D01*
X13636Y-18444D01*
X13655Y-18300D01*
Y-17100D01*
X13636Y-16956D01*
X13580Y-16823D01*
X13492Y-16708D01*
X13377Y-16620D01*
X13244Y-16564D01*
X13100Y-16545D01*
D02*
G37*
G36*
X-6400Y-19445D02*
X-6544Y-19464D01*
X-6677Y-19520D01*
X-6792Y-19608D01*
X-6880Y-19723D01*
X-6936Y-19856D01*
X-6937Y-19865D01*
X-6968Y-19892D01*
X-7244Y-19992D01*
X-7273Y-19970D01*
X-7406Y-19914D01*
X-7550Y-19895D01*
X-7694Y-19914D01*
X-7739Y-19933D01*
X-7758Y-19908D01*
X-7873Y-19820D01*
X-8006Y-19764D01*
X-8150Y-19745D01*
X-8294Y-19764D01*
X-8427Y-19820D01*
X-8441Y-19830D01*
X-8458Y-19808D01*
X-8573Y-19720D01*
X-8706Y-19664D01*
X-8850Y-19645D01*
X-8994Y-19664D01*
X-9127Y-19720D01*
X-9242Y-19808D01*
X-9330Y-19923D01*
X-9340Y-19947D01*
X-9350Y-19945D01*
X-9494Y-19964D01*
X-9627Y-20020D01*
X-9649Y-20036D01*
X-9735Y-20025D01*
X-9934Y-19933D01*
X-9957Y-19912D01*
X-9964Y-19856D01*
X-10020Y-19723D01*
X-10108Y-19608D01*
X-10223Y-19520D01*
X-10356Y-19464D01*
X-10500Y-19445D01*
X-10644Y-19464D01*
X-10777Y-19520D01*
X-10892Y-19608D01*
X-10980Y-19723D01*
X-11036Y-19856D01*
X-11055Y-20000D01*
X-11036Y-20144D01*
X-10980Y-20277D01*
X-10892Y-20392D01*
X-10777Y-20480D01*
X-10644Y-20536D01*
X-10500Y-20555D01*
X-10356Y-20536D01*
X-10223Y-20480D01*
X-10201Y-20464D01*
X-10115Y-20475D01*
X-9916Y-20567D01*
X-9893Y-20588D01*
X-9886Y-20644D01*
X-9830Y-20777D01*
X-9742Y-20892D01*
X-9627Y-20980D01*
X-9494Y-21036D01*
X-9350Y-21055D01*
X-9206Y-21036D01*
X-9073Y-20980D01*
X-8958Y-20892D01*
X-8870Y-20777D01*
X-8860Y-20753D01*
X-8850Y-20755D01*
X-8706Y-20736D01*
X-8573Y-20680D01*
X-8559Y-20670D01*
X-8542Y-20692D01*
X-8427Y-20780D01*
X-8294Y-20836D01*
X-8150Y-20855D01*
X-8006Y-20836D01*
X-7961Y-20817D01*
X-7942Y-20842D01*
X-7827Y-20930D01*
X-7694Y-20986D01*
X-7550Y-21005D01*
X-7406Y-20986D01*
X-7273Y-20930D01*
X-7158Y-20842D01*
X-7070Y-20727D01*
X-7014Y-20594D01*
X-7013Y-20585D01*
X-6982Y-20558D01*
X-6706Y-20458D01*
X-6677Y-20480D01*
X-6544Y-20536D01*
X-6400Y-20555D01*
X-6256Y-20536D01*
X-6123Y-20480D01*
X-6008Y-20392D01*
X-5920Y-20277D01*
X-5864Y-20144D01*
X-5845Y-20000D01*
X-5864Y-19856D01*
X-5920Y-19723D01*
X-6008Y-19608D01*
X-6123Y-19520D01*
X-6256Y-19464D01*
X-6400Y-19445D01*
D02*
G37*
G36*
X3300Y-20045D02*
X3156Y-20064D01*
X3023Y-20120D01*
X2908Y-20208D01*
X2820Y-20323D01*
X2764Y-20456D01*
X2745Y-20600D01*
X2764Y-20744D01*
X2820Y-20877D01*
X2908Y-20992D01*
X3023Y-21080D01*
X3156Y-21136D01*
X3300Y-21155D01*
X3444Y-21136D01*
X3577Y-21080D01*
X3692Y-20992D01*
X3780Y-20877D01*
X3836Y-20744D01*
X3855Y-20600D01*
X3836Y-20456D01*
X3780Y-20323D01*
X3692Y-20208D01*
X3577Y-20120D01*
X3444Y-20064D01*
X3300Y-20045D01*
D02*
G37*
G36*
X-3750Y-20145D02*
X-3894Y-20164D01*
X-4027Y-20220D01*
X-4142Y-20308D01*
X-4230Y-20423D01*
X-4286Y-20556D01*
X-4305Y-20700D01*
X-4286Y-20844D01*
X-4230Y-20977D01*
X-4142Y-21092D01*
X-4027Y-21180D01*
X-3894Y-21236D01*
X-3750Y-21255D01*
X-3606Y-21236D01*
X-3473Y-21180D01*
X-3358Y-21092D01*
X-3270Y-20977D01*
X-3214Y-20844D01*
X-3195Y-20700D01*
X-3214Y-20556D01*
X-3270Y-20423D01*
X-3358Y-20308D01*
X-3473Y-20220D01*
X-3606Y-20164D01*
X-3750Y-20145D01*
D02*
G37*
G36*
X13100Y-21045D02*
X12956Y-21064D01*
X12823Y-21120D01*
X12708Y-21208D01*
X12620Y-21323D01*
X12564Y-21456D01*
X12545Y-21600D01*
X12564Y-21744D01*
X12620Y-21877D01*
X12708Y-21992D01*
X12823Y-22080D01*
X12956Y-22136D01*
X13100Y-22155D01*
X13244Y-22136D01*
X13377Y-22080D01*
X13492Y-21992D01*
X13580Y-21877D01*
X13636Y-21744D01*
X13655Y-21600D01*
X13636Y-21456D01*
X13580Y-21323D01*
X13492Y-21208D01*
X13377Y-21120D01*
X13244Y-21064D01*
X13100Y-21045D01*
D02*
G37*
G36*
X0Y-20644D02*
X-170Y-20667D01*
X-328Y-20732D01*
X-464Y-20836D01*
X-568Y-20972D01*
X-633Y-21130D01*
X-656Y-21300D01*
X-633Y-21470D01*
X-568Y-21628D01*
X-464Y-21764D01*
X-328Y-21868D01*
X-170Y-21933D01*
X0Y-21956D01*
X28Y-21952D01*
X36Y-21964D01*
X172Y-22068D01*
X330Y-22133D01*
X500Y-22156D01*
X670Y-22133D01*
X828Y-22068D01*
X964Y-21964D01*
X1068Y-21828D01*
X1133Y-21670D01*
X1156Y-21500D01*
X1133Y-21330D01*
X1068Y-21172D01*
X964Y-21036D01*
X828Y-20932D01*
X670Y-20867D01*
X500Y-20844D01*
X472Y-20848D01*
X464Y-20836D01*
X328Y-20732D01*
X170Y-20667D01*
X0Y-20644D01*
D02*
G37*
G36*
X-2000Y-21145D02*
X-2144Y-21164D01*
X-2277Y-21220D01*
X-2392Y-21308D01*
X-2480Y-21423D01*
X-2536Y-21556D01*
X-2555Y-21700D01*
X-2536Y-21844D01*
X-2480Y-21977D01*
X-2392Y-22092D01*
X-2277Y-22180D01*
X-2144Y-22236D01*
X-2000Y-22255D01*
X-1856Y-22236D01*
X-1723Y-22180D01*
X-1608Y-22092D01*
X-1520Y-21977D01*
X-1464Y-21844D01*
X-1445Y-21700D01*
X-1464Y-21556D01*
X-1520Y-21423D01*
X-1608Y-21308D01*
X-1723Y-21220D01*
X-1856Y-21164D01*
X-2000Y-21145D01*
D02*
G37*
G36*
X-6000D02*
X-6144Y-21164D01*
X-6277Y-21220D01*
X-6392Y-21308D01*
X-6480Y-21423D01*
X-6536Y-21556D01*
X-6555Y-21700D01*
X-6536Y-21844D01*
X-6480Y-21977D01*
X-6392Y-22092D01*
X-6277Y-22180D01*
X-6144Y-22236D01*
X-6000Y-22255D01*
X-5856Y-22236D01*
X-5723Y-22180D01*
X-5608Y-22092D01*
X-5520Y-21977D01*
X-5464Y-21844D01*
X-5445Y-21700D01*
X-5464Y-21556D01*
X-5520Y-21423D01*
X-5608Y-21308D01*
X-5723Y-21220D01*
X-5856Y-21164D01*
X-6000Y-21145D01*
D02*
G37*
G36*
X11300Y-22945D02*
X11156Y-22964D01*
X11023Y-23020D01*
X10850Y-23086D01*
X10677Y-23020D01*
X10544Y-22964D01*
X10400Y-22945D01*
X10256Y-22964D01*
X10123Y-23020D01*
X10008Y-23108D01*
X9920Y-23223D01*
X9864Y-23356D01*
X9845Y-23500D01*
X9864Y-23644D01*
X9920Y-23777D01*
X10008Y-23892D01*
X10123Y-23980D01*
X10256Y-24036D01*
X10400Y-24055D01*
X10544Y-24036D01*
X10677Y-23980D01*
X10850Y-23914D01*
X11023Y-23980D01*
X11156Y-24036D01*
X11300Y-24055D01*
X11444Y-24036D01*
X11577Y-23980D01*
X11692Y-23892D01*
X11780Y-23777D01*
X11836Y-23644D01*
X11855Y-23500D01*
X11836Y-23356D01*
X11780Y-23223D01*
X11692Y-23108D01*
X11577Y-23020D01*
X11444Y-22964D01*
X11300Y-22945D01*
D02*
G37*
G36*
X1000Y-22545D02*
X856Y-22564D01*
X723Y-22620D01*
X608Y-22708D01*
X520Y-22823D01*
X464Y-22956D01*
X445Y-23100D01*
X464Y-23244D01*
X520Y-23377D01*
X608Y-23492D01*
X723Y-23580D01*
X856Y-23636D01*
X1000Y-23655D01*
X1144Y-23636D01*
X1277Y-23580D01*
X1392Y-23492D01*
X1480Y-23377D01*
X1536Y-23244D01*
X1555Y-23100D01*
X1536Y-22956D01*
X1480Y-22823D01*
X1392Y-22708D01*
X1277Y-22620D01*
X1144Y-22564D01*
X1000Y-22545D01*
D02*
G37*
G36*
X3300Y-22545D02*
X3156Y-22564D01*
X3023Y-22620D01*
X2908Y-22708D01*
X2820Y-22823D01*
X2764Y-22956D01*
X2745Y-23100D01*
X2764Y-23244D01*
X2820Y-23377D01*
X2908Y-23492D01*
X3023Y-23580D01*
X3156Y-23636D01*
X3300Y-23655D01*
X3444Y-23636D01*
X3577Y-23580D01*
X3692Y-23492D01*
X3780Y-23377D01*
X3836Y-23244D01*
X3855Y-23100D01*
X3836Y-22956D01*
X3780Y-22823D01*
X3692Y-22708D01*
X3577Y-22620D01*
X3444Y-22564D01*
X3300Y-22545D01*
D02*
G37*
G36*
X8000Y-23345D02*
X7856Y-23364D01*
X7723Y-23420D01*
X7608Y-23508D01*
X7520Y-23623D01*
X7464Y-23756D01*
X7445Y-23900D01*
X7464Y-24044D01*
X7520Y-24177D01*
X7608Y-24292D01*
X7723Y-24380D01*
X7856Y-24436D01*
X8000Y-24455D01*
X8144Y-24436D01*
X8277Y-24380D01*
X8392Y-24292D01*
X8480Y-24177D01*
X8536Y-24044D01*
X8555Y-23900D01*
X8536Y-23756D01*
X8480Y-23623D01*
X8392Y-23508D01*
X8277Y-23420D01*
X8144Y-23364D01*
X8000Y-23345D01*
D02*
G37*
G36*
X-10300Y-22945D02*
X-10444Y-22964D01*
X-10577Y-23020D01*
X-10692Y-23108D01*
X-10780Y-23223D01*
X-10836Y-23356D01*
X-10855Y-23500D01*
Y-24300D01*
X-10836Y-24444D01*
X-10780Y-24577D01*
X-10692Y-24692D01*
X-10577Y-24780D01*
X-10444Y-24836D01*
X-10300Y-24855D01*
X-10156Y-24836D01*
X-10023Y-24780D01*
X-9908Y-24692D01*
X-9820Y-24577D01*
X-9764Y-24444D01*
X-9745Y-24300D01*
Y-23500D01*
X-9764Y-23356D01*
X-9820Y-23223D01*
X-9908Y-23108D01*
X-10023Y-23020D01*
X-10156Y-22964D01*
X-10300Y-22945D01*
D02*
G37*
G36*
X8250Y-25745D02*
X7750D01*
X7606Y-25764D01*
X7473Y-25820D01*
X7358Y-25908D01*
X7270Y-26023D01*
X7214Y-26156D01*
X7195Y-26300D01*
Y-26700D01*
X7214Y-26844D01*
X7270Y-26977D01*
X7358Y-27092D01*
X7473Y-27180D01*
X7606Y-27236D01*
X7750Y-27255D01*
X8250D01*
X8394Y-27236D01*
X8527Y-27180D01*
X8642Y-27092D01*
X8730Y-26977D01*
X8786Y-26844D01*
X8805Y-26700D01*
Y-26300D01*
X8786Y-26156D01*
X8730Y-26023D01*
X8642Y-25908D01*
X8527Y-25820D01*
X8394Y-25764D01*
X8250Y-25745D01*
D02*
G37*
%LPD*%
D79*
X2750Y-27450D02*
Y-27000D01*
X750Y-27450D02*
Y-27000D01*
X-750Y-26700D02*
Y-26250D01*
X-2250Y-27850D02*
Y-27000D01*
D80*
X-9550Y-26300D02*
X-9050D01*
X-9550Y-26700D02*
X-9050D01*
X13100Y-18300D02*
Y-17100D01*
X-10300Y-23900D02*
Y-23500D01*
Y-24300D02*
Y-23900D01*
X-2600Y-12400D02*
Y-12000D01*
X7300Y-14400D02*
X7700D01*
X8500Y-1600D02*
X8800Y-1900D01*
X11200Y-12000D02*
X12000D01*
X-13600Y-21300D02*
Y-20500D01*
X12600Y-15700D02*
X13400D01*
X12200D02*
X12600D01*
X1600Y-25100D02*
X2000D01*
X1600Y-25300D02*
Y-25100D01*
Y-25500D02*
Y-25300D01*
Y-25500D02*
X2000D01*
Y-25100D01*
X-9050Y-26700D02*
Y-26300D01*
X-9550Y-26700D02*
Y-26300D01*
X7750D02*
X8250D01*
X9050Y-26700D02*
X9550D01*
X7750D02*
X8250D01*
Y-26300D01*
X7750Y-26700D02*
Y-26300D01*
X9550Y-26700D02*
Y-26300D01*
X9050D02*
X9550D01*
X9050Y-26700D02*
Y-26300D01*
X5100Y-1100D02*
X5500D01*
X-10800Y-21400D02*
Y-20600D01*
X-8000Y-2200D02*
X-7600D01*
X5750Y-14100D02*
X6150D01*
X9800Y-11500D02*
Y-11400D01*
Y-11100D01*
X9350Y-5600D02*
X9800D01*
X10150D01*
D86*
X-2873Y-396D02*
G03*
X2873Y-396I2873J396D01*
G01*
D87*
X-10000Y-2500D02*
D03*
D88*
X15000Y-20220D02*
D03*
Y-18950D02*
D03*
Y-17680D02*
D03*
Y-16410D02*
D03*
Y-2440D02*
D03*
Y-3710D02*
D03*
Y-15140D02*
D03*
Y-13870D02*
D03*
Y-21490D02*
D03*
Y-22760D02*
D03*
Y-24030D02*
D03*
Y-25300D02*
D03*
X15000Y-1167D02*
D03*
X15000Y-4980D02*
D03*
X15000Y-6250D02*
D03*
Y-7520D02*
D03*
Y-8790D02*
D03*
Y-10060D02*
D03*
Y-11330D02*
D03*
Y-12600D02*
D03*
D89*
X0Y0D02*
D03*
D90*
X-15000Y-21490D02*
D03*
Y-22760D02*
D03*
Y-20210D02*
D03*
Y-17680D02*
D03*
Y-18950D02*
D03*
Y-24030D02*
D03*
Y-25300D02*
D03*
Y-15140D02*
D03*
Y-16410D02*
D03*
Y-11330D02*
D03*
Y-13870D02*
D03*
Y-12600D02*
D03*
Y-1170D02*
D03*
Y-2440D02*
D03*
Y-3710D02*
D03*
Y-4980D02*
D03*
Y-6250D02*
D03*
Y-7520D02*
D03*
Y-8790D02*
D03*
Y-10060D02*
D03*
D91*
X1250Y-26700D02*
D03*
X2750Y-27000D02*
D03*
X2250Y-26700D02*
D03*
X1750Y-27000D02*
D03*
X-9300Y-4200D02*
D03*
X-7000Y-3850D02*
D03*
X-250Y-27000D02*
D03*
X250Y-26700D02*
D03*
X750Y-27000D02*
D03*
X-6850Y-8400D02*
D03*
X-7700Y-6400D02*
D03*
X-9350Y-20500D02*
D03*
X-7200Y-17300D02*
D03*
X11400Y-11400D02*
D03*
X-2600Y-12400D02*
D03*
X4000Y-22000D02*
D03*
X8100Y-16900D02*
D03*
X13900Y-19600D02*
D03*
X13100Y-21600D02*
D03*
X7700Y-14400D02*
D03*
X7300D02*
D03*
X-13500Y-24000D02*
D03*
Y-24400D02*
D03*
X8500Y-1600D02*
D03*
X5500Y-1100D02*
D03*
X5100D02*
D03*
X5800Y-10500D02*
D03*
X5100Y-9700D02*
D03*
X-10300Y-23900D02*
D03*
Y-24300D02*
D03*
Y-23500D02*
D03*
X-7200Y-18000D02*
D03*
X5300Y-3700D02*
D03*
X-1300Y-4600D02*
D03*
X4300Y-16700D02*
D03*
X3400D02*
D03*
X-1700Y-13600D02*
D03*
X1300Y-16500D02*
D03*
X3000Y-8200D02*
D03*
X1500Y-10800D02*
D03*
X3300Y-11400D02*
D03*
X-2900Y-5300D02*
D03*
X3300Y-2300D02*
D03*
X8800Y-1900D02*
D03*
X4300Y-19200D02*
D03*
X5000D02*
D03*
X2300Y-8400D02*
D03*
X900Y-7700D02*
D03*
X2735Y-7034D02*
D03*
X2700Y-5900D02*
D03*
X7100Y-8600D02*
D03*
X-3100Y-9500D02*
D03*
X-2200Y-5000D02*
D03*
X8800Y-2500D02*
D03*
X3300Y-20600D02*
D03*
X2000Y-17000D02*
D03*
X-1750Y-6200D02*
D03*
X-500Y-9100D02*
D03*
X-800Y-7500D02*
D03*
X3300Y-23100D02*
D03*
X2400Y-18400D02*
D03*
X-3100Y-16800D02*
D03*
X-3000Y-15500D02*
D03*
X1000Y-23100D02*
D03*
X11300Y-23500D02*
D03*
X10400D02*
D03*
X7300Y-23900D02*
D03*
X2000Y-25100D02*
D03*
Y-25500D02*
D03*
X1600D02*
D03*
Y-25100D02*
D03*
X-750Y-26700D02*
D03*
X-1250Y-27000D02*
D03*
X-1750Y-26700D02*
D03*
X-2250Y-27000D02*
D03*
X-2750Y-26700D02*
D03*
X-3250Y-27000D02*
D03*
X-3750Y-26700D02*
D03*
X-4250Y-27000D02*
D03*
X-4750Y-26700D02*
D03*
X-9050Y-26700D02*
D03*
X-9550D02*
D03*
X-9050Y-26300D02*
D03*
X-9550D02*
D03*
X7750Y-26700D02*
D03*
X8250D02*
D03*
X7750Y-26300D02*
D03*
X8250D02*
D03*
X9550D02*
D03*
X9050D02*
D03*
X9550Y-26700D02*
D03*
X9050D02*
D03*
X8000Y-23900D02*
D03*
X13400Y-22950D02*
D03*
X-8000Y-2200D02*
D03*
X900Y-10700D02*
D03*
X-1300Y-13900D02*
D03*
X13400Y-15700D02*
D03*
X12200D02*
D03*
X12600D02*
D03*
X13000D02*
D03*
X13100Y-18300D02*
D03*
Y-17500D02*
D03*
Y-17900D02*
D03*
Y-17100D02*
D03*
X-6400Y-20000D02*
D03*
X-7550Y-20450D02*
D03*
X-10500Y-20000D02*
D03*
X-10800Y-21400D02*
D03*
Y-21000D02*
D03*
Y-20600D02*
D03*
X-13600Y-21300D02*
D03*
Y-20900D02*
D03*
Y-20500D02*
D03*
X500Y-21500D02*
D03*
X0Y-21300D02*
D03*
X-8150Y-20300D02*
D03*
X-8850Y-20200D02*
D03*
X-600Y-6200D02*
D03*
X-3300Y-8700D02*
D03*
X-5500Y-16500D02*
D03*
X1400Y-19000D02*
D03*
X-2600Y-12000D02*
D03*
X-5700Y-13700D02*
D03*
X-5200Y-15700D02*
D03*
X-3500Y-11200D02*
D03*
Y-13000D02*
D03*
Y-14600D02*
D03*
X-3100Y-14100D02*
D03*
X-1900Y-17000D02*
D03*
X-1400Y-17200D02*
D03*
X-1800Y-10400D02*
D03*
X-1300Y-10400D02*
D03*
X-9400Y-8800D02*
D03*
X-8900Y-11100D02*
D03*
X-8200Y-10800D02*
D03*
X-12800Y-10700D02*
D03*
X-3500Y-4100D02*
D03*
X-7600Y-2200D02*
D03*
X-9700Y-5900D02*
D03*
X-10900Y-14950D02*
D03*
Y-13800D02*
D03*
X-7850Y-8600D02*
D03*
X-11000Y-11050D02*
D03*
X-8350Y-8400D02*
D03*
X-10800Y-11550D02*
D03*
X-10600Y-10450D02*
D03*
X-11000Y-12050D02*
D03*
X-8500Y-12400D02*
D03*
X-3750Y-20700D02*
D03*
X-4850Y-20700D02*
D03*
X-2000Y-21700D02*
D03*
X-6000D02*
D03*
X-7099Y-15953D02*
D03*
X-6500Y-9500D02*
D03*
X-6600Y-11600D02*
D03*
X-12600Y-17850D02*
D03*
X-8399Y-17301D02*
D03*
X-13000Y-16300D02*
D03*
X-12850Y-18700D02*
D03*
X-10450Y-5900D02*
D03*
X5750Y-14100D02*
D03*
X9800Y-11500D02*
D03*
X6150Y-14100D02*
D03*
X7400Y-12400D02*
D03*
X8700Y-11800D02*
D03*
X7300Y-9200D02*
D03*
X10150Y-5600D02*
D03*
X9800Y-8000D02*
D03*
X7500Y-7900D02*
D03*
X7600Y-7300D02*
D03*
Y-6100D02*
D03*
X9350Y-5600D02*
D03*
X9750D02*
D03*
X7500Y-5500D02*
D03*
X9800Y-11100D02*
D03*
X9864Y-12723D02*
D03*
X11200Y-12000D02*
D03*
X11600D02*
D03*
X12000D02*
D03*
X11400Y-10850D02*
D03*
X12000Y-8400D02*
D03*
X10200Y-2800D02*
D03*
X10500Y-8000D02*
D03*
X12400Y-6350D02*
D03*
Y-5800D02*
D03*
X11085Y-5782D02*
D03*
X12400Y-5250D02*
D03*
Y-4700D02*
D03*
X11600Y-3600D02*
D03*
X12100Y-3300D02*
D03*
X11100Y-7800D02*
D03*
X5300Y-7800D02*
D03*
Y-7200D02*
D03*
Y-6600D02*
D03*
X5600Y-6000D02*
D03*
X6500Y-4450D02*
D03*
X8000Y-8100D02*
D03*
X9200D02*
D03*
X5300Y-8400D02*
D03*
X8600Y-8100D02*
D03*
M02*
