M48
;Layer_Color=9474304
;FILE_FORMAT=4:4
METRIC,LZ
;TYPE=PLATED
T01F00S00C0.2000
T02F00S00C0.6000
T03F00S00C3.5000
%
T01
X-00135Y-00244
Y-0024
X-00103Y-00239
Y-00243
Y-00235
X-000955Y-00263
Y-00267
X-000905
Y-00263
X-000475Y-00267
X-000425Y-0027
X-000375Y-00267
X-000325Y-0027
X-000275Y-00267
X-000225Y-0027
X-000175Y-00267
X-000125Y-0027
X-000075Y-00267
X-000025Y-0027
X000025Y-00267
X000075Y-0027
X000125Y-00267
X000175Y-0027
X000225Y-00267
X000275Y-0027
X0002Y-00255
Y-00251
X00016Y-00251
Y-00255
X0001Y-00231
X00033Y-00231
X00073Y-00239
X0008
X000775Y-00263
Y-00267
X000825
Y-00263
X000905
Y-00267
X000955
Y-00263
X00104Y-00235
X00113
X00134Y-002295
X00131Y-00216
X00139Y-00196
X00131Y-00183
Y-00179
Y-00175
Y-00171
X0013Y-00157
X00134
X00126
X00122
X0012Y-0012
X00116
X00112
X00114Y-00114
Y-001085
X00098Y-00111
Y-00115
X00098638Y-00127228
X00087Y-00118
X00074Y-00124
X00073Y-00144
X00077
X000615Y-00141
X000575
X00058Y-00105
X00051Y-00097
X00053Y-00084
Y-00078
Y-00072
Y-00066
X00056Y-0006
X00076Y-00061
X00075Y-00055
X00076Y-00073
X00075Y-00079
X0008Y-00081
X00086
X00092
X00098Y-0008
X00105
X00111Y-00078
X0012Y-00084
X00124Y-000635
Y-00058
Y-000525
Y-00047
X00121Y-00033
X00116Y-00036
X00102Y-00028
X00088Y-00025
X00088Y-00019
X00085Y-00016
X00055Y-00011
X00051
X00053Y-00037
X00065Y-000445
X000935Y-00056
X000975
X001015
X00110854Y-0005782
X00071Y-00086
X00073Y-00092
X0003Y-00082
X00023Y-00084
X00027353Y-00070342
X00027Y-00059
X00009Y-00077
X-00008Y-00075
X-00006Y-00062
X-000175Y-00062
X-00022Y-0005
X-00029Y-00053
X-00035Y-00041
X-00013Y-00046
X-00005Y-00091
X-00013Y-00104
X-00018Y-00104
X-00031Y-00095
X-00033Y-00087
X-00035Y-00112
X-00026Y-0012
Y-00124
X-00035Y-0013
X-00031Y-00141
X-00035Y-00146
X-0003Y-00155
X-00031Y-00168
X-00019Y-0017
X-00014Y-00172
X00013Y-00165
X0002Y-0017
X00034Y-00167
X00043
Y-00192
X0005
X00033Y-00206
X0004Y-0022
X00005Y-00215
X0Y-00213
X-0002Y-00217
X-000375Y-00207
X-000485Y-00207001
X-0006Y-00217
X-00064Y-002
X-000755Y-002045
X-000815Y-00203
X-000885Y-00202
X-000935Y-00205
X-00108Y-00206
Y-0021
Y-00214
X-00105Y-002
X-00136Y-00205
Y-00209
Y-00213
X-001285Y-00187
X-00126Y-001785
X-0013Y-00163
X-00109Y-001495
Y-00138
X-0011Y-001205
X-00108Y-001155
X-0011Y-001105
X-00106Y-001045
X-00089Y-00111
X-00082Y-00108
X-00085Y-00124
X-00066Y-00116
X-00065Y-00095
X-000685Y-00084
X-000785Y-00086
X-000835Y-00084
X-00094Y-00088
X-00097Y-00059
X-001045
X-00093Y-00042
X-0007Y-000385
X-00076Y-00022
X-0008
X-00077Y-00064
X-00057Y-00137
X-00052Y-00157
X-00055Y-00165
X-00070989Y-00159529
X-00072Y-00173
Y-0018
X-00083986Y-00173014
X-00017Y-00136
X-00013Y-00139
X00009Y-00107
X00015Y-00108
X00033Y-00114
X00024Y-00184
X00014Y-0019
X00081Y-00169
X00033Y-00023
X-00128Y-00107
T02
X-0015Y-00253
Y-002403
Y-002276
X0015
Y-002403
Y-00253
Y-002149
Y-002022
Y-001895
Y-001768
Y-001641
Y-001514
Y-001387
X0015Y-00126
Y-001133
Y-001006
Y-000879
Y-000752
Y-000625
X0015Y-000498
X0015Y-000371
Y-000244
X0015Y-00011673
X-0015Y-000117
Y-000244
Y-000371
Y-000498
Y-000625
Y-000752
Y-000879
Y-001006
Y-001133
Y-00126
Y-001387
Y-001514
Y-001641
Y-001768
Y-001895
Y-002021
Y-002149
T03
X0Y0
M30
